<?xml version="1.0" encoding="UTF-8" standalone="no"?>
<svg
   xmlns:dc="http://purl.org/dc/elements/1.1/"
   xmlns:cc="http://creativecommons.org/ns#"
   xmlns:rdf="http://www.w3.org/1999/02/22-rdf-syntax-ns#"
   xmlns:svg="http://www.w3.org/2000/svg"
   xmlns="http://www.w3.org/2000/svg"
   xmlns:sodipodi="http://sodipodi.sourceforge.net/DTD/sodipodi-0.dtd"
   xmlns:inkscape="http://www.inkscape.org/namespaces/inkscape"
   viewBox="0 0 209.47049 258.95828"
   version="1.1"
   id="svg22"
   sodipodi:docname="2000.svg"
   width="209.47049"
   height="258.95828"
   style="clip-rule:evenodd;fill-rule:evenodd"
   inkscape:version="0.92.4 (5da689c313, 2019-01-14)">
  <metadata
     id="metadata28">
    <rdf:RDF>
      <cc:Work
         rdf:about="">
        <dc:format>image/svg+xml</dc:format>
        <dc:type
           rdf:resource="http://purl.org/dc/dcmitype/StillImage" />
        <dc:title></dc:title>
      </cc:Work>
    </rdf:RDF>
  </metadata>
  <defs
     id="defs26" />
  <sodipodi:namedview
     pagecolor="#ffffff"
     bordercolor="#666666"
     borderopacity="1"
     objecttolerance="10"
     gridtolerance="10"
     guidetolerance="10"
     inkscape:pageopacity="0"
     inkscape:pageshadow="2"
     inkscape:window-width="1920"
     inkscape:window-height="1017"
     id="namedview24"
     showgrid="false"
     fit-margin-top="0"
     fit-margin-left="0"
     fit-margin-right="0"
     fit-margin-bottom="0"
     inkscape:zoom="0.50714286"
     inkscape:cx="-102.42876"
     inkscape:cy="130.492"
     inkscape:window-x="-8"
     inkscape:window-y="-8"
     inkscape:window-maximized="1"
     inkscape:current-layer="svg22" />
  <g
     id="g40"
     transform="translate(-175.3865,-71.533732)">
    <path
       id="path2"
       d="m 363.923,248.484 c -0.146,1.062 -0.945,1.781 -1.712,2.43 -1.177,0.987 -2.899,1.693 -4.37,2.233 -0.259,-4.112 3.236,-6.642 4.076,-10.305 2.577,0.843 1.757,3.671 2.006,5.642 z m -23.253,2.254 c 1.276,-2.855 3.135,-5.745 3.622,-9.043 l 0.017,-0.295 -0.054,-0.119 -0.092,-0.122 -0.255,-0.354 -0.107,-0.122 -0.117,-0.076 -0.401,-0.159 -0.191,-0.103 -0.245,0.013 -0.115,0.019 c -3.14,1.476 -5.638,3.796 -7.127,6.796 -1.513,2.336 -0.326,5.04 1.106,7.289 0.508,0.897 3.567,0.916 5.066,0.276 0.24,-0.108 2.096,-1.201 2.77,-1.771 2.036,-1.717 4.499,-3.112 6.279,-5.372 1.329,-2.258 0.102,-4.701 -0.878,-6.845 2.817,0.141 5.517,0.097 7.96,1.463 0.236,0.494 0.347,0.316 0.374,0.832 -1.377,3.485 -5.258,5.316 -5.428,9.673 0.045,4.656 1.873,4.537 2.605,4.339 4.536,-1.981 10.187,-4.561 12.126,-9.032 0.406,-3.62 -2.689,-6.074 -5.366,-7.586 v -0.07 c 2.802,-0.865 15.32,-1.202 12.337,2.514 -2.039,1.923 -4.451,3.566 -5.254,6.554 -0.277,1.859 0.143,3.779 1.146,5.344 0.093,0.151 0.317,0.268 0.442,0.298 l 0.37,0.086 c 0.133,0.036 0.254,0.028 0.388,0.009 l 0.093,-0.044 0.059,-0.005 0.125,-0.06 c 0.686,0.322 1.293,-0.367 1.983,-0.264 3.877,-1.552 7.329,-3.317 10.039,-6.513 1.053,-1.914 1.036,-4.48 -0.275,-6.507 -1.517,-1.652 -3.846,-0.374 -5.71,0.013 -0.143,-0.776 -0.682,-1.525 -1.364,-1.827 -5.057,-1.679 -11.092,-1.36 -16.528,-1.133 l -0.018,-0.027 -0.066,-0.127 -0.037,-0.06 c -0.031,-0.057 -0.093,-0.119 -0.16,-0.129 l -0.598,0.01 -0.022,-0.027 c -0.071,0 -0.103,-0.07 -0.147,-0.116 h -0.084 l -0.215,0.232 c -0.428,0.479 -0.901,0.898 -1.168,1.492 l -8.759,-1.022 -1.035,-0.897 c -0.767,-0.4 -1.722,0.354 -2.39,0.497 -0.678,0.063 -0.785,0.857 -0.824,1.395 -0.238,1.484 1.484,0.449 1.886,1.563 0.294,0.911 0.366,1.817 0.401,2.803 0.303,3.55 -3.158,5.329 -5.638,6.74 -0.076,0.046 -0.187,0 -0.263,-0.057 l -0.058,-0.013 -0.129,-0.054 -0.067,-0.035 -0.018,-0.084 -0.018,-0.019 c -0.031,-0.055 0.01,-0.112 0.027,-0.161 z m 39.46,-2.663 c -1.56,1.684 -3.76,3.153 -6.02,3.891 -0.331,-2.931 1.859,-5.729 3.371,-8.119 1.266,-0.308 2.158,0.292 2.877,0.622 0.949,0.47 0.585,2.544 -0.228,3.606 z m -74.536,17.203 0.019,0.016 c 0.441,0.859 1.002,1.654 1.664,2.371 1.257,1.311 3.027,0.013 4.664,0.235 0,0 22.281,-3.133 25.322,-3.29 1.972,-0.214 5.299,-1.014 7.707,-1.944 1.266,-0.235 2.764,0 4.031,-0.243 l 0.87,-0.108 c 0.531,-0.186 1.191,-0.746 0.897,-1.111 -0.394,-0.462 -1.093,-0.808 -1.73,-1.041 -0.049,-0.043 -0.394,-0.221 -0.487,-0.221 l -0.441,-0.233 c -0.196,-0.043 -0.393,-0.038 -0.589,-0.132 l -2.015,-0.525 c -8.046,-1.2 -19.098,-0.511 -27.719,0.49 2.248,-2.49 5,-5.461 7.783,-7.878 3.781,-3.888 9.624,-8.199 7.929,-14.896 -0.512,-1.449 -4.228,-7.307 -18.784,-0.889 -1.744,0.935 -3.747,1.549 -4.999,3.247 -0.273,0.364 -0.407,0.973 -0.05,1.365 0.067,0.103 0.103,0.343 0.134,0.529 0.103,0.609 0.615,0.463 0.91,0.887 0.071,0.103 0.161,0.179 0.259,0.249 0.758,0.646 1.837,1.776 2.934,1.019 3.943,-6.566 13.705,-8.808 15.632,-5.669 0.428,0.827 0,1.66 -0.495,2.509 -6.279,8.021 -14.816,14.747 -21.077,21.884 -1.093,0.23 -1.561,0.871 -2.057,1.56 l -0.084,0.084 -0.093,0.152 -0.423,0.559 -0.072,0.179 c -0.045,0.081 -0.035,0.192 0,0.284 l 0.062,0.084 z m -93.768,-11.809 c -0.234,-0.224 -0.187,-0.554 -0.216,-0.833 1.146,-3.489 3.106,-6.718 4.426,-10.07 l 0.035,-0.07 c 0.034,-0.089 0.021,-0.178 0.005,-0.267 l -0.008,-0.054 -0.059,-0.214 c -0.016,-0.114 -0.016,-0.222 0,-0.333 l 0.005,-0.019 v -0.075 l 0.071,-0.133 v -0.108 l -0.063,-0.078 -0.008,-0.035 -0.105,-0.122 -0.188,-0.16 c -0.12,-0.103 -0.201,-0.254 -0.347,-0.324 l -0.187,-0.097 c -0.083,-0.006 -0.17,0.021 -0.237,-0.019 -0.207,-0.125 -0.316,-0.314 -0.552,-0.027 h -0.069 l -0.015,-0.028 -0.146,-0.059 -0.092,-0.014 -0.172,0.152 -1.38,0.981 c -4.448,5.237 -7.686,17.01 0.502,13.506 2.963,-1.476 5.247,-3.547 7.728,-5.58 -0.74,2.601 -1.366,4.737 -2.198,7.367 -1.4,5.107 -3.169,10.619 -2.101,15.591 0.475,0.673 0.457,2.187 1.468,2.1 0.579,-0.586 1.844,-0.138 1.781,-1.408 -0.809,-1.682 1.214,-2.158 1.214,-3.744 1.271,-7.621 3.742,-15.853 5.351,-23.209 l 0.993,-1.417 c -0.014,-0.859 -1.006,-1.122 -1.356,-1.916 -1.234,0.302 -2.668,-0.533 -3.66,0.889 0.048,0.355 0.279,0.765 0.105,1.063 -2.542,3.463 -5.978,6.372 -9.717,8.78 l -0.14,0.054 -0.117,0.044 c -0.054,0.027 -0.118,0.01 -0.172,-0.022 l -0.182,-0.048 -0.17,-0.028 z m -6.047,-3.219 c -0.406,1.492 -0.553,2.719 -1.421,3.933 -2.488,3.752 -6.951,6.958 -10.353,9.805 -2.667,2.241 -6.62,6.41 -9.056,8.873 -0.232,0.329 -0.566,0.159 -0.484,-0.428 l 0.019,-0.008 0.02,-0.125 v -0.267 l -0.042,-0.057 -0.097,-0.178 v -0.111 c 3.635,-6.548 9.321,-12.263 13.373,-18.846 1.095,-1.641 1.953,-3.066 1.4,-4.62 -1.168,-4.083 -11.12,-0.56 -13.019,0.07 l -0.132,0.019 H 185.9 l -0.097,-0.062 c -0.265,-0.144 -0.662,0.551 -1.123,0.505 l -0.018,-0.016 -0.022,-0.062 -0.027,-0.073 -0.077,-0.016 -0.302,0.008 c -0.152,0.019 -0.301,0.041 -0.439,0.019 -0.357,-0.062 0.008,0.249 -0.252,0.327 l -0.008,0.011 c -0.271,0 -0.516,-0.079 -0.786,-0.028 -0.201,0.036 -0.402,-0.018 -0.601,0.036 -0.253,0.065 -0.505,0.097 -0.755,0.116 -0.434,0.035 -0.885,0.051 -1.32,0 -0.338,-0.035 -0.64,-0.1 -0.971,-0.152 -0.239,-0.051 -0.439,-0.135 -0.654,-0.213 -0.138,-0.073 -0.238,-0.135 -0.352,-0.235 l -0.219,-0.049 c -1.054,-0.589 -2.23,-1.914 -2.461,-3.35 -0.416,-5.104 3.66,-8.629 6.443,-11.849 4.425,-4.317 9.681,-7.815 14.92,-11.176 l 0.359,-0.205 c 0.116,-0.062 0.239,-0.097 0.366,-0.119 l 0.325,-0.076 0.163,-0.103 0.187,-0.048 0.417,-0.138 c 0.337,-0.067 0.667,0.076 0.991,-0.027 0.479,-0.152 0.967,-0.111 1.455,-0.16 l 0.317,-0.13 0.328,-0.048 0.662,-0.2 h 0.192 l 0.196,0.078 c 0.143,0.011 0.279,-0.016 0.417,0.038 v 0.022 l 0.036,0.008 -0.036,-0.03 0.089,0.222 c 0.074,0.614 0.047,1.219 0.111,1.83 l 0.028,0.17 0.265,0.668 0.058,0.116 0.029,0.098 h 0.023 v 0.027 l 0.048,0.024 c 1.084,0.063 0.343,1.428 0.549,2.152 0.567,1.433 -0.132,2.02 -2.981,4.564 -6.18,2.868 -12.833,5.477 -18.382,11.14 -0.316,0.325 -0.987,0.971 -1.266,1.614 3.315,0.503 7.271,-0.746 10.563,-0.924 3.929,-0.868 9.546,-0.912 12.28,2.857 0.791,1.157 1.441,2.528 1.188,4.039 l 0.087,0.075 0.014,0.084 0.026,0.125 -0.017,0.062 -0.028,0.16 -0.059,0.233 z m 69.315,-0.517 c 2.607,-2.041 5.842,-3.547 7.011,-7.256 0.161,-0.83 0.722,-4.263 -1.838,-3.931 -5.661,0.552 -9.952,4.545 -9.882,11.552 0,0 -1.028,0.876 -1.661,0.924 -0.993,0.063 -1.572,-0.792 -1.805,-1.2 -1.279,-2.85 -2.038,-7.178 -4.983,-8.413 -2.04,0.022 -4.393,1.201 -5.849,2.717 -0.406,-1.538 -1.69,-3.582 -3.372,-3.89 -0.35,-0.063 -0.519,0.054 -0.894,0.433 -0.055,0.051 -0.169,0.11 -0.269,0.145 -0.136,0 -0.346,0.187 -0.306,0.346 1.041,4.02 -2.188,8.538 -1.447,12.717 0.941,0.995 0.566,2.793 2.117,2.517 0.659,0.035 1.321,-0.313 1.769,-0.624 2.137,-2.452 2.754,-5.783 2.83,-9.16 1.006,-1.203 3.002,-2.912 3.947,-2.311 1.447,3.868 1.146,9.629 5.499,11.019 2.131,0.559 3.525,-0.762 4.877,-1.882 0.479,1.171 1.041,1.863 2.196,1.995 2.147,0.517 5.055,-1.527 7.648,-3.663 1.6,-1.34 3.465,-3.014 5.089,-4.295 -0.65,2.846 -0.196,5.495 1.111,7.95 0.28,0.711 2.065,0.57 2.975,-0.346 1.194,-1.725 2.899,-2.901 4.142,-4.215 0.897,-0.935 1.745,-2.1 2.725,-2.73 -0.222,3.379 -3.986,14.128 -4.081,17.637 -0.102,3.49 0.162,7.345 2.334,9.946 0.596,0 1.235,-0.084 1.784,-0.641 l -0.01,-0.013 -0.045,-0.146 v -0.054 l -0.018,-0.062 -0.214,-0.333 v -0.027 l -0.04,-0.084 c -0.022,-0.076 -0.022,-0.16 0,-0.235 l 0.031,-0.157 0.062,-0.089 0.045,-0.044 v -0.046 c -0.053,-2.781 1.593,-5.672 1.455,-8.656 0.588,-4.858 4.611,-17.121 3.103,-21.581 l 0.045,-0.103 0.116,-0.195 0.017,-0.043 c 0.028,-0.206 -0.035,-0.398 -0.129,-0.579 l -0.151,-0.151 -0.102,-0.116 -0.169,-0.106 c -0.072,-0.046 -0.117,-0.116 -0.17,-0.187 l -0.13,-0.254 c -0.031,-0.048 -0.093,-0.084 -0.146,-0.067 l -0.232,0.019 c -1.089,0.057 -2.303,-0.971 -3.364,0.151 -0.433,4.215 -3.63,6.277 -6.476,8.394 -0.579,0.454 -0.4,-1.173 -0.432,-1.682 -0.026,-0.505 0.103,-2.755 0.272,-3.357 0.16,-0.563 0.643,-2.574 0.505,-3.279 -0.028,-0.152 -0.041,-0.281 -0.104,-0.406 -0.035,-0.054 -0.101,-0.07 -0.151,-0.081 l -0.063,-0.076 -0.103,-0.029 c -0.155,-0.027 -0.316,-0.035 -0.468,0.016 l -0.204,0.06 c -0.232,0.029 -0.447,0.04 -0.674,0.094 l -0.308,0.133 c -0.339,0.137 -0.696,0.132 -1.043,0.119 -1.383,-0.049 -0.37,1.427 -0.901,2.073 -3.122,2.974 -8.511,7.277 -10.028,7.464 -1.443,0.037 -1.443,-1.626 -1.443,-1.626 z m 3.287,-8.421 c 0,0 2.555,2.847 -4.105,7.186 0,0 0.444,-6.075 4.105,-7.186 z m -31.798,3.009 c 0.319,1.811 0.415,3.633 0.973,5.358 -0.576,0.57 -1.201,0.614 -1.831,0.595 -0.48,-0.638 -1.566,-1.287 -2.349,-1.76 -3.421,3.806 -10.362,8.67 -12.202,8.67 -1.241,0.405 -2.894,-1.777 -3.186,-2.825 -1.594,-9.684 11.526,-12.752 13.892,-12.628 -0.178,-4.825 1.142,-12.255 3.958,-16.255 0.388,-0.641 1.042,-0.614 1.586,-0.684 2.562,2.179 -0.218,17.293 -0.841,19.529 z m -4.846,3.303 c -2.867,-1.041 -5.739,0.828 -7.769,2.847 -0.894,1.122 -1.966,2.312 -1.975,3.947 3.784,-0.849 7.229,-3.877 9.744,-6.794 z"
       inkscape:connector-curvature="0"
       style="fill:#161413" />
    <path
       id="path4"
       d="m 273.962,314.601 c -0.823,7.291 -7.024,12.96 -14.554,12.96 -8.093,0 -14.651,-6.54 -14.651,-14.607 0,-6.18 3.849,-11.462 9.283,-13.595 0.147,-0.806 0.225,-1.636 0.225,-2.482 0,-0.23 -0.004,-0.462 -0.018,-0.692 -7.193,2.201 -12.427,8.872 -12.427,16.769 0,9.684 7.874,17.538 17.587,17.538 8.986,0 16.398,-6.729 17.453,-15.407 -0.989,-0.084 -1.958,-0.244 -2.898,-0.484 z M 258.631,298.37 c 0.255,-0.013 0.515,-0.024 0.777,-0.024 7.05,0 12.933,4.966 14.333,11.581 0.988,0.357 2.025,0.601 3.098,0.73 -1.129,-8.602 -8.499,-15.236 -17.431,-15.236 -0.262,0 -0.522,0.008 -0.781,0.019 0.039,0.473 0.062,0.949 0.062,1.438 0,0.502 -0.023,0.997 -0.058,1.492 z"
       inkscape:connector-curvature="0"
       style="fill:#fec133" />
    <path
       id="path6"
       d="m 241.067,312.955 c -0.001,-0.506 0.021,-0.995 0.064,-1.49 -0.257,0.013 -0.518,0.024 -0.782,0.024 -8.086,0 -14.651,-6.545 -14.651,-14.612 0,-8.064 6.565,-14.603 14.651,-14.603 8.094,0 14.656,6.539 14.656,14.603 0,6.181 -3.851,11.455 -9.286,13.593 -0.147,0.806 -0.227,1.63 -0.227,2.485 l 0.018,0.695 c 7.196,-2.201 12.429,-8.876 12.429,-16.773 0,-9.683 -7.876,-17.534 -17.591,-17.534 -9.715,0 -17.585,7.851 -17.585,17.534 0,9.684 7.87,17.538 17.585,17.538 0.265,0 0.521,-0.009 0.782,-0.019 -0.037,-0.476 -0.063,-0.96 -0.063,-1.441 z"
       inkscape:connector-curvature="0"
       style="fill:#024fa2" />
    <path
       id="path8"
       d="m 263.909,295.226 c 0.828,-7.289 7.029,-12.952 14.555,-12.952 8.092,0 14.656,6.539 14.656,14.603 0,6.181 -3.853,11.455 -9.28,13.593 -0.148,0.806 -0.236,1.63 -0.236,2.485 l 0.016,0.694 c 7.199,-2.2 12.433,-8.875 12.433,-16.772 0,-9.683 -7.875,-17.534 -17.59,-17.534 -8.986,0 -16.389,6.723 -17.448,15.396 0.985,0.087 1.958,0.254 2.894,0.487 z m 15.272,17.729 c 0,-0.506 0.023,-0.995 0.063,-1.49 -0.259,0.014 -0.515,0.025 -0.78,0.025 -7.047,0 -12.934,-4.967 -14.332,-11.579 -0.986,-0.357 -2.022,-0.6 -3.099,-0.73 1.133,8.6 8.502,15.234 17.431,15.234 0.265,0 0.521,-0.008 0.78,-0.019 -0.036,-0.476 -0.063,-0.96 -0.063,-1.441 z"
       inkscape:connector-curvature="0"
       style="fill:#161413" />
    <path
       id="path10"
       d="m 312.073,314.601 c -0.82,7.291 -7.019,12.96 -14.556,12.96 -8.089,0 -14.645,-6.54 -14.645,-14.607 0,-6.18 3.848,-11.462 9.285,-13.595 0.143,-0.806 0.222,-1.636 0.222,-2.482 l -0.017,-0.692 c -7.193,2.201 -12.427,8.872 -12.427,16.769 0,9.684 7.87,17.538 17.581,17.538 8.993,0 16.4,-6.724 17.457,-15.402 -0.99,-0.089 -1.957,-0.249 -2.9,-0.489 z m -15.269,-17.723 c 0,0.503 -0.018,0.998 -0.063,1.492 0.26,-0.013 0.518,-0.024 0.776,-0.024 7.056,0 12.943,4.966 14.338,11.581 0.986,0.357 2.02,0.601 3.1,0.73 -1.132,-8.602 -8.5,-15.236 -17.438,-15.236 -0.258,0 -0.517,0.008 -0.776,0.019 0.041,0.473 0.063,0.949 0.063,1.438 z"
       inkscape:connector-curvature="0"
       style="fill:#00ae5a" />
    <path
       id="path12"
       d="m 316.583,279.343 c -8.987,0 -16.399,6.723 -17.456,15.396 0.994,0.087 1.958,0.254 2.895,0.487 0.828,-7.289 7.027,-12.952 14.56,-12.952 8.086,0 14.651,6.539 14.651,14.603 0,8.067 -6.566,14.612 -14.651,14.612 -7.055,0 -12.941,-4.971 -14.338,-11.586 -0.981,-0.357 -2.02,-0.601 -3.099,-0.722 1.133,8.591 8.505,15.234 17.438,15.234 9.708,0 17.586,-7.853 17.586,-17.537 0,-9.684 -7.878,-17.535 -17.587,-17.535 z"
       inkscape:connector-curvature="0"
       style="fill:#f15728" />
    <path
       id="path14"
       d="m 304.164,120.579 c -2.061,-1.349 -5.513,-0.446 -7.68,-0.351 l -0.214,-0.013 c -0.296,-0.064 -0.572,0 -0.867,-0.029 l -0.169,-0.171 -0.044,-0.056 c -0.111,-0.017 -0.179,-0.1 -0.286,-0.082 -0.125,0.018 -0.258,0.018 -0.379,0.065 l -0.111,0.026 -0.236,0.078 c -0.643,0.242 -1.298,0.729 -1.415,1.355 -1.868,4.496 0.982,9.731 3.613,13.51 2.386,2.385 5.62,4.133 8.955,3.333 1.335,-0.79 1.531,-2.677 1.744,-3.757 -0.094,-4.232 0.834,-10.844 -2.911,-13.908 z m -1.615,13.047 c 0,0.079 -0.557,0.079 -0.557,-0.073 -0.241,-0.54 -0.639,-0.922 -1.039,-1.233 -0.081,-0.154 -0.241,-0.231 -0.241,-0.458 l -0.477,-0.464 c -0.318,-0.617 -0.723,-1.23 -1.12,-1.768 -0.713,-0.769 -1.436,-1.467 -1.757,-2.308 -0.241,-0.692 -0.241,-1.538 0.16,-2.158 0.562,-0.769 1.2,-1.147 2.078,-1.451 0.477,-0.078 1.151,-0.205 1.722,-0.047 l 0.071,0.047 0.005,0.027 0.084,0.082 v 0.136 l -0.017,0.209 c -0.028,0.06 -0.045,0.146 0.009,0.186 l 0.072,0.065 c 0.263,0.6 0.088,0.99 0.37,1.672 l 0.396,1.078 c 0,2.153 0.882,4.307 0.241,6.458 z m -19.463,-15.023 c -0.206,0.127 -0.473,0.283 -0.701,0.365 l -0.187,0.149 c -0.37,0.22 -0.548,0.56 -0.709,0.93 l -0.16,0.125 c -0.139,0.27 -0.224,0.548 -0.263,0.861 l 0.146,0.191 c 0.259,0.598 0.75,0.942 1.364,0.962 l 0.465,-0.008 c 0.423,0.035 0.82,0.2 1.257,0.18 0.251,-0.026 0.464,-0.009 0.697,0.042 0.677,0.086 2.033,0.456 2.073,0.464 0.487,0.114 0.932,0.623 1.409,0.466 0.376,-0.092 0.646,-0.548 0.826,-0.939 0.084,-0.412 0.319,-0.703 0.477,-1.011 0.392,-0.605 0.954,-1.17 0.754,-1.899 l -0.037,-0.047 c -0.125,-0.031 -0.249,-0.071 -0.37,-0.049 l -0.067,0.031 -0.178,-0.022 -0.108,-0.022 -0.088,-0.068 c -0.054,-0.183 -0.134,-0.201 -0.206,-0.301 -1.636,-0.669 -2.996,-1.516 -4.816,-1.576 l -0.099,0.011 -0.28,-0.042 -0.04,0.074 -0.116,0.16 -0.084,0.331 -0.049,0.051 c -0.224,0.131 -0.438,0.262 -0.647,0.423 -0.094,0.013 -0.174,0.09 -0.245,0.155 l 0.004,-0.004 z m -3.267,27.948 c 0.234,0.147 0.444,0.32 0.671,0.42 0.178,0.087 0.33,0.218 0.522,0.261 l 0.405,0.117 0.223,0.1 0.411,0.114 0.12,0.095 c 0.442,0.13 1.003,0.052 1.244,0.517 0.045,0.079 0.189,0.108 0.277,0.166 0.789,-0.022 1.329,0.747 1.878,0.216 l 0.008,-0.016 0.076,-0.048 0.107,-0.174 0.023,-0.017 c 0.013,-0.105 0.022,-0.221 0,-0.323 l -0.009,-0.142 c -0.557,-5.861 -4.932,-11.902 -9.508,-16.035 -16.925,-15.284 -39.406,12.651 -39.406,12.651 -1.184,1.429 -0.531,3.005 1.487,2.214 0.299,0.058 0.63,-0.183 0.87,-0.238 0.479,-0.173 0.958,-0.404 1.438,-0.638 l 1.199,-0.345 c 0.178,-0.113 0.357,-0.347 0.599,-0.465 0.96,-0.46 2.037,-0.633 2.937,-1.324 0.359,-0.291 0.96,-0.231 1.497,-0.347 1.079,-0.231 1.917,-0.924 2.936,-1.269 1.861,-0.638 3.718,-1.043 5.512,-1.794 0.18,-0.056 0.42,-0.227 0.598,-0.347 l 1.084,-0.113 c 0.716,-0.231 1.438,-0.518 2.154,-0.865 0.303,-0.173 0.654,-0.269 0.959,-0.291 0.686,-0.051 1.321,0 1.978,-0.229 0.242,-0.058 0.479,0.146 0.657,0.028 0.723,-0.346 1.498,0.101 2.28,-0.077 0.164,-0.031 0.33,-0.087 0.492,-0.069 0.074,0.005 0.17,0.034 0.23,-0.013 l 0.004,-0.059 0.083,-0.099 0.096,0.067 h 0.127 c 0.227,0.091 2.493,1.65 3.325,1.985 0.265,0.105 0.236,0.2 0.318,0.433 0.161,0.304 0.48,0.383 0.801,0.535 0.154,0.079 0.397,-0.077 0.529,-0.085 0.744,0.085 1.467,0.394 2.022,0.857 0.562,0.309 0.723,0.923 1.202,1.383 0.397,0.309 0.877,0.465 1.439,0.695 0.16,0.078 0.238,0.461 0.479,0.617 0.801,0.382 0.109,0.491 0.909,0.724 0.799,0.231 1.517,0.692 2.237,1.151 0.161,0.076 0.322,0.076 0.48,0.076 z m 43.921,-15.479 -0.009,0.014 -0.272,0.229 c -0.183,0.34 -0.262,0.738 -0.504,1.051 -0.445,0.527 -0.843,1.057 -1.374,1.53 -0.107,0.082 -0.284,0 -0.312,0.131 -0.085,0.216 -0.241,0.395 -0.348,0.582 -0.026,0.078 0,0.156 0.01,0.238 0.013,0.123 0.052,0.26 -0.036,0.332 l -0.106,0.124 -0.125,0.123 c -0.126,0.051 -0.246,0.135 -0.331,0.247 -0.509,0.604 -1.008,1.196 -1.432,1.92 -0.397,0.696 -1.039,1.39 -1.555,1.89 -0.616,0.587 -1.874,1.312 -2.437,1.847 l -0.187,0.229 c -0.173,0.213 -0.436,0.318 -0.629,0.509 l -0.918,0.861 c -0.12,0.124 -0.245,0.229 -0.338,0.387 -0.086,0.159 -0.174,0.282 -0.281,0.442 -0.196,0.264 -0.436,0.455 -0.598,0.751 -0.089,0.14 -0.204,0.242 -0.325,0.322 -0.834,0.556 -1.28,1.463 -2.042,2.041 -0.835,0.423 -1.87,0.269 -2.636,0 -0.621,-0.218 -0.995,-0.503 -1.632,-0.651 -0.563,-0.233 -0.964,-0.696 -1.525,-1.002 -0.156,-0.076 -0.394,-0.154 -0.553,-0.154 -0.035,0 -0.09,-0.347 -0.215,-0.433 -0.089,-0.088 -0.147,-0.205 -0.267,-0.259 -0.161,-0.077 -0.387,-0.106 -0.562,-0.155 -0.161,-0.052 -0.219,-0.252 -0.366,-0.338 -0.241,-0.144 -0.419,-0.318 -0.571,-0.491 l -0.178,-0.018 c -0.16,-0.078 -0.179,-0.269 -0.255,-0.347 -0.24,-0.087 -0.495,-0.127 -0.7,-0.273 -0.066,-0.028 -0.177,-0.018 -0.245,0 -0.236,0.077 -0.397,-0.071 -0.637,-0.149 -0.643,-0.31 -0.857,-1.069 -1.597,-1.234 -0.135,-0.027 -0.018,-0.195 -0.072,-0.26 -0.15,-0.174 -0.392,-0.118 -0.597,-0.261 -0.062,-0.057 -0.21,-0.104 -0.294,-0.095 -0.799,0.074 -1.436,-0.464 -2.078,-0.77 -0.638,-0.308 -0.705,-0.339 -1.339,-0.573 l -0.962,-0.308 c -0.189,-0.092 -0.349,-0.238 -0.612,-0.218 -0.28,0.017 -1.833,0.057 -1.298,2.134 1.489,4.231 4.799,10.817 9.731,16.208 10.543,11.517 28.749,-16.243 30.799,-30.866 0,0 0.321,-2.655 -1.431,-1.373 -0.29,0.21 -0.527,0.443 -0.843,0.596 -0.245,0.079 -0.187,0.288 -0.28,0.465 -0.068,0.125 -0.121,0.251 -0.17,0.382 l -0.187,0.173 -0.103,0.036 -0.093,0.07 -0.17,0.095 -0.147,0.142 -0.031,0.05 -0.147,0.169 c -0.111,0.191 -0.272,0.346 -0.434,0.495 -0.637,0.925 -1.358,1.699 -2.197,2.505 l -0.009,0.159 -0.029,0.028 -0.08,0.159 -0.218,0.051 c -0.102,0.045 -0.183,0.109 -0.271,0.173 l -0.054,0.075 c -0.117,0.068 -0.211,0.159 -0.296,0.263 z m -38.477,-0.459 c 0.294,-0.036 0.606,-0.105 0.904,-0.132 l 0.183,-0.008 0.241,-0.038 0.036,0.005 0.28,0.028 0.094,0.031 c 0.491,0.173 1.499,0.5 2.203,0.478 0.611,0.338 0.304,-1.278 0.349,-2.094 l -0.187,-0.547 c 0,-0.473 0.191,-1.174 -0.028,-1.3 l -0.695,0.066 c -0.361,-0.122 -0.499,-0.478 -0.937,-0.6 -0.472,-0.126 -0.959,-0.196 -1.454,-0.2 -0.428,0.009 -0.812,-0.078 -1.222,-0.196 -0.41,-0.118 -0.812,-0.204 -1.258,-0.073 l -0.245,0.325 c -0.289,0.186 -0.299,0.426 -0.437,0.722 l -0.459,0.256 c -0.598,1.251 -0.643,1.785 -0.62,2.832 0.006,0.096 0,0.182 0.058,0.257 v 0.07 c 0.018,0.06 0.049,0.151 0.116,0.159 0.232,0.031 0.438,0.041 0.643,0.14 0.329,0.152 0.691,0.116 1.048,0.125 0.214,-0.009 0.392,-0.019 0.606,-0.042 l 0.228,-0.109 0.427,-0.142 z"
       inkscape:connector-curvature="0"
       style="fill:#fec133" />
    <path
       id="path16"
       d="m 322.439,112.886 c 0.134,0.167 0.268,0.331 0.419,0.5 0.17,0.144 0.339,0.313 0.464,0.496 0.121,0.151 0.335,0.213 0.37,0.409 0.014,0.096 0.049,0.125 0.133,0.125 l 0.138,0.026 v 0.017 c 0.332,0.243 0.643,0.556 0.937,0.861 l 0.01,0.009 0.062,0.074 0.063,0.064 0.08,0.091 0.228,0.169 c 0.128,0.127 0.214,0.294 0.37,0.418 0.088,0.082 0.187,0.156 0.304,0.196 l 0.266,0.086 0.242,0.096 c 0.08,0.018 0.163,0.031 0.24,0.013 l 0.348,-0.077 0.045,-0.041 0.026,-0.095 0.05,-0.051 0.018,-0.091 -0.041,-0.071 c -0.102,-0.325 -0.717,-3.028 -1.864,-4.017 l -3.657,-4.744 c -0.455,-1.161 -0.588,-1.425 -0.615,-1.466 l -1.021,-1.171 c -1.578,-1.794 -3.573,-3.219 -4.397,-5.404 -0.571,-0.732 -1.254,-1.438 -1.923,-2.121 -0.709,-0.733 -1.444,-1.485 -2.055,-2.29 L 311.63,94.81 c -0.062,-0.109 -0.313,-0.391 -0.375,-0.538 -0.669,-1.187 -3.827,-4.114 -4.995,-4.826 -0.241,-0.148 -0.4,-0.391 -0.633,-0.587 -0.223,-0.2 -0.428,-0.369 -0.687,-0.487 -1.186,-0.537 -2.292,-1.178 -3.215,-2.153 -0.126,-0.163 -0.308,-0.25 -0.46,-0.392 l -0.596,-0.806 c -4.666,-4.212 -7.297,-5.941 -12.079,-9.142 l -2.488,-1.674 c -0.419,-0.2 -0.852,-0.42 -1.307,-0.647 -2.854,-1.434 -6.083,-3.066 -9.046,-1.156 -0.198,0.396 -0.582,0.618 -0.956,0.838 -0.368,0.209 -0.689,0.359 -0.877,0.719 l 0.009,0.104 0.13,0.064 -0.005,0.069 h -0.009 l -0.02,0.105 -0.062,0.062 -0.022,0.004 c -0.02,0.134 -0.02,0.256 -0.152,0.356 l -0.274,0.165 -0.087,0.127 c -0.123,0.36 -0.388,0.61 -0.654,0.875 l -0.104,0.149 c -0.028,0.078 -0.032,0.174 -0.023,0.252 0.04,0.226 0.188,0.404 0.352,0.56 0.085,0.1 0.201,0.182 0.25,0.291 0.084,0.175 0.101,0.344 0.143,0.522 0.067,0.242 0.054,0.478 0.096,0.729 l 0.136,0.109 0.013,0.014 c 1.046,0.846 1.604,1.74 2.192,2.676 0.188,0.3 0.38,0.607 0.591,0.92 l 0.014,0.018 0.008,0.024 1.7,4.376 0.845,2.165 0.004,0.016 v 0.013 c 0.346,1.416 0.373,2.903 0.402,4.353 0.013,0.691 0.027,1.411 0.078,2.102 l 0.013,0.096 c 0.032,0.053 0.014,0.127 -0.022,0.182 l -0.299,-0.042 -0.085,0.016 -0.064,-0.034 c -1.746,-0.914 -3.452,-1.994 -5.107,-3.037 -2.816,-1.781 -5.735,-3.623 -8.904,-4.671 -2.957,-0.778 -5.938,-1.84 -8.824,-2.872 -6.691,-2.387 -13.613,-4.86 -20.971,-3.988 -1.126,0.163 -2.369,0.098 -3.571,0.031 -2.535,-0.138 -4.927,-0.269 -6.261,1.721 l -0.013,0.013 -0.013,0.018 c -0.206,0.2 -0.17,0.378 -0.083,0.664 l 0.004,0.211 c 0.049,0.159 0.028,0.423 -0.06,0.578 -0.145,0.227 -0.37,0.454 -0.332,0.774 0.392,1.024 0.653,1.115 0.567,1.769 l 0.066,0.078 c 0.107,0.315 0.126,0.629 0.299,0.869 1.147,0.734 2.193,1.536 3.205,2.305 0.979,0.747 1.981,1.521 3.075,2.221 l 0.008,0.005 0.01,0.008 c 1.565,1.277 3.499,3.904 5.2,6.216 0.8,1.087 1.559,2.116 2.165,2.854 l 0.344,0.413 -0.544,-0.066 c -6.795,-0.858 -18.541,0.326 -25.13,2.534 l -0.306,0.1 -0.065,0.052 -0.074,0.022 -0.082,0.06 c -0.433,0.091 -2.171,0.829 -2.263,0.851 -0.078,0.013 -0.201,0 -0.265,0.04 -0.092,0.051 -0.174,0.114 -0.248,0.183 l -0.114,0.104 -0.475,0.365 -0.232,0.222 -0.252,0.165 -0.109,0.082 c -0.192,0.131 -0.402,0.135 -0.636,0.16 l -0.074,0.044 c -0.771,0.296 -1.521,0.525 -2.297,1.625 -0.606,0.86 -1.799,1.138 -2.954,1.407 -0.859,0.201 -1.749,0.404 -2.366,0.847 l -0.018,0.013 -0.017,0.009 c -0.841,0.378 -1.548,0.861 -2.235,1.326 -0.455,0.308 -0.93,0.633 -1.423,0.911 -2.522,1.26 -4.473,2.268 -7.006,3.683 -1.526,0.752 -2.96,1.717 -4.667,3.142 -0.047,0.035 -0.105,0.077 -0.096,0.148 l -0.033,0.064 -0.063,0.052 -0.1,0.08 c -0.214,0.181 -0.435,0.328 -0.68,0.464 -0.138,0.083 -0.27,0.147 -0.357,0.274 -0.096,0.146 -0.192,0.278 -0.23,0.455 l -0.048,0.743 -0.206,0.181 c -0.022,0.15 -0.042,0.3 -0.1,0.428 l -0.014,0.137 -0.187,0.396 0.004,0.077 c 0.041,0.067 0.128,0.1 0.197,0.122 0.158,0.056 0.355,0.031 0.506,-0.008 l 0.274,-0.118 0.128,-0.125 0.347,-0.075 c 0.292,-0.103 0.571,-0.211 0.863,-0.294 0.141,-0.04 0.279,-0.093 0.388,-0.191 0.118,-0.085 0.184,-0.209 0.315,-0.276 0.116,-0.065 0.23,-0.098 0.348,-0.124 l 0.051,-0.028 0.071,-0.018 0.078,-0.042 0.051,-0.017 c 1.026,-0.456 2.076,-0.892 3.164,-1.116 0.375,-0.045 0.727,-0.077 1.073,-0.109 1.184,-0.113 2.301,-0.222 3.206,-0.725 0.836,-0.596 1.657,-1.251 2.454,-1.879 1.085,-0.865 2.209,-1.757 3.404,-2.531 l 0.147,-0.031 0.092,-0.022 -0.005,0.071 0.145,0.026 c 1.162,-0.878 2.391,-1.191 3.673,-1.533 1.238,-0.332 1.843,-0.474 2.928,-1.061 l 0.14,-0.086 0.165,-0.072 0.06,-0.082 0.219,-0.147 0.027,-0.055 0.269,-0.053 c 0.348,0.026 0.315,0.017 0.527,0.004 0.141,-0.009 0.337,-0.009 0.484,-0.045 l 0.196,-0.077 c 1.325,-0.352 2.001,-0.656 3.579,-1.421 l 0.134,-0.064 0.044,-0.041 c 0.043,-0.064 0.066,-0.142 0.143,-0.173 l 0.091,-0.029 0.297,-0.048 0.082,-0.04 0.041,0.027 0.239,0.022 0.053,-0.031 0.147,-0.137 c 0.096,-0.063 0.21,-0.077 0.319,-0.11 0.1,-0.022 0.206,-0.044 0.292,-0.008 l 0.064,0.126 0.101,0.005 0.1,-0.019 0.371,-0.048 0.169,-0.038 0.141,-0.118 c 0.1,-0.054 0.243,0.014 0.361,0.036 0.053,0.069 1.12,0.229 1.574,0.294 l 0.101,0.039 0.147,0.018 c 0,0 2.736,0.529 5.224,0.429 0.188,-0.004 0.411,-0.274 0.672,-0.211 l 0.056,-0.08 1.94,-1.203 0.127,-0.104 0.494,0.058 c 0.159,-0.022 0.341,-0.101 0.46,-0.045 0.207,0.1 0.338,0.3 0.522,0.456 0.068,0.072 0.191,0.022 0.278,0.065 0.21,0.117 0.453,0.148 0.641,0.299 0.099,0.072 0.199,0.167 0.267,0.278 0.047,0.109 0.091,0.231 0.179,0.254 0.457,0.077 0.914,0.119 1.375,0.055 l 0.067,-0.014 c 0.27,-0.019 0.548,0.067 0.814,0.009 0.197,-0.06 0.397,-0.117 0.606,-0.122 l 0.117,-0.06 0.122,-0.013 c 2.082,0.295 4.158,0.14 5.739,-0.029 2.458,-0.518 4.832,-0.096 7.124,0.311 1.252,0.222 2.545,0.454 3.836,0.527 1.554,-0.269 2.317,-1.638 2.854,-2.946 0.475,-2.245 0.096,-4.47 -1.037,-6.113 -1.7,-2.086 -3.721,-4.01 -5.675,-5.873 -2.461,-2.35 -5.01,-4.776 -6.95,-7.567 l -0.306,-0.436 2.005,0.431 c 1.247,0.769 2.676,0.93 4.192,1.103 1.269,0.14 2.58,0.288 3.753,0.832 3.298,1.893 6.279,3.227 9.696,4.677 0.305,0.131 0.62,0.118 0.941,0.169 l 0.095,0.113 c 0.11,-0.033 0.174,0.045 0.28,0.088 0.104,0.004 0.213,-0.029 0.318,0.013 0.239,0.118 0.48,0.204 0.723,0.287 0.388,0.091 0.776,0.009 1.123,0.131 l 1.51,0.782 0.134,0.151 c 0.141,0.041 0.241,0.083 0.348,0.16 0.436,0.374 0.842,0.64 1.321,0.952 l 0.436,0.44 c 0.306,0.23 0.662,0.178 0.971,0.338 0.101,0.04 0.243,0.045 0.306,0.156 l 0.082,0.049 c 1.458,0.338 2.911,0.887 4.304,1.434 0.694,0.269 1.405,0.551 2.114,0.793 l 0.119,0.076 c 0.131,0.01 0.236,0.013 0.37,0.047 0.232,0.064 0.501,0 0.735,0.091 0.181,0.062 0.393,0.1 0.543,0.213 0.334,0.261 0.64,0.434 0.978,0.556 0.493,0.186 0.99,0.264 1.456,0.529 l 0.156,0.009 c 0.127,0.113 0.281,0.171 0.41,0.258 l 0.063,0.051 c 0.744,0.396 1.512,0.809 2.289,1.134 0.939,0.049 1.594,0.354 2.237,0.656 0.78,0.365 1.516,0.709 2.72,0.478 0.252,-0.047 0.509,-0.009 0.759,0.027 0.26,0.036 0.51,0.073 0.714,0.009 0.25,-0.096 0.437,-0.309 0.643,-0.531 0.222,-0.247 0.45,-0.511 0.82,-0.659 l 0.254,0.016 c 0.495,-0.309 0.7,-0.765 0.772,-1.02 0.566,-1.958 0.036,-3.693 -0.527,-5.531 -0.384,-1.234 -0.776,-2.51 -0.793,-3.852 -0.054,-2.977 -0.982,-5.582 -1.883,-8.099 l -0.423,-1.202 c -0.084,-0.248 0.021,-0.14 0.058,-0.356 0.018,-0.127 0.169,-0.041 0.187,-0.045 0,0 2.702,1.061 4.04,1.439 1.026,0.286 2.079,0.586 3.032,0.982 0.665,0.082 1.085,0.478 1.49,0.872 0.384,0.357 0.741,0.7 1.28,0.755 1.664,-0.088 2.708,1.061 3.425,2.104 1.138,0.364 1.574,1.233 2.003,2.081 l 0.134,0.295 0.035,0.144 0.072,0.052 c 0.142,0.012 0.267,0.039 0.388,0.126 l 0.004,0.026 0.21,0.125 0.084,0.018 0.094,0.123 v 0.16 l 0.013,0.017 c 0.509,1.225 1.303,2.003 3.462,3.241 0.859,0.483 1.551,1.185 2.23,1.858 0.569,0.579 1.935,1.739 1.935,1.739 0.277,0.838 0.873,1.043 1.56,1.28 0.526,0.176 1.066,0.367 1.517,0.838 1.057,0.6 2.033,1.669 2.898,2.617 0.403,0.443 0.777,0.861 1.143,1.211 0.205,0.188 0.365,0.409 0.606,0.583 0.339,0.244 0.749,0.387 1.039,0.682 0.664,0.652 1.071,1.434 1.718,2.103 0.32,0.32 0.624,0.599 0.941,0.898 0.155,0.145 0.271,0.278 0.382,0.443 0.179,0.257 0.535,0.366 0.742,0.549 0.137,0.146 0.244,0.324 0.308,0.569 0.031,0.211 0.24,0.286 0.338,0.5 z"
       inkscape:connector-curvature="0"
       style="fill:#024fa2" />
    <path
       id="path18"
       d="m 227.572,168.615 -0.028,-0.027 -0.06,-0.025 -0.437,-0.062 c -0.662,-0.064 -0.915,-0.074 -1.403,-0.087 -0.517,-0.013 -1.05,-0.072 -1.556,-0.147 -0.924,-0.135 -1.751,0.203 -2.667,-0.071 -1.494,-0.678 -4.261,0 -5.755,-0.815 -0.114,-0.136 -0.232,-0.406 -0.462,-0.406 l -0.013,-0.055 h -0.074 l -0.355,-0.269 -0.16,-0.066 -0.031,-0.047 -0.02,-0.009 -0.337,-0.231 c -0.274,-0.393 -0.247,-0.529 -0.004,-0.958 0.188,-0.15 0.379,-0.654 0.999,-1.101 0.918,-0.665 21.765,-14.536 67.225,-9.497 9.634,1.065 16.349,5.9 19.752,19.236 4.376,17.154 4.787,39.025 3.23,54.243 -0.013,0.151 -0.031,0.4 -0.157,0.527 l -0.048,0.097 -0.012,0.222 -0.189,0.489 c -0.08,0.257 -0.088,0.544 -0.142,0.827 -0.04,0.227 -0.067,0.45 -0.196,0.649 -0.032,0.054 0,0.206 -0.067,0.249 l -0.192,0.56 c -0.134,0 -0.652,0.122 -0.781,0.105 -0.21,-0.043 -0.169,-0.443 -0.574,-0.394 -0.214,0.019 -0.464,0.013 -0.509,-0.057 -0.107,-0.17 -0.161,-0.408 -0.228,-0.597 l -0.45,-0.638 -0.076,-0.517 -0.013,-0.178 -0.088,-0.092 c -0.135,-0.103 -0.296,-0.114 -0.403,-0.254 -0.102,-0.171 -0.102,-0.365 -0.187,-0.552 -0.076,-0.186 -0.129,-0.383 -0.232,-0.551 l -0.067,-0.268 -0.111,-0.195 -0.026,-0.059 -0.076,-0.168 -0.424,-0.056 -0.143,-0.138 -0.125,-0.076 -0.115,-0.248 c -0.179,-0.45 -0.491,-1.039 -0.491,-1.039 -1.955,-4.387 -2.244,-4.565 -4.193,-8.099 -0.348,-0.538 -0.232,-1.222 -0.348,-1.766 -0.115,-0.138 -0.339,-0.543 -0.339,-0.675 0,-1.228 -1.19,-2.447 -1.302,-2.998 -0.481,-2.25 -0.812,-3.347 -0.929,-5.797 0,-0.543 -1.243,-2.809 -1.471,-3.352 -0.803,-1.901 -0.999,-3.399 -1.454,-5.571 -0.117,-0.682 -0.615,-1.903 -0.847,-2.581 -0.454,-1.498 -2.15,-3.579 -2.382,-5.208 l -0.973,-3.192 c -0.458,-2.039 -0.579,-3.666 -1.266,-5.569 -0.232,-0.814 -0.865,-1.852 -1.422,-2.45 l -0.027,-0.022 c -0.004,-0.067 0.027,-0.16 -0.04,-0.209 l 0.036,-0.227 0.027,-0.046 0.07,-0.083 0.019,-0.067 0.026,-0.033 0.036,-0.091 0.026,-0.013 -0.004,-0.1 c -2.225,-1.904 -2.901,-0.617 -3.471,-0.753 -1.496,0 -2.337,-1.081 -3.83,-1.355 -1.841,-0.411 -0.219,-0.318 -2.137,-0.318 -0.361,0 -1.454,-1.075 -1.799,-1.211 -1.722,-0.678 -3.303,-1.198 -5.055,-1.011 -2.527,0.273 -4.135,-0.796 -6.204,-1.203 -3.909,-0.544 -6.772,0.374 -10.677,-0.167 -0.575,0 -1.149,-0.577 -1.612,-0.715 l -0.24,-0.045 c -0.741,-0.086 -1.463,-0.111 -2.201,-0.055 l -0.763,0.047 c -0.575,0.053 -1.171,0.048 -1.776,0 -0.728,-0.06 -1.046,-0.303 -1.644,-0.343 -1.033,-0.138 -1.829,0.144 -2.888,-0.051 -0.131,-0.027 -0.283,-0.118 -0.424,-0.118 l -0.013,-0.018 -0.078,-0.051 -0.201,-0.126 c -0.475,-0.114 -0.949,-0.17 -1.429,-0.223 -0.845,-0.086 -1.639,-0.06 -2.488,-0.169 -0.453,-0.031 -0.875,-0.113 -1.325,-0.199 -0.453,-0.057 -0.901,-0.028 -1.354,-0.114 -0.292,-0.055 -0.554,-0.082 -0.842,-0.198 -0.292,-0.08 -0.587,-0.113 -0.879,-0.222 -0.475,-0.2 -0.954,-0.422 -1.483,-0.456 z m 69.66,30.826 0.111,0.023 0.028,0.027 c 0.048,0.01 0.16,0.033 0.146,-0.022 l 0.013,-0.159 c 0.028,-0.155 0.335,-1.019 0.246,-1.99 l -0.209,-1.371 c 0.058,-0.591 0.058,-0.727 0.058,-0.751 l -0.179,-0.704 c -0.117,-0.466 0.054,-2.333 -0.169,-4.605 l 0.017,-0.709 c -0.177,-3.063 -0.98,-6.88 -1.957,-9.912 -0.084,-0.427 -0.969,-2.886 -1.056,-3.355 -0.844,-3.159 -1.477,-4.321 -1.477,-4.321 -1.003,-2.754 -2.725,-5.358 -4.019,-7.06 l -0.017,-0.06 -0.419,-0.441 c -0.072,-0.082 -0.152,-0.151 -0.232,-0.206 l -0.21,-0.14 -0.111,-0.135 -0.028,-0.029 c -0.775,-0.835 -1.64,-1.781 -3.058,-1.679 -0.152,0.08 -0.33,0.085 -0.509,0.089 -0.165,0.011 -0.312,0 -0.446,0.077 l -0.01,0.033 0.028,0.036 -0.009,0.019 h -0.009 l -0.023,0.022 -0.036,0.011 h -0.009 l -0.12,0.077 -0.125,0.005 -0.054,0.022 c -0.111,0.086 -0.253,0.117 -0.401,0.153 l -0.063,0.029 -0.052,0.067 c -0.028,0.069 -0.01,0.142 0.025,0.211 l 0.037,0.122 -0.045,0.169 -0.097,0.222 0.025,0.05 v 0.01 c 0.224,0.396 0.269,0.732 0.308,1.087 l 0.049,0.346 v 0.019 l -0.187,1.498 -0.094,0.747 v 0.005 c -0.134,0.453 -0.396,0.882 -0.646,1.3 -0.125,0.199 -0.254,0.407 -0.366,0.611 l -0.009,0.027 -0.035,0.051 -0.107,-0.06 -0.036,-0.009 -0.017,-0.018 c -0.46,-0.52 -0.879,-1.084 -1.294,-1.624 -0.687,-0.93 -1.509,-1.808 -2.486,-2.602 -0.945,-0.677 -1.848,-1.138 -2.72,-1.855 -2.029,-1.672 -4.126,-3.544 -7.002,-4.349 -0.453,-0.12 -0.895,-0.311 -1.324,-0.502 -0.915,-0.396 -1.774,-0.769 -2.636,-0.422 l -0.009,0.004 h -0.008 c -0.115,0.027 -0.133,0.082 -0.154,0.17 l -0.038,0.057 c -0.014,0.051 -0.071,0.12 -0.128,0.147 -0.096,0.04 -0.225,0.074 -0.27,0.164 -0.046,0.332 0.031,0.392 -0.122,0.557 l 0.013,0.031 c -0.017,0.1 -0.074,0.186 -0.056,0.277 0.288,0.361 0.526,0.723 0.754,1.074 0.225,0.342 0.452,0.694 0.722,1.034 l 0.004,0.005 0.005,0.004 c 0.337,0.565 0.561,1.55 0.758,2.414 0.092,0.404 0.178,0.791 0.27,1.074 l 0.044,0.165 -0.187,-0.096 c -2.352,-1.199 -6.891,-2.728 -9.736,-3.065 l -0.134,-0.015 -0.031,0.005 -0.031,-0.005 h -0.042 c -0.178,-0.031 -0.959,-0.081 -0.994,-0.086 l -0.105,-0.027 -0.125,0.013 -0.063,0.014 -0.243,0.029 -0.128,0.026 -0.122,0.01 -0.061,0.003 c -0.09,0.009 -0.173,-0.018 -0.26,-0.044 h -0.036 c -0.343,-0.029 -0.663,-0.074 -1.151,0.113 -0.388,0.145 -0.881,0.049 -1.358,-0.042 -0.35,-0.062 -0.72,-0.135 -1.031,-0.104 h -0.019 c -0.379,-0.014 -0.729,0.013 -1.069,0.042 -0.227,0.022 -0.465,0.04 -0.697,0.044 -1.169,-0.017 -2.074,-0.022 -3.276,0 -0.702,-0.012 -1.438,0.228 -2.332,0.37 l -0.065,0.027 -0.022,0.013 -0.031,0.004 -0.056,0.009 -0.337,0.029 -0.182,0.022 -0.169,0.092 -0.157,0.191 -0.109,0.022 -0.118,0.1 -0.033,0.038 -0.142,0.076 -0.013,0.023 0.049,0.06 0.191,0.071 0.121,0.005 0.072,-0.013 0.142,0.027 0.375,0.047 0.178,0.004 0.167,-0.032 0.152,0.014 h 0.022 l 0.033,0.004 h 0.036 l 0.023,0.004 c 0.461,0.023 0.932,0.054 1.375,0.15 l 0.415,0.119 c 0.462,0.136 0.897,0.268 1.32,0.259 0.424,-0.04 0.85,-0.1 1.259,-0.158 0.563,-0.078 1.143,-0.16 1.727,-0.201 l 0.064,0.014 0.037,0.008 -0.014,0.019 0.051,0.026 c 0.589,-0.074 1.1,0.02 1.639,0.105 0.522,0.087 0.772,0.137 1.285,0.133 l 0.067,-0.004 0.074,0.004 0.036,-0.013 0.111,-0.009 0.017,-0.013 0.11,0.027 0.191,0.071 0.188,0.06 0.087,0.004 c 0.558,0.096 0.863,0.105 1.59,0.122 l 0.058,0.005 0.022,-0.005 0.087,-0.026 0.043,0.004 0.118,0.027 0.036,0.004 0.008,0.016 0.088,0.035 h 0.029 l 0.075,-0.013 0.139,0.013 0.109,0.038 v 0.045 l 0.036,0.013 0.042,0.009 0.145,0.042 0.069,0.014 0.074,-0.009 0.127,0.057 c 0.009,0.029 0.37,0.221 0.53,0.3 l 0.027,0.029 0.051,0.023 c 0,0 0.913,0.533 1.849,0.86 0.074,0.022 0.205,-0.018 0.287,0.036 l 0.037,-0.013 0.94,-0.05 0.069,-0.008 0.17,0.086 0.178,0.05 0.109,0.195 0.092,0.06 0.179,0.173 0.048,0.109 0.018,0.096 c 0.151,0.087 0.317,0.164 0.499,0.209 l 0.027,0.009 0.297,0.118 0.248,0.051 h 0.054 l 0.046,0.014 c 0.715,0.373 1.512,0.628 2.128,0.804 1.005,0.212 1.804,0.663 2.576,1.098 0.421,0.231 0.854,0.478 1.319,0.683 0.623,0.146 1.16,-0.114 1.603,-0.392 0.594,-0.535 0.868,-1.187 0.759,-1.794 -0.243,-0.805 -0.627,-1.611 -1.001,-2.389 -0.476,-0.983 -0.96,-1.999 -1.156,-3.028 l -0.032,-0.158 0.659,0.4 c 0.318,0.382 0.816,0.631 1.342,0.891 0.441,0.218 0.899,0.443 1.233,0.756 0.863,0.979 1.716,1.763 2.707,2.636 0.087,0.079 0.212,0.118 0.317,0.179 l 0.018,0.044 0.087,0.065 0.114,-0.065 0.213,0.173 c 0.123,0.078 0.283,0.705 0.388,0.791 l 0.413,0.447 0.022,0.064 0.096,0.096 c 0.092,0.169 0.197,0.305 0.315,0.464 l 0.077,0.192 c 0.069,0.109 0.21,0.144 0.297,0.236 l 0.083,0.091 0.022,0.026 c 0.475,0.312 0.91,0.681 1.32,1.043 l 0.632,0.447 0.03,0.039 0.127,0.069 0.258,0.143 0.16,0.144 c 0.076,0.124 0.154,0.224 0.258,0.311 0.147,0.131 0.409,0.009 0.527,0.154 l 0.055,0.029 0.105,0.135 0.013,0.022 c 0.193,0.224 0.398,0.455 0.62,0.664 0.33,0.156 0.513,0.343 0.687,0.521 0.219,0.222 0.419,0.431 0.896,0.545 0.103,0.024 0.188,0.073 0.272,0.12 0.085,0.049 0.17,0.096 0.254,0.109 0.111,0.009 0.215,-0.022 0.33,-0.055 0.126,-0.036 0.259,-0.079 0.415,-0.065 l 0.095,0.042 c 0.236,-0.013 0.391,-0.114 0.462,-0.173 0.563,-0.473 0.687,-1.047 0.821,-1.652 0.09,-0.411 0.178,-0.833 0.419,-1.216 0.527,-0.855 0.665,-1.733 0.799,-2.585 l 0.067,-0.407 0.08,-0.096 0.081,0.018 0.031,0.029 c 0,0 0.187,0.913 0.686,1.361 0.38,0.342 0.767,0.695 1.093,1.069 0.267,0.173 0.357,0.438 0.45,0.689 0.086,0.235 0.156,0.457 0.384,0.596 0.74,0.317 0.933,1.029 1.011,1.628 0.413,0.397 0.413,0.861 0.402,1.299 l -0.009,0.149 c -0.017,0.042 0.009,0.087 0.098,0.177 0.076,0.078 0.187,0.479 0.116,0.621 -0.044,0.682 0.116,1.121 0.776,2.098 0.263,0.383 0.179,0.9 0.321,1.329 0.121,0.365 0.456,1.143 0.456,1.143 -0.072,0.409 0.143,0.62 0.384,0.869 0.185,0.182 0.382,0.378 0.472,0.67 0.325,0.478 2.168,5.35 3.189,13.127 0.035,0.275 0.146,0.526 0.223,0.75 0.451,0.436 0.231,1.725 0.356,2.548 0.064,0.411 -0.067,0.807 0.058,1.199 0.089,0.172 0.045,0.428 0.107,0.624 0.116,0.374 0.245,0.64 0.588,0.738 z"
       inkscape:connector-curvature="0"
       style="fill:#f15728" />
    <path
       id="path20"
       d="m 377.579,263.68 c 0,-2.022 1.605,-3.623 3.638,-3.623 2.034,0 3.64,1.601 3.64,3.623 0,2.019 -1.607,3.623 -3.64,3.623 -2.033,0 -3.638,-1.604 -3.638,-3.623 z m 0.589,0 c 0,1.703 1.387,3.033 3.049,3.033 1.669,0 3.051,-1.33 3.051,-3.033 0,-1.717 -1.382,-3.033 -3.051,-3.033 -1.662,0 -3.049,1.316 -3.049,3.033 z m 4.334,-0.752 c -0.116,-0.505 -0.545,-0.779 -1.155,-0.779 -0.999,0 -1.414,0.757 -1.414,1.482 0,0.862 0.508,1.511 1.436,1.511 0.608,0 0.999,-0.284 1.133,-0.817 h 0.562 c -0.107,0.874 -0.856,1.409 -1.695,1.409 -1.235,0 -2.034,-0.93 -2.034,-2.082 0,-1.203 0.759,-2.092 2.026,-2.092 0.855,0 1.543,0.516 1.703,1.368 z m -15.181,-1.243 h 3.113 v 0.586 h -1.222 v 3.255 h -0.672 v -3.255 h -1.219 z m 3.55,0 h 0.946 l 1.066,3.004 h 0.01 l 1.029,-3.004 h 0.942 v 3.841 h -0.643 v -2.963 h -0.013 l -1.066,2.963 h -0.553 l -1.067,-2.963 h -0.008 v 2.963 h -0.643 z"
       inkscape:connector-curvature="0"
       style="fill:#161413" />
  </g>
</svg>
