<?xml version="1.0" encoding="UTF-8" standalone="no"?>
<svg
   xmlns:dc="http://purl.org/dc/elements/1.1/"
   xmlns:cc="http://creativecommons.org/ns#"
   xmlns:rdf="http://www.w3.org/1999/02/22-rdf-syntax-ns#"
   xmlns:svg="http://www.w3.org/2000/svg"
   xmlns="http://www.w3.org/2000/svg"
   xmlns:sodipodi="http://sodipodi.sourceforge.net/DTD/sodipodi-0.dtd"
   xmlns:inkscape="http://www.inkscape.org/namespaces/inkscape"
   viewBox="0 0 224.965 250"
   version="1.1"
   id="svg83"
   sodipodi:docname="2012.svg"
   width="224.965"
   height="250"
   style="clip-rule:evenodd;fill-rule:evenodd"
   inkscape:version="0.92.4 (5da689c313, 2019-01-14)">
  <metadata
     id="metadata89">
    <rdf:RDF>
      <cc:Work
         rdf:about="">
        <dc:format>image/svg+xml</dc:format>
        <dc:type
           rdf:resource="http://purl.org/dc/dcmitype/StillImage" />
        <dc:title></dc:title>
      </cc:Work>
    </rdf:RDF>
  </metadata>
  <defs
     id="defs87" />
  <sodipodi:namedview
     pagecolor="#ffffff"
     bordercolor="#666666"
     borderopacity="1"
     objecttolerance="10"
     gridtolerance="10"
     guidetolerance="10"
     inkscape:pageopacity="0"
     inkscape:pageshadow="2"
     inkscape:window-width="1920"
     inkscape:window-height="1017"
     id="namedview85"
     showgrid="false"
     fit-margin-top="0"
     fit-margin-left="0"
     fit-margin-right="0"
     fit-margin-bottom="0"
     inkscape:zoom="0.50714286"
     inkscape:cx="-94.559254"
     inkscape:cy="125"
     inkscape:window-x="-8"
     inkscape:window-y="-8"
     inkscape:window-maximized="1"
     inkscape:current-layer="svg83" />
  <clipPath
     id="a">
    <path
       d="M 167.517,75 H 392.482 V 325 H 167.517 Z"
       id="path2"
       inkscape:connector-curvature="0"
       style="clip-rule:evenodd" />
  </clipPath>
  <clipPath
     id="b">
    <path
       d="m 297.577,157.76 -25.935,-12.968 v 25.935 z"
       id="path5"
       inkscape:connector-curvature="0"
       style="clip-rule:evenodd" />
  </clipPath>
  <clipPath
     id="c">
    <path
       d="m 297.577,157.76 -25.935,-25.936 v 51.871 z"
       id="path8"
       inkscape:connector-curvature="0"
       style="clip-rule:evenodd" />
  </clipPath>
  <clipPath
     id="d">
    <path
       d="m 328.7,157.76 -25.935,-12.968 v 25.935 z"
       id="path11"
       inkscape:connector-curvature="0"
       style="clip-rule:evenodd" />
  </clipPath>
  <clipPath
     id="e">
    <path
       d="m 328.7,157.76 -25.935,-25.936 v 51.871 z"
       id="path14"
       inkscape:connector-curvature="0"
       style="clip-rule:evenodd" />
  </clipPath>
  <g
     id="g124"
     transform="translate(-167.517,-75)">
    <g
       id="g81"
       clip-path="url(#a)">
      <path
         id="path17"
         d="m 359.268,201.187 0.873,-4.162 -1.276,-0.331 0.179,-0.716 3.296,0.861 -0.172,0.706 -1.285,-0.331 -0.875,4.178 z"
         inkscape:connector-curvature="0" />
      <path
         id="path19"
         d="m 366.158,201.187 0.728,-3.523 -1.689,2.588 -0.801,-0.222 -0.613,-2.316 -0.775,3.678 -0.739,-0.205 1.097,-5.206 0.742,0.205 0.83,3.055 2.315,-3.337 0.742,0.203 -1.097,5.285 z"
         inkscape:connector-curvature="0" />
      <path
         id="path21"
         d="m 342.177,189.716 3.628,4.085 -25.302,15.033 z m -37.814,57.931 5.046,-20.272 7.56,14.017 z m -37.654,-1.297 31.115,4.541 -36.908,18.288 z m -25.352,-28.227 29.282,-2.061 -7.925,25.636 z m 1.727,-60.863 9.527,9.126 -12.818,-0.052 z m 57.929,57.462 -22.309,-3.687 -13.798,-32.87 z m 91.47,97.312 -49.597,-33.426 37.435,-20.43 -1.526,-2.892 4.669,-2.874 -30.508,-50.837 34.755,-53.048 -3.835,-4.681 1.887,-3.303 -22.397,-21.722 -35.73,-43.59 -4.825,4.257 -4.612,-4.488 -31.189,30.808 -8.44,-8.754 -2.308,3.527 -3.529,-3.284 -17.678,30.703 -63.118,-38.816 -3.081,6.83 -3.058,-1.657 -18.281,47.417 25.593,12.901 -4.102,12.432 -19.607,49.749 3.203,-0.043 -2.068,6.277 35.683,-2.521 -27.122,6.882 4.045,4.932 -2.33,0.735 23.401,25.521 -21.012,61.074 8.903,-1.693 -1.961,6.98 60.421,-15.031 8.299,-32.718 54.746,47.625 72.332,-6.62 -5.751,-4.383 z"
         inkscape:connector-curvature="0" />
      <g
         id="g33"
         style="fill:#ffffff">
        <path
           id="path23"
           d="m 264.162,246.683 -27.173,-28.704 -51.896,16.292 25.311,27.581 -16.862,59.83 55.074,-13.688 z"
           inkscape:connector-curvature="0" />
        <path
           id="path25"
           d="m 302.096,246.961 -34.893,-2.935 7.102,-28.636 34.89,2.94 z"
           inkscape:connector-curvature="0" />
        <path
           id="path27"
           d="m 322.991,240.776 -60.888,33.608 59.181,45.877 64.778,-9.649 -48.319,-32.568 42.472,-26.42 -33.396,-55.644 -37.623,22.351 z"
           inkscape:connector-curvature="0" />
        <path
           id="path29"
           d="m 382.782,140.961 -64.57,-62.632 -33.584,33.207 -11.32,-10.461 -30.379,52.745 64.993,62.25 33.577,-33.212 10.848,10.843 z"
           inkscape:connector-curvature="0" />
        <path
           id="path31"
           d="m 196.013,153.466 -22.107,66.991 103.196,-7.247 -20.261,-43.163 -22.151,1.183 12.353,-41.143 -59.99,-32.361 -16.528,42.889 z"
           inkscape:connector-curvature="0" />
      </g>
      <path
         id="path35"
         d="m 193.701,199.932 -2.043,-0.541 3.031,-14.406 2.043,0.542 z"
         inkscape:connector-curvature="0" />
      <path
         id="path37"
         d="m 202.656,191.213 c -1.834,0 -3.243,1.55 -3.243,3.384 0,1.834 1.433,3.384 3.243,3.384 1.81,0 3.219,-1.574 3.219,-3.384 0,-1.834 -1.409,-3.384 -3.219,-3.384 m 0,8.743 c -2.938,0 -5.359,-2.421 -5.359,-5.359 0,-2.938 2.421,-5.358 5.359,-5.358 2.938,0 5.334,2.42 5.334,5.358 0,2.938 -2.396,5.359 -5.334,5.359"
         inkscape:connector-curvature="0" />
      <path
         id="path39"
         d="m 218.096,199.932 -2.067,-0.541 1.621,-7.59 -5.241,2.818 -1.104,5.313 -2.068,-0.541 2.161,-10.128 2.046,0.539 -0.494,2.28 5.053,-2.819 2.02,1.691 z"
         inkscape:connector-curvature="0" />
      <path
         id="path41"
         d="m 224.795,191.777 -1.2,5.639 5.218,-2.818 0.353,-1.67 z m 5.053,8.155 -2.046,-0.541 0.47,-2.184 -4.982,2.725 -2.022,-1.69 1.905,-8.979 6.415,1.667 1.247,-5.945 2.044,0.541 z"
         inkscape:connector-curvature="0" />
      <path
         id="path43"
         d="m 238.678,191.213 c -1.834,0 -3.243,1.55 -3.243,3.384 0,1.834 1.433,3.384 3.243,3.384 1.81,0 3.22,-1.574 3.22,-3.384 0,-1.834 -1.41,-3.384 -3.22,-3.384 m 0,8.743 c -2.938,0 -5.358,-2.421 -5.358,-5.359 0,-2.938 2.42,-5.358 5.358,-5.358 2.938,0 5.335,2.42 5.335,5.358 0,2.938 -2.397,5.359 -5.335,5.359"
         inkscape:connector-curvature="0" />
      <path
         id="path45"
         d="m 254.119,199.932 -2.067,-0.541 1.621,-7.59 -5.241,2.818 -1.104,5.313 -2.068,-0.541 2.161,-10.128 2.046,0.539 -0.496,2.28 5.055,-2.819 2.02,1.691 z"
         inkscape:connector-curvature="0" />
      <path
         id="path47"
         d="m 329.792,145.832 c -0.41,-0.043 -0.825,-0.067 -1.249,-0.067 -0.434,0 -0.861,0.027 -1.278,0.072 -0.518,6.029 -4.827,10.965 -10.555,12.453 0.355,6.2 5.513,11.144 11.833,11.144 6.336,0 11.47,-4.941 11.83,-11.139 -5.735,-1.481 -10.063,-6.422 -10.581,-12.463 m 14.149,-13.056 c -6.315,0 -11.464,4.927 -11.836,11.132 5.728,1.476 10.076,6.41 10.6,12.46 0.411,0.045 0.821,0.069 1.236,0.069 6.57,0 11.899,-5.301 11.899,-11.821 0,-6.534 -5.329,-11.84 -11.899,-11.84 m -19.092,13.583 c -4.197,1.374 -7.35,5.02 -8.027,9.479 4.202,-1.378 7.359,-5.024 8.027,-9.479 m 19.092,12.403 c -0.413,0 -0.818,-0.026 -1.224,-0.062 -0.562,7.309 -6.693,13.066 -14.174,13.066 -7.491,0 -13.6,-5.757 -14.156,-13.068 -0.42,0.038 -0.842,0.064 -1.276,0.064 -0.415,0 -0.827,-0.026 -1.24,-0.062 -0.56,7.309 -6.677,13.066 -14.165,13.066 -7.505,0 -13.619,-5.757 -14.175,-13.066 -0.417,0.036 -0.839,0.062 -1.268,0.062 -7.851,0 -14.213,-6.334 -14.213,-14.146 0,-7.827 6.362,-14.165 14.213,-14.165 7.476,0 13.602,5.749 14.172,13.054 0.42,-0.036 0.842,-0.065 1.271,-0.065 0.413,0 0.818,0.029 1.223,0.062 0.575,-7.304 6.709,-13.051 14.182,-13.051 7.483,0 13.593,5.749 14.161,13.054 0.417,-0.036 0.844,-0.065 1.271,-0.065 0.422,0 0.834,0.029 1.247,0.065 0.565,-7.305 6.665,-13.054 14.151,-13.054 7.876,0 14.229,6.338 14.229,14.165 0,7.812 -6.353,14.146 -14.229,14.146 m -3.68,-2.916 c -0.672,-4.474 -3.839,-8.135 -8.048,-9.499 0.665,4.469 3.834,8.13 8.048,9.499 m -46.27,-9.48 c -4.2,1.379 -7.355,5.02 -8.029,9.477 4.208,-1.373 7.363,-5.02 8.029,-9.477 m 0.107,-2.449 c -0.362,-6.209 -5.504,-11.141 -11.835,-11.141 -6.544,0 -11.864,5.306 -11.864,11.84 0,6.52 5.32,11.821 11.864,11.821 0.434,0 0.858,-0.029 1.278,-0.072 0.527,-6.035 4.829,-10.96 10.557,-12.448 m 15.343,11.933 c -0.675,-4.471 -3.844,-8.129 -8.055,-9.496 0.66,4.469 3.825,8.13 8.055,9.496 m 15.515,-11.935 c -0.367,-6.207 -5.53,-11.139 -11.845,-11.139 -6.326,0 -11.465,4.929 -11.83,11.132 5.73,1.478 10.056,6.412 10.583,12.46 0.41,0.045 0.83,0.069 1.247,0.069 0.434,0 0.864,-0.029 1.283,-0.074 0.53,-6.04 4.839,-10.967 10.562,-12.448 m -26.022,1.915 c -0.403,-0.041 -0.813,-0.065 -1.228,-0.065 -0.431,0 -0.858,0.024 -1.278,0.07 -0.52,6.033 -4.841,10.969 -10.579,12.455 0.358,6.2 5.528,11.144 11.857,11.144 6.317,0 11.485,-4.941 11.845,-11.137 -5.754,-1.478 -10.097,-6.424 -10.617,-12.467"
         inkscape:connector-curvature="0" />
      <g
         id="g79"
         style="fill:none">
        <circle
           id="circle49"
           r="12.968"
           cy="157.75999"
           cx="297.577"
           style="stroke:#ffffff;stroke-width:3.63000011" />
        <circle
           id="circle51"
           r="12.968"
           cy="157.75999"
           cx="328.70001"
           style="stroke:#ffffff;stroke-width:3.63000011" />
        <circle
           id="circle53"
           r="12.968"
           cy="157.75999"
           cx="297.577"
           style="stroke:#f4c300;stroke-width:2.58999991" />
        <circle
           id="circle55"
           r="12.968"
           cy="157.75999"
           cx="328.70001"
           style="stroke:#009f3d;stroke-width:2.58999991" />
        <g
           id="g63"
           style="stroke:#ffffff;stroke-width:3.63000011">
          <circle
             id="circle57"
             r="12.968"
             cy="144.79201"
             cx="282.01599" />
          <circle
             id="circle59"
             r="12.968"
             cy="144.79201"
             cx="313.13901" />
          <circle
             id="circle61"
             r="12.968"
             cy="144.79201"
             cx="344.26099" />
        </g>
        <circle
           id="circle65"
           r="12.968"
           cy="144.79201"
           cx="282.01599"
           style="stroke:#0085c7;stroke-width:2.58999991" />
        <circle
           id="circle67"
           r="12.968"
           cy="144.79201"
           cx="313.13901"
           style="stroke:#000000;stroke-width:2.58999991" />
        <circle
           id="circle69"
           r="12.968"
           cy="144.79201"
           cx="344.26099"
           style="stroke:#df0024;stroke-width:2.58999991" />
        <circle
           id="circle71"
           r="12.968"
           cy="157.75999"
           cx="297.577"
           clip-path="url(#b)"
           style="stroke:#ffffff;stroke-width:3.63000011" />
        <circle
           id="circle73"
           r="12.968"
           cy="157.75999"
           cx="297.577"
           clip-path="url(#c)"
           style="stroke:#f4c300;stroke-width:2.58999991" />
        <circle
           id="circle75"
           r="12.968"
           cy="157.75999"
           cx="328.70001"
           clip-path="url(#d)"
           style="stroke:#ffffff;stroke-width:3.63000011" />
        <circle
           id="circle77"
           r="12.968"
           cy="157.75999"
           cx="328.70001"
           clip-path="url(#e)"
           style="stroke:#009f3d;stroke-width:2.58999991" />
      </g>
    </g>
  </g>
</svg>
