<?xml version="1.0" encoding="UTF-8" standalone="no"?>
<svg
   xmlns:dc="http://purl.org/dc/elements/1.1/"
   xmlns:cc="http://creativecommons.org/ns#"
   xmlns:rdf="http://www.w3.org/1999/02/22-rdf-syntax-ns#"
   xmlns:svg="http://www.w3.org/2000/svg"
   xmlns="http://www.w3.org/2000/svg"
   xmlns:sodipodi="http://sodipodi.sourceforge.net/DTD/sodipodi-0.dtd"
   xmlns:inkscape="http://www.inkscape.org/namespaces/inkscape"
   viewBox="0 0 189.64786 247.53799"
   version="1.1"
   id="svg43"
   sodipodi:docname="2016.svg"
   width="189.64786"
   height="247.53799"
   style="clip-rule:evenodd;fill-rule:evenodd"
   inkscape:version="0.92.4 (5da689c313, 2019-01-14)">
  <metadata
     id="metadata49">
    <rdf:RDF>
      <cc:Work
         rdf:about="">
        <dc:format>image/svg+xml</dc:format>
        <dc:type
           rdf:resource="http://purl.org/dc/dcmitype/StillImage" />
        <dc:title></dc:title>
      </cc:Work>
    </rdf:RDF>
  </metadata>
  <defs
     id="defs47" />
  <sodipodi:namedview
     pagecolor="#ffffff"
     bordercolor="#666666"
     borderopacity="1"
     objecttolerance="10"
     gridtolerance="10"
     guidetolerance="10"
     inkscape:pageopacity="0"
     inkscape:pageshadow="2"
     inkscape:window-width="1920"
     inkscape:window-height="1017"
     id="namedview45"
     showgrid="false"
     fit-margin-top="0"
     fit-margin-left="0"
     fit-margin-right="0"
     fit-margin-bottom="0"
     inkscape:zoom="0.50714286"
     inkscape:cx="-119.4744"
     inkscape:cy="123.769"
     inkscape:window-x="-8"
     inkscape:window-y="-8"
     inkscape:window-maximized="1"
     inkscape:current-layer="svg43" />
  <radialGradient
     id="a"
     cx="0"
     cy="0"
     gradientTransform="matrix(51.603,51.716,-51.716,51.603,279.35,126.288)"
     gradientUnits="userSpaceOnUse"
     r="1">
    <stop
       offset="0"
       stop-color="#fcd205"
       id="stop2" />
    <stop
       offset=".73"
       stop-color="#f47216"
       id="stop4" />
    <stop
       offset="1"
       stop-color="#f03c1f"
       id="stop6" />
  </radialGradient>
  <linearGradient
     id="b"
     gradientTransform="matrix(47.315,-109.865,-109.865,-47.315,236.802,193.783)"
     gradientUnits="userSpaceOnUse"
     x2="1">
    <stop
       offset="0"
       stop-color="#005d28"
       id="stop9" />
    <stop
       offset=".5"
       stop-color="#66c430"
       id="stop11" />
    <stop
       offset="1"
       stop-color="#007a38"
       id="stop13" />
  </linearGradient>
  <radialGradient
     id="c"
     cx="338.17401"
     cy="152.66299"
     gradientUnits="userSpaceOnUse"
     r="79.986">
    <stop
       offset="0"
       stop-color="#4dc6f4"
       id="stop16" />
    <stop
       offset=".8"
       stop-color="#2157a3"
       id="stop18" />
    <stop
       offset="1"
       stop-color="#2157a3"
       id="stop20" />
  </radialGradient>
  <g
     id="g61"
     transform="translate(-192.43214,-76.231)">
    <path
       id="path23"
       d="m 258.306,286.474 c -0.723,-9.662 -8.783,-17.277 -18.629,-17.277 -10.32,0 -18.683,8.368 -18.683,18.688 0,10.32 8.363,18.683 18.683,18.683 0.558,0 1.109,-0.027 1.653,-0.074 -0.033,-0.466 -0.057,-0.933 -0.057,-1.412 0,-0.585 0.03,-1.158 0.082,-1.729 -0.553,0.059 -1.111,0.095 -1.678,0.095 -8.594,0 -15.563,-6.971 -15.563,-15.563 0,-8.595 6.969,-15.562 15.563,-15.562 8.303,0 15.064,6.501 15.52,14.686 0.018,0.294 0.045,0.579 0.045,0.876 0,0.833 -0.086,1.647 -0.212,2.441 -0.912,5.783 -4.997,10.5 -10.423,12.31 -0.127,0.8 -0.211,1.613 -0.211,2.446 0,0.299 0.027,0.585 0.044,0.871 7.474,-1.961 13.118,-8.438 13.841,-16.342 0.054,-0.567 0.084,-1.143 0.084,-1.726 0,-0.478 -0.024,-0.946 -0.059,-1.411"
       inkscape:connector-curvature="0"
       style="fill:#117fcd" />
    <path
       id="path25"
       d="m 275.475,306.03 c -0.493,8.155 -7.243,14.613 -15.517,14.613 -8.3,0 -15.064,-6.503 -15.519,-14.689 -0.016,-0.287 -0.043,-0.574 -0.043,-0.871 0,-0.835 0.085,-1.647 0.212,-2.447 0.912,-5.78 4.997,-10.494 10.423,-12.311 0.126,-0.793 0.211,-1.607 0.211,-2.44 0,-0.297 -0.027,-0.581 -0.044,-0.877 -7.475,1.968 -13.117,8.443 -13.842,16.345 -0.053,0.569 -0.083,1.145 -0.083,1.73 0,0.478 0.024,0.945 0.057,1.411 0.722,9.655 8.783,17.275 18.628,17.275 9.824,0 17.874,-7.586 18.626,-17.219 -1.065,-0.088 -2.103,-0.258 -3.109,-0.52 m -17.194,-16.419 c 0.054,-0.567 0.084,-1.144 0.084,-1.726 0,-0.478 -0.023,-0.945 -0.058,-1.411 0.543,-0.048 1.095,-0.076 1.651,-0.076 0.526,0 1.043,0.028 1.558,0.068 1.061,0.088 2.099,0.259 3.107,0.52 7.545,1.936 13.241,8.465 13.947,16.432 -1.122,-0.116 -2.205,-0.352 -3.243,-0.689 -0.894,-5.86 -5.041,-10.648 -10.555,-12.442 -1.039,-0.339 -2.122,-0.575 -3.24,-0.688 -0.52,-0.051 -1.043,-0.08 -1.574,-0.08 -0.567,0 -1.127,0.032 -1.677,0.092"
       inkscape:connector-curvature="0"
       style="fill:#f9a91f" />
    <path
       id="path27"
       d="m 298.762,286.423 c -0.774,-9.616 -8.813,-17.177 -18.624,-17.177 -9.826,0 -17.874,7.588 -18.623,17.22 1.062,0.089 2.101,0.259 3.107,0.521 0.495,-8.155 7.24,-14.616 15.516,-14.616 8.269,0 15.01,6.453 15.514,14.594 0.019,0.322 0.052,0.639 0.052,0.969 0,0.796 -0.081,1.578 -0.197,2.346 -0.88,5.819 -4.979,10.579 -10.429,12.404 -0.123,0.767 -0.197,1.545 -0.197,2.344 0,0.327 0.027,0.648 0.047,0.97 7.493,-1.982 13.138,-8.5 13.822,-16.439 0.047,-0.534 0.076,-1.078 0.076,-1.625 0,-0.512 -0.024,-1.014 -0.064,-1.511 m -16.931,16.976 c -0.048,0.54 -0.077,1.079 -0.077,1.629 0,0.513 0.029,1.014 0.07,1.513 -0.556,0.049 -1.117,0.078 -1.686,0.078 -0.525,0 -1.043,-0.025 -1.555,-0.068 -1.064,-0.089 -2.101,-0.259 -3.108,-0.522 -7.545,-1.932 -13.242,-8.465 -13.944,-16.429 1.119,0.113 2.201,0.35 3.241,0.688 0.891,5.859 5.04,10.647 10.555,12.44 1.038,0.337 2.12,0.576 3.242,0.69 0.515,0.051 1.038,0.078 1.569,0.078 0.574,0 1.138,-0.037 1.693,-0.097"
       inkscape:connector-curvature="0"
       style="fill:#231f20" />
    <path
       id="path29"
       d="m 315.957,305.983 c -0.493,8.146 -7.238,14.608 -15.514,14.608 -8.27,0 -15.012,-6.456 -15.514,-14.593 -0.021,-0.321 -0.048,-0.642 -0.048,-0.97 0,-0.799 0.075,-1.576 0.197,-2.344 0.879,-5.824 4.975,-10.584 10.43,-12.404 0.116,-0.769 0.197,-1.549 0.197,-2.346 0,-0.33 -0.034,-0.647 -0.053,-0.969 -7.489,1.979 -13.133,8.498 -13.821,16.434 -0.048,0.54 -0.076,1.079 -0.076,1.629 0,0.514 0.028,1.014 0.068,1.513 0.768,9.608 8.81,17.172 18.62,17.172 9.822,0 17.871,-7.581 18.624,-17.211 -1.066,-0.089 -2.104,-0.263 -3.11,-0.519 m -17.209,-16.424 c 0.05,-0.534 0.078,-1.078 0.078,-1.625 0,-0.511 -0.024,-1.014 -0.063,-1.511 0.55,-0.049 1.112,-0.083 1.68,-0.083 0.524,0 1.041,0.03 1.557,0.073 1.065,0.085 2.101,0.256 3.108,0.517 7.544,1.941 13.239,8.474 13.943,16.437 -1.122,-0.113 -2.204,-0.349 -3.242,-0.686 -0.889,-5.865 -5.037,-10.656 -10.552,-12.45 -1.036,-0.335 -2.12,-0.577 -3.241,-0.683 -0.52,-0.056 -1.042,-0.081 -1.573,-0.081 -0.574,0 -1.135,0.031 -1.695,0.092"
       inkscape:connector-curvature="0"
       style="fill:#00a650" />
    <path
       id="path31"
       d="m 320.624,269.197 c -9.823,0 -17.871,7.584 -18.625,17.216 1.067,0.084 2.103,0.257 3.109,0.516 0.496,-8.145 7.24,-14.606 15.516,-14.606 8.595,0 15.561,6.966 15.561,15.562 0,8.592 -6.966,15.563 -15.561,15.563 -0.531,0 -1.054,-0.027 -1.574,-0.08 -1.122,-0.112 -2.204,-0.351 -3.242,-0.686 -5.514,-1.796 -9.662,-6.587 -10.551,-12.451 -1.037,-0.334 -2.12,-0.576 -3.242,-0.682 0.701,7.961 6.399,14.495 13.942,16.434 1.006,0.257 2.042,0.429 3.109,0.518 0.512,0.04 1.035,0.068 1.558,0.068 10.321,0 18.688,-8.365 18.688,-18.684 0,-10.32 -8.367,-18.688 -18.688,-18.688"
       inkscape:connector-curvature="0"
       style="fill:#ee2049" />
    <path
       id="path33"
       d="m 231.664,224.726 c 0.088,-2.297 1.958,-4.156 4.18,-4.158 2.224,0 3.963,1.861 3.882,4.158 -0.083,2.298 -1.957,4.156 -4.177,4.156 -2.225,-0.005 -3.966,-1.858 -3.885,-4.156 m 29.523,22.099 c -4.533,0.073 -8.862,-7.051 -8.487,-11.698 0.17,-2.098 1.308,-3.683 3.711,-3.675 4.582,0.016 8.576,6.385 8.417,10.716 -0.084,2.355 -1.041,4.617 -3.641,4.657 m -1.983,-21.753 c -3.875,-0.141 -7.389,1.997 -9.681,5.279 -1.197,1.715 -2.911,4.707 -4.837,8.071 -2.478,4.327 -4.975,8.619 -6.747,8.589 -1.104,-0.021 -1.425,-1.083 -1.481,-2.354 -0.151,-3.314 0.062,-6.595 0.036,-9.904 -0.004,-0.915 0.055,-1.624 -0.616,-2.063 -1.008,-0.655 -3.222,-0.67 -4.586,1.083 -2.821,3.635 -5.599,7.505 -8.775,10.847 -1.333,1.405 -2.806,2.451 -4.766,2.454 -1.275,0 -2.127,-0.2 -3.46,-1.766 -1.823,-2.136 -3.487,-5.679 -4.136,-7.335 -0.105,-0.271 0.037,-0.34 0.143,-0.372 7.253,-2.115 16.053,-6.821 15.926,-15.916 -0.089,-6.19 -4.706,-10.161 -10.949,-10.374 -7.064,-0.236 -13.803,3.224 -17.827,9.03 -6.686,9.649 -5.402,22.072 -3.443,30.611 0.253,1.11 1.126,1.582 2.125,1.582 2.391,-0.005 5.196,-2.893 4.546,-5.312 -3.411,-12.661 -2.53,-19.812 0.796,-24.422 2.27,-3.143 6.34,-5.174 10.261,-5.21 4.211,-0.043 8.678,1.83 8.559,6.713 -0.149,6.035 -7.8,7.902 -12.659,8.368 -1.343,0.127 -2.667,0.614 -3.516,1.741 -1.127,1.492 -1.023,3.31 -0.481,5.165 0.952,3.266 2.415,5.8 4.215,8.688 1.497,2.401 4.145,4.871 7.238,5.028 4.555,0.225 7.285,-2.595 9.814,-5.362 1.715,-1.872 3.139,-3.748 4.786,-5.719 0.117,-0.138 0.165,-0.073 0.165,0.04 -0.072,4.975 -0.043,11.178 5.782,11.041 3.158,-0.076 5.283,-2.341 7.098,-4.566 1.507,-1.845 2.796,-4.102 4.107,-6.335 0.096,-0.14 0.155,-0.205 0.207,0.003 1.225,5.34 5.698,10.763 11.504,10.898 7.88,0.177 12.763,-8.258 12.276,-15.102 -0.427,-6.059 -4.955,-12.882 -11.624,-13.119 m 52.454,21.773 c -5.307,0.011 -8.737,-4.599 -8.746,-9.372 -0.008,-3.492 1.955,-6.049 5.648,-6.057 5.306,-0.015 8.825,4.687 8.832,9.463 0.005,3.488 -2.042,5.958 -5.734,5.966 m -0.149,-21.773 c -7.265,0.029 -13.062,6.247 -14.329,12.995 -0.494,2.648 -1.556,4.309 -3.547,6.045 -2.429,2.121 -5.31,3.046 -8.402,3.011 -1.502,-0.015 -3.927,-0.483 -4.248,-2.419 -0.191,-1.117 0.707,-2.21 1.516,-3.034 1.477,-1.502 2.589,-2.444 4.11,-3.9 2.483,-2.371 4.775,-4.396 6.943,-7.133 2.459,-3.1 4.204,-6.506 4.005,-10.018 -0.305,-5.472 -4.364,-9.021 -10.086,-8.998 -3.971,0.018 -7.683,1.614 -10.547,4.144 -0.612,0.539 -1.204,1.259 -1.595,2.044 -0.308,0.607 -0.495,1.255 -0.487,1.883 0.011,0.989 0.905,1.861 1.864,1.865 0.693,0 1.476,-0.315 2.289,-1.002 1.629,-1.384 3.727,-2.549 5.909,-2.63 4.212,-0.159 6.179,2.513 6.303,5.374 0.096,2.22 -0.877,4.114 -2.196,5.775 -1.858,2.327 -3.635,3.84 -5.779,5.797 -1.896,1.724 -3.608,3.193 -5.334,4.983 -2.076,2.144 -3.651,4.248 -3.527,7.169 0.18,4.211 4.423,6.242 8.049,6.27 5.876,0.045 11.61,-3.31 15.441,-7.565 0.055,-0.062 0.104,-0.099 0.146,0.003 1.851,4.462 6.031,7.562 10.912,7.562 8.189,0 14.553,-8.088 14.427,-15.728 -0.108,-6.451 -5.116,-12.521 -11.837,-12.493 m 49.736,19.27 c -0.842,1.578 -2.543,2.432 -4.263,2.522 -5.125,0.271 -8.488,-4.045 -9.413,-9.142 2.036,-1.224 4.383,-2.05 6.789,-2.044 2.446,0.013 4.595,1.07 5.914,2.683 1.351,1.647 2.019,4.015 0.973,5.981 m -3.991,-15.034 c -3.345,-0.003 -6.64,1.022 -9.685,2.94 1.389,-5.515 5.286,-9.716 10.321,-12.761 1.761,-1.065 3.532,-2.09 4.266,-4.056 0.404,-1.093 0.289,-2.727 -1.195,-2.835 -1.035,-0.08 -2.073,0.518 -2.926,0.991 -8.683,4.873 -15.282,12.776 -16.6,22.746 -2.316,2.306 -4.347,4.582 -6.427,7.294 l -0.024,-0.003 v -18.081 c 0,-1.248 -0.722,-1.729 -1.601,-1.709 -0.779,0.016 -1.883,0.553 -2.438,0.905 l -4.124,2.608 c -1.342,0.852 -1.846,1.538 -1.725,2.665 0.2,1.926 2.373,2.171 3.963,1.246 l 0.003,20.068 c 0,0.829 0.448,1.626 1.392,1.621 0.86,-0.005 1.585,-0.471 2.43,-1.307 2.71,-2.695 5.522,-6.332 8.853,-9.556 1.198,6.065 5.917,11.209 12.501,11.209 7.325,0 13.376,-6.959 13.33,-13.816 -0.04,-5.639 -4.673,-10.169 -10.314,-10.169"
       inkscape:connector-curvature="0"
       style="fill:#134785" />
    <path
       id="path35"
       d="m 262.744,76.231 c -0.584,0 -1.185,0.027 -1.788,0.08 -6.921,0.559 -13.325,3.69 -19.311,7.788 -19.039,13.045 -34.229,38.075 -37.549,61.31 -1.468,10.213 -1.03,20.471 2.98,29.841 7.106,14.862 24.132,13.986 34.728,6.596 5.264,-3.675 10.203,-8.222 14.98,-12.318 1.474,-1.267 2.931,-2.394 4.331,-3.457 3.201,3.306 6.661,6.913 10.49,10.967 15.57,16.463 33.123,22.912 48.238,23.125 19.702,0.256 40.631,-12.81 40.649,-35.085 0.017,-19.702 -17.581,-38.303 -34.252,-44.066 -1.462,-0.571 -2.905,-1.043 -4.291,-1.43 -5.72,-1.598 -11.63,-2.618 -19.112,-2.981 -2.507,-0.12 -2.934,-0.143 -5.841,-0.119 -1.046,0 -3.316,0.14 -3.735,0.119 -0.666,-0.033 -1.073,-0.338 -0.716,-1.351 1.734,-4.895 0.685,-8.96 -3.258,-9.933 -3.9,-0.957 -6.527,3.045 -7.589,5.285 -0.688,1.489 -2.035,2.247 -1.748,-0.239 1.087,-9.757 -1.296,-25.068 -7.749,-30.993 -2.706,-2.284 -6.004,-3.139 -9.457,-3.139 z m -1.867,5.007 c 0.346,-0.017 0.684,-0.013 1.033,0 0.813,0.028 1.628,0.162 2.464,0.357 10.782,2.523 8.63,33.017 0.794,53.284 -1.157,3.006 -3.028,6.903 -5.324,11.126 -4.73,-7.455 -10.059,-14.346 -18.437,-20.066 -0.645,-0.443 -1.092,-0.911 -1.073,-1.43 0.045,-1.197 0.85,-1.355 1.709,-4.252 1.042,-3.478 0.895,-7.521 -2.861,-8.742 -2.936,-0.968 -5.21,0.123 -7.033,2.265 -0.436,0.52 -0.932,1.739 -1.391,1.312 -0.426,-0.223 0.328,-2.148 0.477,-2.583 3.069,-8.32 8.15,-16.386 14.583,-22.927 l 0.119,-0.08 c 4.958,-4.557 9.755,-8.013 14.94,-8.264 z m 49.549,44.185 c 3.489,0.025 6.898,0.433 9.854,1.072 11.027,2.382 27.041,10.833 26.662,23.921 v 0.158 c -0.521,3.071 -1.173,3.761 -2.98,2.265 -1.88,-1.567 -5.05,-2.457 -7.351,-0.039 -4.009,4.199 -0.577,9.817 -1.947,16.609 -8.797,0.083 -20.161,-3.255 -29.523,-8.504 -11.419,-6.405 -18.011,-15.208 -17.245,-22.688 0.968,-9.645 12.062,-12.872 22.53,-12.794 z m 28.212,4.648 c 0.592,0.613 1.164,1.19 1.708,1.828 1.077,1.263 2.045,2.59 2.901,3.934 -0.857,-1.342 -1.824,-2.672 -2.901,-3.934 -0.539,-0.63 -1.123,-1.222 -1.708,-1.828 z M 235.089,146.76 c 5.473,-0.24 9.882,3.346 17.722,10.887 -7.721,11.514 -17.336,22.061 -24.954,21.854 -3.738,-0.099 -5.468,-2.159 -6.794,-4.847 l -0.08,-0.199 c -3.85,-10.097 0.489,-25.257 11.523,-27.298 0.901,-0.209 1.752,-0.361 2.583,-0.397 z m 43.986,11.96 c 5.682,0.119 11.613,2.739 18.556,8.384 4.452,3.613 11.368,10.458 18.159,18 -6.005,1.052 -12.702,0.702 -18.993,-0.517 -4.301,-1.046 -7.875,-2.732 -10.768,-4.609 -6.921,-4.484 -12.468,-11.415 -17.086,-18.874 3.416,-1.637 6.723,-2.455 10.132,-2.384 z m -21.178,3.616 c 2.365,2.098 4.631,4.044 6.834,5.841 -2.204,-1.794 -4.468,-3.745 -6.834,-5.841 z m 33.178,20.9 c 0.496,0.143 1.005,0.265 1.51,0.398 -0.508,-0.134 -1.011,-0.254 -1.51,-0.398 z m 28.569,0.954 c -0.584,0.175 -1.186,0.333 -1.788,0.477 -0.613,0.146 -1.198,0.283 -1.827,0.397 0.613,-0.112 1.229,-0.256 1.827,-0.397 0.609,-0.144 1.198,-0.301 1.788,-0.477 z"
       inkscape:connector-curvature="0"
       style="fill:url(#a)" />
    <path
       id="path37"
       d="m 260.974,76.327 c -6.921,0.559 -13.354,3.665 -19.339,7.762 -19.039,13.046 -34.199,38.093 -37.519,61.328 -1.469,10.214 -1.063,20.448 2.947,29.817 7.106,14.862 24.144,14.007 34.74,6.617 -27.48,10.443 -28.103,-31.232 -9.302,-34.709 7.206,-1.676 11.678,2.153 21.776,11.945 9.843,9 18.089,15.53 25.948,19.804 4.57,2.488 10.646,4.611 17.095,5.806 -4.532,-1.034 -8.296,-2.756 -11.305,-4.708 -6.968,-4.513 -12.526,-11.523 -17.162,-19.039 -8.08,-13.064 -13.686,-25.605 -27.457,-35.006 -0.645,-0.443 -1.09,-0.903 -1.071,-1.422 0.045,-1.197 0.851,-1.372 1.709,-4.27 1.042,-3.477 0.912,-7.513 -2.844,-8.733 -2.935,-0.968 -5.211,0.132 -7.034,2.274 -0.436,0.52 -0.922,1.72 -1.381,1.292 -0.426,-0.222 0.327,-2.16 0.476,-2.595 4.789,-12.984 14.432,-25.311 26.565,-32.269 5.159,-2.965 9.917,-3.707 14.403,-0.84 -2.706,-2.283 -6.014,-3.134 -9.466,-3.134 -0.585,0 -1.176,0.027 -1.779,0.08"
       inkscape:connector-curvature="0"
       style="fill:url(#b)" />
    <path
       id="path39"
       d="m 346.932,150.56 c -0.522,3.071 -1.158,3.778 -2.965,2.283 -1.88,-1.567 -5.035,-2.469 -7.336,-0.051 -5.627,5.893 3.428,14.59 -6.752,25.389 -11.24,11.942 -36.596,7.818 -49.654,0.71 -7.859,-4.274 -16.105,-10.804 -25.95,-19.804 4.692,4.716 10.547,10.783 17.312,17.945 15.569,16.462 33.148,22.923 48.263,23.136 19.702,0.256 40.618,-12.799 40.636,-35.074 0.017,-19.702 -17.565,-38.328 -34.236,-44.091 12.196,6.055 22.598,18.325 20.682,29.557"
       inkscape:connector-curvature="0"
       style="fill:url(#c)" />
    <path
       id="path41"
       d="m 381.461,253.293 -0.574,-3.976 c -0.104,-0.723 -0.164,-1.24 -0.193,-1.556 h -0.012 c -0.057,0.225 -0.15,0.559 -0.299,0.965 l -1.542,4.567 h -0.699 l -1.47,-4.283 c -0.161,-0.472 -0.275,-0.887 -0.377,-1.249 h -0.011 c -0.026,0.473 -0.089,0.977 -0.165,1.611 l -0.463,3.921 h -0.609 l 0.855,-6.138 h 0.767 l 1.49,4.363 c 0.097,0.313 0.24,0.757 0.353,1.176 h 0.008 c 0.11,-0.411 0.202,-0.717 0.34,-1.09 l 1.521,-4.449 h 0.795 l 0.904,6.138 z m -9.511,-5.656 v 5.656 h -0.582 v -5.656 h -1.909 v -0.482 h 4.392 v 0.482 z"
       inkscape:connector-curvature="0"
       style="fill:#134785" />
  </g>
</svg>
