<?xml version="1.0" encoding="UTF-8" standalone="no"?>
<svg
   xmlns:dc="http://purl.org/dc/elements/1.1/"
   xmlns:cc="http://creativecommons.org/ns#"
   xmlns:rdf="http://www.w3.org/1999/02/22-rdf-syntax-ns#"
   xmlns:svg="http://www.w3.org/2000/svg"
   xmlns="http://www.w3.org/2000/svg"
   xmlns:sodipodi="http://sodipodi.sourceforge.net/DTD/sodipodi-0.dtd"
   xmlns:inkscape="http://www.inkscape.org/namespaces/inkscape"
   viewBox="0 0 177.40762 245.05359"
   version="1.1"
   id="svg68"
   sodipodi:docname="2008.svg"
   width="177.40762"
   height="245.05359"
   style="clip-rule:evenodd;fill-rule:evenodd"
   inkscape:version="0.92.4 (5da689c313, 2019-01-14)">
  <metadata
     id="metadata74">
    <rdf:RDF>
      <cc:Work
         rdf:about="">
        <dc:format>image/svg+xml</dc:format>
        <dc:type
           rdf:resource="http://purl.org/dc/dcmitype/StillImage" />
        <dc:title></dc:title>
      </cc:Work>
    </rdf:RDF>
  </metadata>
  <defs
     id="defs72" />
  <sodipodi:namedview
     pagecolor="#ffffff"
     bordercolor="#666666"
     borderopacity="1"
     objecttolerance="10"
     gridtolerance="10"
     guidetolerance="10"
     inkscape:pageopacity="0"
     inkscape:pageshadow="2"
     inkscape:window-width="1920"
     inkscape:window-height="1017"
     id="namedview70"
     showgrid="false"
     fit-margin-top="0"
     fit-margin-left="0"
     fit-margin-right="0"
     fit-margin-bottom="0"
     inkscape:zoom="0.50714286"
     inkscape:cx="-118.1018"
     inkscape:cy="123.12"
     inkscape:window-x="-8"
     inkscape:window-y="-8"
     inkscape:window-maximized="1"
     inkscape:current-layer="svg68" />
  <g
     id="g109"
     transform="translate(-191.05954,-78.066413)">
    <g
       id="g10"
       style="fill:#d71921">
      <path
         id="path2"
         d="m 316.279,94.677 c -0.056,-1.62 -2.3,-1.572 -2.455,-3.031 -1.146,-0.996 -1.671,-1.828 -3.036,-2.823 -1.101,0.836 -0.517,-1.159 -1.671,-0.946 -1.884,-1.457 -4.496,-1.1 -6.378,-2.245 l 0.15,-0.157 c -0.621,-0.571 -0.779,-0.938 -1.511,-1.358 -0.941,0.258 -1.779,-0.365 -2.412,-0.365 -0.193,-0.317 -0.624,-0.11 -0.935,-0.155 -1.303,-1.625 -3.56,-0.847 -4.918,-2.104 -0.462,0.375 -0.727,0.316 -1.149,-0.201 -2.349,-0.992 -5.179,-1.78 -7.893,-2.247 -0.576,0.42 -1.199,-0.053 -1.671,-0.37 -1.787,-0.73 -3.089,0.732 -4.713,-0.363 -0.466,0.099 -0.254,0.57 -0.778,0.57 -0.114,-0.208 -0.471,-0.316 -0.362,-0.57 L 275.021,78.1 c -1.464,1.307 -2.871,-0.883 -4.288,0.369 -0.466,0.575 -1.718,0 -2.294,0.205 -0.266,-0.109 -0.375,0.266 -0.534,0.37 -2.342,0.363 -4.699,0.679 -6.582,2.091 -1.043,0.415 -1.365,2.252 -2.827,1.88 -0.516,0.625 -0.779,1.408 -1.511,1.888 0.892,1.462 -1.257,1.355 -0.778,2.609 l -0.157,0.208 c -0.367,0.155 -0.585,0.58 -0.95,0.155 -0.571,0.104 -0.892,0.53 -0.783,1.158 -0.524,0.256 -0.991,0.722 -1.674,0.57 -0.885,0.475 -0.995,1.729 -1.668,2.249 0.048,0.996 -0.945,1.52 -0.58,2.622 -1.198,1.141 -0.732,3.026 -1.886,4.177 l 0.163,0.157 c 0.679,0.57 -0.365,1.042 -0.525,1.313 -0.471,1.981 -0.991,3.968 -1.36,6.061 0.266,0.679 -0.414,1.723 -0.155,2.407 -1.252,1.874 0.114,4.184 -1.144,6.058 -0.155,0.471 0.515,0.736 0,1.099 l 0.203,0.208 -0.358,0.372 c 0.358,1.67 -0.481,3.248 -0.212,5.073 -0.165,0.266 -0.581,0.578 -0.213,0.781 -0.788,1.259 0.048,2.463 -0.728,3.766 0.307,4.292 -1.369,8.735 -0.735,12.969 -1.36,1.252 -0.686,3.608 -0.577,5.283 0.104,0.732 0.887,1.355 1.672,1.097 2.091,-0.099 3.556,-1.885 5.283,-2.83 0.726,-0.466 1.625,-1.358 2.611,-0.724 0.312,-0.266 0.626,-0.579 0.784,-0.946 0.632,-0.058 1.099,-0.836 1.675,-0.571 0.727,0.363 1.36,-0.369 2.093,-0.577 1.566,-0.368 3.555,0 5.283,-0.53 0.466,0.738 1.889,0.474 1.675,1.678 1.039,-0.208 0.94,1.204 2.085,0.732 3.193,3.145 4.184,8.003 3.348,12.45 -0.109,0.932 0.36,2.61 -0.362,3.55 l 0.208,3.611 c 0.104,0.624 0.515,1.354 0.357,1.878 -0.045,0.365 0.058,0.681 0.376,0.945 0.467,1.619 1.204,2.772 2.247,4.126 1.2,-0.312 2.299,0.742 3.237,-0.208 0.317,0.108 0.894,0.474 0.733,0.95 0.623,-0.841 1.781,-1.629 2.252,-2.625 1.511,-1.665 1.044,-4.754 1.147,-6.948 0.898,-2.773 -0.993,-6.012 0.156,-8.685 -0.307,-0.991 -0.887,-2.09 -0.94,-2.978 l -2.24,-2.663 c -0.162,-1.674 -1.946,-2.666 -1.678,-4.5 -0.426,-1.042 -0.738,-2.344 -0.575,-3.403 -0.679,-0.783 -0.322,-2.299 -0.213,-3.026 0.684,-0.832 -0.466,-1.417 -0.362,-2.248 0.471,-1.883 -0.162,-3.974 0.575,-6.014 -0.162,-1.251 0.258,-2.927 -0.946,-3.56 -2.091,-0.37 -3.659,-0.157 -5.854,-0.203 -1.307,1.462 -2.876,-0.42 -4.287,0.203 -2.408,-1.143 -5.388,-0.306 -7.95,0 l -0.156,-0.203 c -0.725,-1.308 -2.512,-1.52 -3.761,-2.253 0.2,-2.2 -1.201,-3.665 -0.945,-5.859 -1.1,-0.57 -0.256,-1.984 -0.783,-2.817 l 0.418,-0.371 c 1.672,-0.259 1.88,-2.194 3.188,-3.185 1.987,-0.945 2.99,-2.932 5.279,-3.194 0.58,0.213 1.461,-0.104 1.883,0.728 l -1.354,1.675 0.208,0.213 c -0.099,0.105 -0.208,0.265 -0.37,0.208 0.272,0.583 -0.571,0.993 0,1.469 -0.52,0.468 0.103,0.936 0.162,1.354 1.729,1.103 3.451,0.945 5.281,1.103 1.723,1.094 4.237,0.258 6.219,0.782 0.634,-0.161 0.886,-1.153 1.677,-0.782 1.412,0.986 3.237,-0.318 4.547,0.362 0.571,0.157 0.996,-0.213 1.521,-0.362 2.67,0.42 5.166,-0.784 8.054,-0.371 2.875,-0.154 5.376,-1.203 8.304,-1.308 3.095,-0.833 6.488,-1.15 9.047,-3.397 0.321,-0.261 0.947,-0.261 1.312,0 1.567,-0.099 1.723,-2.403 3.398,-2.248 1.886,0.312 2.351,-2.145 3.923,-2.253 0.945,-1.407 2.876,-1.769 3.762,-3.233 0.627,-0.943 0.42,-2.463 0.207,-3.56 m -25.046,6.219 c 0.309,0.996 -1.205,1.832 -1.885,2.465 -2.926,0.887 -6.637,0.208 -9.046,-1.891 -0.155,-2.347 -2.984,-3.862 -1.666,-6.586 -0.794,-0.788 1.718,-1.675 -0.213,-2.096 0.416,-0.618 0.416,-1.455 0,-2.08 l -0.155,-0.163 c 0.368,-0.727 2.2,-0.104 1.458,-1.307 0.367,-0.26 0.421,-0.57 0.421,-0.936 l -0.213,-0.213 c 1.475,-0.626 3.249,-0.314 4.713,-0.937 1.676,0.258 3.497,0.725 4.495,2.086 1.202,0.366 1.099,1.776 2.092,2.252 1.25,1.567 0.628,3.971 1.308,5.803 -0.262,1.309 -0.059,2.771 -1.309,3.603"
         inkscape:connector-curvature="0" />
      <path
         id="path4"
         d="m 324.542,112.198 c 0.419,1.983 1.462,3.712 1.52,5.798 0.679,0.471 0.571,1.579 0.571,2.096 -0.259,0.577 0.416,1.206 0.572,1.885 -0.209,1.565 0.732,3.289 -0.412,4.493 -1.831,1.776 1.207,3.401 -0.366,5.283 -0.155,1.2 1.51,1.095 0.935,2.451 0.321,0.524 0.897,0.477 0.936,1.163 0,0.616 0.064,1.824 -0.145,2.605 0.52,0.316 -0.258,0.575 -0.216,0.943 1.146,1.201 0,2.612 0.945,3.971 0.15,1.049 -0.307,2.351 0.372,3.187 l -0.171,0.165 c -0.364,3.292 1.371,5.958 0.742,9.042 0.577,2.247 0.41,4.288 0.732,6.429 l -0.362,5.446 c 0.569,2.037 0.623,4.285 0.569,6.586 -0.31,0.259 -0.415,0.571 -0.362,0.937 0.571,0.997 -0.207,2.352 -0.207,3.556 0.99,1.153 -0.323,2.512 0.362,3.763 -0.052,0.42 -0.685,0.793 -0.155,1.153 -0.47,1.515 0.155,3.502 -0.577,4.908 0.41,1.884 -0.793,3.774 -0.368,5.657 -0.159,0.212 -0.575,0.519 -0.202,0.727 -0.171,1.308 -0.427,2.615 -0.956,3.769 0,0.727 -0.145,1.778 -0.362,2.609 -0.254,1.159 -0.307,1.624 -0.731,2.668 -0.209,-0.052 -0.314,0.109 -0.412,0.155 l 0.203,0.209 c -0.886,0.265 -0.621,1.895 -1.877,1.683 -0.52,0.517 -1.521,-0.272 -1.884,0.778 -0.737,0 -1.201,-1.307 -2.099,-0.566 0.054,-0.639 -0.778,-0.322 -0.727,-0.95 -0.733,0 -1.411,0.466 -1.669,1.15 -0.163,1.207 -0.363,2.618 -1.363,3.35 0.365,0.155 0.154,0.518 0.209,0.785 -0.16,0.315 -0.679,0.154 -0.571,0.573 l 0.213,0.15 c -0.271,0.53 -1.213,0.791 -1.732,0.37 l -0.158,-0.157 c -1.047,0.999 -2.407,2.144 -3.605,2.985 -0.997,0 -2.092,1.149 -2.982,1.516 -1.827,-0.058 -3.921,0.15 -5.493,-0.16 -0.99,-0.578 -2.512,-0.312 -2.98,-1.717 -0.415,-1.471 -2.303,-2.783 -1.312,-4.346 l 0.946,-1.101 c -0.578,-1.254 0.942,-2.09 1.089,-3.19 1.947,-0.312 0.792,-2.876 2.674,-3.238 l -0.204,-0.163 c 1.25,-2.293 4.34,-3.342 4.707,-6.008 2.772,-1.308 3.401,-4.654 5.853,-6.437 -0.052,-0.258 0.317,-0.415 0.157,-0.727 -0.157,-1.1 1.308,-1.987 1.308,-3.191 l -0.158,-0.213 c 1.891,-1.244 0.941,-3.763 2.248,-5.278 -1.307,-2.034 1.88,-3.872 -0.571,-5.438 1.257,-1.569 -1.519,-1.93 -0.578,-3.608 -1.05,-0.783 -1,-2.349 -1.465,-3.548 -0.625,-1.419 -1.891,-2.882 -2.295,-4.501 -0.167,-0.575 -0.841,-0.208 -1.099,-0.575 l 0.155,-0.213 c -1.101,-1.722 -2.456,-3.654 -4.288,-5.278 -1.62,-1.885 -4.033,-3.502 -6.068,-5.226 l -0.154,0.155 c -2.512,-2.56 -7.057,-2.252 -8.474,-5.443 0.101,-1.875 1.099,-3.089 2.245,-4.333 0.998,0.105 0.79,-1.412 1.891,-1.153 1.51,-0.471 0.675,-2.347 1.887,-3.188 -0.114,-1.042 -0.326,-2.032 0.561,-2.824 v -14.278 c -0.259,-0.628 0.579,-1.307 0.945,-1.882 1.514,-0.575 3.292,-0.575 4.5,-1.874 1.724,-0.375 3.135,-1.361 4.909,-1.521 1.362,-1.048 2.928,-1.419 4.344,-2.46 l 0.157,0.212 c 0.727,-1.417 2.511,-1.107 3.611,-2.098 1.511,-0.259 3.026,-1.15 4.699,-0.575 l 2.043,2.096 z"
         inkscape:connector-curvature="0" />
      <path
         id="path6"
         d="m 290.298,124.587 c 0.368,4.08 0.198,7.686 -0.588,11.5 -1.203,-0.104 -0.827,1.886 -2.24,1.671 l -0.365,0.581 c -0.631,-0.466 -1.357,-0.581 -1.882,-1.313 -0.94,-2.922 -0.575,-6.211 -0.575,-9.197 0.214,-0.263 0.214,-0.575 0.575,-0.778 -0.575,-1.107 -0.575,-2.253 0,-3.411 0.57,-0.202 1.515,-0.202 1.882,-0.732 1.199,0.215 2.867,0.215 3.193,1.679"
         inkscape:connector-curvature="0" />
      <path
         id="path8"
         d="m 258.655,152.825 c -0.524,0.469 0.162,0.94 0.208,1.361 h 0.162 c 0,2.031 -0.732,4.072 -0.528,6.013 -0.62,1.089 -0.308,2.506 -0.931,3.55 0.253,0.472 0.461,0.946 0.931,1.308 -0.987,1.204 0.32,2.57 -0.204,3.773 0.571,1.777 1.931,2.813 3.031,4.173 l 2.402,3.929 c 0.432,0.94 1.411,0.623 2.096,0.94 1.628,1.515 4.392,0.838 5.857,2.46 2.349,-0.737 4.967,0.72 7.108,-0.583 0.37,0.317 0.634,0.796 1.148,0.583 l 1.678,-1.307 3.249,-0.95 c 0.563,-2.501 3.59,-3.13 4.694,-5.283 -0.044,-0.67 0.788,-1.516 0.743,-2.461 0.515,-0.565 0.198,-1.245 0.935,-1.874 -0.261,-1.41 -0.42,-2.61 0.206,-3.917 0.317,-1.622 -1.572,-3.401 0.162,-4.554 0.94,-0.53 1.987,0.109 2.823,0.37 -0.16,0.411 0.202,0.727 0.571,0.57 h 0.576 c -0.043,0.213 0.104,0.316 0.16,0.362 h 0.208 l -0.208,0.214 c 1.673,0.519 1.828,2.404 3.234,3.192 l -0.193,0.208 c 0.253,0.363 0.929,0 1.139,0.575 l -0.21,0.157 c 1.101,0.626 0.105,2.615 1.89,2.661 0.885,0.897 0.469,2.724 1.88,3.56 0.099,1.672 1.571,2.927 0.725,4.703 0.895,0.626 0,1.729 0,2.616 0.375,1.68 -0.996,2.61 -1.457,3.768 0.208,0.108 0.15,0.415 0.15,0.575 -0.467,0.16 -0.986,0.42 -1.096,0.94 0.054,1.515 -2.091,1.93 -2.091,3.6 l -0.368,0.373 c 0.426,0.162 -0.051,0.469 0,0.727 -2.349,0.784 -2.978,3.452 -4.909,4.715 0.103,0.31 -0.214,0.361 -0.363,0.57 -0.579,-0.209 -1.003,0.357 -1.158,0.727 0.103,1.417 -1.619,1.052 -1.883,2.471 -2.515,2.09 -3.971,3.963 -6.005,6.429 0.362,0.991 -0.581,1.511 -0.946,2.243 l 0.212,0.158 c -0.476,0.312 -0.58,0.947 -1.156,1.361 0.26,1.151 -0.519,3.136 0.367,4.131 0.155,0.675 0.525,1.51 0.417,2.04 l 0.159,0.208 c -0.214,0.103 -0.159,0.362 -0.159,0.569 -0.679,-0.102 -0.936,0.791 -1.353,0.947 -4.134,-0.68 -8.265,-0.208 -12.033,-1.154 -1.619,-0.051 -3.076,-0.99 -4.703,-0.362 -1.982,-0.475 -3.975,-0.887 -5.865,-1.521 -0.932,-0.94 -2.298,-1.148 -3.55,-2.035 l -0.2,-0.212 -0.525,0.732 c -0.265,-0.207 -0.582,-0.207 -0.79,-0.52 -0.626,0.421 -1.51,-1.257 -1.878,-0.42 l -0.743,-0.732 -0.203,0.212 -0.16,-0.212 c -1.411,0.732 -2.247,-1.146 -3.401,-1.515 -1.877,-1.724 -4.29,-4.24 -4.908,-6.955 -0.524,-0.83 1.356,-2.303 -0.367,-2.822 -0.059,-0.57 -0.737,-1.153 -0.213,-1.678 0.425,-0.524 0.838,-1.67 0.425,-2.452 -1.414,-0.791 0.31,-2.144 -0.785,-3.032 0.618,-2.252 -0.426,-4.505 0.208,-6.753 0.266,-0.938 -0.836,-1.506 -0.372,-2.298 -0.515,-0.629 0.782,-1.412 -0.203,-2.04 0.881,-1.417 -0.991,-2.657 0.203,-3.972 -0.991,-1.779 0,-3.662 1.105,-5.076 0.212,0 0.466,0.064 0.58,-0.207 0.197,0.415 0.514,0 0.727,-0.155 0.581,-0.219 0.214,-0.842 0.581,-1.154 -0.636,-1.1 -1.209,-1.769 -1.675,-2.977 0.046,-0.421 0.674,-0.784 0.155,-1.153 -1.307,-1.203 0.213,-2.874 -0.522,-4.339 0.213,-0.104 0.155,-0.362 0.155,-0.57 0.886,-0.473 0.618,-1.728 0.94,-2.615 0.99,-0.266 0.312,-1.995 1.308,-1.523 1.462,-2.085 2.66,-3.969 5.126,-4.494 0.365,-0.154 0.629,-0.465 0.935,-0.777 0.945,0.046 1.779,-0.945 2.828,0 0.571,0.154 1.361,-1.004 2.04,-0.529 0.41,0.733 1.93,1.154 1.877,2.409"
         inkscape:connector-curvature="0" />
    </g>
    <path
       id="path12"
       d="m 249.588,307.074 -0.793,0.016 c -9.642,0 -17.463,-7.815 -17.463,-17.465 0,-9.643 7.82,-17.463 17.463,-17.463 9.642,0 17.465,7.82 17.465,17.463 0,7.799 -5.114,14.402 -12.171,16.644 0,-0.248 -0.083,-2.458 0.258,-3.156 5.295,-2.178 9.027,-7.399 9.027,-13.488 0,-8.054 -6.53,-14.577 -14.578,-14.577 -8.049,0 -14.574,6.523 -14.574,14.577 0,8.051 6.525,14.584 14.574,14.584 0.253,0 0.514,-0.011 0.767,-0.021 -0.109,0.882 -0.135,2.309 0.025,2.886"
       inkscape:connector-curvature="0"
       style="fill:#0081c3" />
    <path
       id="path14"
       d="m 249.588,307.074 -0.793,0.016 c -9.642,0 -17.463,-7.815 -17.463,-17.465 0,-9.643 7.82,-17.463 17.463,-17.463 9.642,0 17.465,7.82 17.465,17.463 0,7.799 -5.114,14.402 -12.171,16.644 0,-0.248 -0.083,-2.458 0.258,-3.156 5.295,-2.178 9.027,-7.399 9.027,-13.488 0,-8.054 -6.53,-14.577 -14.578,-14.577 -8.049,0 -14.574,6.523 -14.574,14.577 0,8.051 6.525,14.584 14.574,14.584 0.253,0 0.514,-0.011 0.767,-0.021 -0.109,0.882 -0.135,2.309 0.025,2.886"
       inkscape:connector-curvature="0"
       style="fill:#0085c7" />
    <path
       id="path16"
       d="m 291.974,306.268 c 7.066,-2.231 12.181,-8.844 12.181,-16.644 0,-9.643 -7.826,-17.462 -17.462,-17.462 -8.923,0 -16.286,6.7 -17.336,15.335 0.598,-0.028 2.574,0.397 2.851,0.481 0.814,-7.271 6.984,-12.931 14.485,-12.931 8.047,0 14.575,6.522 14.575,14.576 0,6.099 -3.739,11.329 -9.058,13.504 -0.132,0.724 -0.297,1.555 -0.236,3.141"
       inkscape:connector-curvature="0" />
    <path
       id="path18"
       d="m 287.482,307.074 -0.789,0.016 c -8.808,0 -16.089,-6.523 -17.292,-14.995 0.521,0.011 2.021,0.293 3.061,0.722 1.457,6.516 7.27,11.392 14.231,11.392 0.259,0 0.522,-0.011 0.779,-0.021 -0.029,0.529 -0.142,1.351 0.01,2.886"
       inkscape:connector-curvature="0" />
    <path
       id="path20"
       d="m 310.361,292.818 c 1.455,6.515 7.273,11.391 14.238,11.391 8.043,0 14.569,-6.533 14.569,-14.584 0,-8.054 -6.526,-14.577 -14.569,-14.577 -7.504,0 -13.685,5.661 -14.501,12.947 -0.509,-0.202 -2.21,-0.483 -2.848,-0.497 1.047,-8.635 8.412,-15.335 17.349,-15.335 9.637,0 17.454,7.819 17.454,17.462 0,9.65 -7.817,17.465 -17.454,17.465 -8.823,0 -16.114,-6.527 -17.303,-15.011 0.549,0.026 2.033,0.317 3.065,0.739"
       inkscape:connector-curvature="0"
       style="fill:#e90024" />
    <path
       id="path22"
       d="m 285.036,303.212 c -1.194,-8.495 -8.474,-15.024 -17.289,-15.024 l -0.768,0.014 c 0.059,0.655 0.079,2.192 -0.03,2.901 0.273,-0.015 0.524,-0.03 0.798,-0.03 6.951,0 12.758,4.868 14.223,11.38 0.715,0.329 2.506,0.759 3.066,0.759"
       inkscape:connector-curvature="0"
       style="fill:#f4c300" />
    <path
       id="path24"
       d="m 285.079,307.773 c -1.044,8.642 -8.413,15.347 -17.331,15.347 -9.647,0 -17.467,-7.821 -17.467,-17.468 0,-7.802 5.121,-14.419 12.184,-16.656 0.048,0.721 -0.02,1.964 -0.233,3.152 -5.32,2.18 -9.067,7.4 -9.067,13.504 0,8.053 6.525,14.584 14.583,14.584 7.491,0 13.667,-5.647 14.485,-12.934 0.733,0.239 2.202,0.456 2.846,0.471"
       inkscape:connector-curvature="0"
       style="fill:#f4c300" />
    <path
       id="path26"
       d="m 322.978,307.773 c -1.049,8.642 -8.413,15.347 -17.336,15.347 -9.649,0 -17.467,-7.821 -17.467,-17.468 0,-7.802 5.12,-14.408 12.186,-16.649 0.094,0.804 -0.058,2.665 -0.223,3.145 -5.298,2.179 -9.077,7.414 -9.077,13.503 0,8.053 6.528,14.584 14.58,14.584 7.497,0 13.658,-5.647 14.489,-12.934 0.393,0.141 1.89,0.437 2.848,0.472"
       inkscape:connector-curvature="0"
       style="fill:#009f3d" />
    <path
       id="path28"
       d="m 304.873,291.089 0.769,-0.016 c 6.958,0 12.776,4.873 14.233,11.386 0.618,0.272 2.14,0.669 3.064,0.753 -1.193,-8.495 -8.481,-15.024 -17.297,-15.024 l -0.791,0.014 c 0.098,0.717 0.098,2.149 0,2.887"
       inkscape:connector-curvature="0"
       style="fill:#009f3d" />
    <path
       id="path30"
       d="m 256.207,230.948 c 0.358,1.299 -1.211,1.251 -0.95,2.454 -0.623,0.048 -0.99,0.781 -1.667,0.781 -0.529,-0.207 -1.832,0.471 -2.25,-0.578 0.165,-0.461 -0.524,-0.782 0,-1.145 -0.266,-0.37 0.417,-0.887 0.165,-1.511 0.826,-1.053 2.397,-0.949 3.596,-1.469 0.785,0.312 0.835,0.782 1.106,1.468"
       inkscape:connector-curvature="0" />
    <path
       id="path32"
       d="m 262.051,230.579 c 0.061,0.261 -0.157,0.623 0.218,0.785 -0.375,0.101 -0.157,0.517 -0.218,0.724 0,0.262 -0.053,0.998 -0.568,1.314 -1.105,0.573 -2.096,1.93 -3.56,1.147 -0.784,-2.143 1.211,-3.601 2.455,-5.071 0.635,0.105 1.412,0.366 1.673,1.101"
       inkscape:connector-curvature="0" />
    <path
       id="path34"
       d="m 248.508,231.147 c 0,1.099 -0.678,1.94 -1.145,2.829 -1.095,0.05 -2.243,0.729 -3.396,0.207 -0.581,-0.469 -1.412,-0.525 -1.308,-1.515 1.308,-0.738 2.248,-2.514 3.972,-2.088 0.575,-0.736 1.411,-0.001 1.877,0.567"
       inkscape:connector-curvature="0" />
    <path
       id="path36"
       d="m 214.793,231.514 -0.169,-0.15 c 1.838,-1.003 3.503,1.042 5.444,0.367 v -0.218 c 1.515,0.524 3.768,0.415 5.284,1.525 0.416,-0.063 0.674,0.675 0.727,1.144 0.259,0.729 -0.416,1.359 -0.155,1.888 -0.104,0.048 -0.261,0.154 -0.208,0.362 l -0.157,-0.208 c -0.571,0.411 -1.462,0.365 -2.091,0.365 -0.738,0.623 -1.989,0.995 -2.823,1.883 -0.732,-0.471 -0.94,1.049 -1.521,0.415 -1.672,0.842 -3.5,1.411 -5.435,1.678 h -0.788 l 1.891,-1.153 -0.169,-0.157 c 0.477,-0.205 1.159,-0.313 1.314,-0.948 l -0.209,-0.202 c -0.045,0.098 -0.154,0.263 -0.366,0.202 1.203,-0.78 2.666,-1.246 3.611,-2.237 -3.399,-0.529 -7.063,-0.529 -10.573,-0.788 -0.362,0.629 -0.73,-0.416 -1.14,0.207 -0.996,-0.261 -2.247,0.522 -3.348,0 -2.456,0.213 -4.813,-0.41 -7.739,-0.207 -1.26,-0.203 -2.453,-0.629 -3.56,-1.307 -0.467,0.309 -0.938,-0.573 -1.354,-0.573 0.051,-0.26 -0.316,-0.427 -0.161,-0.735 0.212,0.055 0.998,-0.158 1.315,0.154 2.135,-0.94 4.754,-1.356 6.948,-1.675 2.465,0.269 4.651,0.426 6.959,-0.198 0.203,0.156 0.307,0.468 0.57,0.416 l 0.213,-0.218 0.157,0.218 c 0.52,-1.211 2.034,0.626 2.823,-0.218 1.561,-0.106 2.876,0.942 4.343,0.585 0.199,0.052 0.308,-0.108 0.367,-0.217"
       inkscape:connector-curvature="0" />
    <path
       id="path38"
       d="m 359.578,234.183 c 0.414,-0.207 -0.052,-0.469 0,-0.78 0.359,0.573 0.825,-0.471 1.095,0.364 l 0.427,-0.364 c 0,0.201 -0.058,0.468 0.145,0.573 0.367,-1.099 1.262,-0.064 2.094,-0.371 2.036,0.843 3.76,2.719 4.342,4.868 0,2.415 -1.984,4.34 -3.401,5.862 0,0.413 0.104,0.882 -0.363,1.145 0.312,0.104 0.11,0.52 0.155,0.727 -0.154,0.156 -0.258,0.472 -0.57,0.373 -0.639,-0.114 -1.469,0.261 -2.257,0.36 -0.991,1.578 -3.239,2.154 -3.753,3.974 -0.69,0.109 -0.904,1.205 -1.522,1.515 0.935,0.784 2.502,0.784 3.608,0.733 1.2,-0.733 3.761,0 4.339,-2.034 0.155,0 0.467,0.053 0.52,-0.214 -0.682,-0.886 -0.208,-2.245 -0.365,-3.393 0.311,-0.103 0.365,0.263 0.577,0.362 0.104,-0.212 0.368,-0.149 0.575,-0.149 0.052,0.617 0.782,1.203 1.303,1.511 0.212,0.046 0.262,-0.105 0.366,-0.207 0.37,1.515 2.456,3.03 1.148,4.5 -0.039,0.937 -0.203,1.715 -0.944,2.299 -1.403,0.045 -2.081,1.306 -3.389,1.094 -0.474,0.467 -1.361,-0.157 -1.676,0.579 -0.934,-0.635 -1.827,-0.424 -2.82,-0.217 -3.507,0 -6.59,-1.832 -8.687,-4.28 -0.886,-1.831 0.368,-3.768 1.303,-5.13 1.63,-1.202 3.244,-1.619 4.551,-3.347 0,-0.2 -0.046,-0.472 0.163,-0.571 -1.471,-0.524 -3.195,-1.099 -3.92,-2.46 -0.949,-0.208 -0.639,-1.152 -0.949,-1.671 0.424,-0.782 -0.31,-2.142 0.736,-2.46 -0.16,-1.099 1.094,-1.779 1.678,-2.668 0.677,-0.097 1.514,-1.937 2.292,-0.729 l 0.367,0.361 c -0.159,0.214 -0.465,0.318 -0.367,0.575 l 0.163,0.208 c 0.511,-0.04 0.511,-0.617 0.788,-0.937 0.721,1.15 -0.634,1.462 -0.952,2.408 -0.361,1.411 -1.872,2.719 -0.778,4.189 0.986,0.777 2.248,1.507 3.768,1.452 1.249,-1.615 3.551,-3.136 2.662,-5.429 -1.36,-1.313 -2.252,-2.726 -4.182,-3.401 0.837,-0.316 1.367,0.509 1.73,0.78"
       inkscape:connector-curvature="0" />
    <path
       id="path40"
       d="m 355.44,234.55 0.53,-0.783 -0.367,0.57 z"
       inkscape:connector-curvature="0" />
    <path
       id="path42"
       d="m 315.338,235.12 0.574,2.253 c 0.628,-0.263 0.628,-0.836 1.316,-0.207 -0.068,1.515 1.719,2.98 0.359,4.338 0.256,0.939 -1.15,1.886 -1.517,2.618 -1.466,2.344 -4.393,3.761 -6.591,5.646 0.894,0.783 1.629,-0.63 2.456,0 0.53,0.155 0.892,-0.152 1.317,-0.365 0.779,-0.159 2.185,0.365 2.818,-0.159 l 4.547,-0.207 c 0.156,-0.417 0.475,0.057 0.738,0 -0.164,0.207 -0.477,0.253 -0.372,0.58 l 0.154,0.152 c -0.727,0.259 -0.727,1.461 -1.46,1.514 -0.309,0.675 -0.625,1.308 -0.786,2.086 -0.727,0.169 -1.359,1.105 -2.037,0.743 -0.262,0.52 -0.99,0.52 -1.514,0.778 -0.625,-0.362 -0.99,0.529 -1.514,0.363 -2.874,0.584 -7.01,1.414 -9.989,0 -1.095,-0.155 -2.3,-1.194 -3.399,-1.307 -0.837,-0.783 -1.886,-1.407 -1.886,-2.661 4.65,0.208 8.471,-2.093 11.875,-4.703 0.47,-0.736 1.308,-1.577 2.085,-2.045 1.575,-1.827 2.56,-2.874 3.769,-4.91 -0.525,-0.258 -0.056,-1.318 -0.941,-1.153 -0.155,0.783 -0.99,0.733 -1.514,0.941 -0.423,0 -0.997,0.155 -1.314,-0.157 -0.516,0.577 -0.881,-0.314 -1.514,0 -1.147,0.208 -2.144,0.265 -3.185,0.369 -0.886,-0.369 -1.678,-0.057 -2.466,-0.212 -1.148,-0.157 -3.027,-0.363 -4.12,-0.525 l -0.946,-0.416 c 0.946,-2.353 4.027,-2.199 5.651,-3.767 1.668,0 3.446,-0.627 5.066,-0.368 1.57,-0.572 3.033,0.163 4.34,0.781"
       inkscape:connector-curvature="0" />
    <path
       id="path44"
       d="m 345.094,237.166 c 3.185,1.252 4.547,4.6 4.707,7.739 0.196,0.363 -0.269,1.203 0.156,1.675 -0.685,2.456 -0.524,5.907 -3.394,6.788 -0.427,0.898 -1.626,0.639 -2.42,0.947 -0.253,-0.888 -0.939,-1.991 -1.87,-2.248 -0.215,0.42 -0.417,0.886 -0.579,1.302 -0.367,-0.046 -0.783,0.168 -0.937,-0.207 -0.525,0.375 -1.154,0.316 -1.89,0 -1.615,-0.307 -0.619,-2.091 -1.719,-2.824 l 0.204,-0.15 -0.204,-0.214 0.204,-0.206 -0.204,-0.152 c 0.104,-1.099 -0.16,-2.725 -0.16,-3.772 -0.16,-0.732 0.209,-1.672 0.365,-2.454 -0.417,-0.219 0.056,-0.474 0,-0.733 0.206,0.051 0.27,-0.108 0.366,-0.214 -0.052,-1.513 0.732,-3.075 1.514,-4.495 1.678,2.564 1.991,6.328 1.524,9.784 l 0.363,0.571 0.207,-0.214 c 0.264,0.733 0.996,1.154 1.878,0.947 0.629,-1.367 2.875,-2.097 1.678,-3.769 1.099,-0.778 0.213,-1.981 0.213,-3.035 -1.049,-1.345 -2.31,-2.664 -3.976,-3.181 -0.209,-0.109 -0.266,-0.478 -0.576,-0.369 0.31,-0.679 1.313,-1.255 1.515,-1.878 0.886,-0.168 2.044,0.258 3.035,0.362"
       inkscape:connector-curvature="0" />
    <path
       id="path46"
       d="m 333.587,238.888 c 1.049,3.031 2.098,6.749 1.155,9.934 0.148,0.634 -0.319,1.411 -0.572,2.091 -0.692,1.205 -2.203,1.303 -3.407,1.678 -0.31,-0.208 -0.109,-0.733 -0.569,-0.945 -0.634,0 -1.111,0.103 -1.521,0.571 l 0.58,0.582 c -0.736,0.629 -1.524,0.892 -2.049,1.883 l 0.157,0.207 c -0.157,0.323 -0.619,0.103 -0.934,0.15 l -0.156,-0.15 -0.208,0.15 c -1.412,-1.031 -3.09,-2.764 -3.199,-4.487 -1.302,-1.263 -0.678,-2.924 -1.147,-4.707 -0.056,-2.508 -0.056,-5.02 0.781,-7.163 0.16,0.056 0.268,-0.109 0.366,-0.209 l 0.164,0.209 c 0.102,-0.109 0.262,-0.209 0.206,-0.374 1.149,0.062 0.674,1.319 1.307,1.89 l -0.158,0.156 c 0.474,1.204 0.474,2.667 1.101,3.768 0.044,0.31 -0.42,0.571 0,0.784 1.086,1.457 0.683,4.913 3.396,4.338 0.317,-0.15 0.151,-0.52 0.202,-0.778 l 0.171,0.202 c 1.199,-1.408 0.721,-3.297 0.57,-5.071 -0.413,-0.889 -0.626,-1.885 -1.306,-2.667 -0.365,-0.15 -0.469,-0.733 -0.933,-0.577 -0.38,-0.472 -1.313,-0.472 -1.892,-0.726 0.099,-1.154 2.243,-0.684 2.46,-2.099 1.199,0.578 1.982,-1.094 2.974,0 1.153,-0.466 1.728,0.737 2.461,1.36"
       inkscape:connector-curvature="0" />
    <path
       id="path48"
       d="m 289.71,238.681 c 0.786,0.991 1.523,1.618 0.786,2.823 -0.941,0.415 -0.628,-0.788 -1.355,-0.724 -2.253,0.044 -4.125,-1.212 -6.166,-0.947 -0.306,-0.103 -0.417,0.203 -0.575,0.364 -0.108,0.26 0.208,0.369 0.368,0.583 h 0.207 c -0.471,1.507 -1.675,3.025 -1.362,4.7 -0.06,0.987 0.411,1.614 1.362,1.881 1.252,0.679 3.136,0.309 4.13,-0.421 -0.159,-1.095 -0.425,-2.192 -0.947,-3.188 0.165,0 0.462,-0.056 0.58,0.213 0.41,-0.213 -0.058,-0.471 0,-0.793 1.768,-0.042 2.46,2.154 3.56,3.035 2.813,4.975 2.086,10.567 -1.158,15.066 -1.042,0.26 -1.354,1.407 -2.403,1.663 -1.154,0.477 -2.352,0.636 -3.401,1.369 -0.363,-0.108 -1.254,-0.108 -1.724,0.157 -2.872,0.104 -4.968,0.461 -7.69,-0.365 -0.154,-0.369 -0.467,-0.684 -0.778,-0.943 h -0.737 c 0.42,-0.417 0.737,-0.837 1.515,-0.941 -0.467,-0.421 -1.094,-0.421 -1.515,-0.941 3.134,-0.628 5.704,-0.211 8.684,-1.675 3.19,-1.722 6.122,-5.387 6.012,-9.045 -0.837,-0.214 -1.52,0.362 -2.089,0.158 -0.213,0.47 -0.68,0.417 -1.105,0.417 -0.886,-0.056 -1.569,0.316 -2.456,0.156 -1.306,0.16 -3.185,-0.053 -3.975,-1.308 -0.16,-1.405 0.321,-2.305 -0.16,-3.554 L 277.684,246 c -0.366,-1.252 0.893,-2.356 1.314,-3.557 l -0.213,-0.211 c 2.098,-3.551 6.229,-5.066 10.354,-4.284 0.21,0.208 0.833,0.208 0.571,0.733"
       inkscape:connector-curvature="0" />
    <path
       id="path50"
       d="m 254.163,240.929 c 0.154,1.09 0.367,2.138 0.575,3.192 -0.421,0.413 0,0.943 0.154,1.358 0.629,2.927 -0.154,5.542 -0.154,8.262 -0.26,1.147 -0.996,2.504 -1.52,3.767 -0.158,0.366 0.055,1.092 -0.575,1.149 l 0.212,0.162 c -0.992,0.467 -0.37,1.616 -1.351,2.086 l 0.198,0.156 c -0.991,0.369 -1.1,1.726 -2.09,1.874 l -0.158,-0.148 c -0.202,0.148 -0.316,0.467 -0.575,0.366 l -0.208,-0.219 c -0.059,0.112 -0.163,0.269 -0.365,0.219 -1.198,-0.163 -2.615,0.26 -3.928,0.366 l -0.197,-0.159 -0.213,0.159 -0.367,-0.366 c 0.258,-0.219 0.58,-0.219 0.778,-0.573 l -0.197,-0.159 c 3.598,-2.668 4.698,-7.003 6.794,-10.563 l -0.208,-0.212 c 0.41,-4.286 2.293,-8.517 1.303,-12.965 0.311,0.056 0.628,-0.046 0.573,-0.374 1.098,0.328 0.994,1.729 1.518,2.622"
       inkscape:connector-curvature="0" />
    <path
       id="path52"
       d="m 274.501,239.833 c 0.782,1.515 0.633,3.453 0.937,5.231 l -0.418,0.415 c 0.418,2.19 0.575,4.289 0,6.379 -0.312,0.208 -0.469,0.732 -0.94,0.57 0.051,-0.212 -0.053,-0.31 -0.158,-0.362 -0.466,0 -0.729,-0.783 -1.144,-1.153 -0.105,0.266 -0.37,0.213 -0.576,0.213 -1.207,-1.724 -0.42,-4.494 -0.365,-6.592 -0.679,-0.891 0.623,-1.878 -0.368,-2.666 -0.577,0.84 -1.257,-0.103 -1.891,0.575 -0.932,0.264 -1.717,-0.425 -2.452,-0.212 0.322,3.406 1.727,6.804 0.937,10.197 -0.202,0.638 -0.99,0.425 -1.302,0.161 -0.733,-0.524 -2.195,-0.791 -2.456,-2.039 -0.262,-2.408 0.578,-5.438 0,-8.107 0.416,-0.886 0.578,-2.091 1.516,-2.61 0.365,0.046 0.623,0.416 0.94,0.519 1.624,-1.148 3.821,-0.939 5.44,-2.045 0.577,0.581 1.619,0.789 2.3,1.526"
       inkscape:connector-curvature="0" />
    <path
       id="path54"
       d="m 261.484,245.064 c -0.367,1.875 0.099,4.125 -1.105,5.645 -0.881,0.257 -0.836,1.202 -1.354,1.719 l -0.37,-0.57 -0.158,0.208 c -1.62,-3.497 -0.729,-8.316 0.366,-11.869 l 0.162,-1.147 c 1.988,1.2 2.038,3.865 2.459,6.014"
       inkscape:connector-curvature="0" />
    <path
       id="path56"
       d="m 243.293,253.003 h -0.06 v 0.01 z m 0,0 -1.363,0.534 0.155,-0.169 c 0.618,0.373 1.193,0.947 1.882,1.105 l -1.307,-1.461 0.208,-0.214 c 0,0.165 0.213,0.199 0.365,0.204 -0.117,-0.105 -0.261,-0.214 -0.213,-0.412 -0.837,-0.266 -1.308,-1.252 -2.243,-1.464 -1.1,-1.358 -2.985,-1.883 -3.922,-3.607 1.254,-0.737 2.354,-0.103 3.76,-0.58 0.687,0.377 1.881,0.154 2.405,0.214 l 0.213,-0.214 c 0.212,-0.098 0.522,-0.473 0.367,-0.94 -1.001,-2.356 -3.244,-4.651 -5.646,-5.646 -0.791,-0.207 -1.782,-0.623 -2.461,-0.727 -1.198,-0.888 -2.881,-0.633 -4.288,-0.945 -0.725,0.524 -1.67,0.524 -2.458,0.732 -0.42,0.213 0.096,0.991 -0.572,0.94 0.047,1.625 0.623,3.037 0.934,4.552 -0.266,0.466 -0.727,0.363 -1.142,0.363 -0.16,0.262 -0.522,0.42 -0.368,0.732 1.09,0.99 2.195,0.109 3.19,1.361 1.04,1.928 3.338,3.82 4.341,5.438 0.576,0.055 1.254,0.679 1.723,0.363 0.471,0.629 0.471,1.412 1.463,1.312 0.052,0.944 1.099,0.208 1.36,0.944 0.212,0 0.575,0.159 0.725,-0.165 0.951,0.835 2.357,0.478 3.566,0.583 -0.109,-0.948 -1.675,-1.205 -2.037,-2.299 m -9.422,-10.518 c -1.041,-0.787 -1.718,-2.09 -2.24,-3.186 0.467,0.1 0.57,-0.42 0.938,0.156 1.826,0.103 3.193,1.194 4.708,2.094 1.146,0.467 1.982,1.669 2.403,2.823 -1.833,-0.313 -5.285,0.989 -5.809,-1.887"
       inkscape:connector-curvature="0" />
    <path
       id="path58"
       d="m 247.206,239.833 c 0.791,3.557 2.823,7.584 1.465,11.08 -0.629,0.267 -1.308,0.53 -1.885,0.945 -2.091,-1.67 -1.095,-4.441 -1.095,-6.59 l -0.203,-0.203 1.144,-5.076 c 0.155,-0.213 0.475,-0.259 0.731,-0.363 z"
       inkscape:connector-curvature="0" />
    <path
       id="path60"
       d="m 228.54,249.974 c -0.529,-1.405 -1.47,-2.137 -2.615,-2.822 -1.153,-1.205 -2.456,-1.673 -3.976,-2.46 -0.515,-0.054 -0.515,-0.682 -0.94,-0.358 -2.139,-1.049 -4.391,-1.786 -6.746,-2.252 -0.625,-0.214 -1.302,0.15 -1.88,-0.578 -1.151,0.053 -2.771,-0.616 -3.981,-0.358 -0.73,0.036 -0.882,-0.793 -1.298,-1.158 0.312,-0.525 0.104,-1.25 0.158,-1.883 -0.888,0.416 -0.474,-0.732 -1.105,-0.732 l -0.209,0.155 c -0.311,-0.576 -0.474,0 -0.935,-0.155 -0.679,1.099 -1.158,2.506 -0.95,3.772 -0.622,1.823 0.114,3.546 -0.938,5.274 0.685,0.519 0,1.723 0.788,2.045 -0.103,0.104 -0.213,0.259 -0.416,0.203 0.358,0.155 0.145,0.621 0.203,0.948 -1.356,0.722 -2.564,-0.477 -3.393,-1.151 l -0.37,0.571 c 0.421,0.58 0.783,1.249 1.312,1.515 0.361,0.046 0.826,0.629 1.143,0.363 0.525,0.052 0.892,0.576 1.307,0.945 -0.058,0.26 0.155,0.629 -0.202,0.732 0.416,0.733 -0.056,1.779 0.416,2.448 0.42,0.38 0.782,0.951 1.307,1.159 -0.055,-0.208 0.103,-0.317 0.155,-0.362 0.312,-0.259 0.889,-0.376 1.148,0 1.147,-0.52 1.515,0.99 2.827,0.733 -0.322,-0.688 0.573,-0.579 0.573,-1.15 v -2.257 c 0.056,-0.208 -0.152,-0.571 0.16,-0.733 0.253,0.059 0.623,-0.155 0.788,0.162 2.397,0.051 5.02,0.623 7.526,0.947 0.099,-0.059 0.15,-0.214 0.367,-0.169 1.407,0.219 2.501,0.266 3.763,0.373 0.888,-0.204 2.145,-0.204 3.189,-0.204 l 0.208,-0.169 c 0.793,0.64 0.833,-1.152 1.675,-0.356 0,-0.214 -0.058,-0.475 0.208,-0.584 l 0.368,0.37 c 1.252,-0.37 -0.056,-1.988 0.365,-2.824 m -9.201,0.736 c -0.941,0 -2.515,0.153 -3.61,-0.158 -0.208,0.046 -0.574,-0.159 -0.732,0.158 h -3.03 c -0.735,-0.477 -2.25,0.361 -2.616,-0.736 0,-0.991 0.054,-2.241 -0.367,-3.191 v -2.819 c 4.863,1.1 9.886,1.983 13.903,5.072 0.058,0.253 -0.155,0.622 0.213,0.732 -0.892,0.783 -2.507,0.724 -3.761,0.942"
       inkscape:connector-curvature="0" />
    <path
       id="path62"
       d="m 351.866,259.826 h 4.024 v 0.606 h -1.683 v 4.361 h -0.669 v -4.361 h -1.672 z"
       inkscape:connector-curvature="0" />
    <path
       id="path64"
       d="m 360.586,264.793 v -2.929 l 0.011,-1.241 h -0.011 l -1.398,4.169 h -0.663 l -1.386,-4.159 h -0.016 l 0.016,1.232 v 2.928 h -0.654 v -4.966 h 0.965 l 1.417,4.192 h 0.006 l 1.405,-4.192 h 0.952 v 4.966 h -0.644 v -0.001 z"
       inkscape:connector-curvature="0" />
    <path
       id="path66"
       d="m 362.165,262.301 c 0,-1.235 0.922,-2.163 2.115,-2.163 1.189,0 2.113,0.927 2.113,2.163 0,1.261 -0.924,2.179 -2.113,2.179 -1.193,0 -2.115,-0.919 -2.115,-2.179 m 2.115,2.621 c 1.432,0 2.643,-1.111 2.643,-2.622 0,-1.494 -1.211,-2.6 -2.643,-2.6 -1.432,0 -2.639,1.106 -2.639,2.6 0,1.511 1.207,2.622 2.639,2.622 m 0.91,-2.129 c -0.063,0.385 -0.385,0.653 -0.811,0.653 -0.64,0 -1.022,-0.535 -1.022,-1.159 0,-0.64 0.353,-1.129 0.997,-1.129 0.434,0 0.753,0.249 0.835,0.63 h 0.463 c -0.095,-0.707 -0.64,-1.085 -1.303,-1.085 -0.942,0 -1.517,0.674 -1.517,1.594 0,0.901 0.607,1.601 1.546,1.601 0.634,0 1.154,-0.422 1.278,-1.105 z"
       inkscape:connector-curvature="0" />
  </g>
</svg>
