<?xml version="1.0" encoding="UTF-8" standalone="no"?>
<svg
   xmlns:dc="http://purl.org/dc/elements/1.1/"
   xmlns:cc="http://creativecommons.org/ns#"
   xmlns:rdf="http://www.w3.org/1999/02/22-rdf-syntax-ns#"
   xmlns:svg="http://www.w3.org/2000/svg"
   xmlns="http://www.w3.org/2000/svg"
   xmlns:sodipodi="http://sodipodi.sourceforge.net/DTD/sodipodi-0.dtd"
   xmlns:inkscape="http://www.inkscape.org/namespaces/inkscape"
   viewBox="0 0 164.483 250"
   version="1.1"
   id="svg133"
   sodipodi:docname="2020.svg"
   width="164.483"
   height="250"
   style="clip-rule:evenodd;fill-rule:evenodd"
   inkscape:version="0.92.4 (5da689c313, 2019-01-14)">
  <metadata
     id="metadata139">
    <rdf:RDF>
      <cc:Work
         rdf:about="">
        <dc:format>image/svg+xml</dc:format>
        <dc:type
           rdf:resource="http://purl.org/dc/dcmitype/StillImage" />
        <dc:title></dc:title>
      </cc:Work>
    </rdf:RDF>
  </metadata>
  <defs
     id="defs137" />
  <sodipodi:namedview
     pagecolor="#ffffff"
     bordercolor="#666666"
     borderopacity="1"
     objecttolerance="10"
     gridtolerance="10"
     guidetolerance="10"
     inkscape:pageopacity="0"
     inkscape:pageshadow="2"
     inkscape:window-width="1920"
     inkscape:window-height="1017"
     id="namedview135"
     showgrid="false"
     fit-margin-top="0"
     fit-margin-left="0"
     fit-margin-right="0"
     fit-margin-bottom="0"
     inkscape:zoom="1.4344166"
     inkscape:cx="132.97643"
     inkscape:cy="141.91227"
     inkscape:window-x="-8"
     inkscape:window-y="-8"
     inkscape:window-maximized="1"
     inkscape:current-layer="svg133" />
  <clipPath
     id="a">
    <path
       d="M 197.757,75 H 362.243 V 325 H 197.757 Z"
       id="path2"
       inkscape:connector-curvature="0"
       style="clip-rule:evenodd" />
  </clipPath>
  <g
     id="g205"
     transform="translate(-197.757,-75)">
    <g
       id="g131"
       clip-path="url(#a)">
      <g
         id="g95"
         style="fill:#202b5a">
        <path
           id="path5"
           d="m 328.966,148.109 7.159,-12.401 -12.401,-7.16 -7.16,12.401 z"
           inkscape:connector-curvature="0" />
        <path
           id="path7"
           d="m 326.305,104.377 v 14.32 h 14.32 v -14.32 z"
           inkscape:connector-curvature="0" />
        <path
           id="path9"
           d="m 309.332,221.196 16.94,-9.781 -2.621,-4.538 -16.941,9.78 z"
           inkscape:connector-curvature="0" />
        <path
           id="path11"
           d="m 350.468,160.533 h 5.242 v -19.561 h -5.242 z"
           inkscape:connector-curvature="0" />
        <path
           id="path13"
           d="m 336.09,194.437 4.539,2.621 9.781,-16.94 -4.539,-2.621 z"
           inkscape:connector-curvature="0" />
        <path
           id="path15"
           d="m 296.951,194.437 v 19.562 h 5.243 v -19.562 z"
           inkscape:connector-curvature="0" />
        <path
           id="path17"
           d="m 323.71,206.882 12.401,-12.402 -7.16,-7.159 -12.402,12.401 z"
           inkscape:connector-curvature="0" />
        <path
           id="path19"
           d="m 323.71,167.679 12.401,-12.402 -7.16,-7.159 -12.402,12.401 z"
           inkscape:connector-curvature="0" />
        <path
           id="path21"
           d="m 316.521,180.123 -9.781,-2.62 -4.539,16.94 9.781,2.621 z"
           inkscape:connector-curvature="0" />
        <path
           id="path23"
           d="m 345.939,177.464 4.538,-16.94 -9.78,-2.621 -4.539,16.94 z"
           inkscape:connector-curvature="0" />
        <path
           id="path25"
           d="m 340.683,118.691 -4.539,16.941 9.781,2.62 4.538,-16.94 z"
           inkscape:connector-curvature="0" />
        <path
           id="path27"
           d="m 309.332,114.162 -2.622,9.781 16.941,4.539 2.621,-9.781 z"
           inkscape:connector-curvature="0" />
        <path
           id="path29"
           d="m 253.237,109.648 h -14.32 v 14.32 h 14.32 z"
           inkscape:connector-curvature="0" />
        <path
           id="path31"
           d="m 216.677,133.732 12.402,-7.16 -7.16,-12.401 -12.402,7.159 z"
           inkscape:connector-curvature="0" />
        <path
           id="path33"
           d="m 326.305,90.064 -16.94,-9.78 -2.621,4.538 16.94,9.781 z"
           inkscape:connector-curvature="0" />
        <path
           id="path35"
           d="m 250.623,80.279 -16.941,9.781 2.621,4.539 16.941,-9.781 z"
           inkscape:connector-curvature="0" />
        <path
           id="path37"
           d="m 289.802,75 h -19.561 v 5.242 h 19.561 z"
           inkscape:connector-curvature="0" />
        <path
           id="path39"
           d="m 323.71,99.849 -16.941,9.781 2.621,4.539 16.94,-9.781 z"
           inkscape:connector-curvature="0" />
        <path
           id="path41"
           d="m 306.736,84.808 -16.941,-4.538 -2.621,9.781 16.94,4.538 z"
           inkscape:connector-curvature="0" />
        <path
           id="path43"
           d="m 272.788,104.377 -16.94,-4.538 -2.621,9.781 16.94,4.538 z"
           inkscape:connector-curvature="0" />
        <path
           id="path45"
           d="m 287.166,104.377 2.622,9.781 16.939,-4.538 -2.62,-9.781 z"
           inkscape:connector-curvature="0" />
        <path
           id="path47"
           d="m 270.192,80.279 -16.94,4.539 2.62,9.781 16.941,-4.539 z"
           inkscape:connector-curvature="0" />
        <path
           id="path49"
           d="m 236.245,99.849 -16.941,4.539 2.621,9.781 16.941,-4.54 z"
           inkscape:connector-curvature="0" />
        <path
           id="path51"
           d="m 233.65,143.581 9.781,-2.621 -4.539,-16.94 -9.781,2.62 z"
           inkscape:connector-curvature="0" />
        <path
           id="path53"
           d="m 257.747,194.437 7.16,12.402 12.402,-7.16 -7.16,-12.402 z"
           inkscape:connector-curvature="0" />
        <path
           id="path55"
           d="m 296.95,214.006 -12.401,-7.159 -7.16,12.402 12.401,7.159 z"
           inkscape:connector-curvature="0" />
        <path
           id="path57"
           d="m 209.511,140.908 h -5.242 v 19.561 h 5.242 z"
           inkscape:connector-curvature="0" />
        <path
           id="path59"
           d="m 233.65,211.411 16.94,9.78 2.621,-4.538 -16.94,-9.781 z"
           inkscape:connector-curvature="0" />
        <path
           id="path61"
           d="m 209.488,180.124 9.781,16.94 4.539,-2.621 -9.781,-16.94 z"
           inkscape:connector-curvature="0" />
        <path
           id="path63"
           d="m 233.65,143.581 -16.94,-9.781 -2.621,4.539 16.94,9.781 z"
           inkscape:connector-curvature="0" />
        <path
           id="path65"
           d="m 223.865,174.868 -4.539,-16.941 -9.781,2.557 4.539,16.941 z"
           inkscape:connector-curvature="0" />
        <path
           id="path67"
           d="m 243.434,180.123 4.539,16.941 9.781,-2.621 -4.539,-16.94 z"
           inkscape:connector-curvature="0" />
        <path
           id="path69"
           d="m 243.434,160.49 -12.402,-12.402 -7.159,7.16 12.401,12.401 z"
           inkscape:connector-curvature="0" />
        <path
           id="path71"
           d="m 223.865,194.437 12.402,12.402 7.159,-7.16 -12.401,-12.402 z"
           inkscape:connector-curvature="0" />
        <path
           id="path73"
           d="m 257.747,214.006 12.402,12.402 7.16,-7.159 -12.402,-12.402 z"
           inkscape:connector-curvature="0" />
        <path
           id="path75"
           d="m 296.951,194.437 -7.159,-7.16 -12.402,12.402 7.16,7.16 z"
           inkscape:connector-curvature="0" />
        <path
           id="path77"
           d="m 323.71,167.679 -7.161,12.402 12.402,7.159 7.16,-12.402 z"
           inkscape:connector-curvature="0" />
        <path
           id="path79"
           d="m 311.992,197.034 -9.781,16.94 4.539,2.621 9.781,-16.941 z"
           inkscape:connector-curvature="0" />
        <path
           id="path81"
           d="m 336.09,155.234 4.539,2.621 9.78,-16.941 -4.538,-2.62 z"
           inkscape:connector-curvature="0" />
        <path
           id="path83"
           d="m 287.182,90.023 h -14.384 v 14.319 h 14.319 V 90.023 Z"
           inkscape:connector-curvature="0" />
        <path
           id="path85"
           d="m 304.122,99.867 h 19.561 v -5.242 h -19.561 z"
           inkscape:connector-curvature="0" />
        <path
           id="path87"
           d="m 255.858,94.562 h -19.626 v 5.305 h 19.562 v -5.305 z"
           inkscape:connector-curvature="0" />
        <path
           id="path89"
           d="m 243.434,180.123 -7.16,-12.401 -12.401,7.16 7.159,12.402 z"
           inkscape:connector-curvature="0" />
        <path
           id="path91"
           d="m 223.865,155.234 -9.781,-16.941 -4.539,2.621 9.781,16.941 z"
           inkscape:connector-curvature="0" />
        <path
           id="path93"
           d="m 243.434,199.693 9.781,16.941 4.539,-2.622 -9.781,-16.94 z"
           inkscape:connector-curvature="0" />
      </g>
      <path
         id="path97"
         d="m 259.579,291.595 c 0,-9.653 -7.8,-17.452 -17.452,-17.452 -9.653,0 -17.452,7.799 -17.452,17.452 0,9.653 7.799,17.451 17.452,17.451 0.511,0 1.023,0 1.534,-0.063 -0.064,-0.447 -0.064,-0.895 -0.064,-1.406 0,-0.512 0,-1.023 0.064,-1.535 -0.511,0.064 -1.023,0.064 -1.534,0.064 -8.055,0 -14.575,-6.52 -14.575,-14.575 0,-8.054 6.52,-14.575 14.575,-14.575 8.054,0 14.575,6.521 14.575,14.575 0,6.457 -4.219,11.955 -10.037,13.808 -0.127,0.703 -0.191,1.407 -0.191,2.174 v 0.895 c 7.543,-1.854 13.105,-8.694 13.105,-16.813"
         inkscape:connector-curvature="0"
         style="fill:#3a7fca" />
      <path
         id="path99"
         d="m 335.235,291.595 c 0,9.653 -7.799,17.451 -17.452,17.451 -9.141,0 -16.621,-7.031 -17.388,-15.916 1.023,0.127 2.045,0.319 3.004,0.638 1.024,7.033 7.096,12.403 14.384,12.403 8.055,0 14.575,-6.521 14.575,-14.576 0,-8.055 -6.52,-14.575 -14.575,-14.575 -7.735,0 -14.064,6.009 -14.511,13.616 -0.959,-0.255 -1.918,-0.383 -2.877,-0.511 0.703,-9.014 8.247,-16.046 17.388,-16.046 9.589,0.064 17.452,7.863 17.452,17.516"
         inkscape:connector-curvature="0"
         style="fill:#ed1e4a" />
      <path
         id="path101"
         d="m 298.862,293.015 c 7.287,0 13.36,5.369 14.383,12.401 0.958,0.319 1.982,0.511 3.004,0.639 -0.767,-8.949 -8.246,-15.917 -17.387,-15.917 -0.512,0 -1.024,0 -1.535,0.064 0.064,0.447 0.064,0.895 0.064,1.406 0,0.512 0,1.023 -0.064,1.534 0.511,-0.063 1.023,-0.127 1.535,-0.127 m 14.511,15.47 c -0.448,7.607 -6.776,13.616 -14.511,13.616 -8.055,0 -14.576,-6.52 -14.576,-14.575 0,-6.457 4.219,-11.954 10.037,-13.808 0.128,-0.703 0.128,-1.406 0.128,-2.173 v -0.896 c -7.543,1.918 -13.041,8.759 -13.041,16.877 0,9.653 7.799,17.452 17.452,17.452 9.205,0 16.684,-7.096 17.387,-16.046 -1.022,-0.064 -1.981,-0.192 -2.876,-0.447"
         inkscape:connector-curvature="0"
         style="fill:#2eaa46" />
      <path
         id="path103"
         d="m 259.491,293.101 c 0.064,-0.511 0.064,-1.023 0.064,-1.534 0,-0.448 0,-0.959 -0.064,-1.407 0.511,-0.063 1.022,-0.063 1.534,-0.063 9.141,0 16.621,6.967 17.388,15.917 -1.023,-0.128 -2.046,-0.319 -3.005,-0.639 -1.022,-7.032 -7.096,-12.402 -14.383,-12.402 z m 18.922,15.854 C 277.71,317.968 270.166,325 261.025,325 c -9.653,0 -17.452,-7.799 -17.452,-17.452 0,-8.119 5.562,-14.958 13.041,-16.876 v 0.895 c 0,0.767 -0.064,1.47 -0.192,2.173 -5.817,1.918 -10.036,7.352 -10.036,13.808 0,8.055 6.52,14.575 14.575,14.575 7.735,0 14.064,-6.009 14.511,-13.616 1.023,0.192 1.982,0.383 2.941,0.448"
         inkscape:connector-curvature="0"
         style="fill:#f8a91d" />
      <path
         id="path105"
         d="m 279.963,274.137 c -9.142,0 -16.685,7.095 -17.388,16.045 0.959,0.064 1.918,0.256 2.877,0.512 0.447,-7.608 6.775,-13.617 14.511,-13.617 8.054,0 14.511,6.521 14.511,14.576 0,6.456 -4.219,11.954 -10.036,13.807 -0.128,0.704 -0.192,1.407 -0.192,2.174 v 0.895 c 7.543,-1.918 13.041,-8.758 13.041,-16.876 0.127,-9.717 -7.736,-17.516 -17.324,-17.516 m 0,31.963 c -7.288,0 -13.361,-5.37 -14.383,-12.402 -0.959,-0.32 -1.982,-0.511 -3.005,-0.639 0.767,8.949 8.246,15.917 17.388,15.917 0.511,0 1.023,0 1.534,-0.064 -0.064,-0.447 -0.064,-0.894 -0.064,-1.406 0,-0.511 0,-1.022 0.064,-1.534 -0.511,0.128 -1.023,0.128 -1.534,0.128"
         inkscape:connector-curvature="0"
         style="fill:#211c1d" />
      <g
         id="g129"
         style="fill:#202b5a">
        <path
           id="path107"
           d="m 206.706,262.338 h -3.643 v -19.305 h -5.306 v -3.388 h 14.255 v 3.388 h -5.306 z"
           inkscape:connector-curvature="0" />
        <path
           id="path109"
           d="m 252.579,262.34 h -4.347 l -5.434,-9.781 -2.045,2.877 v 6.904 h -3.644 v -22.63 h 3.644 v 10.164 h 0.064 l 6.903,-10.228 h 4.156 l -6.649,9.844 z"
           inkscape:connector-curvature="0" />
        <path
           id="path111"
           d="m 264.842,262.338 h -3.644 v -9.78 l -6.009,-12.913 h 3.772 l 4.027,8.885 h 0.128 l 4.027,-8.885 h 3.771 l -6.008,12.913 v 9.78 z"
           inkscape:connector-curvature="0" />
        <path
           id="path113"
           d="m 309.868,262.338 h -12.721 v -3.26 l 0.063,-0.064 8.439,-10.867 c 0.383,-0.511 0.703,-1.087 0.703,-2.11 0,-1.853 -1.406,-2.94 -2.749,-2.94 -0.831,0 -1.534,0.256 -2.045,0.767 -0.512,0.511 -0.831,1.342 -0.896,2.557 v 0.191 h -3.515 v -0.191 c 0,-1.918 0.703,-3.772 1.854,-4.986 1.15,-1.215 2.62,-1.854 4.346,-1.854 1.918,0 3.517,0.639 4.667,1.854 1.215,1.214 1.79,2.812 1.79,4.73 0,1.598 -0.447,2.877 -1.598,4.347 l -6.393,8.311 0.064,0.063 h 7.991 z"
           inkscape:connector-curvature="0" />
        <path
           id="path115"
           d="m 345.126,262.338 h -12.722 v -3.26 l 0.064,-0.064 8.439,-10.867 c 0.383,-0.511 0.703,-1.087 0.703,-2.11 0,-1.853 -1.47,-2.94 -2.749,-2.94 -0.831,0 -1.534,0.256 -2.046,0.767 -0.511,0.511 -0.831,1.342 -0.894,2.557 v 0.191 h -3.517 v -0.191 c 0,-1.918 0.704,-3.772 1.854,-4.986 1.151,-1.215 2.621,-1.854 4.347,-1.854 1.982,0 3.516,0.639 4.667,1.854 1.214,1.214 1.79,2.812 1.79,4.73 0,1.598 -0.448,2.877 -1.598,4.347 l -6.393,8.311 0.064,0.063 h 7.991 z"
           inkscape:connector-curvature="0" />
        <path
           id="path117"
           d="m 280.618,262.488 c -4.154,0 -7.095,-2.876 -7.095,-6.904 v -9.333 c 0,-4.027 2.941,-6.84 7.095,-6.84 4.22,0 7.096,2.813 7.096,6.84 v 9.333 c 0,4.028 -3.004,6.904 -7.096,6.904 m 0,-19.433 c -2.109,0 -3.643,1.598 -3.643,3.772 v 8.182 c 0,2.365 1.47,3.964 3.643,3.964 2.174,0 3.644,-1.599 3.644,-3.964 v -8.182 c 0,-2.238 -1.534,-3.772 -3.644,-3.772"
           inkscape:connector-curvature="0" />
        <path
           id="path119"
           d="m 223.405,262.488 c -4.155,0 -7.096,-2.876 -7.096,-6.904 v -9.333 c 0,-4.027 2.941,-6.84 7.096,-6.84 4.219,0 7.096,2.813 7.096,6.84 v 9.333 c 0,4.028 -3.005,6.904 -7.096,6.904 m 0,-19.433 c -2.11,0 -3.644,1.598 -3.644,3.772 v 8.182 c 0,2.365 1.471,3.964 3.644,3.964 2.173,0 3.644,-1.599 3.644,-3.964 v -8.182 c 0,-2.238 -1.534,-3.772 -3.644,-3.772"
           inkscape:connector-curvature="0" />
        <path
           id="path121"
           d="m 321.405,262.488 c -2.366,0 -6.329,-1.406 -6.329,-6.584 v -9.844 c 0,-3.964 2.557,-6.585 6.329,-6.585 3.771,0 6.328,2.621 6.328,6.585 v 9.844 c 0,5.178 -3.963,6.584 -6.328,6.584 m 0,-19.433 c -2.366,0 -2.813,1.79 -2.813,3.324 v 9.269 c 0,2.238 0.959,3.325 2.813,3.325 1.918,0 2.812,-1.087 2.812,-3.325 v -9.269 c 0,-1.534 -0.447,-3.324 -2.812,-3.324"
           inkscape:connector-curvature="0" />
        <path
           id="path123"
           d="m 355.912,262.488 c -2.365,0 -6.329,-1.406 -6.329,-6.584 v -9.844 c 0,-3.964 2.557,-6.585 6.329,-6.585 3.772,0 6.328,2.621 6.328,6.585 v 9.844 c 0,5.178 -3.963,6.584 -6.328,6.584 m 0,-19.433 c -2.365,0 -2.813,1.79 -2.813,3.324 v 9.269 c 0,2.238 0.895,3.325 2.813,3.325 1.917,0 2.813,-1.087 2.813,-3.325 v -9.269 c 0,-1.534 -0.448,-3.324 -2.813,-3.324"
           inkscape:connector-curvature="0" />
        <path
           id="path125"
           d="m 335.157,206.333 h 1.662 v 4.219 h 0.576 v -4.219 h 1.662 v -0.384 h -3.836 v 0.384 z"
           inkscape:connector-curvature="0" />
        <path
           id="path127"
           d="m 343.097,205.886 -1.342,3.324 h -0.064 l -1.47,-3.324 h -0.639 v 4.666 h 0.447 v -3.643 l 1.279,2.94 h 0.575 l 1.214,-3.004 h 0.065 v 3.771 h 0.447 v -4.666 h -0.512 z"
           inkscape:connector-curvature="0" />
      </g>
    </g>
  </g>
</svg>
