<?xml version="1.0" encoding="utf-8"?>
<!-- Generator: Adobe Illustrator 23.1.1, SVG Export Plug-In . SVG Version: 6.00 Build 0)  -->
<svg version="1.1" id="Layer_1" xmlns="http://www.w3.org/2000/svg" xmlns:xlink="http://www.w3.org/1999/xlink" x="0px" y="0px"
	 viewBox="0 0 6480 4320" style="enable-background:new 0 0 6480 4320;" xml:space="preserve">
<style type="text/css">
	.st0{fill:#000066;}
	.st1{fill:#BD1021;}
	.st2{fill:#FFFFFF;}
	.st3{fill:#9C3900;stroke:#000000;stroke-width:1.72;stroke-linejoin:round;}
	.st4{fill:#FFC221;stroke:#000000;stroke-width:1.72;}
	.st5{fill:none;stroke:#000000;stroke-width:1.72;}
	.st6{fill:#FFFFFF;stroke:#000000;stroke-width:1.72;stroke-linejoin:round;}
	.st7{fill:#FFFFFF;stroke:#000000;stroke-width:1.72;}
	.st8{fill:none;stroke:#000000;stroke-width:1.1947;stroke-miterlimit:4.7788;}
</style>
<g>
	<rect x="11.1" class="st0" width="6457.8" height="4320"/>
	<path class="st1" d="M11.1,2160L6468.9,0v4320L11.1,2160z"/>
	<path class="st2" d="M703,2160L6468.9,231.5v3857.1"/>
	<g>
		<path class="st3" d="M5384.2,2644.4c0,0-40.3-44.1,7.3-115.2c-25.7-29.4-1.8-85.8-1.8-85.8s-44-22.1,1.8-112.8
			c-33-29.4-18.3-95.6-18.3-95.6s-108.1-53.9-5.5-105.4c-84.3,49-163.1-66.2-163.1-66.2l-122.8,4.9c-20.8-136.5-182.6-18-62.3-409.4
			c-31.2-7.4-66-19.6-100.8,14.7c-34.8,34.3-133.8,107.9-192.4,34.3c-58.6-73.6,38.5-179,40.3-181.4c1.8-2.5,130.1-90.7,148.4-149.6
			c-1.8-44.1-42.1-78.5-5.5-174.1c42.1-90.7,300.5-176.5,417.8-206c56.8-34.3,82.5-100.5,82.5-100.5l12.8,63.7
			c0,0,260.2-103,273-152c12.8-49,5.5,44.1,5.5,44.1c102.6-12.3,232.7-129.9,251.1-76C6038.4,754,6203.4,656,6203.4,656
			s56.8-2.5,16.5,80.9c25.7,53.9-7.3,100.5-9.2,100.5c-1.8,0,11,53.9-22,83.4c11,46.6-20.2,83.4-20.2,83.4s14.7,56.4-44,85.8
			c5.5,49-33,58.8-33,58.8s5.5,51.5-20.2,73.6c0,39.2-29.3,58.8-29.3,58.8s18.3,14.7-7.3,39.2c-25.6,24.5-291.4,242.7-291.4,240.3
			c0-2.5,194.2,46.6,207.1,56.4c12.8,9.8,159.4,139.8,159.4,139.8L5961.5,2002c0,0-164.9-24.5-172.2-12.3
			c-7.3,12.3,34.8,17.2,44,36.8c9.2,19.6,23.8,66.2,53.1,61.3c29.3-4.9-55,71.1-109.9,78.5c0,27,69.6,29.4,88,7.4
			c18.3-22.1-44,63.7-51.3,76s82.5-17.2,82.5-17.2s-14.7,80.9-93.5,105.4c31.1,68.7,18.3,112.8,16.5,112.8s-51.3-68.7-99-56.4
			c12.8,66.2,51.3,127.5,62.3,137.3c11,9.8-86.1,7.3-99-29.4c-12.8-36.8-23.8,88.3,11,127.5c-40.3,2.4-75.1-29.4-75.1-29.4
			s-23.8,73.6-7.3,110.3c16.5,36.8-56.8-73.6-56.8-73.6l-139.3,78.5L5384.2,2644.4L5384.2,2644.4z"/>
		<g>
			<path class="st4" d="M4307.9,2498.4c3.3,0,202.3-4.4,293.7-74.2c45.7,96.1,107.7,161.5,107.7,161.5l29.4-139.7
				c0,0,71.8,4.4,78.3,26.2c-9.8,26.2-13.1,61.1-13.1,61.1s49,4.4,52.2,13.1c3.3,8.7-13.1,83-13.1,83l208.9,65.5
				c0,0,16.3-109.1,32.6-96.1c16.3,13.1,88.1,148.4,189.3,157.2c101.2,8.7,107.7-113.5,107.7-113.5l22.8,17.5
				c0,0,42.4-122.2,49-122.2c6.5,0,16.3,17.5,71.8,17.5c16.3,26.2,22.8,87.3,22.8,87.3s-62,83-42.4,148.5c19.6,65.5,22.8,48,22.8,48
				l450.3,144.1c0,0,22.8,48-16.3,74.2c0,4.4-453.6-139.7-453.6-139.7s-42.4,65.5-75.1,52.4c-32.6-13.1-9.8,26.2-9.8,26.2
				l489.5,52.4c0,0,35.9,61.1,9.8,78.6c-32.6,4.4-528.7-43.7-528.7-43.7s-29.4,83-62,13.1c-22.8,48-49-13.1-49-13.1
				s-42.4,43.7-49-4.4c-35.9,34.9-58.7-21.8-58.7-21.8l-208.9-17.5L4954,3066c0,0,35.9,13.1-19.6,43.7
				c-55.5,30.6,332.9,17.5,342.6,21.8c9.8,4.4-26.1,43.7-26.1,43.7s199.1,17.5,235-39.3c35.9-56.8-13.1,74.2-13.1,74.2
				s156.6-8.7,156.6-17.5c0-8.7-3.3,65.5-111,56.8c65.3,56.8,146.8,91.7,146.8,91.7s-81.6,26.2-176.2-4.4
				c16.3,56.8,88.1,109.1,88.1,109.1s-52.2,61.1-169.7-87.3c32.6,78.6,6.5,109.2,3.3,100.4c-3.3-8.7-58.7-117.9-189.3-157.2
				c81.6,69.9,45.7,100.4,45.7,100.4s-42.4-100.4-111,0c-26.1-91.7-127.3-144.1-251.3-152.8c-39.2-61.1-62-43.7-153.4-78.6
				c-52.2-78.6-127.3-165.9-127.3-165.9s3.3-117.9,91.4-104.8c9.8,39.3,9.8,26.2,9.8,26.2s97.9-48,127.3,17.5
				c42.4-100.4,101.2-15,111,19.9c28.1,5.5,169.7,10.6,169.7,10.6s-16.3-39.3-6.5-34.9c9.8,4.4,88.1-39.3,84.8-52.4
				c-3.3-13.1-6.5-56.8,6.5-52.4c13.1,4.4-111-21.8-179.5,48c-22.8-30.6-6.5-113.5-6.5-113.5l-202.3-56.8l-9.8,69.9
				c0,0-58.7,13.1-55.5-4.4c3.3-17.5-13.1,61.1-13.1,61.1s-78.3-26.2-78.3-30.6c0-4.4,22.8-157.2,22.8-152.8
				c0,4.4-65.3,8.7-156.6,100.4C4513.4,2646.9,4307.9,2502.8,4307.9,2498.4L4307.9,2498.4z"/>
			<path class="st4" d="M4562.4,2140.4c0,0-137.1,157.2,0,248.9c6.5-61.1,16.3-69.9,16.3-69.9s114.2,56.8,182.7-78.6
				c-29.4-56.8-81.6-34.9-81.6-34.9S4572.2,2205.9,4562.4,2140.4L4562.4,2140.4z"/>
		</g>
		<path class="st5" d="M4676.7,2210.3l-94.6,109.1"/>
		<g>
			<path class="st6" d="M4566.9,2141.7L4566.9,2141.7c0,0,18.3-24.5,23.8-53.9c5.5-29.4-7.3-61.3,14.7-88.3
				c22-27,311.5-191.2,335.4-223.1c23.8-31.9,67.8-100.5,73.3-115.2c5.5-14.7,22,73.6-27.5,112.8c53.1-19.6,88-41.7,109.9-31.9
				c-22,41.7-80.6,110.3-108.1,110.3c64.1-31.9,122.8-58.8,139.3-41.7c16.5,17.2-78.8,103-117.3,107.9
				c64.1-22.1,150.3-56.4,161.3-19.6c-34.8,14.7-23.8,27-95.3,80.9c-9.2,9.8-55,12.3-55,12.3c55-7.4,130.1-36.8,137.4,17.2
				c-44,22.1-60.5,51.5-97.1,63.7c-36.7,12.3-120.9,34.3-172.3,61.3c-51.3,27-126.4,105.4-126.4,105.4s-163.1,7.4-163.1,4.9
				C4599.9,2242.2,4568.8,2144.1,4566.9,2141.7L4566.9,2141.7z"/>
			<path class="st7" d="M5965.1,1992.1l317,80.9c0,0,34.8-53.9,16.5-83.4c47.6-14.7,34.8-98.1,34.8-98.1s55-31.9,9.2-105.4
				c31.2-41.7-7.3-73.6-7.3-73.6s12.8-73.6-27.5-80.9c11-58.8-69.6-78.5-69.6-78.5s-166.8,61.3-284,66.2
				c38.5,51.5-14.7,83.4-14.7,83.4s31.2,29.4,22,53.9c-9.2,24.5,5.5,51.5-34.8,68.7c53.1,31.9-5.5,85.8-5.5,85.8
				S5979.8,1965.2,5965.1,1992.1L5965.1,1992.1z"/>
		</g>
		<g>
			<path class="st5" d="M4803.9,2537.7l-42.4,253.2"/>
			<path class="st5" d="M4843.1,2633.7l-13.1,83"/>
			<path class="st5" d="M5051.9,2699.2l-19.6,78.6"/>
			<path class="st5" d="M5414.1,3231.9c-3.3,0-104.4,17.5-117.5,13.1c-13.1-4.4,159.9,69.9,159.9,100.4"/>
			<path class="st5" d="M5231.4,3262.5c0,0-101.2-87.3-117.5-78.6c-16.3,8.7,101.2-4.4,111-17.5"/>
			<path class="st5" d="M5022.5,3162.1c0,0-104.4,4.4-114.2-8.7s101.2,96.1,120.7,87.3"/>
			<path class="st5" d="M4820.2,3100.9c-3.3,0-71.8-34.9-101.2-43.7c26.1,34.9,45.7,83,111,100.4"/>
			<path class="st5" d="M4846.3,3044.2c-3.3-8.7-130.5-61.1-130.5-87.3c29.4,13.1,71.8,30.6,111,17.5"/>
			<path class="st5" d="M5521.8,2843.3l-13.1,78.6"/>
			<path class="st5" d="M4968.1,2968.4c0,0,21.8,32.2,2.2,71.5"/>
			<path class="st5" d="M5427.2,3000.5l-35.9,4.4"/>
			<path class="st5" d="M5133.5,2974.3l65.3,13.1"/>
			<path class="st5" d="M5309.1,2749.8c0,0,1.8,88.3-53.1,85.8c-55-2.5-36.7,2.4-36.7,2.4"/>
			<path class="st5" d="M5351.2,2735c0,0,22,9.8,16.5,31.9c-5.5,22.1,5.5,85.8-58.6,147.1c-67.8,19.6-60.5-76-60.5-76"/>
			<path class="st5" d="M5375.1,2762c0,0,40.3-31.9,45.8,19.6c5.5,51.5-33,147.1-60.5,161.8c-27.5,14.7-58.6-2.5-55-27"/>
			<path class="st5" d="M5424.5,2784.1c0,0,36.7-39.2,47.6,12.3c11,51.5-29.3,166.7-45.8,169.2"/>
			<path class="st5" d="M5475.9,2796.3c0,0,18.3-12.3,31.1,2.4"/>
			<path class="st5" d="M5417.2,2972.9c-7.3,2.4-38.5,4.9-49.5-27"/>
			<path class="st5" d="M5252.3,2887.1c-1.8,0-38.5,2.5-38.5,2.5"/>
			<path class="st5" d="M5393.4,3080.8l-3.7-80.9l-14.7-27l-25.7,34.3c0,0-3.7,80.9-14.7,88.3"/>
			<path class="st5" d="M5349.4,3004.7c-1.8-4.9-20.2-51.5-20.2-51.5l-31.2,51.5c0,0-3.7,73.6-14.7,80.9"/>
			<path class="st5" d="M5298.1,3002.3c0-2.4-12.8-49-12.8-49s-36.6,27-40.3,46.6c-3.7,19.6-5.5,73.6-14.7,78.5"/>
			<path class="st5" d="M5244.9,2990c0,0,3.7-44.1-7.3-44.1c-11,0-60.5,61.3-62.3,115.2"/>
			<path class="st5" d="M4643.9,2124.6c0,0,1.8-49,18.3-66.2c16.5-17.2,99-58.8,117.3-95.6c18.3-36.8-27.5,63.7-20.2,90.7"/>
			<path class="st5" d="M4676.9,2051c0,0,40.3,19.6,31.2,61.3"/>
			<path class="st8" d="M4724.5,2079.2c0,22.3-13.5,40.5-30.2,40.5s-30.2-18.1-30.2-40.5c0-22.3,13.5-40.5,30.2-40.5
				S4724.5,2056.9,4724.5,2079.2z"/>
			<path class="st5" d="M5934,1901.4L5934,1901.4c0,0,280.4,44.1,293.2,44.1c12.8,0,62.3,22.1,71.5,44.1"/>
			<path class="st5" d="M5948.6,1879.4l390.3,12.3"/>
			<path class="st5" d="M5950.4,1867.1c0,0,370.2-29.4,395.8-80.9"/>
			<path class="st5" d="M5961.5,1759.2c0,0,372-53.9,375.7-46.6"/>
			<path class="st5" d="M5948.6,1697.9c0,0,361-76,364.7-63.7"/>
			<path class="st5" d="M4918.8,1386.5c0,0,113.6,166.7,102.6,279.5"/>
			<path class="st5" d="M5014.1,1577.8c0,0,36.6,71.1,51.3,78.5c14.7,7.4,142.9,17.2,150.3,90.7c7.3,46.6-27.5,31.9-22,66.2
				c9.2,44.1,95.3,100.5,188.7,34.3"/>
			<path class="st5" d="M5296.3,1881.8c0,0,77,152,190.6-12.3"/>
			<path class="st5" d="M5428.2,1935.8c0,0,93.5,66.2,170.4-105.4"/>
			<path class="st5" d="M5499.7,1950.5c0,0,45.8,51.5,141.1-17.2"/>
			<path class="st5" d="M5772.7,1864.7c0,0,141.1,39.2,150.3,51.5"/>
			<path class="st5" d="M5825.9,1823c1.8,0,99,4.9,99,4.9"/>
			<path class="st5" d="M5765.4,1749.4c0,0,168.6-14.7,190.6,31.9"/>
			<path class="st5" d="M5692.1,1678.3c0,0,236.4,12.3,247.4,29.4"/>
			<path class="st5" d="M5745.2,2002c0,0,40.3-14.7,45.8-7.3"/>
			<path class="st5" d="M5653.6,2134.3c0,0,53.1,61.3,121,34.3"/>
			<path class="st5" d="M5682.9,2237.3c0,0,60.5,36.8,131.9,14.7"/>
			<path class="st5" d="M5703.1,2298.6c0,0,60.5,53.9,100.8,44.1"/>
			<path class="st5" d="M5675.6,2330.5c0,0,42.1,41.7,44,63.7"/>
			<path class="st5" d="M5617,2379.5c0,0,12.8,88.3,58.6,120.1"/>
			<path class="st5" d="M5585.8,2418.8c0,0-20.2,115.2,31.2,186.3"/>
			<path class="st5" d="M5532.6,2509.5c0,2.4-3.7,53.9-1.8,58.8"/>
			<path class="st5" d="M5202.8,2063.2l99-7.4c0,0,36.6-19.6,11-51.5"/>
			<path class="st5" d="M5325.6,2033.9c1.8,0,93.5,9.8,117.3,46.6c23.8,36.8,53.1,110.3,69.6,122.6c16.5,12.3,20.2-4.9,20.2-4.9"/>
			<path class="st5" d="M5492.3,2178.5c0,0-49.5,112.8-11,147.1"/>
			<path class="st5" d="M5464.8,2303.5c0,0-44,78.5-9.2,117.7"/>
			<path class="st5" d="M5446.6,2411.4c0,0-34.8,76,7.3,127.5"/>
			<path class="st5" d="M5431.1,2209.8c-2.4,3.2-42.6,41.1-56.8,31.6"/>
			<path class="st5" d="M5388.6,2330c0,0,16.6,22.1,30.7,19"/>
			<path class="st5" d="M5390.5,2444.9l26.4,24.2"/>
			<path class="st5" d="M5394,2533l22.8,18.4"/>
			<path class="st5" d="M4980.2,1330.6c0,0,48.2,33.5,86.7,0c38.5-33.5,223.5-159.8,271.7-180.5c48.2-20.6,75.1-139.2,84.8-190.8"/>
			<path class="st5" d="M5386.8,1098.6l269.8-105.7c0,0,44.3-49,46.2-139.2"/>
			<path class="st5" d="M5683.5,951.6c0,0,269.8-36.1,269.8-170.2"/>
			<path class="st5" d="M5910.9,874.3c0,0,283.3-103.1,310.3-141.8"/>
			<path class="st5" d="M5120.9,1413.1c0,0,171.5-118.6,198.5-131.5c27-12.9,88.6-116-3.9-116"/>
			<path class="st5" d="M5203.7,1459.6c1.9,0,140.7-121.2,186.9-136.6c25.1-46.4,11.6-95.4-30.8-85.1"/>
			<path class="st5" d="M5402.2,1291.9c3.9-2.6,75.2-5.2,50.1,69.6c-36.6,36.1-194.6,141.8-194.6,141.8"/>
			<path class="st5" d="M5365.6,1212l300.6-134.1c0,0,25.1-69.6-11.6-79.9"/>
			<path class="st5" d="M5905.2,876.9c0,2.6,38.5,30.9,15.4,77.3c-42.4,33.5-242.8,98-242.8,98"/>
			<path class="st5" d="M6209.6,835.6l-283.2,105.7"/>
			<path class="st5" d="M6188.4,920.7l-246.7,100.6"/>
			<path class="st5" d="M6167.2,1003.2l-217.8,87.6"/>
			<path class="st5" d="M6126.7,1085.7c-5.8,0-161.9,64.5-161.9,64.5"/>
			<path class="st5" d="M6092.1,1150.2l-100.2,54.1"/>
			<path class="st5" d="M6067,1222.3c-3.9,0-86.7,49-86.7,49"/>
			<path class="st5" d="M6042,1281.7l-77.1,49"/>
			<path class="st5" d="M5909,1392.5c0,0,9.6,5.2,7.7,20.6"/>
			<path class="st5" d="M5714.4,1534.3c0,0,32.8,15.5,1.9,56.7c-15.4,28.4-59.7,20.6-86.7,72.2"/>
			<path class="st5" d="M5924.4,956.8c0,0,40.5,12.9,9.6,82.5c-80.9,41.3-244.7,108.3-244.7,108.3s-7.7,18-28.9,33.5
				c-21.2,15.5-254.4,103.1-254.4,103.1"/>
			<path class="st5" d="M5937.9,1036.7c0,0,44.3,25.8,0,69.6c-50.1,38.7-225.5,110.9-225.5,110.9s-1.9,20.6-9.6,28.4
				c-7.7,7.7-238.9,110.9-238.9,110.9"/>
			<path class="st5" d="M5949.5,1106.3c0,0,46.2,18,5.8,69.6c-48.2,38.7-202.3,108.3-202.3,108.3s-15.4,25.8-40.5,36.1
				c-25.1,10.3-185,98-185,98"/>
			<path class="st5" d="M5961,1175.9c13.5,7.7,50.1,15.5,5.8,61.9c-52,30.9-179.2,98-179.2,98l-11.6,28.4l-202.3,116"/>
			<path class="st5" d="M5972.6,1245.5c0,0,19.3,30.9-23.1,67c-46.2,33.5-146.4,85.1-146.4,85.1"/>
			<path class="st5" d="M5949.5,1317.7c0,0,21.2,18-5.8,43.8c-30.8,20.6-152.2,105.7-152.2,105.7l-79,69.6"/>
			<path class="st5" d="M5672,1080.5c0,2.6,32.8,38.7,21.2,79.9c28.9,28.4,23.1,59.3,23.1,59.3s40.5,30.9,34.7,74.8
				c40.5,12.9,38.5,43.8,38.5,43.8l-13.5,28.4c0,0,40.5-2.6,5.8,67c21.2,15.5,11.6,33.5,11.6,33.5"/>
			<path class="st5" d="M5781.8,1436.3c-5.8,0-140.7,67-175.4,108.3"/>
			<path class="st5" d="M5456.2,1356.4c0,0,40.5-2.6,34.7,56.7c46.2-20.6,36.6,38.7,36.6,38.7s54-28.4,44.3,61.9
				c34.7-10.3,28.9,36.1,28.9,36.1s30.8-2.6,30.8,20.6c21.2-25.8,44.3-12.9,44.3-12.9s15.4-28.4,36.6-20.6"/>
			<path class="st5" d="M5492.8,1410.6c0,5.2-181.1,139.2-181.1,139.2"/>
			<path class="st5" d="M5527.5,1454.4l-136.8,113.4"/>
			<path class="st5" d="M5573.7,1511c0,2.6-119.5,95.4-119.5,95.4"/>
			<path class="st5" d="M5600.7,1547.2c0,0-84.8,92.8-104.1,87.7"/>
			<path class="st5" d="M5629.6,1575.5c0,0-48.2,49-88.6,72.2"/>
			<path class="st5" d="M5679.7,1554.9c0,0,15.4,25.8-80.9,92.8"/>
		</g>
	</g>
</g>
</svg>
