<?xml version="1.0" encoding="utf-8"?>
<!-- Generator: Adobe Illustrator 23.1.1, SVG Export Plug-In . SVG Version: 6.00 Build 0)  -->
<svg version="1.1" id="Countryflags.com" xmlns="http://www.w3.org/2000/svg" xmlns:xlink="http://www.w3.org/1999/xlink" x="0px"
	 y="0px" viewBox="103.9 646.5 281.1 187.4" style="enable-background:new 103.9 646.5 281.1 187.4;" xml:space="preserve">
<style type="text/css">
	.st0{fill:#74ACDF;}
	.st1{fill:#FFFFFF;}
	.st2{fill:#F6B40E;stroke:#85340A;stroke-width:0.4169;}
	.st3{fill:#85340A;}
	.st4{fill:#F6B40E;stroke:#85340A;stroke-width:0.5625;}
	.st5{fill:#843511;}
</style>
<g>
	<rect id="_x35_0" x="103.9" y="646.5" class="st0" width="281.1" height="187.5"/>
	<rect id="_x34_9" x="103.9" y="709" class="st1" width="281.1" height="62.5"/>
	<path id="_x34_8" class="st2" d="M243.6,739.3l-16.3,18.8c0,0-0.3,0.3-0.1,0.6c0.2,0.2,0.5-0.1,0.5-0.1l17.6-17.4 M237.4,744.4
		c-3.1,1.2-4,4-6.8,4.9c-2.8,0.9-3.8,3.2-4.7,4.1c-0.9,0.8-1.9,0.3-1.9,0.7c0,0.4,1.1,0.8,2.5-0.1c1.4-0.9,1.4-2.3,4.8-3.5
		c3.5-1.2,3.6-3.3,6.8-4.2"/>
	<path id="_x34_7" class="st2" d="M243.4,739.8l-8.3,24c0,0-0.2,0.4,0.1,0.6c0.3,0.1,0.4-0.3,0.4-0.3l10-23.2 M239.4,747
		c-2.4,2.4-2.3,5.3-4.6,7.4c-2.3,2-2.3,4.5-2.9,5.7c-0.5,1.2-1.6,1.1-1.5,1.5c0.1,0.4,1.3,0.3,2.3-1.2c1-1.4,0.5-2.7,3.2-5.2
		c2.8-2.5,2.1-4.5,4.7-6.6"/>
	<path id="_x34_6" class="st2" d="M243.4,740.7l10,23.2c0,0,0.2,0.4,0.4,0.3c0.3-0.1,0.1-0.6,0.1-0.6l-8.3-24 M245.4,748.8
		c-0.1,3.5,1.9,5.5,1.6,8.6c-0.3,3.2,1.4,4.9,1.7,6.2c0.4,1.2-0.4,2-0.1,2.1c0.3,0.2,1.1-0.8,0.8-2.5c-0.2-1.7-1.5-2.3-1.2-6.1
		c0.3-3.9-1.5-4.8-1-8.3"/>
	<path id="_x34_5" class="st2" d="M243.3,740.3l0.9,25.6c0,0,0,0.5,0.3,0.5c0.3,0,0.3-0.5,0.3-0.5l0.9-25.6 M242.2,748.5
		c-1.4,3.2-0.2,5.8-1.6,8.7c-1.4,2.8-0.5,5.1-0.6,6.4c-0.1,1.3-1.1,1.6-0.8,1.9c0.2,0.3,1.3-0.3,1.7-2c0.4-1.7-0.6-2.7,1.1-6.1
		c1.7-3.4,0.3-5,2-8.1"/>
	<path id="_x34_4" class="st2" d="M244.5,739l-24,1c0,0-0.5,0-0.5,0.3c0,0.3,0.5,0.3,0.5,0.3l24,1 M236.8,737.8
		c-3-1.5-5.5-0.2-8.1-1.7c-2.6-1.5-4.8-0.6-6-0.6c-1.2-0.1-1.5-1.2-1.8-0.9c-0.3,0.3,0.3,1.4,1.9,1.8c1.6,0.4,2.5-0.6,5.8,1.2
		c3.2,1.8,4.7,0.4,7.6,2.1"/>
	<path id="_x34_3" class="st2" d="M245,739.1l-22.5-8.9c0,0-0.4-0.2-0.5,0.1c-0.1,0.3,0.3,0.5,0.3,0.5l21.8,10.7 M238.2,734.9
		c-2.3-2.6-5-2.4-6.9-4.9c-1.9-2.4-4.2-2.5-5.3-3.1c-1.1-0.6-1-1.7-1.4-1.6c-0.4,0.1-0.2,1.4,1.1,2.4c1.3,1.1,2.5,0.5,4.9,3.4
		c2.3,2.9,4.2,2.2,6.2,5.1"/>
	<path id="_x34_2" class="st2" d="M245.3,739.3l-17.6-17.4c0,0-0.3-0.3-0.5-0.1c-0.2,0.2,0.1,0.6,0.1,0.6l16.3,18.8 M240.6,732.7
		c-1.2-3.3-3.7-4.3-4.6-7.3c-0.9-3-3-4-3.8-5c-0.8-1-0.3-2-0.7-2c-0.4,0-0.7,1.2,0.1,2.7c0.8,1.5,2.2,1.5,3.3,5.2
		c1.1,3.7,3.1,3.8,3.9,7.2"/>
	<path id="_x34_1" class="st3" d="M237.2,745.2c-2.9,1.5-3.5,3.8-6.3,4.6c2.4-0.2,3.3-2.7,6.5-4 M244,739.8l-11.2,12.9l12.1-12"/>
	<path id="_x34_0" class="st3" d="M242.6,749.3c-1.1,3.2,0.1,5.3-1.4,8c1.6-1.9,0.5-4.5,1.9-7.8 M243.9,740.3l0.6,17.5l0.6-17.5"/>
	<path id="_x33_9" class="st3" d="M239.5,747.9c-2.1,2.5-1.9,4.9-4.2,6.9c2.2-1.1,2.1-3.9,4.6-6.4 M243.9,740l-5.7,16.5l6.8-16"/>
	<path id="_x33_8" class="st2" d="M244,739.1l-21.8,10.7c0,0-0.4,0.2-0.3,0.5c0.1,0.3,0.5,0.1,0.5,0.1l22.5-8.9 M236.5,741.2
		c-3.3-0.1-5.1,2-8.1,1.8c-3-0.3-4.6,1.5-5.8,1.9c-1.2,0.4-1.8-0.4-2-0.1c-0.2,0.4,0.7,1.2,2.4,0.9c1.6-0.3,2.1-1.6,5.7-1.3
		c3.6,0.3,4.5-1.6,7.8-1.1"/>
	<path id="_x33_7" class="st3" d="M235.9,741.9c-3.2,0.2-4.6,2.1-7.5,1.7c2.3,0.8,4.1-1.2,7.5-1.1 M244.2,739.7l-15,7.3l15.4-6.1"/>
	<path id="_x33_6" class="st3" d="M236,738.2c-3-1.1-5,0.1-7.5-1.5c1.8,1.7,4.2,0.6,7.3,2.1 M244.5,739.6l-16.4,0.6l16.4,0.6"/>
	<path id="_x33_5" class="st3" d="M237.4,734.9c-2.4-2.3-4.6-2-6.4-4.4c1.1,2.3,3.7,2.2,6,4.9 M244.7,739.6l-15.4-6.1l15,7.3"/>
	<path id="_x33_4" class="st3" d="M239.8,732.4c-1.4-3.1-3.6-3.7-4.4-6.7c0.2,2.6,2.6,3.6,3.8,6.9 M244.9,739.8l-12.1-12l11.2,12.9"
		/>
	<path id="_x33_3" class="st2" d="M245.6,739.8l-10-23.2c0,0-0.2-0.4-0.4-0.3c-0.3,0.1-0.1,0.6-0.1,0.6l8.3,24 M243.6,731.7
		c0.1-3.5-1.9-5.5-1.6-8.6c0.3-3.2-1.4-4.9-1.7-6.2c-0.4-1.2,0.4-2,0.1-2.1c-0.3-0.2-1.1,0.8-0.8,2.5c0.2,1.7,1.5,2.3,1.2,6.1
		c-0.3,3.9,1.5,4.8,1,8.3"/>
	<path id="_x33_2" class="st2" d="M245.7,740.2l-0.9-25.6c0,0,0-0.5-0.3-0.5c-0.3,0-0.3,0.5-0.3,0.5l-0.9,25.6 M246.8,732
		c1.4-3.2,0.2-5.8,1.6-8.7c1.4-2.8,0.5-5.1,0.6-6.4s1.1-1.6,0.8-1.9c-0.2-0.3-1.3,0.3-1.7,2c-0.4,1.7,0.6,2.7-1.1,6.1
		c-1.7,3.4-0.3,5-2,8.1"/>
	<path id="_x33_1" class="st2" d="M245.6,740.7l8.3-24c0,0,0.2-0.4-0.1-0.6c-0.3-0.1-0.4,0.3-0.4,0.3l-10,23.2 M249.6,733.5
		c2.4-2.4,2.3-5.3,4.6-7.4c2.3-2,2.3-4.5,2.9-5.7c0.5-1.2,1.6-1.1,1.5-1.5c-0.1-0.4-1.3-0.3-2.3,1.2c-1,1.4-0.5,2.7-3.2,5.2
		c-2.8,2.5-2.1,4.5-4.7,6.6"/>
	<path id="_x33_0" class="st2" d="M245.4,741.2l16.3-18.8c0,0,0.3-0.3,0.1-0.6c-0.2-0.2-0.5,0.1-0.5,0.1l-17.6,17.4 M251.6,736.1
		c3.1-1.2,4-4,6.8-4.9c2.8-0.9,3.8-3.2,4.7-4.1c0.9-0.8,1.9-0.3,1.9-0.7c0-0.4-1.1-0.8-2.5,0.1c-1.4,0.9-1.4,2.3-4.8,3.5
		c-3.5,1.2-3.6,3.3-6.8,4.2"/>
	<path id="_x32_9" class="st2" d="M243.7,741.2l17.6,17.4c0,0,0.3,0.3,0.5,0.1c0.2-0.2-0.1-0.6-0.1-0.6l-16.3-18.8 M248.4,747.8
		c1.2,3.3,3.7,4.3,4.6,7.3c0.9,3,3,4,3.8,5s0.3,2,0.7,2c0.4,0,0.7-1.2-0.1-2.7c-0.8-1.5-2.2-1.5-3.3-5.2c-1.1-3.7-3.1-3.8-3.9-7.2"
		/>
	<path id="_x32_8" class="st2" d="M244.5,741.5l24-1c0,0,0.5,0,0.5-0.3c0-0.3-0.5-0.3-0.5-0.3l-24-1 M252.2,742.7
		c3,1.5,5.5,0.2,8.1,1.7c2.6,1.5,4.8,0.6,6,0.7c1.2,0.1,1.5,1.2,1.8,0.9c0.3-0.3-0.3-1.4-1.9-1.8c-1.6-0.4-2.5,0.6-5.8-1.2
		s-4.7-0.4-7.6-2.1"/>
	<path id="_x32_7" class="st2" d="M244,741.4l22.5,8.9c0,0,0.4,0.2,0.5-0.1s-0.3-0.5-0.3-0.5L245,739.1 M250.8,745.6
		c2.3,2.6,5,2.4,6.9,4.9c1.9,2.4,4.2,2.5,5.3,3.1c1.1,0.6,1,1.7,1.4,1.6c0.4-0.1,0.2-1.4-1.1-2.4c-1.3-1.1-2.5-0.5-4.9-3.4
		c-2.3-2.9-4.2-2.2-6.2-5.1"/>
	<path id="_x32_6" class="st3" d="M246.4,731.2c1.1-3.2-0.1-5.3,1.4-8c-1.6,1.9-0.5,4.5-1.9,7.8 M245.1,740.2l-0.6-17.5l-0.6,17.5"
		/>
	<path id="_x32_5" class="st3" d="M249.5,732.6c2.1-2.5,1.9-4.9,4.2-6.9c-2.2,1.1-2.1,3.9-4.6,6.4 M245.1,740.5l5.7-16.5l-6.8,16"/>
	<path id="_x32_4" class="st3" d="M251.8,735.3c2.9-1.5,3.5-3.8,6.3-4.6c-2.4,0.2-3.3,2.7-6.5,4 M245,740.7l11.2-12.9l-12.1,12"/>
	<path id="_x32_3" class="st3" d="M243,731.1c-0.2-3.4-2-4.9-1.6-8c-0.8,2.4,1.1,4.3,1,8 M245.1,740l-6.8-16l5.7,16.5"/>
	<path id="_x32_2" class="st2" d="M245,741.4l21.8-10.7c0,0,0.4-0.2,0.3-0.5c-0.1-0.3-0.5-0.1-0.5-0.1l-22.5,8.9 M252.5,739.3
		c3.3,0.1,5.1-2,8.1-1.8c3,0.3,4.6-1.5,5.8-1.9c1.2-0.4,1.8,0.4,2,0.1c0.2-0.4-0.7-1.2-2.4-0.9c-1.6,0.3-2.1,1.6-5.7,1.3
		c-3.6-0.3-4.5,1.6-7.8,1.1"/>
	<path id="_x32_1" class="st3" d="M253.1,738.6c3.2-0.2,4.6-2.1,7.5-1.7c-2.3-0.8-4.1,1.2-7.5,1.1 M244.8,740.8l15-7.3l-15.4,6.1"/>
	<path id="_x32_0" class="st3" d="M253,742.3c3,1.1,5-0.1,7.5,1.5c-1.8-1.7-4.2-0.6-7.3-2.1 M244.5,740.9l16.4-0.6l-16.4-0.6"/>
	<path id="_x31_9" class="st3" d="M251.6,745.6c2.4,2.3,4.6,2,6.4,4.4c-1.1-2.3-3.7-2.2-6-4.9 M244.3,740.9l15.4,6.1l-15-7.3"/>
	<path id="_x31_8" class="st3" d="M249.2,748.1c1.4,3.1,3.6,3.7,4.4,6.7c-0.2-2.6-2.6-3.6-3.8-6.9 M244.1,740.7l12.1,12l-11.2-12.9"
		/>
	<path id="_x31_7" class="st3" d="M246,749.4c0.2,3.4,2,4.9,1.6,8c0.8-2.4-1.1-4.3-1-8 M243.9,740.5l6.8,16l-5.7-16.5"/>
	<path id="_x31_6" class="st4" d="M244.5,729.8c5.4,0,9.8,4.7,9.8,10.4c0,5.8-4.4,10.4-9.8,10.4c-5.4,0-9.8-4.7-9.8-10.4
		C234.7,734.5,239.1,729.8,244.5,729.8z"/>
	<path id="_x31_5" class="st5" d="M247.8,738c-0.7,0-1.3,0.3-1.7,0.9c0.8,0.7,2.4,0.8,3.5-0.1C249.2,738.3,248.5,738,247.8,738
		L247.8,738z M247.8,738.2c0.6,0,1.3,0.3,1.3,0.6c-0.8,0.9-2,0.8-2.7,0.2C246.8,738.4,247.3,738.2,247.8,738.2L247.8,738.2z"/>
	<path id="_x31_4" class="st3" d="M248,737.5c-1,0-1.2,0.2-1.7,0.6c-0.5,0.4-0.7,0.3-0.8,0.4s0,0.3,0.1,0.2c0.1-0.1,0.5-0.2,0.9-0.6
		c0.5-0.4,0.9-0.4,1.4-0.4c1.4,0,2.1,1.2,2.3,1.1C250.4,738.8,249.5,737.5,248,737.5L248,737.5z"/>
	<path id="_x31_3" class="st3" d="M250.7,738c-1.7-1.6-3.9-1.8-5.1-0.6c-0.3,0.4-0.5,0.9-0.6,1.3c-0.2,0.9,0.1,1.9,0.8,2.9
		c-0.1,0-0.2,0.1-0.3,0.2c-0.6-1.2-0.8-2.5-0.6-3.7c0.1-0.3,0.1-0.6,0.2-0.9C246.8,735.8,249,735.6,250.7,738L250.7,738z"/>
	<path id="_x31_2" class="st3" d="M247.8,738.1c0.4,0,0.7,0.3,0.7,0.7c0,0.4-0.3,0.7-0.7,0.7c-0.4,0-0.7-0.3-0.7-0.7
		C247.1,738.4,247.4,738.1,247.8,738.1z"/>
	<path id="_x31_1" class="st3" d="M249.8,739.3c-1.3,1-2.6,1-3.3,0.5s-0.8-0.6-0.6-0.6c0.1,0,0.3,0.2,0.9,0.5
		C247.4,739.9,248.3,739.9,249.8,739.3L249.8,739.3z"/>
	<path id="_x31_0" class="st3" d="M243,741.7c-0.3,0.1-0.5,0.4-0.5,0.7c0,0.4,0.3,0.7,0.7,0.7c0.2,0,0.4-0.1,0.5-0.3
		c0.3,0.2,0.6,0.2,0.8,0.2c0,0,0.1,0,0.1,0c0.2,0,0.6,0,0.8-0.2c0.1,0.2,0.3,0.3,0.5,0.3c0.4,0,0.7-0.3,0.7-0.7
		c0-0.3-0.2-0.7-0.5-0.7c0.2,0.1,0.3,0.3,0.3,0.5c0,0.3-0.2,0.5-0.5,0.5c-0.2,0-0.4-0.2-0.5-0.5c-0.1,0.2-0.4,0.6-0.9,0.6
		c-0.6,0-0.9-0.5-0.9-0.6c0,0.3-0.2,0.5-0.5,0.5c-0.2,0-0.5-0.2-0.5-0.5C242.7,741.9,242.8,741.8,243,741.7L243,741.7z"/>
	<path id="_x39_" class="st3" d="M243.7,743.8c-0.8,0-1,0.7-1.7,1.2c0.4-0.2,0.7-0.5,1.2-0.8c0.5-0.3,1,0.1,1.3,0.1h0
		c0.3,0,0.7-0.4,1.3-0.1c0.5,0.3,0.8,0.6,1.2,0.8c-0.7-0.5-1-1.2-1.7-1.2c-0.1,0-0.4,0.1-0.7,0.2h0
		C244.2,743.9,243.9,743.8,243.7,743.8z"/>
	<path id="_x38_" class="st3" d="M243.5,744.8c-0.3,0-0.7,0.1-1.3,0.3c1.4-0.3,1.7,0.2,2.3,0.2h0c0.6,0,0.9-0.5,2.3-0.2
		c-1.5-0.5-1.8-0.2-2.3-0.2h0C244.2,744.9,244,744.7,243.5,744.8L243.5,744.8z"/>
	<path id="_x37_" class="st3" d="M242.3,745c-0.1,0-0.2,0-0.3,0c1.6,0.2,0.8,1.1,2.5,1.1h0c1.7,0,0.9-1,2.5-1.1
		c-1.7-0.2-1.1,0.9-2.5,0.9h0C243.2,745.9,243.6,745,242.3,745L242.3,745z"/>
	<path id="_x36_" class="st3" d="M245.9,747.6c0-0.8-0.6-1.4-1.4-1.4c-0.7,0-1.4,0.6-1.4,1.4c0.1-0.7,0.7-1.1,1.4-1.1
		C245.1,746.5,245.7,747,245.9,747.6L245.9,747.6L245.9,747.6z"/>
	<path id="_x35_" class="st3" d="M238.4,738c1.7-1.6,3.9-1.8,5.1-0.6c0.3,0.4,0.5,0.9,0.6,1.3c0.2,0.9-0.1,1.9-0.8,2.9
		c0.1,0,0.2,0.1,0.3,0.2c0.6-1.2,0.8-2.5,0.6-3.7c-0.1-0.3-0.1-0.6-0.2-0.9C242.3,735.8,240.1,735.6,238.4,738L238.4,738z"/>
	<path id="_x34_" class="st3" d="M241.1,737.5c1,0,1.2,0.2,1.7,0.6c0.5,0.4,0.7,0.3,0.8,0.4s0,0.3-0.1,0.2c-0.1-0.1-0.5-0.2-0.9-0.6
		c-0.5-0.4-0.9-0.4-1.4-0.4c-1.4,0-2.1,1.2-2.3,1.1C238.7,738.8,239.6,737.5,241.1,737.5L241.1,737.5z"/>
	<path id="_x33_" class="st5" d="M241.1,738c-0.7,0-1.3,0.3-1.7,0.9c0.8,0.7,2.4,0.8,3.5-0.1C242.5,738.3,241.8,738,241.1,738
		L241.1,738z M241.1,738.2c0.6,0,1.3,0.3,1.3,0.6c-0.8,0.9-2,0.8-2.7,0.2C240,738.4,240.6,738.2,241.1,738.2L241.1,738.2z"/>
	<path id="_x32_" class="st3" d="M241.2,738.1c0.4,0,0.7,0.3,0.7,0.7c0,0.4-0.3,0.7-0.7,0.7c-0.4,0-0.7-0.3-0.7-0.7
		C240.5,738.4,240.8,738.1,241.2,738.1z"/>
	<path id="_x31_" class="st3" d="M239.3,739.3c1.3,1,2.6,1,3.3,0.5s0.8-0.6,0.6-0.6c-0.1,0-0.3,0.2-0.9,0.5
		C241.7,739.9,240.8,739.9,239.3,739.3L239.3,739.3z"/>
</g>
</svg>
