<?xml version="1.0" encoding="UTF-8" standalone="no"?>
<!-- Generator: Adobe Illustrator 19.1.0, SVG Export Plug-In . SVG Version: 6.00 Build 0)  -->

<svg
   xmlns:ns="&amp;ns_sfw;"
   xmlns:dc="http://purl.org/dc/elements/1.1/"
   xmlns:cc="http://creativecommons.org/ns#"
   xmlns:rdf="http://www.w3.org/1999/02/22-rdf-syntax-ns#"
   xmlns:svg="http://www.w3.org/2000/svg"
   xmlns="http://www.w3.org/2000/svg"
   xmlns:sodipodi="http://sodipodi.sourceforge.net/DTD/sodipodi-0.dtd"
   xmlns:inkscape="http://www.inkscape.org/namespaces/inkscape"
   version="1.1"
   id="Countryflags.com"
   x="0px"
   y="0px"
   viewBox="414.5 756.5 225 150"
   enable-background="new 414.5 756.5 300 150"
   xml:space="preserve"
   sodipodi:docname="brunei-flag.svg"
   width="225"
   height="150"
   inkscape:version="0.92.4 (5da689c313, 2019-01-14)"><defs
   id="defs81">
	
	

		
	</defs><sodipodi:namedview
   pagecolor="#ffffff"
   bordercolor="#666666"
   borderopacity="1"
   objecttolerance="10"
   gridtolerance="10"
   guidetolerance="10"
   inkscape:pageopacity="0"
   inkscape:pageshadow="2"
   inkscape:window-width="1920"
   inkscape:window-height="1017"
   id="namedview79"
   showgrid="false"
   fit-margin-top="0"
   fit-margin-left="0"
   fit-margin-right="0"
   fit-margin-bottom="0"
   inkscape:zoom="0.94666667"
   inkscape:cx="39.084507"
   inkscape:cy="314.25756"
   inkscape:window-x="-8"
   inkscape:window-y="-8"
   inkscape:window-maximized="1"
   inkscape:current-layer="Countryflags.com" />
<metadata
   id="metadata92">
	<rdf:RDF>
		<cc:Work
   rdf:about="">
			<dc:format>image/svg+xml</dc:format>
			<dc:type
   rdf:resource="http://purl.org/dc/dcmitype/StillImage" />
			<dc:title></dc:title>
		</cc:Work>
	</rdf:RDF>
	<ns:sfw>
		<ns:slices />
		<ns:sliceSourceBounds
   height="150"
   width="300"
   bottomLeftOrigin="true"
   y="-150"
   x="0" />
	</ns:sfw>
</metadata>


<g
   id="g307"
   transform="matrix(0.75,0,0,1,103.625,0)"><rect
     style="fill:#f7e017"
     height="150"
     width="300"
     y="756.5"
     x="414.5"
     id="_x36_7" /><polygon
     style="fill:#ffffff"
     points="414.5,766.917 714.5,829.416 714.5,864.833 414.5,802.333 "
     id="_x36_6" /><polygon
     points="414.5,802.333 714.5,864.833 714.5,896.083 414.5,833.583 "
     id="_x36_5" /><path
     style="fill:#cf1126"
     inkscape:connector-curvature="0"
     d="m 559.447,875.191 c -4.035,-0.534 -7.732,-1.819 -10.302,-3.578 -0.498,-0.341 -0.965,-0.62 -1.039,-0.62 -0.074,0 -0.134,0.378 -0.135,0.847 -10e-4,1.329 -0.535,1.996 -1.877,2.344 -1.283,0.333 -3.241,-0.339 -4.828,-1.656 -1.644,-1.364 -3.542,-2.405 -5.148,-2.823 -1.323,-0.344 -3.078,-0.289 -4.348,0.136 -0.589,0.198 -1.261,0.477 -1.494,0.62 -0.232,0.143 -0.491,0.261 -0.576,0.261 -0.225,0 -0.193,-1.428 0.043,-1.883 0.31,-0.599 1.075,-1.188 1.965,-1.512 0.45,-0.164 0.819,-0.376 0.819,-0.47 0,-0.094 -0.152,-0.437 -0.337,-0.761 -0.605,-1.058 -0.357,-2.083 0.698,-2.888 1.08,-0.825 2.906,-0.967 4.521,-0.353 0.407,0.155 0.786,0.281 0.841,0.281 0.212,0 0.082,-0.296 -0.502,-1.15 -0.676,-0.988 -0.81,-1.475 -0.725,-2.649 0.108,-1.489 1.321,-2.705 2.806,-2.812 1.213,-0.088 1.968,0.319 3.756,2.024 5.345,5.096 11.155,7.904 17.932,8.665 1.71,0.192 5.151,0.089 7.17,-0.215 6.098,-0.918 12.242,-3.984 17.04,-8.504 1.329,-1.252 1.968,-1.583 3.058,-1.588 0.948,-0.003 1.612,0.302 2.29,1.053 0.62,0.686 0.829,1.339 0.763,2.382 -0.043,0.67 -0.152,0.998 -0.55,1.646 -0.588,0.957 -0.488,1.045 0.674,0.594 1.571,-0.611 3.506,-0.329 4.551,0.663 0.919,0.872 1.006,1.745 0.293,2.93 -0.261,0.433 -0.474,0.84 -0.474,0.904 0,0.119 0.198,0.175 1.151,0.328 1.248,0.2 1.964,1.129 1.964,2.545 0,0.424 -0.053,0.77 -0.117,0.77 -0.064,0 -0.537,-0.173 -1.05,-0.385 -1.456,-0.6 -2.283,-0.755 -3.981,-0.745 -1.295,0.008 -1.741,0.069 -2.642,0.363 -1.383,0.451 -2.86,1.322 -4.064,2.396 -1.326,1.183 -2.161,1.556 -3.454,1.545 -1.2,-0.011 -2.02,-0.361 -2.453,-1.046 -0.232,-0.366 -0.264,-0.59 -0.208,-1.417 0.037,-0.54 0.03,-0.982 -0.015,-0.982 -0.045,0 -0.513,0.297 -1.039,0.66 -1.382,0.952 -2.265,1.422 -3.848,2.048 -4.826,1.913 -11.794,2.739 -17.129,2.032 z"
     id="_x36_4" /><path
     style="fill:#ffcc00"
     inkscape:connector-curvature="0"
     d="m 581.734,868.947 c 0.86,-0.438 1.985,-1.585 2.447,-2.491 0.368,-0.722 0.419,-0.971 0.463,-2.235 0.041,-1.165 0.006,-1.508 -0.192,-1.897 -0.221,-0.435 -0.291,-0.474 -0.846,-0.474 -0.536,0 -0.639,0.052 -0.915,0.46 -0.397,0.589 -0.437,1.86 -0.073,2.309 0.227,0.281 0.259,0.284 0.741,0.083 0.67,-0.28 0.783,-0.266 0.782,0.094 -0.004,0.92 -1.322,2.692 -2.705,3.635 -0.372,0.254 -0.706,0.538 -0.742,0.632 -0.1,0.262 0.411,0.205 1.04,-0.116 z"
     id="_x36_3" /><path
     style="fill:#ffd42a"
     inkscape:connector-curvature="0"
     d="m 562.635,873.962 c 0.832,-0.275 1.305,-0.778 1.645,-1.749 0.169,-0.484 0.284,-0.987 0.254,-1.118 -0.071,-0.31 -0.429,-0.294 -0.825,0.036 -0.271,0.226 -0.304,0.342 -0.226,0.803 0.197,1.168 -0.217,1.458 -2.427,1.695 -0.218,0.023 -0.852,-0.014 -1.409,-0.083 -1.05,-0.13 -1.425,-0.026 -1.044,0.289 0.115,0.096 0.408,0.225 0.649,0.287 0.587,0.151 2.751,0.049 3.383,-0.16 z"
     id="_x36_2" /><path
     style="fill:#ffd42a"
     inkscape:connector-curvature="0"
     d="m 567.212,873.768 c 0.125,-0.113 0.555,-0.311 0.954,-0.44 0.533,-0.172 0.808,-0.356 1.033,-0.69 0.649,-0.965 0.528,-1.796 -0.425,-2.918 -0.516,-0.608 -0.746,-0.591 -1.158,0.084 -0.356,0.584 -0.348,0.621 0.165,0.754 0.268,0.07 0.526,0.267 0.668,0.512 0.559,0.965 0.394,1.564 -0.432,1.57 -0.751,0.006 -0.957,0.112 -1.16,0.598 -0.105,0.251 -0.191,0.52 -0.191,0.597 10e-4,0.204 0.285,0.17 0.546,-0.067 z"
     id="_x36_1" /><path
     style="fill:#ffd42a"
     inkscape:connector-curvature="0"
     d="m 565.711,872.677 c 0.141,-0.384 0.19,-1.073 0.175,-2.479 -0.011,-1.071 -0.054,-1.981 -0.094,-2.021 -0.125,-0.125 -0.742,0.272 -0.823,0.529 -0.042,0.133 0.026,0.442 0.152,0.684 0.192,0.371 0.217,0.719 0.158,2.18 -0.075,1.847 0.046,2.157 0.432,1.107 z"
     id="_x36_0" /><path
     style="fill:#ffd42a"
     inkscape:connector-curvature="0"
     d="m 562.186,871.798 c 0.074,-0.344 0.171,-1.047 0.215,-1.562 0.044,-0.515 0.148,-1.166 0.232,-1.447 0.213,-0.72 -0.001,-0.91 -0.569,-0.506 l -0.425,0.303 0.089,1.035 c 0.08,0.933 -0.067,2.674 -0.283,3.349 -0.057,0.178 0.026,0.133 0.262,-0.143 0.189,-0.222 0.405,-0.685 0.479,-1.029 z"
     id="_x35_9" /><path
     style="fill:#ffd42a"
     inkscape:connector-curvature="0"
     d="m 559.059,872.3 c 0.496,-0.454 0.598,-0.737 0.786,-2.187 0.097,-0.745 0.215,-1.553 0.263,-1.795 0.108,-0.542 -0.106,-0.579 -0.683,-0.118 -0.377,0.302 -0.392,0.349 -0.25,0.811 0.188,0.612 0.02,2.127 -0.288,2.597 -0.234,0.357 -0.714,0.438 -1.166,0.196 -0.198,-0.106 -0.24,-0.231 -0.178,-0.54 0.115,-0.577 -0.216,-0.645 -1.13,-0.231 -0.856,0.387 -1.185,0.353 -1.069,-0.11 0.047,-0.186 -0.003,-0.371 -0.126,-0.473 -0.188,-0.156 -0.372,-0.152 -1.623,0.03 -0.209,0.031 -0.271,-0.038 -0.271,-0.299 0,-0.186 -0.042,-0.403 -0.093,-0.482 -0.053,-0.082 -0.658,-0.153 -1.408,-0.165 -1.445,-0.024 -2.469,-0.263 -3.179,-0.742 -0.725,-0.488 -0.789,-0.873 -0.304,-1.814 0.225,-0.436 0.48,-1.012 0.566,-1.279 0.086,-0.267 0.339,-0.659 0.56,-0.872 0.222,-0.212 0.403,-0.444 0.403,-0.514 0,-0.18 -0.912,-0.012 -1.293,0.238 -0.259,0.17 -0.303,0.289 -0.242,0.661 0.082,0.505 -0.238,1.255 -0.841,1.971 -0.662,0.787 -1.637,0.464 -2.932,-0.972 -0.488,-0.541 -0.671,-0.667 -0.796,-0.544 -0.233,0.229 -0.05,1.027 0.314,1.368 0.409,0.382 1.983,1.114 2.403,1.117 0.423,0.003 0.557,0.101 0.813,0.591 0.324,0.621 2.388,1.25 4.402,1.341 0.637,0.029 0.681,0.054 0.746,0.437 0.069,0.403 0.077,0.407 1.051,0.446 0.978,0.04 1.119,0.107 0.828,0.398 -0.084,0.084 -0.116,0.252 -0.07,0.372 0.069,0.181 0.229,0.205 0.931,0.139 0.466,-0.044 0.97,-0.108 1.12,-0.144 0.206,-0.049 0.322,0.044 0.476,0.378 0.156,0.34 0.313,0.462 0.677,0.527 0.668,0.12 1.234,0.001 1.603,-0.337 z"
     id="_x35_8" /><path
     style="fill:#ffcc00"
     inkscape:connector-curvature="0"
     d="m 577.147,871.555 c 1.218,-0.6 1.937,-1.274 2.399,-2.252 0.219,-0.463 0.398,-0.902 0.398,-0.976 0,-0.168 -0.6,-0.449 -0.959,-0.449 -0.359,0 -0.433,-0.246 -0.279,-0.933 0.15,-0.668 -0.03,-1.506 -0.323,-1.506 -0.107,0 -0.295,0.155 -0.42,0.345 -0.193,0.294 -0.202,0.419 -0.061,0.847 0.209,0.634 0.045,1.107 -0.523,1.511 -0.269,0.191 -0.416,0.412 -0.416,0.625 0,0.181 0.023,0.33 0.051,0.33 0.028,0 0.324,-0.153 0.658,-0.34 l 0.607,-0.34 0.358,0.282 c 0.197,0.155 0.358,0.407 0.358,0.561 0,0.74 -2.114,1.988 -3.565,2.104 -0.772,0.062 -0.905,0.036 -1.173,-0.232 -0.218,-0.218 -0.281,-0.402 -0.227,-0.661 0.041,-0.197 0.116,-0.556 0.167,-0.799 0.134,-0.646 -0.145,-0.558 -0.623,0.196 -0.394,0.622 -0.512,1.287 -0.289,1.638 0.18,0.284 1.385,0.557 2.237,0.506 0.534,-0.031 1.063,-0.18 1.625,-0.457 z"
     id="_x35_7" /><path
     style="fill:#cf1126"
     inkscape:connector-curvature="0"
     d="m 583.115,863.747 c -0.323,-0.492 -0.129,-1.085 0.354,-1.085 0.286,0 0.341,0.07 0.376,0.481 0.029,0.343 -0.036,0.55 -0.226,0.723 -0.259,0.234 -0.276,0.23 -0.504,-0.119 z"
     id="_x35_6" /><path
     style="fill:#ffcc00"
     inkscape:connector-curvature="0"
     d="m 585.28,867.019 c 0.765,-0.765 1.091,-1.697 1.095,-3.135 l 0.003,-1.082 0.632,-0.3 c 0.823,-0.391 1.603,-1.172 1.603,-1.605 0,-0.445 -0.198,-0.422 -0.557,0.063 -0.26,0.352 -0.609,0.565 -1.882,1.15 -0.322,0.148 -0.343,0.227 -0.415,1.573 -0.084,1.552 -0.296,2.134 -1.162,3.193 -0.53,0.648 -0.551,0.731 -0.18,0.731 0.151,0 0.54,-0.264 0.863,-0.588 z"
     id="_x35_5" /><path
     style="fill:#ffd42a"
     inkscape:connector-curvature="0"
     d="m 546.609,865.993 c 0.231,-0.292 0.577,-0.886 0.768,-1.321 0.191,-0.435 0.476,-0.928 0.632,-1.097 0.367,-0.395 0.162,-0.639 -0.43,-0.509 -0.313,0.069 -0.438,0.185 -0.492,0.454 -0.177,0.884 -0.497,1.787 -0.782,2.208 -0.517,0.764 -0.529,0.795 -0.317,0.795 0.11,0 0.39,-0.239 0.621,-0.53 z"
     id="_x35_4" /><path
     style="fill:#ffcc00"
     inkscape:connector-curvature="0"
     d="m 576.929,866.151 c 0.074,-0.222 -0.351,-0.381 -0.532,-0.199 -0.078,0.078 -0.099,0.211 -0.046,0.296 0.119,0.194 0.503,0.13 0.578,-0.097 z"
     id="_x35_3" /><path
     style="fill:#ffd42a"
     inkscape:connector-curvature="0"
     d="m 543.777,864.693 c 0.691,-0.35 1.351,-1.167 1.351,-1.673 0,-0.331 -0.555,-0.696 -1.059,-0.696 -0.223,0 -0.643,0.183 -0.979,0.426 -1.051,0.761 -2.174,0.606 -2.789,-0.386 -0.506,-0.816 -1.034,-1.26 -1.5,-1.26 -0.582,0 -0.606,0.365 -0.036,0.564 0.275,0.096 0.504,0.329 0.693,0.704 0.554,1.102 0.877,1.299 2.35,1.427 l 0.948,0.082 0.042,0.576 c 0.023,0.317 0.101,0.576 0.174,0.576 0.073,0 0.435,-0.153 0.805,-0.34 z"
     id="_x35_2" /><path
     style="fill:#cf1126"
     inkscape:connector-curvature="0"
     d="m 543.551,863.746 c -0.121,-0.315 0.049,-0.61 0.353,-0.61 0.278,0 0.344,0.205 0.193,0.599 -0.104,0.272 -0.444,0.279 -0.546,0.011 z"
     id="_x35_1" /><path
     style="fill:#ffcc00"
     inkscape:connector-curvature="0"
     d="m 588.444,863.17 c 0.074,-0.222 -0.35,-0.381 -0.532,-0.199 -0.078,0.078 -0.099,0.211 -0.046,0.296 0.119,0.194 0.503,0.13 0.578,-0.097 z"
     id="_x35_0" /><path
     style="fill:#cf1126"
     inkscape:connector-curvature="0"
     d="m 561.655,865.91 c -0.112,-0.022 -0.752,-0.112 -1.423,-0.2 -3.453,-0.452 -7.561,-1.879 -10.572,-3.673 -6.795,-4.048 -11.764,-11.071 -13.327,-18.836 -1.787,-8.875 -0.514,-16.51 3.679,-22.074 0.764,-1.013 1.569,-1.851 1.42,-1.477 -0.045,0.112 -0.363,0.888 -0.708,1.724 -1.938,4.703 -2.179,9.674 -0.737,15.21 0.571,2.192 1.107,3.6 2.116,5.557 3.533,6.853 10.151,11.908 17.452,13.329 0.596,0.116 1.724,0.334 2.506,0.484 2.056,0.395 3.175,0.355 5.954,-0.211 2.598,-0.53 4.691,-1.158 6.574,-1.975 5.716,-2.479 10.467,-7.21 12.903,-12.849 1.667,-3.86 2.451,-9.526 1.92,-13.886 -0.321,-2.634 -1.15,-5.518 -2.173,-7.552 -0.215,-0.428 -0.332,-0.779 -0.26,-0.779 0.225,0 1.774,1.894 2.68,3.277 1.997,3.047 3.347,6.831 3.83,10.73 0.397,3.206 0.054,8.34 -0.756,11.318 -1.664,6.117 -5.304,11.926 -9.707,15.491 -4.666,3.777 -9.621,5.734 -16.02,6.325 -1.342,0.125 -4.84,0.168 -5.351,0.067 z"
     id="_x34_9" /><path
     style="fill:#ffcc00"
     inkscape:connector-curvature="0"
     d="m 573.472,863.303 c 0.129,-0.112 0.274,-0.413 0.322,-0.67 0.048,-0.256 0.156,-0.485 0.24,-0.508 0.084,-0.023 0.41,-0.111 0.724,-0.197 0.385,-0.104 0.689,-0.308 0.928,-0.622 0.543,-0.712 0.492,-1.631 -0.213,-3.801 -0.313,-0.964 -0.614,-1.904 -0.668,-2.091 -0.13,-0.443 -0.245,-0.427 -0.64,0.085 l -0.327,0.424 0.34,0.404 c 0.45,0.535 1.177,2.735 1.198,3.625 0.011,0.475 -0.063,0.83 -0.226,1.078 -0.262,0.4 -0.127,0.392 -2.082,0.125 -0.434,-0.059 -0.71,-0.009 -1.122,0.206 -0.724,0.377 -1.05,0.362 -1.241,-0.058 -0.237,-0.52 -0.448,-0.322 -0.448,0.421 v 0.666 h 0.741 0.741 l 0.086,0.522 c 0.048,0.287 0.166,0.571 0.263,0.631 0.248,0.154 1.102,0.005 1.384,-0.24 z"
     id="_x34_8" /><path
     style="fill:#d40000"
     inkscape:connector-curvature="0"
     d="m 572.413,862.664 c -0.282,-0.43 -0.162,-0.746 0.282,-0.746 0.244,0 0.384,0.099 0.474,0.338 0.273,0.717 -0.337,1.047 -0.756,0.408 z"
     id="_x34_7" /><path
     style="fill:#ffcc00"
     inkscape:connector-curvature="0"
     d="m 555.268,862.049 c 0.427,-0.184 0.935,-0.57 1.361,-1.035 l 0.68,-0.742 0.785,0.095 c 0.972,0.118 0.988,0.127 0.988,0.592 0,0.369 0.024,0.381 0.914,0.465 0.503,0.048 1.166,0.087 1.474,0.087 0.395,10e-4 0.614,0.077 0.745,0.26 0.175,0.244 0.276,0.251 1.743,0.119 1.371,-0.123 1.641,-0.112 2.259,0.098 0.439,0.149 0.922,0.214 1.289,0.173 1.05,-0.118 2.502,-0.982 2.712,-1.613 0.025,-0.076 0.406,-0.21 0.845,-0.298 1.061,-0.212 1.109,-0.44 0.12,-0.563 -0.429,-0.054 -1.074,-0.213 -1.433,-0.355 -0.359,-0.142 -0.851,-0.258 -1.092,-0.258 -0.533,0 -1.041,0.33 -1.041,0.675 0,0.225 0.081,0.245 0.711,0.181 0.594,-0.06 0.773,-0.024 1.085,0.224 0.206,0.163 0.339,0.353 0.295,0.423 -0.14,0.226 -1.376,0.79 -1.924,0.878 -0.366,0.058 -0.664,0.017 -0.953,-0.132 -0.48,-0.248 -1.187,-0.287 -1.32,-0.071 -0.058,0.093 -0.207,0.035 -0.415,-0.16 l -0.326,-0.306 -0.739,0.306 c -0.748,0.31 -1.02,0.293 -1.02,-0.063 0,-0.163 -0.22,-0.182 -1.321,-0.11 -1.215,0.078 -1.34,0.063 -1.567,-0.19 -0.21,-0.234 -0.22,-0.317 -0.071,-0.555 0.139,-0.222 0.14,-0.315 0.009,-0.447 -0.131,-0.131 -0.297,-0.132 -0.778,-0.003 -1.207,0.323 -1.555,0.144 -1.555,-0.799 0,-0.825 -0.674,-1.179 -1.348,-0.707 -1.107,0.776 -1.394,1.693 -0.642,2.052 0.553,0.264 0.412,0.576 -0.457,1.01 -1.243,0.622 -2.338,0.543 -4.423,-0.32 -0.513,-0.213 -0.645,-0.127 -0.527,0.341 0.115,0.459 0.534,0.711 1.58,0.95 1.122,0.256 2.481,0.174 3.357,-0.202 z"
     id="_x34_6" /><path
     style="fill:#cf1126"
     inkscape:connector-curvature="0"
     d="m 556.277,859.392 c -0.052,-0.137 0.012,-0.294 0.167,-0.408 0.215,-0.157 0.282,-0.156 0.447,0.009 0.107,0.107 0.157,0.29 0.112,0.408 -0.107,0.281 -0.617,0.275 -0.726,-0.009 z"
     id="_x34_5" /><path
     style="fill:#ffcc00"
     inkscape:connector-curvature="0"
     d="m 554.52,859.75 c 0.736,-0.467 0.719,-0.431 0.825,-1.728 0.074,-0.914 0.062,-0.982 -0.187,-0.982 -0.359,0 -0.547,0.395 -0.547,1.149 0,0.483 -0.076,0.7 -0.332,0.957 -0.612,0.612 -2.134,0.332 -2.325,-0.427 -0.066,-0.262 0.018,-0.497 0.337,-0.95 0.665,-0.943 0.514,-1.173 -0.3,-0.458 -0.559,0.491 -0.66,0.506 -0.554,0.083 0.098,-0.39 -0.105,-0.545 -0.562,-0.43 -0.234,0.059 -0.359,0.206 -0.416,0.489 -0.056,0.277 -0.182,0.43 -0.403,0.485 -0.369,0.093 -0.998,-0.257 -0.998,-0.555 0,-0.221 0.941,-1.37 2.151,-2.626 0.456,-0.473 0.829,-0.915 0.829,-0.982 0,-0.067 -0.244,-0.122 -0.542,-0.122 -0.436,0 -0.542,0.049 -0.542,0.25 0,0.138 -0.61,0.937 -1.355,1.776 -1.554,1.75 -1.683,2.114 -0.914,2.582 0.62,0.378 1.412,0.349 2.034,-0.074 l 0.506,-0.343 v 0.623 c 0,0.796 0.159,1.082 0.783,1.411 0.784,0.415 1.733,0.366 2.512,-0.128 z"
     id="_x34_4" /><path
     style="fill:#ffcc00"
     inkscape:connector-curvature="0"
     d="m 576.897,858.993 c 10e-4,-0.86 0.024,-0.933 0.271,-0.889 1.551,0.278 2.268,0.07 2.939,-0.85 0.366,-0.503 0.398,-0.63 0.349,-1.412 l -0.053,-0.859 0.752,0.09 c 1.364,0.163 1.379,0.172 1.285,0.729 -0.259,1.521 -0.734,2.358 -1.906,3.36 -0.82,0.7 -0.817,1.043 0.004,0.653 0.696,-0.33 1.503,-1.16 1.938,-1.992 0.319,-0.611 0.375,-0.883 0.381,-1.848 0.006,-1.016 0.039,-1.159 0.32,-1.386 0.236,-0.191 0.498,-0.246 1.058,-0.222 0.672,0.029 0.777,-0.007 1.083,-0.362 0.266,-0.309 0.321,-0.486 0.257,-0.828 -0.118,-0.631 0.015,-0.851 0.736,-1.217 0.976,-0.495 1.355,-1.021 1.355,-1.881 0,-0.792 -0.245,-1.258 -0.59,-1.126 -0.262,0.101 -0.301,0.785 -0.066,1.162 0.086,0.138 0.119,0.35 0.072,0.472 -0.126,0.329 -0.857,0.726 -1.52,0.825 -0.836,0.126 -1.415,0.573 -1.852,1.43 -0.694,1.364 -0.594,1.301 -1.2,0.754 -0.93,-0.84 -1.752,-0.618 -2.102,0.568 l -0.15,0.507 -0.25,-0.508 c -0.255,-0.516 -0.557,-0.639 -0.851,-0.345 -0.263,0.263 -0.185,0.678 0.246,1.314 0.222,0.328 0.404,0.742 0.404,0.921 0,0.834 -0.788,1.509 -1.542,1.32 -0.403,-0.101 -0.761,-0.667 -0.761,-1.204 0,-0.486 -0.364,-0.44 -0.474,0.059 -0.185,0.839 -0.562,0.498 -0.727,-0.659 -0.112,-0.783 -0.396,-0.826 -0.744,-0.112 -0.223,0.456 -0.229,0.541 -0.051,0.745 0.369,0.425 0.948,2.119 1.017,2.978 0.095,1.174 0.37,1.036 0.372,-0.187 z"
     id="_x34_3" /><path
     style="fill:#cf1126"
     inkscape:connector-curvature="0"
     d="m 581.37,854.418 c -0.331,-0.242 -0.179,-0.629 0.246,-0.629 0.387,0 0.693,0.319 0.582,0.608 -0.098,0.254 -0.495,0.265 -0.828,0.021 z"
     id="_x34_2" /><path
     style="fill:#cf1126"
     inkscape:connector-curvature="0"
     d="m 584.344,853.512 c -0.106,-0.333 0.142,-0.671 0.493,-0.671 0.26,0 0.333,0.313 0.172,0.734 -0.118,0.307 -0.561,0.264 -0.665,-0.063 z"
     id="_x34_1" /><path
     style="fill:#ffcc00"
     inkscape:connector-curvature="0"
     d="m 548.897,858.892 c 0.025,-0.131 -0.043,-0.226 -0.161,-0.226 -0.252,0 -0.404,0.221 -0.284,0.414 0.121,0.198 0.392,0.084 0.445,-0.188 z"
     id="_x34_0" /><path
     style="fill:#ffcc00"
     inkscape:connector-curvature="0"
     d="m 559.487,857.708 c 0,-0.194 -0.073,-0.267 -0.235,-0.236 -0.353,0.068 -0.393,0.517 -0.045,0.517 0.193,0 0.28,-0.087 0.28,-0.281 z"
     id="_x33_9" /><path
     style="fill:#ffcc00"
     inkscape:connector-curvature="0"
     d="m 544.793,856.549 0.375,-0.491 1.405,0.094 c 1.711,0.115 1.916,0.019 3.185,-1.49 0.466,-0.555 0.926,-1.008 1.021,-1.008 0.095,0 0.174,-0.152 0.174,-0.339 0,-0.491 -0.59,-0.469 -0.904,0.034 -0.453,0.724 -1.718,2.091 -2.052,2.218 -0.186,0.071 -0.612,0.088 -0.945,0.038 -0.505,-0.076 -0.565,-0.114 -0.359,-0.229 0.357,-0.2 1.144,-1.011 1.144,-1.179 0,-0.219 -0.651,-0.418 -1.059,-0.325 -0.2,0.046 -0.676,0.256 -1.058,0.466 -0.723,0.398 -1.27,0.408 -1.27,0.023 0,-0.115 0.32,-0.555 0.711,-0.977 0.391,-0.423 0.884,-0.962 1.095,-1.198 0.211,-0.236 0.44,-0.429 0.508,-0.429 0.068,0 0.124,-0.092 0.124,-0.203 0,-0.144 -0.147,-0.203 -0.508,-0.203 -0.465,0 -0.536,0.053 -0.834,0.614 -0.179,0.338 -0.539,0.801 -0.8,1.03 -0.385,0.338 -0.557,0.402 -0.916,0.344 -0.703,-0.114 -1.141,-0.47 -1.141,-0.925 0,-0.217 -0.087,-0.428 -0.193,-0.469 -0.286,-0.11 -0.756,0.19 -0.756,0.483 0,0.497 0.179,0.701 0.956,1.094 0.692,0.349 0.792,0.451 0.83,0.84 0.038,0.392 0.086,0.44 0.422,0.416 0.536,-0.037 0.745,0.44 0.447,1.017 -0.232,0.448 -0.294,1.245 -0.097,1.245 0.066,0.001 0.288,-0.221 0.495,-0.491 z"
     id="_x33_8" /><path
     style="fill:#ff00ff"
     inkscape:connector-curvature="0"
     d="m 545.398,855.482 c 0,-0.221 0.124,-0.251 0.474,-0.117 0.18,0.069 0.189,0.11 0.045,0.201 -0.28,0.179 -0.519,0.14 -0.519,-0.084 z"
     id="_x33_7" /><path
     style="fill:#cf1126"
     inkscape:connector-curvature="0"
     d="m 545.94,854.895 c 0,-0.118 0.593,-0.428 0.819,-0.428 0.264,0 0.118,0.378 -0.176,0.457 -0.426,0.113 -0.643,0.104 -0.643,-0.029 z"
     id="_x33_6" /><path
     style="fill:#ffcc00"
     inkscape:connector-curvature="0"
     d="m 554.949,855.821 c 0,-0.294 -0.529,-0.253 -0.586,0.045 -0.037,0.192 0.023,0.238 0.269,0.203 0.174,-0.024 0.317,-0.136 0.317,-0.248 z"
     id="_x33_5" /><path
     style="fill:#ffcc00"
     inkscape:connector-curvature="0"
     d="m 578.292,853.753 c 0.054,-0.28 -0.337,-0.469 -0.544,-0.262 -0.206,0.206 -0.018,0.598 0.262,0.544 0.131,-0.025 0.257,-0.152 0.282,-0.282 z"
     id="_x33_4" /><path
     style="fill:#ffcc00"
     inkscape:connector-curvature="0"
     d="m 541.963,850.894 c 0.366,-0.315 0.37,-0.336 0.211,-1.026 -0.224,-0.969 -0.209,-1.074 0.16,-1.166 0.467,-0.117 1.651,0.518 1.914,1.027 0.203,0.393 0.198,0.42 -0.148,0.741 -0.372,0.345 -0.37,0.746 0.002,0.746 0.308,0 1.16,-0.806 1.16,-1.097 0,-0.401 -0.946,-1.351 -1.693,-1.7 -0.462,-0.216 -0.926,-0.317 -1.461,-0.317 -0.958,-0.002 -1.088,0.205 -0.829,1.32 0.304,1.306 -0.108,1.482 -1.161,0.497 -0.781,-0.731 -1.088,-1.492 -1.085,-2.69 0.003,-1.286 0.495,-1.921 1.602,-2.069 0.736,-0.099 0.718,-0.271 -0.039,-0.385 -1.104,-0.165 -2.037,0.571 -2.392,1.888 -0.393,1.461 0.508,3.241 2.104,4.156 0.836,0.479 1.168,0.494 1.655,0.075 z"
     id="_x33_3" /><path
     style="fill:#ffcc00"
     inkscape:connector-curvature="0"
     d="m 585.471,849.292 c 0.089,-0.089 0.163,-0.291 0.163,-0.448 0,-0.157 0.152,-0.492 0.339,-0.744 0.186,-0.253 0.339,-0.51 0.339,-0.572 0,-0.257 -0.422,-0.248 -0.757,0.016 -0.341,0.269 -0.598,0.275 -0.598,0.014 0,-0.066 0.163,-0.2 0.363,-0.297 0.497,-0.242 0.539,-0.481 0.118,-0.672 -0.537,-0.245 -1.077,0.202 -1.132,0.938 -0.037,0.492 0.003,0.577 0.382,0.799 0.347,0.204 0.411,0.313 0.353,0.605 -0.101,0.504 0.109,0.681 0.43,0.361 z"
     id="_x33_2" /><path
     style="fill:#ffcc00"
     inkscape:connector-curvature="0"
     d="m 589.561,848.829 c 0.298,-0.269 0.542,-0.574 0.542,-0.677 0,-0.102 0.259,-0.373 0.576,-0.6 0.898,-0.645 1.095,-1.298 0.694,-2.301 -0.157,-0.393 -0.649,-0.938 -1.716,-1.899 -0.823,-0.742 -1.577,-1.349 -1.676,-1.349 -0.292,0 -0.24,1.073 0.057,1.168 0.534,0.171 0.856,0.388 1.695,1.145 0.977,0.881 1.426,1.705 1.181,2.164 -0.237,0.442 -0.549,0.305 -1.409,-0.617 -0.452,-0.485 -0.899,-0.882 -0.992,-0.881 -0.099,10e-4 -0.169,0.177 -0.169,0.422 0,0.307 0.164,0.602 0.61,1.098 0.726,0.808 0.798,1.294 0.253,1.723 -0.196,0.154 -0.398,0.281 -0.447,0.281 -0.05,0 -0.209,-0.24 -0.354,-0.534 -0.305,-0.618 -2.165,-2.581 -2.445,-2.581 -0.126,0 -0.189,0.158 -0.189,0.471 0,0.377 0.074,0.509 0.374,0.664 0.37,0.191 1.281,1.111 2.2,2.22 0.261,0.315 0.52,0.573 0.575,0.573 0.053,-10e-4 0.342,-0.221 0.64,-0.49 z"
     id="_x33_1" /><path
     style="fill:#ffcc00"
     inkscape:connector-curvature="0"
     d="m 591.385,843.605 c -0.121,-0.388 -2.616,-2.957 -2.872,-2.957 -0.134,0 -0.174,0.157 -0.144,0.567 0.036,0.495 0.091,0.58 0.431,0.67 0.214,0.057 0.871,0.572 1.46,1.145 0.589,0.573 1.105,1.008 1.147,0.966 0.042,-0.041 0.032,-0.218 -0.022,-0.391 z"
     id="_x33_0" /><path
     style="fill:#cf1126"
     inkscape:connector-curvature="0"
     d="m 607.828,854.396 c 0.546,-0.058 1.095,0.397 0.909,0.979 -0.046,0.105 -0.23,0.309 -0.536,0.517 -0.311,0.212 -0.748,0.436 -1.285,0.639 -1.074,0.406 -2.553,0.72 -4.276,0.674 0.049,0 0.174,0 0.245,0 -1.749,0.023 -2.688,-0.139 -3.911,-0.543 -1.034,-0.338 -1.925,-0.595 -1.988,-1.509 0,-0.157 0.047,-0.25 0.127,-0.325 0.079,-0.075 0.202,-0.133 0.357,-0.167 0.311,-0.068 0.67,0.112 0.982,0.214 0.665,0.219 2.073,0.814 4.433,0.829 1.244,0.032 2.161,-0.264 3.11,-0.581 1.136,-0.378 1.295,-0.65 1.833,-0.727 z"
     id="_x32_9" /><path
     style="fill:#cf1126"
     inkscape:connector-curvature="0"
     d="m 614.182,819.563 c 0.016,10e-4 0.03,0.005 0.044,0.01 0.057,0.018 0.117,0.059 0.177,0.172 v 0.005 c 0.021,0.035 0.073,0.223 0.088,0.482 0.015,0.259 0.008,0.597 -0.015,0.994 -0.045,0.794 -0.16,1.814 -0.33,2.903 -0.339,2.177 -0.887,4.633 -1.466,6.101 -0.567,1.359 -1.81,2.577 -3.021,3.675 -1.21,1.098 -2.39,2.056 -2.814,3.045 -0.079,0.177 -0.117,0.424 -0.157,0.777 -0.041,0.354 -0.071,0.804 -0.098,1.328 -0.054,1.049 -0.086,2.396 -0.098,3.843 -0.019,2.299 0.004,4.825 0.044,6.829 -0.057,0.025 -0.116,0.051 -0.177,0.079 -0.293,0.134 -0.636,0.307 -1.018,0.482 -0.765,0.349 -1.688,0.688 -2.647,0.659 h -0.005 c -1.933,-0.014 -2.794,-0.579 -3.449,-0.832 h -0.005 c -0.125,-0.048 -0.263,-0.085 -0.403,-0.108 0.025,-1.838 0.194,-14.58 0.192,-16.792 v -0.005 c -0.021,-0.605 0.553,-1.377 1.299,-2.066 0.746,-0.689 1.63,-1.301 2.145,-1.687 l 0.005,-0.005 0.01,-0.005 c 0.306,-0.272 0.931,-0.931 1.52,-1.584 0.295,-0.327 0.579,-0.653 0.802,-0.92 0.223,-0.267 0.376,-0.452 0.453,-0.605 0.022,-0.044 0.143,-0.202 0.31,-0.364 0.167,-0.162 0.383,-0.337 0.615,-0.487 0.232,-0.15 0.482,-0.273 0.704,-0.325 0.221,-0.051 0.403,-0.037 0.551,0.054 0.133,0.082 0.184,0.212 0.177,0.452 -0.007,0.241 -0.094,0.565 -0.231,0.905 -0.275,0.68 -0.743,1.436 -1.082,1.899 -0.208,0.283 -0.399,0.755 -0.586,1.304 -0.187,0.549 -0.359,1.164 -0.482,1.692 -0.123,0.528 -0.204,0.933 -0.187,1.191 0.004,0.064 -0.019,0.14 0.103,0.236 0.061,0.048 0.168,0.057 0.226,0.034 0.058,-0.022 0.088,-0.052 0.113,-0.079 0.101,-0.106 0.169,-0.244 0.281,-0.492 v -0.005 l 0.005,-0.005 c 0.169,-0.432 0.829,-0.914 1.668,-1.402 0.839,-0.488 1.837,-0.999 2.642,-1.619 0.194,-0.157 0.243,-0.389 0.3,-0.664 0.057,-0.275 0.113,-0.618 0.231,-1.038 0.236,-0.841 0.722,-1.998 1.973,-3.469 l 0.064,-0.074 -0.02,-0.098 c -0.274,-1.401 0.096,-2.749 0.6,-3.582 0.252,-0.417 0.546,-0.7 0.758,-0.797 0.079,-0.035 0.142,-0.047 0.191,-0.042 z"
     id="_x32_8" /><path
     style="fill:#cf1126"
     inkscape:connector-curvature="0"
     d="m 612.116,819.873 c 0.095,0.002 0.177,0.038 0.256,0.098 0.154,0.118 0.275,0.357 0.266,0.674 -0.409,0.883 -0.654,2.071 -0.433,3.321 -1.24,1.477 -1.743,2.674 -1.987,3.547 -0.125,0.444 -0.182,0.804 -0.236,1.063 -0.054,0.256 -0.116,0.393 -0.157,0.428 -0.76,0.585 -1.736,1.089 -2.588,1.584 -0.696,0.405 -1.32,0.789 -1.663,1.269 0.019,-0.095 0.04,-0.193 0.064,-0.295 0.069,-0.295 0.157,-0.621 0.251,-0.945 0.139,-0.349 0.538,-0.794 0.999,-1.156 0.461,-0.362 0.987,-0.646 1.338,-0.728 l 0.153,-0.034 0.01,-0.153 c 0.026,-0.397 0.35,-1.313 0.802,-2.17 0.451,-0.857 1.046,-1.684 1.515,-1.988 l 0.098,-0.064 -0.005,-0.118 c -0.076,-2.722 0.529,-3.917 0.999,-4.226 0.116,-0.076 0.223,-0.11 0.318,-0.107 z"
     id="_x32_7" /><path
     style="fill:#cf1126"
     inkscape:connector-curvature="0"
     d="m 610.389,820.379 c 0.072,0.004 0.124,0.027 0.187,0.103 0.059,0.072 0.122,0.202 0.162,0.394 -0.248,0.732 -0.391,1.778 -0.359,3.232 -0.573,0.419 -1.117,1.23 -1.56,2.071 -0.428,0.813 -0.751,1.631 -0.832,2.189 -0.426,0.133 -0.912,0.418 -1.358,0.768 -0.119,0.093 -0.235,0.19 -0.344,0.29 0.127,-0.318 0.254,-0.578 0.349,-0.709 0.358,-0.488 0.836,-1.26 1.132,-1.993 0.1,-0.249 0.182,-0.49 0.226,-0.723 0.484,-0.506 0.945,-1.423 0.832,-2.327 -0.101,-1.16 0.38,-2.299 0.9,-2.883 0.261,-0.291 0.522,-0.42 0.665,-0.412 z"
     id="_x32_6" /><path
     style="fill:#cf1126"
     inkscape:connector-curvature="0"
     d="m 608.426,820.66 c 0.055,0.004 0.115,0.027 0.192,0.084 0.1,0.074 0.22,0.21 0.344,0.418 -0.383,0.688 -0.635,1.6 -0.551,2.553 v 0.005 0.005 c 0.069,0.537 -0.147,1.149 -0.423,1.599 -0.053,-0.188 -0.16,-0.355 -0.334,-0.462 -0.187,-0.115 -0.396,-0.149 -0.605,-0.138 0.096,-1.43 0.394,-2.753 0.772,-3.478 0.198,-0.379 0.41,-0.566 0.551,-0.585 0.017,-0.004 0.036,-0.003 0.054,-10e-4 z"
     id="_x32_5" /><path
     style="fill:#cf1126"
     inkscape:connector-curvature="0"
     d="m 605.459,832.62 c 0.022,0.029 0.001,0.033 0,0.015 0,-0.004 0,-0.01 0,-0.015 z"
     id="_x32_4" /><path
     style="fill:#cf1126"
     inkscape:connector-curvature="0"
     d="m 598.827,850.43 c 0.092,0.019 0.182,0.043 0.261,0.074 0.342,0.132 0.849,0.406 1.638,0.61 l -1.909,-0.02 c 0,0 0.009,-0.613 0.01,-0.664 z"
     id="_x32_3" /><path
     style="fill:#cf1126"
     inkscape:connector-curvature="0"
     d="m 606.525,850.16 c 0.405,-0.058 0.812,0.397 0.674,0.978 -0.034,0.105 -0.17,0.309 -0.397,0.517 -0.231,0.211 -0.555,0.436 -0.953,0.639 -0.797,0.406 -1.893,0.72 -3.171,0.674 0.036,0 0.129,0 0.181,0 -1.297,0.023 -1.993,-0.139 -2.9,-0.543 -0.766,-0.338 -1.428,-0.595 -1.474,-1.509 0,-0.157 0.035,-0.25 0.094,-0.325 0.059,-0.075 0.15,-0.133 0.265,-0.167 0.23,-0.068 0.496,0.112 0.728,0.214 0.493,0.219 1.537,0.814 3.287,0.829 0.922,0.032 1.602,-0.264 2.306,-0.58 0.842,-0.378 0.96,-0.649 1.36,-0.727 z"
     id="_x32_2" /><path
     style="fill:#cf1126"
     inkscape:connector-curvature="0"
     d="m 607.244,852.234 c 0.474,-0.057 0.951,0.398 0.79,0.979 -0.04,0.105 -0.2,0.309 -0.466,0.517 -0.271,0.212 -0.65,0.437 -1.117,0.64 -0.933,0.406 -2.218,0.72 -3.715,0.674 0.042,0 0.151,0 0.213,0 -1.52,0.023 -2.335,-0.139 -3.398,-0.543 -0.898,-0.338 -1.673,-0.595 -1.727,-1.509 0,-0.157 0.041,-0.25 0.11,-0.325 0.069,-0.075 0.175,-0.133 0.31,-0.167 0.27,-0.068 0.581,0.112 0.853,0.214 0.578,0.218 1.801,0.814 3.851,0.829 1.081,0.032 1.878,-0.264 2.702,-0.581 0.988,-0.379 1.126,-0.651 1.594,-0.728 z"
     id="_x32_1" /><path
     style="fill:#cf1126"
     inkscape:connector-curvature="0"
     d="m 521.172,854.396 c -0.546,-0.058 -1.095,0.397 -0.909,0.979 0.046,0.105 0.23,0.309 0.536,0.517 0.311,0.212 0.748,0.436 1.285,0.639 1.074,0.406 2.553,0.72 4.277,0.674 -0.049,0 -0.174,0 -0.245,0 1.749,0.023 2.688,-0.139 3.911,-0.543 1.034,-0.338 1.925,-0.595 1.988,-1.509 0,-0.157 -0.047,-0.25 -0.127,-0.325 -0.079,-0.075 -0.202,-0.133 -0.357,-0.167 -0.31,-0.068 -0.669,0.112 -0.981,0.214 -0.665,0.219 -2.073,0.814 -4.433,0.829 -1.244,0.032 -2.161,-0.264 -3.11,-0.581 -1.138,-0.378 -1.297,-0.65 -1.835,-0.727 z"
     id="_x32_0" /><path
     style="fill:#cf1126"
     inkscape:connector-curvature="0"
     d="m 514.818,819.563 c -0.016,10e-4 -0.03,0.005 -0.044,0.01 -0.057,0.018 -0.117,0.059 -0.177,0.172 v 0.005 c -0.021,0.035 -0.073,0.223 -0.089,0.482 -0.015,0.259 -0.008,0.597 0.015,0.994 0.045,0.794 0.16,1.814 0.33,2.903 0.339,2.177 0.887,4.633 1.466,6.101 0.568,1.359 1.811,2.577 3.021,3.675 1.21,1.098 2.39,2.056 2.814,3.045 0.079,0.177 0.117,0.424 0.157,0.777 0.041,0.354 0.071,0.804 0.099,1.328 0.054,1.049 0.086,2.396 0.098,3.843 0.019,2.299 -0.005,4.825 -0.044,6.829 0.057,0.025 0.116,0.051 0.177,0.079 0.293,0.134 0.636,0.307 1.018,0.482 0.765,0.349 1.688,0.688 2.647,0.659 h 0.005 c 1.933,-0.014 2.794,-0.579 3.449,-0.832 h 0.005 c 0.126,-0.048 0.263,-0.085 0.403,-0.108 -0.025,-1.838 -0.194,-14.58 -0.192,-16.792 v -0.005 c 0.021,-0.605 -0.553,-1.377 -1.299,-2.066 -0.746,-0.689 -1.63,-1.301 -2.145,-1.687 l -0.005,-0.005 -0.01,-0.005 c -0.306,-0.272 -0.931,-0.931 -1.52,-1.584 -0.295,-0.327 -0.579,-0.653 -0.802,-0.92 -0.223,-0.267 -0.376,-0.452 -0.453,-0.605 -0.022,-0.044 -0.143,-0.202 -0.31,-0.364 -0.167,-0.162 -0.383,-0.337 -0.615,-0.487 -0.232,-0.15 -0.482,-0.273 -0.704,-0.325 -0.221,-0.051 -0.403,-0.037 -0.551,0.054 -0.133,0.082 -0.184,0.212 -0.177,0.452 0.007,0.241 0.094,0.565 0.231,0.905 0.275,0.68 0.743,1.436 1.082,1.899 0.208,0.283 0.399,0.755 0.586,1.304 0.187,0.549 0.359,1.164 0.482,1.692 0.123,0.528 0.204,0.933 0.187,1.191 -0.004,0.064 0.019,0.14 -0.103,0.236 -0.061,0.048 -0.168,0.057 -0.226,0.034 -0.058,-0.022 -0.088,-0.052 -0.113,-0.079 -0.101,-0.106 -0.169,-0.244 -0.281,-0.492 v -0.005 l -0.005,-0.005 c -0.169,-0.432 -0.829,-0.914 -1.668,-1.402 -0.839,-0.488 -1.837,-0.999 -2.642,-1.619 -0.194,-0.157 -0.243,-0.389 -0.3,-0.664 -0.057,-0.275 -0.113,-0.618 -0.231,-1.038 -0.236,-0.841 -0.722,-1.998 -1.973,-3.469 l -0.064,-0.074 0.02,-0.098 c 0.274,-1.401 -0.096,-2.749 -0.6,-3.582 -0.252,-0.417 -0.546,-0.7 -0.758,-0.797 -0.078,-0.035 -0.141,-0.047 -0.191,-0.042 z"
     id="_x31_9" /><path
     style="fill:#cf1126"
     inkscape:connector-curvature="0"
     d="m 516.884,819.873 c -0.095,0.002 -0.177,0.038 -0.256,0.098 -0.154,0.118 -0.275,0.357 -0.266,0.674 0.409,0.883 0.654,2.071 0.433,3.321 1.24,1.477 1.743,2.674 1.988,3.547 0.125,0.444 0.182,0.804 0.236,1.063 0.053,0.256 0.116,0.393 0.157,0.428 0.76,0.585 1.736,1.089 2.588,1.584 0.696,0.405 1.32,0.789 1.663,1.269 -0.019,-0.095 -0.04,-0.193 -0.064,-0.295 -0.069,-0.295 -0.157,-0.621 -0.251,-0.945 -0.139,-0.349 -0.537,-0.794 -0.999,-1.156 -0.461,-0.362 -0.987,-0.646 -1.338,-0.728 l -0.152,-0.034 -0.01,-0.153 c -0.026,-0.397 -0.35,-1.313 -0.802,-2.17 -0.451,-0.857 -1.046,-1.684 -1.515,-1.988 l -0.098,-0.064 0.005,-0.118 c 0.076,-2.722 -0.529,-3.917 -0.999,-4.226 -0.117,-0.076 -0.225,-0.11 -0.32,-0.107 z"
     id="_x31_8" /><path
     style="fill:#cf1126"
     inkscape:connector-curvature="0"
     d="m 518.611,820.379 c -0.072,0.004 -0.124,0.027 -0.187,0.103 -0.059,0.072 -0.122,0.202 -0.162,0.394 0.248,0.732 0.391,1.778 0.359,3.232 0.573,0.419 1.117,1.23 1.56,2.071 0.428,0.813 0.751,1.631 0.831,2.189 0.426,0.133 0.912,0.418 1.358,0.768 0.119,0.093 0.235,0.19 0.344,0.29 -0.127,-0.318 -0.253,-0.578 -0.349,-0.709 -0.358,-0.488 -0.836,-1.26 -1.132,-1.993 -0.101,-0.249 -0.182,-0.49 -0.226,-0.723 -0.484,-0.506 -0.945,-1.423 -0.831,-2.327 0.101,-1.16 -0.38,-2.299 -0.9,-2.883 -0.261,-0.291 -0.521,-0.42 -0.665,-0.412 z"
     id="_x31_7" /><path
     style="fill:#cf1126"
     inkscape:connector-curvature="0"
     d="m 520.574,820.66 c -0.055,0.004 -0.115,0.027 -0.192,0.084 -0.099,0.074 -0.22,0.21 -0.344,0.418 0.383,0.688 0.635,1.6 0.551,2.553 v 0.005 0.005 c -0.069,0.537 0.147,1.149 0.423,1.599 0.053,-0.188 0.16,-0.355 0.334,-0.462 0.187,-0.115 0.396,-0.149 0.605,-0.138 -0.096,-1.43 -0.394,-2.753 -0.773,-3.478 -0.198,-0.379 -0.41,-0.566 -0.551,-0.585 -0.016,-0.004 -0.034,-0.003 -0.053,-10e-4 z"
     id="_x31_6" /><path
     style="fill:#cf1126"
     inkscape:connector-curvature="0"
     d="m 523.541,832.62 c -0.022,0.029 -0.001,0.033 0,0.015 0,-0.004 0,-0.01 0,-0.015 z"
     id="_x31_5" /><path
     style="fill:#cf1126"
     inkscape:connector-curvature="0"
     d="m 530.173,850.43 c -0.092,0.019 -0.181,0.043 -0.261,0.074 -0.342,0.132 -0.85,0.406 -1.638,0.61 l 1.909,-0.02 c 0,0 -0.009,-0.613 -0.01,-0.664 z"
     id="_x31_4" /><path
     style="fill:#cf1126"
     inkscape:connector-curvature="0"
     d="m 522.476,850.16 c -0.405,-0.058 -0.812,0.397 -0.674,0.978 0.034,0.105 0.17,0.309 0.398,0.517 0.231,0.211 0.555,0.436 0.953,0.639 0.797,0.406 1.893,0.72 3.171,0.674 -0.036,0 -0.129,0 -0.181,0 1.297,0.023 1.993,-0.139 2.9,-0.543 0.766,-0.338 1.428,-0.595 1.474,-1.509 0,-0.157 -0.035,-0.25 -0.094,-0.325 -0.059,-0.075 -0.15,-0.133 -0.265,-0.167 -0.23,-0.068 -0.496,0.112 -0.728,0.214 -0.493,0.219 -1.537,0.814 -3.287,0.829 -0.922,0.032 -1.602,-0.264 -2.306,-0.58 -0.844,-0.378 -0.962,-0.649 -1.361,-0.727 z"
     id="_x31_3" /><path
     style="fill:#cf1126"
     inkscape:connector-curvature="0"
     d="m 521.756,852.234 c -0.474,-0.057 -0.951,0.398 -0.79,0.979 0.04,0.105 0.2,0.309 0.466,0.517 0.271,0.212 0.65,0.437 1.117,0.64 0.933,0.406 2.218,0.72 3.715,0.674 -0.042,0 -0.151,0 -0.213,0 1.52,0.023 2.335,-0.139 3.398,-0.543 0.898,-0.338 1.673,-0.595 1.727,-1.509 0,-0.157 -0.041,-0.25 -0.11,-0.325 -0.069,-0.075 -0.175,-0.133 -0.31,-0.167 -0.27,-0.068 -0.581,0.112 -0.853,0.214 -0.578,0.218 -1.801,0.814 -3.851,0.829 -1.081,0.032 -1.878,-0.264 -2.702,-0.581 -0.988,-0.379 -1.126,-0.651 -1.594,-0.728 z"
     id="_x31_2" /><path
     style="fill:#cf1126"
     inkscape:connector-curvature="0"
     d="m 563.597,855.663 c -2.6,-0.274 -4.865,-1.922 -5.961,-4.338 -0.367,-0.808 -0.357,-1.018 0.034,-0.736 0.661,0.476 1.604,0.897 2.01,0.897 0.334,0 0.611,0.172 1.265,0.783 1.267,1.186 2.688,1.493 2.07,0.447 -0.433,-0.733 -0.312,-1.228 0.615,-2.518 0.466,-0.648 0.908,-1.182 0.982,-1.188 0.075,-0.005 0.451,0.43 0.837,0.969 0.829,1.157 1.086,2.027 0.78,2.644 -0.268,0.541 -0.249,0.894 0.049,0.894 0.327,0 1.455,-0.716 2.126,-1.35 0.364,-0.344 0.764,-0.564 1.219,-0.673 0.373,-0.089 1.004,-0.345 1.402,-0.568 0.399,-0.224 0.753,-0.379 0.787,-0.344 0.163,0.163 -0.919,2.001 -1.62,2.752 -1.36,1.457 -2.668,2.108 -4.642,2.311 -0.588,0.061 -1.468,0.069 -1.953,0.018 z"
     id="_x31_1" /><path
     style="fill:#cf1126"
     inkscape:connector-curvature="0"
     d="m 566.902,852.379 c -0.043,-0.112 -0.043,-0.259 0,-0.328 0.163,-0.265 -0.353,-1.518 -0.993,-2.411 -0.367,-0.512 -0.767,-1.069 -0.887,-1.237 -0.12,-0.168 -0.295,-0.305 -0.388,-0.305 -0.198,0 -1.481,1.743 -2.02,2.744 -0.205,0.38 -0.372,0.894 -0.372,1.142 0,0.247 -0.065,0.45 -0.145,0.45 -0.373,0 -1.108,-0.779 -1.514,-1.605 -0.411,-0.836 -0.441,-0.988 -0.434,-2.254 0.009,-1.602 0.244,-2.615 1.119,-4.812 0.561,-1.41 0.621,-1.667 0.627,-2.71 0.008,-1.255 -0.229,-1.913 -0.923,-2.56 -0.413,-0.385 -0.352,-0.556 0.199,-0.556 0.513,0 1.318,0.41 1.722,0.878 0.385,0.446 0.632,0.3 0.751,-0.44 0.045,-0.278 0.261,-0.719 0.481,-0.98 0.331,-0.392 0.442,-0.449 0.647,-0.329 0.37,0.215 0.857,1.266 0.857,1.849 0,0.669 0.21,0.659 0.887,-0.04 0.598,-0.618 1.004,-0.859 1.653,-0.982 0.587,-0.111 0.577,0.131 -0.029,0.718 -0.704,0.682 -1.056,1.535 -1.064,2.578 -0.008,1.004 0.129,1.493 0.87,3.129 0.699,1.542 1.07,3.037 1.07,4.319 0,1.381 -0.278,2.257 -0.961,3.034 -0.682,0.775 -1.042,0.996 -1.153,0.708 z"
     id="_x31_0" /><path
     style="fill:#cf1126"
     inkscape:connector-curvature="0"
     d="m 565.902,837.672 c -0.341,-0.669 -1.055,-1.494 -1.292,-1.494 -0.214,0 -1.284,1.188 -1.284,1.425 0,0.092 -0.084,0.237 -0.187,0.323 -0.145,0.12 -0.311,0.073 -0.741,-0.208 -0.699,-0.458 -1.015,-1.309 -1.006,-2.715 0.008,-1.226 0.204,-2.063 0.882,-3.755 0.492,-1.229 0.533,-1.427 0.487,-2.371 -0.06,-1.248 -0.398,-2.014 -1.346,-3.052 -0.365,-0.399 -0.663,-0.763 -0.663,-0.808 0,-0.045 0.282,-0.083 0.628,-0.083 0.698,0 1.273,0.292 1.852,0.942 0.202,0.227 0.42,0.413 0.485,0.413 0.064,0 0.159,-0.32 0.21,-0.711 0.103,-0.783 0.382,-1.321 0.686,-1.321 0.287,0 0.61,0.715 0.61,1.352 0,0.775 0.277,0.824 0.88,0.156 0.271,-0.3 0.702,-0.614 0.958,-0.699 0.481,-0.159 1.213,-0.075 1.356,0.155 0.045,0.072 -0.174,0.407 -0.485,0.745 -1.364,1.48 -1.639,3.147 -0.837,5.083 0.654,1.58 0.873,2.7 0.804,4.113 -0.074,1.528 -0.349,2.229 -1.057,2.698 -0.291,0.192 -0.559,0.35 -0.597,0.35 -0.038,0 -0.192,-0.242 -0.343,-0.538 z"
     id="_x39_" /><path
     style="fill:#cf1126"
     inkscape:connector-curvature="0"
     d="m 562.752,824.603 c -0.7,-0.513 -0.931,-1.004 -0.931,-1.972 0,-0.497 0.092,-0.764 0.418,-1.214 0.482,-0.666 0.393,-0.876 -0.287,-0.681 -1.095,0.314 -1.618,0.027 -1.655,-0.906 -0.018,-0.456 0.079,-0.651 0.693,-1.389 0.492,-0.591 0.671,-0.902 0.574,-0.998 -0.096,-0.097 -0.679,0.408 -1.872,1.622 -0.952,0.969 -2.023,1.959 -2.379,2.2 -2.049,1.385 -4.007,1.599 -4.902,0.535 -0.458,-0.544 -0.433,-0.851 0.097,-1.18 0.242,-0.15 0.654,-0.496 0.914,-0.768 0.614,-0.641 2.444,-1.962 3.353,-2.42 0.737,-0.372 0.914,-0.625 0.435,-0.625 -0.622,0 -2.614,1.297 -4.123,2.685 -0.445,0.409 -1.084,0.866 -1.42,1.014 -0.754,0.333 -2.234,0.455 -2.892,0.238 -0.466,-0.154 -1.313,-0.953 -1.313,-1.239 0,-0.075 0.193,-0.241 0.429,-0.368 0.236,-0.127 0.658,-0.432 0.938,-0.677 1.208,-1.06 3.497,-2.15 5.315,-2.532 0.577,-0.121 0.364,-0.413 -0.281,-0.385 -1.246,0.055 -3.723,1.215 -5.204,2.436 -1.734,1.43 -4.348,1.295 -5.19,-0.268 -0.144,-0.268 -0.23,-0.521 -0.19,-0.561 0.04,-0.04 0.556,-0.195 1.146,-0.344 0.637,-0.161 1.898,-0.683 3.105,-1.284 1.899,-0.947 2.46,-1.149 3.768,-1.358 0.587,-0.094 0.617,-0.381 0.047,-0.449 -0.736,-0.087 -1.863,0.282 -3.853,1.261 -2.558,1.259 -3.276,1.475 -4.624,1.394 -1.23,-0.073 -1.922,-0.39 -2.92,-1.333 -0.652,-0.617 -1.579,-2.189 -1.397,-2.37 0.043,-0.043 0.343,0 0.668,0.095 0.358,0.105 1.386,0.175 2.621,0.178 1.732,0.004 2.192,-0.041 3.116,-0.309 1.542,-0.446 3.596,-1.489 4.999,-2.538 2.685,-2.008 4.875,-2.815 7.668,-2.826 2.577,-0.01 4.216,0.585 5.669,2.057 0.491,0.498 0.91,0.821 0.978,0.753 0.065,-0.065 0.136,-0.936 0.156,-1.935 0,0 0.76,-0.073 0.919,0.14 0,1.622 0.019,1.75 0.255,1.75 0.155,0 0.32,-0.159 0.422,-0.405 0.22,-0.531 1.037,-1.259 1.908,-1.7 1.887,-0.956 5.15,-0.986 7.769,-0.07 1.104,0.386 2.33,1.079 3.497,1.978 1.169,0.9 3.563,2.105 4.979,2.507 1.431,0.406 3.953,0.509 5.248,0.214 0.533,-0.121 1.033,-0.22 1.112,-0.22 0.477,0 -0.336,1.591 -1.29,2.522 -1.744,1.703 -4.012,1.695 -7.205,-0.025 -1.989,-1.071 -4.368,-1.656 -4.368,-1.074 0,0.121 0.125,0.203 0.31,0.203 0.691,0 2.027,0.463 3.889,1.348 2.016,0.958 3.146,1.361 3.818,1.361 0.487,0 0.502,0.303 0.048,0.97 -0.482,0.71 -1.299,1.063 -2.452,1.059 -1.104,-0.004 -1.716,-0.245 -2.701,-1.064 -1.647,-1.37 -5.754,-2.9 -5.596,-2.084 0.031,0.164 0.23,0.264 0.653,0.328 1.429,0.218 3.106,1.019 4.822,2.305 0.53,0.397 1.078,0.789 1.219,0.871 0.235,0.138 0.239,0.18 0.053,0.528 -0.307,0.574 -1.084,1.021 -1.925,1.108 -1.09,0.113 -2.039,-0.212 -3.019,-1.032 -2.072,-1.734 -4.023,-2.989 -4.648,-2.989 -0.511,0 -0.282,0.281 0.618,0.759 1.183,0.627 2.4,1.476 3.294,2.299 0.425,0.39 0.901,0.779 1.058,0.863 0.376,0.201 0.361,0.494 -0.051,1.034 -0.42,0.551 -1.117,0.791 -2.019,0.696 -1.8,-0.19 -3.204,-1.059 -5.411,-3.347 -0.862,-0.894 -1.631,-1.626 -1.709,-1.626 -0.294,0 -0.122,0.399 0.447,1.035 0.705,0.788 0.841,1.233 0.574,1.871 -0.236,0.566 -0.628,0.697 -1.433,0.48 -0.823,-0.221 -0.951,-0.019 -0.412,0.651 0.805,1.002 0.686,2.228 -0.3,3.072 -0.306,0.262 -0.627,0.476 -0.713,0.476 -0.086,0 -0.304,-0.224 -0.484,-0.497 -0.634,-0.962 -1.191,-0.957 -1.807,0.018 -0.214,0.338 -0.395,0.613 -0.403,0.611 -0.008,-0.002 -0.295,-0.21 -0.64,-0.463 z"
     id="_x38_" /><path
     style="fill:#cf1126"
     inkscape:connector-curvature="0"
     d="m 565.889,805.047 -1.068,0.846 -0.959,-0.723 v 5.781 l 2.027,0.025 z"
     id="_x37_" /><path
     style="fill:#cf1126"
     inkscape:connector-curvature="0"
     d="m 563.865,797.659 c -0.929,0.016 -1.91,0.029 -2.789,0.202 -0.612,0.12 -1.166,0.317 -1.629,0.645 0.077,1.777 8.542,2.518 10.814,0.034 -0.479,-0.349 -1.06,-0.554 -1.702,-0.679 -0.848,-0.164 -1.786,-0.182 -2.676,-0.197 0.002,0.489 0.005,0.977 0.005,1.466 l -2.022,-0.005 c -10e-4,-0.5 -10e-4,-1.032 -10e-4,-1.466 z"
     id="_x36_" /><path
     style="fill:#cf1126"
     inkscape:connector-curvature="0"
     d="m 565.519,788.841 -0.503,4.925 5.068,2.475 -2.565,-3.429 3.503,-1.134 z"
     id="_x35_" /><path
     style="fill:#cf1126"
     inkscape:connector-curvature="0"
     d="m 564.955,787.559 c -0.77,0 -1.338,0.287 -1.338,0.628 0,0.341 0.569,0.631 1.338,0.631 0.769,0 1.333,-0.29 1.333,-0.631 0,-0.341 -0.564,-0.628 -1.333,-0.628 z"
     id="_x34_" /><path
     style="fill:#cf1126"
     inkscape:connector-curvature="0"
     d="m 565.521,788.577 -1.315,0.01 v 10.289 l 1.341,0.005 z"
     id="_x33_" /><path
     style="fill:#cf1126"
     inkscape:connector-curvature="0"
     d="m 559.268,799.051 c -0.213,2.733 -0.906,4.639 -1.87,6.741 l 2.312,-2.144 1.608,1.91 1.742,-1.943 1.776,1.642 1.709,-1.709 1.776,2.077 1.541,-1.709 2.614,1.876 c -0.949,-2.103 -2.232,-3.885 -2.071,-6.842 -2.532,1.88 -8.548,2.22 -11.137,0.101 z"
     id="_x32_" /></g></svg>