<?xml version="1.0" encoding="utf-8"?>
<!-- Generator: Adobe Illustrator 23.1.1, SVG Export Plug-In . SVG Version: 6.00 Build 0)  -->
<svg version="1.1" id="Countryflags.com" xmlns="http://www.w3.org/2000/svg" xmlns:xlink="http://www.w3.org/1999/xlink" x="0px"
	 y="0px" viewBox="332 696.5 225 150" style="enable-background:new 332 696.5 225 150;" xml:space="preserve">
<style type="text/css">
	.st0{fill:#DA121A;}
	.st1{fill:#FCDD09;}
	.st2{fill:#078930;}
	.st3{fill:#0F47AF;}
	.st4{stroke:#FCDD09;stroke-width:1.6667;}
</style>
<g>
	<rect id="_x36_" x="332" y="696.5" class="st0" width="225" height="150"/>
	<rect id="_x35_" x="332" y="696.5" class="st1" width="225" height="100"/>
	<rect id="_x34_" x="332" y="696.5" class="st2" width="225" height="50"/>
	<ellipse id="_x33_" class="st3" cx="444.5" cy="771.5" rx="37.5" ry="50"/>
	<path id="_x32_" class="st1" d="M416,759h21.8l4.9-20.2l1.3,5.4l-7.2,29.4l-2.1-2.1l2.2-9.2h-17.5L416,759 M426.9,803.7l6.7-27.6
		l-12.9-12.5h4.3l18.7,18.2l-2.1,2.1l-5.8-5.7l-5.4,22.2L426.9,803.7 M462.1,803.7l-17.6-17.1l-12.9,12.5l1.3-5.4l18.7-18.2l0.8,3.3
		l-5.8,5.7l14.2,13.7L462.1,803.7 M473,759l-17.6,17.1l4.9,20.2l-3.4-3.3l-7.2-29.4h2.6l2.2,9.2l14.2-13.7H473 M444.5,731.3
		l6.7,27.6h15.9l-3.4,3.3h-23.2l0.8-3.3h7.2l-5.4-22.2L444.5,731.3L444.5,731.3z"/>
	<path id="_x31_" class="st4" d="M444.5,789.8v21.7 M431.4,777.2l-15.5,6.7 M436.4,756.7l-9.6-17.5 M452.6,756.7l9.6-17.5
		 M457.6,777.2l15.5,6.7L457.6,777.2z"/>
</g>
</svg>
