<?xml version="1.0" encoding="utf-8"?>
<!-- Generator: Adobe Illustrator 23.1.1, SVG Export Plug-In . SVG Version: 6.00 Build 0)  -->
<svg version="1.1"
	 id="Countryflags.com" inkscape:output_extension="org.inkscape.output.svg.inkscape" inkscape:version="0.45.1" sodipodi:docbase="C:\Documents and Settings\Jeff\Desktop" sodipodi:docname="KG flag v2.svg" sodipodi:version="0.32" xmlns:cc="http://web.resource.org/cc/" xmlns:dc="http://purl.org/dc/elements/1.1/" xmlns:inkscape="http://www.inkscape.org/namespaces/inkscape" xmlns:rdf="http://www.w3.org/1999/02/22-rdf-syntax-ns#" xmlns:sodipodi="http://sodipodi.sourceforge.net/DTD/sodipodi-0.dtd" xmlns:svg="http://www.w3.org/2000/svg"
	 xmlns="http://www.w3.org/2000/svg" xmlns:xlink="http://www.w3.org/1999/xlink" x="0px" y="0px" viewBox="209.5 696.5 270 180"
	 style="enable-background:new 209.5 696.5 270 180;" xml:space="preserve">
<style type="text/css">
	.st0{fill:#E8112D;}
	.st1{fill:#FFEF00;}
	.st2{fill:none;stroke:#FFEF00;stroke-width:2.4;stroke-linecap:round;stroke-linejoin:round;}
	.st3{clip-path:url(#SVGID_2_);fill:#E8112D;}
</style>
<g>
	<rect id="_x35_0" x="209.5" y="696.5" class="st0" width="270" height="180"/>
	<path id="_x34_9" class="st1" d="M347,754.3c-2.3-6.6,2.6-16.8-2.3-21.6c1.6,7.2-3.8,15-2.3,21.6
		C343.9,760.9,349.2,760.9,347,754.3z"/>
	<path id="_x34_8" class="st1" d="M351.5,755.1c-1.3-6.9,4.9-16.1,0.8-21.7c0.6,7.4-5.8,14.2-5.3,20.9
		C347.6,761.1,352.8,762,351.5,755.1z"/>
	<path id="_x34_7" class="st1" d="M355.9,756.6c-0.3-7.1,7.1-15.1,3.9-21.3c-0.5,7.4-7.8,13-8.2,19.8
		C351.1,761.9,356.2,763.7,355.9,756.6z"/>
	<path id="_x34_6" class="st1" d="M359.9,759c0.7-7,9.2-13.7,6.8-20.4c-1.5,7.2-9.5,11.5-10.8,18.1C354.6,763.3,359.3,766,359.9,759
		z"/>
	<path id="_x34_5" class="st1" d="M363.7,762c1.7-6.8,11-11.9,9.6-19c-2.5,6.9-11,9.7-13.3,16C357.7,765.3,362,768.8,363.7,762z"/>
	<path id="_x34_4" class="st1" d="M366.9,765.6c2.6-6.4,12.5-9.8,12.1-17.1c-3.4,6.4-12.2,7.6-15.3,13.5
		C360.6,767.8,364.3,772,366.9,765.6z"/>
	<path id="_x34_3" class="st1" d="M369.6,769.7c3.5-5.9,13.8-7.5,14.4-14.7c-4.3,5.7-13.1,5.4-17.1,10.7
		C363,770.8,366.1,775.6,369.6,769.7z"/>
	<path id="_x34_2" class="st1" d="M371.7,774.2c4.3-5.2,14.6-5.1,16.3-12.1c-5,4.9-13.7,3.1-18.4,7.6
		C365,774.2,367.4,779.5,371.7,774.2z"/>
	<path id="_x34_1" class="st1" d="M373.1,779.1c4.9-4.4,15.2-2.5,17.8-9.1c-5.7,3.9-14,0.6-19.2,4.3
		C366.5,777.9,368.2,783.5,373.1,779.1z"/>
	<path id="_x34_0" class="st1" d="M373.8,784.1c5.5-3.5,15.3,0.2,18.8-5.9c-6.1,2.9-13.9-1.8-19.6,0.9
		C367.5,781.8,368.3,787.6,373.8,784.1z"/>
	<path id="_x33_9" class="st1" d="M373.8,789.2c5.9-2.5,15.1,2.9,19.4-2.5c-6.5,1.8-13.5-4.2-19.4-2.5
		C367.9,785.8,367.9,791.7,373.8,789.2z"/>
	<path id="_x33_8" class="st1" d="M373.1,794.2c6.2-1.5,14.5,5.5,19.6,0.9c-6.7,0.7-12.7-6.5-18.8-5.9
		C367.7,789.9,366.9,795.7,373.1,794.2z"/>
	<path id="_x33_7" class="st1" d="M371.7,799.1c6.4-0.4,13.6,7.9,19.2,4.3c-6.7-0.5-11.7-8.6-17.8-9.1
		C367,793.9,365.4,799.4,371.7,799.1z"/>
	<path id="_x33_6" class="st1" d="M369.6,803.6c6.3,0.8,12.3,10.2,18.4,7.6c-6.5-1.7-10.3-10.6-16.3-12.1
		C365.7,797.6,363.3,802.9,369.6,803.6z"/>
	<path id="_x33_5" class="st1" d="M366.9,807.8c6.1,1.8,10.7,12.2,17.1,10.7c-6.2-2.8-8.7-12.2-14.4-14.7
		C363.9,801.2,360.8,805.9,366.9,807.8z"/>
	<path id="_x33_4" class="st1" d="M363.7,811.4c5.8,2.9,8.9,13.9,15.3,13.5c-5.7-3.8-6.9-13.6-12.1-17.1
		C361.6,804.3,357.9,808.5,363.7,811.4z"/>
	<path id="_x33_3" class="st1" d="M360,814.4c5.3,3.9,6.8,15.3,13.3,16c-5.1-4.8-4.9-14.6-9.6-19C358.9,807.1,354.7,810.5,360,814.4
		z"/>
	<path id="_x33_2" class="st1" d="M355.9,816.7c4.7,4.7,4.6,16.3,10.8,18.1c-4.4-5.6-2.8-15.3-6.8-20.4
		C355.9,809.3,351.2,812,355.9,816.7z"/>
	<path id="_x33_1" class="st1" d="M351.5,818.3c4,5.5,2.2,16.9,8.2,19.8c-3.5-6.3-0.6-15.6-3.9-21.3
		C352.6,811,347.5,812.8,351.5,818.3z"/>
	<path id="_x33_0" class="st1" d="M347,819.1c3.2,6.1-0.2,17,5.3,20.9c-2.6-6.8,1.6-15.5-0.8-21.7S343.8,813,347,819.1z"/>
	<path id="_x32_9" class="st1" d="M342.4,819.1c2.3,6.6-2.6,16.8,2.3,21.6c-1.6-7.2,3.8-15,2.3-21.6
		C345.4,812.5,340.1,812.5,342.4,819.1z"/>
	<path id="_x32_8" class="st1" d="M337.9,818.3c1.3,6.9-4.9,16.1-0.8,21.7c-0.6-7.4,5.8-14.2,5.3-20.9
		C341.8,812.3,336.6,811.4,337.9,818.3z"/>
	<path id="_x32_7" class="st1" d="M333.5,816.7c0.3,7.1-7.1,15.1-3.9,21.3c0.5-7.4,7.8-13,8.2-19.8
		C338.2,811.5,333.2,809.7,333.5,816.7z"/>
	<path id="_x32_6" class="st1" d="M329.4,814.4c-0.7,7-9.2,13.7-6.8,20.4c1.5-7.2,9.5-11.5,10.8-18.1
		C334.8,810.1,330.1,807.4,329.4,814.4z"/>
	<path id="_x32_5" class="st1" d="M325.7,811.4c-1.7,6.8-11,11.9-9.6,19c2.5-6.9,11-9.7,13.3-16C331.6,808,327.4,804.6,325.7,811.4z
		"/>
	<path id="_x32_4" class="st1" d="M322.5,807.8c-2.6,6.4-12.5,9.8-12.1,17.1c3.4-6.4,12.2-7.6,15.3-13.5
		C328.8,805.5,325.1,801.4,322.5,807.8z"/>
	<path id="_x32_3" class="st1" d="M319.8,803.7c-3.5,5.9-13.8,7.5-14.4,14.7c4.3-5.7,13.1-5.4,17.1-10.7
		C326.3,802.5,323.2,797.8,319.8,803.7z"/>
	<path id="_x32_2" class="st1" d="M317.7,799.1c-4.3,5.2-14.6,5.1-16.3,12.1c5-4.9,13.7-3.1,18.4-7.6
		C324.3,799.1,321.9,793.9,317.7,799.1z"/>
	<path id="_x32_1" class="st1" d="M316.2,794.3c-4.9,4.4-15.2,2.5-17.8,9.1c5.7-3.9,14-0.6,19.2-4.3
		C322.8,795.5,321.2,789.9,316.2,794.3z"/>
	<path id="_x32_0" class="st1" d="M315.5,789.3c-5.5,3.5-15.3-0.2-18.8,5.9c6.1-2.9,13.9,1.8,19.6-0.9
		C321.9,791.5,321,785.7,315.5,789.3z"/>
	<path id="_x31_9" class="st1" d="M315.5,784.2c-5.9,2.5-15.1-2.9-19.4,2.5c6.5-1.8,13.5,4.2,19.4,2.5
		C321.5,787.5,321.5,781.6,315.5,784.2z"/>
	<path id="_x31_8" class="st1" d="M316.2,779.1c-6.2,1.5-14.5-5.5-19.6-0.9c6.7-0.7,12.7,6.5,18.8,5.9
		C321.6,783.5,322.5,777.7,316.2,779.1z"/>
	<path id="_x31_7" class="st1" d="M317.7,774.3c-6.4,0.4-13.6-7.9-19.2-4.3c6.7,0.5,11.7,8.6,17.8,9.1
		C322.4,779.5,324,773.9,317.7,774.3z"/>
	<path id="_x31_6" class="st1" d="M319.7,769.7c-6.3-0.8-12.3-10.2-18.4-7.6c6.5,1.7,10.3,10.6,16.3,12.1
		C323.7,775.7,326.1,770.5,319.7,769.7z"/>
	<path id="_x31_5" class="st1" d="M322.4,765.6c-6.1-1.8-10.7-12.2-17.1-10.7c6.2,2.8,8.7,12.2,14.4,14.7
		C325.5,772.2,328.6,767.4,322.4,765.6z"/>
	<path id="_x31_4" class="st1" d="M325.7,762c-5.8-2.9-8.9-13.9-15.3-13.5c5.7,3.8,6.9,13.6,12.1,17.1
		C327.7,769,331.5,764.9,325.7,762z"/>
	<path id="_x31_3" class="st1" d="M329.4,759c-5.3-3.9-6.8-15.3-13.3-16c5.1,4.8,4.9,14.6,9.6,19C330.4,766.3,334.7,762.8,329.4,759
		z"/>
	<path id="_x31_2" class="st1" d="M333.5,756.7c-4.7-4.7-4.6-16.3-10.8-18.1c4.4,5.6,2.8,15.3,6.8,20.4
		C333.5,764.1,338.2,761.4,333.5,756.7z"/>
	<path id="_x31_1" class="st1" d="M337.8,755.1c-4-5.5-2.2-16.9-8.2-19.8c3.5,6.3,0.6,15.6,3.9,21.3
		C336.8,762.4,341.8,760.6,337.8,755.1z"/>
	<path id="_x31_0" class="st1" d="M342.4,754.3c-3.2-6.1,0.2-17-5.3-20.9c2.6,6.8-1.6,15.5,0.8,21.7
		C340.3,761.3,345.5,760.4,342.4,754.3z"/>
	
		<ellipse id="_x39_" sodipodi:cx="0" sodipodi:cy="0" sodipodi:rx="54" sodipodi:ry="54" class="st0" cx="344.7" cy="786.7" rx="29.2" ry="32.4">
	</ellipse>
	
		<path id="_x38_" sodipodi:cx="-197.78358" sodipodi:cy="112.0634" sodipodi:rx="38.825226" sodipodi:ry="38.825226" sodipodi:type="arc" class="st2" d="
		M373.4,786.2c0,17.6-12.8,31.9-28.7,31.9c-15.8,0-28.7-14.3-28.7-31.9c0,0,0,0,0,0c0-17.6,12.8-31.9,28.7-31.9
		C360.5,754.3,373.4,768.6,373.4,786.2C373.4,786.2,373.4,786.2,373.4,786.2z"/>
	
		<ellipse id="_x37_" sodipodi:cx="0" sodipodi:cy="-3" sodipodi:rx="45" sodipodi:ry="45" class="st1" cx="344.7" cy="784.9" rx="21.6" ry="24.3">
	</ellipse>
	<g id="Group_1">
		<defs>
			<ellipse id="SVGID_1_" cx="344.7" cy="784.9" rx="22.1" ry="24.8"/>
		</defs>
		<clipPath id="SVGID_2_">
			<use xlink:href="#SVGID_1_"  style="overflow:visible;"/>
		</clipPath>
		<path id="_x36_" class="st3" d="M366.3,771.6c-16.9,0-30.6,15.4-30.6,34.4s13.7,34.4,30.6,34.4l-1.7,1.3
			c-17.5,0-31.8-16-31.8-35.7c0-19.7,14.2-35.7,31.8-35.7L366.3,771.6z"/>
		<path id="_x35_" class="st3" d="M363.4,769.3c-18,0-32.6,16.4-32.6,36.6c0,20.2,14.6,36.6,32.6,36.6l-1.7,1.5
			c-18.7,0-33.9-17.1-33.9-38.1c0-21,15.2-38.1,33.9-38.1L363.4,769.3z"/>
		<path id="_x34_" class="st3" d="M360.5,766.8c-19.2,0-34.9,17.5-34.9,39.1c0,21.6,15.6,39.1,34.9,39.1l-1.7,1.6
			c-20,0-36.3-18.3-36.3-40.8c0-22.5,16.2-40.8,36.3-40.8L360.5,766.8z"/>
		<path id="_x33_" class="st3" d="M323.1,771.6c16.9,0,30.6,15.4,30.6,34.4s-13.7,34.4-30.6,34.4l1.7,1.3c17.5,0,31.8-16,31.8-35.7
			c0-19.7-14.2-35.7-31.8-35.7L323.1,771.6z"/>
		<path id="_x32_" class="st3" d="M325.9,769.3c18,0,32.6,16.4,32.6,36.6c0,20.2-14.6,36.6-32.6,36.6l1.7,1.5
			c18.7,0,33.9-17.1,33.9-38.1c0-21-15.2-38.1-33.9-38.1L325.9,769.3z"/>
		<path id="_x31_" class="st3" d="M328.8,766.8c19.2,0,34.9,17.5,34.9,39.1c0,21.6-15.6,39.1-34.9,39.1l1.7,1.6
			c20,0,36.3-18.3,36.3-40.8c0-22.5-16.2-40.8-36.3-40.8L328.8,766.8z"/>
	</g>
</g>
</svg>
