<?xml version="1.0" encoding="utf-8"?>
<!-- Generator: Adobe Illustrator 23.1.1, SVG Export Plug-In . SVG Version: 6.00 Build 0)  -->
<svg version="1.1"
	 id="Countryflags.com" xmlns:cc="http://creativecommons.org/ns#" xmlns:dc="http://purl.org/dc/elements/1.1/" xmlns:rdf="http://www.w3.org/1999/02/22-rdf-syntax-ns#" xmlns:svg="http://www.w3.org/2000/svg"
	 xmlns="http://www.w3.org/2000/svg" xmlns:xlink="http://www.w3.org/1999/xlink" x="0px" y="0px" viewBox="209.5 696.5 270 180"
	 style="enable-background:new 209.5 696.5 270 180;" xml:space="preserve">
<style type="text/css">
	.st0{fill:#FFFFFF;}
	.st1{fill:#0038A8;}
	.st2{fill:#D52B1E;}
	.st3{fill:none;stroke:#000000;stroke-width:0.9303;stroke-linecap:round;}
	.st4{fill:#009B3A;stroke:#000000;stroke-width:7.500000e-02;}
	.st5{fill:#009B3A;stroke:#000000;stroke-width:7.500000e-02;stroke-miterlimit:10;}
	.st6{fill:#FEDF00;stroke:#000000;stroke-width:0.163;}
	.st7{fill:none;stroke:#000000;stroke-width:0.5033;stroke-linecap:round;}
	.st8{fill:none;stroke:#000000;stroke-width:0.602;stroke-linecap:round;}
</style>
<g>
	<rect id="_x31_83" x="209.5" y="696.5" class="st0" width="270" height="180"/>
	<rect id="_x31_82" x="209.5" y="816.5" class="st1" width="270" height="60"/>
	<rect id="_x31_81" x="209.5" y="696.5" class="st2" width="270" height="60"/>
	<path id="_x31_80" class="st3" d="M365.2,786.5c0,12.7-9.3,23-20.7,23c-11.4,0-20.7-10.3-20.7-23c0,0,0,0,0,0
		c0-12.7,9.3-23,20.7-23C355.9,763.5,365.2,773.8,365.2,786.5C365.2,786.5,365.2,786.5,365.2,786.5z"/>
	<path id="_x31_79" class="st4" d="M347.2,775.8c0,0,7.9,3.8,6.5,11.6c-1.4,7.8-5.8,7.7-7.5,8.6c-1.7,0.9-2.9,2.1-3.6,1.9
		c-0.7-0.2-1.6-0.8-1.6-0.8s-0.1,1.3,1.3,1.5c1.4,0.2,3.2-2,4.1-2.3c0.9-0.3,6.2-0.9,7.5-8.8C355.5,779,347.3,776,347.2,775.8z"/>
	<path id="_x31_78" class="st4" d="M351.2,777.4c0.1,0.6,0.2,1.2,0,1.2c-0.1,0-0.4-0.5-0.5-1.1l0,0c-0.1-0.6-0.2-1.2,0-1.2
		C350.8,776.3,351.1,776.8,351.2,777.4z"/>
	<path id="_x31_77" class="st4" d="M350.9,777.5c0.3,0.6,0.4,1.2,0.3,1.2c-0.1,0.1-0.5-0.4-0.7-1c0,0,0,0,0,0
		c-0.3-0.6-0.4-1.2-0.3-1.2C350.3,776.4,350.7,776.9,350.9,777.5C350.9,777.5,350.9,777.5,350.9,777.5z"/>
	<path id="_x31_76" class="st4" d="M350.2,778.1c0.6,0.2,1,0.5,1,0.6c0,0.2-0.5,0.1-1,0l0,0c-0.6-0.2-1-0.5-1-0.6
		C349.1,777.9,349.6,777.9,350.2,778.1L350.2,778.1z"/>
	<path id="_x31_75" class="st4" d="M350.3,777.8c0.5,0.4,0.9,0.8,0.8,0.9c-0.1,0.1-0.5-0.1-1-0.4c0,0,0,0,0,0
		c-0.5-0.4-0.9-0.8-0.8-0.9C349.3,777.2,349.8,777.4,350.3,777.8C350.3,777.8,350.3,777.8,350.3,777.8z"/>
	<path id="_x31_74" class="st4" d="M350.6,777.6c0.4,0.5,0.7,1,0.6,1.1c-0.1,0.1-0.5-0.2-1-0.7s-0.7-1-0.6-1.1
		C349.7,776.8,350.2,777.1,350.6,777.6z"/>
	<path id="_x31_73" class="st4" d="M351.2,778.7c0,0-0.3,0.2-0.4,0.2c-0.1,0-0.2-0.1-0.4,0c-0.2,0.1-0.3,0.3-0.4,0.4
		c0,0.1,0.1,0.2,0.3,0c0.2-0.1,0.3-0.3,0.4-0.4C350.9,778.9,351.1,778.8,351.2,778.7c0.1-0.1,0.2-0.3,0.3-0.5
		c0.1-0.1,0.4-0.4,0.5-0.7c0.1-0.2,0.1-0.4-0.1-0.3c-0.1,0.1-0.3,0.3-0.4,0.5c-0.1,0.2,0,0.4-0.1,0.5
		C351.3,778.4,351.2,778.7,351.2,778.7L351.2,778.7z"/>
	<path id="_x31_72" class="st4" d="M353.6,779.6c0,1-0.1,1.8-0.3,1.7c-0.2-0.1-0.4-0.9-0.4-1.9c0,0,0,0,0,0c0-1,0.1-1.8,0.3-1.7
		C353.4,777.7,353.6,778.6,353.6,779.6C353.6,779.6,353.6,779.6,353.6,779.6z"/>
	<path id="_x31_71" class="st4" d="M353.2,779.6c0.2,1,0.2,1.8,0,1.9c-0.2,0-0.5-0.8-0.7-1.8l0,0c-0.2-1-0.2-1.8,0-1.9
		C352.7,777.8,353,778.6,353.2,779.6L353.2,779.6z"/>
	<path id="_x31_70" class="st4" d="M351.9,780c0.7,0.5,1.2,1.2,1.2,1.4c-0.1,0.2-0.7,0-1.4-0.6c0,0,0,0,0,0
		c-0.7-0.5-1.2-1.2-1.2-1.4C350.6,779.2,351.2,779.5,351.9,780C351.9,780,351.9,780,351.9,780z"/>
	<path id="_x31_69" class="st4" d="M352.2,779.6c0.6,0.8,1,1.6,0.8,1.7c-0.1,0.2-0.7-0.3-1.3-1.1c0,0,0,0,0,0
		c-0.6-0.8-1-1.6-0.8-1.7C351,778.3,351.6,778.8,352.2,779.6z"/>
	<path id="_x31_68" class="st4" d="M352.7,779.6c0.5,0.9,0.7,1.8,0.5,1.9c-0.2,0.1-0.7-0.6-1.1-1.5c0,0,0,0,0,0
		c-0.5-0.9-0.7-1.8-0.5-1.9C351.7,778,352.2,778.6,352.7,779.6C352.7,779.6,352.7,779.6,352.7,779.6z"/>
	<path id="_x31_67" class="st4" d="M353.1,781.4c0,0-0.5,0.1-0.6,0.1c-0.1,0-0.2-0.2-0.5-0.2c-0.3,0.1-0.6,0.3-0.7,0.4
		s0,0.3,0.4,0.2c0.4-0.1,0.5-0.3,0.7-0.4C352.7,781.6,353,781.5,353.1,781.4c0.1-0.1,0.4-0.3,0.6-0.5c0.2-0.2,0.7-0.3,0.9-0.7
		c0.2-0.3,0.2-0.6,0-0.5c-0.2,0-0.5,0.3-0.7,0.5c-0.2,0.2-0.1,0.5-0.3,0.7C353.5,781,353.2,781.4,353.1,781.4L353.1,781.4z"/>
	<path id="_x31_66" class="st4" d="M354.9,783.2c-0.1,1-0.4,1.7-0.6,1.6c-0.2-0.1-0.2-1-0.1-2c0.1-1,0.4-1.7,0.6-1.6
		C355,781.4,355,782.2,354.9,783.2L354.9,783.2z"/>
	<path id="_x31_65" class="st4" d="M354.5,783.1c0,1-0.1,1.9-0.3,1.8c-0.2,0-0.4-0.9-0.4-1.9c0,0,0,0,0,0c0-1,0.1-1.9,0.3-1.8
		C354.3,781.2,354.5,782.1,354.5,783.1C354.5,783.1,354.5,783.1,354.5,783.1z"/>
	<path id="_x31_64" class="st4" d="M353.2,783.3c0.6,0.7,1,1.4,0.9,1.6c-0.1,0.2-0.7-0.2-1.3-0.9c0,0,0,0,0,0
		c-0.6-0.7-1-1.4-0.9-1.6C352,782.2,352.6,782.6,353.2,783.3C353.2,783.3,353.2,783.3,353.2,783.3z"/>
	<path id="_x31_63" class="st4" d="M353.5,782.9c0.4,0.9,0.7,1.8,0.5,1.9c-0.2,0.1-0.6-0.5-1.1-1.4c0,0,0,0,0,0
		c-0.4-0.9-0.7-1.8-0.5-1.9C352.6,781.4,353,782,353.5,782.9C353.5,782.9,353.5,782.9,353.5,782.9z"/>
	<path id="_x31_62" class="st4" d="M354,783c0.3,1,0.4,1.9,0.2,2c-0.2,0.1-0.6-0.7-0.8-1.7c0,0,0,0,0,0c-0.3-1-0.4-1.9-0.2-2
		C353.3,781.2,353.7,782,354,783C354,783,354,783,354,783z"/>
	<path id="_x31_61" class="st4" d="M354.1,784.9c0,0-0.5,0-0.6,0s-0.2-0.3-0.5-0.3c-0.3,0-0.6,0.2-0.7,0.3c-0.1,0.1,0,0.3,0.4,0.3
		c0.4,0,0.6-0.2,0.8-0.2S354,785,354.1,784.9c0.1,0,0.5-0.2,0.6-0.4c0.2-0.1,0.7-0.2,1-0.5c0.2-0.2,0.3-0.5,0.1-0.5
		c-0.2,0-0.6,0.2-0.7,0.3c-0.2,0.2-0.2,0.5-0.4,0.6C354.5,784.6,354.1,784.9,354.1,784.9L354.1,784.9z"/>
	<path id="_x31_60" class="st4" d="M355,787.3c-0.5,0.8-1,1.4-1.1,1.2c-0.1-0.2,0.1-1,0.6-1.8c0,0,0,0,0,0c0.5-0.8,1-1.4,1.1-1.2
		C355.7,785.6,355.5,786.4,355,787.3C355,787.3,355,787.3,355,787.3z"/>
	<path id="_x31_59" class="st4" d="M354.7,787c-0.3,1-0.7,1.7-0.9,1.6c-0.2-0.1,0-1,0.3-2c0,0,0,0,0,0c0.3-1,0.7-1.7,0.9-1.6
		C355.1,785.1,355,786,354.7,787z"/>
	<path id="_x31_58" class="st4" d="M353.4,786.6c0.3,0.9,0.4,1.8,0.3,1.9c-0.2,0.1-0.6-0.5-0.9-1.4c-0.3-0.9-0.4-1.8-0.3-1.9
		C352.7,785,353.1,785.6,353.4,786.6L353.4,786.6z"/>
	<path id="_x31_57" class="st4" d="M353.8,786.4c0.1,1.1,0,2-0.2,2c-0.2,0.1-0.4-0.7-0.5-1.8l0,0c-0.1-1.1,0-2,0.2-2
		C353.5,784.5,353.7,785.3,353.8,786.4L353.8,786.4z"/>
	<path id="_x31_56" class="st4" d="M354.3,786.7c-0.1,1.1-0.3,1.9-0.5,1.9c-0.2,0-0.3-0.9-0.2-2c0.1-1.1,0.3-1.9,0.5-1.9
		C354.3,784.7,354.4,785.6,354.3,786.7z"/>
	<path id="_x31_55" class="st4" d="M353.7,788.5c0,0-0.4-0.2-0.5-0.3c-0.1-0.1,0-0.3-0.3-0.5c-0.3-0.1-0.6-0.1-0.8-0.1
		c-0.2,0.1-0.1,0.3,0.2,0.4c0.3,0.2,0.6,0.1,0.8,0.1C353.3,788.3,353.5,788.5,353.7,788.5c0.1,0,0.5,0,0.7-0.1c0.2,0,0.7,0.1,1.1,0
		c0.3-0.1,0.5-0.3,0.3-0.4c-0.2-0.1-0.6-0.1-0.8,0c-0.2,0.1-0.4,0.4-0.6,0.4C354.2,788.4,353.7,788.5,353.7,788.5L353.7,788.5z"/>
	<path id="_x31_54" class="st4" d="M354,791.4c-0.8,0.7-1.5,1.1-1.6,0.9c-0.1-0.2,0.4-1.1,1.2-1.8c0,0,0,0,0,0
		c0.8-0.7,1.5-1.1,1.6-0.9C355.3,789.8,354.8,790.6,354,791.4C354,791.4,354,791.4,354,791.4z"/>
	<path id="_x31_53" class="st4" d="M353.7,790.9c-0.7,0.9-1.3,1.6-1.5,1.4c-0.1-0.2,0.3-1.1,0.9-2.1c0,0,0,0,0,0
		c0.7-0.9,1.3-1.6,1.5-1.4C354.8,789.1,354.4,790,353.7,790.9C353.7,790.9,353.7,790.9,353.7,790.9z"/>
	<path id="_x31_52" class="st4" d="M352.5,790c0.1,1.1,0,2.1-0.3,2.2c-0.2,0.1-0.5-0.7-0.6-1.9c0,0,0,0,0,0c-0.1-1.1,0-2.1,0.3-2.2
		C352.2,788,352.4,788.8,352.5,790C352.5,790,352.5,790,352.5,790z"/>
	<path id="_x31_51" class="st4" d="M353,789.9c-0.2,1.2-0.6,2.2-0.8,2.1c-0.2,0-0.2-1,0-2.2l0,0c0.2-1.2,0.6-2.2,0.8-2.1
		C353.2,787.8,353.2,788.7,353,789.9z"/>
	<path id="_x31_50" class="st4" d="M353.4,790.4c-0.4,1.1-0.9,2-1.1,1.9c-0.2-0.1,0-1.1,0.4-2.2s0.9-2,1.1-1.9
		C354,788.3,353.8,789.3,353.4,790.4z"/>
	<path id="_x31_49" class="st4" d="M352.2,792.2c0,0-0.4-0.4-0.5-0.5c-0.1-0.1,0-0.4-0.2-0.7c-0.3-0.3-0.6-0.4-0.8-0.4
		c-0.2,0-0.2,0.2,0.1,0.6c0.3,0.3,0.6,0.3,0.8,0.5C351.8,791.9,352.1,792.1,352.2,792.2c0.1,0.1,0.6,0.2,0.8,0.2
		c0.2,0,0.7,0.4,1.2,0.4c0.4,0,0.6-0.2,0.4-0.4c-0.2-0.2-0.6-0.3-0.9-0.4c-0.3,0-0.5,0.3-0.8,0.2
		C352.8,792.3,352.2,792.3,352.2,792.2z"/>
	<path id="_x31_48" class="st4" d="M351.5,795c-1.1,0.2-2,0.1-2-0.2c0-0.3,0.9-0.7,2.1-0.9c0,0,0,0,0,0c1.1-0.2,2-0.1,2,0.2
		C353.5,794.4,352.6,794.8,351.5,795C351.5,795,351.5,795,351.5,795z"/>
	<path id="_x31_47" class="st4" d="M351.4,794.4c-1.1,0.5-2,0.6-2.1,0.3c0-0.3,0.8-0.9,1.9-1.4c0,0,0,0,0,0c1.1-0.5,2-0.6,2.1-0.3
		C353.4,793.3,352.5,793.9,351.4,794.4C351.4,794.4,351.4,794.4,351.4,794.4z"/>
	<path id="_x31_46" class="st4" d="M350.7,792.7c-0.5,1.1-1.1,2-1.4,2s-0.1-1,0.4-2.2c0.5-1.1,1.1-2,1.4-2
		C351.4,790.6,351.2,791.5,350.7,792.7z"/>
	<path id="_x31_45" class="st4" d="M351.2,793c-0.8,1-1.6,1.7-1.8,1.5c-0.2-0.2,0.3-1.1,1.1-2.1c0.8-1,1.6-1.7,1.8-1.5
		C352.5,791,352,791.9,351.2,793C351.2,792.9,351.2,793,351.2,793z"/>
	<path id="_x31_44" class="st4" d="M351.3,793.7c-1,0.8-1.9,1.3-2,1.1c-0.1-0.2,0.5-1.1,1.5-1.9c0,0,0,0,0,0c1-0.8,1.9-1.3,2-1.1
		C353,792,352.3,792.9,351.3,793.7z"/>
	<path id="_x31_43" class="st4" d="M349.3,794.6c0,0-0.2-0.7-0.2-0.8c0-0.2,0.2-0.3,0.1-0.8c-0.1-0.4-0.4-0.8-0.6-0.9
		c-0.2-0.1-0.3,0.1-0.2,0.6c0.1,0.5,0.5,0.7,0.6,1C349.1,794,349.2,794.4,349.3,794.6c0.1,0.2,0.4,0.5,0.7,0.7s0.5,0.9,0.9,1.2
		c0.3,0.2,0.7,0.2,0.6-0.1s-0.4-0.7-0.7-0.9c-0.2-0.2-0.6-0.1-0.8-0.3C349.9,795.1,349.3,794.7,349.3,794.6z"/>
	<path id="_x31_42" class="st4" d="M348.1,797c-1.1,0-2.1-0.3-2.1-0.6c0-0.4,0.9-0.7,2.1-0.7c1.1,0,2.1,0.3,2.1,0.6
		C350.2,796.7,349.3,797,348.1,797z"/>
	<path id="_x31_41" class="st4" d="M347.9,794.9c-0.7,1-1.5,1.7-1.8,1.5c-0.2-0.2,0.1-1.3,0.9-2.3l0,0c0.7-1,1.5-1.7,1.8-1.5
		C349,792.9,348.6,793.9,347.9,794.9z"/>
	<path id="_x31_40" class="st4" d="M348.1,796c-1.1,0.5-2,0.6-2.1,0.3c-0.1-0.3,0.7-1,1.7-1.5c1.1-0.5,2-0.6,2.1-0.3
		C350,794.8,349.2,795.5,348.1,796z"/>
	<path id="_x31_39" class="st4" d="M348.7,776c0.5,0.5,0.8,1,0.7,1.1c-0.1,0.1-0.7-0.3-1.2-0.8c-0.5-0.5-0.8-1-0.7-1.1
		S348.2,775.4,348.7,776C348.7,775.9,348.7,776,348.7,776z"/>
	<path id="_x31_38" class="st4" d="M348.1,776.5c0.7,0.1,1.3,0.3,1.3,0.5c0,0.2-0.5,0.2-1.2,0.1l0,0c-0.7-0.1-1.3-0.3-1.3-0.5
		C346.8,776.5,347.4,776.4,348.1,776.5z"/>
	<path id="_x31_37" class="st4" d="M348.3,776.2c0.7,0.4,1.2,0.8,1.1,0.9c-0.1,0.1-0.7-0.1-1.3-0.5c0,0,0,0,0,0
		c-0.7-0.4-1.2-0.8-1.1-0.9C347.1,775.6,347.7,775.8,348.3,776.2z"/>
	<path id="_x31_36" class="st4" d="M339,794.8c0,0,1.7,0.4,3.2,1c1.5,0.6,3.8,2.7,4.4,2.8c0.7,0,1.6-0.2,2-1.3
		c-1.1,0.3-1.7,0.8-2.7,0.2c-0.4-0.2-1.5-1.3-2.8-2c-1.3-0.6-3.9-1.4-3.9-1.4L339,794.8z"/>
	<path id="_x31_35" class="st4" d="M340.8,777.3c0,0,2-1.2,2-1.2l-2.2,0.6l-0.3,0.4L340.8,777.3z"/>
	<path id="_x31_34" class="st4" d="M342.7,777.9c-0.8-0.2-2-0.4-2.7-0.5c0.5-0.6,1.2-1.7,1.7-2.4c-0.3,0.6-0.8,1.5-0.9,2.1
		C341.3,777.4,342.1,777.6,342.7,777.9z"/>
	<path id="_x31_33" class="st4" d="M340.5,777.5c0,0,1.8-1.5,1.8-1.5l-2.1,1l-0.2,0.5L340.5,777.5z"/>
	<path id="_x31_32" class="st4" d="M342.4,777.8c-0.8-0.2-2-0.5-2.7-0.5c0.5-0.7,1.2-1.8,1.7-2.5c-0.3,0.7-0.7,1.5-0.9,2.2
		C340.9,777.3,341.8,777.6,342.4,777.8z"/>
	<path id="_x31_31" class="st4" d="M340.2,777.6c0,0,2.1-1,2.1-1L340,777l-0.3,0.4L340.2,777.6z"/>
	<path id="_x31_30" class="st4" d="M342.2,777.9c-0.8-0.1-2-0.2-2.8-0.2c0.4-0.7,1-2,1.4-2.7c-0.2,0.7-0.6,1.6-0.7,2.3
		C340.7,777.5,341.5,777.7,342.2,777.9z"/>
	<path id="_x31_29" class="st4" d="M340,777.6c0,0,1.4-1.9,1.4-1.9l-1.8,1.5l-0.1,0.5L340,777.6z"/>
	<path id="_x31_28" class="st4" d="M342.1,778c-0.8,0-2.2-0.1-3,0c0.4-0.8,0.9-2.2,1.2-3.1c-0.2,0.8-0.4,1.8-0.5,2.6
		C340.5,777.7,341.5,777.8,342.1,778z"/>
	<path id="_x31_27" class="st4" d="M339.7,778c0,0,1.7-1.8,1.7-1.8l-2.1,1.3l-0.1,0.5L339.7,778z"/>
	<path id="_x31_26" class="st4" d="M341.8,778c-0.9,0-2.3-0.1-3.2,0.1c0.6-0.9,1.4-2.5,1.9-3.4c-0.3,0.9-0.8,2-1,2.8
		C340.1,777.8,341.1,777.9,341.8,778z"/>
	<path id="_x31_25" class="st4" d="M339.1,778.2c0,0,2.2-2.1,2.2-2.1l-2.5,1.5l-0.3,0.6L339.1,778.2z"/>
	<path id="_x31_24" class="st4" d="M341.4,778.1c-0.9,0.1-2.3,0.3-3.2,0.6c0.5-1,1.1-2.6,1.4-3.6c-0.2,0.9-0.6,2.1-0.6,2.9
		C339.7,778.1,340.7,778.1,341.4,778.1z"/>
	<path id="_x31_23" class="st4" d="M338.8,778.6c0,0,1.7-2.6,1.7-2.6l-2.1,2.1l-0.1,0.7L338.8,778.6z"/>
	<path id="_x31_22" class="st4" d="M340.9,778.4c-0.9,0.1-2.3,0.2-3.2,0.4c0.5-1,1.2-2.6,1.6-3.5c-0.2,0.9-0.7,2.1-0.8,2.9
		C339.2,778.3,340.2,778.3,340.9,778.4z"/>
	<path id="_x31_21" class="st4" d="M338.5,778.9c0,0,2.2-2.1,2.2-2.1l-2.4,1.5l-0.2,0.6L338.5,778.9L338.5,778.9z"/>
	<path id="_x31_20" class="st4" d="M340.7,778.5c-0.9,0.2-2.3,0.5-3.2,0.8c0.4-1,1-2.7,1.3-3.7c-0.2,0.9-0.5,2.1-0.5,2.9
		C338.9,778.7,339.9,778.5,340.7,778.5z"/>
	<path id="_x31_19" class="st4" d="M338.2,779c0,0,1.4-2.8,1.4-2.8l-1.9,2.5l0,0.6L338.2,779L338.2,779z"/>
	<path id="_x31_18" class="st4" d="M340.7,778.7c-1,0.3-2.5,0.6-3.4,1c0.4-1.2,0.8-3,1-4.2c-0.1,1-0.3,2.4-0.2,3.3
		C338.8,778.9,339.9,778.7,340.7,778.7z"/>
	<path id="_x31_17" class="st4" d="M337.9,779.6c0,0,1.7-2.8,1.7-2.8l-2.2,2.3l-0.1,0.7L337.9,779.6z"/>
	<path id="_x31_16" class="st4" d="M340.3,779c-1,0.3-2.4,0.8-3.3,1.2c0.3-1.2,0.6-3,0.8-4.2c0,1-0.2,2.4-0.1,3.3
		C338.4,779.3,339.5,779.1,340.3,779z"/>
	<path id="_x31_15" class="st4" d="M337.5,780c0,0,1.3-3.1,1.3-3.1l-1.9,2.7l0,0.7L337.5,780z"/>
	<path id="_x31_14" class="st4" d="M339.9,779.4c-1,0.2-2.5,0.6-3.4,0.9c0.4-1.1,0.9-3,1.2-4.1c-0.1,1-0.4,2.4-0.4,3.3
		C338,779.6,339.1,779.4,339.9,779.4z"/>
	<path id="_x31_13" class="st4" d="M337.2,780.3c0,0,2.2-2.5,2.2-2.5l-2.5,1.8l-0.2,0.7L337.2,780.3z"/>
	<path id="_x31_12" class="st4" d="M339.5,779.9c-1,0.1-2.5,0.3-3.4,0.6c0.4-1.1,1-2.9,1.4-4c-0.2,1-0.5,2.4-0.5,3.3
		C337.6,779.8,338.7,779.8,339.5,779.9z"/>
	<path id="_x31_11" class="st4" d="M336.8,780.1c0,0,1.5-3.1,1.5-3.1l-2,2.6l0,0.7L336.8,780.1L336.8,780.1z"/>
	<path id="_x31_10" class="st4" d="M339.6,779.5c-1,0.5-2.7,1.1-3.7,1.7c0.3-1.4,0.7-3.6,0.9-4.9c0,1.2-0.2,2.8-0.1,3.8
		C337.6,780.1,338.7,779.7,339.6,779.5z"/>
	<path id="_x31_09" class="st4" d="M336.6,781c0,0,1.8-3.5,1.8-3.5l-2.3,3l-0.1,0.8L336.6,781z"/>
	<path id="_x31_08" class="st4" d="M339.2,779.9c-1,0.5-2.6,1.3-3.6,1.9c0.3-1.4,0.5-3.6,0.7-4.9c0,1.2-0.1,2.7,0.1,3.8
		C337.2,780.6,338.3,780.2,339.2,779.9z"/>
	<path id="_x31_07" class="st4" d="M336.2,781.6c0,0,1.3-3.8,1.3-3.8l-1.9,3.4l0,0.8L336.2,781.6z"/>
	<path id="_x31_06" class="st4" d="M338.8,780.2c-1,0.5-2.6,1.3-3.6,2c0.3-1.4,0.5-3.6,0.6-4.9c0,1.2-0.1,2.7,0.1,3.7
		C336.7,781,337.9,780.5,338.8,780.2z"/>
	<path id="_x31_05" class="st4" d="M335.9,782c0,0,2-3.4,2-3.4l-2.5,2.7l-0.1,0.8L335.9,782z"/>
	<path id="_x31_04" class="st4" d="M338.7,780.1c-0.9,0.8-2.4,2-3.2,2.9c0-1.4-0.2-3.6-0.3-4.9c0.2,1.1,0.5,2.6,0.8,3.6
		C336.8,781.3,337.8,780.5,338.7,780.1z"/>
	<path id="_x31_03" class="st4" d="M336,782.2c0,0,0.2-4,0.2-4l-1,3.9l0.3,0.7L336,782.2z"/>
	<path id="_x31_02" class="st4" d="M338.4,780.4c-0.9,0.8-2.4,2-3.2,2.9c0-1.4-0.2-3.6-0.3-4.9c0.2,1.1,0.4,2.6,0.8,3.6
		C336.5,781.7,337.6,780.9,338.4,780.4z"/>
	<path id="_x31_01" class="st4" d="M335.8,782.9c0,0,0.9-3.9,0.9-3.9l-1.6,3.6l0.1,0.8L335.8,782.9z"/>
	<path id="_x31_00" class="st4" d="M338.3,780.5c-0.9,0.9-2.2,2.4-3,3.4c-0.1-1.4-0.5-3.6-0.8-5c0.3,1.1,0.7,2.7,1.1,3.6
		C336.5,782.1,337.5,781.1,338.3,780.5z"/>
	<path id="_x39_9" class="st4" d="M335.8,783.4c0,0,0.2-4.2,0.2-4.2l-0.9,4.1l0.3,0.8L335.8,783.4z"/>
	<path id="_x39_8" class="st4" d="M338,781.2c-0.9,0.9-2.4,2.1-3.2,3c0-1.5-0.2-3.7-0.4-5.1c0.3,1.1,0.5,2.7,0.9,3.7
		C336.1,782.6,337.2,781.7,338,781.2z"/>
	<path id="_x39_7" class="st4" d="M335.5,783.8c0,0,1.3-3.9,1.3-3.9l-2,3.5l0.1,0.9L335.5,783.8z"/>
	<path id="_x39_6" class="st4" d="M338,781.2c-0.8,1-2.1,2.4-2.9,3.4c-0.1-1.5-0.5-3.7-0.7-5c0.3,1.1,0.7,2.7,1.1,3.6
		C336.3,782.8,337.3,781.8,338,781.2z"/>
	<path id="_x39_5" class="st4" d="M335.6,784c0,0-0.2-4.1-0.2-4.1l-0.6,4.1l0.3,0.7L335.6,784z"/>
	<path id="_x39_4" class="st4" d="M337.6,781.6c-0.8,1-2.1,2.4-2.8,3.5c-0.2-1.5-0.6-3.7-0.8-5c0.4,1.1,0.8,2.7,1.2,3.6
		C335.9,783.1,336.9,782.2,337.6,781.6z"/>
	<path id="_x39_3" class="st4" d="M335.4,784.4c0,0,0.4-4.2,0.4-4.2l-1.1,4l0.2,0.8L335.4,784.4z"/>
	<path id="_x39_2" class="st4" d="M337.4,781.7c-0.7,1.1-1.9,2.6-2.5,3.7c-0.3-1.4-0.8-3.6-1.2-4.9c0.4,1.1,0.9,2.6,1.4,3.5
		C335.9,783.5,336.7,782.4,337.4,781.7z"/>
	<path id="_x39_1" class="st4" d="M335.4,784.8c0,0-0.2-4.2-0.2-4.2l-0.5,4.2l0.3,0.7L335.4,784.8z"/>
	<path id="_x39_0" class="st4" d="M337.4,782c-0.7,1.1-1.8,2.8-2.4,3.9c-0.3-1.4-1-3.6-1.4-4.9c0.5,1,1.1,2.5,1.6,3.4
		C335.9,783.8,336.7,782.7,337.4,782z"/>
	<path id="_x38_9" class="st4" d="M335.6,785.2c0,0,0.4-4.2,0.4-4.2l-1.1,4l0.2,0.8L335.6,785.2z"/>
	<path id="_x38_8" class="st4" d="M337.2,782.4c-0.6,1.2-1.5,3-2,4.3c-0.4-1.4-1.3-3.4-1.8-4.6c0.6,1,1.3,2.4,1.9,3.1
		C335.9,784.4,336.6,783.2,337.2,782.4z"/>
	<path id="_x38_7" class="st4" d="M335.5,785.6c0,0-1.1-4-1.1-4l0.4,4.2l0.5,0.6L335.5,785.6z"/>
	<path id="_x38_6" class="st4" d="M337.2,782.8c-0.6,1.2-1.6,3-2.1,4.2c-0.4-1.4-1.3-3.4-1.8-4.6c0.6,1,1.3,2.4,1.9,3.1
		C335.8,784.9,336.6,783.6,337.2,782.8z"/>
	<path id="_x38_5" class="st4" d="M335.5,786.3c0,0-0.4-4.2-0.4-4.2l-0.4,4.2l0.4,0.7L335.5,786.3z"/>
	<path id="_x38_4" class="st4" d="M337.3,783.2c-0.6,1.2-1.7,3-2.2,4.2c-0.4-1.4-1.3-3.4-1.8-4.7c0.6,1,1.2,2.4,1.8,3.2
		C335.8,785.2,336.6,784,337.3,783.2z"/>
	<path id="_x38_3" class="st4" d="M335.5,786.7c0,0-0.7-4.2-0.7-4.2l0,4.3l0.4,0.7L335.5,786.7z"/>
	<path id="_x38_2" class="st4" d="M337,783.8c-0.7,1.1-1.8,2.8-2.3,4c-0.4-1.4-1.1-3.5-1.6-4.8c0.5,1,1.1,2.5,1.7,3.3
		C335.5,785.7,336.3,784.5,337,783.8z"/>
	<path id="_x38_1" class="st4" d="M335.2,787.1c0,0,0.3-4.2,0.3-4.2l-1,4l0.3,0.8L335.2,787.1z"/>
	<path id="_x38_0" class="st4" d="M337,783.9c-0.6,1.2-1.5,3.1-2,4.3c-0.5-1.3-1.4-3.3-1.9-4.5c0.6,0.9,1.3,2.3,2,3
		C335.7,786,336.4,784.7,337,783.9z"/>
	<path id="_x37_9" class="st4" d="M335,787.5c0,0-1.2-4-1.2-4l0.5,4.2l0.5,0.6L335,787.5z"/>
	<path id="_x37_8" class="st4" d="M336.9,784.2c-0.4,1.3-1.1,3.4-1.4,4.8c-0.7-1.2-1.8-2.9-2.5-4c0.7,0.8,1.6,1.9,2.3,2.5
		C335.9,786.6,336.4,785.2,336.9,784.2z"/>
	<path id="_x37_7" class="st4" d="M336.1,787.8c0,0-1.3-3.9-1.3-3.9l0.6,4.2l0.5,0.5L336.1,787.8z"/>
	<path id="_x37_6" class="st4" d="M336.9,784.6c-0.4,1.4-1.1,3.4-1.3,4.8c-0.7-1.2-1.8-2.9-2.6-4c0.7,0.8,1.6,1.9,2.4,2.5
		C335.9,787,336.4,785.6,336.9,784.6z"/>
	<path id="_x37_5" class="st4" d="M336.1,788.5c0,0-1.6-3.6-1.6-3.6l1,4l0.6,0.5L336.1,788.5z"/>
	<path id="_x37_4" class="st4" d="M336.7,785c-0.3,1.4-0.7,3.6-0.8,4.9c-0.8-1.1-2.1-2.6-2.9-3.5c0.8,0.6,1.8,1.6,2.6,2.1
		C336,787.5,336.4,786,336.7,785z"/>
	<path id="_x37_3" class="st4" d="M336.2,789.1c0,0-0.9-4.1-0.9-4.1l0.1,4.2l0.5,0.6L336.2,789.1z"/>
	<path id="_x37_2" class="st5" d="M336.7,785.4c-0.1,1.4-0.4,3.6-0.4,5c-0.9-1-2.3-2.3-3.2-3.1c0.8,0.5,2,1.4,2.7,1.7
		C336.2,788.1,336.5,786.5,336.7,785.4z"/>
	<path id="_x37_1" class="st4" d="M336.2,789.4c0,0-2.3-3-2.3-3l1.8,3.6l0.6,0.2L336.2,789.4z"/>
	<path id="_x37_0" class="st4" d="M336.8,785.9c-0.1,1.4-0.4,3.6-0.4,5c-0.9-1-2.3-2.3-3.2-3.1c0.8,0.5,1.9,1.4,2.7,1.7
		C336.3,788.6,336.5,787,336.8,785.9z"/>
	<path id="_x36_9" class="st4" d="M336.5,790c0,0-1.8-3.6-1.8-3.6l1.1,4l0.6,0.4L336.5,790z"/>
	<path id="_x36_8" class="st4" d="M336.9,786.5c-0.1,1.4-0.3,3.7-0.3,5.1c-0.9-0.9-2.4-2.1-3.3-2.9c0.9,0.5,2,1.2,2.8,1.5
		C336.5,789.2,336.7,787.6,336.9,786.5z"/>
	<path id="_x36_7" class="st4" d="M336.7,790.7c0,0-2.2-3.1-2.2-3.1l1.6,3.7l0.6,0.3L336.7,790.7z"/>
	<path id="_x36_6" class="st4" d="M336.9,787.2c-0.1,1.4-0.3,3.7-0.2,5.1c-0.9-0.9-2.4-2.1-3.3-2.8c0.9,0.5,2,1.2,2.8,1.5
		C336.5,789.9,336.7,788.3,336.9,787.2z"/>
	<path id="_x36_5" class="st4" d="M336.9,791.2c0,0-1.5-3.8-1.5-3.8l0.9,4.1l0.6,0.5L336.9,791.2z"/>
	<path id="_x36_4" class="st4" d="M337,787.6c0,1.4,0.1,3.7,0.2,5.1c-1-0.7-2.6-1.7-3.5-2.3c0.9,0.3,2.1,0.9,2.9,1.1
		C336.8,790.3,336.8,788.7,337,787.6z"/>
	<path id="_x36_3" class="st4" d="M337.2,791.1c0,0-2.8-2.2-2.8-2.2l2.4,2.9l0.7,0L337.2,791.1z"/>
	<path id="_x36_2" class="st4" d="M337.1,787.7c0.1,1.4,0.2,3.7,0.4,5.1c-1-0.7-2.6-1.6-3.7-2.2c0.9,0.3,2.1,0.8,3,0.9
		C337,790.5,337,788.9,337.1,787.7z"/>
	<path id="_x36_1" class="st4" d="M337.5,791.9c0,0-2.4-3-2.4-3l1.8,3.6l0.6,0.3L337.5,791.9z"/>
	<path id="_x36_0" class="st4" d="M337.3,788.3c0.2,1.4,0.4,3.7,0.6,5c-1-0.6-2.7-1.4-3.7-1.9c0.9,0.2,2.2,0.7,3,0.7
		C337.3,791,337.2,789.5,337.3,788.3z"/>
	<path id="_x35_9" class="st4" d="M338,792.4c0,0-2.8-2.2-2.8-2.2l2.4,3l0.7,0.1L338,792.4z"/>
	<path id="_x35_8" class="st4" d="M337.4,788.9c0.3,1.4,0.6,3.6,0.9,5c-1.1-0.5-2.8-1.1-3.8-1.5c0.9,0.1,2.2,0.5,3,0.4
		C337.6,791.7,337.4,790.1,337.4,788.9z"/>
	<path id="_x35_7" class="st4" d="M338.3,792.8c0,0-2.3-3.1-2.3-3.1l1.7,3.6l0.6,0.3L338.3,792.8z"/>
	<path id="_x35_6" class="st4" d="M337.5,789.3c0.4,1.4,0.9,3.5,1.3,4.8c-1.1-0.4-2.8-0.7-3.9-1c0.9,0,2.2,0.1,3,0
		C338,792,337.6,790.5,337.5,789.3z"/>
	<path id="_x35_5" class="st4" d="M338.4,792.8c0,0-3.2-0.8-3.2-0.8l3.1,1.7l0.6-0.3L338.4,792.8z"/>
	<path id="_x35_4" class="st4" d="M337.7,789.7c0.4,1.4,0.9,3.5,1.3,4.8c-1.1-0.4-2.8-0.8-3.9-1c0.9,0,2.2,0.1,3,0
		C338.2,792.4,337.9,790.9,337.7,789.7L337.7,789.7z"/>
	<path id="_x35_3" class="st4" d="M338.9,793.2c0,0-3.1-1.7-3.1-1.7l2.8,2.5l0.7-0.1L338.9,793.2z"/>
	<path id="_x35_2" class="st4" d="M337.6,790c0.6,1.3,1.5,3.2,2.2,4.4c-1.1-0.1-2.9,0-4,0c0.9-0.2,2.2-0.4,2.9-0.8
		C338.5,792.5,337.9,791.1,337.6,790L337.6,790z"/>
	<path id="_x35_1" class="st4" d="M339.4,793.6c0,0-3.2-1-3.2-1l3,1.9l0.6-0.2L339.4,793.6z"/>
	<path id="_x35_0" class="st4" d="M337.9,790.5c0.6,1.3,1.5,3.2,2.2,4.4c-1.1-0.1-2.9,0-4,0.1c0.9-0.2,2.2-0.4,2.9-0.8
		C338.9,793,338.3,791.6,337.9,790.5z"/>
	<path id="_x34_9" class="st4" d="M339.8,793.9c0,0-3-2-3-2l2.6,2.8l0.7,0L339.8,793.9L339.8,793.9z"/>
	<path id="_x34_8" class="st4" d="M338.2,790.8c0.7,1.2,1.8,3,2.6,4.1c-1.1,0.1-2.8,0.4-3.9,0.6c0.9-0.4,2.1-0.8,2.8-1.2
		C339.3,793.2,338.6,791.9,338.2,790.8z"/>
	<path id="_x34_7" class="st4" d="M340,794.2c0,0-3.2-0.1-3.2-0.1l3.2,1.1l0.6-0.4L340,794.2z"/>
	<path id="_x34_6" class="st4" d="M341.9,776.7c0,0,2.3-0.4,2.3-0.4l-2.3,0.1l-0.4,0.2L341.9,776.7z"/>
	<path id="_x34_5" class="st4" d="M343.2,777.3c-0.7-0.2-1.7-0.6-2.4-0.8c0.7-0.3,1.8-0.9,2.5-1.3c-0.5,0.4-1.3,0.8-1.7,1.2
		C342,776.7,342.7,777,343.2,777.3z"/>
	<path id="_x34_4" class="st4" d="M341.8,776.8c0,0,2.3-0.7,2.3-0.7l-2.3,0.3l-0.4,0.3L341.8,776.8z"/>
	<path id="_x34_3" class="st4" d="M343.3,777.4c-0.8-0.1-2-0.3-2.8-0.3c0.6-0.6,1.4-1.5,1.9-2.1c-0.3,0.6-0.9,1.3-1.1,1.8
		C341.9,777.1,342.7,777.3,343.3,777.4z"/>
	<path id="_x34_2" class="st4" d="M341,777c0,0,2.3-0.3,2.3-0.3l-2.3-0.1l-0.4,0.2L341,777z"/>
	<path id="_x34_1" class="st4" d="M342.7,777.5c-0.7-0.2-1.8-0.4-2.5-0.5c0.7-0.4,1.7-1,2.3-1.4c-0.5,0.4-1.1,0.9-1.5,1.3
		C341.4,777.1,342.2,777.3,342.7,777.5z"/>
	<path id="_x34_0" class="st4" d="M340.8,777c0,0,2.1-1,2.1-1l-2.3,0.7l-0.3,0.3L340.8,777z"/>
	<path id="_x33_9" class="st4" d="M342.7,777.8c-0.6-0.3-1.5-0.7-2.1-0.9c0.5-0.5,1.1-1.3,1.5-1.8c-0.3,0.5-0.7,1.2-0.9,1.7
		C341.6,777.1,342.2,777.5,342.7,777.8z"/>
	<path id="_x33_8" class="st4" d="M340.9,777.1c0,0,1.6-0.8,1.6-0.8l-1.7,0.3l-0.2,0.3L340.9,777.1z"/>
	<path id="_x33_7" class="st4" d="M339.6,793.8c0,0-3.3,0-3.3,0l3.4,0.9l0.6-0.4L339.6,793.8z"/>
	<path id="_x33_6" class="st4" d="M340.2,794.1c0,0-3.4-0.9-3.4-0.9l3.2,1.8l0.6-0.2L340.2,794.1z"/>
	<path id="_x33_5" class="st4" d="M340.7,794.3c0,0-3.4-0.2-3.4-0.2l3.4,1.1l0.6-0.4L340.7,794.3z"/>
	<path id="_x33_4" class="st4" d="M338.6,791.7c0.9,1.1,2.2,2.8,3.1,3.7c-1.1,0.2-2.8,0.7-3.9,1c0.8-0.4,2-0.9,2.7-1.5
		C340,793.9,339.2,792.7,338.6,791.7z"/>
	<path id="_x33_3" class="st4" d="M341.2,794.5c0,0-3.4-1.2-3.4-1.2l3.2,2.1l0.7-0.2L341.2,794.5z"/>
	<path id="_x33_2" class="st4" d="M338.9,791.9c1,1,2.4,2.5,3.4,3.3c-1.1,0.3-2.7,1.1-3.7,1.5c0.8-0.6,1.9-1.2,2.5-1.9
		C340.5,794,339.5,792.9,338.9,791.9z"/>
	<path id="_x33_1" class="st4" d="M341.4,794.8c0,0-3.2,0.7-3.2,0.7l3.4,0.3l0.5-0.5L341.4,794.8z"/>
	<path id="_x33_0" class="st4" d="M340.8,794.5c0,0-3.3,0.3-3.3,0.3l3.4,0.7l0.5-0.4L340.8,794.5z"/>
	<path id="_x32_9" class="st4" d="M341.4,794.7c0,0-3.4-0.6-3.4-0.6l3.4,1.5l0.6-0.3L341.4,794.7z"/>
	<path id="_x32_8" class="st4" d="M342,794.9c0,0-3.4,0.1-3.4,0.1l3.4,0.9l0.6-0.4L342,794.9z"/>
	<path id="_x32_7" class="st4" d="M339.7,792.5c0.9,1,2.4,2.6,3.3,3.5c-1.1,0.3-2.8,0.9-3.8,1.3c0.8-0.5,2-1.1,2.6-1.7
		C341.3,794.6,340.3,793.4,339.7,792.5z"/>
	<path id="_x32_6" class="st4" d="M342.4,795.1c0,0-3.4-1-3.4-1l3.3,1.8l0.6-0.2L342.4,795.1z"/>
	<path id="_x32_5" class="st4" d="M340,792.7c1,0.9,2.6,2.3,3.6,3.1c-1.1,0.4-2.6,1.3-3.6,1.8c0.7-0.6,1.8-1.4,2.3-2.1
		C341.8,794.6,340.7,793.6,340,792.7z"/>
	<path id="_x32_4" class="st4" d="M342.7,795.3c0,0-3.1,0.9-3.1,0.9l3.4,0l0.4-0.6L342.7,795.3L342.7,795.3z"/>
	<path id="_x32_3" class="st6" d="M347.1,790.1l-2.6-2l-2.6,2l1-3.1l-2.2-2h2.9l1-3.1l1,3.1h2.9l-2.2,2L347.1,790.1z"/>
	<path id="_x32_2" d="M333.5,795.4l-2.4,1.6l-0.7-1.4c-0.1-0.3-0.2-0.5-0.3-0.6c0-0.2,0-0.3,0-0.5c0.1-0.2,0.2-0.3,0.3-0.4
		c0.1-0.1,0.3-0.1,0.4-0.1c0.1,0,0.3,0,0.4,0.1c0.1,0,0.2,0.1,0.2,0.2c0-0.1,0-0.2,0-0.3c0,0,0-0.1,0.1-0.2c0-0.1,0.1-0.2,0.1-0.2
		l0.5-0.9l0.5,0.9l-0.5,0.9c-0.1,0.1-0.1,0.2-0.1,0.3c0,0.1,0,0.2,0.1,0.2l0,0.1l1-0.6L333.5,795.4z M331.6,795.5l-0.2-0.3
		c0,0-0.1-0.1-0.1-0.2c0,0-0.1-0.1-0.1-0.1c-0.1,0-0.1,0-0.2,0c-0.1,0.1-0.1,0.1-0.1,0.2c0,0.1,0,0.2,0.1,0.3l0.2,0.4L331.6,795.5z"
		/>
	<path id="_x32_1" d="M329.3,793.4l-0.7-2.4l0.6-0.2l0.5,1.5l0.4-0.2l-0.4-1.4l0.5-0.2l0.4,1.4l0.5-0.2l-0.5-1.6l0.6-0.2l0.7,2.5
		L329.3,793.4z"/>
	<path id="_x32_0" d="M328.4,789.8l-0.2-1.6c0-0.3,0-0.6,0.1-0.8c0.1-0.2,0.3-0.3,0.6-0.3c0.3,0,0.5,0,0.7,0.2
		c0.2,0.2,0.3,0.4,0.3,0.8l0.1,0.5l1-0.1l0.1,1L328.4,789.8z M329.5,788.7l0-0.2c0-0.2-0.1-0.3-0.1-0.4c-0.1-0.1-0.1-0.1-0.2-0.1
		c-0.1,0-0.2,0.1-0.2,0.1c-0.1,0.1-0.1,0.2-0.1,0.4l0,0.3L329.5,788.7z"/>
	<path id="_x31_9" d="M328.3,784l0.1-1l1.7,0.2c0.2,0,0.3,0.1,0.5,0.1c0.1,0.1,0.3,0.2,0.4,0.3c0.1,0.1,0.2,0.3,0.2,0.4
		c0,0.2,0.1,0.4,0,0.7c0,0.2,0,0.3-0.1,0.5c0,0.2-0.1,0.3-0.2,0.4c-0.1,0.1-0.2,0.2-0.3,0.3c-0.1,0.1-0.2,0.1-0.3,0.2
		c-0.2,0-0.3,0-0.5,0l-1.7-0.2l0.1-1l1.7,0.2c0.2,0,0.3,0,0.4-0.1c0.1-0.1,0.1-0.2,0.2-0.4c0-0.2,0-0.3-0.1-0.4
		c-0.1-0.1-0.2-0.2-0.3-0.2L328.3,784z"/>
	<path id="_x31_8" d="M328.7,781.7l0.5-1.7c0.1-0.3,0.2-0.5,0.4-0.6c0.2-0.1,0.4-0.1,0.5,0c0.2,0.1,0.3,0.2,0.4,0.3
		c0.1,0.1,0.1,0.2,0.1,0.4c0.1-0.2,0.2-0.3,0.4-0.4c0.1-0.1,0.3-0.1,0.5,0c0.1,0.1,0.2,0.1,0.3,0.2c0.1,0.1,0.1,0.2,0.2,0.4
		c0,0.1,0,0.2,0,0.4c0,0.2-0.1,0.4-0.1,0.4l-0.5,1.6L328.7,781.7z M330,781.2l0.1-0.4c0-0.1,0.1-0.2,0-0.3c0-0.1-0.1-0.1-0.2-0.2
		c-0.1,0-0.1,0-0.2,0c-0.1,0-0.1,0.1-0.2,0.3l-0.1,0.4L330,781.2z M331,781.6l0.1-0.5c0-0.2,0.1-0.3,0-0.4c0-0.1-0.1-0.1-0.2-0.2
		c-0.1,0-0.2,0-0.2,0c-0.1,0-0.1,0.1-0.2,0.3l-0.1,0.5L331,781.6z"/>
	<path id="_x31_7" d="M330,778l0.4-0.8l1.8,1.2l0.7-1.3l0.6,0.4l-1.1,2.1L330,778z"/>
	<path id="_x31_6" d="M331.7,775.1l0.6-0.7l2.1,2l-0.6,0.7L331.7,775.1z"/>
	<path id="_x31_5" d="M335.4,773.5l0.7-0.4c0.1,0.2,0.2,0.4,0.2,0.6c0,0.2,0,0.4-0.1,0.6c-0.1,0.2-0.2,0.4-0.4,0.5
		c-0.2,0.2-0.4,0.4-0.7,0.4c-0.2,0.1-0.4,0.1-0.7,0c-0.3-0.1-0.5-0.3-0.7-0.6c-0.3-0.4-0.4-0.8-0.4-1.2c0-0.4,0.2-0.7,0.5-1.1
		c0.3-0.3,0.5-0.4,0.8-0.4c0.2,0,0.5,0,0.8,0.2L335,773c-0.1-0.1-0.1-0.1-0.2-0.1c-0.1,0-0.2,0-0.2,0c-0.1,0-0.1,0.1-0.2,0.1
		c-0.1,0.1-0.2,0.3-0.2,0.5c0,0.2,0.1,0.3,0.3,0.5c0.2,0.3,0.4,0.4,0.5,0.4c0.1,0,0.3,0,0.4-0.1c0.1-0.1,0.2-0.2,0.2-0.4
		C335.6,773.9,335.5,773.7,335.4,773.5z"/>
	<path id="_x31_4" d="M338.4,772.3l-0.9,0.5l0.1,0.5l-0.8,0.5l-0.4-3.3l0.8-0.5l2.2,2.2l-0.8,0.5L338.4,772.3z M338,771.8l-0.7-0.8
		l0.2,1.1L338,771.8z"/>
	<path id="_x31_3" d="M340.6,768.7l1.3-0.2c0.2,0,0.5,0,0.6,0c0.2,0,0.3,0.1,0.4,0.3c0.1,0.1,0.2,0.3,0.3,0.4
		c0.1,0.2,0.1,0.4,0.2,0.6c0.1,0.3,0.1,0.6,0,0.8c0,0.2-0.1,0.4-0.2,0.5c-0.1,0.1-0.2,0.3-0.3,0.3c-0.2,0.1-0.3,0.2-0.5,0.2
		l-1.3,0.2L340.6,768.7z M341.6,769.2l0.3,1.7l0.2,0c0.2,0,0.3-0.1,0.4-0.1c0.1-0.1,0.1-0.1,0.1-0.3c0-0.1,0-0.3,0-0.5
		c-0.1-0.3-0.1-0.5-0.2-0.6c-0.1-0.1-0.3-0.1-0.5-0.1L341.6,769.2z"/>
	<path id="_x31_2" d="M344.2,768.1l2.3,0.1l0,0.7l-1.4-0.1l0,0.5l1.3,0.1l0,0.6L345,770l0,0.6l1.5,0.1l0,0.7l-2.4-0.1L344.2,768.1z"
		/>
	<path id="_x31_1" d="M347.5,768.4l0.8,0.2l-0.5,2.3l1.3,0.4L349,772l-2.1-0.6L347.5,768.4z"/>
	<path id="_x31_0" d="M352,770.1l1.2,0.8c0.3,0.2,0.4,0.4,0.5,0.6c0.1,0.2,0,0.5-0.1,0.7c-0.1,0.3-0.3,0.4-0.6,0.5
		c-0.2,0.1-0.5,0-0.8-0.2l-0.4-0.3l-0.5,1l-0.7-0.5L352,770.1z M352.2,771.7l0.2,0.1c0.1,0.1,0.3,0.1,0.3,0.1c0.1,0,0.2-0.1,0.2-0.2
		c0-0.1,0.1-0.2,0-0.3c0-0.1-0.1-0.2-0.2-0.3l-0.2-0.1L352.2,771.7z"/>
	<path id="_x39_" d="M354.6,775.3l-0.7-0.7l-0.4,0.3l-0.6-0.7l2.7-1.5l0.7,0.7l-1.1,3.1l-0.7-0.7L354.6,775.3z M354.9,774.7l0.5-1.1
		l-0.9,0.6L354.9,774.7z"/>
	<path id="_x38_" d="M355.2,776.8l2.3-1.8l0.8,1.3c0.2,0.2,0.2,0.4,0.3,0.6c0,0.2,0,0.3,0,0.5c-0.1,0.2-0.2,0.3-0.3,0.4
		c-0.1,0.1-0.3,0.2-0.4,0.2c-0.1,0-0.3,0-0.4-0.1c-0.1,0-0.2-0.1-0.3-0.2c0,0.1,0,0.2,0,0.3c0,0,0,0.1,0,0.2c0,0.1-0.1,0.2-0.1,0.2
		l-0.4,0.9l-0.6-0.9l0.4-1c0.1-0.1,0.1-0.2,0.1-0.3c0-0.1,0-0.2-0.1-0.2l0-0.1l-0.9,0.7L355.2,776.8z M357.1,776.5l0.2,0.3
		c0,0,0.1,0.1,0.2,0.2c0,0,0.1,0.1,0.2,0.1c0.1,0,0.1,0,0.2-0.1c0.1-0.1,0.1-0.1,0.1-0.2c0-0.1,0-0.2-0.1-0.3l-0.2-0.3L357.1,776.5z
		"/>
	<path id="_x37_" d="M357.9,781.2l-0.4-1l-0.5,0.1l-0.3-0.9l3-0.1l0.3,1l-2.2,2.2l-0.3-0.9L357.9,781.2z M358.4,780.7l0.8-0.7
		l-1,0.1L358.4,780.7z"/>
	<path id="_x36_" d="M359.2,784.1l0.6-0.1l0.2,1.5l-1.2,0.2c-0.2-0.3-0.4-0.5-0.5-0.7s-0.2-0.5-0.2-0.8c0-0.4,0-0.7,0-0.9
		c0.1-0.2,0.2-0.5,0.4-0.6c0.2-0.2,0.4-0.3,0.7-0.3c0.3-0.1,0.6,0,0.8,0.1c0.2,0.1,0.4,0.3,0.6,0.5c0.1,0.2,0.2,0.5,0.2,0.8
		c0,0.3,0.1,0.6,0,0.8c0,0.2-0.1,0.3-0.2,0.5c-0.1,0.1-0.2,0.2-0.4,0.3l-0.3-0.9c0.1-0.1,0.2-0.1,0.2-0.2c0-0.1,0.1-0.2,0-0.4
		c0-0.2-0.1-0.4-0.3-0.5c-0.1-0.1-0.4-0.1-0.6-0.1c-0.3,0-0.5,0.1-0.6,0.3c-0.1,0.1-0.2,0.3-0.1,0.6c0,0.1,0,0.2,0.1,0.3
		s0.1,0.2,0.2,0.3l0.3,0L359.2,784.1z"/>
	<path id="_x35_" d="M361,788.6l-0.1,1l-1.7-0.2c-0.2,0-0.3-0.1-0.5-0.1s-0.3-0.2-0.4-0.3c-0.1-0.1-0.2-0.3-0.2-0.4
		c0-0.2-0.1-0.4,0-0.7c0-0.2,0-0.3,0.1-0.5c0-0.2,0.1-0.3,0.1-0.4c0.1-0.1,0.2-0.2,0.3-0.3c0.1-0.1,0.2-0.1,0.3-0.2
		c0.2,0,0.3-0.1,0.5,0l1.7,0.2l-0.1,1l-1.7-0.2c-0.2,0-0.3,0-0.4,0.1c-0.1,0.1-0.1,0.2-0.2,0.4c0,0.2,0,0.3,0.1,0.4
		c0.1,0.1,0.2,0.2,0.3,0.2L361,788.6z"/>
	<path id="_x34_" d="M357.9,791.9l0.3-1l-0.4-0.3l0.3-0.9l2.3,2.1l-0.3,1l-3,0.1l0.3-1L357.9,791.9z M358.5,791.9l1.1,0l-0.9-0.7
		L358.5,791.9z"/>
	<path id="_x33_" d="M359.5,794.4l-0.5,0.9l-1.1,0l0.5,1.1l-0.5,0.9l-0.8-2l-1-0.7l0.4-0.8l1,0.7L359.5,794.4z"/>
	<path id="_x32_" class="st7" d="M361.5,786.5c0,10.4-7.6,18.9-17,18.9c-9.4,0-17-8.5-17-18.9c0,0,0,0,0,0c0-10.4,7.6-18.9,17-18.9
		C353.9,767.6,361.5,776.1,361.5,786.5C361.5,786.5,361.5,786.5,361.5,786.5z"/>
	<path id="_x31_" class="st8" d="M357.5,786.5c0,8-5.8,14.5-13,14.5c-7.2,0-13-6.5-13-14.5c0,0,0,0,0,0c0-8,5.8-14.5,13-14.5
		C351.7,772,357.5,778.5,357.5,786.5C357.5,786.5,357.5,786.5,357.5,786.5z"/>
</g>
</svg>
