<?xml version="1.0" encoding="utf-8"?>
<!-- Generator: Adobe Illustrator 23.1.1, SVG Export Plug-In . SVG Version: 6.00 Build 0)  -->
<svg version="1.1" id="Countryflags.com" xmlns="http://www.w3.org/2000/svg" xmlns:xlink="http://www.w3.org/1999/xlink" x="0px"
	 y="0px" viewBox="332 696.5 225 150" style="enable-background:new 332 696.5 225 150;" xml:space="preserve">
<style type="text/css">
	.st0{fill:#006600;}
	.st1{fill:#FFFFFF;}
	.st2{fill:#CC0000;}
	.st3{fill:#F8C300;}
	.st4{fill:none;stroke:#F8C300;stroke-width:4;}
</style>
<g>
	<rect id="_x31_8" x="332" y="696.5" class="st0" width="225" height="150"/>
	<rect id="_x31_7" x="332" y="696.5" class="st1" width="225" height="107.1"/>
	<rect id="_x31_6" x="332" y="696.5" class="st2" width="225" height="42.9"/>
	<path id="_x31_5" class="st3" d="M440,769.5c0.6-1.3,1.8-1.7,2.7-1c0.6,0.5,1,1.3,1,2.2v10.7h1.5v-10.7c0-1.5,1-2.6,2.1-2.6
		c0.7,0,1.3,0.5,1.7,1.3c0.8-3.3-0.5-6.9-3-8s-5.2,0.7-6,4C439.7,766.8,439.7,768.2,440,769.5"/>
	<path id="_x31_4" class="st1" d="M441.1,766.7c1.4-0.4,2.7,0.5,3.4,2c0.7-1.6,2.1-2.4,3.4-2c-0.3-2.5-2-4.3-3.9-3.9
		C442.5,763.1,441.3,764.7,441.1,766.7"/>
	<path id="_x31_3" class="st3" d="M443.7,777.2c-0.3,4.5-3.3,7.8-6.6,7.4c-1.4-0.2-2.6-0.9-3.6-2.2c-1.3,4.3-5,6.5-8.2,4.7
		c-0.5-0.3-0.9-0.6-1.4-1c0.6,7.8,9.4,6.2,10-1.4c2.8,6.5,8.8,4.6,10.6-3.3L443.7,777.2z"/>
	<path id="_x31_2" class="st3" d="M445.3,777.2c0.3,4.5,3.3,7.8,6.6,7.4c1.4-0.2,2.6-0.9,3.6-2.2c1.3,4.3,5,6.5,8.2,4.7
		c0.5-0.3,0.9-0.6,1.4-1c-0.6,7.8-9.4,6.2-10-1.4c-2.8,6.5-8.8,4.6-10.6-3.3L445.3,777.2z"/>
	<path id="_x31_1" class="st3" d="M437.9,791.1c-1.2,3.5-3.7,4.1-5.8,1.3c0,0,0.9-0.8,1.8-1c-0.2-1,0.2-2.3,0.7-3.1
		c0.5,0.5,1.3,1.4,1.4,2.5C437.3,790.6,437.9,791.1,437.9,791.1L437.9,791.1z"/>
	<path id="_x31_0" class="st3" d="M447.5,790.7c-1.6,3.2-4.1,3.3-5.9,0c0,0,0.9-0.6,1.9-0.6c-0.1-1,0.5-2.3,1-2.9
		c0.5,0.6,1.1,1.7,1.1,2.8C446.9,790,447.5,790.7,447.5,790.7L447.5,790.7z"/>
	<path id="_x39_" class="st3" d="M457,792.4c-2,2.8-4.5,2.3-5.8-1.3c0,0,1-0.4,1.9-0.2c0.1-1,0.7-2.1,1.4-2.6c0.4,0.7,0.8,1.9,0.8,3
		C456.5,791.6,457,792.4,457,792.4L457,792.4z"/>
	<path id="_x38_" class="st4" d="M428.9,798.9c10.2-4,21-4,31.2,0"/>
	<polygon id="_x37_" class="st3" points="444.5,742.6 446.9,752.3 440.7,746.3 448.3,746.3 442.1,752.3 	"/>
	<polygon id="_x36_" class="st3" points="433.3,746.6 435.6,756.3 429.4,750.3 437.1,750.3 430.9,756.3 	"/>
	<polygon id="_x35_" class="st3" points="425,757.6 427.4,767.3 421.2,761.3 428.8,761.3 422.7,767.3 	"/>
	<polygon id="_x34_" class="st3" points="422,772.6 424.4,782.3 418.2,776.3 425.8,776.3 419.6,782.3 	"/>
	<polygon id="_x33_" class="st3" points="455.8,746.6 453.4,756.3 459.6,750.3 451.9,750.3 458.1,756.3 	"/>
	<polygon id="_x32_" class="st3" points="464,757.6 461.6,767.3 467.8,761.3 460.2,761.3 466.3,767.3 	"/>
	<polygon id="_x31_" class="st3" points="467,772.6 464.6,782.3 470.8,776.3 463.2,776.3 469.4,782.3 	"/>
</g>
</svg>
