<?xml version="1.0" encoding="utf-8"?>
<!-- Generator: Adobe Illustrator 23.1.1, SVG Export Plug-In . SVG Version: 6.00 Build 0)  -->
<svg version="1.1" id="Countryflags.com" xmlns="http://www.w3.org/2000/svg" xmlns:xlink="http://www.w3.org/1999/xlink" x="0px"
	 y="0px" viewBox="-18 521.5 225 150" style="enable-background:new -18 521.5 225 150;" xml:space="preserve">
<style type="text/css">
	.st0{fill:#0099B5;}
	.st1{fill:#CE1126;}
	.st2{fill:#FFFFFF;}
	.st3{fill:#1EB53A;}
</style>
<g>
	<rect id="_x31_8" x="-18" y="521.5" class="st0" width="225" height="48"/>
	<rect id="_x31_7" x="-18" y="569.5" class="st1" width="225" height="54"/>
	<rect id="_x31_6" x="-18" y="572.5" class="st2" width="225" height="48"/>
	<rect id="_x31_5" x="-18" y="623.5" class="st3" width="225" height="48"/>
	<ellipse id="_x31_4" class="st2" cx="13.5" cy="545.5" rx="13.5" ry="18"/>
	<ellipse id="_x31_3" class="st0" cx="18" cy="545.5" rx="13.5" ry="18"/>
	<polygon id="_x31_2" class="st2" points="40.6,530 42.2,531.5 41.6,534 43.1,532.5 44.7,534 44.1,531.5 45.7,530 43.7,530 
		43.1,527.5 42.5,530 	"/>
	<polygon id="_x31_1" class="st2" points="51.4,530 53,531.5 52.4,534 53.9,532.5 55.5,534 54.9,531.5 56.5,530 54.5,530 
		53.9,527.5 53.3,530 	"/>
	<polygon id="_x31_0" class="st2" points="62.2,530 63.8,531.5 63.2,534 64.7,532.5 66.3,534 65.7,531.5 67.3,530 65.3,530 
		64.7,527.5 64.1,530 	"/>
	<polygon id="_x39_" class="st2" points="40.8,544.4 42.4,545.9 41.7,548.4 43.3,546.9 44.9,548.4 44.3,545.9 45.9,544.4 
		43.9,544.4 43.3,541.9 42.7,544.4 	"/>
	<polygon id="_x38_" class="st2" points="51.6,544.4 53.2,545.9 52.5,548.4 54.1,546.9 55.7,548.4 55.1,545.9 56.7,544.4 
		54.7,544.4 54.1,541.9 53.5,544.4 	"/>
	<polygon id="_x37_" class="st2" points="62.4,544.4 64,545.9 63.3,548.4 64.9,546.9 66.5,548.4 65.9,545.9 67.5,544.4 65.5,544.4 
		64.9,541.9 64.3,544.4 	"/>
	<polygon id="_x36_" class="st2" points="30,544.4 31.6,545.9 30.9,548.4 32.5,546.9 34.1,548.4 33.5,545.9 35.1,544.4 33.1,544.4 
		32.5,541.9 31.9,544.4 	"/>
	<polygon id="_x35_" class="st2" points="40.6,558.8 42.2,560.3 41.6,562.8 43.2,561.3 44.8,562.8 44.2,560.3 45.8,558.8 
		43.8,558.8 43.2,556.3 42.6,558.8 	"/>
	<polygon id="_x34_" class="st2" points="51.4,558.8 53,560.3 52.4,562.8 54,561.3 55.6,562.8 55,560.3 56.6,558.8 54.6,558.8 
		54,556.3 53.4,558.8 	"/>
	<polygon id="_x33_" class="st2" points="62.2,558.8 63.8,560.3 63.2,562.8 64.8,561.3 66.4,562.8 65.8,560.3 67.4,558.8 
		65.4,558.8 64.8,556.3 64.2,558.8 	"/>
	<polygon id="_x32_" class="st2" points="29.8,558.8 31.4,560.3 30.8,562.8 32.4,561.3 34,562.8 33.4,560.3 35,558.8 33,558.8 
		32.4,556.3 31.8,558.8 	"/>
	<polygon id="_x31_" class="st2" points="19,558.8 20.6,560.3 20,562.8 21.6,561.3 23.2,562.8 22.6,560.3 24.2,558.8 22.2,558.8 
		21.6,556.3 21,558.8 	"/>
</g>
</svg>
