<?xml version="1.0" encoding="UTF-8" standalone="no"?>
<svg
   xmlns:dc="http://purl.org/dc/elements/1.1/"
   xmlns:cc="http://creativecommons.org/ns#"
   xmlns:rdf="http://www.w3.org/1999/02/22-rdf-syntax-ns#"
   xmlns:svg="http://www.w3.org/2000/svg"
   xmlns="http://www.w3.org/2000/svg"
   xmlns:xlink="http://www.w3.org/1999/xlink"
   xmlns:sodipodi="http://sodipodi.sourceforge.net/DTD/sodipodi-0.dtd"
   xmlns:inkscape="http://www.inkscape.org/namespaces/inkscape"
   width="600"
   height="400"
   version="1.1"
   id="svg26"
   sodipodi:docname="vanuatu-flag.svg"
   inkscape:version="0.92.4 (5da689c313, 2019-01-14)">
  <metadata
     id="metadata32">
    <rdf:RDF>
      <cc:Work
         rdf:about="">
        <dc:format>image/svg+xml</dc:format>
        <dc:type
           rdf:resource="http://purl.org/dc/dcmitype/StillImage" />
        <dc:title></dc:title>
      </cc:Work>
    </rdf:RDF>
  </metadata>
  <defs
     id="defs30" />
  <sodipodi:namedview
     pagecolor="#ffffff"
     bordercolor="#666666"
     borderopacity="1"
     objecttolerance="10"
     gridtolerance="10"
     guidetolerance="10"
     inkscape:pageopacity="0"
     inkscape:pageshadow="2"
     inkscape:window-width="1920"
     inkscape:window-height="1017"
     id="namedview28"
     showgrid="false"
     fit-margin-top="0"
     fit-margin-left="0"
     fit-margin-right="0"
     fit-margin-bottom="0"
     inkscape:zoom="0.31555556"
     inkscape:cx="1131.338"
     inkscape:cy="237.5"
     inkscape:window-x="-8"
     inkscape:window-y="-8"
     inkscape:window-maximized="1"
     inkscape:current-layer="svg26" />
  <clipPath
     id="c">
    <path
       d="M 0,0 V 475 L 420,280 H 900 V 195 H 420 Z"
       id="path2"
       inkscape:connector-curvature="0"
       style="fill:#000000" />
  </clipPath>
  <g
     id="g45"
     transform="scale(0.66666666,0.84210526)">
    <rect
       id="rect5"
       height="475"
       width="900"
       x="0"
       y="0"
       style="fill:#009543" />
    <rect
       id="rect7"
       height="237.5"
       width="900"
       x="0"
       y="0"
       style="fill:#d21034" />
    <g
       id="g13"
       clip-path="url(#c)">
      <path
         id="path9"
         d="m 0,0 420,195 h 480 v 85 H 420 L 0,475"
         inkscape:connector-curvature="0"
         style="fill:#000000;stroke:#fdce12;stroke-width:110" />
      <path
         id="path11"
         d="m 0,0 420,195 h 480 m 0,85 H 420 L 0,475"
         inkscape:connector-curvature="0"
         style="fill:none;stroke:#000000;stroke-width:60" />
    </g>
    <g
       id="g24"
       style="fill:#fdce12">
      <path
         id="path15"
         d="m 106.868,282.937 v 27.0634 c 23.5442,0 69.7503,-18.0417 69.7503,-76.1299 0,-58.0883 -49.2867,-68.8699 -64.0295,-68.8699 -14.7417,0 -60.2883,10.5616 -60.2883,58.0883 0,47.5267 44.6667,51.9275 53.4675,51.9275 8.80086,0 41.8058,-7.92164 38.0658,-43.5667 0,10.1217 -11.4417,31.465 -35.4258,31.465 -23.9833,0 -38.945,-17.8233 -38.945,-35.425 0,-17.6034 14.5216,-41.1467 39.825,-41.1467 25.3033,0 43.7858,22.4425 43.7858,45.1067 0,22.6633 -17.8216,51.4875 -46.2058,51.4875 z"
         inkscape:connector-curvature="0" />
      <g
         id="f">
        <path
           id="path17"
           d="m 86.2402,247.704 1.4025,0.9075 c 0,0 11.1392,-25.4134 41.0908,-43.4833 -3.79583,2.06251 -23.8458,12.0467 -42.4933,42.5758 z"
           inkscape:connector-curvature="0"
           style="stroke:#fdce12;stroke-width:0.83333302" />
        <path
           id="path19"
           d="m 89.1278,243.331 c 0,0 -3.465,-7.09585 -0.412497,-10.2308 3.05333,-3.13583 1.65083,8.33331 1.65083,8.33331 l 1.32,-1.8975 c 0,0 -2.06333,-8.66419 0.247504,-10.4792 2.31,-1.815 1.155,8.33331 1.155,8.33331 l 1.4025,-1.815 c 0,0 -1.485,-8.41585 0.742504,-9.98419 2.22833,-1.5675 0.825833,7.92164 0.825833,7.92164 l 1.65,-1.89834 c 0,0 -1.2375,-8.0033 1.485,-9.90082 2.723326,-1.89833 0.33,7.59082 0.33,7.59082 l 1.814996,-1.98 c 0,0 -0.825,-7.34419 1.48583,-8.99419 2.31,-1.65 0.33,6.93083 0.33,6.93083 l 1.65,-1.73251 c 0,0 -0.495,-6.84833 1.7325,-8.41585 2.22833,-1.56833 0.165,6.51834 0.165,6.51834 l 1.73333,-1.65084 c 0,0 -0.4125,-6.84833 2.3925,-8.16833 2.805,-1.32 -0.495,6.43585 -0.495,6.43585 l 1.8975,-1.65 c 0,0 0.5775,-8.00331 2.97084,-8.74668 2.3925,-0.7425 -1.0725,7.09668 -1.0725,7.09668 l 1.7325,-1.40333 c 0,0 0.9075,-6.84834 3.5475,-7.67331 2.64083,-0.825 -1.65,6.27083 -1.65,6.27083 l 1.7325,-1.32 c 0,0 1.89833,-6.84834 4.37333,-7.59082 2.47583,-0.7425 -2.5575,6.43585 -2.5575,6.43585 l 1.65,-1.155 c 0,0 2.7225,-6.18916 4.95083,-6.60164 2.2275,-0.4125 -2.47583,5.11583 -2.47583,5.11583 l 2.06333,-1.2375 c 0,0 3.5475,-6.43585 4.78584,-4.45583 1.23749,1.98083 -4.95084,4.86833 -4.95084,4.86833 l -2.06333,1.155 c 0,0 7.50916,-3.5475 8.41668,-1.7325 0.9075,1.815 -10.3142,2.97083 -10.3142,2.97083 l -1.815,1.2375 c 0,0 7.50833,-2.06333 6.60082,-0.165 -0.90751,1.8975 -8.33331,1.485 -8.33331,1.485 l -1.73333,1.2375 c 0,0 7.50833,-1.815 6.51833,-0.0825 -0.99,1.7325 -8.3333,1.5675 -8.3333,1.5675 l -1.815,1.48584 c 0,0 7.34337,-1.89834 6.27083,0.33 -1.07333,2.22749 -9.40667,2.145 -9.40667,2.145 l -2.0625,1.89749 c 0,0 7.75585,-2.64 7.09585,-0.57749 -0.66,2.06333 -9.48916,3.13583 -9.48916,3.13583 l -1.98,1.98 c 0,0 8.33331,-2.805 5.85834,-0.2475 -2.475,2.55833 -8.49834,3.21833 -8.49834,3.21833 l -2.393326,2.8875 c 0,0 8.251646,-4.95083 7.095856,-2.145 -1.155,2.805 -9.240816,4.70334 -9.240816,4.70334 l -1.65,1.98 c 0,0 7.425846,-4.29084 6.683296,-1.8975 -0.7425,2.3925 -8.664186,4.95 -8.664186,4.95 l -1.32,1.81583 c 0,0 8.745846,-5.19833 8.003306,-2.55833 -0.7425,2.64083 -9.075856,4.53833 -9.075856,4.53833 l -1.0725,1.65 c 0,0 8.08585,-4.62 8.16834,-2.3925 0.0825,2.2275 -9.48916,4.45583 -9.48916,4.45583 l -0.165,-1.89833 z"
           inkscape:connector-curvature="0" />
      </g>
      <use
         id="use22"
         transform="matrix(-1,0,0,1,220,0)"
         xlink:href="#f"
         x="0"
         y="0"
         width="100%"
         height="100%" />
    </g>
  </g>
</svg>
