<?xml version="1.0" encoding="utf-8"?>
<!-- Generator: Adobe Illustrator 23.1.1, SVG Export Plug-In . SVG Version: 6.00 Build 0)  -->
<svg version="1.1" id="Layer_1" xmlns="http://www.w3.org/2000/svg" xmlns:xlink="http://www.w3.org/1999/xlink" x="0px" y="0px"
	 viewBox="0 0 6480 4320" style="enable-background:new 0 0 6480 4320;" xml:space="preserve">
<style type="text/css">
	.st0{fill:#C8102E;}
	.st1{fill:#012169;}
	.st2{fill:#FFFFFF;}
	.st3{fill:#2F8F22;}
	.st4{fill:#C8102E;stroke:#000000;stroke-width:0.831;stroke-linejoin:round;}
	.st5{fill:#64B4D1;stroke:#000000;stroke-width:0.623;}
	.st6{fill:#FFFFFF;stroke:#012169;stroke-width:0.8307;stroke-miterlimit:10;}
	.st7{fill:none;stroke:#000000;stroke-width:0.8307;stroke-miterlimit:10;}
	.st8{fill:#784421;stroke:#000000;stroke-width:0.623;}
	.st9{fill:#64B4D1;stroke:#012169;stroke-width:0.623;stroke-miterlimit:2.613;}
	.st10{fill:#F5CE00;stroke:#000000;stroke-width:0.8307;stroke-miterlimit:2.613;}
	.st11{fill:#E4CB5E;stroke:#000000;stroke-width:0.623;stroke-miterlimit:2.613;}
	.st12{fill:none;stroke:#000000;stroke-width:0.623;stroke-miterlimit:10;}
	.st13{fill:#784421;stroke:#000000;stroke-width:0.3804;}
	.st14{fill:none;stroke:#000000;stroke-width:0.8307;stroke-miterlimit:2.613;}
	.st15{fill:none;stroke:#000000;stroke-width:0.623;stroke-miterlimit:2.613;}
	.st16{fill:none;stroke:#012169;stroke-width:0.8307;stroke-miterlimit:10;}
	.st17{fill:#784421;}
	.st18{fill:none;stroke:#000000;stroke-width:2;}
</style>
<g>
	<path class="st0" d="M0,0h6480v4320H0V0z"/>
	<path class="st1" d="M0,0h3240v2160H0V0z"/>
	<g transform="scale(8.333333)">
		<path class="st2" d="M0,0v29l345.3,230.2h43.5v-29L43.5,0H0z M388.8,0v29L43.5,259.2H0v-29L345.3,0H388.8z"/>
		<path class="st2" d="M162,0v259.2h64.8V0H162z M0,86.4v86.4h388.8V86.4H0z"/>
		<g>
			<path class="st0" d="M0,103.7v51.8h388.8v-51.8H0z M175,0v259.2h38.9V0H175z"/>
			<path class="st0" d="M0,259.2l129.6-86.4h29L29,259.2H0z M0,0l129.6,86.4h-29L0,19.3V0z M230.2,86.4L359.8,0h29L259.2,86.4H230.2
				z M388.8,259.2l-129.6-86.4h29l100.6,67.1V259.2z"/>
		</g>
	</g>
	<path class="st2" d="M5607.5,921.6V2751c0,488.7-732.6,647.4-732.6,647.4s-732.6-158.8-732.6-647.4V921.6H5607.5z"/>
	<path class="st3" d="M5607.5,2751c0,488.7-732.6,647.4-732.6,647.4s-732.6-158.8-732.6-647.4c0,0,0-39.4,14.9-61.7
		c0,0-8.1,81.3,38.8,142.8c0,0-36.7-86.7-0.8-171.9c0,0-13.3,109.7,37.9,172.6c0,0-28.3-89.6,3.6-189.4c0,0-15.7,163.4,40,196
		c0,0,15.3-93.9-6.9-154.2c0,0,38.4,20.6,36.3,156.9c0,0,12.1-20.1,15.3-118.3c0,0,1.6,112.4,30.7,138.4c0,0,8.9-11.4-3.2-62.4
		s5.2-68.9,8.1-67.9c0,0-6.4,56.5,29.1,98.8c0,0-15.4-88.5,6-100.4c0,0-4.4,74.9,40,91.7c0,0,3.2-21.7-6.5-46.1c0,0-8.5-29-2-51.1
		c0,0,14.1,68,33.5,79.4c0,0-11.7-39.8-0.8-79.4c0,0,2.4,56.6,40.4,79.9c0,0-25-43.8-15.1-91.9l244,15.9l126.4,8l379.1-35.7
		l65.4-74.9c0,0,25.8,47.8-14.9,123.2c0,0,40.4-9.8,53.3-93.9c0,0,16.6,46.7-6.1,98.3c0,0,44.8-59.7,51.3-127.6
		c0,0,17.4,65.7-25,136.3c0,0,37.9-16.8,54.1-91.7c0,0,12.9,45.1-23.8,108.9c0,0,68.6-48.6,66.6-149c0,0,28.7,55.4-4,131.4
		c0,0,35.1-41.8,38.4-104.2c0,0,19.4,28.2-1.6,105.8c0,0,42.8-53.7,49.3-111.8c0,0,9.3,53.7-27.5,121.6c0,0,25-8.1,48.9-74.4
		c0,0,6.5,26.1-15.3,73.8c0,0,23.4-5.4,39.2-65.1c0,0,2.8,35.8-4,67.9c0,0,18.2-15.7,22.2-83.6c0,0,10.1,22.3,10.3,49.9
		C5607.7,2769.2,5607.5,2751,5607.5,2751L5607.5,2751z"/>
	<g>
		<path class="st4" d="M5230.3,1693.4c0,0-25.5,5.8-58.2-7.5c-32.7-13.3-45.9-7.9-56.1,0c0,0,13.3-35-19-62.7c0,0,10.5,35.4-4,51.9
			c0,0-6.5,8.1-14.1-4.1c0,0-11.3-15.5-23.2-27.4c0,0,27.5-12.8,22.4-49.9s-20-42.1-28.1-46.7c0,0,2.8,16.8,0,28.2
			c0,0-29.9-22.3,10.7-53.7c40.6-31.5,33.1-49.9,25.8-66c-7.3-16-22.8-33.7-30.5-39.9c0,0,8.1,16.8,6.7,31.2
			c-1.4,14.4-19.8,23.6-16.1-1.6c3.6-25.2-0.2-20.9-0.6-47.8c0,0,36.1,16.3,50.3-30.7c0,0,13.9-48.6-31.7-72.7
			c0,0,11.1,19.8,5.7,34.7c0,0-9.7,24.4-21.2,4.6c-11.5-19.8-18.8-23.6-17.6-47c0,0,41.4,7.6,30.1-52.4c0,0-6.7,39.9-60.4-13.8
			c0,0,34.9-47.8,21.4-86.3c0,0-4.2-17.6-42.2-7.3c0,0,32.9-27.7,19-51.3c0,0-7.1-15.7-37.7,4.9c0,0,11.9-27.4-18.2-57
			c0,0-20.2,14.1-30.9,27.1c0,0-20.6-34.7-33.7-48.6c0,0-23.8,12.2-29.9,48.6c0,0-11.1-17.6-36.3-25.8c0,0-12.1,29.9,3.6,55.9
			c0,0-11.7-0.5-33.1-13c0,0-24.4-15.5-20.8,12.5c3.6,28,5.4,34.2,10.3,47.2c0,0-54.8-17-52.5,22.5c1.6,27.4,9.3,51,26.2,70.8
			c0,0-30.7,53.5-56.9,13.3c0,0-9.1,13,10.5,47.2c0,0,19.6,28.8,3.4,47c0,0-21.6,23.1-32.1-21.7c0,0-34.9,46.4,6.3,82
			c0,0,26.4,20.1,53.5-10.9c0,0-8.3,89-34.1,71.9c0,0-15.5-15.2,12.3-33.4c0,0-40.2-6.8-46.6,45.1c0,0-5,41.2,30.1,56.2
			c0,0,27,13-1,41c0,0-19.8,20.1-6.9,49.9c0,0,15.5,32.8-23.8,36.1c0,0-21.4-0.3-29.1-4.1c0,0-8.6,21.4-2.6,45.9
			c0,0-19.6-19.5-64.2,2.1c-44.6,21.6-41.2,6.4-44.8,12.9c-3.6,6.5-12.3,28.5-12.3,28.5s23.4,38,23.8,37.2s-4.4,43.4-4.4,43.4
			l11.5,7.3l91.8-54.6l93.3-64.8l75,6.1l47.6,15.1l62.5,6.1l44.7-31.8h64.8l71.3,47.3l81.3,64.7l42.4,9.9l32.7-2.3v-87.8
			L5230.3,1693.4z"/>
		<path class="st4" d="M4490.5,1796.1c0,0,35.5,24.2,50.4-5.2c0,0,19.4-49.3-23.2-66.4c0,0,23.2-37-1.7-71.2c0,0-13-18.3-35.7-4.9
			c0,0-9.4-26.1-31.5-25.2c0,0-19.4-0.4-26,28.1c0,0-26.6-14.7-41.5,6.5c0,0-24.5,36.6,9.7,65.6l24.6,3l24.2-14.9l27,10.3
			C4466.9,1721.8,4459.9,1758.3,4490.5,1796.1L4490.5,1796.1z"/>
		<path class="st5" d="M5283.5,1709.5c42.8-5.4,57.9,42.8,57.9,42.8c22.4,70.2-25.2,107.6-25.2,107.6c3.6,15.7,4,36.4,4,36.4
			c67,10.9,55.3,111.3,55.3,111.3l-22.2-24.4c-38.8-20.1-78.7,23.9-107.4,97.7c-28.7,73.8-14.9,108.6-10.1,196
			c4.8,87.4,111.4,139.5,111.4,139.5s-50.5,173.2-83.2,284.4s-100.9,65.1-120.7,41.7c-19.8-23.4-24.7-10.4-34.7,0
			s44.8,67.4-54.9,121.2c-99.7,53.7-117.1,95-133.6,108.6c-16.6,13.6-85.6,4.3-92.5-7.1c-6.9-11.4-2.8-11.4-28.7-32.6
			c-25.8-21.2-69.4-39.6-117.1-70.6c-47.6-30.9-46.4-70.6-46-78.7c0.4-8.1,16.6-74.4-39.2-21.7c-55.8,52.7-103.3-25.1-103.3-25.1
			c-10.9-19.1-57.3-185-57.3-185c-12.5-61.9-37.1-134.1-37.1-134.1c1.2-0.5-2.4,7.6,38.8-23.9s59.6-83.9,73.9-135.7
			c14.3-51.8,0.4-140.6-4.8-158.5c-5.2-17.9-35.9-100-73.9-117.3s-63.5,25.5-63.5,25.5s-11.7-100.4,55.3-111.3c0,0,0.4-20.6,4-36.4
			c0,0-47.6-37.5-25.2-107.6c0,0,15.1-48.2,57.9-42.8l-10.4,26.1c0,0-10.8,143.3,146.6,47.2c157.3-96.1,152.6-114,242.2-53.7
			l65.4-1.6c0,0,94.5-58.3,124.7-33.2c30.3,25.1,139.3,106.5,139.3,106.5s105.4,52.7,126-44.5L5283.5,1709.5z"/>
	</g>
	<path class="st6" d="M4810.2,2330.8c0,0-5.5-44-11.2-72.5c0,0-11.7-44.7,8.2-76.1l24.7-37.9c0,0,15.4-27.5,34.4-31.3
		c0,0,19-0.8,20.8-5.9c1.8-5.2,22.6-50.8,72.1,0c0,0,15.7-33.7,40-39.4c0,0,26.2-10.6,38.8,15.5c0,0,29.4-29.7,54.6,18.1
		c0,0,34.9-26.2,60.4,25.9c0,0,34.5-22.4,55.7,25.4c21.2,47.8,17,67.4,17,67.4l15.7,76l55.7,91.7l-129.6,65.1h-58.1l-116.3,41.5
		l-206.5,21.2l-57.5-90.4L4810.2,2330.8z"/>
	<g>
		<path class="st4" d="M4635.6,2788.4c0,0-30.9,2.4-46.6,13c-15.7,10.6-27.9,22-46,37.5c0,0-8.5,15.1-44.2,5.9
			c0,0-61.8-19.7-61.8,44.6c0,0-73.9,8.1-43.6,94.5c0,0,20.6,67.6,63,19.5c0,0-27.2,52.1,25.4,72.5c0,0,37.5,12.2,48.4-39.1
			c0,0,6.1-20.4-8.5-45.6c0,0,18.2-4.9,30.9-30.9c0,0-38.8,65.3,3.6,88.8c0,0,53.3,17.8,56.3-56.3c0,0-4.3-34.2,16.3-46.4
			c0,0,42.5-13,61.8-76.1C4690.7,2870.3,4629.7,2826.9,4635.6,2788.4L4635.6,2788.4z"/>
		<path class="st4" d="M4510.9,2139c0,0-47.6-29.3-70.2,0c0,0-31.5-26-64.6,0c0,0-31.5,27.4-53.3,57.7c0,0-15.3,17.5-9.7,72.7
			c0,0,8.1,38.9,3.2,58.5c0,0-10.5-2.8-31.5,30.4c0,0-26.6,41.1-50.1,4.8c0,0,7.3,50.5,51.3,42.4c0,0-21.4,22.3-2.8,79.8
			c0,0,13.7,40.7-8.1,91.7c0,0,38.4-20.6,36.7-80.9c0,0-3.2-40.7,8.1-69.5c0,0-11.3,26.2,14.9,82c0,0,20.2,40.2,3.6,82
			c0,0,37.9-18.5,34.3-79.8c-3.6-61.3-26.6-35.8-11.7-92.3c0,0,3.6,28.9,14.9,43.5s25.8,39,19.8,79.7c0,0,22.6-37.5,17.4-76
			c-5.2-38.5-10.9-50.2-10.9-50.2l71.5-54l35.5-85.8L4510.9,2139z"/>
		<g>
			<path class="st7" d="M4402.3,2381c0,0-29.5-2.7-34.3-33.1"/>
			<path class="st7" d="M4316.3,2327.8c0,0,10.3-0.5,19.6,11.9c0,0,7.1,14.1,17.2,12.5"/>
		</g>
	</g>
	<path d="M4445.9,2265.4c0,0-15.3,0-23.8-9.8c0,0-8.9-8.1-14.1,4.9c0,0-8.1,18.5,6.9,26.6c0,0,18.6,12.5-10.9,37.5
		c0,0,35.1-16.8,21-39.6c0,0-15.3-14.7-9.7-20.1c0,0,1.6-4.3,7.7,1.1C4429,2271.4,4441.1,2269.2,4445.9,2265.4z"/>
	<path class="st8" d="M4927.4,2369.1l-118.1-543.6l-4.3,1.5l104.3,550.2L4927.4,2369.1z"/>
	<path d="M4516.3,2978.9c0,0-27.9-20.9-50.9,3.6c0,0,2.4-13.6,20-19.5c0,0,9.5-35.8,36.2-32.6c0,0-10.9,17.4-25.4,32
		C4496.1,2962.4,4511.5,2964.5,4516.3,2978.9z"/>
	<path class="st9" d="M4418.2,3065.3c0,0-44.2-37-20.3-99.3c0,0,7-17.9,20.3-14.2c0,0,27.6,11.4,6.1,62.3
		C4424.3,3014,4413.4,3047,4418.2,3065.3L4418.2,3065.3z"/>
	<path class="st9" d="M4507.9,3123.9c0,0-63-38.3-43.6-103.4c0,0,6-22,20-20.4c0,0,24.3,1.6,19.4,44.8
		C4503.6,3044.9,4496.3,3087.3,4507.9,3123.9L4507.9,3123.9z"/>
	<path d="M4494.5,2880.8c0,0-18.9,18.6-26.6,31.1c0,0-7.7-12.8-17.8-20.5c0,0,11.6-2,17.8,4.9
		C4467.9,2896.4,4477.6,2883.9,4494.5,2880.8z"/>
	<path class="st9" d="M4550.5,3107.6c0,0,49.4-16.7,40.3-84.7c0,0-4.8-29.7-25.7-25.7c0,0-25.2,8.6-8.8,51.8
		C4556.3,3049.1,4566,3079.9,4550.5,3107.6L4550.5,3107.6z"/>
	<path class="st10" d="M4773.5,1669.3c0,0,31.8,13,49.1,22.4c0,0,46,27.7,104.5,0c0,0,39.5-20.9,44.8-22.4l-30.3,61.5l-1.5,31.8
		l18.9,37c0,0-11.4,6.1-45.3-21.6c0,0-37.5-38.7-82.4,0c0,0-24.5,22.2-45.1,21.6l29.1-43.3l-11.2-39L4773.5,1669.3z"/>
	<path class="st2" d="M4569.6,3026.4c0,0,1.8-3.3-0.3-4.7c0,0-2.1-1.2-3.6,2.7c0,0-5.1,10.9-0.8,25.8c0,0,4.1,10.3,2.1,21.1
		c0,0-0.3,3,1.5,3.5c0,0,1.7-0.8,2.1-3.1c0,0,2.5-10.5-1.8-20.8C4568.9,3051,4563.7,3035,4569.6,3026.4L4569.6,3026.4z"/>
	<g>
		<path class="st4" d="M5253.3,1796.1c0,0-35.5,24.2-50.4-5.2c0,0-19.4-49.3,23.2-66.4c0,0-23.2-37,1.7-71.2c0,0,13-18.3,35.7-4.9
			c0,0,9.4-26.1,31.5-25.2c0,0,19.4-0.4,26,28.1c0,0,26.6-14.7,41.5,6.5c0,0,24.5,36.6-9.7,65.6l-24.6,3l-24.2-14.9l-27,10.3
			C5276.9,1721.8,5283.8,1758.3,5253.3,1796.1L5253.3,1796.1z"/>
		<path class="st10" d="M4971.9,1757.9c0,0-0.9,9.8-8.2,10.9c0,0-7.6,3.3-12-9.3c0,0-0.5-2.9-0.6-4.2c-0.5-5.9-2-22.8,11.7-36.6
			c0,0,22.4-24.4,65.2,5.2c0,0,33.9,21.7,57.3,40.2c0,0,60.6,43.4,67.8,46.7c0,0,26.6,17.9,67.4,20.1c0,0,55.7,5.4,79.3-46.7
			c0,0,18-39.6,0-64.9c0,0-7.3-11.4-19.2-9.3c-5,0.9-10.6,4-15.9,12.3c0,0-8.7,16.8,1.4,29.3c0,0,13.1,10.7,17.8-11.9
			c0,0,0.2-1.6,0.6,0.4c0.3,1.3,3.2,18.6-3.7,33.2c0,0-33.6,67.8-126.1-2.5l-121.9-91.2c0,0-61.2-41.8-97.7,23.6
			c0,0-29.5,54.3,8.5,89.8c0,0,28.3,22.5,46-13.3c0,0,14.7-35.3-8.5-50.8c0,0-20.4-12.8-28.5,14.4c-8.1,27.1,15.7,34.2,18,14.9
			C4970.6,1758.1,4971.3,1753.5,4971.9,1757.9L4971.9,1757.9z"/>
		<g>
			<path class="st11" d="M4488.6,2037.7c0,0,0-84.7,0-101.8c0-8,0-14.7,9.1-24.4s18.8-25.2,32.7,18.7c0,0,27.2-38.3,36.3-44
				c0,0,15.7-17.9,26.6,8.1c0,0,14.5-29.3,26-36.6c0,0,27.2-23.6,28.5,47.2l21.2-26.1c0,0,16.3-17.9,34.5,6.5
				c0,0,30.9,39.9,35.1,51.3c0,0,6.8,12.3,7.3,31.8c0,0-0.1,21.9,8.4,34.1c0,0,9.7,11.4,19.1,13.8c0,0,22.1,0.8,30,28.5
				c0,0,3.6-4.8,14.5,127.9v241.8l-122.3,194.6l-196.2-74.9l-78.1-43.2l-17.6-76.5l75.7-65.1l41.2-148.2l-13.3-104.2L4488.6,2037.7z
				"/>
			<path class="st8" d="M5029.2,2166.1l9.3-18.5l22.2-22.8c0,0,33.9,118.7,35.5,144.6v36.8c0,0,50.9,17.3,59.8,121.5l-42,103.1
				l-65.8-48.9l-19-18.5L5029.2,2166.1L5029.2,2166.1z"/>
		</g>
	</g>
	<path class="st2" d="M4406,2980.8c0,0,2.4-4.3,0.8-6.1c0,0-1.1-2-3.9,2.9c0,0-13.4,19.9-2.7,50.6c0,0,1.2,4.4,3.3,2.9
		c0,0,1.8-1.2,0.1-4.9C4403.5,3026.2,4394,3001,4406,2980.8z"/>
	<g>
		<path class="st7" d="M4604.3,2960.8c0,0,2-9.2-2.8-19c0,0-3.2-7.1-2-16.3"/>
		<path class="st12" d="M4647.9,1905c0,0,0.2,25.5,5.6,44.2s23.9,51.1,25.1,68.6"/>
		<path class="st4" d="M5109.3,2788.4c0,0,30.9,2.4,46.6,13c15.7,10.6,27.9,22,46,37.5c0,0,8.5,15.1,44.2,5.9
			c0,0,61.8-19.7,61.8,44.6c0,0,73.9,8.1,43.6,94.5c0,0-20.6,67.6-63,19.5c0,0,27.2,52.1-25.4,72.5c0,0-37.5,12.2-48.4-39.1
			c0,0-6.1-20.4,8.5-45.6c0,0-18.2-4.9-30.9-30.9c0,0,38.8,65.3-3.6,88.8c0,0-53.3,17.8-56.3-56.3c0,0,4.3-34.2-16.3-46.4
			c0,0-42.5-13-61.8-76.1C5054.2,2870.3,5115.3,2826.9,5109.3,2788.4L5109.3,2788.4z"/>
		<g>
			<g>
				<path class="st12" d="M4623.5,2017.8l50.4,542.4"/>
				<path class="st12" d="M4635.2,2016.6l56.5,505.6"/>
				<path class="st12" d="M4645.8,2014.2l65.1,501.4"/>
			</g>
			<path class="st8" d="M4766.8,2464.4l-118.1-543.6l-4.3,1.5l104.3,550.2L4766.8,2464.4z"/>
			<g>
				<path class="st12" d="M4681.9,1994.3l119.2,401.7"/>
				<path class="st12" d="M4673.9,2000.8l115.1,419.6"/>
			</g>
		</g>
	</g>
	<path class="st2" d="M4485,3085.4c0,0-13.8-17.7-11.9-49.4c0,0,0.8-6.8-1.7-7.7c0,0-2.7-1.5-3.1,6.4c0,0-3.8,33.1,12.9,52.1
		c0,0,1.1,1.9,3,1.4C4484.2,3088.1,4486.2,3087.5,4485,3085.4z"/>
	<g>
		<path class="st12" d="M4687.2,1988.9l122.9,366.4"/>
		<path class="st12" d="M4653.6,2011.6l75.4,493.4"/>
		<path class="st10" d="M5270.4,2377.3c-53.8-40.7-65.7-131.1-65.7-131.1c-13-90,13.3-161.2,13.3-161.2
			c34.8-98.1,94.5-116.4,94.5-116.4s-58.5,54.1-74.8,127c0,0-12.7,61.5-5.4,122.1c7.3,60.7,4.5,45.2,15.7,92L5270.4,2377.3z"/>
		<path class="st13" d="M5038.5,2147.6l-226.3,95.3l-12.3,134.4c-53.7,103.7-162.8,122.1-162.8,122.1l84.9,120.5l163.1,45.6
			l85.6-87.9l77.5-95.5c-8.1-51-3.6-126.7-3.6-126.7c0-12.8,3.6-42.6,3.6-42.6S5034.8,2190,5038.5,2147.6L5038.5,2147.6z"/>
		<g>
			<path class="st12" d="M4803,2343.5c0,0,149-62,237.9-111.9"/>
			<path class="st12" d="M4731.4,2456.8c0,0,185.9-44.8,316.7-144.1l48-43.3"/>
			<path class="st12" d="M5096.2,2306.2l-51.7,49.1c0,0-207.9,127.8-366.2,131.3"/>
			<path class="st12" d="M5044.5,2446.1c0,0-159.8,109.7-251.5,111.4"/>
		</g>
		<path class="st4" d="M5235.1,2139c0,0,47.6-29.3,70.2,0c0,0,31.5-26,64.6,0c0,0,31.5,27.4,53.3,57.7c0,0,15.3,17.5,9.7,72.7
			c0,0-8.1,38.9-3.2,58.5c0,0,10.5-2.8,31.5,30.4c0,0,26.6,41.1,50.1,4.8c0,0-7.3,50.5-51.3,42.4c0,0,21.4,22.3,2.8,79.8
			c0,0-13.7,40.7,8.1,91.7c0,0-38.4-20.6-36.7-80.9c0,0,3.2-40.7-8.1-69.5c0,0,11.3,26.2-14.9,82c0,0-20.2,40.2-3.6,82
			c0,0-37.9-18.5-34.3-79.8c3.6-61.3,26.6-35.8,11.7-92.3c0,0-3.6,28.9-14.9,43.5c-11.3,14.6-25.8,39-19.8,79.7
			c0,0-22.6-37.5-17.4-76c5.2-38.5,10.9-50.2,10.9-50.2l-71.5-54l-35.5-85.8L5235.1,2139z"/>
	</g>
	<path class="st6" d="M4425.6,2482.3c0,0,6.7-42.1,36.9-25.5c0,0,10.3-68.9,65.4-71.4c55.1-2.4,58.1,71.7,58.1,76.5
		c0,0,16.2-31.8,43.2-28.1c0,0,46.6-3.7,29.2,96.1l8.8,12.5c0,0,35.6-111.4,108.9-82.1c0,0,71.5,29,24.8,121.3
		c0,0,35.3,61.1,65.2,55.4s56.6-17.9,86.2-87.9s98.7-80.6,116.3-76.5c17.6,4.1,31.4,19.3,34.3,35.8c0,0,36.6-162.7,168-137.1
		l52.7,35.3l20,12.2l-29.8,112.1l-72.6,218.7l-55.1,22.6l-57.5-44l-20,14.3l-1.6,65.5l-75.9,72.8l-52.7,29l-58.1,52.9l-13.5,47.3
		c0,0-32.1-18-68.3,0l-12-39.2l-33.9-43.2l-131.7-82.9l-23.8-102.3l-24-14.3l-26.9,41.1l-39.4,6.1l-58.7-52.9L4425.6,2482.3z"/>
	<g>
		<g>
			<g>
				<path class="st14" d="M4999.3,1685.9c0,0-50.3-3-48.5,66.5"/>
				<path class="st10" d="M5330.1,2424.1c-87.5-35.8-111.4-161.2-111.4-161.2c-17.9-94,10.9-176.3,10.9-176.3
					c40-125.2,107.6-125.1,107.6-125.1c33.9-1.2,38,37.5,38,37.5c3.2,27.4-11.2,37.3-11.2,37.3c-23.2,16.8-37.8-6-37.8-6
					c-9.7-16.8-2.2-31.8-2.2-31.8c6-11.1,17.4-6.2,17.4-6.2c9,3.7,8.1,18.8,8.1,18.8c0.1,0.4,0.3,0.4,0.3,0.4
					c0.4-0.1,0.3-0.3,0.3-0.3s2-18.5-11.5-20.4c0,0-26.3-7.6-57.2,43.7c0,0-40.7,69.2-40.6,158.8c0,0-5.1,168.1,126.3,211.7
					c0,0-14.2,27.3-39.4,125.8c0,0-28.5,126.6-55.6,195.1c0,0-36.1,97.6-116.7,57.7c0,0-48-28.1-47.8-74.5c0,0-3.3-42.3,25.4-45.6
					c0,0,28.2-2.9,27.9,29.3c0,0,0.8,34.8-30,26.9c0,0-10.8-3-8.8-17.1c0,0,1.7-12.6,14.7-7.1c0,0,0.4,0.1,0.5-0.2
					c0,0,0.1-0.3-0.3-0.5c0,0-5-3-10.3-0.5c0,0-4.7,2.1-5.1,12c0,0-0.3,7.9,6.1,12.4c0,0,7.7,3.7,13.8,2.9c0,0,8.1,21.9,26.6,29.4
					c25.7,10.3,46.8,0.4,59.7-13.4c14.1-15,23.2-41.1,25.9-47.5c2.7-6.4,26.3-76.9,44.1-152.8c0,0,15.5-65.4,28-99.6L5330.1,2424.1z
					"/>
				<path class="st10" d="M5083.1,2742.8c0,0,16.3-3,16.3,16.5c0,0-1,28.4-27,22.2c0,0-25.6-7.5-16.5-45.6c0,0,6.1-26.9,30.3-23
					c0,0,23.5,1.4,33.8,44.2c0,0,7.9,36-5.6,67c-15,34.5-53.1,57.2-71.5,67.2c0,0-73.6,38.5-95.5,60.6c0,0-33.7,33.3-18.8,64.3
					c0,0,5.8,11.8,14.4,11.8c0,0,9.8,0.6,11.5-12.8c0,0,0.1-0.3-0.1-0.6c0,0-0.1,0-0.2,0.3c0,0-0.7,8.2-6.1,11.3
					c0,0-7.2,4.8-14.7-3.7c0,0-8-10.2-1.3-26c0,0,8.7-19.5,29.1-7.9c0,0,17.9,11.8,10.5,37.2c0,0-6.6,23.4-28.2,23.3
					c0,0-16.3-0.7-26.7-15.3c-16.2-22.7-17.1-66.9-2.8-89.7c0,0,13.5-24.3,40.7-39.1c15.7-8.6,45.4-25.8,76.3-41.9
					c21.7-11.4,41.6-24.9,54.5-45.3c0,0,11.5-17.1,14.8-46.4c0,0,3.2-22-6.9-26.8c0,0-5.1-3-10.7-2c0,0-0.1,0-0.2,0.1
					C5082.8,2742.6,5082.6,2743,5083.1,2742.8z"/>
				<path class="st14" d="M5084.5,2742.7c0,0,18.1-4.3,29.4,24.3c0,0,6.7,18.5,7.7,29.1"/>
				<path class="st14" d="M5127.5,2693.7c0,0-18.1,4.2-8.8,38.3c8.8,32.2,25.1,42.7,29.9,47.2"/>
				<path class="st10" d="M4773.5,1757.9c0,0,0.9,9.8,8.2,10.9c0,0,7.6,3.3,12-9.3c0,0,0.5-2.9,0.6-4.2c0.5-5.9,2-22.8-11.7-36.6
					c0,0-22.4-24.4-65.2,5.2c0,0-33.9,21.7-57.3,40.2c0,0-60.6,43.4-67.8,46.7c0,0-26.6,17.9-67.4,20.1c0,0-55.7,5.4-79.3-46.7
					c0,0-18-39.6,0-64.9c0,0,7.3-11.4,19.2-9.3c5,0.9,10.6,4,15.9,12.3c0,0,8.7,16.8-1.4,29.3c0,0-13.1,10.7-17.8-11.9
					c0,0-0.2-1.6-0.6,0.4c-0.3,1.3-3.2,18.6,3.7,33.2c0,0,33.6,67.8,126.1-2.5l121.9-91.2c0,0,61.2-41.8,97.7,23.6
					c0,0,29.5,54.3-8.5,89.8c0,0-28.3,22.5-46-13.3c0,0-14.7-35.3,8.5-50.8c0,0,20.4-12.8,28.5,14.4s-15.7,34.2-18,14.9
					C4774.7,1758.1,4774.1,1753.5,4773.5,1757.9L4773.5,1757.9z"/>
				<path class="st10" d="M4475,2377.3c53.8-40.7,65.7-131.1,65.7-131.1c13-90-13.3-161.2-13.3-161.2
					c-34.8-98.1-94.5-116.4-94.5-116.4s58.5,54.1,74.8,127c0,0,12.7,61.5,5.4,122.1c-7.3,60.7-4.5,45.2-15.7,92L4475,2377.3z"/>
				<path class="st14" d="M4746.1,1685.9c0,0,50.3-3,48.5,66.5"/>
				<path class="st10" d="M4415.3,2424.1c87.5-35.8,111.4-161.2,111.4-161.2c17.9-94-10.9-176.3-10.9-176.3
					c-40-125.2-107.6-125.1-107.6-125.1c-33.9-1.2-38,37.5-38,37.5c-3.2,27.4,11.2,37.3,11.2,37.3c23.2,16.8,37.8-6,37.8-6
					c9.7-16.8,2.2-31.8,2.2-31.8c-6-11.1-17.4-6.2-17.4-6.2c-9,3.7-8.1,18.8-8.1,18.8c-0.1,0.4-0.3,0.4-0.3,0.4
					c-0.4-0.1-0.3-0.3-0.3-0.3s-2-18.5,11.5-20.4c0,0,26.3-7.6,57.2,43.7c0,0,40.7,69.2,40.6,158.8c0,0,5.1,168.1-126.3,211.7
					c0,0,14.2,27.3,39.4,125.8c0,0,28.5,126.6,55.6,195.1c0,0,36.1,97.6,116.7,57.7c0,0,48-28.1,47.8-74.5c0,0,3.3-42.3-25.4-45.6
					c0,0-28.2-2.9-27.9,29.3c0,0-0.8,34.8,30,26.9c0,0,10.8-3,8.8-17.1c0,0-1.7-12.6-14.7-7.1c0,0-0.4,0.1-0.5-0.2
					c0,0-0.1-0.3,0.3-0.5c0,0,5-3,10.3-0.5c0,0,4.7,2.1,5.1,12c0,0,0.3,7.9-6.1,12.4c0,0-7.7,3.7-13.8,2.9c0,0-8.1,21.9-26.6,29.4
					c-25.7,10.3-46.8,0.4-59.7-13.4c-14.1-15-23.2-41.1-25.9-47.5c-2.7-6.4-26.3-76.9-44.1-152.8c0,0-15.5-65.4-28-99.6
					L4415.3,2424.1z"/>
				<path class="st10" d="M4662.2,2742.8c0,0-16.3-3-16.3,16.5c0,0,1,28.4,27,22.2c0,0,25.6-7.5,16.5-45.6c0,0-6.1-26.9-30.3-23
					c0,0-23.5,1.4-33.8,44.2c0,0-7.9,36,5.6,67c15,34.5,53.1,57.2,71.5,67.2c0,0,73.6,38.5,95.5,60.6c0,0,33.7,33.3,18.8,64.3
					c0,0-5.8,11.8-14.4,11.8c0,0-9.8,0.6-11.5-12.8c0,0-0.1-0.3,0.1-0.6c0,0,0.1,0,0.2,0.3c0,0,0.7,8.2,6.1,11.3
					c0,0,7.2,4.8,14.7-3.7c0,0,8-10.2,1.3-26c0,0-8.7-19.5-29.1-7.9c0,0-17.9,11.8-10.5,37.2c0,0,6.6,23.4,28.2,23.3
					c0,0,16.3-0.7,26.7-15.3c16.2-22.7,17.1-66.9,2.8-89.7c0,0-13.5-24.3-40.7-39.1c-15.7-8.6-45.4-25.8-76.3-41.9
					c-21.7-11.4-41.6-24.9-54.5-45.3c0,0-11.5-17.1-14.8-46.4c0,0-3.2-22,6.9-26.8c0,0,5.1-3,10.7-2c0,0,0.1,0,0.2,0.1
					C4662.6,2742.6,4662.8,2743,4662.2,2742.8z"/>
				<g>
					<path class="st14" d="M4660.9,2742.7c0,0-18.1-4.3-29.4,24.3c0,0-6.7,18.5-7.7,29.1"/>
					<path class="st14" d="M4617.9,2693.7c0,0,18.1,4.2,8.8,38.3c-8.8,32.2-25.1,42.7-29.9,47.2"/>
					<path class="st14" d="M4828.9,1748.5c0,0,43.7-36.5,88.4,3.9"/>
				</g>
			</g>
			<g>
				<path class="st15" d="M4580.1,2105.3c0,0,6.1-32.6-21.8-89.6c0,0-18.2-52.1-27.9-85.5"/>
				<path class="st15" d="M4593.4,1894.4c0,0,15.8,51.2,21.2,74.2c0,0,19.6,64.3,23.7,77.3"/>
			</g>
		</g>
		<g>
			<g>
				<path class="st12" d="M4601.2,2141.1c0,0,16.4,23.6,14.6,63.5"/>
				<path class="st12" d="M4546.7,2115.9c0,0,18.2,11.7,17,76c0,0-1.8,47,25.4,70.6"/>
				<path class="st12" d="M4544.3,2279c0,0,56.9-8.3,60,38.4c0,0,1.2,44.8,20.6,49.7c0,0,29,3.7,34.8,39.5"/>
				<path class="st12" d="M4562.2,2330.8c0,0,10,19.9,19.7,28.5"/>
				<path class="st12" d="M4635.2,2281.6c0,0,14.4,29.2,17.2,46.3"/>
				<path class="st12" d="M4697.7,1930.2c0,0,13.3,24.2,26.2,35.6"/>
				<path class="st12" d="M4751,2073.3c0,0,28.3,18.5,23.4,113.5c0,0-3.6,55.7,8.1,86.1"/>
			</g>
			<path class="st8" d="M4617.9,2008.8l1.8,9c0,0,50.7,2.9,78-43.2l-2.9-8.8C4694.8,1965.8,4650.6,1962.8,4617.9,2008.8
				L4617.9,2008.8z"/>
			<path class="st12" d="M4800.4,2371.2c0,0,175.2-69.7,242.8-110.3"/>
		</g>
		<path class="st13" d="M4779.6,1932.7l86.7-44l2,7.7l-86.7,43.9L4779.6,1932.7z"/>
	</g>
	<g>
		<g>
			<path class="st12" d="M4789,1936.6l57.5,376"/>
			<path class="st12" d="M4799,1931.5l65.9,374.3"/>
			<path class="st12" d="M4810.2,1925.9l72.1,371.6"/>
			<path class="st12" d="M4838.4,1911.6l98.2,278.9"/>
			<path class="st12" d="M4851.4,1905l104.8,277.3"/>
			<path class="st12" d="M4861,1900.1l113.3,274.5"/>
			<path class="st12" d="M4842.6,2315.6l44.5-19.5"/>
			<path class="st12" d="M4809,2278.4c0,0,130.3-50.8,229-103.8"/>
			<path class="st12" d="M4807.2,2297.4c0,0,165.2-58.3,230.7-100.8"/>
			<path class="st12" d="M4857.6,2476.6l8.7,35.3l23.6-10.1l-8.1-35"/>
			<path class="st12" d="M4924.3,2451.2l8.7,35.3l23.7-10.1l-8.1-35"/>
			<path class="st12" d="M4812.2,2242.9l-2-47.7l216.6-87.7l11.7,40.2"/>
			<path class="st12" d="M4902,2158l11.8,42.1"/>
			<path class="st12" d="M4977.7,2127.3l13.8,40.1"/>
			<path class="st12" d="M4995.7,2120l12.9,37.9"/>
			<path class="st12" d="M5012.8,2113.1l13.6,39.6"/>
			<path class="st12" d="M5026.8,2107.5l23.8-17.9l10.1,35.3"/>
			<path class="st12" d="M5038.5,2098.6l12.1,36.5"/>
		</g>
		<g>
			<path class="st16" d="M4501.3,2648.4c0,0-42.4-57.2,0-113.3c0,0-46-30-38.8-78.3"/>
			<path class="st16" d="M4577,2693.7c0,0-43.9,8-30.9-106c0,0-18.2,45.2-24.4,68.4c-4.7,17.4-1.6,45.4,17,60.6
				c7.4,6.1,46.8,19.7,59.5-15"/>
			<path class="st16" d="M4528,2519.3c0,0-17.9,22-5.1,62.3"/>
			<path class="st16" d="M4546.4,2524.6c0,0,2.1,39.1,16.7,61.1"/>
			<path class="st16" d="M4559,2509.2c0,0-0.1,46,24.7,74.5"/>
			<path class="st16" d="M4571.3,2493.3c0,0,0.2,51.7,29,83.5"/>
			<path class="st16" d="M4714.2,2569c0,0,14.5-42.3,45.1-40.3c0,0-14.8,9-14.5,28.8c0,0-1.8,32.7,24.5,36c0,0,21.2,3.7,31.8-11.8"
				/>
			<path class="st16" d="M4786.6,2762.4c0,0-75.4-47.2-67.5-115.2c0,0,3-41.5,33.5-61.1"/>
			<path class="st16" d="M4736.6,2629.2c0,0-6.7,29.3,8.2,49.7"/>
			<path class="st16" d="M4753.5,2609.3c0,0-9.1,32.2,6.1,56.2"/>
			<path class="st16" d="M4771.7,2593.7c0,0-10.9,26.6,2.1,50.6"/>
			<path class="st16" d="M4703,2769.3c0,0,41.2,47.6,73.3,48"/>
			<path class="st16" d="M4690,2784.4c0,0,38.5,41.5,62.5,47.6"/>
			<path class="st16" d="M4675.4,2796.1c0,0,47.6,55.8,77.1,59.9"/>
			<path class="st16" d="M4868.9,2907.3c0,0-46.8,33.6-10.5,69.1"/>
			<path class="st16" d="M4839.2,2870.3c0,0,53-37,76-50.9"/>
			<path class="st16" d="M4858.3,2889.4c0,0,76.6-62.3,99.3-75.7"/>
			<path class="st16" d="M4897.7,2893.5c0,0,65.4-58.2,100.5-83.5"/>
			<path class="st16" d="M4941,2891.4c0,0,45.1-47.2,88.7-81.4"/>
			<path class="st16" d="M5045.1,2751c0,0-22.1-43.2-94.8,0c0,0,26.6-32.2,79.3-57.2"/>
			<path class="st16" d="M5103.1,2508.3c0,0,6,35-0.4,56.2"/>
			<path class="st16" d="M4985.2,2678.1c0,0,15.1-29.7,53.6-44.4c0,0,10.4,34.6,40.3,26.9c0,0,45.1-11.8,31.5-77.8
				c0,0-9.4-49.3-60.9-54.1"/>
			<path class="st16" d="M5202.9,2446.1c0,0,52.4,12.6,51.5,69.6c0,0,4.2,85.5-63.3,102.2"/>
			<path class="st16" d="M5246.9,2481.2c0,0,14.4-41.7,46.5-58.8"/>
			<path class="st16" d="M5254.4,2398c0,0,14.3,30.6,24.1,35"/>
			<path class="st16" d="M5246.9,2422.4c0,0,13.5,22,18,25.6"/>
			<path class="st16" d="M5242.6,2443.6c0,0,7.1,14,13.4,18.4"/>
			<path class="st16" d="M4973.1,2113.1c0,0,10.2-22.1,35.5-12.7"/>
			<path class="st16" d="M5112.1,2278.4c0,0,16.1-89.3,72.1-56.3"/>
			<path class="st16" d="M5161.4,2214.8c0,0,5.8-41.2-8.2-62.1"/>
			<path class="st16" d="M5123.2,2211.9c0,0,7.1,17,1,30.9"/>
		</g>
	</g>
	<path class="st9" d="M5237.1,3123.9c0,0,63-38.3,43.6-103.4c0,0-6-22-20-20.4c0,0-24.3,1.6-19.4,44.8
		C5241.3,3044.9,5248.6,3087.3,5237.1,3123.9L5237.1,3123.9z"/>
	<path class="st2" d="M5259.9,3085.4c0,0,13.8-17.7,11.9-49.4c0,0-0.8-6.8,1.7-7.7c0,0,2.7-1.5,3.1,6.4c0,0,3.8,33.1-12.9,52.1
		c0,0-1.1,1.9-3,1.4C5260.8,3088.1,5258.8,3087.5,5259.9,3085.4z"/>
	<path class="st9" d="M5326.7,3065.3c0,0,44.2-37,20.3-99.3c0,0-7-17.9-20.3-14.2c0,0-27.6,11.4-6.1,62.3
		C5320.7,3014,5331.6,3047,5326.7,3065.3L5326.7,3065.3z"/>
	<path class="st2" d="M5337.8,2980.8c0,0-2.4-4.3-0.8-6.1c0,0,1.1-2,3.9,2.9c0,0,13.4,19.9,2.7,50.6c0,0-1.2,4.4-3.3,2.9
		c0,0-1.8-1.2-0.1-4.9C5340.2,3026.2,5349.7,3001,5337.8,2980.8z"/>
	<path class="st9" d="M5194.4,3107.6c0,0-49.4-16.7-40.3-84.7c0,0,4.8-29.7,25.7-25.7c0,0,25.2,8.6,8.8,51.8
		C5188.7,3049.1,5179,3079.9,5194.4,3107.6L5194.4,3107.6z"/>
	<path class="st2" d="M5175.3,3026.4c0,0-1.8-3.3,0.3-4.7c0,0,2.1-1.2,3.6,2.7c0,0,5.1,10.9,0.8,25.8c0,0-4.1,10.3-2.1,21.1
		c0,0,0.3,3-1.5,3.5c0,0-1.7-0.8-2.1-3.1c0,0-2.5-10.5,1.8-20.8C5176.1,3051,5181.2,3035,5175.3,3026.4L5175.3,3026.4z"/>
	<path d="M5229.8,2978.9c0,0,27.9-20.9,50.9,3.6c0,0-2.4-13.6-20-19.5c0,0-9.5-35.8-36.2-32.6c0,0,10.9,17.4,25.4,32
		C5250,2962.4,5234.7,2964.5,5229.8,2978.9z"/>
	<path d="M5250.4,2880.8c0,0,18.9,18.6,26.6,31.1c0,0,7.7-12.8,17.8-20.5c0,0-11.6-2-17.8,4.9
		C5277,2896.4,5267.4,2883.9,5250.4,2880.8z"/>
	<g>
		<path class="st7" d="M5140.6,2960.8c0,0-2-9.2,2.8-19c0,0,3.2-7.1,2-16.3"/>
		<path class="st7" d="M5343.7,2381c0,0,29.5-2.7,34.3-33.1"/>
		<path class="st7" d="M5429.7,2327.8c0,0-10.3-0.5-19.6,11.9c0,0-7.1,14.1-17.2,12.5"/>
	</g>
	<path d="M5300.1,2265.4c0,0,15.3,0,23.8-9.8c0,0,8.9-8.1,14.1,4.9c0,0,8.1,18.5-6.9,26.6c0,0-18.6,12.5,10.9,37.5
		c0,0-35.1-16.8-21-39.6c0,0,15.3-14.7,9.7-20.1c0,0-1.6-4.3-7.7,1.1C5317,2271.4,5304.9,2269.2,5300.1,2265.4z"/>
	<path class="st9" d="M5320.9,1771.1c0,0,6.9-12.6,4.1-50.3c-2.8-37.7,21.7-42.1,31.2-31.2c0,0,9.8,11.3,0.8,35.2
		C5351.8,1738.6,5343.6,1756.5,5320.9,1771.1z"/>
	<path class="st2" d="M5330.2,1742.9c0,0,9.2-13.2,4.8-41.9c0,0,0-2.8,1.2-3c0,0,2.2-0.8,2.6,2.1c0,0,4.9,30.6-5.4,47.1
		c0,0-1.9,2.5-3.2,0C5330.2,1747.3,5328.8,1745.5,5330.2,1742.9L5330.2,1742.9z"/>
	<path class="st9" d="M5313.1,1757.4c0,0-0.7-15.2-20.4-41c-19.7-25.8-3.5-49.7,8.6-49.5c0,0,12.5,0.3,17,25.7
		C5320.8,1707.2,5323,1727.5,5313.1,1757.4L5313.1,1757.4z"/>
	<path class="st2" d="M5310,1724.3c0,0,0.4-18.6-17.5-38.1c0,0-1.5-2.3-0.6-3.5c0,0,1.3-2.5,3-0.6c0,0,19.2,20.5,19.7,42.9
		c0,0-0.2,3.6-2.4,2.7C5312.2,1727.8,5310.3,1727.6,5310,1724.3L5310,1724.3z"/>
	<path class="st9" d="M5286.3,1745.9c0,0-5.2-12.4-29.5-23.9c-24.3-11.5-17.8-39.9-7.5-45.9c0,0,10.6-6.2,22,12.8
		C5277.9,1699.8,5285.8,1715.7,5286.3,1745.9L5286.3,1745.9z"/>
	<path class="st2" d="M5275.7,1723.2c0,0-5.5-17.1-27.8-24.6c0,0-2-1.2-1.7-2.8c0,0,0.4-3,2.6-2.2c0,0,23.9,7.7,31.3,27.7
		c0,0,0.9,3.4-1.3,3.8C5278.8,1725.1,5276.9,1726,5275.7,1723.2L5275.7,1723.2z"/>
	<path class="st9" d="M5301.6,1758.3c0,0-11.4,4.3-37.4-12.5c-26.1-16.8-37.5,12.4-32.9,28c0,0,4.8,16.2,25,13.3
		C5267.9,1785.5,5283.5,1781.5,5301.6,1758.3z"/>
	<path class="st2" d="M5241,1769.4c0,0,11.8,9.7,33.3-1.3c0,0,2.2-0.6,2.5,1c0,0,1,2.8-1.2,3.8c0,0-22.8,12.1-37.5,1.5
		c0,0-2.2-2.1-0.6-4.2C5237.6,1770.2,5238.7,1768,5241,1769.4L5241,1769.4z"/>
	<path class="st14" d="M5263.4,1648.5c0,0,13,8.4,10,28.8"/>
	<path class="st7" d="M5321,1651.3c0,0,5.1,21.5-0.5,33.1"/>
	<path class="st9" d="M4422.8,1771.1c0,0-6.9-12.6-4.1-50.3c2.8-37.7-21.7-42.1-31.2-31.2c0,0-9.8,11.3-0.8,35.2
		C4391.9,1738.6,4400.2,1756.5,4422.8,1771.1z"/>
	<path class="st2" d="M4413.5,1742.9c0,0-9.2-13.2-4.8-41.9c0,0,0-2.8-1.2-3c0,0-2.2-0.8-2.6,2.1c0,0-4.9,30.6,5.4,47.1
		c0,0,1.9,2.5,3.2,0C4413.5,1747.3,4414.9,1745.5,4413.5,1742.9L4413.5,1742.9z"/>
	<path class="st9" d="M4430.6,1757.4c0,0,0.7-15.2,20.4-41c19.7-25.8,3.5-49.7-8.6-49.5c0,0-12.5,0.3-17,25.7
		C4422.9,1707.2,4420.7,1727.5,4430.6,1757.4L4430.6,1757.4z"/>
	<path class="st2" d="M4433.7,1724.3c0,0-0.3-18.6,17.5-38.1c0,0,1.5-2.3,0.6-3.5c0,0-1.3-2.5-3-0.6c0,0-19.2,20.5-19.7,42.9
		c0,0,0.2,3.6,2.4,2.7C4431.5,1727.8,4433.5,1727.6,4433.7,1724.3L4433.7,1724.3z"/>
	<path class="st9" d="M4457.4,1745.9c0,0,5.2-12.4,29.5-23.9c24.3-11.5,17.8-39.9,7.5-45.9c0,0-10.6-6.2-22,12.8
		C4465.8,1699.8,4457.9,1715.7,4457.4,1745.9L4457.4,1745.9z"/>
	<path class="st2" d="M4468.1,1723.2c0,0,5.5-17.1,27.8-24.6c0,0,2-1.2,1.7-2.8c0,0-0.4-3-2.6-2.2c0,0-23.9,7.7-31.3,27.7
		c0,0-0.9,3.4,1.3,3.8C4465,1725.1,4466.8,1726,4468.1,1723.2L4468.1,1723.2z"/>
	<path class="st9" d="M4442.1,1758.3c0,0,11.4,4.3,37.4-12.5c26.1-16.8,37.5,12.4,32.9,28c0,0-4.8,16.2-25,13.3
		C4475.9,1785.5,4460.3,1781.5,4442.1,1758.3z"/>
	<path class="st2" d="M4502.8,1769.4c0,0-11.8,9.7-33.3-1.3c0,0-2.2-0.6-2.5,1c0,0-1,2.8,1.2,3.8c0,0,22.8,12.1,37.5,1.5
		c0,0,2.2-2.1,0.6-4.2C4506.1,1770.2,4505,1768,4502.8,1769.4L4502.8,1769.4z"/>
	<path class="st14" d="M4480.3,1648.5c0,0-13,8.4-10,28.8"/>
	<path class="st7" d="M4422.7,1651.3c0,0-5.1,21.5,0.5,33.1"/>
	<path d="M4987.9,1453.9c0,0,8.2,31.4,4.7,59.8c-3.2,25.4,1.2,32,8.1,37.1c6,4.4,19.8-3.3,21.5-23.2c0,0,16.3,42.5-15.4,71.2
		c0,0-22.9,18.7-42.2-6.3c-6.8-8.8-9.8-33.2-6.5-55.8c0,0,5-30.6-3.3-62.1c0,0,13,18.5,9.7,55.5c0,0-6.7,66.3,30.1,63
		c0,0,25.4-0.4,26.2-41.5c0,0-9.5,14.7-21.3,9.8c-8.4-3.5-16.1-14.2-14.7-31.3C4986,1512.3,4989.7,1481.2,4987.9,1453.9
		L4987.9,1453.9z"/>
	<path d="M4946.2,1562.7c0,0-2,52.4-37.9,65.1c0,0,5-9.5-3-35.6c0,0-7.9-15.2-7.3-38.8c0,0-11.4,11.9,1.6,43.4
		c7.9,19,1,41.8-1.4,42.6C4895.8,1640.3,4957.5,1628.7,4946.2,1562.7L4946.2,1562.7z"/>
	<path d="M4899.6,1510.6c0,0-8.7-13-9.3-43.2c-0.6-30.1-4.8-37.5-7.9-41c0,0,4.4,26.1,3.2,42.1s0.8,25.2,2.4,32.8
		c0,0-19.6,4.1-31.9-33.9c-11.8-36.3-23.6-33.4-29.5-33.1c0,0,6.8,1,20.6,34.2C4861.1,1501.7,4864.9,1508.4,4899.6,1510.6z"/>
	<path d="M4808,1431.9c0,0,11.3,36.1,11.7,55.1c0,0-26.2-11.7-33.3-42.1c0,0-28.1,12.8-17.8,55.9c0,0-24.2-11.4-35.1-37.7
		c0,0,13.5,13.6,26,19.5c0,0-1.4-34.7,31.3-47.8c0,0,4.9,31.1,21.2,38.5C4812,1473.4,4810.8,1453.9,4808,1431.9L4808,1431.9z"/>
	<path d="M4851.1,1370c0,0,9.1,17.6,27.7,18.5c8.9,0.4,18.4-2.3,27.7-18.5c0,0-1.2,30.7-27.7,30.9
		C4878.8,1400.9,4851.1,1402.3,4851.1,1370z"/>
	<path d="M4736.7,1579.7c0,0,13.8,16.7,16.7,22.2c0,0,9.7,12.6,18-3.7c0,0,10.6-26.1,23.6-25.4c0,0-9.2,8.6-19.6,33.2
		c0,0-2.8,9.1-10.5,10.1c-3.6,0.5-8.2,2-15.1-7.6C4749.8,1608.5,4743.9,1598.8,4736.7,1579.7z"/>
	<path d="M4878.8,1247.1c-27.7,0-4.3,28.5-4.3,28.5c0.6,45.2-26.6,59.1-45.1,46c-18.5-13.1-4-46-4-46s-20.9,18.3-7.6,44.8
		c13.3,26.5,48.2,14.7,61.1-9.8c12.8,24.4,47.7,36.2,61.1,9.8s-7.6-44.8-7.6-44.8s14.5,32.9-4,46c-18.5,13.1-45.7-0.8-45.1-46
		C4883.1,1275.6,4906.5,1247,4878.8,1247.1z"/>
	<path d="M4895.6,1198.2c0,0,9.7,22,7.6,55.4C4903.1,1253.6,4911.9,1220.2,4895.6,1198.2z"/>
	<path d="M4810.8,1249.9c0,0-2.1-24-19.7-26.1C4791.1,1223.8,4805.9,1238.1,4810.8,1249.9z"/>
	<path d="M4947,1249.9c0,0,2.1-24,19.7-26.1C4966.7,1223.8,4951.9,1238.1,4947,1249.9z"/>
	<path d="M4782.9,1286.5c0,0,13.9,5.7,22.4-8.1C4805.3,1278.4,4789.3,1284.1,4782.9,1286.5z"/>
	<path d="M4737.8,1139.2c0,0,16.2-2.4,32.4,29.7c0,0-16.1,11.4-20,18.3c0,0,0-10.6,7.9-19.9
		C4758.1,1167.3,4755.1,1151,4737.8,1139.2L4737.8,1139.2z"/>
	<path d="M5009.1,1139.2c0,0-16.2-2.4-32.4,29.7c0,0,16.1,11.4,20,18.3c0,0,0-10.6-7.9-19.9
		C4988.8,1167.3,4991.8,1151,5009.1,1139.2L5009.1,1139.2z"/>
	<path d="M4884.1,1163.2c0,0,14.5,5.3,32.7-8.1c0,0,22.4-15.9,36.6,0c0,0-12.4-7.4-36.3,8.1
		C4917.1,1163.2,4893.1,1180.7,4884.1,1163.2z"/>
	<path class="st2" d="M4899.2,1182.7c0,0,12.4-29,50.3-23.3C4949.5,1159.5,4939.2,1199.8,4899.2,1182.7z"/>
	<ellipse class="st17" cx="4925.3" cy="1173.7" rx="7.5" ry="12.6"/>
	<ellipse cx="4925.3" cy="1173.7" rx="4.4" ry="7.8"/>
	<path d="M4818,1120.8c0,0,23.9,2,38.5,14.2c0,0,15.4,12.2,33-5.3c0,0,19.1-14.7,31.4-35c0,0-29.2,26.9-40.1,30.9
		c0,0-10-10.2-13.9-24.8c0,0,1.5-11,17.3-31.3c0,0-21.2,8.6-25.4,32.6c0,0,3.9,14.7,12.1,26.1c0,0-3.9,2.4-14.2-6.1
		C4856.5,1122.1,4834.1,1111.9,4818,1120.8L4818,1120.8z"/>
	<path d="M4878.8,1312.4c-20.7,23.8,0,21.4,0,21.4S4899.5,1336.2,4878.8,1312.4z"/>
	<path d="M4866.8,1163.2c0,0-14.5,5.3-32.7-8.1c0,0-22.4-15.9-36.6,0c0,0,12.4-7.4,36.3,8.1
		C4833.8,1163.2,4857.7,1180.7,4866.8,1163.2z"/>
	<path class="st2" d="M4851.7,1182.7c0,0-12.4-29-50.3-23.3C4801.4,1159.5,4811.7,1199.8,4851.7,1182.7z"/>
	<ellipse class="st17" cx="4825.6" cy="1173.7" rx="7.5" ry="12.6"/>
	<ellipse cx="4825.6" cy="1173.7" rx="4.4" ry="7.8"/>
	<path class="st18" d="M5609.9,921.6V2751c0,488.7-732.6,647.4-732.6,647.4s-732.6-158.8-732.6-647.4V921.6H5609.9z"/>
</g>
</svg>
