<?xml version="1.0" encoding="utf-8"?>
<!-- Generator: Adobe Illustrator 23.1.1, SVG Export Plug-In . SVG Version: 6.00 Build 0)  -->
<svg version="1.1" id="Countryflags.com" xmlns="http://www.w3.org/2000/svg" xmlns:xlink="http://www.w3.org/1999/xlink" x="0px"
	 y="0px" viewBox="932.1 996.6 224.7 149.8" style="enable-background:new 932.1 996.6 224.7 149.8;" xml:space="preserve">
<style type="text/css">
	.st0{fill:#C4272F;}
	.st1{fill:#015197;}
	.st2{fill:#F9CF02;}
	.st3{fill:#F9CF02;stroke:#C4272F;stroke-width:1.5;}
	.st4{fill:none;stroke:#C4272F;stroke-width:1.5;}
</style>
<g>
	<rect id="_x31_6" x="932.1" y="996.5" class="st0" width="224.7" height="150"/>
	<rect id="_x31_5" x="1007" y="996.5" class="st1" width="74.9" height="150"/>
	<ellipse id="_x31_4" class="st2" cx="969.6" cy="1047.7" rx="10.3" ry="13.8"/>
	<ellipse id="_x31_3" class="st0" cx="969.6" cy="1041.5" rx="11.2" ry="15"/>
	<ellipse id="_x31_2" class="st2" cx="969.6" cy="1044" rx="7.5" ry="10"/>
	<path id="_x31_1" class="st2" d="M964.9,1025.2c0,3.5,2.1,6.2,4.7,6.2c2.6,0,4.7-2.8,4.7-6.2c0-2.5-1.2-2.8-1.2-3.8
		s0.7-2.2-0.7-3.8c0.7,1.6-0.5,1.9-0.5,3.4s0.5,1.6,0.5,2.8c0,0.7-0.4,1.2-0.9,1.2c-0.5,0-0.9-0.6-0.9-1.2c0-1.2,0.9-2.5,0.9-4.4
		s-0.2-2.5-0.9-4.1s-1.9-2.8-0.9-4.1c-1.4,0.6-0.7,3.1-0.7,4.7s-0.9,2.5-0.9,4.4s0.7,2.2,0.7,3.4c0,0.7-0.4,1.2-0.9,1.2
		c-0.5,0-0.9-0.6-0.9-1.2c0-1.2,0.5-1.2,0.5-2.8s-1.2-1.9-0.5-3.4c-1.4,1.6-0.7,2.8-0.7,3.8S964.9,1022.7,964.9,1025.2z"/>
	<rect id="_x31_0" x="949" y="1064" class="st2" width="9.4" height="60"/>
	<rect id="_x39_" x="980.8" y="1064" class="st2" width="9.4" height="60"/>
	<rect id="_x38_" x="960.2" y="1074" class="st2" width="18.7" height="5"/>
	<rect id="_x37_" x="960.2" y="1109" class="st2" width="18.7" height="5"/>
	<polygon id="_x36_" class="st2" points="960.2,1064 969.6,1071.5 979,1064 	"/>
	<polygon id="_x35_" class="st2" points="960.2,1116.5 969.6,1124 979,1116.5 	"/>
	<ellipse id="_x34_" class="st3" cx="969.6" cy="1094" rx="9.9" ry="13.2"/>
	<path id="_x33_" class="st4" d="M969.6,1080.7c2.7,0,5,3,5,6.6c0,3.7-2.2,6.6-5,6.6c-2.7,0-5,3-5,6.6c0,3.7,2.2,6.6,5,6.6"/>
	<ellipse id="_x32_" class="st0" cx="969.6" cy="1087.4" rx="1.9" ry="2.5"/>
	<ellipse id="_x31_" class="st0" cx="969.6" cy="1100.6" rx="1.9" ry="2.5"/>
</g>
</svg>
