<?xml version="1.0" encoding="utf-8"?>
<!-- Generator: Adobe Illustrator 23.1.1, SVG Export Plug-In . SVG Version: 6.00 Build 0)  -->
<svg version="1.1" id="Countryflags.com" xmlns="http://www.w3.org/2000/svg" xmlns:xlink="http://www.w3.org/1999/xlink" x="0px"
	 y="0px" viewBox="372.1 716.6 224.8 149.9" style="enable-background:new 372.1 716.6 224.8 149.9;" xml:space="preserve">
<style type="text/css">
	.st0{fill:#00008B;}
	.st1{clip-path:url(#SVGID_2_);stroke:#FFFFFF;stroke-width:17.5781;}
	.st2{clip-path:url(#SVGID_4_);stroke:#FF0000;stroke-width:9.375;}
	.st3{stroke:#FFFFFF;stroke-width:23.4375;}
	.st4{stroke:#FF0000;stroke-width:14.0625;}
	.st5{fill:#FFFFFF;}
</style>
<g>
	<rect id="_x31_2" x="372.1" y="716.5" class="st0" width="224.8" height="150"/>
	<g id="_x31_1">
		<defs>
			<rect id="SVGID_1_" x="372.1" y="716.5" width="112.4" height="75"/>
		</defs>
		<clipPath id="SVGID_2_">
			<use xlink:href="#SVGID_1_"  style="overflow:visible;"/>
		</clipPath>
		<path class="st1" d="M372.1,716.5l112.4,75 M484.5,716.5l-112.4,75"/>
	</g>
	<g id="_x31_0">
		<defs>
			<path id="SVGID_3_" d="M372.1,716.5V754h131.1v37.5h-18.7L372.1,716.5z M484.5,716.5h-56.2V804h-56.2v-12.5L484.5,716.5z"/>
		</defs>
		<clipPath id="SVGID_4_">
			<use xlink:href="#SVGID_3_"  style="overflow:visible;"/>
		</clipPath>
		<path class="st2" d="M372.1,716.5l112.4,75 M484.5,716.5l-112.4,75"/>
	</g>
	<path id="_x39_" class="st3" d="M428.3,716.5V804 M372.1,754h131.1"/>
	<path id="_x38_" class="st4" d="M428.3,716.5v80.3 M372.1,754h116.4"/>
	<path id="_x37_" class="st0" d="M372.1,791.5h112.4v-75H522v100H372.1V791.5z"/>
	<path id="_x36_" class="st5" d="M428.3,806.5l3.3,13.5l9.9-5l-5.9,11.8l9.1,7.2l-10.6,1.2l1.5,14l-7.3-10.3l-7.3,10.3l1.5-14
		l-10.6-1.2l9.1-7.2l-5.9-11.8l9.9,5L428.3,806.5z"/>
	<path id="_x35_" class="st5" d="M540.7,830.8l1.5,6.4l4.7-2.4l-2.8,5.6l4.3,3.4l-5,0.6l0.7,6.7l-3.5-4.9l-3.5,4.9l0.7-6.7l-5-0.6
		l4.3-3.4l-2.8-5.6l4.7,2.4L540.7,830.8z"/>
	<path id="_x34_" class="st5" d="M512.6,771.4l1.5,6.4l4.7-2.4l-2.8,5.6l4.3,3.4l-5,0.6l0.7,6.7l-3.5-4.9l-3.5,4.9l0.7-6.7l-5-0.6
		l4.3-3.4l-2.8-5.6l4.7,2.4L512.6,771.4z"/>
	<path id="_x33_" class="st5" d="M540.7,730.8l1.5,6.4l4.7-2.4l-2.8,5.6l4.3,3.4l-5,0.6l0.7,6.7l-3.5-4.9l-3.5,4.9l0.7-6.7l-5-0.6
		l4.3-3.4l-2.8-5.6l4.7,2.4L540.7,730.8z"/>
	<path id="_x32_" class="st5" d="M565.7,761.4l1.5,6.4l4.7-2.4l-2.8,5.6l4.3,3.4l-5,0.6l0.7,6.7l-3.5-4.9l-3.5,4.9l0.7-6.7l-5-0.6
		l4.3-3.4l-2.8-5.6l4.7,2.4L565.7,761.4z"/>
	<path id="_x31_" class="st5" d="M551.9,791.5l1.2,4l3.2,0.3l-2.5,2.8l0.8,4.2l-2.8-2.3l-2.8,2.3l0.8-4.2l-2.5-2.8l3.2-0.3
		L551.9,791.5z"/>
</g>
</svg>
