<?xml version="1.0" encoding="utf-8"?>
<!-- Generator: Adobe Illustrator 23.1.1, SVG Export Plug-In . SVG Version: 6.00 Build 0)  -->
<svg version="1.1" id="Countryflags.com" xmlns="http://www.w3.org/2000/svg" xmlns:xlink="http://www.w3.org/1999/xlink" x="0px"
	 y="0px" viewBox="50 405.5 315 210" style="enable-background:new 50 405.5 315 210;" xml:space="preserve">
<style type="text/css">
	.st0{fill:#009B3A;}
	.st1{fill:#FEDF00;}
	.st2{fill:#002776;}
	.st3{clip-path:url(#SVGID_2_);fill:#FFFFFF;}
	.st4{fill:#FFFFFF;}
</style>
<g>
	<rect id="_x34_8" x="50" y="405.5" class="st0" width="315" height="210"/>
	<path id="_x34_7" class="st1" d="M76.8,510.5L207.5,590l130.7-79.5L207.5,431L76.8,510.5z"/>
	<ellipse id="_x34_6" class="st2" cx="207.5" cy="510.5" rx="55.1" ry="52.5"/>
	<g id="_x34_5">
		<defs>
			<ellipse id="SVGID_1_" cx="207.5" cy="510.5" rx="55.1" ry="52.5"/>
		</defs>
		<clipPath id="SVGID_2_">
			<use xlink:href="#SVGID_1_"  style="overflow:visible;"/>
		</clipPath>
		<path class="st3" d="M42.1,615.5C42.1,545.1,102.1,488,176,488s133.9,57.1,133.9,127.5H302c0-66.3-56.4-120-126-120
			c-69.6,0-126,53.7-126,120H42.1z"/>
	</g>
	<path id="_x34_4" class="st0" d="M178.1,494.2l4.7,0.2l0-0.9l-3.8-0.1l0-1.3l3,0.1l0-0.9l-3-0.1l0-1l3.6,0.1l0-0.9l-4.5-0.1
		L178.1,494.2z"/>
	<path id="_x34_3" class="st0" d="M184.7,494.5l0.9,0.1l0.3-3.4l0.7,3.5l0.8,0.1l1.4-3.3l-0.3,3.4l0.9,0.1l0.5-5l-1.3-0.1l-1.4,3.3
		l-0.7-3.5l-1.3-0.1L184.7,494.5z"/>
	<path id="_x34_2" class="st0" d="M195.6,495.7l3.9,0.6l0.2-0.8l-3-0.5l0.2-1.1l2.4,0.4l0.2-0.8L197,493l0.1-0.8l2.9,0.5l0.2-0.8
		l-3.8-0.6L195.6,495.7z"/>
	<polygon id="_x34_1" class="st0" points="228.2,502.2 230,502.9 229.7,503.6 227.9,502.8 	"/>
	<polygon id="_x34_0" class="st0" points="229.3,502.6 230,502.9 228.9,505.2 228.2,504.9 	"/>
	<path id="_x33_9" class="st0" d="M244.3,511.3c-0.3,0.4,0,0.9,0.6,1.3c0.6,0.4,1.1,0.4,1.2,0.1c0.6-0.9-2.7-2.1-1.7-3.6
		c0.9-1.3,2.4-0.3,3,0.1c0.6,0.3,1.5,1.2,0.8,2.3l-1-0.6c0.3-0.5,0-0.9-0.5-1.2c-0.5-0.3-0.9-0.4-1.2,0c-0.5,0.7,2.8,2,1.8,3.5
		c-0.7,1.1-2,0.6-2.9,0.1c-0.7-0.4-1.8-1.5-1.1-2.5L244.3,511.3z"/>
	<path id="_x33_8" class="st0" d="M236.6,508.9l4.1,2.2l0.5-0.8l-3.3-1.8l0.7-1.1l2.6,1.4l0.4-0.7l-2.6-1.4l0.5-0.9l3.1,1.7l0.5-0.8
		l-3.9-2.1L236.6,508.9z"/>
	<path id="_x33_7" class="st0" d="M249.9,514.9c-0.3,0.4,0,0.9,0.6,1.3s1,0.4,1.2,0.2c0.6-0.8-2.6-2.2-1.5-3.7c1-1.2,2.4-0.2,3,0.2
		c0.5,0.4,1.4,1.3,0.6,2.3l-0.9-0.6c0.3-0.4,0-0.9-0.5-1.2c-0.5-0.3-0.9-0.5-1.2-0.1c-0.5,0.7,2.6,2.2,1.6,3.6c-0.8,1.1-2,0.5-2.9,0
		c-0.7-0.5-1.7-1.6-1-2.6L249.9,514.9z"/>
	<path id="_x33_6" class="st0" d="M162.5,492.4c-0.2-1.4-1.4-2.4-2.7-2.2c-1.3,0.2-2.2,1.4-2,2.8c0.2,1.4,1.4,2.4,2.7,2.2
		C161.8,495,162.7,493.8,162.5,492.4z M160.2,491.2c1.8,0,1.8,3,0,3C158.4,494.2,158.4,491.2,160.2,491.2z"/>
	<path id="_x33_5" class="st0" d="M259.2,519.8c0.7-1.2,0.3-2.7-0.9-3.3c-1.2-0.6-2.6,0-3.3,1.2c-0.7,1.2-0.3,2.7,0.9,3.3
		C257.1,521.6,258.6,521,259.2,519.8z M258,517.5c1.5,1-0.3,3.5-1.8,2.5C254.8,519.1,256.6,516.6,258,517.5z"/>
	<path id="_x33_4" class="st0" d="M175.7,490.2c-0.6-0.9-1.7-0.9-1.7-0.9l-2.6,0l0.1,5c0,0,2.1,0,2.6,0c0.6-0.1,1.2-0.4,1.6-0.9
		c0.4-0.5,0.4-1.2,0.4-1.5C176.1,491.4,176.2,490.9,175.7,490.2z M173.6,493.4c-0.4,0-1.2,0-1.2,0s0-2.5-0.1-3.1c1.1,0,1.1,0,1.5,0
		c0.8,0,1.1,0.6,1.3,0.9c0.1,0.4,0.1,0.6,0.1,0.9c0,0.4-0.2,0.7-0.5,1C174.2,493.4,173.9,493.4,173.6,493.4z"/>
	<path id="_x33_3" class="st0" d="M168.5,492.4c0,0,0.5-0.4,0.7-1.1c0.1-0.6-0.3-1.2-0.4-1.3c-0.2-0.1-0.5-0.5-1.1-0.5
		c-0.5,0-3.2,0.2-3.2,0.2l0.3,5l1-0.1l-0.1-1.9l1.7-0.1l0.4,0c0,0,0.5,0.8,0.6,1.3c0,0.3,0,0.5,0,0.5h0.9c0,0,0-0.9-0.2-1.4
		S168.5,492.4,168.5,492.4z M167.9,491.6c-0.2,0.2-0.8,0.2-0.8,0.2l-1.6,0.1c0,0-0.1-0.9-0.1-1.3c0.2,0,1.5-0.1,1.6-0.1
		c0.3,0,0.6,0,0.6,0s0.2,0,0.4,0.2c0,0,0.2,0.2,0.2,0.4C168.2,491.3,168,491.5,167.9,491.6z"/>
	<path id="_x33_2" class="st0" d="M224,500c0.2-1.4-0.7-2.6-2-2.8c-1.3-0.2-2.5,0.8-2.7,2.2c-0.2,1.4,0.7,2.6,2,2.8
		S223.8,501.3,224,500z M222,498.2c1.7,0.4,0.9,3.4-0.8,2.9C219.5,500.7,220.3,497.8,222,498.2z"/>
	<path id="_x33_1" class="st0" d="M216.4,498c0,0,0.7-0.2,1-0.8c0.4-0.6,0.1-1.2,0-1.4c-0.1-0.2-0.3-0.6-0.9-0.8
		c-0.5-0.1-3.1-0.8-3.1-0.8l-1.4,4.8l0.9,0.2l0.5-1.8l1.6,0.4l0.4,0.1c0,0,0.2,0.9,0.1,1.4c-0.1,0.3-0.2,0.5-0.2,0.5l0.9,0.3
		c0,0,0.3-0.8,0.3-1.4C216.6,498.3,216.4,498,216.4,498z M216.1,497.1c-0.2,0.1-0.8-0.1-0.8-0.1l-1.6-0.4c0,0,0.2-0.8,0.4-1.2
		c0.2,0.1,1.5,0.4,1.5,0.4c0.2,0.1,0.5,0.1,0.5,0.1s0.2,0.1,0.3,0.3c0,0,0.1,0.2,0.1,0.5C216.5,496.9,216.2,497.1,216.1,497.1z"/>
	<path id="_x33_0" class="st0" d="M235.5,505.4c0,0,0.7-0.2,1.1-0.7c0.4-0.5,0.2-1.2,0.1-1.4c-0.1-0.2-0.3-0.7-0.8-0.9
		c-0.5-0.2-3-1.1-3-1.1l-1.9,4.7l0.9,0.3l0.7-1.7l1.6,0.6l0.4,0.1c0,0,0.1,0.9,0,1.4c-0.1,0.3-0.2,0.5-0.2,0.5l0.9,0.4
		c0,0,0.4-0.8,0.4-1.4C235.6,505.6,235.5,505.4,235.5,505.4z M235.3,504.4c-0.3,0.1-0.8-0.1-0.8-0.1l-1.5-0.5c0,0,0.3-0.8,0.5-1.2
		c0.2,0.1,1.4,0.5,1.5,0.5c0.2,0.1,0.5,0.2,0.5,0.2s0.2,0.1,0.3,0.3c0,0,0.1,0.2,0,0.5C235.6,504.3,235.4,504.4,235.3,504.4z"/>
	<path id="_x32_9" class="st0" d="M210,496.4c0,0,0.7-0.3,1-0.8c0.3-0.6,0.1-1.2,0-1.4c-0.1-0.2-0.4-0.6-0.9-0.8
		c-0.5-0.1-3.1-0.7-3.1-0.7l-1.3,4.8l0.9,0.2l0.5-1.8l1.6,0.4l0.4,0.1 M209.7,495.4c-0.2,0.1-0.8-0.1-0.8-0.1l-1.6-0.4
		c0,0,0.2-0.8,0.3-1.2c0.2,0.1,1.5,0.3,1.5,0.4c0.3,0.1,0.5,0.1,0.5,0.1s0.2,0.1,0.3,0.3c0,0,0.2,0.2,0.1,0.5
		C210,495.3,209.8,495.4,209.7,495.4z"/>
	<path id="_x32_8" class="st0" d="M229.5,502.7c-0.1-0.1-0.3-0.1-0.4-0.1c-0.4,0.7-1.3,1.3-2.1,0.7c-1.5-1,0.3-3.5,1.8-2.5
		c0.4,0.2,0.5,0.6,0.5,0.9c0.2,0.1,0.5,0.1,0.7,0.2c0.1,0,0.2,0.1,0.3,0.1c0.1-0.9-0.4-1.8-1.2-2.2c-1.2-0.6-2.6,0-3.3,1.2
		c-0.7,1.2-0.3,2.7,0.9,3.3c1.2,0.6,2.6,0,3.3-1.2c0,0,0-0.1,0.1-0.1C229.8,502.8,229.7,502.8,229.5,502.7z"/>
	<polygon id="_x32_7" class="st4" points="226.7,493.5 225.5,494.3 225.9,495.6 224.8,494.8 223.6,495.6 224.1,494.3 222.9,493.5 
		224.3,493.5 224.8,492.2 225.2,493.5 	"/>
	<polygon id="_x32_6" class="st4" points="160.3,500.4 161.6,501.3 161.1,502.9 162.5,501.9 163.9,502.9 163.4,501.3 164.7,500.4 
		163,500.4 162.5,498.8 162,500.4 	"/>
	<polygon id="_x32_5" class="st4" points="221,507.4 222,508.1 221.6,509.1 222.6,508.5 223.6,509.1 223.2,508.1 224.1,507.4 
		223,507.4 222.6,506.3 222.2,507.4 	"/>
	<polygon id="_x32_4" class="st4" points="171.8,519.7 172.4,520.1 172.1,520.8 172.7,520.4 173.3,520.8 173.1,520.1 173.7,519.7 
		173,519.7 172.7,519.1 172.5,519.7 	"/>
	<polyline id="_x32_3" class="st4" points="167.4,520.9 166.8,522.4 165.1,522.4 166.5,523.4 166,525 167.4,524 168.8,525 
		168.2,523.4 169.6,522.4 167.9,522.4 167.4,520.9 	"/>
	<polygon id="_x32_2" class="st4" points="158.8,527.3 159.9,528.1 159.5,529.4 160.6,528.6 161.8,529.4 161.3,528.1 162.5,527.3 
		161.1,527.3 160.6,526 160.2,527.3 	"/>
	<polygon id="_x32_1" class="st4" points="184.7,512 185.8,512.8 185.4,514.1 186.5,513.3 187.7,514.1 187.2,512.8 188.4,512 
		187,512 186.5,510.8 186.1,512 	"/>
	<polygon id="_x32_0" class="st4" points="177.3,527.7 178.3,528.4 177.9,529.6 179,528.9 180,529.6 179.6,528.4 180.7,527.7 
		179.4,527.7 179,526.5 178.6,527.7 	"/>
	<polygon id="_x31_9" class="st4" points="175.7,533.2 176.7,533.9 176.3,534.9 177.3,534.3 178.2,534.9 177.9,533.9 178.8,533.2 
		177.7,533.2 177.3,532.1 176.9,533.2 	"/>
	<polygon id="_x31_8" class="st4" points="183.2,537.4 184.6,538.3 184,539.9 185.4,538.9 186.8,539.9 186.3,538.3 187.7,537.4 
		186,537.4 185.4,535.8 184.9,537.4 	"/>
	<polygon id="_x31_7" class="st4" points="205.6,518.5 206.8,519.3 206.3,520.6 207.5,519.8 208.7,520.6 208.2,519.3 209.4,518.5 
		207.9,518.5 207.5,517.2 207.1,518.5 	"/>
	<polygon id="_x31_6" class="st4" points="200.4,523.3 201.3,523.9 201,525 201.9,524.3 202.9,525 202.5,523.9 203.5,523.3 
		202.3,523.3 201.9,522.2 201.6,523.3 	"/>
	<polygon id="_x31_5" class="st4" points="203.7,526.9 204.3,527.3 204.1,527.9 204.7,527.5 205.3,527.9 205,527.3 205.6,526.9 
		204.9,526.9 204.7,526.2 204.5,526.9 	"/>
	<polygon id="_x31_4" class="st4" points="212,523.1 213.2,523.9 212.7,525.2 213.9,524.4 215,525.2 214.6,523.9 215.8,523.1 
		214.3,523.1 213.9,521.8 213.4,523.1 	"/>
	<polygon id="_x31_3" class="st4" points="205.3,533.6 206.6,534.6 206.1,536.1 207.5,535.2 208.9,536.1 208.4,534.6 209.7,533.6 
		208,533.6 207.5,532.1 207,533.6 	"/>
	<polygon id="_x31_2" class="st4" points="206.7,551.3 207.2,551.7 207,552.2 207.5,551.8 207.9,552.2 207.7,551.7 208.2,551.3 
		207.6,551.3 207.5,550.8 207.3,551.3 	"/>
	<polygon id="_x31_1" class="st4" points="218.1,539.5 219,540.2 218.7,541.2 219.6,540.6 220.6,541.2 220.2,540.2 221.2,539.5 
		220,539.5 219.6,538.4 219.3,539.5 	"/>
	<polygon id="_x31_0" class="st4" points="222.1,545.3 223.3,546.1 222.8,547.4 224,546.6 225.1,547.4 224.7,546.1 225.9,545.3 
		224.4,545.3 224,543.9 223.5,545.3 	"/>
	<polygon id="_x39_" class="st4" points="229.3,541.3 230.3,540.7 229.1,540.7 228.7,539.6 228.4,540.7 227.2,540.7 228.2,541.3 
		227.8,542.4 228.7,541.8 229.7,542.4 	"/>
	<polygon id="_x38_" class="st4" points="233.3,538.9 234.3,539.6 233.9,540.7 234.9,540 235.8,540.7 235.5,539.6 236.4,538.9 
		235.2,538.9 234.9,537.9 234.5,538.9 	"/>
	<polygon id="_x37_" class="st4" points="233.1,543.9 234.3,544.7 233.9,546 235,545.2 236.2,546 235.7,544.7 236.9,543.9 
		235.5,543.9 235,542.6 234.6,543.9 	"/>
	<polygon id="_x36_" class="st4" points="233.6,549.4 234.6,550.1 234.2,551.1 235.2,550.5 236.1,551.1 235.7,550.1 236.7,549.4 
		235.5,549.4 235.2,548.3 234.8,549.4 	"/>
	<polygon id="_x35_" class="st4" points="239.1,539.9 240,540.5 239.7,541.6 240.6,541 241.6,541.6 241.2,540.5 242.2,539.9 
		241,539.9 240.6,538.8 240.3,539.9 	"/>
	<polyline id="_x34_" class="st4" points="243.2,537.2 244.3,538 243.9,539.3 245,538.5 246.2,539.3 245.8,538 246.9,537.2 
		245.5,537.2 245,535.9 244.6,537.2 243.2,537.2 	"/>
	<polygon id="_x33_" class="st4" points="246.5,533.1 247.6,533.9 247.2,535.2 248.4,534.4 249.5,535.2 249.1,533.9 250.2,533.1 
		248.8,533.1 248.4,531.8 247.9,533.1 	"/>
	<polygon id="_x32_" class="st4" points="243.9,528.2 245.3,529.2 244.7,530.7 246.1,529.7 247.5,530.7 247,529.2 248.4,528.2 
		246.6,528.2 246.1,526.6 245.6,528.2 	"/>
	<polygon id="_x31_" class="st4" points="252.3,529 253.2,529.7 252.9,530.7 253.8,530.1 254.8,530.7 254.4,529.7 255.4,529 
		254.2,529 253.8,527.9 253.5,529 	"/>
</g>
</svg>
