<?xml version="1.0" encoding="utf-8"?>
<!-- Generator: Adobe Illustrator 23.1.1, SVG Export Plug-In . SVG Version: 6.00 Build 0)  -->
<svg version="1.1" id="Countryflags.com" xmlns="http://www.w3.org/2000/svg" xmlns:xlink="http://www.w3.org/1999/xlink" x="0px"
	 y="0px" viewBox="232 646.5 225 150" style="enable-background:new 232 646.5 225 150;" xml:space="preserve">
<style type="text/css">
	.st0{fill:#FF0000;}
	.st1{fill:#FFFFFF;}
</style>
<g>
	<rect id="_x33_" x="232" y="646.5" class="st0" width="225" height="150"/>
	<rect id="_x32_" x="288.3" y="646.5" class="st1" width="112.5" height="150"/>
	<path id="_x31_" class="st0" d="M344.5,660.6l-7.7,19.1c-0.9,2.1-2.4,1.9-4,0.7l-5.6-3.8l4.1,29.3c0.9,5.4-1.9,5.4-3.3,3l-9.7-14.5
		l-1.6,7.4c-0.2,1-1,2-2.2,1.7l-12.3-3.4l3.2,15.6c0.7,3.5,1.2,4.9-0.7,5.8l-4.4,2.7l21.1,22.9c0.8,0.9,1.3,2.4,1,3.8l-1.8,8.1
		c7.3-1.1,13.8-2.8,21.1-3.8c0.6-0.1,1.7,1.3,1.7,2.3l-1,29.6h3.5l-0.6-29.6c0-1,1-2.5,1.6-2.4c7.3,1,13.8,2.7,21.1,3.8l-1.8-8.1
		c-0.3-1.4,0.1-3,1-3.8l21.1-22.9l-4.4-2.7c-1.9-0.9-1.4-2.4-0.7-5.8l3.2-15.6l-12.3,3.4c-1.2,0.2-2-0.8-2.2-1.7l-1.6-7.4l-9.7,14.5
		c-1.4,2.3-4.2,2.3-3.3-3l4.1-29.3l-5.6,3.8c-1.6,1.2-3.1,1.4-4-0.7"/>
</g>
</svg>
