<?xml version="1.0" encoding="utf-8"?>
<!-- Generator: Adobe Illustrator 23.1.1, SVG Export Plug-In . SVG Version: 6.00 Build 0)  -->
<svg version="1.1" id="Countryflags.com" xmlns="http://www.w3.org/2000/svg" xmlns:xlink="http://www.w3.org/1999/xlink" x="0px"
	 y="0px" viewBox="782 921.5 225 150" style="enable-background:new 782 921.5 225 150;" xml:space="preserve">
<style type="text/css">
	.st0{fill:#FFFFFF;}
	.st1{fill:#CF142B;}
	.st2{fill:#00247D;}
</style>
<g>
	<rect id="_x31_4" x="782" y="921.5" class="st0" width="224.9" height="150"/>
	<polygon id="_x31_3" class="st1" points="883.2,1011.4 883.2,1071.5 905.7,1071.5 905.7,1011.4 1006.9,1011.4 1006.9,981.5 
		905.7,981.5 905.7,921.5 883.2,921.5 883.2,981.5 782,981.5 782,1011.4 	"/>
	<polygon id="_x31_2" class="st2" points="913.2,970 913.2,921.5 986,921.5 	"/>
	<polygon id="_x31_1" class="st2" points="913.2,1022.9 913.2,1071.5 986,1071.5 	"/>
	<polygon id="_x31_0" class="st2" points="875.7,1022.9 875.7,1071.5 802.9,1071.5 	"/>
	<polygon id="_x39_" class="st2" points="875.7,970 875.7,921.5 802.9,921.5 	"/>
	<polygon id="_x38_" class="st2" points="782,935.4 782,971.5 836.1,971.5 	"/>
	<polygon id="_x37_" class="st2" points="1006.9,935.4 1006.9,971.5 952.8,971.5 	"/>
	<polygon id="_x36_" class="st2" points="1006.9,1057.5 1006.9,1021.5 952.8,1021.5 	"/>
	<polygon id="_x35_" class="st2" points="782,1057.5 782,1021.5 836.1,1021.5 	"/>
	<polyline id="_x34_" class="st1" points="1006.9,921.5 994.4,921.5 919.6,971.5 932,971.5 1007,921.5 	"/>
	<polyline id="_x33_" class="st1" points="869.3,1021.5 856.8,1021.5 782,1071.5 794.5,1071.5 869.5,1021.5 	"/>
	<polygon id="_x32_" class="st1" points="844.5,971.5 856.9,971.5 782,921.5 782,929.9 	"/>
	<polygon id="_x31_" class="st1" points="944.4,1021.5 931.9,1021.5 1006.8,1071.5 1006.8,1063.1 	"/>
</g>
</svg>
