<?xml version="1.0" encoding="utf-8"?>
<!-- Generator: Adobe Illustrator 23.1.1, SVG Export Plug-In . SVG Version: 6.00 Build 0)  -->
<svg version="1.1" id="Countryflags.com" xmlns="http://www.w3.org/2000/svg" xmlns:xlink="http://www.w3.org/1999/xlink" x="0px"
	 y="0px" viewBox="9.5 576.5 270 180" style="enable-background:new 9.5 576.5 270 180;" xml:space="preserve">
<style type="text/css">
	.st0{fill:#CE1126;}
	.st1{fill:#007A5E;}
	.st2{fill:#FCD116;}
</style>
<g>
	<rect id="_x31_3" x="9.5" y="576.5" class="st0" width="270" height="180"/>
	<rect id="_x31_2" x="32.2" y="601.7" class="st1" width="224.6" height="129.6"/>
	<path id="_x31_1" class="st2" d="M32.2,601.7h224.6L32.2,731.3h224.6L32.2,601.7z"/>
	<path id="_x31_0" class="st0" d="M144.5,644.9c10.7,0,19.4,9.7,19.4,21.6c0,11.9-8.7,21.6-19.4,21.6c-10.7,0-19.4-9.7-19.4-21.6
		C125.1,654.6,133.8,644.9,144.5,644.9z"/>
	<path id="_x39_" class="st0" d="M46.1,666.7c2.4,5,7.2,10.5,11.3,12.4c0.1-5.1-1.6-11.7-3.8-16.9L46.1,666.7z"/>
	<path id="_x38_" class="st2" d="M42,649.5c3.5,8.2-9.1,27.6,12,32.2c-2.6-3.9-4.3-10.5-3.6-15.7c4.4,1.9,9.1,7.3,11,11.5
		C66.8,655.2,47.1,656.6,42,649.5z"/>
	<polygon id="_x37_" class="st2" points="127.6,660.4 138,668.8 134,682.5 144.5,674.1 155,682.5 151,668.8 161.4,660.4 
		148.5,660.4 144.5,646.7 140.5,660.4 	"/>
	<polygon id="_x36_" class="st2" points="80.5,585.5 86.7,590.5 84.3,598.6 90.5,593.6 96.7,598.6 94.3,590.5 100.5,585.5 
		92.8,585.5 90.5,577.4 88.2,585.5 	"/>
	<polygon id="_x35_" class="st2" points="134.5,585.5 140.7,590.5 138.3,598.6 144.5,593.6 150.7,598.6 148.3,590.5 154.5,585.5 
		146.8,585.5 144.5,577.4 142.2,585.5 	"/>
	<polygon id="_x34_" class="st2" points="188.5,585.5 194.7,590.5 192.3,598.6 198.5,593.6 204.7,598.6 202.3,590.5 208.5,585.5 
		200.8,585.5 198.5,577.4 196.2,585.5 	"/>
	<polygon id="_x33_" class="st2" points="188,741.5 194.2,746.5 191.9,754.6 198.1,749.6 204.2,754.6 201.9,746.5 208.1,741.5 
		200.4,741.5 198.1,733.4 195.7,741.5 	"/>
	<polygon id="_x32_" class="st2" points="134,741.5 140.2,746.5 137.9,754.6 144.1,749.6 150.2,754.6 147.9,746.5 154.1,741.5 
		146.4,741.5 144.1,733.4 141.7,741.5 	"/>
	<polygon id="_x31_" class="st2" points="80,741.5 86.2,746.5 83.9,754.6 90.1,749.6 96.2,754.6 93.9,746.5 100.1,741.5 92.4,741.5 
		90.1,733.4 87.7,741.5 	"/>
</g>
</svg>
