<?xml version="1.0" encoding="utf-8"?>
<!-- Generator: Adobe Illustrator 23.1.1, SVG Export Plug-In . SVG Version: 6.00 Build 0)  -->
<svg version="1.1" id="Countryflags.com" xmlns="http://www.w3.org/2000/svg" xmlns:xlink="http://www.w3.org/1999/xlink" x="0px"
	 y="0px" viewBox="503 846.5 258 172" style="enable-background:new 503 846.5 258 172;" xml:space="preserve">
<style type="text/css">
	.st0{fill:#239F40;}
	.st1{fill:#FFFFFF;}
	.st2{fill:#DA0000;}
	.st3{fill:none;stroke:#FFFFFF;stroke-width:1.7171;stroke-linecap:square;}
</style>
<g>
	<rect id="_x35_1" x="503" y="846.5" class="st0" width="258" height="172"/>
	<rect id="_x35_0" x="503" y="903.8" class="st1" width="258" height="57.3"/>
	<rect id="_x34_9" x="503" y="961.2" class="st2" width="258" height="57.3"/>
	<path id="_x34_8" class="st3" d="M621.7,895.1h13.8 M621.7,900.5v-2.7h4.6v2.7h4.6v-2.7h-2.3 M635.4,900.5h-2.3v-2.7h4.6v-2.7
		 M637.7,897.8v2.7h4.6v-5.4 M640,895.1v5.4 M624,900.5L624,900.5"/>
	<path id="_x34_7" class="st3" d="M621.7,903.5h9.2 M633.1,903.5h9.2"/>
	<path id="_x34_6" class="st3" d="M621.7,964.5h13.8 M621.7,969.9v-2.7h4.6v2.7h4.6v-2.7h-2.3 M635.4,969.9h-2.3v-2.7h4.6v-2.7
		 M637.7,967.2v2.7h4.6v-5.4 M640,964.5v5.4 M624,969.9L624,969.9"/>
	<path id="_x34_5" class="st3" d="M621.7,961.5h9.2 M633.1,961.5h9.2"/>
	<path id="_x34_4" class="st3" d="M644.6,895.1h13.8 M644.6,900.5v-2.7h4.6v2.7h4.6v-2.7h-2.3 M658.4,900.5h-2.3v-2.7h4.6v-2.7
		 M660.7,897.8v2.7h4.6v-5.4 M663,895.1v5.4 M646.9,900.5L646.9,900.5"/>
	<path id="_x34_3" class="st3" d="M644.6,903.5h9.2 M656.1,903.5h9.2"/>
	<path id="_x34_2" class="st3" d="M644.6,964.5h13.8 M644.6,969.9v-2.7h4.6v2.7h4.6v-2.7h-2.3 M658.4,969.9h-2.3v-2.7h4.6v-2.7
		 M660.7,967.2v2.7h4.6v-5.4 M663,964.5v5.4 M646.9,969.9L646.9,969.9"/>
	<path id="_x34_1" class="st3" d="M644.6,961.5h9.2 M656.1,961.5h9.2"/>
	<path id="_x34_0" class="st3" d="M575.8,895.1h13.8 M575.8,900.5v-2.7h4.6v2.7h4.6v-2.7h-2.3 M589.6,900.5h-2.3v-2.7h4.6v-2.7
		 M591.9,897.8v2.7h4.6v-5.4 M594.2,895.1v5.4 M578.1,900.5L578.1,900.5"/>
	<path id="_x33_9" class="st3" d="M575.8,903.5h9.2 M587.3,903.5h9.2"/>
	<path id="_x33_8" class="st3" d="M575.8,964.5h13.8 M575.8,969.9v-2.7h4.6v2.7h4.6v-2.7h-2.3 M589.6,969.9h-2.3v-2.7h4.6v-2.7
		 M591.9,967.2v2.7h4.6v-5.4 M594.2,964.5v5.4 M578.1,969.9L578.1,969.9"/>
	<path id="_x33_7" class="st3" d="M575.8,961.5h9.2 M587.3,961.5h9.2"/>
	<path id="_x33_6" class="st3" d="M598.7,895.1h13.8 M598.7,900.5v-2.7h4.6v2.7h4.6v-2.7h-2.3 M612.5,900.5h-2.3v-2.7h4.6v-2.7
		 M614.8,897.8v2.7h4.6v-5.4 M617.1,895.1v5.4 M601,900.5L601,900.5"/>
	<path id="_x33_5" class="st3" d="M598.7,903.5h9.2 M610.2,903.5h9.2"/>
	<path id="_x33_4" class="st3" d="M598.7,964.5h13.8 M598.7,969.9v-2.7h4.6v2.7h4.6v-2.7h-2.3 M612.5,969.9h-2.3v-2.7h4.6v-2.7
		 M614.8,967.2v2.7h4.6v-5.4 M617.1,964.5v5.4 M601,969.9L601,969.9"/>
	<path id="_x33_3" class="st3" d="M598.7,961.5h9.2 M610.2,961.5h9.2"/>
	<path id="_x33_2" class="st3" d="M713.4,895.1h13.8 M713.4,900.5v-2.7h4.6v2.7h4.6v-2.7h-2.3 M727.2,900.5h-2.3v-2.7h4.6v-2.7
		 M729.5,897.8v2.7h4.6v-5.4 M731.8,895.1v5.4 M715.7,900.5L715.7,900.5"/>
	<path id="_x33_1" class="st3" d="M713.4,903.5h9.2 M724.9,903.5h9.2"/>
	<path id="_x33_0" class="st3" d="M713.4,964.5h13.8 M713.4,969.9v-2.7h4.6v2.7h4.6v-2.7h-2.3 M727.2,969.9h-2.3v-2.7h4.6v-2.7
		 M729.5,967.2v2.7h4.6v-5.4 M731.8,964.5v5.4 M715.7,969.9L715.7,969.9"/>
	<path id="_x32_9" class="st3" d="M713.4,961.5h9.2 M724.9,961.5h9.2"/>
	<path id="_x32_8" class="st3" d="M736.3,895.1h13.8 M736.3,900.5v-2.7h4.6v2.7h4.6v-2.7h-2.3 M750.1,900.5h-2.3v-2.7h4.6v-2.7
		 M752.4,897.8v2.7h4.6v-5.4 M754.7,895.1v5.4 M738.6,900.5L738.6,900.5"/>
	<path id="_x32_7" class="st3" d="M736.3,903.5h9.2 M747.8,903.5h9.2"/>
	<path id="_x32_6" class="st3" d="M736.3,964.5h13.8 M736.3,969.9v-2.7h4.6v2.7h4.6v-2.7h-2.3 M750.1,969.9h-2.3v-2.7h4.6v-2.7
		 M752.4,967.2v2.7h4.6v-5.4 M754.7,964.5v5.4 M738.6,969.9L738.6,969.9"/>
	<path id="_x32_5" class="st3" d="M736.3,961.5h9.2 M747.8,961.5h9.2"/>
	<path id="_x32_4" class="st3" d="M667.5,895.1h13.8 M667.5,900.5v-2.7h4.6v2.7h4.6v-2.7h-2.3 M681.3,900.5H679v-2.7h4.6v-2.7
		 M683.6,897.8v2.7h4.6v-5.4 M685.9,895.1v5.4 M669.8,900.5L669.8,900.5"/>
	<path id="_x32_3" class="st3" d="M667.5,903.5h9.2 M679,903.5h9.2"/>
	<path id="_x32_2" class="st3" d="M667.5,964.5h13.8 M667.5,969.9v-2.7h4.6v2.7h4.6v-2.7h-2.3 M681.3,969.9H679v-2.7h4.6v-2.7
		 M683.6,967.2v2.7h4.6v-5.4 M685.9,964.5v5.4 M669.8,969.9L669.8,969.9"/>
	<path id="_x32_1" class="st3" d="M667.5,961.5h9.2 M679,961.5h9.2"/>
	<path id="_x32_0" class="st3" d="M690.5,895.1h13.8 M690.5,900.5v-2.7h4.6v2.7h4.6v-2.7h-2.3 M704.2,900.5h-2.3v-2.7h4.6v-2.7
		 M706.5,897.8v2.7h4.6v-5.4 M708.8,895.1v5.4 M692.8,900.5L692.8,900.5"/>
	<path id="_x31_9" class="st3" d="M690.5,903.5h9.2 M701.9,903.5h9.2"/>
	<path id="_x31_8" class="st3" d="M690.5,964.5h13.8 M690.5,969.9v-2.7h4.6v2.7h4.6v-2.7h-2.3 M704.2,969.9h-2.3v-2.7h4.6v-2.7
		 M706.5,967.2v2.7h4.6v-5.4 M708.8,964.5v5.4 M692.8,969.9L692.8,969.9"/>
	<path id="_x31_7" class="st3" d="M690.5,961.5h9.2 M701.9,961.5h9.2"/>
	<path id="_x31_6" class="st3" d="M552.9,895.1h13.8 M552.9,900.5v-2.7h4.6v2.7h4.6v-2.7h-2.3 M566.6,900.5h-2.3v-2.7h4.6v-2.7
		 M568.9,897.8v2.7h4.6v-5.4 M571.2,895.1v5.4 M555.2,900.5L555.2,900.5"/>
	<path id="_x31_5" class="st3" d="M552.9,903.5h9.2 M564.3,903.5h9.2"/>
	<path id="_x31_4" class="st3" d="M552.9,964.5h13.8 M552.9,969.9v-2.7h4.6v2.7h4.6v-2.7h-2.3 M566.6,969.9h-2.3v-2.7h4.6v-2.7
		 M568.9,967.2v2.7h4.6v-5.4 M571.2,964.5v5.4 M555.2,969.9L555.2,969.9"/>
	<path id="_x31_3" class="st3" d="M552.9,961.5h9.2 M564.3,961.5h9.2"/>
	<path id="_x31_2" class="st3" d="M507,895.1h13.8 M507,900.5v-2.7h4.6v2.7h4.6v-2.7h-2.3 M520.8,900.5h-2.3v-2.7h4.6v-2.7
		 M523.1,897.8v2.7h4.6v-5.4 M525.4,895.1v5.4 M509.3,900.5L509.3,900.5"/>
	<path id="_x31_1" class="st3" d="M507,903.5h9.2 M518.5,903.5h9.2"/>
	<path id="_x31_0" class="st3" d="M507,964.5h13.8 M507,969.9v-2.7h4.6v2.7h4.6v-2.7h-2.3 M520.8,969.9h-2.3v-2.7h4.6v-2.7
		 M523.1,967.2v2.7h4.6v-5.4 M525.4,964.5v5.4 M509.3,969.9L509.3,969.9"/>
	<path id="_x39_" class="st3" d="M507,961.5h9.2 M518.5,961.5h9.2"/>
	<path id="_x38_" class="st3" d="M529.9,895.1h13.8 M529.9,900.5v-2.7h4.6v2.7h4.6v-2.7h-2.3 M543.7,900.5h-2.3v-2.7h4.6v-2.7
		 M546,897.8v2.7h4.6v-5.4 M548.3,895.1v5.4 M532.2,900.5L532.2,900.5"/>
	<path id="_x37_" class="st3" d="M529.9,903.5h9.2 M541.4,903.5h9.2"/>
	<path id="_x36_" class="st3" d="M529.9,964.5h13.8 M529.9,969.9v-2.7h4.6v2.7h4.6v-2.7h-2.3 M543.7,969.9h-2.3v-2.7h4.6v-2.7
		 M546,967.2v2.7h4.6v-5.4 M548.3,964.5v5.4 M532.2,969.9L532.2,969.9"/>
	<path id="_x35_" class="st3" d="M529.9,961.5h9.2 M541.4,961.5h9.2"/>
	<path id="_x34_" class="st2" d="M639.5,917.1c0,0,13.3,12.2,3.5,29.7C652.3,940.2,653.1,922.1,639.5,917.1z"/>
	<path id="_x33_" class="st2" d="M632,915.4c-2.1,2.8-5.8,0-4.5-3c2.2,4.6,4.5,0.9,4.5,0.9s2.3,3.7,4.5-0.9
		C637.8,915.4,634.1,918.2,632,915.4L632,915.4z"/>
	<path id="_x32_" class="st2" d="M632,953.3l-1.5-2.3c0,0-3.6,1.4-8.3-0.5c3.9,0,6-0.8,6.8-1.3c0,0-8.8-5.5-8.6-16.8
		c0.5-11.4,5.7-14.8,5.7-14.8s-9.2,15.7,4.3,28.8l-0.6-16.2v-11.9c0.8-0.2,2.2-2.1,2.2-2.1s1.4,1.9,2.2,2.1v11.9l-0.6,16.2
		c13.6-13.1,4.3-28.8,4.3-28.8s5.2,3.5,5.7,14.8c0.2,11.2-8.6,16.8-8.6,16.8c0.8,0.5,3,1.3,6.8,1.3c-4.7,1.9-8.3,0.5-8.3,0.5
		L632,953.3L632,953.3z"/>
	<path id="_x31_" class="st2" d="M624.5,917.1c0,0-13.3,12.2-3.5,29.7C611.7,940.2,610.9,922.1,624.5,917.1z"/>
</g>
</svg>
