<?xml version="1.0" encoding="utf-8"?>
<!-- Generator: Adobe Illustrator 23.1.1, SVG Export Plug-In . SVG Version: 6.00 Build 0)  -->
<svg version="1.1" id="Countryflags.com" xmlns="http://www.w3.org/2000/svg" xmlns:xlink="http://www.w3.org/1999/xlink" x="0px"
	 y="0px" viewBox="32 546.5 225 150" style="enable-background:new 32 546.5 225 150;" xml:space="preserve">
<style type="text/css">
	.st0{fill:#00AFCA;}
	.st1{fill:#FEC50C;}
	.st2{fill:#FEC50C;stroke:#00AFCA;stroke-width:0.1906;}
</style>
<g>
	<rect id="_x35_3" x="32" y="546.5" class="st0" width="225" height="150"/>
	<path id="_x35_2" class="st1" d="M45.3,590.3c0,3,2,4.6,3.7,4.6c2.2,0,3.3-1.7,3.3-4c0-1.3-0.2-2.1-0.6-3.3c0,0-3.6-9.9-5-13.7
		c-0.2-0.5-0.2-1-0.2-1.8c0-1.2,0.9-2.2,1.8-2.3c0.9,0,1.8,1.1,1.8,2.3c0,1.5-0.6,2.2-1.2,2.2c-0.7,0-1-0.4-1-1.1
		c0-0.5,0.2-0.7,0.4-0.7c0.6,0,0.5,1.1,0.5,1.1c0.3-0.1,0.6-0.5,0.4-1.1c0.2-0.1,0.4-0.2,0.6-0.5c-0.2-0.2-0.4-0.4-0.6-0.4
		c0.1-0.7-0.1-1-0.5-1.1c0.1,0.3,0.1,0.5,0.1,0.7c-0.7-0.3-1.7,0.2-1.7,1.7c0,1.6,0.8,2.9,2.3,2.5c-0.4,0.2-0.5,0.7-0.6,1.2
		c0.3-0.1,0.6-0.2,0.6-0.2c-0.2,0.4-0.4,0.8-0.4,1.6c0.3-0.2,0.5-0.5,0.9-0.3c-0.6,1.5,0.1,3.5,1.9,4c-0.6-1-1-2.1-1-3.2
		c0-3.5,0.7-4.1,0.7-6.6c0-1-0.4-2.1-1.2-2.9v0c0.5-0.2,0.8-0.5,1-1c-1.2-0.4-2.9-0.4-3.8,0c-1.1,0.2-1.8,1.2-2,1.8s-0.6,2.5,0,4.3
		c0.7,2,4,11.3,5.1,14.3c0.2,0.6,0.4,1.3,0.4,2c0,1.8-1.2,2.4-1.9,2.4c-0.8,0-1.7-0.9-1.7-1.9c0-0.7,0.3-1.1,0.7-1.1
		c1,0,0.9,1.1,0.7,1.8c0.6-0.4,0.9-1,0.8-1.7c0.3-0.1,0.7-0.3,0.9-0.7c-0.2-0.4-0.5-0.7-0.9-0.7c0.2-1-0.3-1.5-0.8-1.7
		c0.2,0.8,0.3,1.6-0.7,1.6c-0.7,0-1.3,0.2-1.6,0.8c0-0.8-0.1-4.1-0.1-4.1c0-1.2,1.2-1.2,2-0.8c-0.3-1.4-0.9-2.2-2.4-2
		c0.3-0.2,0.7-0.6,0.7-1.5c0-1.1-0.7-2.4-1.1-2.8L45.3,590.3L45.3,590.3z"/>
	<path id="_x35_1" class="st1" d="M156.9,587c0.9,0.2,1.3-0.4,1.5-1.3c0.2-1.2-0.2-7.1-0.2-7.1s-2,5.3-2.2,6.5
		C155.8,585.9,156,586.8,156.9,587z"/>
	<path id="_x35_0" class="st1" d="M160.1,588.3c0.8,0.4,1.4-0.1,1.6-0.9c0.3-1.1,0.8-7,0.8-7s-2.8,4.6-3.1,5.8
		C159.2,587,159.3,587.9,160.1,588.3z"/>
	<path id="_x34_9" class="st1" d="M163.1,590.4c0.8,0.7,1.3,0.3,1.7-0.5c0.5-1,1.9-6.7,1.9-6.7s-3.4,3.8-3.9,4.8
		C162.4,588.9,162.4,589.8,163.1,590.4z"/>
	<path id="_x34_8" class="st1" d="M165.7,593.3c0.6,0.8,1.3,0.6,1.8,0c0.6-0.8,2.8-6.1,2.8-6.1s-3.9,2.9-4.5,3.7
		C165.2,591.6,165.1,592.4,165.7,593.3z"/>
	<path id="_x34_7" class="st1" d="M167.8,596.8c0.5,1,1.2,0.9,1.7,0.4c0.7-0.7,3.6-5.2,3.6-5.2s-4.2,1.8-5,2.5
		C167.6,595,167.3,595.8,167.8,596.8z"/>
	<path id="_x34_6" class="st1" d="M169.4,600.7c0.4,1.1,1,1.2,1.6,0.9c0.8-0.5,4.3-4.2,4.3-4.2s-4.4,0.7-5.3,1.1
		C169.5,598.9,169.1,599.6,169.4,600.7z"/>
	<path id="_x34_5" class="st1" d="M170.4,605c0.2,1.2,0.8,1.5,1.5,1.3c0.9-0.2,4.8-3,4.8-3s-4.4-0.5-5.3-0.3
		C170.7,603.3,170.2,603.9,170.4,605z"/>
	<path id="_x34_4" class="st1" d="M170.7,609.5c0,1.2,0.6,1.6,1.2,1.6c0.9,0,5.2-1.6,5.2-1.6s-4.3-1.6-5.2-1.6
		C171.3,607.9,170.7,608.3,170.7,609.5z"/>
	<path id="_x34_3" class="st1" d="M170.4,614c-0.2,1.2,0.3,1.8,1,1.9c0.9,0.2,5.3-0.3,5.3-0.3s-4-2.7-4.8-3
		C171.2,612.5,170.6,612.8,170.4,614z"/>
	<path id="_x34_2" class="st1" d="M169.4,618.3c-0.3,1.1,0.1,1.8,0.7,2.2c0.8,0.5,5.3,1.1,5.3,1.1s-3.5-3.7-4.3-4.2
		C170.4,617,169.8,617.2,169.4,618.3z"/>
	<path id="_x34_1" class="st1" d="M167.8,622.2c-0.5,1-0.2,1.8,0.4,2.3c0.7,0.7,5,2.5,5,2.5s-2.9-4.5-3.6-5.2
		C169,621.3,168.3,621.2,167.8,622.2z"/>
	<path id="_x34_0" class="st1" d="M165.7,625.7c-0.6,0.9-0.5,1.7,0,2.3c0.6,0.8,4.5,3.7,4.5,3.7s-2.2-5.2-2.8-6.1
		C167,625.1,166.3,624.9,165.7,625.7z"/>
	<path id="_x33_9" class="st1" d="M163.1,628.6c-0.7,0.7-0.7,1.6-0.3,2.3c0.5,1,3.9,4.8,3.9,4.8s-1.4-5.7-1.9-6.7
		C164.5,628.3,163.9,627.9,163.1,628.6z"/>
	<path id="_x33_8" class="st1" d="M160.1,630.7c-0.8,0.5-0.9,1.3-0.7,2.2c0.3,1.1,3.1,5.8,3.1,5.8s-0.5-5.9-0.8-7
		C161.5,630.8,161,630.2,160.1,630.7z"/>
	<path id="_x33_7" class="st1" d="M144,628.6c-0.8-0.7-1.3-0.3-1.7,0.5c-0.5,1-1.9,6.7-1.9,6.7s3.4-3.8,3.9-4.8
		C144.7,630.1,144.7,629.2,144,628.6z"/>
	<path id="_x33_6" class="st1" d="M141.4,625.7c-0.6-0.8-1.3-0.6-1.8,0c-0.6,0.8-2.8,6.1-2.8,6.1s3.9-2.9,4.5-3.7
		C141.9,627.4,142,626.6,141.4,625.7z"/>
	<path id="_x33_5" class="st1" d="M139.3,622.2c-0.5-1-1.2-0.9-1.7-0.4c-0.7,0.7-3.6,5.2-3.6,5.2s4.2-1.8,5-2.5
		C139.5,624,139.8,623.2,139.3,622.2z"/>
	<path id="_x33_4" class="st1" d="M137.7,618.3c-0.4-1.1-1-1.2-1.6-0.9c-0.8,0.5-4.3,4.2-4.3,4.2s4.4-0.7,5.3-1.1
		C137.6,620.1,138,619.4,137.7,618.3z"/>
	<path id="_x33_3" class="st1" d="M136.7,614c-0.2-1.2-0.8-1.5-1.5-1.3c-0.9,0.2-4.8,3-4.8,3s4.4,0.5,5.3,0.3
		C136.4,615.7,136.9,615.1,136.7,614z"/>
	<path id="_x33_2" class="st1" d="M136.4,609.5c0-1.2-0.6-1.6-1.2-1.6c-0.9,0-5.2,1.6-5.2,1.6s4.3,1.6,5.2,1.6
		C135.8,611.1,136.4,610.7,136.4,609.5z"/>
	<path id="_x33_1" class="st1" d="M136.7,605c0.2-1.2-0.3-1.8-1-1.9c-0.9-0.2-5.3,0.3-5.3,0.3s4,2.7,4.8,3
		C135.9,606.5,136.5,606.2,136.7,605z"/>
	<path id="_x33_0" class="st1" d="M137.7,600.7c0.3-1.1-0.1-1.8-0.7-2.2c-0.8-0.5-5.3-1.1-5.3-1.1s3.5,3.7,4.3,4.2
		C136.7,602,137.3,601.8,137.7,600.7z"/>
	<path id="_x32_9" class="st1" d="M139.3,596.8c0.5-1,0.2-1.8-0.4-2.3c-0.7-0.7-5-2.5-5-2.5s2.9,4.5,3.6,5.2
		C138.1,597.7,138.8,597.8,139.3,596.8z"/>
	<path id="_x32_8" class="st1" d="M141.4,593.3c0.6-0.9,0.5-1.7,0-2.3c-0.6-0.8-4.5-3.7-4.5-3.7s2.2,5.2,2.8,6.1
		C140.1,593.9,140.8,594.1,141.4,593.3z"/>
	<ellipse id="_x32_7" class="st1" cx="153.5" cy="609.5" rx="15.1" ry="20.2"/>
	<path id="_x32_6" class="st1" d="M153.6,586.6c0.9,0,1.2-0.8,1.2-1.7c0-1.2-1.2-6.9-1.2-6.9s-1.2,5.7-1.2,6.9
		C152.3,585.8,152.7,586.6,153.6,586.6z"/>
	<path id="_x32_5" class="st1" d="M156.9,632c-0.9,0.2-1.1,1.1-1,2c0.2,1.2,2.2,6.5,2.2,6.5s0.4-5.9,0.2-7.1
		C158.2,632.4,157.8,631.7,156.9,632z"/>
	<path id="_x32_4" class="st1" d="M153.6,632.4c-0.9,0-1.2,0.8-1.2,1.7c0,1.2,1.2,6.9,1.2,6.9s1.2-5.7,1.2-6.9
		C154.8,633.2,154.5,632.4,153.6,632.4z"/>
	<path id="_x32_3" class="st1" d="M150.2,632c-0.9-0.2-1.3,0.4-1.5,1.3c-0.2,1.2,0.2,7.1,0.2,7.1s2-5.3,2.2-6.5
		C151.3,633.1,151.1,632.2,150.2,632z"/>
	<path id="_x32_2" class="st1" d="M147,630.7c-0.8-0.4-1.4,0.1-1.6,0.9c-0.3,1.1-0.8,7-0.8,7s2.8-4.6,3.1-5.8
		C147.9,632,147.8,631.1,147,630.7z"/>
	<path id="_x32_1" class="st1" d="M144,590.4c0.7-0.7,0.7-1.6,0.3-2.3c-0.5-1-3.9-4.8-3.9-4.8s1.4,5.7,1.9,6.7
		C142.7,590.7,143.3,591.1,144,590.4z"/>
	<path id="_x32_0" class="st1" d="M147,588.3c0.8-0.5,0.9-1.3,0.7-2.2c-0.3-1.1-3.1-5.8-3.1-5.8s0.5,5.9,0.8,7
		C145.6,588.2,146.1,588.8,147,588.3z"/>
	<path id="_x31_9" class="st1" d="M150.2,587c0.9-0.2,1.1-1.1,1-2c-0.2-1.2-2.2-6.5-2.2-6.5s-0.4,5.9-0.2,7.1
		C148.9,586.6,149.3,587.3,150.2,587z"/>
	<path id="_x31_8" class="st1" d="M153,644.7l-0.3,0.7l-0.3,0.9l-0.2,0.4l-0.1,0.4l-0.1,0.3l-0.1,0.2l-0.3-0.4l-0.4-0.3l-0.4-0.3
		l-0.4-0.2l-0.5-0.2l-0.5-0.2l-0.5-0.1l-0.5-0.1l-1-0.1l-1,0l-1-0.1l-0.9-0.2l-0.5-0.1l-0.5-0.2l-0.3-0.1L143,645l-0.2-0.2l-0.2-0.2
		l-0.3-0.3l-0.3-0.3l-0.3-0.3l-0.3-0.4l-0.7-0.9l-0.7-0.9l-0.7-0.8l-0.6-0.7l-0.3-0.3l-0.3-0.3l-0.3-0.2l-0.3-0.1l-0.5-0.2l-0.4-0.2
		l-0.4-0.2l-0.4-0.3l-0.4-0.2l-0.4-0.3l-0.3-0.3l-0.3-0.3l-0.3-0.3l-0.3-0.3l-0.3-0.4l-0.3-0.4l-0.6-0.8l-0.5-0.9l-1-1.8l-1.1-1.9
		l-0.6-0.9l-0.7-0.9l-0.4-0.5l-0.4-0.4l-0.4-0.4l-0.4-0.4l-0.1,0l-0.1,0.1l-0.1,0.2l-0.1,0.2l-0.1,0.3l0,0.2l-0.2-0.1l-0.2-0.1
		l-0.2-0.1l-0.2-0.1h-0.4l-0.2,0.1l-0.2,0.1l0.2,0.3l0.3,0.5l0.3,0.5l0.2,0.6l0.2,0.6l0.2,0.6l0.1,0.3l0.1,0.2l0,0.3v0.2h-0.3h-1.2
		l0.2,0.5l0.3,0.5l0.3,0.5l0.3,0.4l0.3,0.4l0.3,0.4l0.3,0.3l0.3,0.3l-0.3,0l-0.4,0l-0.4,0.1l-0.3,0l0.3,0.3l0.3,0.3l0.3,0.3l0.4,0.3
		l0.4,0.3l0.4,0.3l0.3,0.2l0.3,0.1l0.1,0l0.1,0l0.1,0l0.1,0.1l0,0v0.2l0,0.1l-0.1,0.2l0,0.2l0,0.2v0.1l0,0.2l0,0.2l0.1,0.1l0.1,0.1
		l0.1,0.1l0.1,0l0.1,0.1l0.1,0.1l0.1,0.1l0.1,0.1l0,0v0.1l0,0l-0.1,0.1l-0.1,0.1l-0.1,0.2l-0.1,0.2v0.2l0,0.2l0,0.2l0,0.2l0.5,0.2
		l0.5,0.2l0.2,0.1l0.2,0.1l0.2,0.1l0.1,0.1l-1,1l0.3,0.3l0.3,0.2l0.4,0.3l0.4,0.2l0.5,0.2l0.4,0.1l0.4,0.1h0.3l-0.3,0.3l-0.4,0.3
		l-0.4,0.3l-0.3,0.3l0.3,0.3l0.4,0.3l0.5,0.3l0.6,0.3l1.3,0.7l1.4,0.7l1.5,0.7l1.4,0.6l0.6,0.3l0.6,0.2l0.5,0.2l0.5,0.1l-0.9-0.1
		l-0.9-0.2l-0.9-0.2l-0.8-0.2l-0.8-0.3l-0.8-0.3l-0.8-0.3l-0.7-0.4l-1.4-0.8l-1.3-0.8l-0.6-0.3l-0.6-0.3l-0.6-0.3l-0.6-0.3l0.1-0.1
		l0.2-0.1l0.2-0.1l0.3-0.1l0.6-0.2l0.5-0.2l-0.9-0.2l-1.2-0.3l-0.6-0.2l-0.5-0.2l-0.2-0.1l-0.2-0.1l-0.1-0.1l-0.1-0.1v0l0,0l0.1,0
		l0.1-0.1l0.2-0.1l0.3-0.1l0.7-0.3l0.6-0.3l-1.4-0.3L127,642l-0.4-0.1l-0.3-0.2l-0.1-0.1l-0.1-0.1l-0.1-0.1l-0.1-0.1l0.1-0.1
		l0.3-0.1l0.4-0.1l0.4-0.1l0.5-0.1l0.4-0.2l0.2-0.1l0.2-0.1l0.1-0.1l0.1-0.1l-0.2-0.1l-0.2-0.1l-0.3-0.1l-0.3-0.1l-0.7-0.1l-0.7-0.1
		l-0.3-0.1l-0.3-0.1l-0.3-0.2l-0.3-0.2l-0.3-0.2l-0.3-0.3l-0.2-0.3l-0.2-0.3l0.1,0l0.1,0h0.1l0.2,0l0.5,0l0.6,0l0.6,0.1h0.8l0.2,0
		l0.2-0.1l0.1-0.1l-0.7-0.4l-0.9-0.5l-0.5-0.3l-0.6-0.3l-0.6-0.4l-0.6-0.4l-0.5-0.4l-0.5-0.5l-0.5-0.5l-0.4-0.5l-0.2-0.3l-0.2-0.2
		l-0.1-0.2l-0.1-0.3l-0.1-0.2l-0.1-0.3l0-0.2l0-0.3h0.2l0.2,0l0.2,0.1l0.2,0.1l0.5,0.4l0.5,0.4l0.2,0.2l0.3,0.2l0.3,0.2l0.2,0.1
		l0.3,0.1l0.2,0h0.3l0.2-0.1l-0.7-0.7l-0.8-0.9l-0.9-1l-0.9-1.2l-0.9-1.2l-0.8-1.2l-0.4-0.7l-0.4-0.6l-0.3-0.6l-0.3-0.6l-0.1-0.2
		v-0.3l0-0.1l0-0.1l0.1-0.1l0.1-0.1l0.1-0.1l0.1,0l0.1,0h0.2l0.1,0l0.1,0l0.1,0.1l0.1,0.1l0.5,0.7l0.6,0.8l0.6,0.9l0.7,0.9l0.7,0.8
		l0.7,0.8l0.3,0.3l0.3,0.3l0.3,0.2l0.3,0.2l-0.2-0.2l-0.3-0.3l-0.3-0.5l-0.4-0.6l-0.8-1.4l-0.9-1.6l-0.5-0.9l-0.4-0.9l-0.4-0.9
		l-0.4-0.8l-0.3-0.8l-0.3-0.7l-0.2-0.7l-0.2-0.5l0-0.2v-0.3l0-0.1l0.1-0.1l0.1-0.1l0.1-0.1l0.1-0.1l0.2-0.1l0.2-0.1h0.4l0.1,0l0.1,0
		l0.1,0.1l0.1,0.1l0.2,0.3l0.2,0.4l0.5,0.9l0.6,1.1l0.6,1.2l0.7,1.2l0.3,0.6l0.3,0.6l0.4,0.5l0.4,0.5l-0.5-1.3l-0.6-1.5l-0.3-0.8
		l-0.3-0.8l-0.3-0.9l-0.2-0.9l-0.2-0.9l-0.2-0.9l-0.1-0.9l-0.1-0.9l-0.1-0.8l0-0.8l0-0.4l0-0.3l0-0.3l0.1-0.3l0.1-0.1l0-0.1l0.1-0.1
		l0.1-0.1l0.2-0.1l0.2-0.1h0.2l0.2,0l0.1,0l0.1,0l0,0.1l0,0.1l0.3,1.2l0.3,1.3l0.3,1.4l0.3,1.3l0.3,1.3l0.3,1.2l0.2,0.6l0.2,0.6
		l0.2,0.5l0.3,0.5l-0.2-1.1l-0.1-1l-0.1-0.9l-0.1-0.9l-0.1-0.7l0-0.7l0-0.5l0-0.5l0.1-0.4l0.1-0.3l0.1-0.1l0.1-0.1l0.1-0.1l0.1-0.1
		l0.1,0h0.3l0.2,0.1l0.2,0.2l0.2,1.2l0.2,1.2l0.2,1.1l0.3,1.1l0.3,1.1l0.3,1.1l0.3,1.1l0.4,1.1l0.3,0.7l0.3,0.7l0.3,0.7l0.3,0.7
		l0.3,0.7l0.3,0.7l0.4,0.7l0.4,0.7l0.7,1.2l0.7,1.1l0.8,1.1l0.8,1l0.8,1l0.8,0.9l0.9,0.9l0.9,0.9l0.6,0.5l0.6,0.5l0.7,0.5l0.6,0.5
		l1,0.7l1,0.6l1,0.5l1,0.5l1,0.4l1,0.3l1,0.3l1,0.3l1.1,0.2l1,0.2l1.1,0.1L153,644.7"/>
	<path id="_x31_7" class="st1" d="M155.7,656.5l0.5,0.1l0.2,0.1l0.1,0v0h-0.1l-0.1,0l-0.5,0.1h-0.4l-1.2-0.1l-1.5,0l-1.6,0l-1.7,0
		l-0.8,0l-0.8,0.1l-0.7,0.1l-0.7,0.1l-0.6,0.1l-0.5,0.2l-0.2,0.1l-0.2,0.1l-0.1,0.1l-0.1,0.1l0.1-0.4l0.1-0.4l-0.2,0.1l-0.2,0.1
		l-0.2,0.1l-0.2,0.1l-0.1,0.1l-0.1,0.2l-0.1,0.2l0,0.2l-0.1-0.3l-0.1-0.2l0-0.3l0-0.2l0-0.2l0-0.2l0-0.2l0.1-0.2l0.1-0.2l0.1-0.2
		l0.1-0.2l0.1-0.2l0.3-0.3l0.3-0.3c0.2,0.2,0.4,0.3,0.6,0.3c0.2,0,0.4,0,0.6-0.1c0.4,0.4,0.8,0.4,1.1-0.1c0.1-0.1,0.1-0.2,0.1-0.3
		c0-0.2,0-0.5,0-0.8l0.3,0l0.4-0.1l0.4-0.2l0.5-0.2l0.5-0.1l0.4-0.2l0.4-0.1l0.3,0l-0.1,0.2l-0.3,0.3l-0.4,0.4l-0.3,0.3l0.4,0.1
		l0.3,0.1l-0.2,0.3l-0.2,0.3l-0.2,0.3l-0.2,0.3l0.2,0.1l0.2,0.1l0.3,0.1h0.5l0.3-0.1l0.3-0.1l0.2-0.2l0.2,0.2l0.2,0.1l0.2,0.1
		l0.2,0.1l0.5,0.1l0.6,0.1H155.7"/>
	<path id="_x31_6" class="st1" d="M146.8,654.3L146.8,654.3l0.2,0.1l0,0.1l0,0.1l0,0.1l0,0.1l-0.1,0.1h-0.2l-0.1-0.1l-0.1-0.1l0-0.1
		l0-0.1l0.1-0.1l0.1,0L146.8,654.3"/>
	<path id="_x31_5" class="st1" d="M146.7,654.5L146.7,654.5l0.1,0.1l0,0.1l-0.1,0l-0.1,0l0-0.1L146.7,654.5L146.7,654.5"/>
	<path id="_x31_4" class="st1" d="M146.8,655c-0.1,0-0.3-0.2-0.3-0.4s0.1-0.4,0.3-0.4c0.1,0,0.3,0.2,0.3,0.4S146.9,655,146.8,655z"
		/>
	<path id="_x31_3" class="st1" d="M168.4,658.4l-0.2,0.1l-0.2,0l-0.2,0l-0.1,0l-0.1,0l-0.1-0.1l-0.1-0.1l-0.1-0.1l-0.2-0.2l-0.2-0.2
		l-0.1-0.1l-0.1-0.1l-0.1,0h-0.1l-0.3,0.7l-0.3,0.9l-0.1,0.2l-0.1,0.2l-0.1,0.1l-0.1,0.1l-0.1,0.1h-0.1l-0.1-0.1l-0.2-0.1l-0.1-0.1
		l-0.1-0.1l-0.1-0.2l-0.1-0.2l-0.1-0.3l0-0.2l-0.2,0.2l-0.2,0.3l-0.1,0.3l-0.2,0.3l-0.2,0.3l-0.2,0.3l-0.1,0.2l-0.1,0.1l-0.1,0.1
		l-0.2,0.1h-0.1l-0.1,0l-0.1,0l-0.1-0.1l-0.3-0.5l-0.4-0.5l-0.3,0.5l-0.3,0.5l-0.1,0.2l-0.1,0.2l-0.1,0.2l-0.1,0.1l-0.1,0.1l-0.1,0
		h-0.1l-0.1,0l-0.1-0.1l-0.1-0.1l-0.1-0.2l-0.1-0.2l-0.1-0.2l-0.1-0.4l0-0.2l-0.1-0.2l-0.1-0.1h-0.1l-0.8,1.7l-0.1,0.2l-0.2,0.1
		l-0.2,0.1l-0.2,0.1H157l-0.2-0.1l-0.1,0l-0.1-0.1l0-0.1v-0.2l0.1-1.7l-0.1,0l-0.1,0.1l-0.1,0.1l-0.1,0.2l-0.2,0.3l-0.3,0.4
		l-0.3,0.4l-0.3,0.3l-0.1,0.2l-0.1,0.2l-0.2,0.1l-0.1,0l-0.2,0l-0.1,0l-0.1,0l-0.1-0.1l0-0.1v-0.1l0-0.5l0.1-0.5l0-0.3l0-0.2l0-0.2
		l-0.1-0.3l-0.2,0.3l-0.3,0.5l-0.3,0.5l-0.4,0.5l-0.2,0.2l-0.2,0.2l-0.2,0.1l-0.1,0.1l-0.1,0H152l-0.1-0.1l0,0l-0.1-0.1l0-0.1v-0.2
		l0-0.2l0-1.5l-0.7,0.7l-0.9,0.7l-0.2,0.1l-0.2,0.2l-0.2,0.1l-0.2,0.1l-0.2,0.1H149l-0.2,0l-0.2-0.1l0.1-0.3l0.1-0.3l0.1-0.3
		l0.1-0.2l0.1-0.2l0.1-0.2l0.1-0.2l0.1-0.2l0.3-0.3l0.4-0.3l0.4-0.2l0.4-0.2l0.4-0.2l0.5-0.1l0.5-0.1l0.5-0.1l1.1-0.1l1.1,0h2.2
		l0.6,0l0.5,0l0.5,0l0.5-0.1l0.5-0.1l0.4-0.1l0.4-0.2l0.4-0.2l0.4-0.2l0.3-0.3l0.3-0.3l0.3-0.4l-0.3-0.8l0.2,0l0.2-0.1l0.2-0.2
		l0.2-0.2l0.1-0.1l0.1-0.1l0.1-0.2l0.1-0.1l0-0.2v-0.3l-0.1-0.2l0.5-0.1l0.5-0.1l0.6,0h0.6l1.2,0.1l1.2,0.1l1.2,0.2l1.2,0.2l1.2,0.2
		l1.1,0.1v0.5l0,0.2l-0.1,0.2l-0.1,0.2l-0.1,0.2l-0.1,0.2l-0.1,0.2l-0.2,0.3l-0.3,0.2l-0.3,0.2l-0.3,0.1l-0.3,0.1l-0.3,0l-0.3,0
		l-0.3-0.1l-0.3-0.2l-0.3-0.2l-0.2-0.3l-0.2-0.3v0.7l-0.1,0.9l-0.1,0.4l-0.1,0.4l-0.1,0.2l-0.1,0.1L168.4,658.4L168.4,658.4
		 M145,654.8l0.7,0.4l0.2-0.2l0.2-0.2l0.3-0.2l0.2-0.2l0.9-0.5l0.8-0.5l0.4-0.2l0.3-0.2l0.3-0.2l0.3-0.2l0.7-0.6l0.7-0.6l0.6-0.5
		l0.6-0.5l0.4-0.5l0.3-0.4l0.4-0.5l0.4-0.5l0.1-0.2l0.2-0.2l0.2-0.2l0.2-0.2l0.5-0.3l0.5-0.2l0.7-0.2l0.7-0.2l0.8-0.2l0.8-0.2l1-0.2
		l1-0.2l1-0.2l1-0.2l0.3-0.1l0.3-0.1l0.3-0.1l0.3-0.1l0.3-0.6l0.6-0.8l0.4-0.5l0.4-0.5l0.5-0.5l0.6-0.5l0.9-0.7l0.9-0.6l1-0.7
		l0.9-0.6l0.9-0.6l0.8-0.5l0.7-0.5l0.5-0.5l0.1-0.6l0.2-0.6l0.3-0.6l0.3-0.6l0.3-0.6l0.4-0.6l0.5-0.7l0.6-0.7l0.5-0.6l0.6-0.6
		l0.3-0.3l0.3-0.3l0.3-0.2l0.3-0.2l0.3-0.2l0.3-0.2l0.3-0.1l0.3-0.1l0.3,0l0.3,0l0.3,0l0.3,0.1l0,0.5l-0.1,0.5l-0.1,0.5l-0.1,0.5
		l-0.2,0.5l-0.3,0.5l-0.3,0.5l-0.4,0.5l0.3,0l0.3-0.1l0.2-0.1l0.2-0.1l0.2-0.1l0.2-0.1l0.3,0l0.3,0l0,0.3v0.3l0,0.3l-0.1,0.2
		l-0.1,0.2l-0.1,0.2l-0.1,0.2l-0.1,0.2l-0.6,0.8l-0.6,0.7l0.3,0l0.4,0.2l0.4,0.2l0.3,0.1l-0.3,0.3l-0.4,0.3l-0.4,0.3l-0.5,0.3
		l-0.5,0.3l-0.5,0.4l-0.5,0.4l-0.4,0.5l0.2,0l0.3,0.2l0.1,0l0.1,0.1l0.1,0l0.1,0l-0.6,0.4L177,641l-0.3,0.2l-0.3,0.2l-0.1,0.1
		l-0.1,0.1l-0.1,0.1l-0.1,0.1l0,0.2l0.1,0.1l0.1,0.1l0.1,0.1l0,0.2l-0.1,0.1l-0.1,0.1l-0.1,0.1l-0.3,0.2l-0.3,0.2l-0.3,0.2l-0.3,0.2
		l-0.2,0.2l-0.2,0.1l0.6,0.8l-0.2,0.3l-0.2,0.2l-0.2,0.1l-0.2,0.1l-0.4,0.1h-0.6l0.1,0.3l0.1,0.3l0.1,0.4l0.1,0.4l-0.5,0.5l-0.6,0.6
		l-0.7,0.6l-0.8,0.6l-0.4,0.3l-0.4,0.3l-0.5,0.2l-0.5,0.2l-0.5,0.2l-0.6,0.2l-0.6,0.2l-0.6,0.1l1.1,0h0.9l0.9-0.1l0.8-0.1l0.7-0.2
		l0.6-0.2l0.6-0.3l0.6-0.3l0.8-0.5l0.8-0.6l0.8-0.6l0.8-0.6l-0.5-0.3l-0.5-0.2l-0.2-0.1l-0.2-0.2l-0.3-0.2l-0.3-0.2l0.2-0.2l0.3-0.2
		l0.3-0.2l0.3-0.1l0.7-0.2l0.7-0.1l0.6-0.1l0.6-0.1l0.2-0.1l0.2-0.1l0.1-0.1l0.1-0.1l0,0l-0.1-0.1l-0.1,0l-0.1-0.1l-0.3-0.1
		l-0.4-0.1l-0.4,0l-0.4-0.1l-0.3-0.1l-0.2-0.1l0.8-0.2l0.8-0.2l0.7-0.2l0.6-0.2l0.5-0.2l0.4-0.2l0.2-0.1l0.1-0.1l0.1-0.1l0.1-0.2
		l0,0l-0.1-0.1l-0.1,0l-0.1,0l-0.4,0h-0.4l-0.5,0l-0.4,0l-0.4-0.1l-0.2-0.1l0.2-0.1l0.2-0.1l0.7-0.3l0.6-0.2l0.6-0.2l0.5-0.2
		l0.6-0.2l0.6-0.3l0.3-0.2l0.2-0.2l0.1-0.1l0.1-0.2l0.1-0.1l0-0.1l0-0.1l-0.1-0.1l-0.1,0h-0.8l-0.4,0h-0.5l-0.1,0l-0.1-0.1l-0.1-0.1
		l1.2-1l1.1-0.9l1-0.8l0.8-0.8l0.3-0.4l0.3-0.4l0.3-0.4l0.2-0.4l0.2-0.4l0.1-0.4l0.1-0.5v-0.5h-0.2l-0.2,0l-0.2,0.1l-0.2,0.1
		l-0.5,0.4l-0.5,0.4l-0.3,0.2l-0.2,0.2l-0.3,0.2l-0.3,0.1l-0.2,0.1l-0.2,0h-0.3l-0.2-0.1l0.7-0.7l0.8-0.9l0.9-1l0.9-1.2l0.9-1.2
		l0.8-1.2l0.4-0.7l0.4-0.6l0.3-0.6l0.3-0.6l0.1-0.2l0-0.1l0-0.2l0-0.1l0-0.1l-0.1-0.1l-0.1-0.1l-0.1,0l-0.1-0.1l-0.1,0h-0.2l-0.1,0
		l-0.1,0l-0.1,0.1l-0.1,0.1l-0.5,0.7l-0.6,0.8l-0.6,0.9l-0.7,0.9l-0.7,0.8l-0.7,0.8l-0.3,0.3l-0.3,0.3l-0.3,0.2l-0.3,0.2l0.2-0.2
		l0.3-0.3l0.3-0.5l0.4-0.6l0.8-1.4l0.9-1.6l0.5-0.9l0.4-0.9l0.4-0.8l0.4-0.9l0.3-0.8l0.3-0.7l0.2-0.7l0.1-0.5l0-0.2v-0.3l0-0.1
		l-0.1-0.1l-0.1-0.1l-0.1-0.1l-0.1,0l-0.2-0.1l-0.2-0.1h-0.4l-0.1,0l-0.1,0l-0.1,0.1l-0.1,0.1l-0.2,0.3l-0.2,0.4l-0.5,0.9l-0.6,1.1
		l-0.6,1.2l-0.7,1.2l-0.4,0.6l-0.3,0.6l-0.4,0.5l-0.4,0.5l0.5-1.3l0.5-1.5l0.3-0.8l0.3-0.8l0.3-0.9l0.2-0.9l0.2-0.9l0.2-0.9l0.1-0.9
		l0.1-0.9l0.1-0.8l0-0.8l0-0.4l0-0.3l0-0.3l-0.1-0.3l0-0.1l-0.1-0.1l-0.1-0.1l-0.1-0.1l-0.2-0.1l-0.2-0.1H184l-0.2,0l-0.1,0l-0.1,0
		l0,0.1l0,0.1l-0.3,1.3l-0.3,1.3l-0.3,1.4l-0.3,1.3l-0.3,1.3l-0.3,1.2l-0.2,0.6l-0.2,0.5l-0.2,0.6l-0.3,0.5l0.2-1.1l0.1-1l0.1-0.9
		l0.1-0.9l0.1-0.7l0-0.7l0-0.5l0-0.5l-0.1-0.4l-0.1-0.3l-0.1-0.1l-0.1-0.1l-0.1-0.1l-0.1,0l-0.1,0l-0.1,0h-0.1l-0.1,0l-0.2,0.1
		l-0.2,0.2l-0.2,1.2l-0.2,1.2l-0.2,1.1l-0.3,1.1l-0.3,1.1l-0.3,1.1l-0.3,1.1l-0.4,1.1l-0.3,0.7l-0.3,0.7l-0.3,0.7l-0.3,0.7l-0.3,0.7
		l-0.3,0.7l-0.4,0.7l-0.4,0.7l-0.7,1.2l-0.7,1.1l-0.8,1.1l-0.8,1l-0.8,1l-0.8,0.9l-0.9,0.9l-0.9,0.9l-0.6,0.5l-0.6,0.5l-0.6,0.5
		l-0.6,0.5l-1,0.6l-1,0.6l-1,0.5l-1,0.5l-0.9,0.3l-0.9,0.3l-0.9,0.3l-0.9,0.3l-0.9,0.2l-0.9,0.2l-0.9,0.2l-0.9,0.1l-0.1,0l-0.1,0
		l-0.2,0.1l-0.2,0.2l-0.3,0.3l-0.4,0.5l-0.5,0.6l-0.6,0.8l-0.5,0.8l-0.6,0.9l-0.3,0.4l-0.3,0.4l-0.4,0.4l-0.4,0.4l-0.3,0.3l-0.3,0.2
		l-0.3,0.2l-0.3,0.2l-0.7,0.4l-0.7,0.3l-0.7,0.3l-0.6,0.3l-0.3,0.2l-0.3,0.2l-0.2,0.2l-0.2,0.2l-0.2,0.2l-0.1,0.2l-0.1,0.2l-0.1,0.2
		l0,0.3L145,654.8"/>
	<path id="_x31_2" class="st2" d="M146.7,654.7c-0.1,0-0.1-0.1-0.1-0.1c0-0.1,0-0.1,0.1-0.1c0.1,0,0.1,0.1,0.1,0.1
		C146.8,654.7,146.8,654.7,146.7,654.7z"/>
	<path id="_x31_1" class="st1" d="M45.5,685.6c0,0-1.1,1.2-1.4,0.6c-0.6-1,1.8-5.8,1.8-7.6c0-2.8-1.4-3.6-3.1-4
		c-1.2-0.3-3.1,0.1-3.1,0.1c0.4,0.6,0.6,0.8,1.2,0.9c-0.7,0.5-1.4,1.5-1.4,3c0,2.4,0.7,3.4,0.7,6.1c0,1.5-0.9,3.4-0.9,3.4
		c1.6-0.2,2.5-2.3,2-3.9c0.3-0.1,0.5,0,0.7,0.3c0.1-0.4-0.1-1-0.3-1.4c0.2-0.1,0.4-0.1,0.7,0c0-0.5-0.2-1-0.7-1.4
		c1.5,0.5,2.4-0.9,2.4-2.3c0-1.1-0.6-1.9-1.1-1.9c-0.2,0-0.4,0.1-0.6,0.2c-0.1-0.3-0.1-0.7,0.1-1c-0.4,0.1-0.7,0.5-0.5,1.1
		c-0.3,0-0.6,0.2-0.7,0.5c0.2,0.3,0.4,0.5,0.7,0.4c-0.2,0.6,0,1,0.4,1.3c0,0-0.2-1.3,0.4-1.3c0.3,0,0.5,0.1,0.5,0.7
		c0,0.5-0.3,1.1-1,1.1c-0.7,0-1.3-0.6-1.3-2.1c0-1.4,0.8-2.1,1.9-2.1c1,0,1.7,0.7,1.7,2c0,1.8-2,6-2,7.6c0,1.2,0.8,1.9,1.6,1.9
		c1,0,1.9-1.4,1.9-1.4L45.5,685.6L45.5,685.6z"/>
	<path id="_x31_0" class="st1" d="M45.3,652.7c0-3,2-4.6,3.7-4.6c2.2,0,3.3,1.7,3.3,4c0,1.3-0.2,2.1-0.6,3.3c0,0-3.6,9.9-5,13.7
		c-0.2,0.5-0.2,1-0.2,1.8c0,1.2,0.9,2.2,1.8,2.3c0.9,0,1.8-1.1,1.8-2.3c0-1.5-0.6-2.2-1.2-2.2c-0.7,0-1,0.4-1,1.1
		c0,0.5,0.2,0.7,0.4,0.7c0.6,0,0.5-1.1,0.5-1.1c0.3,0.1,0.6,0.5,0.4,1.1c0.2,0.1,0.4,0.2,0.6,0.5c-0.2,0.2-0.4,0.4-0.6,0.4
		c0.1,0.7-0.1,1-0.5,1.1c0.1-0.3,0.1-0.5,0.1-0.7c-0.7,0.3-1.7-0.2-1.7-1.7c0-1.6,0.8-2.9,2.3-2.5c-0.4-0.2-0.5-0.7-0.6-1.2
		c0.3,0.1,0.6,0.2,0.6,0.2c-0.2-0.4-0.4-0.8-0.4-1.6c0.3,0.2,0.5,0.5,0.9,0.3c-0.6-1.5,0.1-3.5,1.9-4c-0.6,1-1,2.1-1,3.2
		c0,3.5,0.7,4.1,0.7,6.6c0,1-0.4,2.1-1.2,2.9v0c0.5,0.2,0.8,0.5,1,1c-1.2,0.4-2.9,0.4-3.8,0c-1.1-0.2-1.8-1.2-2-1.8s-0.6-2.5,0-4.3
		c0.7-2,4-11.3,5.1-14.3c0.2-0.6,0.4-1.3,0.4-2c0-1.8-1.2-2.4-1.9-2.4c-0.8,0-1.7,0.9-1.7,1.9c0,0.7,0.3,1.1,0.7,1.1
		c1,0,0.9-1.1,0.7-1.8c0.6,0.4,0.9,1,0.8,1.7c0.3,0.1,0.7,0.3,0.9,0.7c-0.2,0.4-0.5,0.7-0.9,0.7c0.2,1-0.3,1.5-0.8,1.7
		c0.2-0.8,0.3-1.6-0.7-1.6c-0.7,0-1.3-0.2-1.6-0.8c0,0.8-0.1,4.1-0.1,4.1c0,1.2,1.2,1.2,2,0.8c-0.3,1.4-0.9,2.2-2.4,2
		c0.3,0.2,0.7,0.6,0.7,1.5c0,1.1-0.7,2.4-1.1,2.8L45.3,652.7L45.3,652.7z"/>
	<path id="_x39_" class="st1" d="M45.7,652.7c0-3-2-4.6-3.7-4.6c-2.2,0-3.3,1.7-3.3,4c0,1.3,0.2,2.1,0.6,3.3c0,0,3.6,9.9,5,13.7
		c0.2,0.5,0.2,1,0.2,1.8c0,1.2-0.9,2.2-1.8,2.3c-0.9,0-1.8-1.1-1.8-2.3c0-1.5,0.6-2.2,1.2-2.2c0.7,0,1,0.4,1,1.1
		c0,0.5-0.2,0.7-0.4,0.7c-0.6,0-0.5-1.1-0.5-1.1c-0.3,0.1-0.6,0.5-0.4,1.1c-0.2,0.1-0.4,0.2-0.6,0.5c0.2,0.2,0.4,0.4,0.6,0.4
		c-0.1,0.7,0.1,1,0.5,1.1c-0.1-0.3-0.1-0.5-0.1-0.7c0.7,0.3,1.7-0.2,1.7-1.7c0-1.6-0.8-2.9-2.3-2.5c0.4-0.2,0.5-0.7,0.6-1.2
		c-0.3,0.1-0.6,0.2-0.6,0.2c0.2-0.4,0.4-0.8,0.4-1.6c-0.3,0.2-0.5,0.5-0.9,0.3c0.6-1.5-0.1-3.5-1.9-4c0.6,1,1,2.1,1,3.2
		c0,3.5-0.7,4.1-0.7,6.6c0,1,0.4,2.1,1.2,2.9v0c-0.5,0.2-0.8,0.5-1,1c1.2,0.4,2.9,0.4,3.8,0c1.1-0.2,1.8-1.2,2-1.8
		c0.2-0.6,0.6-2.5,0-4.3c-0.7-2-4-11.3-5.1-14.3c-0.2-0.6-0.4-1.3-0.4-2c0-1.8,1.2-2.4,1.9-2.4c0.8,0,1.7,0.9,1.7,1.9
		c0,0.7-0.3,1.1-0.7,1.1c-1,0-0.9-1.1-0.7-1.8c-0.6,0.4-0.9,1-0.8,1.7c-0.3,0.1-0.7,0.3-0.9,0.7c0.2,0.4,0.5,0.7,0.9,0.7
		c-0.2,1,0.3,1.5,0.8,1.7c-0.2-0.8-0.3-1.6,0.7-1.6c0.7,0,1.3-0.2,1.6-0.8c0,0.8,0.1,4.1,0.1,4.1c0,1.2-1.2,1.2-2,0.8
		c0.3,1.4,0.9,2.2,2.4,2c-0.3,0.2-0.7,0.6-0.7,1.5c0,1.1,0.7,2.4,1.1,2.8L45.7,652.7L45.7,652.7z"/>
	<path id="_x38_" class="st1" d="M45.5,685.6c0,0,1.1,1.2,1.4,0.6c0.6-1-1.8-5.8-1.8-7.6c0-2.8,1.4-3.6,3.1-4
		c1.2-0.3,3.1,0.1,3.1,0.1c-0.4,0.6-0.6,0.8-1.2,0.9c0.7,0.5,1.4,1.5,1.4,3c0,2.4-0.7,3.4-0.7,6.1c0,1.5,0.9,3.4,0.9,3.4
		c-1.6-0.2-2.5-2.3-2-3.9c-0.3-0.1-0.5,0-0.7,0.3c-0.1-0.4,0.1-1,0.3-1.4c-0.2-0.1-0.4-0.1-0.7,0c0-0.5,0.2-1,0.7-1.4
		c-1.5,0.5-2.4-0.9-2.4-2.3c0-1.1,0.6-1.9,1.1-1.9c0.2,0,0.4,0.1,0.6,0.2c0.1-0.3,0.1-0.7-0.1-1c0.4,0.1,0.7,0.5,0.5,1.1
		c0.3,0,0.6,0.2,0.7,0.5c-0.2,0.3-0.4,0.5-0.7,0.4c0.2,0.6,0,1-0.4,1.3c0,0,0.2-1.3-0.4-1.3c-0.3,0-0.5,0.1-0.5,0.7
		c0,0.5,0.3,1.1,1,1.1c0.7,0,1.3-0.6,1.3-2.1c0-1.4-0.8-2.1-1.9-2.1c-1,0-1.7,0.7-1.7,2c0,1.8,2,6,2,7.6c0,1.2-0.8,1.9-1.6,1.9
		c-1,0-1.9-1.4-1.9-1.4L45.5,685.6L45.5,685.6z"/>
	<path id="_x37_" class="st1" d="M45.3,599.4c0-3,2-4.6,3.7-4.6c2.2,0,3.3,1.7,3.3,4c0,1.3-0.2,2.1-0.6,3.3c0,0-3.6,9.9-5,13.7
		c-0.2,0.5-0.2,1-0.2,1.8c0,1.2,0.9,2.2,1.8,2.3c0.9,0,1.8-1.1,1.8-2.3c0-1.5-0.6-2.2-1.2-2.2c-0.7,0-1,0.4-1,1.1
		c0,0.5,0.2,0.7,0.4,0.7c0.6,0,0.5-1.1,0.5-1.1c0.3,0.1,0.6,0.5,0.4,1.1c0.2,0.1,0.4,0.2,0.6,0.5c-0.2,0.2-0.4,0.4-0.6,0.4
		c0.1,0.7-0.1,1-0.5,1.1c0.1-0.3,0.1-0.5,0.1-0.7c-0.7,0.3-1.7-0.2-1.7-1.7c0-1.6,0.8-2.9,2.3-2.5c-0.4-0.2-0.5-0.7-0.6-1.2
		c0.3,0.1,0.6,0.2,0.6,0.2c-0.2-0.4-0.4-0.8-0.4-1.6c0.3,0.2,0.5,0.5,0.9,0.3c-0.6-1.5,0.1-3.5,1.9-4c-0.6,1-1,2.1-1,3.2
		c0,3.5,0.7,4.1,0.7,6.6c0,1-0.4,2.1-1.2,2.9v0c0.5,0.2,0.8,0.5,1,1c-1.2,0.4-2.9,0.4-3.8,0c-1.1-0.2-1.8-1.2-2-1.8
		c-0.2-0.6-0.6-2.5,0-4.3c0.7-2,4-11.3,5.1-14.3c0.2-0.6,0.4-1.3,0.4-2c0-1.8-1.2-2.4-1.9-2.4c-0.8,0-1.7,0.9-1.7,1.9
		c0,0.7,0.3,1.1,0.7,1.1c1,0,0.9-1.1,0.7-1.8c0.6,0.4,0.9,1,0.8,1.7c0.3,0.1,0.7,0.3,0.9,0.7c-0.2,0.4-0.5,0.7-0.9,0.7
		c0.2,1-0.3,1.5-0.8,1.7c0.2-0.8,0.3-1.6-0.7-1.6c-0.7,0-1.3-0.2-1.6-0.8c0,0.8-0.1,4.1-0.1,4.1c0,1.2,1.2,1.2,2,0.8
		c-0.3,1.4-0.9,2.2-2.4,2c0.3,0.2,0.7,0.6,0.7,1.5c0,1.1-0.7,2.4-1.1,2.8L45.3,599.4L45.3,599.4z"/>
	<path id="_x36_" class="st1" d="M45.7,599.4c0-3-2-4.6-3.7-4.6c-2.2,0-3.3,1.7-3.3,4c0,1.3,0.2,2.1,0.6,3.3c0,0,3.6,9.9,5,13.7
		c0.2,0.5,0.2,1,0.2,1.8c0,1.2-0.9,2.2-1.8,2.3c-0.9,0-1.8-1.1-1.8-2.3c0-1.5,0.6-2.2,1.2-2.2c0.7,0,1,0.4,1,1.1
		c0,0.5-0.2,0.7-0.4,0.7c-0.6,0-0.5-1.1-0.5-1.1c-0.3,0.1-0.6,0.5-0.4,1.1c-0.2,0.1-0.4,0.2-0.6,0.5c0.2,0.2,0.4,0.4,0.6,0.4
		c-0.1,0.7,0.1,1,0.5,1.1c-0.1-0.3-0.1-0.5-0.1-0.7c0.7,0.3,1.7-0.2,1.7-1.7c0-1.6-0.8-2.9-2.3-2.5c0.4-0.2,0.5-0.7,0.6-1.2
		c-0.3,0.1-0.6,0.2-0.6,0.2c0.2-0.4,0.4-0.8,0.4-1.6c-0.3,0.2-0.5,0.5-0.9,0.3c0.6-1.5-0.1-3.5-1.9-4c0.6,1,1,2.1,1,3.2
		c0,3.5-0.7,4.1-0.7,6.6c0,1,0.4,2.1,1.2,2.9v0c-0.5,0.2-0.8,0.5-1,1c1.2,0.4,2.9,0.4,3.8,0c1.1-0.2,1.8-1.2,2-1.8
		c0.2-0.6,0.6-2.5,0-4.3c-0.7-2-4-11.3-5.1-14.3c-0.2-0.6-0.4-1.3-0.4-2c0-1.8,1.2-2.4,1.9-2.4c0.8,0,1.7,0.9,1.7,1.9
		c0,0.7-0.3,1.1-0.7,1.1c-1,0-0.9-1.1-0.7-1.8c-0.6,0.4-0.9,1-0.8,1.7c-0.3,0.1-0.7,0.3-0.9,0.7c0.2,0.4,0.5,0.7,0.9,0.7
		c-0.2,1,0.3,1.5,0.8,1.7c-0.2-0.8-0.3-1.6,0.7-1.6c0.7,0,1.3-0.2,1.6-0.8c0,0.8,0.1,4.1,0.1,4.1c0,1.2-1.2,1.2-2,0.8
		c0.3,1.4,0.9,2.2,2.4,2c-0.3,0.2-0.7,0.6-0.7,1.5c0,1.1,0.7,2.4,1.1,2.8L45.7,599.4L45.7,599.4z"/>
	<path id="_x35_" class="st1" d="M45.7,590.3c0,3-2,4.6-3.7,4.6c-2.2,0-3.3-1.7-3.3-4c0-1.3,0.2-2.1,0.6-3.3c0,0,3.6-9.9,5-13.7
		c0.2-0.5,0.2-1,0.2-1.8c0-1.2-0.9-2.2-1.8-2.3c-0.9,0-1.8,1.1-1.8,2.3c0,1.5,0.6,2.2,1.2,2.2c0.7,0,1-0.4,1-1.1
		c0-0.5-0.2-0.7-0.4-0.7c-0.6,0-0.5,1.1-0.5,1.1c-0.3-0.1-0.6-0.5-0.4-1.1c-0.2-0.1-0.4-0.2-0.6-0.5c0.2-0.2,0.4-0.4,0.6-0.4
		c-0.1-0.7,0.1-1,0.5-1.1c-0.1,0.3-0.1,0.5-0.1,0.7c0.7-0.3,1.7,0.2,1.7,1.7c0,1.6-0.8,2.9-2.3,2.5c0.4,0.2,0.5,0.7,0.6,1.2
		c-0.3-0.1-0.6-0.2-0.6-0.2c0.2,0.4,0.4,0.8,0.4,1.6c-0.3-0.2-0.5-0.5-0.9-0.3c0.6,1.5-0.1,3.5-1.9,4c0.6-1,1-2.1,1-3.2
		c0-3.5-0.7-4.1-0.7-6.6c0-1,0.4-2.1,1.2-2.9v0c-0.5-0.2-0.8-0.5-1-1c1.2-0.4,2.9-0.4,3.8,0c1.1,0.2,1.8,1.2,2,1.8
		c0.2,0.6,0.6,2.5,0,4.3c-0.7,2-4,11.3-5.1,14.3c-0.2,0.6-0.4,1.3-0.4,2c0,1.8,1.2,2.4,1.9,2.4c0.8,0,1.7-0.9,1.7-1.9
		c0-0.7-0.3-1.1-0.7-1.1c-1,0-0.9,1.1-0.7,1.8c-0.6-0.4-0.9-1-0.8-1.7c-0.3-0.1-0.7-0.3-0.9-0.7c0.2-0.4,0.5-0.7,0.9-0.7
		c-0.2-1,0.3-1.5,0.8-1.7c-0.2,0.8-0.3,1.6,0.7,1.6c0.7,0,1.3,0.2,1.6,0.8c0-0.8,0.1-4.1,0.1-4.1c0-1.2-1.2-1.2-2-0.8
		c0.3-1.4,0.9-2.2,2.4-2c-0.3-0.2-0.7-0.6-0.7-1.5c0-1.1,0.7-2.4,1.1-2.8L45.7,590.3L45.7,590.3z"/>
	<path id="_x34_" class="st1" d="M45.7,643.6c0,3-2,4.6-3.7,4.6c-2.2,0-3.3-1.7-3.3-4c0-1.3,0.2-2.1,0.6-3.3c0,0,3.6-9.9,5-13.7
		c0.2-0.5,0.2-1,0.2-1.8c0-1.2-0.9-2.2-1.8-2.3c-0.9,0-1.8,1.1-1.8,2.3c0,1.5,0.6,2.2,1.2,2.2c0.7,0,1-0.4,1-1.1
		c0-0.5-0.2-0.7-0.4-0.7c-0.6,0-0.5,1.1-0.5,1.1c-0.3-0.1-0.6-0.5-0.4-1.1c-0.2-0.1-0.4-0.2-0.6-0.5c0.2-0.2,0.4-0.4,0.6-0.4
		c-0.1-0.7,0.1-1,0.5-1.1c-0.1,0.3-0.1,0.5-0.1,0.7c0.7-0.3,1.7,0.2,1.7,1.7c0,1.6-0.8,2.9-2.3,2.5c0.4,0.2,0.5,0.7,0.6,1.2
		c-0.3-0.1-0.6-0.2-0.6-0.2c0.2,0.4,0.4,0.8,0.4,1.6c-0.3-0.2-0.5-0.5-0.9-0.3c0.6,1.5-0.1,3.5-1.9,4c0.6-1,1-2.1,1-3.2
		c0-3.5-0.7-4.1-0.7-6.6c0-1,0.4-2.1,1.2-2.9v0c-0.5-0.2-0.8-0.5-1-1c1.2-0.4,2.9-0.4,3.8,0c1.1,0.2,1.8,1.2,2,1.8
		c0.2,0.6,0.6,2.5,0,4.3c-0.7,2-4,11.3-5.1,14.3c-0.2,0.6-0.4,1.3-0.4,2c0,1.8,1.2,2.4,1.9,2.4c0.8,0,1.7-0.9,1.7-1.9
		c0-0.7-0.3-1.1-0.7-1.1c-1,0-0.9,1.1-0.7,1.8c-0.6-0.4-0.9-1-0.8-1.7c-0.3-0.1-0.7-0.3-0.9-0.7c0.2-0.4,0.5-0.7,0.9-0.7
		c-0.2-1,0.3-1.5,0.8-1.7c-0.2,0.8-0.3,1.6,0.7,1.6c0.7,0,1.3,0.2,1.6,0.8c0-0.8,0.1-4.1,0.1-4.1c0-1.2-1.2-1.2-2-0.8
		c0.3-1.4,0.9-2.2,2.4-2c-0.3-0.2-0.7-0.6-0.7-1.5c0-1.1,0.7-2.4,1.1-2.8L45.7,643.6L45.7,643.6z"/>
	<path id="_x33_" class="st1" d="M45.3,643.6c0,3,2,4.6,3.7,4.6c2.2,0,3.3-1.7,3.3-4c0-1.3-0.2-2.1-0.6-3.3c0,0-3.6-9.9-5-13.7
		c-0.2-0.5-0.2-1-0.2-1.8c0-1.2,0.9-2.2,1.8-2.3c0.9,0,1.8,1.1,1.8,2.3c0,1.5-0.6,2.2-1.2,2.2c-0.7,0-1-0.4-1-1.1
		c0-0.5,0.2-0.7,0.4-0.7c0.6,0,0.5,1.1,0.5,1.1c0.3-0.1,0.6-0.5,0.4-1.1c0.2-0.1,0.4-0.2,0.6-0.5c-0.2-0.2-0.4-0.4-0.6-0.4
		c0.1-0.7-0.1-1-0.5-1.1c0.1,0.3,0.1,0.5,0.1,0.7c-0.7-0.3-1.7,0.2-1.7,1.7c0,1.6,0.8,2.9,2.3,2.5c-0.4,0.2-0.5,0.7-0.6,1.2
		c0.3-0.1,0.6-0.2,0.6-0.2c-0.2,0.4-0.4,0.8-0.4,1.6c0.3-0.2,0.5-0.5,0.9-0.3c-0.6,1.5,0.1,3.5,1.9,4c-0.6-1-1-2.1-1-3.2
		c0-3.5,0.7-4.1,0.7-6.6c0-1-0.4-2.1-1.2-2.9v0c0.5-0.2,0.8-0.5,1-1c-1.2-0.4-2.9-0.4-3.8,0c-1.1,0.2-1.8,1.2-2,1.8s-0.6,2.5,0,4.3
		c0.7,2,4,11.3,5.1,14.3c0.2,0.6,0.4,1.3,0.4,2c0,1.8-1.2,2.4-1.9,2.4c-0.8,0-1.7-0.9-1.7-1.9c0-0.7,0.3-1.1,0.7-1.1
		c1,0,0.9,1.1,0.7,1.8c0.6-0.4,0.9-1,0.8-1.7c0.3-0.1,0.7-0.3,0.9-0.7c-0.2-0.4-0.5-0.7-0.9-0.7c0.2-1-0.3-1.5-0.8-1.7
		c0.2,0.8,0.3,1.6-0.7,1.6c-0.7,0-1.3,0.2-1.6,0.8c0-0.8-0.1-4.1-0.1-4.1c0-1.2,1.2-1.2,2-0.8c-0.3-1.4-0.9-2.2-2.4-2
		c0.3-0.2,0.7-0.6,0.7-1.5c0-1.1-0.7-2.4-1.1-2.8L45.3,643.6L45.3,643.6z"/>
	<path id="_x32_" class="st1" d="M45.5,557.4c0,0,1.1-1.2,1.4-0.6c0.6,1-1.8,5.8-1.8,7.6c0,2.8,1.4,3.6,3.1,4
		c1.2,0.3,3.1-0.1,3.1-0.1c-0.4-0.6-0.6-0.8-1.2-0.9c0.7-0.5,1.4-1.5,1.4-3c0-2.4-0.7-3.4-0.7-6.1c0-1.5,0.9-3.4,0.9-3.4
		c-1.6,0.2-2.5,2.3-2,3.9c-0.3,0.1-0.5,0-0.7-0.3c-0.1,0.4,0.1,1,0.3,1.4c-0.2,0.1-0.4,0.1-0.7,0c0,0.5,0.2,1,0.7,1.4
		c-1.5-0.5-2.4,0.9-2.4,2.3c0,1.1,0.6,1.9,1.1,1.9c0.2,0,0.4-0.1,0.6-0.2c0.1,0.3,0.1,0.7-0.1,1c0.4-0.1,0.7-0.5,0.5-1.1
		c0.3,0,0.6-0.2,0.7-0.5c-0.2-0.3-0.4-0.5-0.7-0.4c0.2-0.6,0-1-0.4-1.3c0,0,0.2,1.3-0.4,1.3c-0.3,0-0.5-0.1-0.5-0.7
		c0-0.5,0.3-1.1,1-1.1c0.7,0,1.3,0.6,1.3,2.1c0,1.4-0.8,2.1-1.9,2.1c-1,0-1.7-0.7-1.7-2c0-1.8,2-6,2-7.6c0-1.2-0.8-1.9-1.6-1.9
		c-1,0-1.9,1.4-1.9,1.4L45.5,557.4L45.5,557.4z"/>
	<path id="_x31_" class="st1" d="M45.5,557.4c0,0-1.1-1.2-1.4-0.6c-0.6,1,1.8,5.8,1.8,7.6c0,2.8-1.4,3.6-3.1,4
		c-1.2,0.3-3.1-0.1-3.1-0.1c0.4-0.6,0.6-0.8,1.2-0.9c-0.7-0.5-1.4-1.5-1.4-3c0-2.4,0.7-3.4,0.7-6.1c0-1.5-0.9-3.4-0.9-3.4
		c1.6,0.2,2.5,2.3,2,3.9c0.3,0.1,0.5,0,0.7-0.3c0.1,0.4-0.1,1-0.3,1.4c0.2,0.1,0.4,0.1,0.7,0c0,0.5-0.2,1-0.7,1.4
		c1.5-0.5,2.4,0.9,2.4,2.3c0,1.1-0.6,1.9-1.1,1.9c-0.2,0-0.4-0.1-0.6-0.2c-0.1,0.3-0.1,0.7,0.1,1c-0.4-0.1-0.7-0.5-0.5-1.1
		c-0.3,0-0.6-0.2-0.7-0.5c0.2-0.3,0.4-0.5,0.7-0.4c-0.2-0.6,0-1,0.4-1.3c0,0-0.2,1.3,0.4,1.3c0.3,0,0.5-0.1,0.5-0.7
		c0-0.5-0.3-1.1-1-1.1c-0.7,0-1.3,0.6-1.3,2.1c0,1.4,0.8,2.1,1.9,2.1c1,0,1.7-0.7,1.7-2c0-1.8-2-6-2-7.6c0-1.2,0.8-1.9,1.6-1.9
		c1,0,1.9,1.4,1.9,1.4L45.5,557.4L45.5,557.4z"/>
</g>
</svg>
