<?xml version="1.0" encoding="utf-8"?>
<!-- Generator: Adobe Illustrator 23.1.1, SVG Export Plug-In . SVG Version: 6.00 Build 0)  -->
<svg version="1.1" id="Countryflags.com" xmlns="http://www.w3.org/2000/svg" xmlns:xlink="http://www.w3.org/1999/xlink" x="0px"
	 y="0px" viewBox="632 846.5 225 150" style="enable-background:new 632 846.5 225 150;" xml:space="preserve">
<style type="text/css">
	.st0{fill:#CC092F;}
	.st1{fill:#FFD200;}
	.st2{fill:#0046AE;}
	.st3{fill:#B07F55;}
	.st4{fill:#F5D402;}
	.st5{fill:#D10429;}
	.st6{fill:#0B45BB;}
	.st7{fill:#097754;}
</style>
<g>
	<rect id="_x38_9" x="632" y="846.5" class="st0" width="225" height="150"/>
	<rect id="_x38_8" x="632" y="846.5" class="st1" width="150" height="150"/>
	<rect id="_x38_7" x="632" y="846.5" class="st2" width="75" height="150"/>
	<polygon id="_x38_6" class="st3" points="734.1,935.2 735.1,935.1 735.2,936.2 736.2,935.7 736.4,937.3 738.5,934.5 741.5,936.4 
		735.9,949.7 733.9,951.7 737.5,953.5 741.2,947.7 740.6,951.5 739.5,955.1 744,958.6 748.9,954.7 746.5,948.1 747.3,947.6 
		750.4,953.7 753.9,951.4 749.4,944.4 746.5,936 749.6,934.7 751.7,937.4 752,935.6 753.1,936.3 753,934.9 754.1,935.2 752.7,932.3 
		756.2,928.4 758.4,937.6 761.6,942.5 762.3,942.4 764.7,946.3 764.7,892.6 760.3,886.5 756.1,891.1 756.3,896 754.4,896.1 
		751.6,898.1 750,898.7 749.2,898.9 748.3,897.5 747,894.1 746.9,890.7 747.7,888.4 747.5,886.3 748.3,886.4 747.8,884.9 
		748.4,884.6 747.5,883.5 747.8,883 744.2,880.9 741.5,880.7 740.8,881.1 740.4,882 741.1,884.7 740.4,885.7 741.1,887.7 
		741.1,892.1 740.5,895.8 739.3,898.6 738.7,898.9 737.1,898.4 733.9,896.2 731.9,896 731.7,890.8 727.8,886.6 723.9,892.3 
		723.3,894 723.5,946.1 726,941.9 726.6,942.1 729.2,938.3 731.5,930.7 732.2,927.5 735.2,932.3 	"/>
	<path id="_x38_5" d="M738,877c-0.4,0-0.8,0.1-1,0.3c0.3,0.1,0.6,0.5,0.6,1v1.2h-0.4h-0.6c-0.4,0-0.7-0.3-0.8-0.7
		c-0.2,0.3-0.3,0.7-0.3,1.3c0,0.5,0.1,1,0.3,1.3c0.1-0.4,0.4-0.8,0.8-0.8h0.6h0.4v0.5v3.9v1.6c0,0.5-0.2,0.9-0.5,1
		c0.4,0.1,0.8,0.9,0.9,1.3c0.1-0.4,0.5-1.2,0.9-1.3c-0.3-0.1-0.5-0.5-0.5-1v-2.8v-2.7v-0.5h0.4h0.6c0.4,0,0.7,0.3,0.8,0.7
		c0.2-0.3,0.3-0.7,0.3-1.3c0-0.5-0.1-1-0.3-1.3c-0.1,0.4-0.4,0.8-0.8,0.8h-0.6h-0.4v-1.2c0-0.5,0.2-0.9,0.6-1
		C738.7,877.2,738.4,877,738,877L738,877z"/>
	<path id="_x38_4" class="st4" d="M738,877.3c-0.2,0-0.4,0.1-0.6,0.1c0.2,0.2,0.3,0.6,0.3,1v1.2c0,0,0,0,0,0.1v0.2h-0.1c0,0,0,0,0,0
		h-0.1h-0.3h-0.6c-0.3,0-0.6-0.2-0.7-0.5c-0.1,0.2-0.1,0.4-0.1,0.7c0,0.3,0,0.5,0.1,0.7c0.2-0.3,0.4-0.5,0.7-0.5h0.6h0.1h0.2h0.2
		c0,0,0,0.1,0,0.1v0.1c0,0,0,0,0,0.1v0.5v3.9v1.6c0,0.4-0.1,0.7-0.3,0.9c0.1,0.1,0.3,0.3,0.4,0.4c0.1,0.1,0.1,0.3,0.2,0.4
		c0.1-0.2,0.1-0.3,0.2-0.4c0.1-0.2,0.2-0.3,0.4-0.4c-0.2-0.2-0.3-0.6-0.3-0.9v-2.8v-2.7v-0.1v-0.4v-0.2h0.2c0,0,0,0,0,0h0.4h0.6
		c0.3,0,0.6,0.2,0.7,0.5c0.1-0.2,0.1-0.4,0.1-0.7c0-0.3,0-0.5-0.1-0.7c-0.2,0.3-0.4,0.5-0.7,0.5h-0.6h-0.4c0,0,0,0,0,0h-0.1v-0.2
		c0,0,0,0,0-0.1v-1.2c0-0.4,0.1-0.7,0.3-1C738.4,877.4,738.2,877.3,738,877.3L738,877.3L738,877.3z"/>
	<polygon id="_x38_3" class="st5" points="731.8,940.8 730.5,940.7 729.2,941.5 728.7,943.5 728.9,944.4 730.4,946.5 731.6,945.6 
		732.5,944.2 732.8,943 736.2,937.1 736,935.6 735.3,936.3 735,935 734.5,935.2 	"/>
	<polygon id="_x38_2" class="st5" points="755.8,944.7 757.4,946.6 757.8,946.4 759.6,943.7 759.2,941.9 757.6,940.5 756.3,940.7 
		753.6,935.2 753.1,935 752.9,936 752.1,935.7 751.8,936.9 755.4,943.4 	"/>
	<polygon id="_x38_1" points="732.2,945.2 734.2,946.6 733.7,949.6 731.7,948.2 	"/>
	<path id="_x38_0" d="M722.7,916.3l-0.7,0.4l8.2,24.1h0.9L722.7,916.3L722.7,916.3L722.7,916.3L722.7,916.3z M732.5,944.7l-0.6,0.8
		l0.4,1.1l0.7-0.4L732.5,944.7L732.5,944.7z"/>
	<polygon id="_x37_9" class="st4" points="732.5,946 733.7,946.9 733.4,948.8 732.2,947.9 	"/>
	<polygon id="_x37_8" class="st6" points="743.9,938.4 748.9,934.7 754.8,931 755.9,928.7 755.9,916 732.1,915.9 732.1,928.9 
		732.9,930.4 737.4,933.8 743.2,937.3 	"/>
	<path id="_x37_7" class="st5" d="M731.8,900.3l0.3,1.2l-0.1,14.9l0.4,0.6l3.4,0.5l3.7-0.7c0,0,2.2,0.4,3.6,0.8c0,0,0,0.3,0,0.3
		s0.5-0.1,0.7-0.1c0.2,0,0.7,0.1,0.7,0.1l0-0.3c1.5-0.3,3.6-0.8,3.6-0.8l3.7,0.7l3.4-0.5l0.4-0.6l-0.1-14.9l0.3-1.2l-4.1,0
		c0,0-4.7,0.1-8.1,0.1c-3.4,0-8.1-0.1-8.1-0.1L731.8,900.3L731.8,900.3L731.8,900.3L731.8,900.3z"/>
	<path id="_x37_6" d="M739.6,916.8c0,0-2.5-0.8-3.5-2.5c-1.7,2-3.7,2.7-3.7,2.7s2.1,1.2,3.7,2.8
		C736.9,918.4,739.6,916.8,739.6,916.8L739.6,916.8z"/>
	<path id="_x37_5" d="M748.4,916.8c0,0,2.8,1.6,3.5,3c1.6-1.6,3.7-2.8,3.7-2.8s-2-0.7-3.7-2.7C751,916,748.4,916.8,748.4,916.8
		L748.4,916.8z"/>
	<path id="_x37_4" d="M744,901.6l-0.7,2.7l-2-1.2l0.9,2.6l-2,1l2,1l-0.9,2.6l2-1.2l0.7,2.7l0.7-2.7l2,1.2l-0.9-2.6l2-1l-2-1l0.9-2.6
		l-2,1.2L744,901.6z"/>
	<polygon id="_x37_3" class="st4" points="740,921.8 740.7,920.8 741.4,921.8 740.7,922.8 	"/>
	<polygon id="_x37_2" class="st4" points="748.2,921.8 747.4,920.7 746.6,921.7 747.3,922.8 	"/>
	<polygon id="_x37_1" class="st4" points="746.6,923.9 746.2,925 746.2,928 746.8,929.6 747.6,930.1 747.5,926.2 748,923.4 	"/>
	<polygon id="_x37_0" class="st4" points="740.6,926.8 740.6,930 741.3,929.3 741.8,927.9 741.9,925.3 741.5,923.8 740.1,923.5 	"/>
	<polygon id="_x36_9" class="st4" points="750.3,930.8 750.3,928.8 751.5,926.6 753,926.1 751.4,925.1 749.8,925.5 749,926.8 
		748.9,928.9 750,930.7 	"/>
	<polygon id="_x36_8" class="st4" points="736.9,930.9 737.3,929.8 738,930.4 738.8,930.2 739.3,929.1 738.9,928.1 738.6,927.7 
		739.1,927.3 739.3,926 738.6,924.9 737.9,925 737.5,925.4 737.3,924.5 736.4,923.8 735.7,924.2 735.4,925.2 735.6,926.1 734.8,926 
		734.2,926.8 734.1,927.8 734.5,928.5 735.1,928.8 735.4,928.7 735.2,929.7 735.4,930.6 736.1,931.1 	"/>
	<path id="_x36_7" class="st1" d="M744,903.4l0.5,1.7l1.2-0.8l-0.6,1.7l1.3,0.6l-1.3,0.6l0.6,1.7l-1.2-0.8l-0.5,1.7l-0.5-1.7
		l-1.2,0.8l0.6-1.7l-1.3-0.6l1.3-0.6l-0.6-1.7l1.2,0.8L744,903.4L744,903.4z"/>
	<path id="_x36_6" d="M739.9,901.2c-0.1,1.1-4.3,3.4-4.3,8c0,5.9,4.1,7.3,4.1,7.3l-0.2,0.4l-1,2.4c0,0,1.7,0.1,2.6,1.1
		c1.1,1.2,1,3.9,1,5.8c0,1.5-0.1,3.1-0.7,3.8c-0.8,0.9-1.3,0.9-1.3,2c0,0.9,0.5,1,1.3,1.6c1,0.7,1,1.7,2.5,1.7c1.5,0,1.5-1,2.5-1.7
		c0.8-0.6,1.3-0.7,1.3-1.6c0-1-0.5-1.1-1.3-2c-0.6-0.7-0.7-2.2-0.7-3.8c0-1.9-0.1-4.5,1-5.8c0.9-1,2.6-1.1,2.6-1.1l-1-2.4l-0.2-0.4
		c0,0,4.1-1.4,4.1-7.3c0-4.6-4.1-6.9-4.3-8c-0.4,1.9,1.4,4.5,1.4,7.6c0,4-2.2,4.2-2.2,4.2c-0.5,0-0.7,0.5-0.9,0.5
		c-0.4-0.1-0.6-0.8-1.1-0.8c-0.4,0-0.7,0.8-1.3,0.8c-0.5,0-0.8-0.8-1.2-0.8c-0.4,0-0.6,0.7-1.1,0.8c-0.2,0-0.4-0.5-0.9-0.5
		c0,0-2.2-0.2-2.2-4.2C738.6,905.7,740.3,903.1,739.9,901.2L739.9,901.2z"/>
	<path id="_x36_5" class="st1" d="M736.1,915.1c0.8,1.3,2.2,1.8,2.2,1.8l-2.1,2.1l0,0l0-0.1l-2.4-2
		C733.7,917,735.2,916.4,736.1,915.1L736.1,915.1L736.1,915.1z"/>
	<path id="_x36_4" class="st1" d="M739.3,902.8c0.2,0.5-1.4,3.5-1.4,6c0,3,1.2,4.8,2.8,4.8c0.3,0,0.6,0.6,0.9,0.6
		c0.5,0,0.8-0.7,1.1-0.7c0.4,0,0.6,0.8,1.2,0.8c0.6,0,0.9-0.8,1.3-0.8c0.3,0,0.6,0.7,1.1,0.7c0.3,0,0.6-0.6,0.9-0.6
		c1.6,0,2.8-1.8,2.8-4.8c0-2.5-1.6-5.5-1.4-6c0,0,3,2.9,3,6.3c0,5.5-4.2,6.9-4.2,6.9l0.9,2.8c0,0-1.3,0.3-2.1,1.1
		c-1.1,1.1-1.1,4.2-1.1,6.3c0,2.4,0.1,3.5,0.7,4.1c0.7,0.7,1.2,0.8,1.2,1.6c0,0.6-0.5,0.9-1.2,1.3c-0.8,0.5-0.9,1.3-2,1.3
		c-1.2,0-1.2-0.8-2-1.3c-0.7-0.4-1.2-0.7-1.2-1.3c0-0.7,0.5-0.9,1.2-1.6c0.7-0.7,0.7-1.7,0.7-4.1c0-2.1,0-5.1-1.1-6.3
		c-0.8-0.9-2.1-1.1-2.1-1.1l0.9-2.8c0,0-4.2-1.4-4.2-6.9C736.3,905.7,739.3,902.8,739.3,902.8L739.3,902.8L739.3,902.8z"/>
	<path id="_x36_3" class="st1" d="M752,915.1c0.9,1.2,2.4,1.9,2.4,1.9s-1.6,1-2.4,2c0,0.2,0,0,0,0.1c0,0.1,0,0,0,0
		c-0.7-1.1-2.1-2.1-2.1-2.1S751.1,916.4,752,915.1L752,915.1z"/>
	<path id="_x36_2" d="M740.7,920.4l-1,1.3l1,1.3l1-1.3L740.7,920.4z"/>
	<path id="_x36_1" d="M747.4,920.4l-1,1.3l1,1.3l1-1.3L747.4,920.4z"/>
	<path id="_x36_0" class="st1" d="M740.7,921.1l0.5,0.7l-0.5,0.7l-0.5-0.7L740.7,921.1z"/>
	<path id="_x35_9" class="st1" d="M747.4,921.1l0.5,0.7l-0.5,0.7l-0.5-0.7L747.4,921.1z"/>
	<path id="_x35_8" d="M739.8,923.1c0.2,0.6,0.7,2.7,0.7,5.1c0,1.7-0.1,2.6-0.1,2.6s1.4-0.5,1.7-2.4c0.1-0.9,0.3-4.2-0.4-4.7
		L739.8,923.1L739.8,923.1z"/>
	<path id="_x35_7" d="M748.3,923.1l-1.8,0.5c-0.7,0.6-0.5,3.8-0.4,4.7c0.3,1.9,1.7,2.4,1.7,2.4s-0.1-0.9-0.1-2.6
		C747.6,925.7,748.1,923.7,748.3,923.1L748.3,923.1L748.3,923.1z"/>
	<path id="_x35_6" d="M736.4,923.6c-0.1,0-0.2,0-0.2,0c-0.6,0.2-1,1.1-0.9,1.9c0,0.1,0.1,0.2,0.1,0.4c-0.1,0-0.2-0.1-0.3-0.1
		c0,0-0.1,0-0.1,0c-0.6,0-1.1,0.7-1.1,1.5c0,0.9,0.4,1.6,1.1,1.7c0.1,0,0.2,0,0.3,0c-0.1,0.1-0.1,0.2-0.1,0.3
		c-0.2,0.8,0.1,1.7,0.7,2c0.6,0.3,1.3-0.1,1.5-0.9c0-0.1,0.1-0.2,0.1-0.4c0.1,0.1,0.1,0.2,0.2,0.3c0.5,0.6,1.2,0.5,1.7-0.2
		c0.4-0.7,0.4-1.6-0.1-2.2c-0.1-0.1-0.2-0.2-0.2-0.2c0.1,0,0.2-0.1,0.3-0.2c0.5-0.5,0.7-1.4,0.4-2.2c-0.2-0.5-0.7-0.8-1.1-0.7
		c-0.2,0-0.4,0.1-0.6,0.2c-0.1,0.1-0.2,0.1-0.2,0.2c0-0.1,0-0.3,0-0.4C737.4,924.1,736.9,923.6,736.4,923.6L736.4,923.6L736.4,923.6
		L736.4,923.6z"/>
	<path id="_x35_5" class="st1" d="M740.4,923.8l1,0.3c0.4,0.7,0.3,1.7,0.3,3.2c0,1.5-0.9,2.1-0.9,2.1
		C740.8,925.8,740.5,924.9,740.4,923.8L740.4,923.8L740.4,923.8z"/>
	<path id="_x35_4" class="st1" d="M747.7,923.8c-0.1,1.1-0.4,2-0.4,5.6c0,0-0.9-0.6-0.9-2.1c0-1.5-0.1-2.6,0.3-3.2L747.7,923.8
		L747.7,923.8z"/>
	<path id="_x35_3" class="st1" d="M736.4,924.3c0.4,0,0.8,0.4,0.9,0.9c0,0.1,0,0.3,0,0.4c0,0.1,0,0.2-0.1,0.3
		c-0.1-0.1-0.3-0.1-0.5-0.1c-0.4,0-0.7,0.2-1,0.6c-0.1-0.1-0.1-0.2-0.2-0.3c-0.1-0.1-0.1-0.2-0.1-0.4c-0.1-0.7,0.2-1.3,0.7-1.5
		C736.3,924.3,736.4,924.3,736.4,924.3L736.4,924.3L736.4,924.3L736.4,924.3z"/>
	<path id="_x35_2" d="M751.1,924.8c-1.5,0-2.6,1.5-2.5,3.4c0.1,1.6,1.1,2.9,2.3,3.3c-0.2-0.4-0.3-0.9-0.4-1.5
		c-0.2-1.9,0.9-3.4,2.5-3.4c0.2,0,0.5,0,0.7,0.1C753.1,925.6,752.1,924.8,751.1,924.8L751.1,924.8L751.1,924.8L751.1,924.8
		L751.1,924.8z"/>
	<path id="_x35_1" class="st1" d="M738.3,925.2c0.3,0,0.6,0.2,0.7,0.6c0.3,0.6,0.1,1.3-0.3,1.7c-0.1,0.1-0.2,0.1-0.3,0.2
		c-0.1,0-0.2,0-0.2,0c0,0,0,0,0-0.1c0-0.7-0.3-1.4-0.8-1.6c0-0.1,0.1-0.2,0.1-0.3c0.1-0.1,0.1-0.2,0.2-0.3
		C737.9,925.3,738.1,925.2,738.3,925.2L738.3,925.2L738.3,925.2z"/>
	<path id="_x35_0" class="st1" d="M751.1,925.5c0.5,0,0.9,0.2,1.3,0.5c-1.5,0.4-2.5,2.1-2.4,4.1c-0.5-0.5-0.8-1.2-0.9-2
		C749,926.6,749.8,925.5,751.1,925.5L751.1,925.5L751.1,925.5z"/>
	<path id="_x34_9" class="st1" d="M735.3,926.2c0.1,0,0.2,0,0.3,0.1c0.1,0,0.1,0.1,0.2,0.2c-0.2,0.3-0.3,0.7-0.3,1.1
		c0,0.3,0.1,0.6,0.2,0.9c-0.1,0.1-0.2,0.1-0.2,0.1c-0.1,0-0.2,0-0.3,0c-0.5,0-0.9-0.6-0.9-1.3C734.4,926.7,734.8,926.2,735.3,926.2
		L735.3,926.2z"/>
	<path id="_x34_8" class="st1" d="M736.9,926.4c0.5,0,0.9,0.5,0.9,1.2c0,0.7-0.4,1.2-0.9,1.2c-0.5,0-0.9-0.5-0.9-1.2
		C736,926.9,736.4,926.4,736.9,926.4z"/>
	<path id="_x34_7" class="st1" d="M738.2,927.7c0.1,0,0.2,0,0.3,0.1c0.1,0,0.2,0.1,0.2,0.2c0.4,0.4,0.4,1.2,0.1,1.7
		c-0.3,0.5-0.9,0.6-1.3,0.2c-0.1-0.1-0.1-0.2-0.2-0.3c0-0.1-0.1-0.2-0.1-0.3C737.7,929.1,738.1,928.5,738.2,927.7L738.2,927.7
		L738.2,927.7z"/>
	<path id="_x34_6" class="st1" d="M735.8,928.6c0.2,0.5,0.6,0.8,1.1,0.8c0.1,0,0.2,0,0.3,0c0,0.1,0,0.2,0,0.3c0,0.1,0,0.3-0.1,0.4
		c-0.2,0.6-0.7,0.9-1.2,0.7c-0.5-0.3-0.7-1-0.5-1.6c0-0.1,0.1-0.2,0.2-0.3C735.6,928.7,735.7,928.6,735.8,928.6L735.8,928.6
		L735.8,928.6L735.8,928.6z"/>
	<path id="_x34_5" d="M742.4,931.5c-0.8,0-1.3,0.2-1.3,0.6c0,0.3,0.5,0.6,1.3,0.6c0.2,0,0.5-0.2,0.5-0.6S742.7,931.5,742.4,931.5
		L742.4,931.5z"/>
	<path id="_x34_4" d="M745.6,931.5c-0.2,0-0.5,0.2-0.5,0.6c0,0.4,0.2,0.6,0.5,0.6c0.8,0,1.3-0.2,1.3-0.6
		C747,931.7,746.4,931.5,745.6,931.5L745.6,931.5z"/>
	<path id="_x34_3" d="M769.5,912.1l-1.4,1.4l0.2,0.5c0,0-0.3,0.1-0.4,0.4c-0.1,0.3,0.1,0.7,0.1,0.7s-1.4-0.2-1.6,0
		c-0.2,0.2,0.1,1.4,0,2.5c-0.2,1.5-0.6,1.3-0.6,1.6c0,0.3,0.2,0.7,0.2,0.7s-0.3,0.1-0.3,0.2c-0.1,0.2,0.1,0.6,0,0.9
		c-0.6,1.5-1.5,3.8-2,5.3c-0.1,0.2-0.3,0.3-0.4,0.6c-0.1,0.3,0,0.6,0,0.6s-0.4,0-0.5,0.4c-0.1,0.4-0.1,0.9-0.1,0.9s-0.2,0-0.4,0.3
		c-0.1,0.3,0.1,0.5,0,0.6c-0.8,2-1.7,4.4-2.2,5.8c-0.2,0.5-0.9,0.6-1.3,1.7c-0.4,1.1,0.2,1.8,0.2,1.8s-0.6,0.1-0.8,0.5
		c-0.2,0.4,0,1.1,0.4,1.4c0.4,0.3,0.9,0.1,1.1-0.4c0.2-0.4-0.2-1.1-0.2-1.1s0.8,0.2,1.2-0.9c0.4-1.1,0.1-1.9,0.3-2.4
		c0.6-1.5,1.5-3.8,2.2-5.8c0.1-0.1,0.3,0,0.4-0.3c0.1-0.3,0-0.6,0-0.6s0.4-0.2,0.5-0.6c0.1-0.3-0.1-0.8-0.1-0.8s0.3-0.1,0.4-0.4
		c0.1-0.3,0-0.6,0.1-0.8c0.6-1.5,1.4-3.8,2-5.3c0.1-0.3,0.4-0.4,0.5-0.6c0.1-0.1,0-0.5,0-0.5s0.4,0,0.5-0.2c0.2-0.2-0.2-0.6,0.6-1.6
		c0.6-0.8,1.5-1.2,1.5-1.5c0-0.3-0.9-1.7-0.9-1.7s0.4,0,0.5-0.3c0.1-0.3,0-0.7,0-0.7l0.4-0.1L769.5,912.1L769.5,912.1L769.5,912.1
		L769.5,912.1L769.5,912.1z M756.2,945.9c-0.2,0-0.3,0.2-0.3,0.3c-0.1,0.1-0.1,0.3,0,0.5c0,0-0.4-0.2-0.6-0.1c-0.1,0.1,0,2.9,0,2.9
		s1.8-1.5,1.8-1.7c0-0.2-0.4-0.6-0.4-0.6c0.1,0,0.3-0.2,0.3-0.3c0.1-0.2,0.1-0.6-0.3-0.9C756.4,945.9,756.3,945.9,756.2,945.9
		L756.2,945.9z"/>
	<path id="_x34_2" d="M742.3,880.4c-0.4,0-1.1,0-1.5,0.4c-0.4,0.3-0.3,0.7-0.4,0.9c-0.3,0.3-0.8,0.3-1,0.3c-1.6,0-1.6,2.2-1.6,2.2
		s0.4-0.8,1.1-0.8c1.2,0,2.1,0.8,2.1,1.2c0,0.1-0.1,0.2-0.1,0.2c-0.8,0-1.9-0.6-2.5-0.6v0.3c0,0,0,0,0,0c0,0,0,0,0,0v0.1
		c1.4,0.6,2.8,1.5,2.8,5.5c0,2.5-0.2,5-1.2,7c-0.3,0.7-0.8,1.3-1.4,1.9c-0.3-0.1-1.4-0.6-2.3-1.2c-1.5-1.1-2.2-2.2-4-2.3v-1.8
		c0-0.9,0.3-1.8,0.3-2.7c-0.7-0.3-2.8-3.6-4.7-5.1c-2.8,2.4-4.9,6.3-4.9,8.1c0,0,0.1,38.8,0,52.3c0,0.8-0.4,1.9-0.4,1.9
		c1-0.6,2.9-3.9,3.3-5.2v0.6c1.5-0.9,2.6-3.4,3.1-4.6c0,0.2,0,0.6,0,0.6c1.4-1.6,3.1-11,3.1-11l-0.1-2c0,0-1.2,7.7-2.6,9.3v-33.1
		l1.1,1.3l1.6-2v-1.6l-1.5,1.8v-4.7c0.2-0.4,0.4-0.8,0.5-1c0.2,0.5,1,2.2,1.9,3.3c0.1-0.8,1.1-1.6,1.1-1.6s0.3,1.3,0.9,1.6
		c0.2-0.4,1.3-1.4,1.3-1.4s-1,0.2-1.3,0.7c-0.3-0.1-0.4-1.8-0.4-1.8s-1.4,0.9-1.6,1.6c-0.3-0.1-0.7-1.5-0.8-2.1c0.2,0,0.6-0.1,1-0.1
		c0.4,0,0.9,0.3,1.4,0.6c0.6,0.4,1.2,0.8,1.8,1.2c0.7,0.4,1.8,0.5,2.1,0.5c-0.4,0.3-0.7,0.6-1.2,0.9c0,0,1.7,0,2.9-0.8
		c0.4-0.4,0.9-0.7,1.2-1.1c-0.2,0.6-0.4,1.3-0.8,1.9c1.7-0.2,2.6-1.5,2.8-2c0.1,0.4,0.3,1,0.6,1.6c0.3-0.5,0.5-1.2,0.6-1.6
		c0.2,0.4,1.1,1.8,2.8,2c-0.4-0.6-0.6-1.3-0.8-1.9c0.4,0.4,0.8,0.8,1.2,1.1c1.2,0.8,2.9,0.8,2.9,0.8c-0.4-0.3-0.8-0.6-1.2-0.9
		c0.3,0,1.4-0.1,2.1-0.5c0.5-0.3,1.2-0.8,1.8-1.2c0.5-0.3,1-0.6,1.4-0.6c0.5,0,0.8,0,1,0.1c-0.2,0.6-0.6,2-0.8,2.1
		c-0.2-0.7-1.6-1.6-1.6-1.6s-0.1,1.7-0.4,1.8c-0.4-0.5-1.3-0.7-1.3-0.7s1.1,1,1.3,1.4c0.5-0.3,0.9-1.6,0.9-1.6s1,0.8,1.1,1.6
		c0.9-1,1.7-2.7,1.9-3.3c0.1,0.3,0.3,0.6,0.5,1v4.7l-1.5-1.8v1.6l1.6,2l1.1-1.3v33.1c-1.4-1.6-2.6-9.3-2.6-9.3l-0.1,2
		c0,0,1.7,9.4,3.1,11c0,0,0-0.5,0-0.6c0.5,1.3,1.6,3.7,3.1,4.6v-0.6c0.4,1.3,2.2,4.7,3.3,5.2c0,0-0.4-1.1-0.4-1.9
		c-0.1-13.5,0-52.3,0-52.3c0-1.8-2.1-5.7-4.9-8.1c-1.9,1.5-3.9,4.8-4.7,5.1c0,0.9,0.3,1.8,0.3,2.7v1.8c-1.7,0.1-2.5,1.2-4,2.3
		c-0.8,0.6-2,1.1-2.3,1.2c-0.6-0.5-1-1.1-1.4-1.9c-0.8-1.7-1.1-3.8-1.1-5.9c0-0.9,0.8-1.9,0.8-2.6c0-1.1-0.1-1.8-0.1-1.8
		c0.3,0,0.7,0.7,0.7,0.7s0-1.8-0.4-2.1c0,0,0.2-0.2,0.8-0.3c-0.2-0.6-1.1-1.3-1.1-1.3c0-0.1,0.1-0.2,0.2-0.3
		c0.2-0.2,0.5-0.3,0.8-0.3c-0.3-0.1-0.5-0.2-0.9-0.3c-0.7-0.3-1.6-0.8-2.4-1.3C744.1,880.5,743,880.4,742.3,880.4L742.3,880.4
		L742.3,880.4L742.3,880.4z M742.4,880.9c0.1,0,0.3,0,0.4,0c1.4,0,2.4,0.9,3.8,1.7c0.4,0.2,0.7,0.4,1,0.5c-0.2,0.2-0.3,0.4-0.4,0.6
		c0,0,0.6,0.1,0.9,0.8c0,0-0.6,0.1-0.7,0.5c0.3,0,0.6,0.6,0.6,1.1l-0.8-0.3c0,0,0.2,1.2,0.2,2.6c0,0.7-0.7,1.5-0.7,2.6
		c0,3.6,0.7,5,1.2,6.1c0.2,0.4,0.3,0.9,0.7,1.3c-1.4-1-2.4-2.2-2.4-3.4v-4.4h-0.4v4.4c0,0.8,0.2,1.2,0.2,1.2
		c0.2,0.9,0.7,2.4,0.9,2.9c-1.3-0.9-1.9-2.1-1.9-2.5v-6h-0.4v6.1l0.1,0.4c-0.2,0.3-0.4,0.7-0.5,0.8c-0.1-0.1-0.3-0.5-0.5-0.8
		l0.1-0.4v-6.1h-0.4v6c0,0.4-0.7,1.6-1.9,2.5c0.3-0.6,0.7-2,0.9-2.9c0,0,0.2-0.4,0.2-1.2v-4.4H742v4.4c0,1.2-1,2.4-2.4,3.4
		c0.3-0.4,0.5-0.9,0.7-1.3c0.5-1.2,1.2-2.8,1.2-7.2c0-1.7-0.2-2.8-0.5-3.6c-0.1-0.3-0.2-1,0.5-1c0.4,0,1.3,0.9,1.3,0.9
		s0-0.7-0.5-1.1c-0.1-0.1-0.2-0.3-0.2-0.5c0-0.2,0.2-0.5,0.3-0.6c0.1-0.1-1.5-0.4-1.5-1.4c0-0.2,0.1-0.3,0.4-0.3
		c0.4,0,1.2,0.7,1.8,0.7c0.5,0,0.7-0.2,1.1-0.2c0.6,0,1.8,1.5,2.3,1.4c-0.5-0.4-1.2-1.9-2.4-1.9c-0.4,0-0.8,0.1-1.1,0.1
		c-0.5,0-1-0.6-1.5-0.6c-0.3,0-0.7,0-0.8-0.1c-0.1-0.2,0-0.3,0.1-0.5c0.2-0.3,0.7-0.4,1.2-0.4C742.1,880.9,742.2,880.9,742.4,880.9
		L742.4,880.9L742.4,880.9L742.4,880.9L742.4,880.9z M727.8,887.5L727.8,887.5c0,0,2.6,3.1,3.4,3.5l0,1.1v3.1
		c-0.6-0.3-1.4-1.7-1.8-2.4v-0.4c0-0.4,0.2-0.7,0.3-0.9l-0.4-0.2c-0.1,0.2-0.3,0.5-0.3,1v0.2l-0.1,0.2l-0.1,0.1l-0.9,1.3l-1.1-2.2
		v-0.5c0-0.4,0.2-0.8,0.4-1.1l-0.4-0.2c-0.2,0.3-0.4,0.8-0.4,1.2v0.4c-0.3,0.4-1.3,1.7-1.3,1.7s-0.5-1.5-0.6-1.9
		C725.4,890.3,726.7,888.7,727.8,887.5L727.8,887.5L727.8,887.5z M760.2,887.5c1.2,1.2,2.4,2.8,3.2,4.2c-0.1,0.4-0.6,1.9-0.6,1.9
		s-1-1.4-1.3-1.7v-0.4c0-0.4-0.2-0.8-0.4-1.2l-0.4,0.2c0.2,0.3,0.4,0.7,0.4,1.1v0.5l-1.1,2.2l-0.9-1.3l-0.1-0.1l-0.1-0.2v-0.2
		c0-0.4-0.2-0.7-0.3-1l-0.4,0.2c0.1,0.2,0.3,0.5,0.3,0.9v0.4c-0.4,0.7-1.2,2.1-1.8,2.4v-3.1l0-1.1
		C757.6,890.6,760.2,887.5,760.2,887.5L760.2,887.5L760.2,887.5L760.2,887.5z M724.2,892.6l0.6,1.4v2.6l-0.9,1.1v-3.8
		C723.9,893.6,724,893.1,724.2,892.6L724.2,892.6z M763.9,892.6c0.2,0.5,0.3,0.9,0.3,1.3v3.8l-0.9-1.1v-2.6L763.9,892.6L763.9,892.6
		z M726.5,893l1,2.1v1.6l-1,1.3V893L726.5,893L726.5,893z M761.5,893v5l-1-1.3v-1.6L761.5,893L761.5,893L761.5,893L761.5,893z
		 M726.2,893.3v4.6l-1-1.3v-1.9L726.2,893.3L726.2,893.3L726.2,893.3z M761.9,893.3l1,1.4v1.9l-1,1.3V893.3L761.9,893.3L761.9,893.3
		z M729.3,893.7c0.2,0.3,0.9,1.9,1.5,2.3c-0.2,0.5-0.9,1.6-1.5,2V893.7L729.3,893.7z M758.7,893.7v4.4c-0.7-0.5-1.3-1.6-1.5-2
		C757.9,895.6,758.6,894,758.7,893.7L758.7,893.7z M729,893.9v4l-1-1.3v-1.4L729,893.9z M759.1,893.9l1,1.3v1.4l-1,1.3V893.9z
		 M724.8,898.2v4l-0.9-1.1v-1.8L724.8,898.2z M763.3,898.2l0.9,1.1v1.8l-0.9,1.1V898.2z M725.1,898.2l0.6,0.7l0.4,0.5v1.4l-0.4,0.5
		l-0.6,0.7V898.2L725.1,898.2L725.1,898.2z M727.6,898.2v4l-0.6-0.7l-0.4-0.6v-1.4l0.4-0.6L727.6,898.2z M727.9,898.2l1,1.3v1.4
		l-0.4,0.6l-0.6,0.7V898.2L727.9,898.2z M730.4,898.2v4l-0.6-0.7l-0.4-0.6v-1.3C729.7,899.3,730,898.8,730.4,898.2L730.4,898.2
		L730.4,898.2L730.4,898.2z M757.7,898.2c0.3,0.6,0.7,1.1,1,1.4v1.3l-0.4,0.6l-0.6,0.7V898.2L757.7,898.2z M760.1,898.2v4l-0.6-0.7
		l-0.4-0.6v-1.4L760.1,898.2L760.1,898.2L760.1,898.2z M760.5,898.2l0.6,0.7l0.4,0.6v1.4l-0.4,0.6l-0.6,0.7V898.2L760.5,898.2
		L760.5,898.2z M762.9,898.2v4l-0.6-0.7l-0.4-0.5v-1.4l0.4-0.5L762.9,898.2L762.9,898.2z M726.7,902.6l1.1,1.4l1.1-1.3v33.1
		c0,0,0.1,1.6,0.1,2.7c-0.5,0.7-2.3,3.1-2.3,3.1V902.6L726.7,902.6z M761.4,902.6v38.9c0,0-1.8-2.5-2.3-3.1c0.1-1.1,0.1-2.7,0.1-2.7
		v-33.1l1.1,1.3L761.4,902.6L761.4,902.6L761.4,902.6L761.4,902.6z M726,902.6v37.7c0,1.1-1.5,3.5-2.2,4.1v-41.8l1.1,1.3L726,902.6
		L726,902.6z M762,902.6l1.1,1.3l1.1-1.3v41.8c-0.7-0.6-2.2-3-2.2-4.1V902.6L762,902.6z M735,932.2c0,0-1,2.8-1.5,3.3
		c0,0,0.3,0,0.6,0c-0.2,0.4-1.6,3.2-2.1,4.2c-0.4,1-0.7,0.5-1.4,0.5c-0.5,0-1.8,1.2-2,1.6c-0.2,0.5-0.4,1.1-0.4,1.6
		c0,0.5,0.4,1.3,0.4,1.3c0-0.3,0.1-0.3,0.1-0.3s1.1,1.9,1.3,2.1c0.1,0.2,0.7,0.3,0.9,0.1c0.5-0.6,1-1,1.5-1.9c0.2-0.5,0.3-1,0.5-1.5
		c0.9-1.6,2.7-4.8,3.1-5.5c0,0.2,0.1,0.4,0.1,0.6c0.5-1.2,2.7-3.6,2.7-3.6l-0.6-0.5c0,0-1.3,2.1-1.8,2.5c0,0-0.2-1-0.3-1.4
		c0,0-0.5,0.5-0.8,0.5c0,0-0.1-0.7-0.1-1.2c-0.4,0.3-0.9,0.2-0.9,0.2c0.5-0.3,1.1-2.3,1.1-2.3L735,932.2L735,932.2L735,932.2z
		 M753.1,932.2l-0.4,0.3c0,0,0.6,2,1.1,2.3c0,0-0.6,0.1-0.9-0.2c-0.1,0.5-0.1,1.2-0.1,1.2c-0.3,0-0.8-0.5-0.8-0.5
		c-0.1,0.4-0.3,1.4-0.3,1.4c-0.4-0.4-1.8-2.5-1.8-2.5l-0.6,0.5c0,0,2.2,2.4,2.7,3.6c0-0.2,0-0.4,0.1-0.6c0.4,0.7,2.2,3.9,3.1,5.5
		c0.3,0.5,0.3,1,0.5,1.5c0.5,0.9,0.9,1.3,1.5,1.9c0.2,0.2,0.8,0.1,0.9-0.1c0.2-0.2,1.3-2.1,1.3-2.1s0.1,0.1,0.1,0.3
		c0,0,0.4-0.7,0.4-1.3c0-0.5-0.2-1.1-0.4-1.6c-0.2-0.5-1.4-1.6-2-1.6c-0.7,0-1,0.4-1.4-0.5c-0.5-1.1-1.9-3.8-2.1-4.2
		c0.3,0,0.6,0,0.6,0C754.1,935.1,753.1,932.2,753.1,932.2L753.1,932.2L753.1,932.2z M734.8,935.4c0,0,0,1,0.2,1.3l0.8-0.7
		c0,0,0.1,0.4,0.1,0.8c-0.3,0.6-2.3,4.2-3.3,5.9c-0.2,0.4-0.4,1.5-0.4,1.5s-0.4-0.2-0.4-0.6c0-0.4,0-0.9,0-0.9s-0.3,0.4-0.7,0.4
		c0-0.5,0.7-1,0.7-1.7c-0.5,0.5-1,0.3-1.6,0.5c-0.7,0.3-0.9,0.7-1.1,0.6c-0.1,0-0.2-0.3-0.2-0.5c0.1-0.3,0.9-1.1,1.5-1.3
		c0.1,0,1.2,0.3,1.5-0.1c0.9-1.9,2.4-4.9,2.5-5.2C734.7,935.5,734.8,935.5,734.8,935.4L734.8,935.4L734.8,935.4L734.8,935.4z
		 M753.2,935.4c0.1,0.1,0.2,0.1,0.2,0.1c0.1,0.3,1.6,3.3,2.5,5.2c0.2,0.5,1.3,0.1,1.5,0.1c0.6,0.1,1.4,1,1.5,1.3
		c0,0.2-0.1,0.5-0.2,0.5c-0.2,0-0.4-0.4-1.1-0.6c-0.6-0.3-1.1,0-1.6-0.5c0,0.7,0.7,1.2,0.7,1.7c-0.5,0-0.7-0.4-0.7-0.4s0,0.5,0,0.9
		c0,0.4-0.4,0.6-0.4,0.6s-0.2-1.1-0.4-1.5c-1-1.7-2.9-5.3-3.3-5.9c0.1-0.5,0.1-0.8,0.1-0.8l0.8,0.7
		C753.2,936.4,753.2,935.4,753.2,935.4L753.2,935.4L753.2,935.4L753.2,935.4z M741.2,936.1c0,0-4.3,13.3-8.2,15.3
		c0,0,1.7,0.9,3.7,2.4c0.3,0.2,0.6,0.4,0.9,0.7c0.3-0.4,0.5-0.9,0.8-1.4c1.2-2.2,2.4-4.7,2.4-4.7c0.1,0.7-0.6,2.7-1.7,5.2
		c-0.2,0.5-0.4,1-0.7,1.5c0.3,0.2,0.6,0.4,0.8,0.6c2,1.6,3.9,3.5,4.7,5.2c0.7-1.7,2.6-3.6,4.7-5.2c0.3-0.2,0.6-0.4,0.8-0.6
		c-0.2-0.5-0.5-1-0.7-1.5c-1.1-2.5-1.7-4.6-1.7-5.2c0,0,1.2,2.5,2.4,4.7c0.3,0.5,0.5,0.9,0.8,1.4c0.3-0.2,0.6-0.4,0.9-0.7
		c2.1-1.4,3.7-2.4,3.7-2.4c-3.8-2-8.2-15.3-8.2-15.3l-0.6,0.2c0,0,3.5,11.5,6.8,15c-0.8,0.3-1.7,0.8-2.6,1.3
		c-1.1-1.8-2.3-4.1-3.2-6.3c-1-2.3-1.9-6.3-1.9-6.3c-0.5,1.5,0.5,9.3,2.6,14.1c-1.7,1.2-3.2,2.4-3.9,3.5c-0.7-1-2.2-2.3-3.9-3.5
		c2-4.9,3.1-12.6,2.6-14.1c0,0-0.8,4-1.9,6.3c-0.9,2.1-2.1,4.5-3.2,6.3c-0.9-0.5-1.8-1-2.6-1.3c3.4-3.5,6.8-15,6.8-15L741.2,936.1
		L741.2,936.1L741.2,936.1z M729.9,942.5C729.9,942.5,729.9,942.5,729.9,942.5c0.1,0.1,0.1,0.2,0.1,0.3l-0.4,0.4c0,0.1-0.1,0-0.2,0
		c0-0.1,0-0.2,0-0.2L729.9,942.5C729.8,942.5,729.9,942.5,729.9,942.5L729.9,942.5L729.9,942.5z M758.2,942.5
		C758.2,942.5,758.3,942.5,758.2,942.5l0.4,0.5c0,0.1,0.1,0.2,0,0.2c0,0.1-0.1,0.1-0.2,0l-0.4-0.4
		C758.1,942.7,758.1,942.6,758.2,942.5C758.1,942.5,758.2,942.5,758.2,942.5L758.2,942.5L758.2,942.5L758.2,942.5z M730.3,942.9
		c0.1,0,0.2,0,0.2,0.1c0.1,0.2,0.1,0.4,0,0.5l-0.9,1c-0.1,0.1-0.3,0.1-0.4-0.1c-0.1-0.2-0.1-0.4,0-0.5l0.9-1
		C730.1,943,730.2,942.9,730.3,942.9L730.3,942.9z M757.8,942.9C757.8,942.9,757.8,942.9,757.8,942.9c0.1,0,0.2,0,0.2,0.1l0.9,1
		c0.1,0.1,0.1,0.4,0,0.5c-0.1,0.2-0.3,0.2-0.4,0.1l-0.9-1c-0.1-0.1-0.1-0.4,0-0.5C757.6,943,757.7,942.9,757.8,942.9L757.8,942.9
		L757.8,942.9z M730.8,943.7c0.1,0,0.2,0,0.3,0.1c0.1,0.2,0.1,0.4,0,0.5l-0.9,1c-0.1,0.1-0.3,0.1-0.4-0.1c-0.1-0.2-0.1-0.4,0-0.5
		l0.9-1C730.6,943.8,730.7,943.7,730.8,943.7L730.8,943.7L730.8,943.7z M757.3,943.7C757.3,943.7,757.3,943.7,757.3,943.7
		c0.1,0,0.2,0,0.2,0.1l0.9,1c0.1,0.1,0.1,0.4,0,0.5c-0.1,0.2-0.3,0.2-0.4,0.1l-0.9-1c-0.1-0.1-0.1-0.4,0-0.5
		C757.1,943.8,757.2,943.7,757.3,943.7L757.3,943.7L757.3,943.7z M731.3,944.5c0.1,0,0.2,0,0.2,0.1c0.1,0.2,0.1,0.4,0,0.5l-0.9,1
		c-0.1,0.1-0.3,0.1-0.4-0.1c-0.1-0.2-0.1-0.4,0-0.5l0.9-1C731.2,944.5,731.3,944.5,731.3,944.5L731.3,944.5z M756.7,944.5
		C756.7,944.5,756.8,944.5,756.7,944.5c0.1,0,0.2,0,0.2,0.1l0.9,1c0.1,0.1,0.1,0.4,0,0.5c-0.1,0.2-0.3,0.2-0.4,0.1l-0.9-1
		c-0.1-0.1-0.1-0.4,0-0.5C756.6,944.5,756.6,944.5,756.7,944.5L756.7,944.5z"/>
	<path id="_x34_1" class="st4" d="M769.3,912.8l-0.8,0.8l0.4,0.3l0.4,0.3L769.3,912.8L769.3,912.8z M768.4,914.1
		c-0.2,0-0.3,0.1-0.4,0.3c-0.1,0.3,0,0.6,0.2,0.8c0.2,0.2,0.5,0.1,0.6-0.2c0.1-0.3,0-0.6-0.2-0.8
		C768.6,914.1,768.5,914.1,768.4,914.1L768.4,914.1L768.4,914.1z M766.9,915.4c-0.1,0-0.2,0-0.2,0c-0.1,0.1,0,1.1,0,2
		c0,0.8-0.2,1-0.3,1.3c-0.1,0.3-0.5,0.6-0.5,0.6l0.3,0.4c0,0,0.2-0.4,0.5-1.2c0.4-0.9,0.3-2.6,0.4-2.7c0.1-0.1,0.8-0.3,0.8-0.3
		S767.3,915.4,766.9,915.4L766.9,915.4L766.9,915.4L766.9,915.4z M768.2,915.6c0,0-0.8,0.2-0.9,0.3c-0.1,0.1-0.1,1.5-0.5,2.6
		c-0.3,0.9-0.5,1.2-0.5,1.2l0.2,0.1l0.2,0.1c0,0,0.1-0.4,0.4-1.3c0.4-1.1,1.3-1.9,1.3-2.1C768.5,916.6,768.2,915.6,768.2,915.6
		L768.2,915.6L768.2,915.6z M768.4,915.8c0,0,0.3,0.9,0.3,1.1c0,0.2-1,1.1-1.4,2.1c-0.3,0.8-0.4,1.2-0.4,1.2l0.4,0.1
		c0,0,0-0.6,0.1-0.8c0.1-0.3,0.1-0.6,0.6-1.1c0.5-0.5,1.2-1,1.2-1.1C769.2,917,768.4,915.8,768.4,915.8L768.4,915.8z M766.1,920.2
		c-0.1,0-0.2,0.1-0.3,0.3c-0.1,0.2,0,0.5-0.7,2.1c-0.3,0.7-0.4,1-0.7,1.8c-0.3,0.8-0.7,1.9-0.7,1.9s-0.1,0.4,0.1,0.5
		c0.3,0.2,0.4-0.2,0.4-0.2s0.4-1.1,0.7-1.9c0.3-0.8,0.4-1.1,0.7-1.8c0.6-1.6,0.8-1.7,0.9-1.9c0.1-0.2,0.1-0.5-0.2-0.7
		C766.3,920.3,766.2,920.2,766.1,920.2L766.1,920.2L766.1,920.2L766.1,920.2z M763.4,927c-0.1,0-0.2,0.1-0.2,0.2
		c-0.1,0.2,0.1,0.5,0.3,0.7c0.2,0.2,0.5,0.1,0.6-0.1c0.1-0.2-0.1-0.5-0.3-0.7C763.7,927,763.5,927,763.4,927L763.4,927z M763.1,928
		c-0.2,0-0.3,0.1-0.4,0.2c-0.1,0.3,0.1,0.6,0.3,0.8c0.3,0.2,0.6,0.1,0.7-0.1c0.1-0.3-0.1-0.6-0.3-0.8C763.3,928,763.2,928,763.1,928
		L763.1,928z M762.6,929.2c-0.1,0-0.2,0.1-0.2,0.2c-0.1,0.2,0.1,0.5,0.3,0.7c0.2,0.2,0.5,0.1,0.6-0.1c0.1-0.2-0.1-0.5-0.3-0.7
		C762.8,929.2,762.7,929.2,762.6,929.2L762.6,929.2z M762.4,930.2c-0.2,0-0.2,0.2-0.2,0.2s-1.6,4.1-2.1,5.5
		c-0.2,0.5-0.9,0.7-1.2,1.5c-0.3,0.8-0.1,1.5,0.3,1.7c0.4,0.3,0.9,0.1,1.2-0.7c0.3-0.8,0-1.7,0.2-2.2c0.5-1.4,2.1-5.5,2.1-5.5
		s0.2-0.4-0.1-0.5C762.5,930.2,762.4,930.2,762.4,930.2L762.4,930.2L762.4,930.2z M758.6,939.6c-0.2,0-0.3,0.1-0.4,0.3
		c-0.1,0.3,0,0.7,0.3,0.9c0.3,0.2,0.6,0.1,0.7-0.2c0.1-0.3,0-0.7-0.3-0.9C758.8,939.7,758.7,939.6,758.6,939.6L758.6,939.6
		L758.6,939.6z M756.2,946.2c-0.1,0-0.2,0-0.2,0.1c-0.1,0.2,0.1,0.4,0.3,0.5c0.2,0.1,0.4,0.1,0.5,0c0.1-0.2-0.1-0.4-0.3-0.5
		C756.4,946.2,756.2,946.2,756.2,946.2L756.2,946.2z M755.4,946.9v2l1.2-1.2c0,0-0.2-0.4-0.5-0.6
		C755.8,946.9,755.4,946.9,755.4,946.9L755.4,946.9z"/>
	<path id="_x34_0" d="M725.3,935.3c0,0,0.7,1.9,1.2,2.2c-0.3-0.1-1.2,0.3-1.2,0.3s1.6,1.9,2.9,2c1.1,0.1,1.7-0.6,1.7-0.6l-0.2-1.6
		c0,0-0.7-1.1-1.8-1.6C726.8,935.4,725.3,935.3,725.3,935.3L725.3,935.3L725.3,935.3z"/>
	<path id="_x33_9" d="M730.5,931.8c0,0-1,1.1-1.2,2.4c-0.3,1.3,0.2,2.7,0.2,2.7l0.8,2c0,0,1.1-0.8,1.6-2c0.5-1.2,0.3-2.8,0.3-2.8
		s-0.9,0.4-1,0.6C731.4,933.5,730.5,931.8,730.5,931.8L730.5,931.8L730.5,931.8L730.5,931.8z"/>
	<path id="_x33_8" d="M727.5,931.3c0,0-1.1,0.5-2.1,0.4c-1-0.1-1.8-1.2-1.8-1.2s0.8-0.8,1.2-0.7c-0.5-0.2-1.1-1.7-1.1-1.7
		s0.9-0.4,1.8,0c0.8,0.4,1.6,1.6,1.6,1.6L727.5,931.3L727.5,931.3L727.5,931.3z"/>
	<path id="_x33_7" d="M727.8,924.2c0,0,0.5,1.5,0.4,2c0.2-0.3,0.8-0.9,0.8-0.9s0.4,2.4,0,3.9c-0.4,1.5-1.5,2.1-1.5,2.1l-1.2-3.2
		c0,0-0.2-1.2,0.2-2.1S727.8,924.2,727.8,924.2L727.8,924.2L727.8,924.2z"/>
	<path id="_x33_6" d="M720.7,920.2c0,0,1.2-0.2,2.3,0.4c0.9,0.5,1.2,1.4,1.2,1.4l0.4,1.6c0,0-1.3,0.6-2.3,0.2
		c-1-0.5-1.8-2.1-1.8-2.1s0.7-0.4,1-0.2C721.1,921.2,720.7,920.2,720.7,920.2L720.7,920.2L720.7,920.2L720.7,920.2z"/>
	<path id="_x33_5" d="M724.4,917.3c0,0,0.5,0.9,0.5,1.9c0.1-0.5,0.8-1.1,0.8-1.1s0.7,2.1,0.5,3.7c-0.1,1.5-1.1,2.4-1.1,2.4l-1.2-3
		c0,0-0.4-1.2-0.3-2.2C723.8,918,724.4,917.3,724.4,917.3L724.4,917.3L724.4,917.3z"/>
	<path id="_x33_4" d="M720.4,911.5c0,0-0.2,1.6,0.1,2.6c0.3,0.8,0.5,1,0.5,1c-0.6-0.5-1.6-0.6-1.6-0.6s0.3,1.8,1.1,2.6
		c0.8,0.8,2,0.6,2,0.6s0.8-1.4,0.8-3c-0.1-1.5-1-3.2-1-3.2s-0.4,1-0.4,1.8C721.8,912.6,720.4,911.5,720.4,911.5L720.4,911.5
		L720.4,911.5z"/>
	<path id="_x33_3" class="st7" d="M720.7,912.5c0,0,0,1.2,0.3,1.9c0.3,0.7,1,1,1,1s0-1.2-0.3-1.9
		C721.4,912.8,720.7,912.5,720.7,912.5z"/>
	<path id="_x33_2" class="st7" d="M720.1,915.2c0,0,0.8,0.1,1.2,0.5c0.5,0.5,0.6,1.4,0.6,1.4s-0.5,0.1-1-0.4
		C720.5,916.3,720.1,915.2,720.1,915.2z"/>
	<path id="_x33_1" class="st7" d="M722.6,912.8c0,0-0.3,0.8-0.2,1.7c0,0.9,0.4,1.8,0.4,1.8s0.3-1,0.3-1.9
		C723,913.6,722.6,913.1,722.6,912.8L722.6,912.8z"/>
	<path id="_x33_0" class="st7" d="M721.2,920.5c0,0,0.4,0.7,1,1.1c0.6,0.4,1.5,0.4,1.5,0.4s-0.4-0.8-1-1.2
		C722.1,920.5,721.2,920.5,721.2,920.5L721.2,920.5L721.2,920.5z"/>
	<path id="_x32_9" class="st7" d="M721.4,922.2c0,0,0.3,0.7,0.8,1.1c0.5,0.3,1.6,0.3,1.6,0.3s-0.4-0.7-0.9-1
		C722.4,922.2,721.4,922.2,721.4,922.2L721.4,922.2z"/>
	<path id="_x32_8" class="st7" d="M724.4,918.3c0,0-0.3,0.7-0.3,1.4c0,0.8,0.4,1.6,0.4,1.6s0.3-0.9,0.2-1.7
		C724.7,918.8,724.4,918.3,724.4,918.3L724.4,918.3z"/>
	<path id="_x32_7" class="st7" d="M725.5,919.3c0,0-0.5,1-0.6,1.9c-0.1,1,0.3,2,0.3,2s0.6-0.9,0.7-1.8
		C726,920.4,725.5,919.3,725.5,919.3L725.5,919.3L725.5,919.3z"/>
	<path id="_x32_6" class="st7" d="M724.1,928.3c0,0,0.1,0.4,0.3,0.7c0.2,0.4,0.6,0.8,0.6,0.8s0.4-0.2,0.8,0c0.5,0.1,1.1,0.7,1.1,0.7
		s-0.7-1.3-1.3-1.8C724.8,928.1,724.1,928.3,724.1,928.3L724.1,928.3L724.1,928.3z"/>
	<path id="_x32_5" class="st7" d="M724,930.6c0,0,0.8-0.5,1.5-0.4c0.7,0.1,1.3,0.9,1.3,0.9s-0.9,0.4-1.6,0.3
		C724.5,931.3,724,930.6,724,930.6L724,930.6L724,930.6L724,930.6z"/>
	<path id="_x32_4" class="st7" d="M727.6,925.3c0,0-0.8,1.1-0.8,2c-0.1,0.9,0.6,1.8,0.6,1.8s0-0.6,0.1-1c0.1-0.4,0.4-0.8,0.4-0.8
		s0.1-0.5,0.1-0.9C727.8,925.9,727.6,925.3,727.6,925.3L727.6,925.3z"/>
	<path id="_x32_3" class="st7" d="M728.7,926.5c0,0-0.7,1-0.9,2c-0.2,1,0.1,2.1,0.1,2.1s0.6-0.7,0.8-1.7
		C728.9,927.9,728.7,926.5,728.7,926.5L728.7,926.5L728.7,926.5z"/>
	<path id="_x32_2" class="st7" d="M730.4,932.7c0,0,0.3,0.9,0.4,1.6c0.1,0.7,0,1,0,1s-0.3,0.4-0.5,0.7c-0.2,0.3-0.2,0.9-0.2,0.9
		s-0.7-1.3-0.6-2.3C729.7,933.7,730.4,932.7,730.4,932.7L730.4,932.7L730.4,932.7z"/>
	<path id="_x32_1" class="st7" d="M731.8,934.8c0,0-0.9,0.8-1.2,1.5c-0.3,0.8-0.2,1.6-0.2,1.6s0.6-0.1,0.9-0.8
		C731.8,936.2,731.8,934.8,731.8,934.8L731.8,934.8L731.8,934.8L731.8,934.8z"/>
	<path id="_x32_0" class="st7" d="M726.2,937.9c0,0,1.2,0,2,0.2c0.8,0.2,1,0.8,1,0.8s-0.8,0.5-1.6,0.3
		C726.9,938.9,726.2,937.9,726.2,937.9L726.2,937.9L726.2,937.9z"/>
	<path id="_x31_9" class="st7" d="M726,936c0,0,0.6,1.1,1.3,1.6c1,0.6,2.1,0.3,2.1,0.3s-0.6-1-1.5-1.5C727.1,935.9,726,936,726,936
		L726,936L726,936L726,936z"/>
	<path id="_x31_8" d="M730,939l0,0.6c0.7,0,0.8-0.1,1,0.2c0.1,0.2,0.4,0.4,0.7,0.2c0.3-0.2,0.4-0.7,0.3-1.1
		c-0.1-0.4-0.4-0.5-0.7-0.4c-0.2,0-0.3,0.2-0.4,0.3C730.7,939.1,730,939,730,939L730,939L730,939z"/>
	<path id="_x31_7" d="M729.9,938.6l0.4,0.3c-0.4,0.8-0.5,0.9-0.4,1.3c0.1,0.3,0,0.7-0.3,0.9c-0.3,0.2-0.7,0.1-0.8-0.2
		c-0.2-0.4-0.1-0.7,0.1-1c0.1-0.2,0.3-0.2,0.4-0.3C729.6,939.4,729.9,938.6,729.9,938.6L729.9,938.6L729.9,938.6z"/>
	<path id="_x31_6" d="M727.4,931.6l0,0.6c0.7,0,0.8-0.1,1,0.2c0.1,0.2,0.4,0.4,0.7,0.2c0.3-0.2,0.4-0.7,0.3-1.1
		c-0.1-0.4-0.4-0.5-0.7-0.4c-0.2,0-0.3,0.2-0.4,0.3C728.2,931.6,727.4,931.6,727.4,931.6L727.4,931.6L727.4,931.6z"/>
	<path id="_x31_5" d="M727.6,931.8l0.3,0.4c-0.5,0.7-0.6,0.8-0.6,1.2c0,0.3-0.1,0.7-0.4,0.9c-0.3,0.2-0.7,0-0.8-0.4
		c-0.1-0.4,0-0.7,0.2-1c0.1-0.1,0.3-0.1,0.4-0.2C727.1,932.6,727.6,931.8,727.6,931.8L727.6,931.8L727.6,931.8L727.6,931.8z"/>
	<path id="_x31_4" d="M725,924.6l0,0.6c0.7,0,0.8-0.1,1,0.2c0.1,0.2,0.4,0.4,0.7,0.2c0.3-0.2,0.4-0.7,0.3-1.1
		c-0.1-0.4-0.4-0.5-0.7-0.4c-0.2,0-0.3,0.2-0.4,0.3C725.7,924.7,725,924.6,725,924.6L725,924.6L725,924.6z"/>
	<path id="_x31_3" d="M725.2,924.5l0.3,0.4c-0.5,0.7-0.6,0.8-0.6,1.2c0,0.3-0.1,0.7-0.4,0.9c-0.3,0.2-0.7,0-0.8-0.4
		c-0.1-0.4,0-0.7,0.2-1c0.1-0.1,0.3-0.1,0.4-0.2C724.7,925.2,725.2,924.5,725.2,924.5L725.2,924.5L725.2,924.5z"/>
	<path id="_x31_2" d="M722.3,917.3l0,0.6c0.7,0,0.8-0.1,1,0.2c0.1,0.2,0.4,0.4,0.7,0.2c0.3-0.2,0.4-0.7,0.3-1.1
		c-0.1-0.4-0.4-0.5-0.7-0.4c-0.2,0-0.3,0.2-0.4,0.3C723,917.3,722.3,917.3,722.3,917.3L722.3,917.3L722.3,917.3L722.3,917.3z"/>
	<path id="_x31_1" d="M722.5,917.1l0.3,0.4c-0.5,0.7-0.6,0.8-0.6,1.2c0,0.3-0.1,0.7-0.4,0.9c-0.3,0.2-0.7,0-0.8-0.4
		c-0.1-0.4,0-0.7,0.2-1c0.1-0.1,0.3-0.1,0.4-0.2C722.1,917.9,722.5,917.1,722.5,917.1L722.5,917.1L722.5,917.1L722.5,917.1
		L722.5,917.1z"/>
	<path id="_x31_0" class="st4" d="M727,929.8c-0.3,0.1-0.7-1.4-0.9-2.2c-0.3-0.9-0.9-2.2-0.7-2.3c0.2-0.1,0.4,0.6,0.7,1.5
		C726.3,927.7,727.2,929.7,727,929.8L727,929.8L727,929.8L727,929.8z"/>
	<path id="_x39_" class="st4" d="M724.3,921.8c-0.3,0.1-0.6-0.9-0.8-1.7c-0.3-0.9-0.6-1.5-0.4-1.6c0.2-0.1,0.5,0.6,0.7,1.3
		C723.9,920.6,724.5,921.7,724.3,921.8L724.3,921.8z"/>
	<path id="_x38_" class="st4" d="M730.5,940c-0.2,0.1-1.1-2.4-1.8-4.6c-0.7-2.1-1.3-3.9-1.1-4c0.2-0.1,0.8,1.9,1.5,4
		C729.8,937.7,730.7,940,730.5,940L730.5,940z"/>
	<path id="_x37_" class="st0" d="M738.1,883.3c0,0,0.3-0.8,1.1-0.8c0.3,0,1.4,0,1.4,0c0.1,0.5,0.8,1.3,0.8,2.1c0,0-0.7-1.6-2.5-1.6
		C738.4,883.1,738.1,883.3,738.1,883.3L738.1,883.3L738.1,883.3z"/>
	<path id="_x36_" d="M740.4,883.5c0,0-0.4-0.2-0.4-0.4c0-0.3,0.2-0.3,0.3-0.1C740.4,883.2,740.4,883.5,740.4,883.5L740.4,883.5
		L740.4,883.5z"/>
	<path id="_x35_" class="st5" d="M741,884.9c0,0-0.4,0.5-0.5,0.8c-0.4-0.2-1-1.1-1-1.1S740.1,885.1,741,884.9L741,884.9z"/>
	<path id="_x34_" d="M743,883.5c0,0.4-0.3,0.7-0.6,0.7c-0.4,0-0.6-0.3-0.6-0.7c0,0,0,0,0,0c0-0.4,0.3-0.7,0.6-0.7
		C742.7,882.8,743,883.1,743,883.5C743,883.5,743,883.5,743,883.5z"/>
	<path id="_x33_" class="st4" d="M742.8,883.5c0,0.3-0.2,0.6-0.4,0.6c-0.2,0-0.4-0.3-0.4-0.6c0-0.3,0.2-0.6,0.4-0.6
		C742.6,882.9,742.8,883.2,742.8,883.5z"/>
	<path id="_x32_" d="M742.5,883.5c0,0.1-0.1,0.3-0.2,0.3c-0.1,0-0.2-0.1-0.2-0.2c0,0,0,0,0,0c0-0.1,0.1-0.3,0.2-0.3
		C742.4,883.2,742.5,883.4,742.5,883.5C742.5,883.5,742.5,883.5,742.5,883.5z"/>
	<path id="_x31_" class="st4" d="M730.8,899.9c0,0,1.1,1.1,1.1,2.2V925v3.5c0,0.7,0.2,1.1,0.4,1.6c0.3,0.5,0.8,1.1,1.4,1.6
		c1.7,1.5,4.7,3.1,6.9,4.4c1.8,1.1,2.6,1.6,3.5,3.1c1-1.6,1.7-2,3.5-3.1c2.2-1.3,5.1-2.9,6.9-4.4c0.6-0.5,1.1-1.1,1.4-1.6
		c0.3-0.4,0.4-0.9,0.4-1.6V925v-22.9c0-1.1,1.1-2.2,1.1-2.2h-1.2h-0.7H744h-11.4h-0.7H730.8L730.8,899.9L730.8,899.9L730.8,899.9z
		 M732.2,900.7h0.4H744h11.4h0.4c0,0-0.3,0.5-0.3,1.4V925v3.5c0,0.6-0.4,1.9-3,3.6c-4.3,2.8-7.5,4.2-8.5,5.8c-1-1.6-4.3-2.9-8.5-5.8
		c-2.6-1.7-3-3.1-3-3.6V925v-22.9C732.5,901.3,732.2,900.7,732.2,900.7L732.2,900.7L732.2,900.7z"/>
</g>
</svg>
