<?xml version="1.0" encoding="utf-8"?>
<!-- Generator: Adobe Illustrator 23.1.1, SVG Export Plug-In . SVG Version: 6.00 Build 0)  -->
<svg version="1.1" id="Countryflags.com" xmlns="http://www.w3.org/2000/svg" xmlns:xlink="http://www.w3.org/1999/xlink" x="0px"
	 y="0px" viewBox="0 0 225 150" style="enable-background:new 0 0 225 150;" xml:space="preserve">
<style type="text/css">
	.st0{fill:#D3AE39;}
	.st1{fill:#C32026;}
	.st2{fill:#B96C29;}
	.st3{fill:#D4AF38;}
	.st4{fill:#1F5F92;}
	.st5{fill:#6D8C3D;}
	.st6{fill:#C52328;}
</style>
<g>
	<rect id="_x32_55" y="0" class="st0" width="225" height="150"/>
	<rect id="_x32_54" x="5.6" y="7.5" class="st1" width="213.8" height="135"/>
	<path id="_x32_53" class="st2" d="M137,73.8c0.7-0.2,2.9-1.1,4.6-2.9c1.6-1.7,1.9-3.1,2.1-3.9c0.1-0.8,0.2-1.3-0.2-0.9
		c-0.4,0.4-1.7,1.7-2.5,2.4c-0.9,0.6-1.6,0.9-2.1,1.1c-0.5,0.2-0.8,0.3-0.4,0c0.4-0.2,1.9-0.9,3-2.4c1.1-1.5,2-3.7,2-5.1
		c0-1.4-0.1-1.3-0.4-0.9c-0.3,0.3-1.5,2.3-2.2,3c-0.7,0.7-1.7,1.7-2.3,2.1c-0.5,0.4-1.3,0.9-0.2-0.1c1.1-1,3-3.2,3.9-6.2
		c0.8-2.9,0.7-4.7,0.6-4.9c0-0.3-0.2-0.9-0.4-0.3c-0.2,0.5-1.5,4.1-2.6,5.6c-1.1,1.5-0.8,1.2-1.1,1.5c-0.2,0.2-0.6,0.7-0.1-0.2
		c0.5-0.9,1.6-2.9,2.1-4.8c0.6-2,0.7-3.9,0.7-5.1c0-1.1-0.4-2.7-0.5-3.2c-0.2-0.5-0.3-0.8-0.4-0.3c-0.1,0.5-0.9,4-1.4,5.7
		c-0.5,1.7-1.4,3.6-1.6,4c-0.2,0.4-0.7,1.1-0.1-0.1c0.5-1.3,1.5-5,1.6-8.6c0.1-3.6-0.2-5.5-0.6-6.5c-0.4-1-0.7-1.3-0.7-1.3
		s0.1,2.4-0.5,5.9c-0.5,3.5-1.3,5.4-1.3,5.4s-0.3,0.5-0.1-0.3c0.2-0.6,0.5-1.8,0.6-3.9c0.2-2.2,0.2-4.7-0.3-6.9
		c-0.5-2.3-1.4-3.5-1.4-3.5c-0.3,3.3-0.2,7.7-1.1,11.2c-0.2-0.2-0.4-0.6-0.5,0.2c-0.2,1.1-0.5,3.3-1.6,6.1c-1.1,2.7-1.6,3.1-1.6,3.1
		s-0.2-0.7-0.4-1c-0.1-0.4-0.2-0.6-0.4-0.1c-0.2,0.5-0.8,2.4-2.2,4.6c-1.4,2.1-2.2,3.2-2.1,4.8c0,1.6,0.7,2.4,1.5,3.1
		c0.8,0.7,1,1.1,0.9,2c-0.1,0.9-0.9,1.2-1.5,1.2c-0.7,0-1.5-0.1-1.8,0.2c-0.3,0.2-0.3,0.8-0.6,1.2c-0.3,0.4-0.4,0.6-0.7,0.7
		c-0.1,0-0.2,0-0.2,0c-0.1-4.2,1.2-6.1,1.2-6.1l-3.4-5.4c-0.2,0.1-0.4,0.2-0.5,0.3c0-0.1-0.1-0.1-0.1-0.2c-0.5-0.8-0.6-1.4-0.6-2.4
		c0.2,0,0.5,0.2,0.8,0.1c0.3-0.1,0.1-0.5,0-0.9c-0.1-0.4-0.2-1.8-0.1-2.3c0.1-0.5,0.1-0.7,0.1-0.7s0.5,0.7,0.8,0.7
		c0.3,0,0.3-0.4,0.3-0.9c0.1-0.7,0.3-1.6,0.7-2c0,0,0.5,0.5,1.2,0.5c0.6,0,1.5-0.2,2.1-1.1c0.7-0.8,0.7-1.1,0.7-1.1s1.2,0.6,2.2,0.6
		c0.9,0.1,2-0.1,2.4-1.5c0.5-1.3-0.1-2.5-0.2-2.8c-0.1-0.2-0.4-0.4-0.4,0c0,0.4,0,1.4-0.6,1.9c-0.6,0.5-1,0.5-1.6,0.2
		c-0.5-0.2-1.3-0.5-2.2-0.4c-0.8,0.1-0.9,0.2-0.9,0.2c0-0.1,0.7-1,1.4-1.3c0.7-0.3,1.1,0.1,1.4,0.5c0.2,0.4,0.4,1,0.6,0.1
		c0.2-0.9,0.1-1.9-0.2-2.5c-0.3-0.6-1-1.1-1.7-1c-0.7,0.1-0.9,0.2-0.9,0.2s-0.4-1.3-1.3-1.6c-1.1-0.3-2.3,0.2-3.3,1
		c0,0-0.7,0.2-1.5-0.1c-0.5-0.2-1-0.6-1.3-0.8c0.1-0.4,0.3-1.1,0.3-1.1s0.2-0.1,0.4-0.2c0.2-0.1,0.2-0.2,0.2-0.5
		c0-0.3-0.4-0.7-0.4-0.7s-0.1-0.8,0.7-1.3c0.7-0.5,0.7-0.4,0.7-0.4s0.4,0.1,0.6-0.1c0.2-0.2,0.2-0.3,0.2-0.3s0.3-0.1,0.5-0.4
		c0.1-0.3,0.1-0.7,0.1-1c-0.1-0.3-0.2-0.4-0.1-0.5c0.1-0.1,0.2-0.5,0.2-0.8c0-0.3,0-0.3,0-0.3s0.3-0.1,0.2-0.6
		c0-0.5-0.2-0.7-0.3-0.8c-0.1,0-0.2,0-0.2,0s0-0.3-0.2-0.7c-0.2-0.4-0.3-0.6-0.3-0.6s0.1-0.1,0.1-0.5c-0.1-0.3-0.3-0.5-0.4-0.6
		c-0.2-0.1-0.4,0-0.4,0s-0.6-0.5-0.9-0.7c-0.3-0.2-0.3-0.2-0.3-0.2s0-0.3-0.1-0.5c-0.1-0.2-0.3-0.3-0.5-0.3c-0.1,0-0.3,0.1-0.3,0.1
		s-1-0.3-1.4-0.4c-0.4-0.1-0.4-0.1-0.4-0.1s-0.9-0.6-1.2-0.7c-0.3-0.1-0.4-0.1-0.4-0.1s0.4-0.6,0.4-1.2c0-0.7-0.3-1.3-0.7-1.6
		c-0.2-0.2-0.3-0.2-0.4-0.2l0-0.5l0.7,0.1l0.1-1.4l-0.6,0.1l0.1-0.9l-1.4,0l0.1,0.9l-0.7-0.1l0.1,1.4l0.7-0.1l-0.1,0.5
		c0,0-0.3,0.1-0.5,0.3c-0.4,0.3-0.7,0.8-0.6,1.5c0,0.7,0.3,1.3,0.3,1.3s-0.1,0-0.4,0.1c-0.3,0.1-1.2,0.7-1.2,0.7s0,0-0.4,0.1
		c-0.4,0.1-1.4,0.4-1.4,0.4s-0.1-0.1-0.3-0.1c-0.1,0-0.4,0.1-0.5,0.3c-0.1,0.2-0.1,0.5-0.1,0.5s-0.1,0-0.3,0.2
		c-0.3,0.2-0.9,0.7-0.9,0.7s-0.2-0.1-0.4,0c-0.2,0.1-0.4,0.3-0.4,0.6c-0.1,0.3,0.1,0.5,0.1,0.5s-0.1,0.2-0.3,0.6
		c-0.2,0.4-0.2,0.7-0.2,0.7s-0.1,0-0.2,0c-0.1,0-0.3,0.3-0.3,0.8c0,0.5,0.2,0.6,0.2,0.6s0,0.1,0,0.3c0,0.3,0.1,0.6,0.2,0.8
		c0.1,0.1,0,0.2-0.1,0.5c-0.1,0.3-0.1,0.7,0.1,1c0.1,0.3,0.5,0.4,0.5,0.4s0,0.1,0.2,0.3c0.2,0.2,0.6,0.1,0.6,0.1s-0.1-0.1,0.7,0.4
		c0.7,0.5,0.7,1.3,0.7,1.3s-0.5,0.4-0.4,0.7c0,0.3,0,0.4,0.2,0.5c0.2,0.1,0.4,0.2,0.4,0.2s0.2,0.7,0.3,1.1c-0.3,0.3-0.8,0.7-1.3,0.8
		c-0.8,0.3-1.5,0.1-1.5,0.1c-0.9-0.7-2.2-1.3-3.3-1c-0.9,0.2-1.3,1.6-1.3,1.6s-0.2-0.1-0.9-0.2c-0.7-0.1-1.4,0.3-1.7,1
		c-0.3,0.6-0.4,1.6-0.2,2.5c0.2,0.9,0.4,0.3,0.6-0.1c0.2-0.4,0.7-0.8,1.4-0.5c0.7,0.3,1.4,1.2,1.4,1.3c0,0-0.1-0.1-0.9-0.2
		c-0.9-0.2-1.6,0.1-2.2,0.4c-0.5,0.2-1,0.2-1.6-0.2c-0.6-0.5-0.6-1.5-0.6-1.9c0-0.4-0.3-0.2-0.4,0c-0.1,0.2-0.7,1.4-0.2,2.8
		c0.5,1.3,1.5,1.5,2.4,1.5c0.9-0.1,2.2-0.6,2.2-0.6s0,0.2,0.7,1.1c0.7,0.8,1.5,1.1,2.1,1.1c0.6,0,1.2-0.5,1.2-0.5
		c0.4,0.5,0.6,1.3,0.7,2c0,0.5,0,0.9,0.3,0.9c0.3,0,0.8-0.7,0.8-0.7s0,0.2,0.1,0.7c0.1,0.5,0,1.9-0.1,2.3c-0.1,0.4-0.3,0.8,0,0.9
		c0.3,0.1,0.7-0.1,0.8-0.1c0,1-0.1,1.7-0.6,2.4c0,0.1-0.1,0.1-0.1,0.2c-0.2-0.1-0.3-0.2-0.5-0.3l-3.4,5.4c0,0,1.2,1.9,1.2,6.1v0
		c-0.1,0-0.1,0-0.2,0c-0.3-0.1-0.4-0.3-0.7-0.7c-0.3-0.4-0.3-1-0.6-1.2c-0.3-0.2-1.1-0.1-1.8-0.2c-0.7,0-1.4-0.3-1.5-1.2
		c-0.1-0.9,0-1.3,0.9-2c0.8-0.7,1.5-1.5,1.5-3.1c0-1.6-0.7-2.6-2.1-4.8c-1.4-2.1-2-4.1-2.2-4.6c-0.2-0.5-0.3-0.3-0.4,0.1
		c-0.1,0.4-0.4,1-0.4,1s-0.5-0.4-1.6-3.1c-1.1-2.7-1.5-4.9-1.6-6.1c-0.1-0.8-0.3-0.4-0.5-0.2c-0.9-3.5-0.9-7.8-1.1-11.2
		c0,0-0.9,1.2-1.4,3.5c-0.5,2.1-0.5,4.7-0.3,6.9c0.1,2.1,0.5,3.4,0.6,3.9c0.2,0.8-0.1,0.3-0.1,0.3s-0.8-1.8-1.3-5.4
		c-0.5-3.5-0.5-5.9-0.5-5.9s-0.3,0.3-0.7,1.3c-0.4,1-0.7,3-0.6,6.5c0.1,3.6,1.1,7.3,1.6,8.6c0.5,1.3,0,0.5-0.1,0.1
		c-0.2-0.4-1.1-2.3-1.6-4c-0.5-1.7-1.3-5.2-1.4-5.7c-0.1-0.5-0.2-0.2-0.4,0.3c-0.2,0.5-0.5,2-0.5,3.2c0,1.1,0.2,3.1,0.7,5.1
		c0.6,2,1.6,4,2.1,4.8c0.5,0.9,0.1,0.4-0.1,0.2c-0.2-0.2,0,0-1.1-1.5c-1.1-1.5-2.4-5.1-2.6-5.6c-0.2-0.5-0.4,0-0.4,0.3
		c0,0.3-0.2,2,0.6,4.9c0.8,2.9,2.8,5.2,3.9,6.2c1.1,1,0.3,0.5-0.2,0.1c-0.5-0.4-1.6-1.4-2.3-2.1c-0.7-0.7-1.8-2.7-2.2-3
		c-0.3-0.3-0.4-0.4-0.4,0.9c0,1.4,0.9,3.6,2,5.1c1.1,1.5,2.6,2.2,3,2.4c0.4,0.2,0.1,0.1-0.4,0c-0.5-0.2-1.3-0.5-2.1-1.1
		c-0.9-0.6-2.1-1.9-2.5-2.4c-0.4-0.4-0.4,0.2-0.2,0.9c0.1,0.8,0.4,2.2,2.1,3.9c1.6,1.7,3.9,2.6,4.6,2.9c0.7,0.2,0.2,0.2,0.2,0.2
		s-0.3,0-1.6-0.4c-1.3-0.4-3.4-1.8-3.9-2.3c-0.5-0.5-0.6-0.6-0.6,0.3c0.1,1,0.8,3,2.1,4c1.2,1,3.5,1.5,4,1.5c0.6,0,0.4,0.1,0.2,0.2
		c-0.3,0-0.9,0-1.9-0.1c-0.9-0.1-2.1-0.7-2.6-0.9c0-0.2-0.1-0.5-0.1-0.6c-0.1-0.4-0.2-0.3-0.3-0.2c-0.1,0.1-0.1,0.1-0.4,0.4
		c-0.3,0.2-0.3,0-0.3-0.2c0-0.1-0.1-0.7-0.1-0.9c0-0.3-0.1-0.3-0.3-0.2c-0.1,0.1-0.8,0.5-1.1,0.6c-0.3,0.2,0,0.4,0.1,0.7
		c0.1,0.3,0.3,0.8,0.3,0.8s-0.6,0.2-0.8,0.3c-0.2,0.1-0.1,0.3-0.1,0.5c0.1,0.2,0.4,1.1,0.4,1.4c0.1,0.3,0.3,0.1,0.3,0.1l0.6-0.5
		l0.2,1.1c0,0-0.3,0.1-0.6,0.4c-0.3,0.3-0.2,0.7,0.1,0.8c0.4,0.2,0.8,0.4,1.3,1.6c0.5,1.2,0.6,3.4,0.9,6.9c0.3,3.5,2,5.2,2.2,5.4
		c0.2,0.2,0.1,0.4,0.1,0.4s-0.2,0.4-0.1,1.1c0.1,0.7,0.5,1.1,0.8,1.2c0.2,0.1,0.2,0.4,0.2,0.4s-0.1,0.7,0,2.1
		c0.1,1.3,0.9,2.9,1.2,3.1c0.2,0.3,0.2,0.4,0.2,0.5c0,0.1-0.2,0-0.5,0.3c-0.3,0.3-0.6,0.7-0.8,1.2c-0.2,0.5-0.1,0.8-0.1,1.4
		c0.1,0.7,0.8,1.2,0.8,1.2s-0.1,0-0.2,0.5c0,0.5,0.2,1,0.6,1.4c0.3,0.3,0.9,0.5,0.9,0.5s0,0.4,0.1,0.7c0,0.3,0.4,0.6,0.7,0.8
		c0.3,0.2,0.8,0.1,1,0c0.2-0.1,0.4,0,0.5,0.3c0.1,0.3,0.1,1.4,0.1,1.8c0,0.4-0.2,0.9-0.1,1.1c0.1,0.2,0.4,0.1,0.7-0.2
		c0.3-0.2,0.4-0.1,0.7,0.2c0.3,0.2,0.7,0.5,0.8,0.4c0.1,0,0.1-0.4,0.1-0.7c0-0.3,0-1.1,0.2-1.2c0.1-0.1,0.5-0.1,0.9-0.3
		c0.2-0.1,0.4-0.2,0.4-0.4c0-0.2-0.2-0.2-0.8-0.6c-0.5-0.4-0.6-0.6-1-0.9c-0.3-0.3-0.2-0.4-0.2-0.5c0-0.1,0.2-0.3,0.2-0.5
		c0.1-0.2,0-0.6,0-0.6s0.3-0.4,0.4-0.6c0.1-0.2,0.3-0.5,0.5-0.7c0.2-0.2,0.5-1.1,0.6-1.4c0.2-0.3,0.6-0.6,0.8-1
		c0.2-0.4,0.9-1.1,1.3-1.4c0.4-0.3,1.4-1,1.4-1s0,0.8,0.2,1.2c0.3,0.4,0.6-0.3,1.8-1.4c1.2-1.1,2-1.5,2-1.5s0.2,0.5,0.6,1
		c0.3,0.5,0.6,0,2-2.6c1.1-2.1,2.6-3.9,3.2-4.6c0.1,0.1,0.2,0.1,0.3,0.2c0,0.1-0.1,0.2-0.1,0.3c-0.1,0.5-0.3,0.9-0.6,1.6
		c-0.3,0.8-0.7,0.9-1.2,1.9c-0.5,1-0.6,1.7-0.6,2.7c0,1,0.4,1.3,0.4,1.3s-0.7,0.9-0.9,1.6c-0.2,0.7-0.3,2.1-0.3,2.1
		s-0.1,0.1-0.4,0.8c-0.3,0.7-0.7,0.8-1.4,1.7c-0.7,0.9-1.4,1.3-1.8,1.6c-0.4,0.3-0.3,0.6-0.2,0.9c0.1,0.4,0.6,0.7,1.1,1
		c0.6,0.3,0.8,0.2,1.1,0.2c0.4,0,0.1,0.4-0.1,0.6c-0.2,0.2-0.4,1-0.3,1.8c0,0.8,0.5,0.6,1.1,0.5c0.6-0.1,1.3-0.5,1.3-0.5
		s0,0-0.1,0.2c-0.1,0.2-0.1,0.4-0.1,1.1c0,0.7,0.1,1,0.2,1.2c0.1,0.2,0.4-0.2,0.6-0.3c0.2-0.1,0.6-0.4,1.1-0.5
		c0.5-0.2,0.7-0.5,0.7-0.5s-0.1,0.2-0.2,0.7c0,0.5,0,1.2,0.1,1.6c0.1,0.4,0.3,0.9,0.7,1.3c0.4,0.4,0.4,0.2,0.7-0.3
		c0.3-0.5,0.8-1.2,0.8-1.2s0,0.2,0.4,1.7c0.4,1.5,1.5,2.8,1.5,2.8s1.2-1.3,1.5-2.8c0.4-1.5,0.4-1.7,0.4-1.7s0.5,0.7,0.8,1.2
		c0.3,0.5,0.3,0.7,0.7,0.3c0.4-0.4,0.6-0.9,0.7-1.3c0.1-0.4,0.1-1.1,0.1-1.6c0-0.5-0.2-0.7-0.2-0.7s0.2,0.3,0.7,0.5
		c0.5,0.2,0.9,0.4,1.1,0.5c0.2,0.1,0.5,0.5,0.6,0.3c0.1-0.2,0.2-0.5,0.2-1.2c0-0.7,0-0.8-0.1-1.1c-0.1-0.2-0.1-0.2-0.1-0.2
		s0.7,0.4,1.3,0.5c0.6,0.1,1.1,0.3,1.1-0.5c0-0.8-0.2-1.6-0.3-1.8c-0.2-0.2-0.5-0.6-0.1-0.6c0.4,0,0.6,0.1,1.1-0.2
		c0.6-0.3,1.1-0.6,1.1-1c0.1-0.4,0.2-0.6-0.2-0.9c-0.4-0.3-1.1-0.7-1.8-1.6c-0.7-0.9-1.1-1-1.4-1.7c-0.3-0.7-0.4-0.8-0.4-0.8
		s-0.1-1.4-0.3-2.1c-0.2-0.7-0.9-1.6-0.9-1.6s0.4-0.2,0.4-1.3c0-1-0.1-1.7-0.6-2.7c-0.5-1-0.9-1.2-1.2-1.9c-0.3-0.8-0.5-1.1-0.6-1.6
		c0-0.1-0.1-0.2-0.1-0.3c0.1-0.1,0.3-0.2,0.4-0.2c0.6,0.7,2,2.6,3.2,4.6c1.4,2.6,1.7,3.2,2,2.6c0.3-0.5,0.6-1,0.6-1s0.9,0.4,2,1.5
		c1.2,1.1,1.5,1.8,1.8,1.4c0.1-0.2,0.2-0.5,0.2-0.8c0,0,0.7,0.3,1.4,0.6c0.5,0.2,1,0.5,1.3,0.7c1,0.6,1.1,0.9,1.9,1.7
		c0.8,0.8,1.9,0.8,3,0.3c1.1-0.4,3.9-1.7,5.1-2.4c1.1-0.7,2-1.2,2.1-1.5c0.1-0.3,0.3-1.2,0.3-1.5c0-0.3-0.3-0.8-0.3-0.8
		c-0.1-0.1,0-0.3,0-0.5c0-0.2,0-0.8-0.2-1c-0.2-0.3-0.2-0.4-0.1-1.1c0.1-1.6-0.8-3.6-2-4.2c0,0,0-0.2-0.1-0.3
		c-0.1-0.1-0.3-0.2-0.3-0.2s0-0.9,0-1.1c0-0.2,0.1-0.2,0.1-0.1c0.1,0.1,0.2,0.3,0.4,0.3c0.2,0.1,0.3-0.1,0.4-0.4
		c0-0.3,0.2-0.9,0.3-1.2c0.1-0.3,0-0.3-0.1-0.4c-0.1,0-0.4-0.1-0.5-0.1c-0.1,0-0.1-0.1-0.1-0.1c0-0.1,0.1-0.2,0.3-0.6
		c0.2-0.4,0-0.4-0.2-0.5c-0.2-0.1-0.9-0.4-1.1-0.4c-0.2,0-0.3,0.2-0.3,0.3c0,0.1,0,0.6,0,0.8c0,0.2-0.1,0.1-0.2,0.1
		c-0.1-0.1-0.3-0.2-0.4-0.4c-0.1-0.1-0.2,0-0.3,0.2c-0.1,0.2-0.2,1.1-0.3,1.4c-0.1,0.3,0,0.5,0,0.5c0.1,0,0.5,0,0.7,0
		c0.2,0,0.1,0.2,0.1,0.2s-0.2,0.5-0.3,0.7c-0.1,0.2-0.2,0.2-0.4,0.2c-0.2,0-0.5,0-0.5,0s-1.2,0.1-2.1,1c-0.9,0.9-1.2,1.6-1.3,2.1
		c-0.1,0.4-0.3,0.3-0.4,0.5c-0.1,0.2-0.5,0.7-0.5,1.1c0,0.3,0.1,0.5-0.3,0.9c-0.4,0.3-0.7,1.8-0.2,2.6c0.5,0.8,0.7,1.6,0.9,1.9
		c0.2,0.4,0,0.5-0.1,0.5c-0.1,0-0.4-0.3-0.7-0.6c-0.2-0.2-1.5-1.5-2-2.1c-0.5-0.5-0.1-0.5-0.1-0.5s0.1,0,0.4-0.2
		c0.3-0.2,0.4-0.4,0-0.5c-0.3-0.1-0.9-0.6-1.1-0.8c-0.2-0.2-0.2-0.5,0.1-0.7c0.3-0.2,1-0.8,0.5-1c-0.5-0.2-1.2-0.3-1.7-0.5
		c-0.5-0.2-0.6-0.4-0.6-0.4l0.3-0.7c0,0,0.3-0.5,0-0.6c-0.3-0.1-1.1-0.2-1.8-0.6c-1.4-0.8-2.3-2.2-2.7-3.9l0,0
		c0.3,0.7,0.9,2,1.8,2.1c1.3,0.1,1.4-0.5,1.1-1c-0.3-0.6-0.6-1.1-0.7-1.2c-0.1-0.2-0.1-0.4,0.2,0c0.3,0.4,1,1.8,2.9,1.7
		c1.9-0.2,1.9-0.7,1.9-0.8c0-0.5-0.4-0.6-0.6-0.9c-0.1-0.2-0.2-0.4,0.2-0.2c0.4,0.2,1.3,0.4,2.6,0.1c0.5-0.1,1.9-0.9,2-1.9
		c0,0-0.9-0.1-1.5-0.4c-0.6-0.3-1-0.6-0.3-0.5c0.6,0.2,1.9,0.5,3,0c0.6-0.3,1.5-1,1.5-2.2c0,0-1.2-0.3-1.6-0.5
		c-0.4-0.2-0.6-0.4-0.6-0.4s1.7,0.7,3.2-0.3c1.5-1,1.6-2.5,1.6-2.8c0-0.3,0-0.4,0-0.4s-1.4,0.5-2.4,0.4c-1,0-1.4-0.1-1.4-0.1
		s2.9-0.1,4.4-1.3c1.5-1.2,1.6-3.6,1.6-3.6s-1.7,0.8-2.7,1c-1,0.2-1.7,0.2-1.9,0.1c-0.3,0-0.4-0.1,0.2-0.2c0.6,0,2.8-0.5,4-1.5
		c1.2-1,2-3,2.1-4c0.1-1,0-0.8-0.6-0.3c-0.5,0.5-2.6,1.9-3.9,2.3c-1.3,0.4-1.6,0.4-1.6,0.4S136.3,74,137,73.8L137,73.8z M84.2,78.3
		c-0.1,0.1-0.6,0.5-0.6,0.5s-0.2-0.6-0.3-0.8c-0.1-0.2,0-0.3,0.1-0.3c0.1,0,0.3-0.1,0.5-0.1c0,0,0.1,0,0.1,0
		C84,77.7,84.1,78,84.2,78.3C84.2,78.3,84.2,78.3,84.2,78.3L84.2,78.3z M102.2,92.3c-0.4,0.9-1.3,1.8-2,2.2
		c-0.7,0.4-1.5,0.5-1.8,0.6c-0.3,0.1,0,0.6,0,0.6l0.3,0.7c0,0,0,0.2-0.6,0.4c-0.5,0.2-1.2,0.3-1.7,0.5c-0.5,0.2,0.1,0.8,0.5,1
		c0.3,0.2,0.2,0.5,0.1,0.7c-0.2,0.2-0.8,0.7-1.1,0.8c-0.3,0.1-0.3,0.3,0,0.5c0.3,0.2,1.2,0.4,1.2,0.4s0,0-0.5,0.6
		c-0.5,0.5-1.4,0.9-2,0.9c-0.6,0-1.6,0.1-2.8,0c-1.2-0.1-1.3-0.1-1.3-0.1s0-0.5-0.1-1.3c-0.1-0.8-0.4-1.9-0.7-2.4
		c-0.3-0.5-0.9-1.6-0.9-1.6s0-0.2,0.1-0.5c0-0.3,0-0.5-0.1-1c-0.1-0.5-0.8-1.2-0.8-1.2s0-0.5,0-1c0-0.5-0.3-2.4-0.5-3.3
		c-0.2-0.9-1.3-3.3-1.8-4.4c-0.5-1.1-0.8-2.8-1-4.1c-0.2-1.3-0.1-1.7,0-2.1c0-0.1,0.1-0.3,0.1-0.4c0.2,0.4,0.5,0.7,0.8,1
		c1.5,1.2,4.4,1.3,4.4,1.3s-0.3,0.1-1.4,0.1c-1,0-2.4-0.4-2.4-0.4s0,0.1,0,0.4c0,0.3,0.1,1.8,1.6,2.8c1.5,1,3.2,0.3,3.2,0.3
		s-0.1,0.2-0.6,0.4c-0.4,0.2-1.6,0.5-1.6,0.5c0,1.3,0.8,2,1.5,2.2c1.1,0.5,2.3,0.1,3,0c0.6-0.2,0.3,0.1-0.3,0.5
		c-0.6,0.3-1.5,0.4-1.5,0.4c0.1,0.9,1.5,1.7,2,1.9c1.3,0.4,2.3,0.1,2.6-0.1c0.4-0.2,0.3,0,0.2,0.2c-0.2,0.3-0.6,0.4-0.6,0.9
		c0,0.1,0,0.6,1.9,0.8c1.9,0.2,2.6-1.3,2.9-1.7c0.3-0.4,0.3-0.2,0.2,0c-0.1,0.2-0.4,0.7-0.7,1.2c-0.3,0.6-0.1,1.1,1.1,1
		c0.9,0,1.6-1.4,1.8-2.1l0,0c0,0,0,0.1,0.1,0.1C102.6,91.1,102.4,91.7,102.2,92.3L102.2,92.3z M117.8,36.7c-0.2-0.4-0.3-0.7-0.3-0.7
		s0.7,0.5,1.2,1.1c0.4,0.7,0.4,1,0.5,1.3c0.1,0.3,0,0.9-0.1,1.5c-0.1,0.6-0.1,0.9,0,1.1c0.1,0.2,0.2,0.3,0.2,0.3s-0.3,0.1-0.6,0.3
		c-0.3,0.2-0.7,0.3-0.9,0.1c-0.2-0.2-0.3-0.4-0.1-0.6c0.1-0.2,0.7-0.4,0.7-1.5C118.4,38.3,118,37.1,117.8,36.7L117.8,36.7z
		 M113.8,39.9c0.2-0.6,0.2-1.1,0.1-2.2c-0.1-1-0.2-1.8-0.3-2.8c0,0,0.5,0.2,1.3,1.1c0.8,0.9,0.9,1.9,0.9,2.4c0,0.5-0.2,1-0.2,1.5
		c0,0.5,0.1,0.9,0.1,0.9s-0.3,0.2-0.5,0.4c-0.3,0.2-0.4,0.4-0.8,0.4c-0.4,0-0.6-0.3-0.9-0.4c-0.2-0.2-0.4-0.2-0.4-0.2
		S113.6,40.4,113.8,39.9L113.8,39.9z M110,35.9c0.8-0.9,1.3-1.1,1.3-1.1c0,1-0.2,1.9-0.3,2.8c-0.1,1.1-0.1,1.7,0.1,2.2
		c0.2,0.6,0.6,0.9,0.6,0.9s-0.1,0-0.4,0.2c-0.2,0.2-0.5,0.4-0.8,0.4c-0.4,0-0.6-0.1-0.8-0.4c-0.3-0.2-0.5-0.4-0.5-0.4
		s0.1-0.4,0.1-0.9c0-0.5-0.2-1-0.2-1.5C109.1,37.8,109.3,36.8,110,35.9L110,35.9z M107.3,41.6c-0.2,0.2-0.6,0.1-0.9-0.1
		c-0.3-0.2-0.6-0.3-0.6-0.3s0.1-0.1,0.2-0.3c0.1-0.2,0.1-0.5,0-1.1c-0.1-0.6-0.1-1.1-0.1-1.5c0.1-0.3,0.1-0.7,0.5-1.3
		c0.4-0.7,1.2-1.1,1.2-1.1s-0.1,0.2-0.3,0.7c-0.2,0.4-0.6,1.6-0.5,2.8c0.1,1.2,0.6,1.4,0.7,1.5C107.5,41.2,107.5,41.4,107.3,41.6
		L107.3,41.6z M117.5,51.5c-0.8,0.6-1.2,0.4-1.2,0.8c0,0.4,0.7,0.7,0.7,0.7s-0.7,1-1.2,1.5c-0.5,0.5-1.2,0.7-1.2,0.7s-0.2,0-0.1,0.5
		c0.1,0.5,0.3,0.8,0.5,0.9c0.2,0.1,0.3,0.2,0.3,0.2s-0.9,1.3-1.4,1.8c-0.4,0.4-0.7,0.6-1,0.8c-0.3,0.2-0.2,0.9-0.1,1.3
		c0.1,0.3,0.4,0.8,0.5,0.8c0.2,0.1,0.2,0.2,0,0.7c-0.2,0.3-0.7,1.2-1,1.7l0,0c-0.3-0.5-0.8-1.4-1-1.8c-0.2-0.5-0.2-0.6,0-0.7
		c0.2-0.1,0.5-0.5,0.5-0.8c0.1-0.3,0.2-1.1-0.1-1.3c-0.3-0.2-0.6-0.3-1-0.8c-0.4-0.4-1.4-1.8-1.4-1.8s0.1,0,0.3-0.2
		c0.2-0.1,0.4-0.4,0.5-0.9c0.1-0.5-0.1-0.5-0.1-0.5s-0.6-0.3-1.2-0.7c-0.5-0.5-1.2-1.5-1.2-1.5s0.7-0.3,0.7-0.7
		c0-0.4-0.4-0.3-1.2-0.8c-0.8-0.6-1-1.3-1-1.3s0.9-0.4,1.3-1.6c0.2-0.4,0.2-0.8,0.2-1.1l0,0c1.4,0.6,3.1,0.9,4.5,0.9
		c1.5,0,3.1-0.2,4.5-0.9l0,0c0,0.3,0,0.7,0.2,1.1c0.4,1.2,1.3,1.6,1.3,1.6S118.3,50.9,117.5,51.5L117.5,51.5z"/>
	<path id="_x32_52" class="st3" d="M122.2,74.3c0-3.2,1.1-5.2,1.1-5.2l-3-4.6c-2.8,1.5-5.4,1.6-7.8,0c-2.3,1.6-4.9,1.5-7.8,0l-3,4.6
		c0,0,1.1,2,1.1,5.2c0,3.2-0.5,5.5-0.7,7.1c-0.3,1.5-0.5,4.4,0.1,6.5c0.6,2.1,1.3,3.8,3.9,5.3c2.7,1.5,4,2.3,5,3.3
		c0.9,1,1.4,1.8,1.4,1.8s0.5-0.8,1.4-1.8c0.9-1,2.3-1.8,5-3.3c2.7-1.5,3.3-3.3,3.9-5.3c0.6-2.1,0.4-4.9,0.1-6.5
		C122.6,79.8,122.2,77.5,122.2,74.3L122.2,74.3z"/>
	<path id="_x32_51" class="st2" d="M121.2,75.6c-0.4-3,0.9-5.7,0.9-5.7l-2.6-4c-2,1.5-4.7,1.3-7.1-0.2c-2.4,1.5-5.1,1.7-7.1,0.2
		l-2.6,4c0,0,1.3,2.7,0.9,5.7c-0.4,3-1.2,7.8-1,9.8c0.2,2,1.2,4.2,2.3,5.4c1.1,1.2,2.7,2.2,3.8,2.7c1.1,0.5,2.2,1.6,2.7,2.1
		c0.5,0.5,0.9,1,0.9,1s0.3-0.5,0.9-1c0.5-0.5,1.6-1.6,2.7-2.1c1.1-0.5,2.7-1.5,3.8-2.7c1.1-1.2,2.1-3.5,2.3-5.4
		C122.4,83.4,121.6,78.6,121.2,75.6L121.2,75.6z"/>
	<path id="_x32_50" class="st4" d="M121,76c-0.4-3.3,0.7-5.9,0.7-5.9l-2.3-3.4c-2,1.3-4.3,1-6.9-0.2c-2.6,1.2-5,1.5-6.9,0.2
		l-2.3,3.4c0,0,1.1,2.6,0.7,5.9c-0.4,3.3-0.9,7-0.8,9.2c0,0.1,0,0.3,0,0.5h2.1c0,0,0.1-0.2,0.4-0.3c0.2-0.1,0.3-0.2,0.3-0.2
		s0-0.6,0.3-0.7c0.3-0.1,0.4-0.1,0.5-0.1c0.1,0,0.2,0,0.3-0.2c0.1-0.2,0.5-0.6,0.6-1.1c0.1-0.6,0.2-0.8,0.2-1.2c0-0.4,0.1-1,0.1-1
		s-0.1-0.2-0.3-0.1c-0.2,0.1-0.2-0.2-0.3-0.5c0-0.3,0-0.9,0.1-1.1c0.1-0.3,0.2-0.4,0.2-0.4l-0.1-0.4c0,0-1.3,0.4-1.6-1
		c-0.2-1.4-0.3-2.1-0.3-2.2c0-0.1-0.1-0.2-0.2-0.2c-0.2,0-0.6-0.1-0.8-0.9c-0.3-0.7-0.3-1-0.2-1.3c0.1-0.3,0.2-0.2,0.3-0.1
		c0,0.1,0.4,0.8,0.5,0.6c0.1-0.2,0.1-0.2-0.1-0.7c-0.2-0.5-0.1-0.7-0.1-1c0-0.3-0.1-0.6-0.1-0.8c0-0.1,0.1-0.3,0.2-0.2
		c0.1,0.1,0.2,0.2,0.3,0.3c0.1,0.1,0.1,0.2,0.2,0.1c0.1-0.1,0-0.6,0-0.7c0-0.2,0.1-0.3,0.3-0.1c0.2,0.1,0.3,0.4,0.3,0.6
		c0,0.2,0,0.3,0.1,0.3c0.1,0,0.1-0.3,0.2-0.4c0-0.2,0.1-0.4,0.2-0.2c0.1,0.2,0.2,0.6,0.1,0.9c0,0.3,0,0.2,0,0.8
		c-0.1,0.6-0.1,0.9-0.1,1.3c0,0.4,0,0.7,0.2,1.3c0.2,0.6,0.3,1.2,0.6,1.2c0.3,0,0.4,0,0.4,0s0.3-0.9,0.6-1.1
		c0.3-0.2,0.6-0.2,0.9-0.3c0.3,0,0.4-0.1,0.4-0.2c0-0.1-0.1-0.1-0.4-0.2c-0.3-0.1-0.6-0.2-0.6-0.5c0-0.3,0.1-0.6-0.2-0.6
		c-0.2,0-0.7-0.2-0.9-0.7c-0.2-0.5-0.1-0.6-0.1-0.8c0-0.3,0.3-0.8,0.4-0.3c0.2,0.5,0.3,0.5,0.4,0.6c0.1,0.1,0.3,0.1,0.2-0.2
		c-0.1-0.3-0.1-0.5-0.1-0.8c0-0.2,0.1-0.3,0.3-0.4c0.1,0,0.6-0.2,0.8-0.3c0.2-0.1,0.2-0.1,0.2-0.1s0-0.2,0.3-0.3
		c0.3-0.1,0.5-0.1,0.7-0.1c0.2,0,0.4,0,0.6-0.1c0.3-0.2,0.5-0.2,0.7-0.2c0.2,0,0.3,0.1,0.4,0.2c0.1,0.1,0.1,0.3,0.1,0.4
		c0,0.2,0,0.3,0.2,0.3c0.2,0,0.4,0,0.5,0.1c0.2,0.1,0.4,0.2,0.3,0.5c-0.2,0.3-0.2,0.5-0.3,0.5c-0.1,0-0.1,0.1-0.1,0.2
		c0,0.1-0.1,0.2,0,0.3c0.1,0.1,0.1,0.2,0.3,0.4c0.2,0.2,0.4,0.4,0.2,0.7c-0.2,0.3-0.6,0.6-0.6,0.6s-0.2,0.1,0,0.4
		c0.3,0.2,0.4,0.6,0.5,0.7c0.1,0.1,0.2,0.2,0.3,0.2c0.1,0,0.1,0.3,0.1,0.3s-0.1,0.1-0.3,0.2c-0.2,0.1-0.4,0.2-0.6,0.2
		c-0.2,0-0.3,0-0.2,0.2c0.1,0.2,0.2,0.5,0.2,0.6c0,0.1,0.1,0.4,0.1,0.4s0.3,0.1,0.6,0.1c0.3,0,0.4,0,1-0.1c0.6-0.1,0.8-0.1,1.4,0
		c0.6,0.1,0.7,0.1,0.8,0.1c0.2,0.1,0.3,0.2,0.3,0.2s0.8,0,1.3-0.1c0.5-0.1,0.6-0.5,0.5-0.7c-0.1-0.2-0.1-0.5-0.9-0.7
		c-0.8-0.1-1.1-0.1-1.8-0.3c-0.6-0.2-1.6-0.6-1.8-1.7c-0.2-1.1,0.5-1.5,0.8-1.7c0.3-0.2,1-0.5,1.3-0.7c0.3-0.2,0.9-0.4,1.5-0.2
		c0.6,0.1,1,0.3,1.2,0.1c0.2-0.2,0.4,0,0.4,0.3c0,0.3-0.3,0.9-1,1.2c-0.7,0.3-1.5,0.3-2,0.1c-0.5-0.2-0.8-0.4-1.1-0.3
		s-0.6,0.6-0.3,1.1c0.3,0.6,1.8,0.7,2.2,0.8c0.4,0.1,1.9-0.1,2.4,0.9c0.4,1,0.1,2.1-0.4,2.4c-0.5,0.3-0.9,0.4-1.3,0.5
		c-0.4,0.1-0.4,0.1-0.4,0.1s0.2,0.5,0.2,0.8c0,0.2,0,0.6,0.2,0.8c0.2,0.2,0.5,0.3,0.8,0.2c0.3,0,0.7,0.3,0.7,0.6
		c0,0.4,0.1,0.9,0.1,1.7c0,0.8,0,1.4,0,1.4s0,0.3-0.1,0.6c-0.1,0.3-0.5,1.4-0.5,1.4h2.2c0-0.2,0-0.3,0-0.5
		C121.9,82.9,121.3,79.2,121,76L121,76z"/>
	<path id="_x32_49" class="st5" d="M103.5,87.1c0.4,1.7,1.3,3.4,2.7,4.5c1.9,1.5,2.7,1.3,4.6,2.9c1.8,1.6,1.7,1.8,1.7,1.8
		c0,0-0.1-0.3,1.7-1.8c1.8-1.6,2.6-1.4,4.5-2.9c1.4-1.1,2.3-2.8,2.7-4.5H103.5L103.5,87.1z"/>
	<path id="_x32_48" class="st3" d="M105.1,74.1c0.2,0.3,0.4,0.4,0.7,0.3c0.3,0,0.4,0.3,0.4,0.6c0.1,0.3,0.1,1.1,0.3,1.8
		c0.2,0.7,1,0.8,1,0.8c0-0.3,0.1-0.8,0.2-1.2c0-0.1,0.1-0.4-0.2-0.4c-0.3,0-0.3-0.1-0.4-0.5c-0.2-0.3-0.5-1.3-0.6-1.9
		c-0.1-0.6,0.1-1.5,0.1-1.8c0.1-0.3,0.1-0.5,0-0.6c-0.1-0.1-0.3,0-0.3,0s0.1,0.3,0,0.3c-0.1,0-0.1-0.1-0.2-0.3
		c-0.1-0.2-0.1-0.2-0.2-0.2c-0.1,0-0.1,0.1,0,0.3c0.1,0.1,0,0.4,0,0.4s-0.2-0.2-0.3-0.3c-0.1-0.1-0.3,0.1-0.3,0.2
		c0,0.2,0.1,0.6,0.3,0.9c0.2,0.2,0.2,0.7,0.1,0.9c-0.1,0.2-0.4,0.2-0.4,0.1c-0.1-0.1-0.2-0.1-0.3,0C105,73.8,104.9,73.8,105.1,74.1
		L105.1,74.1z"/>
	<path id="_x32_47" class="st3" d="M105,73.4c0,0-0.1-0.1-0.2-0.2c0-0.1-0.1-0.2-0.1-0.2s0,0.1,0,0.2c0,0.2,0.1,0.4,0.1,0.4
		L105,73.4L105,73.4z"/>
	<path id="_x32_46" class="st3" d="M105.4,71.4c0.1-0.1,0.2-0.1,0.1-0.2c-0.1-0.1-0.1-0.3-0.2-0.3c-0.1,0-0.1,0-0.1,0
		s0.1,0.3,0.1,0.4C105.3,71.4,105.3,71.4,105.4,71.4L105.4,71.4z"/>
	<path id="_x32_45" class="st3" d="M106,70.7c0,0.1,0,0.2,0.1,0.1c0.1-0.1,0.1-0.2,0.1-0.3c0-0.1-0.1-0.2-0.1-0.2l-0.1-0.1
		C105.9,70.3,106,70.6,106,70.7L106,70.7z"/>
	<path id="_x32_44" class="st3" d="M106.8,70.9c0-0.1,0-0.3,0-0.3S106.8,70.8,106.8,70.9c-0.1,0.1-0.1,0-0.1,0.1
		C106.8,71.1,106.8,71.1,106.8,70.9L106.8,70.9z"/>
	<path id="_x32_43" class="st3" d="M108.1,78.3c0.2,0.5,0.6-0.3,0.9-0.9c0.4-0.6,0.4-0.1,0.3,0.4c0,0.5,0.1,1.1,0.2,1.4
		c0.1,0.3,0.3,0.1,0.3-0.1c0.1-0.2,0.1-0.8,0.2-1c0.1-0.2,0.2,0,0.3,0.2c0,0.2,0.2,0.7,0.4,1c0.2,0.3,0.3-0.1,0.3-0.4
		c0.1-0.3,0.1-0.9,0.2-1.1c0-0.2,0.2,0,0.2,0s0.1,0.2,0.4,0.5c0.2,0.3,0.3-0.2,0.3-0.4c0-0.2,0-0.8,0-0.9c0.1-0.1,0.3,0.1,0.6,0.3
		c0.3,0.2,0.3-0.2,0.3-0.4c0-0.2-0.2-0.8-0.5-1c-0.3-0.3-0.3-0.6-0.2-0.8c0.1-0.1,0.4,0,0.6,0c0.2,0,0.3-0.1,0.4-0.1
		c0.1,0,0.1-0.2,0.1-0.2s-0.1-0.2-0.3-0.5c-0.2-0.2-0.3-0.4-0.6-0.5c-0.3-0.1-0.6,0-0.6,0s0,0,0-0.1c0-0.1-0.1-0.1-0.2,0
		c0,0.1-0.2,0.2-0.3,0.3c-0.1,0.1-0.2,0.2-0.2,0.1c-0.1,0,0-0.2,0-0.2s0.1-0.1,0.3-0.5c0.1-0.3,0.2-0.6,0.1-0.8
		c-0.1-0.1-0.4,0-0.5,0c-0.1,0-0.2,0-0.2-0.1c0-0.1,0.1,0,0.3-0.1c0.2,0,0.3-0.3,0.4-0.6c0.1-0.2,0.1-0.2,0.2-0.1
		c0.1,0.1,0.2,0.1,0.2,0c0-0.1,0.1-0.3,0.2-0.6c0.1-0.2,0.2-0.6,0.1-0.8c-0.1-0.2-0.5-0.2-0.6,0c-0.1,0.1-0.2,0.3-0.3,0.7
		c0,0.4-0.1,0.2-0.1,0c0-0.1-0.1-0.3-0.1-0.4c0-0.1,0-0.3,0-0.3s0-0.3-0.3-0.4c-0.3-0.1-0.6,0-0.8,0.1c-0.3,0.1-0.2,0.4-0.2,0.4
		s-0.2,0-0.4,0c-0.2,0-0.5,0.1-0.6,0.2c-0.2,0.1-0.3,0.1-0.3,0.2c0,0.1,0,0.3,0,0.3s0.2,0,0.2,0.1c0.1,0.1,0,0.2-0.1,0.2
		c-0.1,0-0.1,0.1-0.1,0.2c0,0.2,0,0.2,0.1,0.2c0.1,0,0.3,0,0.6,0.1c0.2,0.1,0.3,0.4,0.3,0.6c0,0.2-0.4,0.4-0.5,0.4
		c-0.2,0-0.2,0-0.2,0.2c0,0.1,0.2,0.1,0.2,0.1s0.2,0,0.6,0.1c0.4,0.1,0.5,0.2,0.7,0.4c0.2,0.2,0,0.3,0,0.3c-0.1,0.1-0.2,0.2-0.4,0.3
		c-0.1,0.1-0.2,0.2-0.3,0.2c-0.1,0-0.4,0-1,0.3c-0.6,0.3-0.8,1.3-0.8,1.3s0.1,0,0.3-0.2c0.3-0.2,0.6-0.4,0.9-0.6
		c0.3-0.2,0.3,0.1,0.1,0.5c-0.1,0.3,0.1,0.3,0.2,0.2c0.1-0.1,0.2-0.2,0.5-0.4c0.3-0.2,0.2,0.1,0.2,0.1s-0.1,0.2-0.1,0.8
		c0,0.5,0.4,0,0.6-0.3c0.2-0.3,0.3,0,0.1,0.4c-0.1,0.4-0.4,0.7-0.6,0.7c-0.2,0-0.3-0.2-0.3-0.4c0-0.1,0-0.5,0-0.6
		c-0.1-0.1-0.4,0-0.6,0.2c-0.2,0.2-0.3,0-0.3-0.1c0-0.1,0.1-0.2,0-0.3c0-0.1-0.2,0-0.2,0c-0.1,0-0.3,0.2-0.7,0.5
		c-0.4,0.3-0.4,0.4-0.4,0.8C107.8,77.7,107.9,77.8,108.1,78.3L108.1,78.3z"/>
	<path id="_x32_42" class="st3" d="M111.7,70c0.1-0.1,0.2-0.1,0.2-0.1s0.2-0.1,0.3-0.1c0.2,0,0.1-0.2,0.1-0.3c0-0.1-0.1-0.1-0.3-0.1
		c-0.2,0-0.4,0.1-0.5,0.2c-0.1,0.1-0.3,0.1-0.3,0.1s0,0,0.1,0.2C111.5,70.1,111.7,70.1,111.7,70L111.7,70z"/>
	<path id="_x32_41" class="st3" d="M112.6,71.2c0.1,0,0.2-0.1,0.2-0.1s0.2-0.1,0.3-0.2c0.1-0.1,0.2-0.1,0.3-0.3
		c0.1-0.2-0.1-0.2-0.3-0.3c-0.3-0.1-0.4,0-0.4,0.2c0,0.1,0,0.3-0.1,0.5C112.4,71.2,112.5,71.2,112.6,71.2L112.6,71.2z"/>
	<path id="_x32_40" class="st3" d="M112.5,71.5c-0.2,0-0.5,0.5-0.6,0.6c-0.1,0.1,0,0.2,0,0.2s0.1,0.2,0.1,0.4c0,0.2,0,0.5,0,0.5
		s0,0,0.2,0c0.1,0,0.2-0.1,0.4-0.2c0.1-0.1,0.2-0.2,0.4-0.2c0.2,0,0.3-0.1,0.5-0.3c0.2-0.2-0.1-0.4-0.3-0.7
		C112.9,71.6,112.8,71.5,112.5,71.5L112.5,71.5z"/>
	<path id="_x32_39" class="st3" d="M109.3,72.7c0.2,0,0.3-0.2,0.3-0.3c0-0.1-0.1-0.3-0.3-0.3c-0.6,0.1-1.2-0.2-1.3-1
		c0,0-0.2,0.5,0.2,1.1C108.4,72.7,109.1,72.7,109.3,72.7L109.3,72.7z"/>
	<path id="_x32_38" class="st3" d="M107.2,85.5c0,0.1,0.1,0.1,0.1,0.1h0.9c0.2-0.1,0.2-0.3,0.2-0.4c0-0.2,0.1-0.6,0.2-1.4
		c0.1-0.8,0.4-1.4,0.4-1.8c0.1-0.3-0.1-0.4-0.2-0.7c-0.1-0.2-0.2-0.6-0.2-0.8c0-0.2-0.2-0.2-0.4-0.1c-0.1,0-0.1,0.3-0.2,0.5
		c0,0.2-0.1,1-0.2,1.6c-0.1,0.6-0.6,1.5-0.8,1.7c-0.1,0.2-0.3,0.3-0.4,0.3c-0.1,0-0.3,0-0.4,0.1c-0.1,0.1-0.2,0.3-0.2,0.5
		c0,0.2,0.2,0.3,0.2,0.3s0.2-0.1,0.2-0.2c0.1-0.1,0.2-0.1,0.4-0.2c0.1,0,0.2,0,0.1,0.1C107.1,85.2,107.1,85.2,107.2,85.5L107.2,85.5
		z"/>
	<path id="_x32_37" class="st3" d="M105.8,85.4c-0.1,0-0.1,0.1-0.2,0.2h0.6c0-0.1,0-0.1-0.1-0.2C106.1,85.3,105.9,85.3,105.8,85.4z"
		/>
	<path id="_x32_36" class="st3" d="M106.6,85.4c-0.1,0.1-0.2,0.1-0.2,0.2h0.7c0-0.1,0-0.2,0-0.3C106.8,85.2,106.7,85.3,106.6,85.4
		L106.6,85.4z"/>
	<path id="_x32_35" class="st3" d="M112.3,85c-0.1,0-0.1,0.1-0.2,0.2c-0.1,0.1-0.1,0.2-0.2,0.4c0,0,0,0,0,0.1h0.3c0,0,0,0,0-0.1
		c0-0.1,0-0.2,0.2-0.3C112.5,85.1,112.4,85,112.3,85L112.3,85z"/>
	<path id="_x32_34" class="st3" d="M112.8,85.4c0-0.1,0-0.2-0.1-0.2c-0.1,0-0.2,0.2-0.3,0.2c0,0-0.1,0.1-0.1,0.2h0.4
		C112.8,85.5,112.8,85.5,112.8,85.4L112.8,85.4z"/>
	<path id="_x32_33" class="st3" d="M115.4,81.4c0.2-0.2,0.2-0.2,0.2-0.4c0-0.2,0-0.3-0.1-0.3c-0.1-0.1-0.4-0.2-0.7-0.2
		c-0.3,0-0.8,0.1-1,0.3c-0.2,0.2-0.3,0.8-0.3,1.2c0,0.3,0,0.4,0.1,0.4c0.1,0,0.2-0.2,0.2-0.2s0.3,0.5,0.4,0.8c0.2,0.3,0.1,0.4,0,0.7
		c-0.1,0.2-0.3,0.9-0.5,1c-0.2,0.1-0.4,0-0.6,0c-0.2-0.1-0.4,0-0.5,0.2c-0.1,0.2,0,0.3,0.1,0.3c0.1,0,0.2,0,0.3,0.1
		c0.1,0.1,0,0.4,0,0.5h1.2c0.2-0.1,0.4-0.5,0.4-0.7c0.1-0.2,0.3-0.5,0.5-0.7c0.1-0.2,0.1-0.3,0.1-0.6c0-0.4-0.1-0.6-0.2-0.8
		c-0.1-0.2-0.2-0.6-0.1-0.8C114.9,81.8,115.2,81.5,115.4,81.4L115.4,81.4z"/>
	<path id="_x32_32" class="st3" d="M113.4,77.3c0.1,0.3,0.1,0.3-0.1,0.4c-0.2,0.1-0.4,0.1-0.6,0.1c-0.3,0-0.3,0-0.3,0.2
		c0,0.2,0,0.6-0.2,0.8c-0.2,0.3-0.4,0.2-0.5,0.1c-0.1-0.1-0.2-0.1-0.2,0.1c0,0.2-0.1,0.3-0.3,0.6c-0.1,0.3-0.2,0.3-0.3,0.3
		c-0.1,0-0.2-0.2-0.3-0.2c-0.1,0-0.2-0.3-0.4-0.5c-0.1-0.3-0.2,0-0.3,0.3c-0.1,0.3-0.2,0.4-0.4,0.4c-0.2,0-0.4-0.5-0.5-0.7
		c-0.1-0.3-0.2-0.5-0.3-0.5c-0.2,0-0.4,0.4-0.6,0.5c-0.2,0.1-0.2,0.1-0.3-0.1c-0.1-0.1-0.2,0.1-0.3,0.4c-0.1,0.3,0,0.6,0.1,0.7
		c0.1,0.1,0.4-0.2,0.6-0.3c0.2-0.2,0.3-0.1,0.5-0.1c0.2,0,0.2,0.4,0.3,1c0.1,0.6,0.3,0.7,0.3,0.7s0.1,0.1,0.3-0.4
		c0.2-0.5,0.2-0.9,0.4-0.9c0.2,0,0.2,0.1,0.4,0.4c0.2,0.4,0.4,0.6,0.5,0.4c0.1-0.3,0.2-0.7,0.3-0.8c0.1-0.1,0.2-0.2,0.1,0.1
		c-0.1,0.3-0.2,0.5,0.1,0.4c0.3-0.1,1.3-0.7,1.8-0.8c0,0,0.5-0.1,1.1-0.2c0.6,0,0.7-0.1,1-0.1c0.2,0,0.2,0,0.3-0.2
		c0-0.2-0.1-0.2-0.5-0.2c-0.4,0-0.7,0.1-1,0.1c-0.3,0.1-0.4,0-0.4-0.1c0.1-0.1,0.1-0.2,0.5-0.2c0.3-0.1,1-0.1,1.4-0.1
		c0.4,0,0.3,0.1,0.2,0.5c0,0.3,0,0.8,0.1,1.1c0,0.3,0,0.4,0.2,0.8c0.2,0.4,0.9,0.7,1.1,0.8c0.2,0.1,0.2,0,0.2-0.3
		c0-0.3,0.2-0.2,0.3-0.1c0.2,0.1,0.5,0.2,0.7,0.3c0.2,0.1,0.2,0.1,0.2,0.3c0,0.1,0,0.5,0,0.7c0,0.3,0,0.4-0.1,0.6
		c-0.1,0.2-0.5,0.7-0.5,0.7s-0.2,0-0.5,0.1c-0.4,0.1-0.5,0.4-0.5,0.6c0,0.2,0.1,0.3,0.1,0.3c0,0,0,0.2,0,0.2h0.1
		c0-0.1,0.1-0.2,0.1-0.3c0.1-0.2,0.5-0.3,0.7-0.1c0.1,0.1,0.1,0.3,0.1,0.4h0.8c0.1-0.3,0.4-1,0.5-1.2c0.1-0.3,0.1-0.4,0.2-0.8
		c0-0.4,0-1.8,0-1.9c-0.1-0.1,0-0.3,0-0.7c0-0.4,0-0.7-0.6-0.8c-0.6-0.1-0.7-0.4-0.9-0.6c-0.2-0.3-0.1-0.8-0.3-1.5
		c-0.2-0.7-0.5-0.8-1.2-1c-0.7-0.2-1.1-0.2-1.6-0.1c-0.5,0.1-1.1,0.2-1.4,0.1C113.2,76.9,113.3,77,113.4,77.3L113.4,77.3z"/>
	<path id="_x32_31" class="st3" d="M116.6,85.4c-0.1,0-0.1,0.1-0.1,0.2h0.6c0-0.1,0-0.1-0.1-0.2C116.9,85.2,116.7,85.3,116.6,85.4
		L116.6,85.4z"/>
	<path id="_x32_30" class="st3" d="M117.6,85.4c-0.1,0.1-0.2,0.1-0.2,0.2h0.6c0,0,0-0.1,0-0.1C118,85.4,117.8,85.3,117.6,85.4
		L117.6,85.4z"/>
	<path id="_x32_29" class="st3" d="M103.3,85.9c0,0.2,0.1,0.5,0.1,0.7h18.2c0.1-0.2,0.1-0.5,0.1-0.7H103.3L103.3,85.9z"/>
	<path id="_x32_28" class="st3" d="M115.5,74.3c0.6,0.5,2.4,0.5,3.3,0.8c0.9,0.2,0.8,1.1,0.5,1.6c-0.3,0.5-1.5,0.5-1.7,0.6
		c0.1,0.1,0.3,0.4,0.3,0.4s0.1,0,0.5-0.1c0.4,0,1-0.2,1.4-0.6c0.4-0.5,0.4-1.3,0-1.8c-0.4-0.5-1-0.6-1.7-0.7
		c-0.6-0.1-1.1-0.2-1.9-0.3c-0.7-0.2-1.1-0.6-1.1-1.1c0-0.6,0.4-0.9,0.7-1c0.3-0.1,0.7-0.3,1.1-0.1c0.4,0.2,0.9,0.2,1.7,0.1
		c0.8-0.1,1-0.9,1-0.9s-0.1,0.1-0.5,0.1c-0.4,0-0.7-0.2-1.4-0.2c-0.7,0-1,0.3-1.3,0.5c-0.3,0.2-1.3,0.3-1.5,1.1
		C114.7,73.4,115,73.8,115.5,74.3L115.5,74.3z"/>
	<path id="_x32_27" class="st2" d="M110.8,70.2c0.2,0,0.3,0.2,0.3,0.5c0,0.2-0.2,0.5-0.3,0.5c-0.2,0-0.3-0.2-0.3-0.5
		C110.4,70.4,110.6,70.2,110.8,70.2z"/>
	<path id="_x32_26" class="st2" d="M118.1,71.4c-0.5-0.1-1,0.1-1,0.1s0.1,0.1,0.3,0.1c0.2,0,0.4,0,0.9,0.1c0.4,0.1,0.8-0.2,0.8-0.2
		S118.6,71.4,118.1,71.4L118.1,71.4z"/>
	<path id="_x32_25" class="st4" d="M113.8,82.7c-0.1-0.2-0.1-0.2-0.3-0.1c-0.1,0.1-0.3-0.4-0.3-0.7c0-0.3,0.1-1.3,0.1-1.3
		s-0.6,0.2-1,0.3c-0.3,0.1-0.7,0.2-0.9,0.3c-0.3,0.1-0.4,0.2-0.6,0.1c-0.1,0-0.4-0.1-0.7-0.1c-0.2,0-0.2,0.1-0.5,0.4
		c-0.2,0.3-0.3,0.5-0.5,1.1c-0.2,0.6-0.3,1.1-0.3,1.9c0,0.5-0.1,0.8-0.2,1h2.9c0-0.1,0.1-0.3,0.1-0.4c0.1-0.2,0.2-0.4,0.3-0.4
		c0.1-0.1,0.2-0.1,0.3-0.2c0.1-0.2,0.2-0.3,0.3-0.4c0.1-0.1,0.4,0,0.7,0c0.2,0.1,0.3-0.1,0.4-0.2c0.1-0.1,0.1-0.3,0.2-0.5
		c0.1-0.2,0-0.4,0-0.4S113.9,82.9,113.8,82.7L113.8,82.7z"/>
	<path id="_x32_24" class="st4" d="M118.4,82.8c0-0.2,0-0.2-0.1-0.3c-0.1,0-0.3-0.1-0.4-0.1c-0.1-0.1-0.1,0.4-0.1,0.4s-0.3,0-0.7,0
		c-0.4-0.1-0.8-0.5-1-0.7c-0.2-0.1-0.3-0.5-0.3-0.5s-0.1,0.1-0.2,0.2c-0.1,0.1-0.2,0.4-0.2,0.7c0,0.3,0.3,0.7,0.3,1
		c0,0.3-0.3,1-0.4,1.2c-0.1,0.2-0.2,0.6-0.3,0.8h1.4c0-0.1,0.1-0.2,0.1-0.3c0.1-0.2,0.4-0.2,0.4-0.2s0-0.1,0.1-0.2
		c0.1-0.2,0.2-0.4,0.5-0.5c0.3-0.2,0.8-0.2,0.8-0.2s0.2-0.2,0.3-0.4C118.5,83.4,118.4,83,118.4,82.8L118.4,82.8z"/>
	<path id="_x32_23" class="st3" d="M106.9,103c0.3,0.1,0.7-0.1,1-0.5c0.2-0.4,0.3-1,0.5-1.3c0.2-0.3,0.3-0.6,0.3-0.6s0,0.6-0.3,1.3
		c-0.2,0.7-0.3,1.7-0.2,2.1c0.1,0.8,0.5,1,0.8,0.9c0.2-0.1,0.5-0.5,0.7-1c0.1-0.2,0.1-0.4,0.2-0.6c0.2-0.4,0.3-1.1,0.4-1.1
		c0.2,0,0.1,0.5,0,0.8c-0.1,0.6-0.4,1.6-0.4,2.1c0,0.6,0,1.6,0.5,1.6c0.4,0,0.6-0.5,0.9-1.6c0.2-1.2,0.3-1.5,0.4-1.5
		c0.1,0,0.1,0.8,0.1,1.1c0,0.1,0,0.4,0,0.8c0.1,0.6,0.2,1.4,0.3,1.5c0.2,0.3,0.4,0.2,0.4,0.2s0.2,0,0.4-0.2c0.2-0.3,0.4-2,0.4-2.3
		c0-0.3,0-1.1,0.1-1.1c0.1,0,0.2,0.4,0.4,1.5c0.2,1.2,0.5,1.7,0.9,1.6c0.4,0,0.5-1.1,0.5-1.6c0-0.6-0.3-1.5-0.4-2.1
		c-0.1-0.6,0.1-0.6,0.4,0.2c0.1,0.3,0.2,0.6,0.3,0.8c0.2,0.5,0.4,0.8,0.6,0.9c0.2,0.1,0.6,0,0.8-0.9c0.1-0.8-0.4-3.3-0.4-3.3
		s0,0.1,0.2,0.4c0.2,0.3,0.3,0.9,0.5,1.3c0.2,0.4,0.7,0.6,1,0.5c0.3-0.1,0.3-0.8,0.1-1.9c-0.2-1.1-1-1.8-1.5-2.7
		c-0.5-0.8-0.9-2.3-0.9-2.5c-0.7,0.5-1.3,1-1.8,1.7c-1.1,1.6-1.4,2-1.4,2s-0.2-0.4-1.4-2c-0.5-0.8-1.2-1.3-1.9-1.7
		c-0.1,0.2-0.5,1.6-1,2.5c-0.3,0.4-0.6,0.7-0.8,1.1c-0.3,0.5-0.5,1-0.6,1.6C106.6,102.3,106.7,102.9,106.9,103L106.9,103z"/>
	<path id="_x32_22" class="st3" d="M106.9,106.9c0.3-0.4,0.5-0.6,0.5-0.6s0.2-0.3,0.2,0.2c-0.1,0.5-0.2,1.6-0.1,2
		c0.1,0.5,0.1,0.8,0.5,0.5c0.4-0.3,0.5-0.5,0.7-0.8c0.2-0.3,0.4-0.4,0.4,0c-0.1,0.4-0.2,1.1-0.1,2c0.1,0.9,0.4,1,0.8,0.3
		c0.4-0.8,0.7-1.5,0.8-1.8c0.1-0.4,0.4-0.7,0.4,0c0,1.5,0.3,3.7,1.5,4.3c1.2-0.6,1.5-2.8,1.5-4.3c0-0.7,0.3-0.4,0.4,0
		c0.1,0.4,0.4,1.1,0.8,1.8c0.4,0.8,0.8,0.6,0.8-0.3c0.1-0.9-0.1-1.6-0.1-2c-0.1-0.4,0.2-0.3,0.4,0c0.2,0.3,0.3,0.5,0.7,0.8
		c0.4,0.3,0.5-0.1,0.5-0.5c0.1-0.5-0.1-1.5-0.1-2c-0.1-0.5,0.2-0.2,0.2-0.2s0.2,0.2,0.5,0.6c0.3,0.4,0.8,0.4,0.8,0.4
		s0.2-1.6-0.3-2.5c-0.5-0.9-0.7-1.2-0.7-1.2s-0.3,0-0.5-0.1c-0.2-0.1-0.4-0.3-0.4-0.3s0,0.5,0,0.6v0.2c0,0,0.6,0.8,0.7,1
		c0.1,0.2,0.4,0.6,0,0.2c-0.4-0.4-0.8-0.7-0.8-0.7s-0.1,0.8-0.3,1c-0.2,0.2-0.4,0.2-0.5,0.2c-0.1-0.1-0.1-0.1-0.1-0.1l0,0.3
		c0,0,0.4,0.9,0.4,1.3c0.1,0.4,0,0.3-0.2-0.1c-0.2-0.5-0.5-1.1-0.7-1.4c-0.2-0.3-0.4-0.6-0.4-0.1c0,0.4-0.1,1.2-0.2,1.5
		c-0.1,0.3-0.2,0.4-0.2,0.4s0.2,1.1,0.3,1.3c0,0.2,0,0.4-0.1,0.2c-0.1-0.3-0.5-1.3-0.5-1.3s-0.5,0-0.6-0.2c-0.1-0.2-0.4-0.9-0.4-0.9
		s-0.2,0.9-0.4,1.2c-0.2,0.3-0.6,0.6-0.6,0.6s0,1.6-0.1,1.9c0,0.3,0,0.4-0.1,0.4c-0.1,0-0.1-0.1-0.1-0.4c0-0.3-0.1-1.9-0.1-1.9
		s-0.4-0.3-0.6-0.6c-0.2-0.3-0.4-1.2-0.4-1.2s-0.2,0.7-0.4,0.9c-0.1,0.2-0.6,0.2-0.6,0.2s-0.4,1.1-0.5,1.3c-0.1,0.3-0.2,0-0.1-0.2
		c0-0.2,0.3-1.3,0.3-1.3s-0.1-0.1-0.2-0.4c-0.1-0.3-0.2-1.1-0.2-1.5c0-0.4-0.2-0.2-0.4,0.1c-0.2,0.3-0.5,0.9-0.7,1.4
		c-0.2,0.5-0.3,0.5-0.2,0.1c0.1-0.4,0.4-1.3,0.4-1.3l0-0.3l-0.1,0.1c-0.1,0.1-0.3,0-0.5-0.2c-0.2-0.2-0.3-1-0.3-1s-0.3,0.4-0.8,0.7
		c-0.4,0.4-0.1,0,0-0.2c0.1-0.2,0.7-1,0.7-1s0-0.1,0-0.2v-0.6c0,0-0.2,0.2-0.4,0.3c-0.2,0.1-0.5,0.1-0.5,0.1s-0.2,0.3-0.7,1.2
		c-0.5,0.9-0.3,2.5-0.3,2.5S106.6,107.3,106.9,106.9L106.9,106.9z"/>
	<path id="_x32_21" class="st3" d="M112.9,117.3c-0.3-0.5-0.4-0.7-0.4-0.7s-0.1,0.2-0.4,0.7c-0.3,0.5-1.1,1.3-1.1,1.3s0.1,1.3,0.4,2
		c0.3,0.6,0.6,1.1,1.1,1.6c0.5-0.4,0.8-1,1.1-1.6c0.4-0.7,0.4-2,0.4-2S113.2,117.8,112.9,117.3L112.9,117.3z"/>
	<path id="_x32_20" class="st2" d="M112.3,118.9c0,0.3,0,1.1,0.1,1.1c0.1,0,0.1-0.8,0.1-1.1c0-0.3,0-1,0-1h-0.4
		C112.3,117.9,112.3,118.6,112.3,118.9L112.3,118.9z"/>
	<path id="_x32_19" class="st3" d="M112.5,47.3c-1.3,0-2.9-0.2-3.7-0.6c-0.3,0.1-0.6,0.2-0.9,0.3c1.4,0.7,2.6,1,4.6,1
		c2.1,0,3.2-0.3,4.6-1c-0.3-0.1-0.6-0.2-0.9-0.3C115.4,47.1,113.8,47.3,112.5,47.3L112.5,47.3z"/>
	<path id="_x32_18" class="st3" d="M117.3,45.8c-0.1-0.1-0.7-0.7-0.9-0.8c-0.2-0.1,0-0.4,0-0.5c0-0.1,0.7-0.4,1.1-0.5
		c0.4-0.1,0.3-0.2,0.3-0.2s-0.2-0.3-1.6-0.5c-1.4-0.2-3.8-0.2-3.8-0.2s-2.4,0-3.8,0.2c-1.4,0.2-1.6,0.5-1.6,0.5s-0.1,0.1,0.3,0.2
		c0.4,0.1,1.1,0.4,1.1,0.5c0,0.1,0.1,0.4,0,0.5c-0.2,0.1-0.8,0.7-0.9,0.8c-0.1,0.1-0.1,0.3,0.1,0.3c0.2,0,0.2,0,0.6-0.1
		c1.4-0.4,2.7-0.5,4.1-0.5c1.4,0,2.7,0.1,4.1,0.5c0.5,0.1,0.5,0.1,0.6,0.1C117.4,46.1,117.4,45.9,117.3,45.8L117.3,45.8z"/>
	<path id="_x32_17" class="st3" d="M115.8,46.6c-0.9-0.1-1.5-0.3-3.3-0.3c-1.7,0-2.3,0.1-3.3,0.3c0.6,0.3,1.5,0.5,3.3,0.5
		C114.2,47.1,115.2,46.9,115.8,46.6L115.8,46.6z"/>
	<polygon id="_x32_16" class="st3" points="112.2,29.5 112.9,29.4 112.9,28.6 113.6,28.7 113.7,27.9 112.9,28 113,27.1 112.1,27.1 
		112.3,28 111.5,27.9 111.5,28.7 112.3,28.6 	"/>
	<path id="_x32_15" class="st3" d="M113.8,30.8h-1v-1.1c-0.1,0-0.2,0-0.3,0c-0.1,0-0.2,0-0.3,0v1.1h-1c0,0.1-0.1,0.3-0.1,0.4
		c0,0.1,0,0.1,0,0.2h2.6c0-0.1,0-0.1,0-0.2C113.8,31.1,113.8,31,113.8,30.8L113.8,30.8z"/>
	<path id="_x32_14" class="st4" d="M112.5,32.8c0.6,0,1.1-0.4,1.2-1.1h-2.5C111.5,32.4,112,32.8,112.5,32.8L112.5,32.8z"/>
	<path id="_x32_13" class="st4" d="M113.1,29.8v0.7h0.6C113.6,30.3,113.3,30,113.1,29.8L113.1,29.8z"/>
	<path id="_x32_12" class="st4" d="M112,29.8c-0.3,0.2-0.5,0.4-0.6,0.7h0.6V29.8z"/>
	<path id="_x32_11" class="st2" d="M113.3,43.7c-0.2-0.2-0.8-0.5-0.8-0.5s-0.5,0.3-0.8,0.5c-0.3,0.2-0.2,0.1-0.3,0.4
		c-0.1,0.3,0,0.4,0.1,0.4c0.1,0.1,1,0.7,1,0.7s0.9-0.5,1.1-0.7c0.2-0.1,0.2-0.3,0.1-0.5C113.6,44,113.5,43.9,113.3,43.7L113.3,43.7z
		"/>
	<polygon id="_x32_10" class="st3" points="111.7,44.1 112.5,44.6 113.3,44.1 112.5,43.5 	"/>
	<path id="_x32_09" class="st3" d="M112.5,39.7c0,0-0.1,0.4-0.2,0.6c-0.1,0.2-0.2,0.3-0.1,0.5c0,0.2,0.2,0.3,0.3,0.3
		c0.1,0,0.3-0.1,0.3-0.3c0-0.2,0-0.4-0.1-0.5C112.6,40.1,112.5,39.7,112.5,39.7L112.5,39.7z"/>
	<path id="_x32_08" class="st3" d="M112.5,41.3c0.1,0,0.2,0.1,0.2,0.2c0,0.1-0.1,0.2-0.2,0.2c-0.1,0-0.2-0.1-0.2-0.2
		C112.3,41.4,112.4,41.3,112.5,41.3z"/>
	<path id="_x32_07" class="st3" d="M111.9,40.4c0,0,0.3-0.4,0.4-0.7c0.1-0.3,0.2-0.5,0.2-0.5s0.1,0.2,0.2,0.5
		c0.1,0.3,0.4,0.7,0.4,0.7s0.4-0.3,0.6-1.3c0.2-1-0.1-2-0.2-3.2c-0.1-1.1-0.2-3.1-0.2-3.1c-0.3,0.2-0.6,0.3-0.8,0.3
		c-0.3,0-0.5-0.1-0.8-0.3c0,0-0.1,1.9-0.2,3.1c-0.1,1.1-0.4,2.2-0.2,3.2C111.5,40.2,111.9,40.4,111.9,40.4L111.9,40.4z"/>
	<path id="_x32_06" class="st2" d="M112.5,37.3c0.4,0,0.7,0.4,0.7,0.9c0,0.5-0.3,0.9-0.7,0.9c-0.4,0-0.7-0.4-0.7-0.9
		C111.8,37.7,112.1,37.3,112.5,37.3z"/>
	<path id="_x32_05" class="st2" d="M112.5,35.4c0.4,0,0.6,0.4,0.6,0.8s-0.3,0.8-0.6,0.8c-0.4,0-0.6-0.4-0.6-0.8
		S112.1,35.4,112.5,35.4z"/>
	<path id="_x32_04" class="st2" d="M112.5,33.5c0.3,0,0.6,0.4,0.6,0.8c0,0.4-0.3,0.8-0.6,0.8c-0.3,0-0.6-0.4-0.6-0.8
		C111.9,33.8,112.2,33.5,112.5,33.5z"/>
	<path id="_x32_03" class="st3" d="M112.5,37.6c0.2,0,0.4,0.2,0.4,0.5c0,0.3-0.2,0.5-0.4,0.5c-0.2,0-0.4-0.2-0.4-0.5
		C112.1,37.8,112.3,37.6,112.5,37.6z"/>
	<path id="_x32_02" class="st3" d="M112.5,35.6c0.2,0,0.3,0.2,0.3,0.4c0,0.2-0.2,0.4-0.3,0.4c-0.2,0-0.3-0.2-0.3-0.4
		C112.2,35.8,112.3,35.6,112.5,35.6z"/>
	<path id="_x32_01" class="st3" d="M112.5,33.8c0.2,0,0.3,0.2,0.3,0.4c0,0.2-0.1,0.4-0.3,0.4c-0.2,0-0.3-0.2-0.3-0.4
		C112.2,33.9,112.3,33.8,112.5,33.8z"/>
	<path id="_x32_00" class="st2" d="M112.5,105c0,0,0-0.1,0.1-0.4c0-0.3,0-0.9,0.1-1.3c0-0.4-0.1-0.3-0.1-0.3c-0.1,0-0.1,0.3-0.1,0.5
		c0,0.2,0,1.1,0,1.3C112.4,105,112.4,105,112.5,105z"/>
	<path id="_x31_99" class="st3" d="M105.6,112.2c0.3-0.3,0.6-0.5,1.2-1.1c0.7-0.6,0.9-1.3,0.9-1.3h-0.2c-0.1,0-0.2-0.2-0.2-0.5
		c0-0.2,0-0.7,0-1.3c0-0.6-0.1-1-0.1-1s-0.3,0.4-0.7,0.7c-0.4,0.3-0.6,0.2-0.6,0.2l-0.1-0.6c0,0-0.2,0.5-0.5,1.1
		c-0.3,0.6-1,1.3-1.5,1.8c-0.5,0.5-1.1,1.1-1.5,1.3c-0.4,0.2-0.2,0.5-0.2,0.5s0.4,0.6,1.5,0.8C104.7,113.1,105.3,112.5,105.6,112.2
		L105.6,112.2z"/>
	<path id="_x31_98" class="st3" d="M109.4,111.7c-0.4-0.1-0.6-0.3-0.7-0.8c0-0.4,0-1.8,0-1.8s-0.1,0.1-0.3,0.4
		c-0.1,0.2-0.5,0.3-0.5,0.3s0,0.2-0.2,0.5c-0.1,0.3-0.3,0.7-0.7,1c-0.4,0.3-0.8,0.7-1.1,1c-0.3,0.3-0.6,0.7-1,1
		c-0.4,0.3-0.7,0.7-0.8,1.5c-0.1,0.7,0,1,0.4,0.9c0.4,0,0.5,0,1.2-0.2c0.7-0.2,1.7-1.3,2.4-1.9C108.9,112.9,109.4,111.7,109.4,111.7
		L109.4,111.7z"/>
	<path id="_x31_97" class="st3" d="M111.3,112.5c0,0-0.3-0.5-0.4-1.1c-0.1-0.6-0.3-1.7-0.3-1.7s-0.1,0.4-0.3,1
		c-0.2,0.7-0.6,0.8-0.6,0.8s0,0.3-0.4,0.9c-0.3,0.6-0.8,1.1-1.3,1.5c-0.5,0.4-1.2,0.9-1.5,1.6c-0.4,0.7-0.4,1.4-0.2,1.7
		c0.2,0.3,0.4,0,0.7-0.3c0.3-0.2,1.3-0.4,2.6-1.4C110.9,114.7,111.3,112.5,111.3,112.5L111.3,112.5z"/>
	<path id="_x31_96" class="st3" d="M111.9,116.5c0.4-0.7,0.4-2.5,0.4-2.5s-0.1-0.1-0.3-0.3c-0.2-0.2-0.5-0.9-0.5-0.9
		s-0.2,0.6-0.5,1.2c-0.2,0.6-0.4,0.8-0.8,1.4c-0.5,0.6-1.2,1.2-1.4,1.8c-0.3,0.6-0.1,1.9,0.1,2.4c0.2,0.4,0.5,0.3,0.7-0.1
		c0.3-0.4,0.4-0.4,0.8-1C110.9,117.9,111.5,117.2,111.9,116.5L111.9,116.5z"/>
	<path id="_x31_95" class="st2" d="M107.6,101.7c0.2-0.5,0.4-1.2,0.6-1.5c0.2-0.3,0.3-0.7,0.3-0.7s-0.5,0.6-0.7,1
		c-0.2,0.4-0.3,0.8-0.4,1.2C107.3,102.1,107.4,102.2,107.6,101.7z"/>
	<path id="_x31_94" class="st2" d="M109.4,102.1c0.1-0.3,0.1-0.6,0.1-0.6s0.1-0.3,0-0.4c0,0-0.2,0.2-0.4,0.8
		c-0.1,0.6-0.3,1.4-0.3,1.4C109,103.4,109.4,102.5,109.4,102.1L109.4,102.1z"/>
	<path id="_x31_93" class="st2" d="M110.9,103.7c0.1-0.2,0.1-0.3,0.1-0.3s0.2-0.7,0.2-0.8c0-0.1-0.1-0.3-0.2,0
		c-0.1,0.3-0.1,0.7-0.2,0.8c0,0.1-0.2,0.7-0.1,0.7C110.7,104.3,110.8,103.9,110.9,103.7L110.9,103.7z"/>
	<path id="_x31_92" class="st2" d="M106.3,109.7l-0.2-0.2c0,0-0.1,0.2-0.3,0.4c-0.2,0.2-0.4,0.3-0.5,0.6c-0.1,0.2-0.3,0.5-0.6,0.7
		c-0.3,0.2-0.4,0.3-0.4,0.3c0.1,0.1,0.3-0.1,0.3-0.1s0.1,0,0.5-0.3c0.4-0.3,0.5-0.4,0.7-0.7C106,110.2,106.3,109.7,106.3,109.7z"/>
	<path id="_x31_91" class="st2" d="M107.9,112.2c0.1-0.2,0.3-0.3,0.2-0.4c-0.1-0.1-0.2-0.1-0.3,0.1c-0.1,0.1-0.5,0.6-0.7,0.8
		c-0.2,0.2-0.3,0.3-0.5,0.5c-0.2,0.2-0.5,0.4-0.7,0.6c-0.2,0.1,0,0.1,0,0.1s0.1-0.1,0.3-0.2c0.1-0.1,0.6-0.3,0.6-0.3
		s0.2-0.1,0.4-0.3C107.5,112.8,107.8,112.4,107.9,112.2L107.9,112.2z"/>
	<path id="_x31_90" class="st2" d="M109.8,113.9c0.1-0.3,0-0.2-0.2-0.1c-0.2,0.1-0.6,0.8-0.9,1c-0.3,0.2-0.5,0.3-0.7,0.5
		c-0.2,0.1-0.2,0.2-0.2,0.3c0,0.1,0.1,0.1,0.2,0c0.1-0.1,0.4-0.3,0.4-0.3s0.1-0.1,0.2-0.1c0.1,0,0.3-0.2,0.6-0.5
		C109.4,114.4,109.7,114.2,109.8,113.9L109.8,113.9z"/>
	<path id="_x31_89" class="st2" d="M110.6,116.2c-0.3,0.3-0.9,0.9-1,1.3c-0.1,0.4-0.2,0.7-0.2,0.7c0,0.1,0.2-0.1,0.3-0.2
		c0.1-0.2,0.2-0.4,0.2-0.4s0.6-0.7,0.8-0.9c0.2-0.2,0.5-0.7,0.6-0.9c0.1-0.3,0-0.4,0-0.4S111,115.9,110.6,116.2L110.6,116.2z"/>
	<path id="_x31_88" class="st6" d="M101.9,53.1c-0.3-0.2-1.1-0.7-2-0.8c-0.9-0.1-1.5,0.1-2.2,0.3c-0.5,0.2-0.9,0.2-1.3,0.1
		c-0.6-0.2-1.1-1-1.2-1.9c0,0-0.6,1,0,2c0.3,0.5,0.6,0.8,1,0.9c1.2,0.3,2.4-0.7,3.4-0.7c1-0.1,1.7,0.7,1.7,0.7s0.2,0.3,0.5,0
		C102.2,53.5,102.2,53.3,101.9,53.1z"/>
	<path id="_x31_87" class="st3" d="M98.5,99.2c0,0-0.1,0-0.3,0c-0.2,0-0.5-0.2-0.6-0.3c-0.1-0.1-0.3-0.1-0.4,0.1
		c-0.1,0.2-1,0.8-1,0.8h1.4C98.2,99.8,98.5,99.2,98.5,99.2L98.5,99.2z"/>
	<path id="_x31_86" class="st3" d="M102.5,98.9v-0.2l-0.2-0.5c0,0-0.2,0.2-0.4,0.5c-0.3,0.4-0.6,0.9-0.7,1.2
		c-0.2,0.4-0.6,0.8-0.3,0.1c0.3-0.6,0.4-0.9,0.6-1.4c0.2-0.4,0.4-0.6,0.4-0.6c0,0-0.2-0.1-0.8-0.2c-0.6-0.1-1-0.4-1.2-0.6
		c-0.3-0.2-0.8-0.6-0.8-0.6s-1,0.6-1.4,0.7c-0.4,0.1-0.6,0.2-0.2,0.4c0.4,0.2,0.7,0.3,0.9,0.5c0.2,0.2,0.7,0.4,1.1,0.4
		c0.3,0,0.9,0,0.7,0.3c-0.2,0.3-0.5,0.9-0.7,1.8c-0.2,0.9-0.3,1.7-0.3,2.2c0,0.4,0,0.8,0,0.8s0.4-0.6,1.5-1.6
		c1.1-0.9,1.5-1.3,1.7-1.4c0.2-0.1,0.3-0.1,0.3-0.5C102.6,99.9,102.5,99.1,102.5,98.9L102.5,98.9z"/>
	<path id="_x31_85" class="st3" d="M106.8,94.4c-0.1,0-0.1-0.1-0.2-0.1c0,0,0,0-0.1,0c-0.1,0.1-0.8,0.7-1.1,1.3
		c-0.3,0.6-0.6,0.6-0.2,0c0.3-0.6,0.5-1,0.8-1.3c0.1-0.1,0.2-0.2,0.2-0.3c-0.5-0.4-1.1-0.8-1.7-1.3c-0.1,0.2-0.2,0.5-0.4,0.8
		c-0.2,0.3-0.8,0.6-0.8,0.6s0.4-0.6,0.6-1c0.1-0.3,0.2-0.6,0.2-0.8c-0.4-0.4-0.8-0.9-1.1-1.4c-0.1,0.4-0.3,1.3-1,2.3
		c-0.9,1.3-2.6,2-2.6,2s-0.6,0.1-0.1,0.3c0.5,0.2,0.9,0.5,1.8,0.2c1-0.2,1-0.3,1.2-0.3c0.1-0.1,0.5,0,0,0.2c-0.5,0.2-1.6,0.5-2,0.4
		c-0.4-0.1-1-0.2-0.4,0.3c0.6,0.4,0.9,0.6,1.3,0.6c0.4,0,0.5,0.2,0.9,0.2c0.4,0,0.5-0.1,0.7-0.2c0.3-0.1,0.4,0.1,0.4,0.2
		c0,0.1-0.4,0.5-0.3,1.5c0,1,0.1,1.6,0.1,1.9c0.1,0.3,0.2,0.7,0.3,1c0.1,0.3,0.1,0.5,0.2,0c0.1-0.6,0.3-1.4,0.4-1.9
		c0.1-0.5,0.1-0.6,0.2-0.8c0-0.3,0.3-0.5,0.2,0c-0.1,0.5-0.2,1.2-0.3,1.6c-0.1,0.5-0.3,1.3,0.1,0.6c0.3-0.7,1.5-2.4,1.7-2.7
		c0.2-0.3,0.4-0.6,0.5-0.9c0.1-0.3,0.6-0.6,0.7-1c0.2-0.3,0.7-1,0.9-1.3C107.5,94.8,107.2,94.6,106.8,94.4L106.8,94.4z"/>
	<path id="_x31_84" class="st3" d="M90.5,54c0,1,0.8,2.8,1.3,3.8c0.5,1,0.6,1.4,0.5,1.4c-0.1,0.1-0.3-0.4-0.5-0.9
		c-0.3-0.4-0.7-1.5-1.1-2.2c-0.4-0.8-1-2.6-1.1-2.8c-0.1-0.2-0.1-0.3-0.3-0.1c-0.2,0.2-0.6,2.2-0.1,3.6c0.5,1.4,1.2,2.4,1.5,2.9
		c0.3,0.5,0.7,1.2,0.6,1.3c-0.1,0.1-0.2-0.1-0.5-0.6c-0.4-0.5-1-1.4-1.3-2c-0.3-0.5-0.8-1.5-0.9-1.9c-0.1-0.1-0.1-0.1-0.2,0
		c-0.1,0.2-0.3,0.6-0.2,1.7c0.1,1.5,0.7,2.4,1.3,3.2c0.5,0.8,1.1,1.4,1,1.5c-0.1,0.1-0.6-0.5-1-1c-0.4-0.5-1.3-1.7-1.5-2
		c-0.2-0.3-0.5-0.2-0.5,1.2c0,1.3,1.1,2.7,1.6,3.4c0.5,0.7,1,1.2,1,1.3c0,0.1-0.5-0.2-0.8-0.5c-0.3-0.3-1.4-1.2-1.6-1.4
		c-0.2-0.2-0.3,0.2,0,1.4c0.3,1.3,1.1,2.3,1.6,2.7c0.5,0.5,1.3,1,1.2,1.2c0,0.1-0.4,0-0.8-0.3c-0.5-0.3-1-0.6-1.4-0.7
		c-0.4-0.1-0.4,0.2-0.4,0.2s-0.1,1.1,0.5,1.9c0.6,0.9,1.2,1.2,1.9,1.3c0.6,0.1,0.7,0.2,0.7,0.3c0,0.1-0.1,0.1-0.2,0.1
		c-0.1,0-0.7,0.1-1.3,0.1c-0.5,0-0.8,0.2-0.8,0.5s0,0.7,0.8,1.4c0.8,0.7,1.7,0.8,2.1,0.9c0.4,0.1,0.4,0.1,0.3,0.3
		c-0.1,0.1-0.3,0.1-0.8,0.2c-0.6,0.1-1,0.4-1,0.6c-0.1,0.2,0,0.8,0.5,1.3c0.5,0.4,1.1,0.6,2.1,0.5c0.9-0.1,1.2-0.1,1.2,0.1
		c0,0.2-0.3,0.3-0.8,0.4c-0.5,0.1-0.8,0.1-1.1,0.4c-0.3,0.3-0.1,0.9,0.4,1.3c0.5,0.4,1.6,0.4,2.1,0.4c0.5,0,1.2-0.3,1.2-0.1
		c0,0.2-0.3,0.4-0.8,0.6c-0.5,0.2-0.6,0.4-0.7,0.7c-0.1,0.3,0,0.5,0.6,0.8c0.6,0.3,1.4,0.3,1.9,0c0.4-0.3,0.7-0.4,0.8-0.3
		c0.1,0.1,0,0.2-0.1,0.4c-0.1,0.1-0.5,0.5-1,0.7c-0.5,0.2-0.5,0.2-0.7,0.7c-0.2,0.5,0.3,0.9,1.1,1c0.9,0,2.1-0.4,2.4-0.7
		c0.4-0.3,0.5-0.4,0.6-0.3c0.1,0.1,0,0.2-0.1,0.4c-0.2,0.2-0.8,0.8-1.1,0.9c-0.3,0.1-0.3,0.4-0.3,0.7c0,0.3-0.1,0.8,0.7,1.1
		c0.8,0.3,1.7,0.1,2.6-0.7c0.3-0.3,0.4-0.5,0.5-0.7c-0.1-1.1,0-1.8,0.1-2.5c-0.2,0-0.5-0.1-0.8-0.3c-0.5-0.3-0.7-0.8-0.8-1.2
		c-0.1-0.3-0.3-0.3-0.5-0.2c-0.2,0.1-0.4,0.2-0.6,0.2c-0.3,0-0.8-0.2-1.2-0.9c-0.4-0.6-0.3-1.3-0.3-1.6c0-0.3-0.4-0.1-0.6-0.1
		c-0.2,0-0.7-0.1-1.2-0.6c-0.5-0.5-0.5-1.1-0.5-1.3c0-0.3-0.3-0.4-0.4-0.5c-0.2-0.1-0.4-0.2-0.8-0.5c-0.3-0.4-0.5-1.1-0.5-1.4
		c0-0.3-0.2-0.3-0.9-0.8c-0.7-0.5-0.6-1.5-0.6-1.9c0-0.4,0.4-0.7,0.4-0.9c0-0.1-0.2-0.2-0.5-0.4c-0.2-0.2-0.8-0.5-0.8-1.7
		c0-1.2,0.6-1.3,0.6-1.3s-0.1-0.1-0.3-0.3c-0.2-0.2-0.9-0.8-0.9-1.5c0-0.7,0.2-1,0.4-1.2c0.2-0.2,0.6-0.3,0.6-0.3s-0.3-0.3-0.4-0.8
		c-0.1-0.5-0.2-1.2,0.1-1.7c0.3-0.5,0.8-0.5,1.1-0.5s0.5,0.2,0.6,0.1c0.1-0.1,0.1-0.2,0-0.5c-0.1-0.3-0.1-0.9,0-1.2
		c0.1-0.2,0.1-0.7,0.8-1c0.7-0.3,1.4,0.3,1.6,0.5c0.2,0.2,0.1-0.2,0.1-0.5c0-0.3-0.5-1-1-2.1c-0.5-1-0.8-1.6-1.3-3.2
		c-0.6-1.6-1-3.6-1-4.2c-0.1-0.5-0.2-0.3-0.2-0.3s-0.2,0.1-0.5,1.3C90.5,51.9,90.5,53.1,90.5,54L90.5,54z"/>
	<path id="_x31_83" class="st3" d="M102.3,75.4c-0.4,0-0.9-0.3-1.3-1.1c-0.4-0.8-1-1-2.1-0.9c-1.1,0-1.5-0.6-1.8-1.6
		c-0.3-1,0-2.1,1.1-2.8c1.1-0.7,1.6-1.5,1.6-2.7c0-1.2-1.1-2.7-2.2-4.4c-1.1-1.7-2-4.1-2-4.1s-0.3,0.6-0.3,1.1c0,0.6,0.2,1.2,0,1.3
		c-0.2,0.2-0.2-0.2-0.9-0.6c-0.6-0.4-1.2-0.4-1.6,0.2c-0.4,0.6,0,1.7,0.4,2.2c0.4,0.5,0.7,0.9,0.6,1.1c-0.1,0.2-0.6-0.3-0.8-0.5
		c-0.2-0.2-0.6-0.8-1.2-0.7c-0.6,0.1-0.8,0.3-0.9,1c-0.1,0.7,0.6,1.3,1,1.6c0.4,0.3,0.6,0.5,0.5,0.6c-0.1,0.1-0.2,0-0.4-0.1
		c-0.2-0.1-0.7-0.2-1,0c-0.3,0.2-0.8,0.8-0.4,1.5c0.5,0.7,1.5,1,1.7,1.1c0.2,0.1,0.3,0,0.3,0.2c0,0.2-0.4,0.2-1,0.2
		c-0.5,0-0.7,0.7-0.6,1.3c0.1,0.5,1,1.1,1.5,1.2c0.5,0.1,0.7,0,0.7,0.2c0,0.2-0.1,0.3-0.3,0.4c-0.3,0.1-0.8,0.2-0.9,0.8
		c-0.1,0.6-0.1,0.9,0.3,1.4c0.4,0.5,1.1,0.4,1.3,0.4c0.2-0.1,0.4-0.4,0.6-0.1c0.2,0.3-0.2,0.5-0.5,0.8c-0.3,0.3-0.3,0.9,0.3,1.4
		c0.6,0.4,1.2,0.3,1.4,0.2c0.2-0.1,0.6-0.6,0.7-0.3c0.2,0.3-0.5,0.4-0.8,0.9c-0.3,0.5-0.2,1.2,0.4,1.7c0.6,0.5,1.5,0.1,1.7-0.1
		c0.2-0.2,0.4-0.3,0.5-0.1c0.1,0.2-0.1,0.6-0.2,1c-0.1,0.4-0.3,1.5,0.5,1.9c0.8,0.4,1.6-0.5,1.8-0.7c0.1-0.2,0.3-0.2,0.4-0.1
		c0.1,0.1,0.1,0.2,0,0.4c-0.1,0.2-0.3,1,0.3,1.6c0.4,0.4,0.9,0.4,1.1,0.3c0.1-0.6,0.3-1.3,0.5-2.3H102c-0.1,0-0.1,0.2-0.1,0.2
		c0,0.1,0,0.1,0,0.1c-0.1,0-0.1,0.1-0.2,0.2c-0.1,0.1-0.2,0.2-0.3,0.2c-0.1-0.1,0.2-0.2,0.3-0.4c0.1-0.1,0.2-0.3,0.2-0.4
		c0-0.1,0.1-0.2,0.2-0.4c0-0.1,0.1-0.1,0.1-0.2c0.1-0.6,0.2-1.4,0.3-2.3c0.1-0.6,0.1-1.2,0.1-1.7L102.3,75.4L102.3,75.4z"/>
	<path id="_x31_82" class="st3" d="M85,58.6c0.9,2.4,2.2,3.8,2.2,3.8s-0.2-0.6-0.2-1c-0.1-0.4,0-0.9,0-0.9s-0.3-0.5-0.9-1.8
		c-0.6-1.2-0.9-3-0.9-3s0.5,1.8,1,2.7c0.4,1,0.9,1.7,0.9,1.7s0.2-0.8,0.3-0.9c0.1,0,0.2,0.1,0.3,0.3c0.1,0.2,0.2,0.2,0.2,0.2
		s-0.1-0.4-0.4-0.9c-0.1-0.2-0.3-0.5-0.4-0.7c-0.3-0.7-1.1-2.1-1.4-3.4c-0.4-1.3-1.2-4.7-1.3-5.7c-0.1-1-0.3-0.4-0.4,0.3
		c-0.1,0.7-0.3,1.8-0.2,3.3C83.9,54.3,84.1,56.2,85,58.6L85,58.6z"/>
	<path id="_x31_81" class="st3" d="M86.2,65.2C86.5,65.5,87,66,87,66s-0.1-0.2-0.1-0.5c0-0.3-0.1-0.9-0.1-0.9s-0.4-0.5-0.7-0.8
		c-0.3-0.3-0.6-0.7-1.3-1.9c-0.7-1.1-0.1-0.5,0.4,0.4c0.6,0.8,1.6,2,1.6,2s0,0,0-0.3c0-0.2,0.1-0.4,0.2-0.6c0.1-0.2,0-0.2-0.6-0.8
		c-0.6-0.6-2.2-3-2.8-4.3c-0.6-1.4-1.3-3.3-1.3-3.3s-0.3,2.8,0.9,5.9C84.6,63.9,85.9,64.9,86.2,65.2z"/>
	<path id="_x31_80" class="st3" d="M92.9,82.8c0.7-0.4,0.5-1.3,0.5-1.3c0,0-0.4,0.2-0.8,0.4c-0.4,0.2-1.4,0.6-1.7,0.6
		c-0.4,0-0.4-0.1-0.4-0.1c0-0.1,0.3,0,0.8-0.1c0.6-0.1,1.5-0.8,1.7-1c0.2-0.2,0.1-0.2-0.1-0.2c-0.2,0-0.5-0.2-0.6-0.3
		c-0.1-0.1-0.3,0-1,0.2c-0.6,0.2-1.9,0.5-2.9,0.5c-1,0-1.9-0.2-2.1-0.3c-0.2,0-0.3,0.1,0.2,1.2c0.5,1.1,2.2,1.7,3.4,1.7
		C91,84,92.2,83.1,92.9,82.8L92.9,82.8z"/>
	<path id="_x31_79" class="st3" d="M89.8,80.5c1.2,0,1.7-0.5,1.7-0.5s0-0.1-0.2-0.4c-0.2-0.3-0.1-0.9-0.1-0.9s-0.3,0.1-0.8,0.2
		c-0.5,0.1-1.1,0.2-1.7,0c-0.7-0.2-0.4-0.2,0.1-0.2c0.5,0.1,1.5-0.2,1.8-0.3c0.3-0.2,0.2-0.3,0-0.4c-0.2-0.1-0.8-0.6-0.8-0.6
		s-1.5,0.2-2.9,0c-1.4-0.2-2.2-0.7-2.5-0.7c-0.3-0.1-0.3,0.1-0.3,0.1s-0.1,0.2,0.4,1.2c0.5,1,1.4,1.6,2.2,1.9
		C87.5,80.3,88.5,80.5,89.8,80.5L89.8,80.5z"/>
	<path id="_x31_78" class="st3" d="M89.4,76.7c0,0-0.1-0.1-0.1-0.4c-0.1-0.3,0.1-0.6,0.1-0.6s-0.3-0.1-1.2-0.3
		c-0.9-0.2-1-0.2-1.5-0.4c-0.6-0.2-0.9-0.4-0.9-0.5c0-0.1,0.2,0,0.5,0.2c0.3,0.2,1.7,0.4,2.3,0.5c0.6,0.1,0.9,0.2,1,0.1
		c0.1-0.1,0.5-0.2,0.5-0.2s-0.2-0.1-0.6-0.2c-0.3-0.1-0.6-0.2-0.8-0.4c-0.2-0.2-0.2-0.2-1-0.3c-0.7-0.1-1.3-0.4-2.7-1.1
		c-1.3-0.6-2.3-1.4-2.6-1.7c-0.3-0.3-0.2-0.1-0.2,0.3c0.1,0.4,0.1,0.8,0.7,1.9c0.7,1,1,1.5,2.7,2.3C87.5,76.8,89.4,76.7,89.4,76.7
		L89.4,76.7z"/>
	<path id="_x31_77" class="st3" d="M84.4,71.2c1.5,1.4,3.3,1.9,3.6,2c0.1-0.1-0.1-0.6,0-0.9c0.1-0.3,0.3-0.3,0.6-0.4
		c0.4,0,0.1-0.1,0-0.1c-0.1,0-0.1,0-0.7-0.2c-0.6-0.2-1.2-0.3-2-0.7c-0.8-0.4-1.1-0.7-1.1-0.8c0-0.1,0.4,0.3,1.1,0.6
		c0.8,0.4,1.7,0.5,2.1,0.7c0.5,0.1,0.1-0.1-0.2-0.3c-0.2-0.2-0.5-0.8-0.5-0.8s-0.5-0.1-1.4-0.5c-0.9-0.4-1.6-0.8-2.3-1.3
		c-0.3-0.2-0.5-0.4-0.8-0.7c-0.5-0.5-1-1-1.2-1.2c-0.3-0.3-0.2-0.1-0.2,0.1c0,0.2,0.2,1,0.7,1.9C82.8,69.5,82.9,69.8,84.4,71.2z"/>
	<path id="_x31_76" class="st3" d="M84.2,67.3c1.5,1.6,2.7,2,3,2.2c0.2,0.1,0.2,0,0.2-0.2c0-0.2-0.1-0.7-0.1-0.7s-0.5-0.4-1.1-0.9
		c-0.6-0.5-1.2-1.1-1.7-1.5c-0.4-0.4-0.2-0.4,0-0.2c0.1,0.2,0.7,0.6,1.3,1.1c0.6,0.5,1.5,1.2,1.5,1.2s0-0.3,0.1-0.4
		c0.1-0.2,0.4-0.1,0.4-0.1s-0.2-0.2-0.2-0.4c-0.1-0.2-0.6-0.4-1.1-0.7c-0.5-0.3-1.5-1.3-2.3-2.1c-0.7-0.8-2.1-2.9-2.2-3
		c-0.1-0.2-0.2-0.1-0.2,0.1c0,0.2-0.1,0.3,0.1,1.3C82.1,63.7,82.7,65.7,84.2,67.3z"/>
	<path id="_x31_75" class="st3" d="M89.4,52.5c0.2,0.5,0.4,0.8,0.5,1.1c0.2,0.5,0.3,0.8,0.3,0.8s0-0.2,0-0.4c0-0.3-0.1-0.7,0-1.1
		c0-0.2,0.1-0.5,0.1-0.7c0-0.2-0.1-0.5-0.1-0.6c0-0.3-0.3-1.4-0.4-2.2c-0.1-0.8-0.2-2-0.2-3c0-1,0.1-0.5,0.1,0c0,0.5,0,1.3,0.2,2.4
		c0.1,1.2,0.5,3,0.5,3s0-0.3,0.1-0.7c0.1-0.4,0.3-0.8,0.4-1.3c0.1-0.5,0.1-0.6,0.1-0.6s-0.5-3.3-0.7-4.9c-0.1-1.6-0.4-5.7-0.4-5.7
		c-0.8,1-1.3,3.7-1.4,6.2c-0.1,1.9,0.2,3.7,0.2,4.4C89,50.6,89.1,51.7,89.4,52.5L89.4,52.5z"/>
	<path id="_x31_74" class="st3" d="M87.7,57.7c0-0.8,0.2-1.3,0.5-1.5c0,0-0.3-0.8-0.6-1.8c-0.2-0.7-0.4-1.7-0.4-2.4
		c-0.2-1.8-0.4-3.6,0-0.6c0.4,3,0.9,4.1,0.9,4.1l0.6,1.2c-0.1-0.5-0.1-0.9-0.1-1.5c0-0.6,0.1-1.4,0.2-2c0,0-0.7-1.9-1.1-4.1
		c-0.4-2.2-0.7-4.3-0.7-5.5C87,42.5,87,42,87,42s-0.7,0.7-1,4.3c-0.2,3.6,0.5,7.1,0.8,8.4C87.2,56.1,87.7,57.7,87.7,57.7z"/>
	<path id="_x31_73" class="st3" d="M95.5,85.4c0,0-0.1-0.1-0.5-0.4c-0.3-0.3-0.2-1.1-0.2-1.1s-0.1,0.1-0.3,0.3
		c-0.2,0.2-0.5,0.5-0.9,0.7c-0.3,0.2-0.5,0.3-0.7,0.4c-0.2,0.1-0.2,0,0-0.2c0.2-0.1,0.2-0.2,0.7-0.5c0.5-0.2,1.4-1.3,1.4-1.3
		s-0.2,0-0.6,0c-0.4,0-0.8-0.3-0.8-0.3s-0.4,0.5-1.9,1.3c-1.5,0.9-2.8,1.1-2.8,1.1s0.2,1,0.9,1.4c0.6,0.3,1.4,0.6,3,0
		C94.4,86.3,95.5,85.4,95.5,85.4L95.5,85.4z"/>
	<path id="_x31_72" class="st3" d="M97.5,87.5c0.1-0.8-0.2-1.4-0.2-1.4s-0.1,0.1-0.3,0.3c-0.2,0.3-0.6,0.8-1.2,1.2
		c-0.6,0.4-0.9,0.4-0.2,0c0.6-0.4,1.5-1.7,1.5-1.7l-0.2-0.1c-0.2-0.1-0.6,0.1-2.3,1.4c-1.7,1.4-2.7,1.4-2.7,1.4s0.8,1.2,2.8,1.1
		C96.6,89.6,97.4,88.3,97.5,87.5L97.5,87.5z"/>
	<path id="_x31_71" class="st3" d="M101.4,86.5c0,0-0.2,0.4-0.5,0.7c-0.3,0.3-1.1,0.4-1.1,0.4s0,0.1-0.2,0.4
		c-0.2,0.3-0.5,0.9-0.9,1.3c-0.4,0.3-0.9,0.6-1,0.5c0-0.1,0.3-0.3,0.7-0.6c0.3-0.3,0.7-0.8,0.9-1.2c0.2-0.4-0.1-0.3-0.1-0.3
		s-0.4,0-0.8,0c-0.4,0-0.3,0-0.4,0.3c-0.1,0.3-0.3,0.5-0.6,0.9c-0.4,0.6-0.7,1-1,1.6c-0.2,0.4-0.1,0.5-0.1,0.5s0.1,0.2,1,0.4
		c0.6,0.1,1.2,0,1.8-0.5c0.4-0.3,0.8-0.8,1.2-1.4C101.4,87.8,101.4,86.5,101.4,86.5z"/>
	<path id="_x31_70" class="st3" d="M101.9,89.8c-0.2,0.4-0.3,0.6-0.3,0.6s0.2-0.6,0.3-0.9c0.1-0.2,0.2-0.3,0.2-0.4
		c-0.2-0.5-0.3-0.9-0.4-1.5c-0.1,0.4-0.4,1.7-0.8,2.5c-0.5,1-0.9,1.4-0.6,1.6c0.3,0.3,0.8,0.3,1.4-0.1c0.6-0.4,0.7-1,0.8-1.6
		c-0.1-0.2-0.2-0.4-0.3-0.7C102.1,89.5,102,89.6,101.9,89.8L101.9,89.8z"/>
	<path id="_x31_69" class="st3" d="M101.7,49.1c0.2,0,0.4,0.2,0.4,0.5c0,0.3-0.2,0.5-0.4,0.5c-0.2,0-0.4-0.2-0.4-0.5
		C101.3,49.3,101.5,49.1,101.7,49.1z"/>
	<path id="_x31_68" class="st3" d="M100.8,48.6c0.4,0,0.6-0.3,1-0.2c0.5,0.1,1.2,0.5,2,1c0.6,0.4,1.5,0.6,2.3,0.3
		c0.2-0.1,0.5-0.3,0.7-0.4c1-0.8,0.8-2.2,0.8-2.2c-0.7,0.7-1.6,1.1-2.5,1c0,0,0.1,0.1,0.2,0.3c0.1,0.2,0.4,0.4,0.3,0.5
		c-0.1,0.1-0.4-0.4-0.8-0.7c-0.3-0.3-0.8-0.7-1.5-1c-0.8-0.3-1.6-0.3-2.2,0.1c-0.6,0.4-0.6,1-0.5,1.2
		C100.6,48.6,100.7,48.6,100.8,48.6z"/>
	<path id="_x31_67" class="st3" d="M111.7,59.4c-0.2-0.1-0.5-0.1-0.9-0.6c-0.4-0.5-1.4-1.9-1.5-2.2c-0.1-0.3-0.1-0.5,0.2-0.6
		c0.3-0.1,0.5-0.6,0.5-0.6s-0.6-0.3-1-0.7c-0.4-0.4-1.3-1.5-1.5-1.8c-0.1-0.3-0.1-0.3,0.1-0.4c0.2-0.1,0.2-0.3,0.2-0.3
		s-0.4-0.4-0.8-0.8c-0.4-0.4-0.9-1.1-0.9-1.1c-0.6,0.3-1.5,0.2-2.1,0.1c-0.9-0.2-1.6-0.7-1.6-0.7s0,0.2-0.1,0.6
		c-0.1,0.4-0.5,0.6-0.9,0.2c-0.4-0.4-0.3-1.2-0.3-1.2s-0.3-0.3-1-0.6c-0.7-0.3-1.3-0.4-1.8,0c-0.6,0.3-0.8,1.4-0.8,2.2
		c0,0.8,0.3,0.5,0.4,0.3c0.1-0.1,0.2-0.7,0.9-0.8c0.7-0.2,1.4,0.3,2.2,1.2c0.8,0.9,1,0.9,1.4,1.5c0.4,0.6,0.1,0.9-0.6,1.2
		c-0.7,0.3-1.6-0.3-1.6-0.3c-0.1,0.1,0.3,0.9,0.9,1.2c0.6,0.3,1.4,0.1,2-0.2c0.4-0.2,0.5,0,0.6,0.2c0.7,0.9,0.8,1.8,0.9,2.8
		c0.3-0.1,0.6-0.6,0.6-0.9c0-0.2,0.1-0.6,0.3-0.3c0.2,0.3,0.4,1.8,0.4,2.5c0,0.7-0.2,1.7-0.2,1.7l0.2,0c0.1,0,0.3-0.2,0.5-0.4
		c0.3-0.2,0.3,0,0.3,0.4c0,0.4,0.1,1.1,0.5,2.4c0.4,1.3,0.9,1.7,0.9,1.7s0.1-0.3,0.2-0.8c0.1-0.5,0.2-1.5,0.2-2.4
		c0-0.9-0.2-2.8-0.2-2.8s0.8,1.3,1.6,1.6c0.8,0.3,1.7,0.1,2-0.4C112.2,59.7,111.8,59.5,111.7,59.4L111.7,59.4z"/>
	<path id="_x31_66" class="st3" d="M106.2,62.8c0,0-0.3,0.7-0.4,1c-0.1,0.3-0.2,0.3-0.2,0.3s0.3,0.3,0.6,0.4
		c0.4,0.2,0.7,0.2,0.7,0.2s-0.4-0.8-0.6-1.3C106.2,63,106.2,62.8,106.2,62.8L106.2,62.8z"/>
	<path id="_x31_65" class="st3" d="M111.2,62.4c-0.1-0.4-0.2-0.7-0.2-0.7c-0.5,0.1-1.5-0.2-1.9-0.5c0,0,0.4,1,0.8,1.4
		c0.4,0.4,0.4,0.4,0.4,0.4s-0.4,0.1-0.9-0.6c-0.5-0.7-0.7-1.5-0.7-1.5s0.1,1.8-0.1,2.9c-0.2,1.1-0.3,1.3-0.3,1.3s1.1,0.3,2.3-0.2
		c1.2-0.5,1.3-0.6,1.3-0.6s0.1-0.1,0-0.4C111.7,63.6,111.3,62.8,111.2,62.4L111.2,62.4z"/>
	<path id="_x31_64" class="st2" d="M109,58.4c-0.4-0.6-0.4-0.7-0.4-0.7s-0.1,0.2,0,0.4c0.1,0.2,0.6,0.9,1,1.1
		c0.4,0.3,0.7,0.4,0.7,0.4l0-0.1C110.3,59.5,109.4,59,109,58.4z"/>
	<path id="_x31_63" class="st2" d="M107.5,62.2c0,0-0.1-2.3-0.1-2.6c0-0.3-0.2-0.2-0.2-0.2l-0.2,0.1c0,0,0.3,2.9,0.4,3.3
		c0,0.4,0.2,0.3,0.2,0.3C107.5,63,107.5,62.3,107.5,62.2z"/>
	<path id="_x31_62" class="st2" d="M105.2,52.4c-0.1-0.2-0.5-0.3-0.2,0.1c0.3,0.4,0.7,1,0.8,1.5c0.1,0.5,0.2,1,0,0.9
		c-0.2-0.1-0.3-0.1-0.5-0.4c-0.2-0.2-0.6-0.6-0.8-0.7c-0.2-0.1-0.5,0-0.2,0.3c0.2,0.3,0.5,0.7,0.9,1.1c0.4,0.4,0.7,0.6,0.9,0.8
		c0.2,0.2,0.5,0.4,0.5,0.4s-0.2-1.9-0.6-2.7C105.7,53,105.3,52.6,105.2,52.4z"/>
	<path id="_x31_61" class="st2" d="M97.7,83.4c-0.3,0.3-0.7,0.4-0.7,0.4s-0.2,0-0.2,0.1c0,0.1,0.2,0,0.4-0.1
		c0.2-0.1,0.5-0.3,0.6-0.4c0.1-0.1,0.3-0.2,0.2-0.4C98.1,82.8,98,83.1,97.7,83.4L97.7,83.4z"/>
	<path id="_x31_60" class="st2" d="M100.1,85.1c-0.1,0.1-0.5,0.6-0.5,0.6s-0.1,0.1-0.3,0.2c-0.2,0.1-0.2,0.2-0.2,0.2s0,0.1,0.2,0
		c0.2-0.1,0.7-0.5,0.8-0.7c0.2-0.2,0.2-0.2,0.2-0.3C100.2,85,100.2,85,100.1,85.1L100.1,85.1z"/>
	<path id="_x31_59" class="st2" d="M90.3,61.8c0.1,0.1,0.2,0.3,0.2,0.3c0-0.1,0-0.1-0.1-0.3c-0.1-0.2-0.2-0.3-0.2-0.3
		s-0.2-0.3-0.3-0.5c-0.1-0.1-0.2-0.2-0.1,0.1C90.1,61.5,90.2,61.7,90.3,61.8z"/>
	<path id="_x31_58" class="st2" d="M89.6,64c0.1,0.1,0.2,0.2,0.3,0.4c0.1,0.2,0.2,0.3,0.3,0.3c0.1-0.1-0.2-0.3-0.3-0.5
		c-0.1-0.2-0.2-0.3-0.3-0.4c-0.1-0.1-0.3-0.3-0.3-0.3S89.5,63.9,89.6,64L89.6,64z"/>
	<path id="_x31_57" class="st2" d="M89.8,67.5c0.2,0.3,0.5,0.3,0.5,0.2c0-0.1,0-0.2-0.2-0.3c-0.2-0.1-0.4-0.3-0.5-0.4
		c-0.1-0.1-0.3-0.2-0.3-0.4c-0.1-0.1-0.2-0.2-0.2-0.2c0,0,0.3,0.5,0.3,0.5C89.5,67.1,89.7,67.3,89.8,67.5L89.8,67.5z"/>
	<path id="_x31_56" class="st2" d="M90.4,70.4c0-0.1,0-0.2-0.1-0.2c-0.2,0-0.4-0.1-0.4-0.1s-0.3-0.2-0.3-0.1c0,0.1,0.3,0.2,0.4,0.3
		c0.1,0,0.3,0.1,0.3,0.1C90.3,70.5,90.4,70.5,90.4,70.4L90.4,70.4z"/>
	<path id="_x31_55" class="st2" d="M90.6,73.4c-0.3,0-0.6-0.1-0.6,0c0,0.1,0.2,0.2,0.3,0.2c0.2,0.1,0.5,0.1,0.7,0.1
		c0.2,0,0.3-0.1,0.2-0.2C91.2,73.4,90.9,73.4,90.6,73.4z"/>
	<path id="_x31_54" class="st2" d="M93.2,76.8c0-0.1-0.2,0-0.4,0c-0.2,0.1-0.5,0.1-0.7,0.1c-0.2,0-0.6,0-0.6,0L91.4,77
		c0,0.1,0.3,0.1,0.7,0.1c0.4,0.1,0.7-0.1,0.9-0.1C93.2,77,93.2,76.8,93.2,76.8L93.2,76.8z"/>
	<path id="_x31_53" class="st2" d="M94.3,79.2c-0.2,0.1-0.3,0.1-0.5,0.1c-0.2,0-0.5,0.1-0.5,0.1s-0.2,0-0.1,0.1c0,0.1,0.1,0,0.2,0
		c0.2,0,0.3,0,0.5,0c0.3,0,0.4-0.1,0.6-0.1c0.2,0,0.3-0.2,0.3-0.3C94.6,78.9,94.5,79.1,94.3,79.2L94.3,79.2z"/>
	<path id="_x31_52" class="st2" d="M96.3,81c-0.1,0.2-0.6,0.6-0.6,0.6s-0.1,0.1-0.3,0.2c-0.2,0.1-0.2,0.2-0.1,0.2
		c0,0.1,0.1-0.1,0.2-0.1c0.1-0.1,0.4-0.3,0.6-0.5c0.2-0.2,0.4-0.3,0.3-0.5C96.5,80.7,96.5,80.8,96.3,81L96.3,81z"/>
	<path id="_x31_51" class="st2" d="M92.9,57.6c0,0,0,0.1,0.4,0.7c0.4,0.6,0.2,0,0.1-0.1c-0.1-0.2-0.6-1.1-0.8-1.4
		c-0.2-0.3-0.2-0.1-0.1,0C92.5,57,92.9,57.6,92.9,57.6z"/>
	<path id="_x31_50" class="st2" d="M92.1,60.7c0.1-0.1-0.1-0.1-0.3-0.5c-0.2-0.3-0.6-1-0.6-1s-0.1-0.3-0.2-0.3c0,0,0.1,0.5,0.3,0.8
		c0.2,0.2,0.4,0.6,0.5,0.8C92,60.7,92.1,60.7,92.1,60.7L92.1,60.7z"/>
	<path id="_x31_49" class="st2" d="M93.1,66.4c0-0.2-0.4-0.1-0.6-0.2c-0.2-0.1-0.5-0.1-0.5-0.1s-0.4-0.1-0.4,0
		c0,0.1,0.1,0.1,0.3,0.2c0.2,0.1,0.5,0.2,0.8,0.2C92.9,66.5,93.1,66.6,93.1,66.4L93.1,66.4z"/>
	<path id="_x31_48" class="st2" d="M92.1,63.3c0.3,0.3,0.4,0.4,0.6,0.5C92.9,64,93,64.1,93,64c0.1-0.1-0.1-0.2-0.3-0.3
		c-0.2-0.1-0.3-0.3-0.3-0.3s-0.1-0.1-0.2-0.2C92,63.1,91.9,63,92.1,63.3L92.1,63.3z"/>
	<path id="_x31_47" class="st2" d="M94.4,61.3c-0.2-0.2-0.3-0.3-0.3-0.3s-0.2-0.3-0.2-0.2c0,0.1,0.2,0.3,0.4,0.5
		c0.1,0.2,0.4,0.6,0.5,0.5C94.8,61.7,94.6,61.5,94.4,61.3z"/>
	<path id="_x31_46" class="st2" d="M92.9,69.3c0,0-0.2,0.1-0.4,0.1c-0.1,0.1-0.2,0.1,0.1,0.1c0.3,0,0.4-0.1,0.6-0.2
		c0.3-0.1,0.4-0.1,0.3-0.2c0-0.1-0.2-0.1-0.3,0C93.2,69.2,92.9,69.3,92.9,69.3z"/>
	<path id="_x31_45" class="st2" d="M93.3,72.2c0,0.1,0.2,0,0.3-0.1c0.1-0.1,0.4-0.3,0.6-0.3c0.2-0.1,0.2-0.1,0.2-0.2
		c0-0.1-0.2,0-0.4,0.1c-0.2,0.1-0.5,0.4-0.5,0.4S93.4,72.2,93.3,72.2z"/>
	<path id="_x31_44" class="st2" d="M96.1,74c0.2-0.2,0.2-0.3,0.2-0.4c-0.1-0.1-0.1-0.1-0.3,0.1c-0.2,0.2-0.5,0.5-0.5,0.5
		s-0.2,0.1-0.3,0.2c-0.1,0.1-0.3,0.2-0.2,0.3c0,0.1,0.3,0,0.4-0.1C95.6,74.3,96,74.1,96.1,74L96.1,74z"/>
	<path id="_x31_43" class="st2" d="M97.5,76.3c0.1-0.1,0.3-0.2,0.4-0.3c0.1-0.1,0.2-0.4,0.1-0.5c-0.1,0-0.1,0.1-0.3,0.3
		c-0.2,0.2-0.8,0.7-0.8,0.7l-0.2,0.1c-0.2,0.1-0.1,0.2,0,0.1c0.1,0,0.2,0,0.4-0.2C97.3,76.4,97.4,76.4,97.5,76.3z"/>
	<path id="_x31_42" class="st2" d="M99.4,78.5c0.2-0.1,0.4-0.4,0.5-0.5c0.1-0.1,0.3-0.3,0.2-0.4c-0.1-0.1-0.2,0-0.3,0.2
		c-0.1,0.2-0.5,0.7-0.5,0.7s0,0-0.2,0.2c-0.2,0.2,0,0.2,0.1,0.1C99.2,78.7,99.3,78.6,99.4,78.5L99.4,78.5z"/>
	<polygon id="_x31_41" class="st3" points="107.4,45.3 108.2,44.5 107.3,44.2 106.7,44.8 	"/>
	<path id="_x31_40" class="st2" d="M110,43.4c0.4,0,0.8,0.4,0.8,1c0,0.5-0.3,1-0.8,1c-0.4,0-0.8-0.4-0.8-1
		C109.2,43.9,109.5,43.4,110,43.4z"/>
	<path id="_x31_39" class="st3" d="M110,43.6c0.3,0,0.5,0.3,0.5,0.6c0,0.3-0.2,0.6-0.5,0.6c-0.3,0-0.5-0.3-0.5-0.6
		C109.5,43.9,109.7,43.6,110,43.6z"/>
	<path id="_x31_38" class="st3" d="M108.4,41.1c0.2,0.1,0.4,0.1,0.4,0.1s0.1-0.4-0.1-0.7c-0.2-0.2-0.4-0.4-0.5-0.5
		c-0.1-0.1-0.1-0.2-0.1-0.2s0,0.4,0,0.6C108.1,40.6,108.2,41,108.4,41.1L108.4,41.1z"/>
	<path id="_x31_37" class="st3" d="M108.8,41.4c0.1,0,0.1,0.1,0.1,0.2c0,0.1-0.1,0.2-0.1,0.2c-0.1,0-0.1-0.1-0.1-0.2
		C108.6,41.5,108.7,41.4,108.8,41.4z"/>
	<path id="_x31_36" class="st3" d="M107.8,41.4c-0.1,0.1-0.2,0.3-0.2,0.3s0.2,0,0.3,0.1c0.1,0.1,0.3,0.2,0.4,0.2
		c0.1,0,0.2-0.2,0.2-0.3c0-0.1-0.1-0.3-0.3-0.4C107.9,41.1,107.8,41.3,107.8,41.4z"/>
	<path id="_x31_35" class="st3" d="M108.3,42.5c-0.5,0.1-1.1-0.6-1.1-0.6c-0.1,0.6-0.3,0.9-0.7,1l0,0c0,0,0.4,0.3,0.8,0.3
		c0.2,0,0.4,0,0.6-0.1c0.3-0.1,0.5-0.2,0.7-0.3c0.3-0.2,0.2-0.8,0.2-0.8S108.8,42.5,108.3,42.5L108.3,42.5z"/>
	<path id="_x31_34" class="st3" d="M106.4,41.9c-0.2-0.1-0.5-0.3-0.6-0.3c-0.1,0-0.3,0-0.3,0.3c0,0.3,0.3,0.4,0.5,0.5
		c0.2,0,0.3-0.1,0.5-0.2C106.7,42,106.6,42,106.4,41.9z"/>
	<path id="_x31_33" class="st3" d="M105,40.8c-0.2-0.2-0.4-0.3-0.4-0.3s-0.1,0.5-0.1,0.8c0.1,0.3,0.2,0.4,0.4,0.4
		c0.2,0,0.5-0.1,0.4-0.3C105.3,41.2,105.2,41,105,40.8L105,40.8z"/>
	<path id="_x31_32" class="st3" d="M105.1,42c0.1,0,0.2,0.1,0.2,0.2c0,0.1-0.1,0.2-0.2,0.2s-0.2-0.1-0.2-0.2
		C105,42.1,105.1,42,105.1,42z"/>
	<path id="_x31_31" class="st3" d="M105.6,39.8c-0.1-0.8-0.1-1.7,0.5-2.9c0.6-1.2,1.6-1.6,1.6-1.6s0-0.1,0.4-0.6
		c0.3-0.5,1-1.1,1-1.1s-0.8,0.3-1.2,0.4c0,0,0,0,0,0c0,0.4-0.2,0.7-0.5,0.7c-0.1,0-0.2,0-0.3-0.1c-0.2,0.1-1,0.7-1.2,0.9
		c0.1,0.1,0.1,0.2,0.1,0.4c0,0.4-0.2,0.7-0.5,0.7c-0.1,0-0.2,0-0.2-0.1c0,0.1,0,0.1-0.1,0.2c-0.2,0.4-0.3,0.8-0.4,1.2
		c0.1,0.1,0.2,0.4,0.2,0.6c0,0.4-0.2,0.7-0.5,0.7c0,0.2,0,0.4,0,0.5c0,0.2,0.1,0.4,0.4,0.5c0.3,0.1,0.7,0.8,0.7,0.8
		C105.5,41.1,105.8,40.6,105.6,39.8L105.6,39.8z"/>
	<path id="_x31_30" class="st3" d="M107.5,34.5c0.1-0.1,0.1-0.3,0-0.4c-0.1-0.1-0.3-0.1-0.4,0c-0.1,0.1-0.1,0.3,0,0.4
		C107.2,34.6,107.4,34.6,107.5,34.5z"/>
	<path id="_x31_29" class="st3" d="M105.5,36.2c0.1-0.2,0.1-0.4,0-0.5c-0.1-0.1-0.3-0.1-0.4,0c-0.1,0.2-0.1,0.4,0,0.5
		C105.2,36.4,105.4,36.4,105.5,36.2z"/>
	<path id="_x31_28" class="st3" d="M104.3,38.1c0.2,0,0.3,0.2,0.3,0.4c0,0.2-0.1,0.4-0.3,0.4c-0.2,0-0.3-0.2-0.3-0.4
		C104,38.3,104.2,38.1,104.3,38.1z"/>
	<path id="_x31_27" class="st3" d="M110.9,32.8c-0.2,0-0.5,0.2-0.9,0.5h0c0.3,0,0.5,0.3,0.5,0.6c0,0.3-0.3,0.7-0.6,0.7
		c-0.3,0-0.5-0.4-0.5-0.7c0-0.1,0-0.2,0-0.2c-0.1,0.1-0.3,0.2-0.4,0.4c-1,0.9-1.2,1.3-1.7,2.5c-0.5,1.2-0.7,2.5-0.4,3.3
		c0.2,0.8,1,0.9,1,0.9c0,0-0.1-0.1-0.1-0.3c0-0.1,0-0.2,0.1-0.5c0-0.3,0-0.6,0-0.6s0.2,0,0.3,0.1c0.1,0.2,0.2,0.4,0.3,0.5
		c0.1,0.2,0.4,0.5,0.4,0.5s0.2-0.3,0.2-0.6c0-0.3-0.2-0.7-0.2-1.3s0.2-1.7,0.7-2.5c0.4-0.8,1.3-1.5,1.5-1.7c0.3-0.2,0.3-0.4,0.3-0.6
		c0-0.1,0-0.2,0.1-0.6C111.4,32.7,111.2,32.7,110.9,32.8L110.9,32.8z"/>
	<path id="_x31_26" class="st3" d="M110,34.2c0.2,0,0.3-0.2,0.3-0.4c0-0.2-0.1-0.3-0.3-0.3c-0.2,0-0.3,0.2-0.3,0.3
		S109.8,34.2,110,34.2z"/>
	<path id="_x31_25" class="st3" d="M111.4,41.8c0.2,0.1,0.5,0.1,0.6-0.1c0.1-0.1,0.2-0.4,0-0.6c-0.1-0.2-0.4-0.2-0.5-0.1
		c-0.1,0.1-0.4,0.4-0.4,0.4S111.2,41.7,111.4,41.8L111.4,41.8z"/>
	<path id="_x31_24" class="st3" d="M112.2,42.2c-0.1,0.2-0.1,0.3-0.4,0.3c-0.3,0-0.5,0-0.7-0.2c-0.2-0.2-0.3-0.5-0.3-0.5l-0.3,0
		c0,0-0.1,0.5-0.2,0.7c-0.1,0.2-0.6,0.2-0.8,0c-0.2-0.2-0.4-0.4-0.4-0.4c0,0,0,0.2,0.2,0.5c0.2,0.2,0.3,0.4,0.7,0.4h1.9
		c0,0,0.4,0,0.5-0.3c0.1-0.3,0.1-0.5,0.1-0.6C112.3,41.9,112.3,42,112.2,42.2L112.2,42.2z"/>
	<path id="_x31_23" class="st3" d="M109.3,41.8c0.3,0.2,0.4,0.1,0.5-0.1c0.1-0.2,0.1-0.2,0.1-0.2s-0.3-0.1-0.4-0.2
		c-0.1-0.1-0.2-0.2-0.3-0.2c-0.1,0-0.1,0-0.1,0S109,41.6,109.3,41.8L109.3,41.8z"/>
	<path id="_x31_22" class="st2" d="M108,37.3c0.3,0,0.6,0.4,0.6,0.8c0,0.5-0.3,0.8-0.6,0.8c-0.3,0-0.6-0.4-0.6-0.8
		C107.3,37.6,107.6,37.3,108,37.3z"/>
	<path id="_x31_21" class="st2" d="M109.1,35.2c-0.2-0.2-0.6-0.1-0.8,0.2c-0.2,0.3-0.2,0.8,0.1,1c0.2,0.2,0.6,0.1,0.8-0.2
		C109.3,35.9,109.3,35.4,109.1,35.2z"/>
	<path id="_x31_20" class="st3" d="M107.9,37.5c0.2,0,0.4,0.2,0.4,0.5c0,0.3-0.2,0.5-0.4,0.5c-0.2,0-0.4-0.2-0.4-0.5
		C107.6,37.7,107.7,37.5,107.9,37.5z"/>
	<path id="_x31_19" class="st3" d="M108.8,35.3c-0.2-0.1-0.4,0-0.4,0.2c-0.1,0.2,0,0.4,0.2,0.4C109,36.1,109.1,35.4,108.8,35.3
		L108.8,35.3z"/>
	<path id="_x31_18" class="st3" d="M99.3,99.7c0,0-1,0.6-1.3,0.7c-0.3,0.1-0.4,0.1-0.4,0.1s-0.7,0.8-1.1,1.2
		c-0.5,0.4-1.1,0.7-1.7,0.8c-0.8,0.1-2.8,0.1-3.8,0c-0.9,0-1.5,0.3-1.9,0.8c-0.4,0.6-0.5,1.5,0,2.1c0.5,0.7,1.1,0.3,1.3-0.1
		c0.2-0.4,0.1-0.9,0-1.2c-0.1-0.2,0.2-0.3,0.4-0.3c0.3,0,0.7,0,1.1,0.1c0.4,0.1,1.1,0.4,1.4,0.6c0.3,0.2,0.1,0.3-0.1,0.2
		c-0.2,0-0.4-0.2-0.8-0.3c-0.4-0.2-0.7-0.3-0.9-0.3c-0.2,0-0.2,0.2-0.1,0.3c0,0.1,0.2,0.4,0.2,0.5c0,0.1-0.1,0.6-0.1,0.6l0.1,0.3
		c0,0,0.1-0.3,0.2-0.5c0-0.2,0-0.5,0-0.6c0-0.1,0.2-0.1,0.4,0.1c0.2,0.2,0.3,0.5,0.4,1.1c0.1,0.6-0.1,1-0.1,1s0.2,0.2,0.2,0.3
		c0,0.1,0,0.7,0,0.7s0.1,0.1,0.2-0.2c0.1-0.3,0.3-0.9,0.3-1.1c0-0.2,0.1-0.6,0.3-0.3c0.2,0.3,0.3,0.6,0.4,0.8c0,0.2,0,0.3,0,0.3
		s0.4-0.6,0.6-0.9c0.1-0.3,0.4-0.8,0.8-1.2c0.4-0.4,1.1-1.3,1.4-1.6c0.3-0.3,1.2-0.9,1.5-1.1c0.3-0.2,0.3-0.2,0.4-0.8
		c0-0.6,0.3-1.2,0.4-1.6C99.2,99.8,99.3,99.7,99.3,99.7L99.3,99.7z"/>
	<path id="_x31_17" class="st3" d="M83.8,76.7c0-0.1-0.2-0.5-0.2-0.7c0-0.2-0.2-0.1-0.2-0.1s-0.3,0.2-0.5,0.3
		c-0.2,0.1-0.3,0-0.3-0.2c0-0.2-0.1-0.7-0.1-1c0-0.3-0.1-0.3-0.2-0.3c-0.1,0.1-0.4,0.2-0.6,0.3c-0.2,0.1-0.1,0.2-0.1,0.4
		c0.1,0.1,0.3,0.8,0.4,1c0.1,0.2,0,0.3-0.1,0.4c-0.1,0.1-0.3,0.1-0.5,0.2c-0.2,0.1-0.2,0.2-0.2,0.3c0,0.1,0.2,0.5,0.3,0.7
		c0.1,0.2,0.2,0.1,0.2,0.1s0.3-0.3,0.5-0.4c0.2-0.1,0.2-0.1,0.3,0.1c0.1,0.2,0.3,1.3,0.3,1.5c0,0.2,0.1,0.2,0.2,0.1
		c0.1-0.1,0.3-0.1,0.4-0.1c0.1-0.1,0.2-0.4,0.2-0.4s-0.5-1.1-0.6-1.4c-0.1-0.3,0-0.3,0.1-0.4c0.1,0,0.4-0.1,0.6-0.1
		C83.9,76.9,83.8,76.7,83.8,76.7L83.8,76.7z"/>
	<path id="_x31_16" class="st3" d="M89.1,106.8c0-0.3,0-0.5-0.2-0.7c-0.2-0.2-0.3-0.6-0.4-0.9c-0.1-0.3,0.1-0.5,0-0.7
		c0-0.2-0.2-0.2-0.4,0c-0.2,0.2-0.4,0.4-0.4,1s0.2,1.3,0.8,1.6C89.1,107.3,89.1,107.1,89.1,106.8L89.1,106.8z"/>
	<path id="_x31_15" class="st3" d="M89.7,106.5c0,0-0.1-0.1-0.2,0c-0.1,0.2,0,0.2,0.1,0.6c0.2,0.3,0.3,0.4,0.5,0.6
		c0.2,0.2,0.1-0.2,0-0.3c0-0.1,0-0.2,0-0.3c0-0.1-0.1-0.2-0.1-0.4C90,106.5,89.7,106.5,89.7,106.5L89.7,106.5z"/>
	<path id="_x31_14" class="st3" d="M90.5,109.4c0.1-0.2,0.2-0.3,0.5-0.5c0.3-0.2,0.8-0.3,1-0.3c0.2,0,0.6-0.5,0.5-0.9
		c-0.1-0.5-0.3-0.7-0.5-0.7c-0.2-0.1-0.4-0.1-0.5,0.1c-0.1,0.1-0.2,0.3-0.4,0.4c-0.2,0.1-0.3,0.2-0.4,0.3c-0.2,0.1,0,0.2-0.2,0.3
		c-0.1,0.1-0.3,0-0.5-0.1c-0.2-0.1-0.2-0.1-0.4-0.1c-0.2,0-0.8-0.1-0.8-0.1s0,0-0.2,0c-0.1,0-0.1,0-0.2,0.2c-0.1,0.2,0,0.7,0.2,0.9
		c0.1,0.2,0.6,0.3,0.9,0.5c0.3,0.1,0.5,0.2,0.7,0.2C90.3,109.7,90.4,109.6,90.5,109.4L90.5,109.4z"/>
	<path id="_x31_13" class="st3" d="M93.3,109.7c0.2-0.2,0.1-0.6,0-0.8c-0.1-0.2-0.4-0.3-0.6-0.3c-0.2,0-0.3,0-0.4,0.1
		c-0.1,0.1-0.2,0.3-0.5,0.4c-0.3,0.1-0.5,0.2-0.8,0.4c-0.4,0.2-0.5,0.5-0.6,0.6c-0.2,0.1-0.4,0-0.4,0s-0.2-0.1-0.3,0
		c-0.1,0.1,0,0.2,0.1,0.4c0.1,0.2,0.4,0.2,0.7,0.3c0.3,0.1,0.4,0,0.5-0.1c0.1-0.1,0.2-0.3,0.4-0.5c0.2-0.2,0.7-0.2,0.9-0.2
		C92.7,110.1,93.1,110,93.3,109.7L93.3,109.7z"/>
	<path id="_x31_12" class="st3" d="M93.3,108.3c0.1,0.1,0.2,0.3,0.3,0.1c0.1-0.2,0.2-0.6,0.1-0.9c-0.1-0.3-0.2-0.5-0.2-0.5
		s-0.2,0.7-0.3,0.9C93.2,108.2,93.2,108.2,93.3,108.3L93.3,108.3z"/>
	<path id="_x31_11" class="st3" d="M92.4,106.1c0-0.4-0.2-0.9-0.2-0.9s-0.1,0.4-0.2,0.7c-0.1,0.3-0.3,0.5-0.3,0.5s0.3,0.1,0.4,0.1
		C92.2,106.6,92.4,106.6,92.4,106.1L92.4,106.1z"/>
	<path id="_x31_10" class="st3" d="M90.6,107c0.3-0.1,0.5-0.3,0.6-0.4c0.1-0.2,0.2-0.6,0.1-0.8c-0.1-0.2-0.3-0.5-0.4-0.5h-0.2
		c0,0-0.1,0.4-0.2,0.6c-0.1,0.2-0.3,0.3-0.3,0.6C90.3,106.8,90.3,107.1,90.6,107L90.6,107z"/>
	<path id="_x31_09" class="st3" d="M91.3,105c0-0.2,0-0.4-0.2-0.6c-0.1-0.1-0.2-0.2-0.2-0.2s0,0.3,0,0.5c0,0.2,0,0.2,0,0.2
		s0.1,0.1,0.2,0.2C91.1,105.1,91.3,105.2,91.3,105L91.3,105z"/>
	<path id="_x31_08" class="st3" d="M87.2,93.9l0.2-1.9c-0.2-1.9-0.9-3.6-1.5-4.8c-0.6-1.2-1.2-3.1-1.4-4.1c-0.3-1-0.4-2.4-0.4-3.1
		c0-0.7,0.2-1.1,0.2-1.1s0.1-0.2,0-0.3c-0.1-0.1-0.2,0-0.4,0.2c-0.1,0.2-0.3,0.6-0.4,0.8c-0.1,0.3-0.1,0.4-0.1,0.4s-0.3-0.1-0.8,0
		c-0.5,0.1-0.7,0.1-0.7,0.2c0,0.1,0.1,0.2,0.4,0.4c0.3,0.2,0.6,0.3,0.7,0.5c0.2,0.3,0.6,1.6,0.7,2.3c0.1,0.7,0.4,2.4,0.5,3.8
		c0.1,1.4,0.5,3.1,1,4.5C85.6,92.1,86.5,94.3,87.2,93.9L87.2,93.9z"/>
	<path id="_x31_07" class="st3" d="M88.1,97.1c-0.3,0.2-0.3,2-0.2,2.9c0.1,0.9,0.8,2,1,2.3c0.2,0.3,0.3,0.3,0.4,0.2
		c0.1-0.1,0.2-0.1,0.2-0.1s0.3-0.1,0.5-0.4c0.2-0.2,0.1-0.8,0.1-1.3c0-0.5-0.3-1.5-0.8-2.6C88.7,97.1,88.4,96.9,88.1,97.1L88.1,97.1
		z"/>
	<path id="_x31_06" class="st3" d="M88.4,95.7c0-0.6-0.4-1-0.8-1c-0.2,0-0.4,0.1-0.5,0.2c-0.4,0.5-0.2,1.8,0.5,1.8
		c0.2,0,0.5-0.1,0.7-0.3C88.4,96.3,88.4,96,88.4,95.7L88.4,95.7z"/>
	<path id="_x31_05" class="st3" d="M94.6,112.2c-0.2,0-0.3-0.1-0.5-0.4c-0.3-0.2-0.7-0.7-0.7-0.9c-0.1-0.2-0.1-0.2-0.3-0.1
		c-0.2,0.1-0.6,0.1-0.8,0.1c-0.3,0,0,0.4,0.2,0.8c0.2,0.4,0.1,1.6,0.1,1.6s0,0.1,0,0.3c0,0.2,0,0.3,0.1,0.3c0.1,0,0.1,0,0.3-0.3
		c0.2-0.3,0.5-1,0.5-1s0.1,0,0.3,0.1c0.3,0.1,0.7,0,1-0.1C94.9,112.5,94.8,112.2,94.6,112.2L94.6,112.2z"/>
	<path id="_x31_04" class="st3" d="M93.6,113.1c-0.1,0-0.2,0-0.2,0.1c-0.1,0.1-0.1,0.3-0.1,0.4c0,0.1,0,0.2,0.1,0.3
		c0.1,0.1,0.2,0.2,0.2,0.2s0.1,0.1,0.2,0.2c0.1,0.1,0.1-0.1,0.1-0.3c0-0.1,0.1-0.4,0.1-0.6C93.8,113.2,93.7,113.2,93.6,113.1
		L93.6,113.1z"/>
	<path id="_x31_03" class="st4" d="M139.4,101.3c-0.3-0.1-0.4-0.2-0.4-0.2s-0.1,0-0.2,0.2c-0.1,0.2-0.5,0.6-0.5,0.6
		s-0.5,0.2-0.6,0.7c-0.1,0.5,0.2,0.7,0.4,0.6c0.3-0.1,0.9-0.2,1.1-0.7c0.3-0.4,0.3-0.7,0.4-0.8C139.7,101.5,139.7,101.4,139.4,101.3
		L139.4,101.3z"/>
	<path id="_x31_02" class="st4" d="M140.3,97.4c-0.2-1.1-0.7-2.4-1.7-3.1c0,0-0.4,1.8-0.5,2.3c-0.1,0.6-0.1,0.5,0.2,0.7
		c0.3,0.1,1.4,0.4,1.6,0.5C140,97.9,140.4,98.1,140.3,97.4L140.3,97.4z"/>
	<path id="_x31_01" class="st4" d="M135.5,96.4c0.2,0.1,0.2-0.1,0.3-0.5c0.1-0.4,0.5-2.6,0.5-2.6s-1.1-0.1-2,0.5
		c-0.9,0.6-1.3,1.7-1.3,1.7s0.2,0.1,0.9,0.3C134.4,96.1,135.2,96.4,135.5,96.4L135.5,96.4z"/>
	<path id="_x31_00" class="st4" d="M133,99.4c-0.4-0.1-0.5-0.1-0.5-0.1s0.2,1.2,0.6,1.9c0.4,0.7,0.8,1,1.6,1c0.8,0,1.4-0.6,1.5-1
		c0.1-0.5,0.3-0.8,0.3-0.8s-1.5-0.3-2.1-0.4C133.8,99.6,133.4,99.4,133,99.4L133,99.4z"/>
	<path id="_x39_9" class="st3" d="M132.7,98.6c0.4,0.1,3.4,0.9,3.6,1c0.3,0.1,0.5,0.1,0.5,0.1c0.1-0.1,0.1-0.1,0.4-0.3
		c0.3-0.1,0.3-0.5,0.3-0.5s0.1-0.3,0.1-0.7c0-0.3,0.2-0.4,0.5,0c0.3,0.4,0.4,1,0.4,1.6c0.1,0.6,0.7,0.7,1,0.8
		c0.3,0.1,0.4-0.1,0.5-0.4c0.2-0.3,0.2-1,0.3-1.4c0-0.4,0-0.4-0.3-0.5c-0.3-0.1-1.9-0.6-2.2-0.7c-0.3-0.1-0.2-0.3-0.2-0.6
		c0-0.3,0.7-2.9,0.7-2.9c-0.4-0.4-1.1-0.6-1.8-0.7c0,0-0.4,2.7-0.5,3.1c-0.1,0.4-0.3,0.4-0.6,0.3c-0.3-0.1-2.7-0.8-2.7-0.8
		s0,0-0.2,0.6c-0.2,0.6-0.3,1.3-0.3,1.6C132.3,98.5,132.4,98.5,132.7,98.6L132.7,98.6z"/>
	<path id="_x39_8" class="st3" d="M140.7,101c-0.3-0.3-0.5-0.3-0.7,0.2c-0.2,0.5-0.2,1.2-0.6,1.8c-0.4,0.5-1,1.1-1.5,1
		c-0.6-0.1-0.9-0.2-0.8-1.1c0.1-0.9,1-1.1,1.2-1.6c0.2-0.4,0.1-1-0.1-1.3c-0.3-0.3-0.7-0.4-0.8-0.3c-0.1,0.1-0.5,0.5-0.6,1.1
		c-0.2,0.6-0.3,1.2-0.7,1.6c-0.4,0.4-1.3,0.8-2.1,0.6c-0.8-0.2-1-0.5-1.3-1.5c-0.3-1-0.6-2.6-0.8-2.8c-0.1-0.2-0.3-0.3-0.7,0
		c-0.3,0.3-0.3,0.8-0.4,1.1c0,0.4,0,0.8,0.3,1.3c0.3,0.5,0.7,1,0.8,1.6c0.1,0.5,0.5,1.4,0,1.4c-0.5,0-0.7,0.1-1.1-0.4
		c-0.4-0.5-1.9-1.9-2.3-2.3c-0.4-0.4-0.6-0.6-0.6-0.6c-0.7,0-1.4-0.4-2.1-1c0,0,0.4,1.4,0.5,1.9c0.1,0.5,0.1,0.8,0.1,0.8
		s1.5,1,2.1,1.4c0.6,0.4,1.8,1.3,2.4,1.8c0.6,0.5,1.1,1.2,2.1,1c1-0.3,3.2-1.1,3.9-1.4c0.7-0.3,2.6-0.9,3.3-1.5
		c0.7-0.6,0.8-0.6,0.9-1.3C141.1,101.7,141,101.3,140.7,101L140.7,101z"/>
	<path id="_x39_7" class="st3" d="M136.7,91.4c0.1,0,0.2,0,0.5-0.1c0.4-0.1,0.2,0.4,0.2,0.6c-0.1,0.2-0.2,0.5-0.3,0.9
		c-0.1,0.3,0,0.4,0.1,0.4c0.1,0.1,0.2,0.1,0.5,0.2c0.3,0.1,0.2-0.2,0.2-0.3c0-0.1,0-0.9,0.1-1.2c0-0.3,0.2-0.2,0.3-0.1
		c0.1,0.1,0.2,0.2,0.4,0.3c0.1,0.1,0.2,0,0.2-0.1c0-0.1,0.1-0.3,0.2-0.6c0.1-0.3-0.1-0.2-0.2-0.2c-0.1,0-0.3,0-0.6,0
		c-0.2,0-0.1-0.3-0.1-0.3s0.2-0.4,0.3-0.7c0.1-0.3,0.1-0.3,0-0.4c-0.1-0.1-0.5-0.2-0.7-0.2c-0.1,0-0.2,0-0.2,0.1c0,0.1,0,0.6,0,0.8
		c0,0.2,0,0.3-0.2,0.3c-0.2,0-0.3-0.1-0.5-0.4c-0.2-0.2-0.2-0.1-0.2-0.1c0,0.1-0.1,0.8-0.2,1C136.5,91.4,136.5,91.4,136.7,91.4
		L136.7,91.4z"/>
	<path id="_x39_6" class="st3" d="M137.8,98.2c0,0,0,0.5-0.1,0.7c0,0.2-0.1,0.5,0,0.5c0.2,0.1,0.3,0.2,0.4,0.1c0.1,0,0.1-0.3,0-0.5
		c-0.1-0.2-0.1-0.5-0.3-0.7C137.8,98.2,137.8,98.2,137.8,98.2L137.8,98.2z"/>
	<path id="_x39_5" class="st3" d="M140.2,100.3c0.1,0.2,0.2,0.2,0.3,0.2c0.1,0,0.2,0,0.2-0.2c0-0.2,0-0.5-0.1-0.7
		c-0.1-0.2-0.2-0.4-0.3-0.1C140.3,100,140.2,100.2,140.2,100.3L140.2,100.3z"/>
	<path id="_x39_4" class="st3" d="M131.7,98.1c0.1,0,0.3,0.1,0.3,0.1s0-0.5,0.1-0.9c0.1-0.4,0.2-0.6,0.1-0.6c-0.1,0-0.2,0.1-0.2,0.3
		c-0.1,0.1-0.3,0.2-0.3,0.6C131.5,98.1,131.6,98.1,131.7,98.1L131.7,98.1z"/>
	<path id="_x39_3" class="st2" d="M133.3,96.5c0.3,0,0.5,0.3,0.5,0.7c0,0.4-0.2,0.7-0.5,0.7c-0.3,0-0.5-0.3-0.5-0.7
		C132.8,96.8,133,96.5,133.3,96.5z"/>
	<path id="_x39_2" class="st2" d="M134.9,97c0.3,0,0.6,0.3,0.6,0.7c0,0.4-0.3,0.7-0.6,0.7c-0.3,0-0.6-0.3-0.6-0.7
		C134.3,97.3,134.6,97,134.9,97z"/>
	<path id="_x39_1" class="st2" d="M139.4,98.3c0.3,0,0.6,0.3,0.6,0.7c0,0.4-0.3,0.7-0.6,0.7c-0.3,0-0.6-0.3-0.6-0.7
		C138.8,98.6,139.1,98.3,139.4,98.3z"/>
	<path id="_x39_0" class="st2" d="M136.4,97.5c0.3,0,0.6,0.3,0.6,0.7c0,0.4-0.3,0.7-0.6,0.7c-0.3,0-0.6-0.3-0.6-0.7
		C135.9,97.8,136.1,97.5,136.4,97.5z"/>
	<path id="_x38_9" class="st2" d="M136.8,95.7c0.3,0,0.6,0.3,0.6,0.7s-0.3,0.7-0.6,0.7c-0.3,0-0.6-0.3-0.6-0.7
		S136.5,95.7,136.8,95.7z"/>
	<path id="_x38_8" class="st2" d="M137.2,93.9c0.3,0,0.6,0.3,0.6,0.7c0,0.4-0.3,0.7-0.6,0.7c-0.3,0-0.6-0.3-0.6-0.7
		C136.7,94.2,136.9,93.9,137.2,93.9z"/>
	<path id="_x38_7" class="st3" d="M133.4,96.8c0.2,0,0.3,0.2,0.3,0.4c0,0.2-0.1,0.4-0.3,0.4c-0.2,0-0.3-0.2-0.3-0.4
		C133.1,97,133.2,96.8,133.4,96.8z"/>
	<path id="_x38_6" class="st3" d="M134.9,97.3c0.2,0,0.3,0.2,0.3,0.4c0,0.2-0.1,0.4-0.3,0.4c-0.2,0-0.3-0.2-0.3-0.4
		C134.6,97.5,134.8,97.3,134.9,97.3z"/>
	<path id="_x38_5" class="st3" d="M139.4,98.6c0.2,0,0.3,0.2,0.3,0.4c0,0.2-0.1,0.4-0.3,0.4c-0.2,0-0.3-0.2-0.3-0.4
		C139.1,98.7,139.3,98.6,139.4,98.6z"/>
	<path id="_x38_4" class="st3" d="M136.5,97.8c0.2,0,0.3,0.2,0.3,0.4c0,0.2-0.1,0.4-0.3,0.4c-0.2,0-0.3-0.2-0.3-0.4
		C136.2,98,136.3,97.8,136.5,97.8z"/>
	<path id="_x38_3" class="st3" d="M136.9,96c0.2,0,0.3,0.2,0.3,0.4c0,0.2-0.1,0.4-0.3,0.4c-0.2,0-0.3-0.2-0.3-0.4
		C136.6,96.2,136.7,96,136.9,96z"/>
	<path id="_x38_2" class="st3" d="M137.3,94.2c0.2,0,0.3,0.2,0.3,0.4c0,0.2-0.1,0.4-0.3,0.4c-0.2,0-0.3-0.2-0.3-0.4
		C137,94.4,137.1,94.2,137.3,94.2z"/>
	<path id="_x38_1" class="st3" d="M119.4,112.2c-0.3-0.3-0.6-0.5-1.2-1.1c-0.7-0.6-0.9-1.3-0.9-1.3h0.2c0.1,0,0.2-0.2,0.2-0.5
		c0-0.2,0-0.7,0-1.3c0-0.6,0.1-1,0.1-1s0.3,0.4,0.7,0.7c0.4,0.3,0.6,0.2,0.6,0.2l0.1-0.6c0,0,0.2,0.5,0.5,1.1c0.3,0.6,1,1.3,1.5,1.8
		c0.5,0.5,1.1,1.1,1.5,1.3c0.4,0.2,0.2,0.5,0.2,0.5s-0.4,0.6-1.5,0.8C120.2,113.1,119.7,112.5,119.4,112.2L119.4,112.2z"/>
	<path id="_x38_0" class="st3" d="M115.6,111.7c0.4-0.1,0.6-0.3,0.7-0.8c0-0.4,0-1.8,0-1.8s0.1,0.1,0.3,0.4c0.1,0.2,0.5,0.3,0.5,0.3
		s0,0.2,0.2,0.5c0.1,0.3,0.3,0.7,0.7,1c0.4,0.3,0.8,0.7,1.1,1c0.3,0.3,0.6,0.7,1,1c0.4,0.3,0.7,0.7,0.8,1.5c0.1,0.7,0,1-0.4,0.9
		c-0.4,0-0.5,0-1.2-0.2c-0.7-0.2-1.7-1.3-2.4-1.9C116.1,112.9,115.6,111.7,115.6,111.7L115.6,111.7z"/>
	<path id="_x37_9" class="st3" d="M113.7,112.5c0,0,0.3-0.5,0.4-1.1c0.1-0.6,0.3-1.7,0.3-1.7s0.1,0.4,0.3,1c0.2,0.7,0.6,0.8,0.6,0.8
		s0,0.3,0.4,0.9c0.3,0.6,0.8,1.1,1.3,1.5c0.5,0.4,1.2,0.9,1.5,1.6c0.4,0.7,0.4,1.4,0.2,1.7c-0.2,0.3-0.4,0-0.7-0.3
		c-0.3-0.2-1.3-0.4-2.6-1.4C114.1,114.7,113.7,112.5,113.7,112.5L113.7,112.5z"/>
	<path id="_x37_8" class="st3" d="M113.1,116.5c-0.4-0.7-0.4-2.5-0.4-2.5s0.1-0.1,0.3-0.3c0.2-0.2,0.5-0.9,0.5-0.9s0.2,0.6,0.5,1.2
		c0.2,0.6,0.4,0.8,0.8,1.4c0.5,0.6,1.2,1.2,1.4,1.8c0.3,0.6,0.1,1.9-0.1,2.4c-0.2,0.4-0.5,0.3-0.7-0.1c-0.3-0.4-0.4-0.4-0.8-1
		C114.1,117.9,113.4,117.2,113.1,116.5L113.1,116.5z"/>
	<path id="_x37_7" class="st2" d="M117.4,101.7c-0.2-0.5-0.4-1.2-0.6-1.5c-0.2-0.3-0.3-0.7-0.3-0.7s0.5,0.6,0.7,1
		c0.2,0.4,0.3,0.8,0.4,1.2C117.7,102.1,117.6,102.2,117.4,101.7z"/>
	<path id="_x37_6" class="st2" d="M115.5,102.1c-0.1-0.3-0.1-0.6-0.1-0.6s-0.1-0.3,0-0.4c0,0,0.2,0.2,0.4,0.8
		c0.1,0.6,0.3,1.4,0.3,1.4C116,103.4,115.6,102.5,115.5,102.1L115.5,102.1z"/>
	<path id="_x37_5" class="st2" d="M114.1,103.7c-0.1-0.2-0.1-0.3-0.1-0.3s-0.2-0.7-0.2-0.8c0-0.1,0.1-0.3,0.2,0
		c0.1,0.3,0.1,0.7,0.2,0.8c0,0.1,0.2,0.7,0.1,0.7C114.3,104.3,114.2,103.9,114.1,103.7L114.1,103.7z"/>
	<path id="_x37_4" class="st2" d="M118.7,109.7l0.2-0.2c0,0,0.1,0.2,0.3,0.4c0.2,0.2,0.4,0.3,0.5,0.6c0.1,0.2,0.3,0.5,0.6,0.7
		c0.3,0.2,0.4,0.3,0.4,0.3c-0.1,0.1-0.3-0.1-0.3-0.1s-0.1,0-0.5-0.3c-0.4-0.3-0.5-0.4-0.7-0.7C119,110.2,118.7,109.7,118.7,109.7z"
		/>
	<path id="_x37_3" class="st2" d="M117.1,112.2c-0.1-0.2-0.3-0.3-0.2-0.4c0.1-0.1,0.2-0.1,0.3,0.1c0.1,0.1,0.5,0.6,0.7,0.8
		c0.2,0.2,0.3,0.3,0.5,0.5c0.2,0.2,0.5,0.4,0.7,0.6c0.2,0.1,0,0.1,0,0.1s-0.1-0.1-0.3-0.2c-0.1-0.1-0.6-0.3-0.6-0.3
		s-0.2-0.1-0.4-0.3C117.5,112.8,117.2,112.4,117.1,112.2L117.1,112.2z"/>
	<path id="_x37_2" class="st2" d="M115.2,113.9c-0.1-0.3,0-0.2,0.2-0.1c0.2,0.1,0.6,0.8,0.9,1c0.3,0.2,0.5,0.3,0.7,0.5
		c0.2,0.1,0.2,0.2,0.2,0.3c0,0.1-0.1,0.1-0.2,0c-0.1-0.1-0.4-0.3-0.4-0.3s-0.1-0.1-0.2-0.1c-0.1,0-0.3-0.2-0.6-0.5
		C115.6,114.4,115.3,114.2,115.2,113.9L115.2,113.9z"/>
	<path id="_x37_1" class="st2" d="M114.4,116.2c0.3,0.3,0.9,0.9,1,1.3c0.1,0.4,0.2,0.7,0.2,0.7c0,0.1-0.2-0.1-0.3-0.2
		c-0.1-0.2-0.2-0.4-0.2-0.4s-0.6-0.7-0.8-0.9c-0.2-0.2-0.5-0.7-0.6-0.9c-0.1-0.3,0-0.4,0-0.4S114,115.9,114.4,116.2L114.4,116.2z"/>
	<path id="_x37_0" class="st6" d="M123,53.1c0.3-0.2,1.1-0.7,2-0.8c0.9-0.1,1.5,0.1,2.2,0.3c0.5,0.2,0.9,0.2,1.3,0.1
		c0.6-0.2,1.1-1,1.2-1.9c0,0,0.6,1,0,2c-0.3,0.5-0.6,0.8-1,0.9c-1.2,0.3-2.4-0.7-3.4-0.7c-1-0.1-1.7,0.7-1.7,0.7s-0.2,0.3-0.5,0
		C122.8,53.5,122.7,53.3,123,53.1z"/>
	<path id="_x36_9" class="st3" d="M126.5,99.2c0,0,0.1,0,0.3,0c0.2,0,0.5-0.2,0.6-0.3c0.1-0.1,0.3-0.1,0.4,0.1c0.1,0.2,1,0.8,1,0.8
		h-1.4C126.8,99.8,126.5,99.2,126.5,99.2L126.5,99.2z"/>
	<path id="_x36_8" class="st3" d="M122.5,98.9v-0.2l0.2-0.5c0,0,0.2,0.2,0.4,0.5c0.3,0.4,0.6,0.9,0.7,1.2c0.2,0.4,0.6,0.8,0.3,0.1
		c-0.3-0.6-0.4-0.9-0.6-1.4c-0.2-0.4-0.4-0.6-0.4-0.6c0,0,0.2-0.1,0.8-0.2c0.6-0.1,1-0.4,1.2-0.6c0.3-0.2,0.8-0.6,0.8-0.6
		s1,0.6,1.4,0.7c0.4,0.1,0.6,0.2,0.2,0.4c-0.4,0.2-0.7,0.3-0.9,0.5c-0.2,0.2-0.7,0.4-1.1,0.4c-0.3,0-0.9,0-0.7,0.3
		c0.2,0.3,0.5,0.9,0.7,1.8c0.2,0.9,0.3,1.7,0.3,2.2c0,0.4,0,0.8,0,0.8s-0.4-0.6-1.5-1.6c-1.1-0.9-1.5-1.3-1.7-1.4
		c-0.2-0.1-0.3-0.1-0.3-0.5C122.4,99.9,122.5,99.1,122.5,98.9L122.5,98.9z"/>
	<path id="_x36_7" class="st3" d="M118.2,94.4c0.1,0,0.1-0.1,0.2-0.1c0,0,0,0,0.1,0c0.1,0.1,0.8,0.7,1.1,1.3c0.3,0.6,0.6,0.6,0.2,0
		c-0.3-0.6-0.5-1-0.8-1.3c-0.1-0.1-0.2-0.2-0.2-0.3c0.5-0.4,1.1-0.8,1.7-1.3c0.1,0.2,0.2,0.5,0.4,0.8c0.2,0.3,0.8,0.6,0.8,0.6
		s-0.4-0.6-0.6-1c-0.1-0.3-0.2-0.6-0.2-0.8c0.4-0.4,0.8-0.9,1.1-1.4c0.1,0.4,0.3,1.3,1,2.3c0.9,1.3,2.6,2,2.6,2s0.6,0.1,0.1,0.3
		c-0.5,0.2-0.9,0.5-1.8,0.2c-1-0.2-1-0.3-1.2-0.3c-0.1-0.1-0.5,0,0,0.2c0.5,0.2,1.6,0.5,2,0.4c0.4-0.1,1-0.2,0.4,0.3
		c-0.6,0.4-0.9,0.6-1.3,0.6c-0.4,0-0.5,0.2-0.9,0.2c-0.4,0-0.5-0.1-0.7-0.2c-0.3-0.1-0.4,0.1-0.4,0.2c0,0.1,0.4,0.5,0.3,1.5
		c0,1-0.1,1.6-0.1,1.9c-0.1,0.3-0.2,0.7-0.3,1c-0.1,0.3-0.1,0.5-0.2,0c-0.1-0.6-0.3-1.4-0.4-1.9c-0.1-0.5-0.1-0.6-0.2-0.8
		c0-0.3-0.3-0.5-0.2,0c0.1,0.5,0.2,1.2,0.3,1.6c0.1,0.5,0.3,1.3-0.1,0.6c-0.3-0.7-1.5-2.4-1.7-2.7c-0.2-0.3-0.4-0.6-0.5-0.9
		c-0.1-0.3-0.6-0.6-0.7-1c-0.2-0.3-0.7-1-0.9-1.3C117.5,94.8,117.8,94.6,118.2,94.4L118.2,94.4z"/>
	<path id="_x36_6" class="st3" d="M134.5,54c0,1-0.8,2.8-1.3,3.8c-0.5,1-0.6,1.4-0.5,1.4c0.1,0.1,0.3-0.4,0.5-0.9
		c0.3-0.4,0.7-1.5,1.1-2.2c0.4-0.8,1-2.6,1.1-2.8c0.1-0.2,0.1-0.3,0.3-0.1c0.2,0.2,0.6,2.2,0.1,3.6c-0.5,1.4-1.2,2.4-1.5,2.9
		c-0.3,0.5-0.7,1.2-0.6,1.3c0.1,0.1,0.2-0.1,0.5-0.6c0.4-0.5,1-1.4,1.3-2c0.3-0.5,0.8-1.5,0.9-1.9c0.1-0.1,0.1-0.1,0.2,0
		c0.1,0.2,0.3,0.6,0.2,1.7c-0.1,1.5-0.7,2.4-1.3,3.2c-0.5,0.8-1.1,1.4-1,1.5c0.1,0.1,0.6-0.5,1-1c0.4-0.5,1.3-1.7,1.5-2
		c0.2-0.3,0.5-0.2,0.5,1.2c0,1.3-1.1,2.7-1.6,3.4c-0.5,0.7-1,1.2-1,1.3c0,0.1,0.5-0.2,0.8-0.5c0.3-0.3,1.4-1.2,1.6-1.4
		c0.2-0.2,0.3,0.2,0,1.4c-0.3,1.3-1.1,2.3-1.6,2.7c-0.5,0.5-1.3,1-1.2,1.2c0,0.1,0.4,0,0.8-0.3c0.5-0.3,1-0.6,1.4-0.7
		c0.4-0.1,0.4,0.2,0.4,0.2s0.1,1.1-0.5,1.9c-0.6,0.9-1.2,1.2-1.9,1.3c-0.6,0.1-0.7,0.2-0.7,0.3c0,0.1,0.1,0.1,0.2,0.1
		c0.1,0,0.7,0.1,1.3,0.1c0.5,0,0.8,0.2,0.8,0.5s0,0.7-0.8,1.4c-0.8,0.7-1.7,0.8-2.1,0.9c-0.4,0.1-0.4,0.1-0.3,0.3
		c0.1,0.1,0.3,0.1,0.8,0.2c0.6,0.1,1,0.4,1,0.6c0.1,0.2,0,0.8-0.5,1.3c-0.5,0.4-1.1,0.6-2.1,0.5c-0.9-0.1-1.2-0.1-1.2,0.1
		c0,0.2,0.3,0.3,0.8,0.4c0.5,0.1,0.8,0.1,1.1,0.4c0.3,0.3,0.1,0.9-0.4,1.3c-0.5,0.4-1.6,0.4-2.1,0.4c-0.5,0-1.2-0.3-1.2-0.1
		c0,0.2,0.3,0.4,0.8,0.6c0.5,0.2,0.6,0.4,0.7,0.7c0.1,0.3,0,0.5-0.6,0.8c-0.6,0.3-1.4,0.3-1.9,0c-0.4-0.3-0.7-0.4-0.8-0.3
		c-0.1,0.1,0,0.2,0.1,0.4c0.1,0.1,0.5,0.5,1,0.7c0.5,0.2,0.5,0.2,0.7,0.7c0.2,0.5-0.3,0.9-1.1,1c-0.9,0-2.1-0.4-2.4-0.7
		c-0.4-0.3-0.5-0.4-0.6-0.3c-0.1,0.1,0,0.2,0.1,0.4c0.2,0.2,0.8,0.8,1.1,0.9c0.3,0.1,0.3,0.4,0.3,0.7c0,0.3,0.1,0.8-0.7,1.1
		c-0.8,0.3-1.7,0.1-2.6-0.7c-0.3-0.3-0.4-0.5-0.5-0.7c0.1-1.1,0-1.8-0.1-2.5c0.2,0,0.5-0.1,0.8-0.3c0.5-0.3,0.7-0.8,0.8-1.2
		c0.1-0.3,0.3-0.3,0.5-0.2c0.2,0.1,0.4,0.2,0.6,0.2c0.3,0,0.8-0.2,1.2-0.9c0.4-0.6,0.3-1.3,0.3-1.6c0-0.3,0.4-0.1,0.6-0.1
		c0.2,0,0.7-0.1,1.2-0.6c0.5-0.5,0.5-1.1,0.5-1.3c0-0.3,0.3-0.4,0.4-0.5c0.2-0.1,0.4-0.2,0.8-0.5c0.3-0.4,0.5-1.1,0.5-1.4
		c0-0.3,0.2-0.3,0.9-0.8c0.7-0.5,0.6-1.5,0.6-1.9c0-0.4-0.4-0.7-0.4-0.9c0-0.1,0.2-0.2,0.5-0.4c0.2-0.2,0.8-0.5,0.8-1.7
		c0-1.2-0.6-1.3-0.6-1.3s0.1-0.1,0.3-0.3c0.2-0.2,0.9-0.8,0.9-1.5c0-0.7-0.2-1-0.4-1.2c-0.2-0.2-0.6-0.3-0.6-0.3s0.3-0.3,0.4-0.8
		c0.1-0.5,0.2-1.2-0.1-1.7c-0.3-0.5-0.8-0.5-1.1-0.5c-0.3,0-0.5,0.2-0.6,0.1c-0.1-0.1-0.1-0.2,0-0.5c0.1-0.3,0.1-0.9,0-1.2
		c-0.1-0.2-0.1-0.7-0.8-1c-0.7-0.3-1.4,0.3-1.6,0.5c-0.2,0.2-0.1-0.2-0.1-0.5c0-0.3,0.5-1,1-2.1c0.5-1,0.8-1.6,1.3-3.2
		c0.6-1.6,1-3.6,1-4.2c0.1-0.5,0.2-0.3,0.2-0.3s0.2,0.1,0.5,1.3C134.5,51.9,134.5,53.1,134.5,54L134.5,54z"/>
	<path id="_x36_5" class="st3" d="M122.7,75.4c0.4,0,0.9-0.3,1.3-1.1c0.4-0.8,1-1,2.1-0.9c1,0,1.5-0.6,1.8-1.6c0.3-1,0-2.1-1.1-2.8
		c-1.1-0.7-1.6-1.5-1.6-2.7c0-1.2,1.1-2.7,2.2-4.4c1.1-1.7,2-4.1,2-4.1s0.3,0.6,0.3,1.1c0,0.6-0.2,1.2,0,1.3
		c0.2,0.2,0.2-0.2,0.9-0.6c0.6-0.4,1.2-0.4,1.6,0.2c0.4,0.6,0,1.7-0.4,2.2c-0.4,0.5-0.7,0.9-0.6,1.1c0.1,0.2,0.6-0.3,0.8-0.5
		c0.2-0.2,0.6-0.8,1.2-0.7c0.6,0.1,0.8,0.3,0.9,1c0.1,0.7-0.6,1.3-1,1.6c-0.4,0.3-0.6,0.5-0.5,0.6c0.1,0.1,0.2,0,0.4-0.1
		c0.2-0.1,0.7-0.2,1,0c0.3,0.2,0.8,0.8,0.4,1.5c-0.5,0.7-1.5,1-1.7,1.1c-0.2,0.1-0.3,0-0.3,0.2c0,0.2,0.4,0.2,1,0.2
		c0.5,0,0.7,0.7,0.6,1.3c-0.1,0.5-1,1.1-1.5,1.2c-0.5,0.1-0.7,0-0.7,0.2c0,0.2,0.1,0.3,0.3,0.4c0.3,0.1,0.8,0.2,0.9,0.8
		c0.1,0.6,0.1,0.9-0.3,1.4c-0.4,0.5-1.1,0.4-1.3,0.4c-0.2-0.1-0.4-0.4-0.6-0.1c-0.2,0.3,0.2,0.5,0.5,0.8c0.3,0.3,0.3,0.9-0.3,1.4
		c-0.6,0.4-1.2,0.3-1.4,0.2c-0.2-0.1-0.6-0.6-0.7-0.3c-0.2,0.3,0.5,0.4,0.8,0.9c0.3,0.5,0.2,1.2-0.4,1.7c-0.6,0.5-1.5,0.1-1.7-0.1
		c-0.2-0.2-0.4-0.3-0.5-0.1c-0.1,0.2,0.1,0.6,0.2,1c0.1,0.4,0.3,1.5-0.5,1.9c-0.8,0.4-1.6-0.5-1.8-0.7c-0.1-0.2-0.3-0.2-0.4-0.1
		c-0.1,0.1-0.1,0.2,0,0.4c0.1,0.2,0.3,1-0.3,1.6c-0.4,0.4-0.9,0.4-1.1,0.3c-0.1-0.6-0.3-1.3-0.5-2.3h0.1c0.1,0,0.1,0.2,0.1,0.2
		c0,0.1,0,0.1,0,0.1c0.1,0,0.1,0.1,0.2,0.2c0.1,0.1,0.2,0.2,0.3,0.2c0.1-0.1-0.2-0.2-0.3-0.4c-0.1-0.1-0.2-0.3-0.2-0.4
		c0-0.1-0.1-0.2-0.2-0.4c0-0.1-0.1-0.1-0.1-0.2c-0.1-0.6-0.2-1.4-0.3-2.3c-0.1-0.6-0.1-1.2-0.1-1.7L122.7,75.4L122.7,75.4z"/>
	<path id="_x36_4" class="st3" d="M139.9,58.6c-0.9,2.4-2.2,3.8-2.2,3.8s0.2-0.6,0.2-1c0.1-0.4,0-0.9,0-0.9s0.3-0.5,0.9-1.8
		c0.6-1.2,0.9-3,0.9-3s-0.5,1.8-1,2.7c-0.4,1-0.9,1.7-0.9,1.7s-0.2-0.8-0.3-0.9c-0.1,0-0.2,0.1-0.3,0.3c-0.1,0.2-0.2,0.2-0.2,0.2
		s0.1-0.4,0.4-0.9c0.1-0.2,0.3-0.5,0.4-0.7c0.3-0.7,1.1-2.1,1.4-3.4c0.4-1.3,1.2-4.7,1.3-5.7c0.1-1,0.3-0.4,0.4,0.3
		c0.1,0.7,0.3,1.8,0.2,3.3C141.1,54.3,140.8,56.2,139.9,58.6L139.9,58.6z"/>
	<path id="_x36_3" class="st3" d="M138.8,65.2c-0.3,0.3-0.8,0.8-0.8,0.8s0.1-0.2,0.1-0.5c0-0.3,0.1-0.9,0.1-0.9s0.4-0.5,0.7-0.8
		c0.3-0.3,0.6-0.7,1.3-1.9c0.7-1.1,0.1-0.5-0.4,0.4c-0.6,0.8-1.6,2-1.6,2s0,0,0-0.3c0-0.2-0.1-0.4-0.2-0.6c-0.1-0.2,0-0.2,0.6-0.8
		c0.6-0.6,2.2-3,2.8-4.3c0.6-1.4,1.3-3.3,1.3-3.3s0.3,2.8-0.9,5.9C140.4,63.9,139.1,64.9,138.8,65.2z"/>
	<path id="_x36_2" class="st3" d="M132.1,82.8c-0.7-0.4-0.5-1.3-0.5-1.3c0,0,0.4,0.2,0.8,0.4c0.4,0.2,1.4,0.6,1.7,0.6
		c0.4,0,0.4-0.1,0.4-0.1c0-0.1-0.3,0-0.8-0.1c-0.6-0.1-1.5-0.8-1.7-1c-0.2-0.2-0.1-0.2,0.1-0.2c0.2,0,0.5-0.2,0.6-0.3
		c0.1-0.1,0.3,0,1,0.2c0.6,0.2,1.9,0.5,2.9,0.5c1,0,1.9-0.2,2.1-0.3c0.2,0,0.3,0.1-0.2,1.2c-0.5,1.1-2.2,1.7-3.4,1.7
		C134,84,132.8,83.1,132.1,82.8L132.1,82.8z"/>
	<path id="_x36_1" class="st3" d="M135.2,80.5c-1.2,0-1.7-0.5-1.7-0.5s0-0.1,0.2-0.4c0.2-0.3,0.1-0.9,0.1-0.9s0.3,0.1,0.8,0.2
		c0.5,0.1,1.1,0.2,1.7,0c0.7-0.2,0.4-0.2-0.1-0.2c-0.5,0.1-1.5-0.2-1.8-0.3c-0.3-0.2-0.2-0.3,0-0.4c0.2-0.1,0.8-0.6,0.8-0.6
		s1.5,0.2,2.9,0c1.4-0.2,2.2-0.7,2.5-0.7c0.3-0.1,0.3,0.1,0.3,0.1s0.1,0.2-0.4,1.2c-0.5,1-1.4,1.6-2.2,1.9
		C137.5,80.3,136.5,80.5,135.2,80.5L135.2,80.5z"/>
	<path id="_x36_0" class="st3" d="M135.5,76.7c0,0,0.1-0.1,0.1-0.4c0.1-0.3-0.1-0.6-0.1-0.6s0.3-0.1,1.2-0.3c0.9-0.2,1-0.2,1.5-0.4
		c0.6-0.2,0.9-0.4,0.9-0.5c0-0.1-0.2,0-0.5,0.2c-0.3,0.2-1.7,0.4-2.3,0.5c-0.6,0.1-0.9,0.2-1,0.1c-0.1-0.1-0.5-0.2-0.5-0.2
		s0.2-0.1,0.6-0.2c0.3-0.1,0.6-0.2,0.8-0.4c0.2-0.2,0.2-0.2,1-0.3c0.7-0.1,1.3-0.4,2.7-1.1c1.3-0.6,2.3-1.4,2.6-1.7
		c0.3-0.3,0.2-0.1,0.2,0.3c-0.1,0.4-0.1,0.8-0.7,1.9c-0.7,1-1,1.5-2.7,2.3C137.4,76.8,135.5,76.7,135.5,76.7L135.5,76.7z"/>
	<path id="_x35_9" class="st3" d="M140.6,71.2c-1.5,1.4-3.3,1.9-3.6,2c-0.1-0.1,0.1-0.6,0-0.9c-0.1-0.3-0.3-0.3-0.6-0.4
		c-0.4,0-0.1-0.1,0-0.1c0.1,0,0.1,0,0.7-0.2c0.6-0.2,1.2-0.3,2-0.7c0.8-0.4,1.1-0.7,1.1-0.8c0-0.1-0.4,0.3-1.1,0.6
		c-0.8,0.4-1.7,0.5-2.1,0.7c-0.5,0.1-0.1-0.1,0.2-0.3c0.2-0.2,0.5-0.8,0.5-0.8s0.5-0.1,1.4-0.5c0.9-0.4,1.6-0.8,2.3-1.3
		c0.3-0.2,0.5-0.4,0.8-0.7c0.5-0.5,1-1,1.2-1.2c0.3-0.3,0.2-0.1,0.2,0.1c0,0.2-0.2,1-0.7,1.9C142.2,69.5,142.1,69.8,140.6,71.2z"/>
	<path id="_x35_8" class="st3" d="M140.8,67.3c-1.5,1.6-2.7,2-3,2.2c-0.2,0.1-0.2,0-0.2-0.2c0-0.2,0.1-0.7,0.1-0.7s0.5-0.4,1.1-0.9
		c0.6-0.5,1.2-1.1,1.7-1.5c0.4-0.4,0.2-0.4,0-0.2c-0.1,0.2-0.7,0.6-1.3,1.1c-0.6,0.5-1.5,1.2-1.5,1.2s0-0.3-0.1-0.4
		c-0.1-0.2-0.4-0.1-0.4-0.1s0.2-0.2,0.2-0.4c0.1-0.2,0.6-0.4,1.1-0.7c0.5-0.3,1.5-1.3,2.3-2.1c0.7-0.8,2.1-2.9,2.2-3
		c0.1-0.2,0.2-0.1,0.2,0.1c0,0.2,0.1,0.3-0.1,1.3C142.9,63.7,142.3,65.7,140.8,67.3z"/>
	<path id="_x35_7" class="st3" d="M135.6,52.5c-0.2,0.5-0.4,0.8-0.5,1.1c-0.2,0.5-0.3,0.8-0.3,0.8s0-0.2,0-0.4c0-0.3,0.1-0.7,0-1.1
		c0-0.2-0.1-0.5-0.1-0.7c0-0.2,0.1-0.5,0.1-0.6c0-0.3,0.3-1.4,0.4-2.2c0.1-0.8,0.2-2,0.2-3c0-1-0.1-0.5-0.1,0c0,0.5,0,1.3-0.2,2.4
		c-0.1,1.2-0.5,3-0.5,3s0-0.3-0.1-0.7c-0.1-0.4-0.3-0.8-0.4-1.3c-0.1-0.5-0.1-0.6-0.1-0.6s0.5-3.3,0.7-4.9c0.1-1.6,0.4-5.7,0.4-5.7
		c0.8,1,1.3,3.7,1.4,6.2c0.1,1.9-0.2,3.7-0.2,4.4C136,50.6,135.9,51.7,135.6,52.5L135.6,52.5z"/>
	<path id="_x35_6" class="st3" d="M137.3,57.7c0-0.8-0.2-1.3-0.5-1.5c0,0,0.3-0.8,0.6-1.8c0.2-0.7,0.4-1.7,0.4-2.4
		c0.2-1.8,0.4-3.6,0-0.6c-0.4,3-0.9,4.1-0.9,4.1l-0.6,1.2c0.1-0.5,0.1-0.9,0.1-1.5c0-0.6-0.1-1.4-0.2-2c0,0,0.7-1.9,1.1-4.1
		c0.4-2.2,0.7-4.3,0.7-5.5c0-1.2,0.1-1.6,0.1-1.6s0.7,0.7,1,4.3c0.2,3.6-0.5,7.1-0.8,8.4C137.8,56.1,137.3,57.7,137.3,57.7z"/>
	<path id="_x35_5" class="st3" d="M129.5,85.4c0,0,0.1-0.1,0.5-0.4c0.3-0.3,0.2-1.1,0.2-1.1s0.1,0.1,0.3,0.3
		c0.2,0.2,0.5,0.5,0.9,0.7c0.3,0.2,0.5,0.3,0.7,0.4c0.2,0.1,0.2,0,0-0.2c-0.2-0.1-0.2-0.2-0.7-0.5c-0.4-0.2-1.4-1.3-1.4-1.3
		s0.2,0,0.6,0c0.4,0,0.8-0.3,0.8-0.3s0.4,0.5,1.9,1.3c1.5,0.9,2.8,1.1,2.8,1.1s-0.2,1-0.9,1.4c-0.6,0.3-1.4,0.6-3,0
		C130.6,86.3,129.5,85.4,129.5,85.4L129.5,85.4z"/>
	<path id="_x35_4" class="st3" d="M127.5,87.5c-0.1-0.8,0.2-1.4,0.2-1.4s0.1,0.1,0.3,0.3c0.2,0.3,0.6,0.8,1.2,1.2
		c0.6,0.4,0.9,0.4,0.2,0c-0.6-0.4-1.5-1.7-1.5-1.7l0.2-0.1c0.2-0.1,0.6,0.1,2.3,1.4c1.7,1.4,2.7,1.4,2.7,1.4s-0.8,1.2-2.8,1.1
		C128.4,89.6,127.6,88.3,127.5,87.5L127.5,87.5z"/>
	<path id="_x35_3" class="st3" d="M123.6,86.5c0,0,0.2,0.4,0.5,0.7c0.3,0.3,1.1,0.4,1.1,0.4s0,0.1,0.2,0.4c0.2,0.3,0.5,0.9,0.9,1.3
		c0.4,0.3,0.9,0.6,1,0.5c0-0.1-0.3-0.3-0.7-0.6c-0.3-0.3-0.7-0.8-0.9-1.2c-0.2-0.4,0.1-0.3,0.1-0.3s0.4,0,0.8,0c0.4,0,0.3,0,0.4,0.3
		c0.1,0.3,0.3,0.5,0.6,0.9c0.4,0.6,0.7,1,1,1.6c0.2,0.4,0.1,0.5,0.1,0.5s-0.1,0.2-1,0.4c-0.6,0.1-1.2,0-1.8-0.5
		c-0.4-0.3-0.8-0.8-1.2-1.4C123.6,87.8,123.6,86.5,123.6,86.5z"/>
	<path id="_x35_2" class="st3" d="M123.1,89.8c0.2,0.4,0.3,0.6,0.3,0.6s-0.2-0.6-0.3-0.9c-0.1-0.2-0.2-0.3-0.2-0.4
		c0.2-0.5,0.3-0.9,0.4-1.5c0.1,0.4,0.4,1.7,0.8,2.5c0.5,1,0.9,1.4,0.6,1.6c-0.3,0.3-0.8,0.3-1.4-0.1c-0.6-0.4-0.7-1-0.8-1.6
		c0.1-0.2,0.2-0.4,0.3-0.7C122.9,89.5,123,89.6,123.1,89.8L123.1,89.8z"/>
	<path id="_x35_1" class="st3" d="M123.3,49.1c-0.2,0-0.4,0.2-0.4,0.5c0,0.3,0.2,0.5,0.4,0.5c0.2,0,0.4-0.2,0.4-0.5
		C123.7,49.3,123.5,49.1,123.3,49.1z"/>
	<path id="_x35_0" class="st3" d="M124.1,48.6c-0.4,0-0.6-0.3-1-0.2c-0.5,0.1-1.2,0.5-2,1c-0.6,0.4-1.5,0.6-2.3,0.3
		c-0.2-0.1-0.5-0.3-0.7-0.4c-1-0.8-0.8-2.2-0.8-2.2c0.7,0.7,1.6,1.1,2.5,1c0,0-0.1,0.1-0.2,0.3c-0.1,0.2-0.4,0.4-0.3,0.5
		c0.1,0.1,0.4-0.4,0.8-0.7c0.3-0.3,0.8-0.7,1.5-1c0.8-0.3,1.6-0.3,2.2,0.1c0.6,0.4,0.6,1,0.5,1.2C124.4,48.6,124.3,48.6,124.1,48.6z
		"/>
	<path id="_x34_9" class="st3" d="M113.3,59.4c0.2-0.1,0.5-0.1,0.9-0.6c0.4-0.5,1.4-1.9,1.5-2.2c0.1-0.3,0.1-0.5-0.2-0.6
		c-0.3-0.1-0.5-0.6-0.5-0.6s0.6-0.3,1-0.7c0.4-0.4,1.3-1.5,1.5-1.8c0.1-0.3,0.1-0.3-0.1-0.4c-0.2-0.1-0.2-0.3-0.2-0.3
		s0.4-0.4,0.8-0.8c0.4-0.4,0.9-1.1,0.9-1.1c0.6,0.3,1.5,0.2,2.1,0.1c0.9-0.2,1.6-0.7,1.6-0.7s0,0.2,0.1,0.6c0.1,0.4,0.5,0.6,0.9,0.2
		c0.4-0.4,0.3-1.2,0.3-1.2s0.3-0.3,1-0.6c0.7-0.3,1.3-0.4,1.8,0c0.6,0.3,0.8,1.4,0.8,2.2c0,0.8-0.3,0.5-0.4,0.3
		c-0.1-0.1-0.2-0.7-0.9-0.8c-0.7-0.2-1.4,0.3-2.2,1.2c-0.8,0.9-1,0.9-1.4,1.5c-0.4,0.6-0.1,0.9,0.6,1.2c0.7,0.3,1.6-0.3,1.6-0.3
		c0.1,0.1-0.3,0.9-0.9,1.2c-0.6,0.3-1.4,0.1-2-0.2c-0.4-0.2-0.5,0-0.6,0.2c-0.7,0.9-0.8,1.8-0.9,2.8c-0.3-0.1-0.6-0.6-0.6-0.9
		c0-0.2-0.1-0.6-0.3-0.3c-0.2,0.3-0.4,1.8-0.4,2.5c0,0.7,0.2,1.7,0.2,1.7l-0.2,0c-0.1,0-0.3-0.2-0.5-0.4c-0.3-0.2-0.3,0-0.3,0.4
		c0,0.4-0.1,1.1-0.5,2.4c-0.4,1.3-0.9,1.7-0.9,1.7s-0.1-0.3-0.2-0.8c-0.1-0.5-0.2-1.5-0.2-2.4c0-0.9,0.2-2.8,0.2-2.8
		s-0.8,1.3-1.6,1.6c-0.8,0.3-1.7,0.1-2-0.4C112.8,59.7,113.1,59.5,113.3,59.4L113.3,59.4z"/>
	<path id="_x34_8" class="st3" d="M118.8,62.8c0,0,0.3,0.7,0.4,1c0.1,0.3,0.2,0.3,0.2,0.3s-0.3,0.3-0.6,0.4
		c-0.4,0.2-0.7,0.2-0.7,0.2s0.4-0.8,0.6-1.3C118.8,63,118.8,62.8,118.8,62.8L118.8,62.8z"/>
	<path id="_x34_7" class="st3" d="M113.8,62.4c0.1-0.4,0.2-0.7,0.2-0.7c0.5,0.1,1.5-0.2,1.9-0.5c0,0-0.4,1-0.8,1.4
		c-0.4,0.4-0.4,0.4-0.4,0.4s0.4,0.1,0.9-0.6c0.5-0.7,0.7-1.5,0.7-1.5s-0.1,1.8,0.1,2.9c0.2,1.1,0.3,1.3,0.3,1.3s-1.1,0.3-2.3-0.2
		c-1.2-0.5-1.3-0.6-1.3-0.6s-0.1-0.1,0-0.4C113.3,63.6,113.7,62.8,113.8,62.4L113.8,62.4z"/>
	<path id="_x34_6" class="st2" d="M116,58.4c0.4-0.6,0.4-0.7,0.4-0.7s0.1,0.2,0,0.4c-0.1,0.2-0.6,0.9-1,1.1
		c-0.4,0.3-0.7,0.4-0.7,0.4l0-0.1C114.7,59.5,115.6,59,116,58.4z"/>
	<path id="_x34_5" class="st2" d="M117.5,62.2c0,0,0.1-2.3,0.1-2.6c0-0.3,0.2-0.2,0.2-0.2l0.2,0.1c0,0-0.3,2.9-0.4,3.3
		c0,0.4-0.2,0.3-0.2,0.3C117.5,63,117.5,62.3,117.5,62.2z"/>
	<path id="_x34_4" class="st2" d="M119.8,52.4c0.1-0.2,0.5-0.3,0.1,0.1c-0.3,0.4-0.7,1-0.8,1.5c-0.1,0.5-0.2,1,0,0.9
		c0.2-0.1,0.3-0.1,0.5-0.4c0.2-0.2,0.6-0.6,0.8-0.7c0.2-0.1,0.5,0,0.2,0.3c-0.2,0.3-0.5,0.7-0.9,1.1c-0.4,0.4-0.7,0.6-0.9,0.8
		c-0.2,0.2-0.5,0.4-0.5,0.4s0.2-1.9,0.6-2.7C119.3,53,119.6,52.6,119.8,52.4z"/>
	<path id="_x34_3" class="st2" d="M127.3,83.4c0.3,0.3,0.7,0.4,0.7,0.4s0.2,0,0.2,0.1c0,0.1-0.2,0-0.4-0.1c-0.2-0.1-0.5-0.3-0.6-0.4
		c-0.1-0.1-0.3-0.2-0.2-0.4C126.9,82.8,127,83.1,127.3,83.4L127.3,83.4z"/>
	<path id="_x34_2" class="st2" d="M124.9,85.1c0.1,0.1,0.5,0.6,0.5,0.6s0.1,0.1,0.3,0.2c0.2,0.1,0.2,0.2,0.2,0.2s0,0.1-0.2,0
		c-0.2-0.1-0.7-0.5-0.8-0.7c-0.2-0.2-0.2-0.2-0.2-0.3C124.8,85,124.8,85,124.9,85.1L124.9,85.1z"/>
	<path id="_x34_1" class="st2" d="M134.7,61.8c-0.1,0.1-0.2,0.3-0.2,0.3c0-0.1,0-0.1,0.1-0.3c0.1-0.2,0.2-0.3,0.2-0.3
		s0.2-0.3,0.3-0.5c0.1-0.1,0.2-0.2,0.1,0.1C134.9,61.5,134.8,61.7,134.7,61.8z"/>
	<path id="_x34_0" class="st2" d="M135.4,64c-0.1,0.1-0.2,0.2-0.3,0.4c-0.1,0.2-0.2,0.3-0.3,0.3c-0.1-0.1,0.2-0.3,0.3-0.5
		c0.1-0.2,0.2-0.3,0.3-0.4c0.1-0.1,0.3-0.3,0.3-0.3S135.5,63.9,135.4,64L135.4,64z"/>
	<path id="_x33_9" class="st2" d="M135.1,67.5c-0.2,0.3-0.5,0.3-0.5,0.2c0-0.1,0-0.2,0.2-0.3c0.2-0.1,0.4-0.3,0.5-0.4
		c0.1-0.1,0.3-0.2,0.3-0.4c0.1-0.1,0.2-0.2,0.2-0.2c0,0-0.3,0.5-0.3,0.5C135.5,67.1,135.3,67.3,135.1,67.5z"/>
	<path id="_x33_8" class="st2" d="M134.6,70.4c0-0.1,0-0.2,0.1-0.2c0.2,0,0.4-0.1,0.4-0.1s0.3-0.2,0.3-0.1c0,0.1-0.3,0.2-0.4,0.3
		c-0.1,0-0.3,0.1-0.3,0.1C134.7,70.5,134.6,70.5,134.6,70.4L134.6,70.4z"/>
	<path id="_x33_7" class="st2" d="M134.4,73.4c0.3,0,0.6-0.1,0.6,0c0,0.1-0.2,0.2-0.3,0.2c-0.2,0.1-0.5,0.1-0.7,0.1
		c-0.2,0-0.3-0.1-0.2-0.2C133.8,73.4,134.1,73.4,134.4,73.4z"/>
	<path id="_x33_6" class="st2" d="M131.8,76.8c0-0.1,0.2,0,0.3,0c0.2,0.1,0.5,0.1,0.7,0.1c0.2,0,0.6,0,0.6,0l0.2,0.1
		c0,0.1-0.3,0.1-0.7,0.1c-0.4,0.1-0.7-0.1-0.9-0.1C131.8,77,131.7,76.8,131.8,76.8L131.8,76.8z"/>
	<path id="_x33_5" class="st2" d="M130.7,79.2c0.2,0.1,0.4,0.1,0.5,0.1c0.2,0,0.5,0.1,0.5,0.1s0.2,0,0.1,0.1c0,0.1-0.1,0-0.2,0
		c-0.2,0-0.3,0-0.5,0c-0.3,0-0.4-0.1-0.6-0.1c-0.2,0-0.3-0.2-0.3-0.3C130.3,78.9,130.5,79.1,130.7,79.2L130.7,79.2z"/>
	<path id="_x33_4" class="st2" d="M128.6,81c0.1,0.2,0.6,0.6,0.6,0.6s0.1,0.1,0.3,0.2c0.2,0.1,0.2,0.2,0.1,0.2
		c0,0.1-0.1-0.1-0.2-0.1c-0.1-0.1-0.4-0.3-0.6-0.5c-0.2-0.2-0.4-0.3-0.3-0.5C128.5,80.7,128.5,80.8,128.6,81L128.6,81z"/>
	<path id="_x33_3" class="st2" d="M132.1,57.6c0,0,0,0.1-0.4,0.7c-0.4,0.6-0.2,0-0.1-0.1c0.1-0.2,0.6-1.1,0.8-1.4
		c0.2-0.3,0.2-0.1,0.1,0C132.5,57,132.1,57.6,132.1,57.6z"/>
	<path id="_x33_2" class="st2" d="M132.9,60.7c-0.1-0.1,0.1-0.1,0.3-0.5c0.2-0.3,0.6-1,0.6-1s0.1-0.3,0.2-0.3c0,0-0.1,0.5-0.3,0.8
		c-0.2,0.2-0.4,0.6-0.5,0.8C133,60.7,132.9,60.7,132.9,60.7L132.9,60.7z"/>
	<path id="_x33_1" class="st2" d="M131.9,66.4c0-0.2,0.4-0.1,0.6-0.2c0.2-0.1,0.5-0.1,0.5-0.1s0.4-0.1,0.4,0c0,0.1-0.1,0.1-0.3,0.2
		c-0.2,0.1-0.5,0.2-0.8,0.2C132.1,66.5,131.9,66.6,131.9,66.4L131.9,66.4z"/>
	<path id="_x33_0" class="st2" d="M132.9,63.3c-0.3,0.3-0.4,0.4-0.6,0.5c-0.1,0.1-0.3,0.3-0.3,0.1c-0.1-0.1,0.1-0.2,0.3-0.3
		c0.2-0.1,0.3-0.3,0.3-0.3s0.1-0.1,0.2-0.2C132.9,63.1,133.1,63,132.9,63.3L132.9,63.3z"/>
	<path id="_x32_9" class="st2" d="M130.5,61.3c0.2-0.2,0.3-0.3,0.3-0.3s0.2-0.3,0.2-0.2c0,0.1-0.2,0.3-0.4,0.5
		c-0.1,0.2-0.4,0.6-0.5,0.5C130.1,61.7,130.4,61.5,130.5,61.3z"/>
	<path id="_x32_8" class="st2" d="M132.1,69.3c0,0,0.2,0.1,0.4,0.1c0.1,0.1,0.2,0.1-0.1,0.1c-0.3,0-0.4-0.1-0.6-0.2
		c-0.3-0.1-0.4-0.1-0.3-0.2c0-0.1,0.2-0.1,0.3,0C131.8,69.2,132.1,69.3,132.1,69.3z"/>
	<path id="_x32_7" class="st2" d="M131.7,72.2c0,0.1-0.2,0-0.3-0.1c-0.1-0.1-0.4-0.3-0.6-0.3c-0.2-0.1-0.2-0.1-0.2-0.2
		c0-0.1,0.2,0,0.4,0.1c0.2,0.1,0.5,0.4,0.5,0.4S131.6,72.2,131.7,72.2z"/>
	<path id="_x32_6" class="st2" d="M128.8,74c-0.2-0.2-0.2-0.3-0.2-0.4c0.1-0.1,0.1-0.1,0.3,0.1c0.2,0.2,0.5,0.5,0.5,0.5
		s0.2,0.1,0.3,0.2c0.1,0.1,0.3,0.2,0.2,0.3c0,0.1-0.3,0-0.4-0.1C129.4,74.3,129,74.1,128.8,74L128.8,74z"/>
	<path id="_x32_5" class="st2" d="M127.5,76.3c-0.1-0.1-0.3-0.2-0.4-0.3c-0.1-0.1-0.2-0.4-0.1-0.5c0.1,0,0.1,0.1,0.3,0.3
		c0.2,0.2,0.8,0.7,0.8,0.7l0.2,0.1c0.2,0.1,0.1,0.2,0,0.1c-0.1,0-0.2,0-0.4-0.2C127.7,76.4,127.6,76.4,127.5,76.3z"/>
	<path id="_x32_4" class="st2" d="M125.6,78.5c-0.2-0.1-0.4-0.4-0.5-0.5c-0.1-0.1-0.3-0.3-0.2-0.4c0.1-0.1,0.2,0,0.3,0.2
		c0.1,0.2,0.5,0.7,0.5,0.7s0,0,0.2,0.2c0.2,0.2,0,0.2-0.1,0.1C125.8,78.7,125.7,78.6,125.6,78.5L125.6,78.5z"/>
	<polygon id="_x32_3" class="st3" points="117.6,45.3 116.8,44.5 117.7,44.2 118.3,44.8 	"/>
	<path id="_x32_2" class="st2" d="M115,43.4c-0.4,0-0.8,0.4-0.8,1c0,0.5,0.3,1,0.8,1c0.4,0,0.8-0.4,0.8-1
		C115.8,43.9,115.4,43.4,115,43.4z"/>
	<path id="_x32_1" class="st3" d="M115,43.6c-0.3,0-0.5,0.3-0.5,0.6c0,0.3,0.2,0.6,0.5,0.6c0.3,0,0.5-0.3,0.5-0.6
		C115.5,43.9,115.3,43.6,115,43.6z"/>
	<path id="_x32_0" class="st3" d="M116.6,41.1c-0.2,0.1-0.4,0.1-0.4,0.1s-0.1-0.4,0.1-0.7c0.2-0.2,0.4-0.4,0.5-0.5
		c0.1-0.1,0.1-0.2,0.1-0.2s0,0.4,0,0.6C116.9,40.6,116.8,41,116.6,41.1L116.6,41.1z"/>
	<path id="_x31_9" class="st3" d="M116.2,41.4c-0.1,0-0.1,0.1-0.1,0.2c0,0.1,0.1,0.2,0.1,0.2c0.1,0,0.1-0.1,0.1-0.2
		C116.3,41.5,116.3,41.4,116.2,41.4z"/>
	<path id="_x31_8" class="st3" d="M117.2,41.4c0.1,0.1,0.2,0.3,0.2,0.3s-0.2,0-0.3,0.1c-0.1,0.1-0.3,0.2-0.4,0.2
		c-0.1,0-0.2-0.2-0.2-0.3c0-0.1,0.1-0.3,0.3-0.4C117.1,41.1,117.2,41.3,117.2,41.4z"/>
	<path id="_x31_7" class="st3" d="M116.7,42.5c0.5,0.1,1.1-0.6,1.1-0.6c0.1,0.6,0.3,0.9,0.7,1l0,0c0,0-0.4,0.3-0.8,0.3
		c-0.2,0-0.4,0-0.6-0.1c-0.3-0.1-0.5-0.2-0.7-0.3c-0.3-0.2-0.2-0.8-0.2-0.8S116.2,42.5,116.7,42.5L116.7,42.5z"/>
	<path id="_x31_6" class="st3" d="M118.5,41.9c0.2-0.1,0.5-0.3,0.6-0.3c0.1,0,0.3,0,0.3,0.3c0,0.3-0.3,0.4-0.5,0.5
		c-0.2,0-0.3-0.1-0.5-0.2C118.3,42,118.4,42,118.5,41.9z"/>
	<path id="_x31_5" class="st3" d="M120,40.8c0.2-0.2,0.4-0.3,0.4-0.3s0.1,0.5,0.1,0.8c-0.1,0.3-0.2,0.4-0.4,0.4
		c-0.2,0-0.5-0.1-0.4-0.3C119.7,41.2,119.8,41,120,40.8L120,40.8z"/>
	<path id="_x31_4" class="st3" d="M119.8,42c-0.1,0-0.2,0.1-0.2,0.2c0,0.1,0.1,0.2,0.2,0.2s0.2-0.1,0.2-0.2
		C120,42.1,119.9,42,119.8,42z"/>
	<path id="_x31_3" class="st3" d="M119.4,39.8c0.1-0.8,0.1-1.7-0.5-2.9c-0.6-1.2-1.6-1.6-1.6-1.6s0-0.1-0.4-0.6
		c-0.3-0.5-1-1.1-1-1.1s0.8,0.3,1.2,0.4c0,0,0,0,0,0c0,0.4,0.2,0.7,0.5,0.7c0.1,0,0.2,0,0.3-0.1c0.2,0.1,1,0.7,1.2,0.9
		c-0.1,0.1-0.1,0.2-0.1,0.4c0,0.4,0.2,0.7,0.5,0.7c0.1,0,0.2,0,0.2-0.1c0,0.1,0,0.1,0.1,0.2c0.2,0.4,0.3,0.8,0.4,1.2
		c-0.1,0.1-0.2,0.4-0.2,0.6c0,0.4,0.2,0.7,0.5,0.7c0,0.2,0,0.4,0,0.5c0,0.2-0.1,0.4-0.4,0.5c-0.3,0.1-0.7,0.8-0.7,0.8
		C119.4,41.1,119.2,40.6,119.4,39.8L119.4,39.8z"/>
	<path id="_x31_2" class="st3" d="M117.5,34.5c-0.1-0.1-0.1-0.3,0-0.4c0.1-0.1,0.3-0.1,0.4,0c0.1,0.1,0.1,0.3,0,0.4
		S117.6,34.6,117.5,34.5z"/>
	<path id="_x31_1" class="st3" d="M119.5,36.2c-0.1-0.2-0.1-0.4,0-0.5c0.1-0.1,0.3-0.1,0.4,0c0.1,0.2,0.1,0.4,0,0.5
		C119.8,36.4,119.6,36.4,119.5,36.2z"/>
	<path id="_x31_0" class="st3" d="M120.7,38.1c-0.2,0-0.3,0.2-0.3,0.4c0,0.2,0.1,0.4,0.3,0.4c0.2,0,0.3-0.2,0.3-0.4
		C121,38.3,120.8,38.1,120.7,38.1z"/>
	<path id="_x39_" class="st3" d="M114.1,32.8c0.2,0,0.5,0.2,0.9,0.5h0c-0.3,0-0.5,0.3-0.5,0.6c0,0.3,0.3,0.7,0.6,0.7
		c0.3,0,0.5-0.4,0.5-0.7c0-0.1,0-0.2,0-0.2c0.1,0.1,0.3,0.2,0.4,0.4c1,0.9,1.2,1.3,1.7,2.5c0.5,1.2,0.7,2.5,0.4,3.3
		c-0.2,0.8-1,0.9-1,0.9c0,0,0.1-0.1,0.1-0.3c0-0.1,0-0.2-0.1-0.5c0-0.3,0-0.6,0-0.6s-0.2,0-0.3,0.1c-0.1,0.2-0.2,0.4-0.3,0.5
		c-0.1,0.2-0.4,0.5-0.4,0.5s-0.2-0.3-0.2-0.6c0-0.3,0.2-0.7,0.2-1.3c0-0.6-0.2-1.7-0.7-2.5c-0.4-0.8-1.3-1.5-1.5-1.7
		c-0.3-0.2-0.3-0.4-0.3-0.6c0-0.1,0-0.2-0.1-0.6C113.6,32.7,113.8,32.7,114.1,32.8L114.1,32.8z"/>
	<path id="_x38_" class="st3" d="M115,34.2c-0.2,0-0.3-0.2-0.3-0.4c0-0.2,0.1-0.3,0.3-0.3c0.2,0,0.3,0.2,0.3,0.3
		S115.2,34.2,115,34.2z"/>
	<path id="_x37_" class="st3" d="M113.6,41.8c-0.2,0.1-0.5,0.1-0.6-0.1c-0.1-0.1-0.2-0.4,0-0.6c0.1-0.2,0.4-0.2,0.5-0.1
		c0.1,0.1,0.4,0.4,0.4,0.4S113.8,41.7,113.6,41.8L113.6,41.8z"/>
	<path id="_x36_" class="st3" d="M112.8,42.2c0.1,0.2,0.1,0.3,0.4,0.3c0.3,0,0.5,0,0.7-0.2c0.2-0.2,0.3-0.5,0.3-0.5l0.3,0
		c0,0,0.1,0.5,0.2,0.7c0.1,0.2,0.6,0.2,0.8,0c0.2-0.2,0.4-0.4,0.4-0.4c0,0,0,0.2-0.2,0.5c-0.2,0.2-0.3,0.4-0.7,0.4h-1.9
		c0,0-0.4,0-0.5-0.3c-0.1-0.3-0.1-0.5-0.1-0.6C112.7,41.9,112.7,42,112.8,42.2L112.8,42.2z"/>
	<path id="_x35_" class="st3" d="M115.7,41.8c-0.3,0.2-0.4,0.1-0.5-0.1c-0.1-0.2-0.1-0.2-0.1-0.2s0.3-0.1,0.4-0.2
		c0.1-0.1,0.2-0.2,0.3-0.2c0.1,0,0.1,0,0.1,0S115.9,41.6,115.7,41.8L115.7,41.8z"/>
	<path id="_x34_" class="st2" d="M117,37.3c-0.3,0-0.6,0.4-0.6,0.8c0,0.5,0.3,0.8,0.6,0.8c0.3,0,0.6-0.4,0.6-0.8
		C117.6,37.6,117.4,37.3,117,37.3z"/>
	<path id="_x33_" class="st2" d="M115.9,35.2c0.2-0.2,0.6-0.1,0.8,0.2c0.2,0.3,0.2,0.8-0.1,1c-0.2,0.2-0.6,0.1-0.8-0.2
		C115.6,35.9,115.7,35.4,115.9,35.2z"/>
	<path id="_x32_" class="st3" d="M117,37.5c-0.2,0-0.4,0.2-0.4,0.5c0,0.3,0.2,0.5,0.4,0.5c0.2,0,0.4-0.2,0.4-0.5
		C117.4,37.7,117.2,37.5,117,37.5z"/>
	<path id="_x31_" class="st3" d="M116.2,35.3c0.2-0.1,0.4,0,0.4,0.2c0.1,0.2,0,0.4-0.2,0.4C116,36.1,115.8,35.4,116.2,35.3
		L116.2,35.3z"/>
</g>
</svg>
