<?xml version="1.0" encoding="utf-8"?>
<!-- Generator: Adobe Illustrator 23.1.1, SVG Export Plug-In . SVG Version: 6.00 Build 0)  -->
<svg version="1.1" id="Countryflags.com" xmlns="http://www.w3.org/2000/svg" xmlns:xlink="http://www.w3.org/1999/xlink" x="0px"
	 y="0px" viewBox="332 696.5 225 150" style="enable-background:new 332 696.5 225 150;" xml:space="preserve">
<style type="text/css">
	.st0{fill:#00247D;}
	.st1{clip-path:url(#_x31_3_1_);stroke:#FFFFFF;stroke-width:15;}
	.st2{clip-path:url(#_x31_1_1_);stroke:#CC142B;stroke-width:10;}
	.st3{stroke:#FFFFFF;stroke-width:25;}
	.st4{stroke:#CC142B;stroke-width:15;}
	.st5{fill:#FFFFFF;}
	.st6{fill:#CC142B;}
</style>
<g>
	<rect id="_x31_5" x="332" y="696.5" class="st0" width="225" height="150"/>
	<g id="Group_2">
		<defs>
			<rect id="_x31_3" x="332" y="696.5" width="112.5" height="75"/>
		</defs>
		<clipPath id="_x31_3_1_">
			<use xlink:href="#_x31_3"  style="overflow:visible;"/>
		</clipPath>
		<path id="_x31_4" class="st1" d="M332,696.5l112.5,75 M332,771.5l112.5-75"/>
	</g>
	<g id="Group_1">
		<defs>
			<path id="_x31_1" d="M332,696.5l56.2,37.5H332V696.5z M388.3,696.5h56.2L388.3,734V696.5z M388.3,734h56.2v37.5L388.3,734z
				 M388.3,734v37.5H332L388.3,734z"/>
		</defs>
		<clipPath id="_x31_1_1_">
			<use xlink:href="#_x31_1"  style="overflow:visible;"/>
		</clipPath>
		<path id="_x31_2" class="st2" d="M332,696.5l112.5,75 M332,771.5l112.5-75"/>
	</g>
	<path id="_x31_0" class="st3" d="M388.3,696.5v75 M332,734h112.5"/>
	<path id="_x39_" class="st4" d="M388.3,696.5v75 M332,734h112.5"/>
	<polygon id="_x38_" class="st5" points="515.5,749 520.1,753.6 518.3,760.9 523,756.4 527.7,760.9 525.9,753.6 530.6,749 
		524.8,749 523,741.7 521.2,749 	"/>
	<polygon id="_x37_" class="st6" points="518.3,750.3 521.2,753.1 520.1,757.6 523,754.8 525.9,757.6 524.8,753.1 527.7,750.3 
		524.1,750.3 523,745.8 521.9,750.3 	"/>
	<polygon id="_x36_" class="st5" points="492.2,722.8 497.5,727.9 495.5,736.2 500.8,731.1 506,736.2 504,727.9 509.3,722.8 
		502.8,722.8 500.8,714.6 498.7,722.8 	"/>
	<polygon id="_x35_" class="st6" points="495.1,724.1 498.6,727.4 497.3,732.9 500.8,729.5 504.2,732.9 502.9,727.4 506.4,724.1 
		502.1,724.1 500.8,718.6 499.4,724.1 	"/>
	<polygon id="_x34_" class="st5" points="466.2,757.7 471.5,762.8 469.5,771 474.8,765.9 480,771 478,762.8 483.3,757.7 
		476.8,757.7 474.8,749.4 472.7,757.7 	"/>
	<polygon id="_x33_" class="st6" points="469.1,758.9 472.6,762.3 471.3,767.8 474.8,764.4 478.2,767.8 476.9,762.3 480.4,758.9 
		476.1,758.9 474.8,753.5 473.4,758.9 	"/>
	<polygon id="_x32_" class="st5" points="491.3,812.4 497.1,818.1 494.9,827.2 500.8,821.6 506.6,827.2 504.4,818.1 510.2,812.4 
		503,812.4 500.8,803.3 498.5,812.4 	"/>
	<polygon id="_x31_" class="st6" points="494.2,813.7 498.2,817.6 496.7,823.9 500.8,820 504.8,823.9 503.3,817.6 507.3,813.7 
		502.3,813.7 500.8,807.3 499.2,813.7 	"/>
</g>
</svg>
