<?xml version="1.0" encoding="utf-8"?>
<!-- Generator: Adobe Illustrator 23.1.1, SVG Export Plug-In . SVG Version: 6.00 Build 0)  -->
<svg version="1.1" id="Countryflags.com" xmlns="http://www.w3.org/2000/svg" xmlns:xlink="http://www.w3.org/1999/xlink" x="0px"
	 y="0px" viewBox="182 621.5 225 150" style="enable-background:new 182 621.5 225 150;" xml:space="preserve">
<style type="text/css">
	.st0{fill:#0038A8;}
	.st1{fill:#CE1126;}
	.st2{fill:#FFFFFF;}
	.st3{fill:#FCD116;}
</style>
<g>
	<rect id="_x33_1" x="182" y="621.5" class="st0" width="225" height="150"/>
	<rect id="_x33_0" x="182" y="696.5" class="st1" width="225" height="75"/>
	<path id="_x32_9" class="st2" d="M279.4,696.5l-97.4,75v-150"/>
	<ellipse id="_x32_8" class="st3" cx="217" cy="696.5" rx="11.2" ry="15"/>
	<path id="_x32_7" class="st3" d="M193.3,696.5l1.5,1.9l22.3-1.9l-22.3-1.9L193.3,696.5z"/>
	<path id="_x32_6" class="st3" d="M195.8,700.2l1.2,1.6l20.1-5.3L195.8,700.2z"/>
	<path id="_x32_5" class="st3" d="M195.8,692.8l1.2-1.6l20.1,5.3L195.8,692.8z"/>
	<path id="_x32_4" class="st3" d="M200.2,674.1v2.8l16.8,19.6l-14.7-22.4H200.2z"/>
	<path id="_x32_3" class="st3" d="M200,679.1v2.2l17,15.1L200,679.1z"/>
	<path id="_x32_2" class="st3" d="M204,673.8h1.7l11.4,22.7L204,673.8z"/>
	<path id="_x32_1" class="st3" d="M217,664.8l-1.5,1.9l1.5,29.7l1.5-29.7L217,664.8z"/>
	<path id="_x32_0" class="st3" d="M214.2,668.2l-1.2,1.6l4,26.7L214.2,668.2z"/>
	<path id="_x31_9" class="st3" d="M219.8,668.2l1.2,1.6l-4,26.7L219.8,668.2z"/>
	<path id="_x31_8" class="st3" d="M233.8,674.1h-2.1L217,696.5l16.8-19.6V674.1z"/>
	<path id="_x31_7" class="st3" d="M230,673.8h-1.7L217,696.5L230,673.8z"/>
	<path id="_x31_6" class="st3" d="M234,679.1v2.2l-17,15.1L234,679.1z"/>
	<path id="_x31_5" class="st3" d="M240.8,696.5l-1.5-1.9l-22.3,1.9l22.3,1.9L240.8,696.5z"/>
	<path id="_x31_4" class="st3" d="M238.3,692.8l-1.2-1.6l-20.1,5.3L238.3,692.8z"/>
	<path id="_x31_3" class="st3" d="M238.3,700.2l-1.2,1.6l-20.1-5.3L238.3,700.2z"/>
	<path id="_x31_2" class="st3" d="M233.8,718.9v-2.8L217,696.5l14.7,22.4H233.8z"/>
	<path id="_x31_1" class="st3" d="M234,713.9v-2.2l-17-15.1L234,713.9z"/>
	<path id="_x31_0" class="st3" d="M230,719.2h-1.7L217,696.5L230,719.2z"/>
	<path id="_x39_" class="st3" d="M217,728.2l1.5-1.9l-1.5-29.7l-1.5,29.7L217,728.2z"/>
	<path id="_x38_" class="st3" d="M219.8,724.8l1.2-1.6l-4-26.7L219.8,724.8z"/>
	<path id="_x37_" class="st3" d="M214.2,724.8l-1.2-1.6l4-26.7L214.2,724.8z"/>
	<path id="_x36_" class="st3" d="M200.2,718.9h2.1l14.7-22.4l-16.8,19.6V718.9z"/>
	<path id="_x35_" class="st3" d="M204,719.2h1.7l11.4-22.7L204,719.2z"/>
	<path id="_x34_" class="st3" d="M200,713.9v-2.2l17-15.1L200,713.9z"/>
	<polygon id="_x33_" class="st3" points="184.6,643.4 189.1,644.2 190.1,650 192,644.6 196.5,645.1 193.2,641 194.9,635.5 
		191,638.4 187.6,634.5 188.5,640.4 	"/>
	<polygon id="_x32_" class="st3" points="184.6,749.6 188.5,752.6 187.6,758.5 191,754.6 194.9,757.5 193.2,752 196.5,747.9 
		192,748.4 190.1,743 189.1,748.8 	"/>
	<polygon id="_x31_" class="st3" points="256.9,691.6 259.4,696.5 256.9,701.4 261.2,699.7 263.9,704.4 264,698.5 268.2,696.5 
		264,694.5 263.9,688.6 261.2,693.3 	"/>
</g>
</svg>
