<?xml version="1.0" encoding="utf-8"?>
<!-- Generator: Adobe Illustrator 23.1.1, SVG Export Plug-In . SVG Version: 6.00 Build 0)  -->
<svg version="1.1" id="Countryflags.com" xmlns="http://www.w3.org/2000/svg" xmlns:xlink="http://www.w3.org/1999/xlink" x="0px"
	 y="0px" viewBox="0 0 225 150" style="enable-background:new 0 0 225 150;" xml:space="preserve">
<style type="text/css">
	.st0{fill:#EC2227;}
	.st1{fill:#035EA5;}
	.st2{fill:#FFFFFF;}
	.st3{fill:#FEDC00;}
</style>
<g>
	<rect id="_x31_1" y="-0.1" class="st0" width="225" height="150"/>
	<rect id="_x31_0" y="-0.1" class="st1" width="225" height="100"/>
	<rect id="_x39_" y="-0.1" class="st2" width="225" height="50"/>
	<path id="_x38_" class="st1" d="M69.7,52.5l1.2-23.2c-9.2-5.8-19.9-5.8-29.1,0l1.2,23.2c0.5,10.4,5.9,19.4,13.4,22.4
		C63.8,71.9,69.2,62.9,69.7,52.5"/>
	<path id="_x37_" class="st2" d="M45.4,55.6c1.3,7.6,5.4,13.8,10.9,16.3c5.5-2.5,9.6-8.7,10.9-16.3l-5.5-9.7l-2.2,3.9l-3.3-8.7
		L53,49.8l-2.2-3.9L45.4,55.6"/>
	<path id="_x36_" class="st1" d="M45.9,58.1c1,2.3,3.2,3.1,5,1.8l0,0c1.1-0.9,2.5-0.9,3.6,0c1.1,0.9,2.5,0.9,3.6,0
		c1.1-0.9,2.5-0.9,3.6,0c1.7,1.3,4,0.5,5-1.8l0,0v1.4c-1,2.3-3.2,3.1-5,1.8l0,0c-1.1-0.9-2.5-0.9-3.6,0c-1.1,0.9-2.5,0.9-3.6,0
		c-1.1-0.9-2.5-0.9-3.6,0c-1.7,1.3-4,0.5-5-1.8l0,0V58.1z"/>
	<path id="_x35_" class="st1" d="M45.9,60.9c1,2.3,3.2,3.1,5,1.8l0,0c1.1-0.9,2.5-0.9,3.6,0c1.1,0.9,2.5,0.9,3.6,0
		c1.1-0.9,2.5-0.9,3.6,0c1.7,1.3,4,0.5,5-1.8v0v1.4c-1,2.3-3.2,3.1-5,1.8l0,0c-1.1-0.9-2.5-0.9-3.6,0c-1.1,0.9-2.5,0.9-3.6,0
		c-1.1-0.9-2.5-0.9-3.6,0c-1.7,1.3-4,0.5-5-1.8c0,0,0,0,0,0V60.9z"/>
	<path id="_x34_" class="st3" d="M56.3,34.4l0.3,1.2l0.9-0.3l-0.6,0.9l0.6,0.9l-0.9-0.3l-0.3,1.2L56,36.9l-0.9,0.3l0.6-0.9l-0.6-0.9
		l0.9,0.3L56.3,34.4z"/>
	<path id="_x33_" class="st3" d="M52.2,27.1l0.3,1.2l0.9-0.3L52.8,29l0.6,0.9l-0.9-0.3l-0.3,1.2l-0.3-1.2L51,29.9l0.6-0.9L51,28.1
		l0.9,0.3L52.2,27.1z"/>
	<path id="_x32_" class="st3" d="M60.4,27.1l0.3,1.2l0.9-0.3L60.9,29l0.6,0.9l-0.9-0.3l-0.3,1.2l-0.3-1.2l-0.9,0.3l0.6-0.9l-0.6-0.9
		l0.9,0.3L60.4,27.1z"/>
	<path id="_x31_" class="st0" d="M42.8,28.6L44,52.4c0.5,9.7,5.4,18,12.3,21c6.9-3,11.8-11.3,12.3-21l1.2-23.8
		c0.3,0.2,0.7,0.4,1,0.6l-1.2,23.2c-0.5,10.4-5.9,19.4-13.4,22.4c-7.5-3-12.8-11.9-13.4-22.4l-1.2-23.2
		C42.1,29.1,42.4,28.8,42.8,28.6"/>
</g>
</svg>
