<?xml version="1.0" encoding="utf-8"?>
<!-- Generator: Adobe Illustrator 23.1.1, SVG Export Plug-In . SVG Version: 6.00 Build 0)  -->
<svg version="1.1" id="Countryflags.com" xmlns="http://www.w3.org/2000/svg" xmlns:xlink="http://www.w3.org/1999/xlink" x="0px"
	 y="0px" viewBox="344.5 718.1 235 156.7" style="enable-background:new 344.5 718.1 235 156.7;" xml:space="preserve">
<style type="text/css">
	.st0{fill:#FFFFFF;}
	.st1{fill:#B22234;}
	.st2{fill:#3C3B6E;}
</style>
<g>
	<rect id="_x35_9" x="344.5" y="718.1" class="st0" width="235" height="156.7"/>
	<rect id="_x35_8" x="344.5" y="718.1" class="st1" width="235" height="12.1"/>
	<rect id="_x35_7" x="344.5" y="742.3" class="st1" width="235" height="12.1"/>
	<rect id="_x35_6" x="344.5" y="766.4" class="st1" width="235" height="12.1"/>
	<rect id="_x35_5" x="344.5" y="790.5" class="st1" width="235" height="12.1"/>
	<rect id="_x35_4" x="344.5" y="814.6" class="st1" width="235" height="12.1"/>
	<rect id="_x35_3" x="344.5" y="838.7" class="st1" width="235" height="12.1"/>
	<rect id="_x35_2" x="344.5" y="862.8" class="st1" width="235" height="12.1"/>
	<rect id="_x35_1" x="344.5" y="718.1" class="st2" width="94" height="84.4"/>
	<polygon id="_x35_0" class="st0" points="348.9,725 351.1,727.1 350.3,730.4 352.5,728.3 354.8,730.4 353.9,727.1 356.1,725 
		353.4,725 352.5,721.7 351.7,725 	"/>
	<polygon id="_x34_9" class="st0" points="364.5,725 366.7,727.1 365.9,730.4 368.1,728.3 370.3,730.4 369.5,727.1 371.7,725 
		369,725 368.1,721.7 367.2,725 	"/>
	<polygon id="_x34_8" class="st0" points="380.1,725 382.3,727.1 381.5,730.4 383.7,728.3 385.9,730.4 385.1,727.1 387.3,725 
		384.5,725 383.7,721.7 382.8,725 	"/>
	<polygon id="_x34_7" class="st0" points="395.7,725 397.9,727.1 397,730.4 399.3,728.3 401.5,730.4 400.7,727.1 402.9,725 
		400.1,725 399.3,721.7 398.4,725 	"/>
	<polygon id="_x34_6" class="st0" points="411.2,725 413.5,727.1 412.6,730.4 414.9,728.3 417.1,730.4 416.3,727.1 418.5,725 
		415.7,725 414.9,721.7 414,725 	"/>
	<polygon id="_x34_5" class="st0" points="426.8,725 429.1,727.1 428.2,730.4 430.5,728.3 432.7,730.4 431.8,727.1 434.1,725 
		431.3,725 430.5,721.7 429.6,725 	"/>
	<polygon id="_x34_4" class="st0" points="356.7,733.5 358.9,735.5 358.1,738.9 360.3,736.8 362.5,738.9 361.7,735.5 363.9,733.5 
		361.2,733.5 360.3,730.1 359.5,733.5 	"/>
	<polygon id="_x34_3" class="st0" points="372.3,733.5 374.5,735.5 373.7,738.9 375.9,736.8 378.1,738.9 377.3,735.5 379.5,733.5 
		376.8,733.5 375.9,730.1 375,733.5 	"/>
	<polygon id="_x34_2" class="st0" points="387.9,733.5 390.1,735.5 389.2,738.9 391.5,736.8 393.7,738.9 392.9,735.5 395.1,733.5 
		392.3,733.5 391.5,730.1 390.6,733.5 	"/>
	<polygon id="_x34_1" class="st0" points="403.4,733.5 405.7,735.5 404.8,738.9 407.1,736.8 409.3,738.9 408.5,735.5 410.7,733.5 
		407.9,733.5 407.1,730.1 406.2,733.5 	"/>
	<polygon id="_x34_0" class="st0" points="419,733.5 421.3,735.5 420.4,738.9 422.7,736.8 424.9,738.9 424,735.5 426.3,733.5 
		423.5,733.5 422.7,730.1 421.8,733.5 	"/>
	<polygon id="_x33_9" class="st0" points="348.9,741.9 351.1,744 350.3,747.3 352.5,745.3 354.8,747.3 353.9,744 356.1,741.9 
		353.4,741.9 352.5,738.6 351.7,741.9 	"/>
	<polygon id="_x33_8" class="st0" points="364.5,741.9 366.7,744 365.9,747.3 368.1,745.3 370.3,747.3 369.5,744 371.7,741.9 
		369,741.9 368.1,738.6 367.2,741.9 	"/>
	<polygon id="_x33_7" class="st0" points="380.1,741.9 382.3,744 381.5,747.3 383.7,745.3 385.9,747.3 385.1,744 387.3,741.9 
		384.5,741.9 383.7,738.6 382.8,741.9 	"/>
	<polygon id="_x33_6" class="st0" points="395.7,741.9 397.9,744 397,747.3 399.3,745.3 401.5,747.3 400.7,744 402.9,741.9 
		400.1,741.9 399.3,738.6 398.4,741.9 	"/>
	<polygon id="_x33_5" class="st0" points="411.2,741.9 413.5,744 412.6,747.3 414.9,745.3 417.1,747.3 416.3,744 418.5,741.9 
		415.7,741.9 414.9,738.6 414,741.9 	"/>
	<polygon id="_x33_4" class="st0" points="426.8,741.9 429.1,744 428.2,747.3 430.5,745.3 432.7,747.3 431.8,744 434.1,741.9 
		431.3,741.9 430.5,738.6 429.6,741.9 	"/>
	<polygon id="_x33_3" class="st0" points="356.9,750.4 359.1,752.5 358.3,755.8 360.5,753.7 362.7,755.8 361.9,752.5 364.1,750.4 
		361.4,750.4 360.5,747.1 359.6,750.4 	"/>
	<polygon id="_x33_2" class="st0" points="372.5,750.4 374.7,752.5 373.9,755.8 376.1,753.7 378.3,755.8 377.5,752.5 379.7,750.4 
		376.9,750.4 376.1,747.1 375.2,750.4 	"/>
	<polygon id="_x33_1" class="st0" points="388.1,750.4 390.3,752.5 389.4,755.8 391.7,753.7 393.9,755.8 393.1,752.5 395.3,750.4 
		392.5,750.4 391.7,747.1 390.8,750.4 	"/>
	<polygon id="_x33_0" class="st0" points="403.6,750.4 405.9,752.5 405,755.8 407.3,753.7 409.5,755.8 408.6,752.5 410.9,750.4 
		408.1,750.4 407.3,747.1 406.4,750.4 	"/>
	<polygon id="_x32_9" class="st0" points="419.2,750.4 421.5,752.5 420.6,755.8 422.9,753.7 425.1,755.8 424.2,752.5 426.5,750.4 
		423.7,750.4 422.9,747.1 422,750.4 	"/>
	<polygon id="_x32_8" class="st0" points="349.1,758.8 351.4,760.9 350.5,764.2 352.8,762.1 355,764.2 354.1,760.9 356.4,758.8 
		353.6,758.8 352.8,755.5 351.9,758.8 	"/>
	<polygon id="_x32_7" class="st0" points="364.7,758.8 367,760.9 366.1,764.2 368.3,762.1 370.6,764.2 369.7,760.9 372,758.8 
		369.2,758.8 368.3,755.5 367.5,758.8 	"/>
	<polygon id="_x32_6" class="st0" points="380.3,758.8 382.5,760.9 381.7,764.2 383.9,762.1 386.2,764.2 385.3,760.9 387.6,758.8 
		384.8,758.8 383.9,755.5 383.1,758.8 	"/>
	<polygon id="_x32_5" class="st0" points="395.9,758.8 398.1,760.9 397.3,764.2 399.5,762.1 401.8,764.2 400.9,760.9 403.1,758.8 
		400.4,758.8 399.5,755.5 398.7,758.8 	"/>
	<polygon id="_x32_4" class="st0" points="411.5,758.8 413.7,760.9 412.9,764.2 415.1,762.1 417.3,764.2 416.5,760.9 418.7,758.8 
		416,758.8 415.1,755.5 414.2,758.8 	"/>
	<polygon id="_x32_3" class="st0" points="427.1,758.8 429.3,760.9 428.5,764.2 430.7,762.1 432.9,764.2 432.1,760.9 434.3,758.8 
		431.5,758.8 430.7,755.5 429.8,758.8 	"/>
	<polygon id="_x32_2" class="st0" points="349.3,775.5 351.5,777.5 350.7,780.9 352.9,778.8 355.1,780.9 354.3,777.5 356.5,775.5 
		353.8,775.5 352.9,772.1 352,775.5 	"/>
	<polygon id="_x32_1" class="st0" points="364.9,775.5 367.1,777.5 366.2,780.9 368.5,778.8 370.7,780.9 369.9,777.5 372.1,775.5 
		369.3,775.5 368.5,772.1 367.6,775.5 	"/>
	<polygon id="_x32_0" class="st0" points="380.5,775.5 382.7,777.5 381.8,780.9 384.1,778.8 386.3,780.9 385.5,777.5 387.7,775.5 
		384.9,775.5 384.1,772.1 383.2,775.5 	"/>
	<polygon id="_x31_9" class="st0" points="396,775.5 398.3,777.5 397.4,780.9 399.7,778.8 401.9,780.9 401,777.5 403.3,775.5 
		400.5,775.5 399.7,772.1 398.8,775.5 	"/>
	<polygon id="_x31_8" class="st0" points="411.6,775.5 413.9,777.5 413,780.9 415.2,778.8 417.5,780.9 416.6,777.5 418.9,775.5 
		416.1,775.5 415.2,772.1 414.4,775.5 	"/>
	<polygon id="_x31_7" class="st0" points="427.2,775.5 429.5,777.5 428.6,780.9 430.8,778.8 433.1,780.9 432.2,777.5 434.5,775.5 
		431.7,775.5 430.8,772.1 430,775.5 	"/>
	<polygon id="_x31_6" class="st0" points="349.1,792.3 351.3,794.4 350.5,797.7 352.7,795.6 354.9,797.7 354.1,794.4 356.3,792.3 
		353.6,792.3 352.7,789 351.9,792.3 	"/>
	<polygon id="_x31_5" class="st0" points="364.7,792.3 366.9,794.4 366.1,797.7 368.3,795.6 370.5,797.7 369.7,794.4 371.9,792.3 
		369.2,792.3 368.3,789 367.4,792.3 	"/>
	<polygon id="_x31_4" class="st0" points="380.3,792.3 382.5,794.4 381.6,797.7 383.9,795.6 386.1,797.7 385.3,794.4 387.5,792.3 
		384.7,792.3 383.9,789 383,792.3 	"/>
	<polygon id="_x31_3" class="st0" points="395.8,792.3 398.1,794.4 397.2,797.7 399.5,795.6 401.7,797.7 400.9,794.4 403.1,792.3 
		400.3,792.3 399.5,789 398.6,792.3 	"/>
	<polygon id="_x31_2" class="st0" points="411.4,792.3 413.7,794.4 412.8,797.7 415.1,795.6 417.3,797.7 416.4,794.4 418.7,792.3 
		415.9,792.3 415.1,789 414.2,792.3 	"/>
	<polygon id="_x31_1" class="st0" points="427,792.3 429.3,794.4 428.4,797.7 430.6,795.6 432.9,797.7 432,794.4 434.3,792.3 
		431.5,792.3 430.6,789 429.8,792.3 	"/>
	<polygon id="_x31_0" class="st0" points="356.9,767 359.2,769.1 358.3,772.4 360.5,770.4 362.8,772.4 361.9,769.1 364.2,767 
		361.4,767 360.5,763.7 359.7,767 	"/>
	<polygon id="_x39_" class="st0" points="372.5,767 374.8,769.1 373.9,772.4 376.1,770.4 378.4,772.4 377.5,769.1 379.8,767 
		377,767 376.1,763.7 375.3,767 	"/>
	<polygon id="_x38_" class="st0" points="388.1,767 390.3,769.1 389.5,772.4 391.7,770.4 394,772.4 393.1,769.1 395.3,767 
		392.6,767 391.7,763.7 390.9,767 	"/>
	<polygon id="_x37_" class="st0" points="403.7,767 405.9,769.1 405.1,772.4 407.3,770.4 409.6,772.4 408.7,769.1 410.9,767 
		408.2,767 407.3,763.7 406.5,767 	"/>
	<polygon id="_x36_" class="st0" points="419.3,767 421.5,769.1 420.7,772.4 422.9,770.4 425.1,772.4 424.3,769.1 426.5,767 
		423.8,767 422.9,763.7 422,767 	"/>
	<polygon id="_x35_" class="st0" points="356.9,783.9 359.1,785.9 358.3,789.3 360.5,787.2 362.7,789.3 361.9,785.9 364.1,783.9 
		361.4,783.9 360.5,780.5 359.6,783.9 	"/>
	<polygon id="_x34_" class="st0" points="372.5,783.9 374.7,785.9 373.9,789.3 376.1,787.2 378.3,789.3 377.5,785.9 379.7,783.9 
		376.9,783.9 376.1,780.5 375.2,783.9 	"/>
	<polygon id="_x33_" class="st0" points="388.1,783.9 390.3,785.9 389.4,789.3 391.7,787.2 393.9,789.3 393.1,785.9 395.3,783.9 
		392.5,783.9 391.7,780.5 390.8,783.9 	"/>
	<polygon id="_x32_" class="st0" points="403.6,783.9 405.9,785.9 405,789.3 407.3,787.2 409.5,789.3 408.6,785.9 410.9,783.9 
		408.1,783.9 407.3,780.5 406.4,783.9 	"/>
	<polygon id="_x31_" class="st0" points="419.2,783.9 421.5,785.9 420.6,789.3 422.9,787.2 425.1,789.3 424.2,785.9 426.5,783.9 
		423.7,783.9 422.9,780.5 422,783.9 	"/>
</g>
</svg>
