<?xml version="1.0" encoding="utf-8"?>
<!-- Generator: Adobe Illustrator 23.1.1, SVG Export Plug-In . SVG Version: 6.00 Build 0)  -->
<svg version="1.1" id="Countryflags.com" xmlns="http://www.w3.org/2000/svg" xmlns:xlink="http://www.w3.org/1999/xlink" x="0px"
	 y="0px" viewBox="236 648.5 225 150" style="enable-background:new 236 648.5 225 150;" xml:space="preserve">
<style type="text/css">
	.st0{fill:#319208;}
	.st1{fill:#FFD200;}
	.st2{fill:#DE2010;}
	.st3{fill:#FFFFFF;}
	.st4{fill:#FFC618;}
	.st5{fill:none;stroke:#000000;stroke-width:6.301726e-02;}
	.st6{fill:none;stroke:#000000;stroke-width:0.2976;}
</style>
<g>
	<rect id="_x32_1_1_" x="236" y="648.5" class="st0" width="225" height="150"/>
	<rect id="_x32_1" x="236" y="669.9" class="st1" width="225" height="107.1"/>
	<rect id="_x32_0" x="236" y="691.4" class="st2" width="225" height="64.3"/>
	<rect id="_x31_9" x="236" y="712.8" width="225" height="21.4"/>
	<path id="_x31_8" d="M240.1,648.5l75,75l-75,75H236v-150H240.1z"/>
	<path id="_x31_7" class="st3" d="M236,648.5l75,75l-75,75"/>
	<polygon id="_x31_6" class="st2" points="239.2,711.7 255.5,727.1 251.9,750 266.4,739 280.8,750 277.2,727.1 293.5,711.7 
		274.8,708.1 266.4,685.4 258,708.1 	"/>
	<path id="_x31_5" class="st4" d="M261.6,714.1c1.8,5.1,2.2,5.5,6.6,7.5c4.4,2,16.9,3.9,18.1,4.1c-0.8-1.1-14.8-14.9-17.7-17.7
		c-2.9-2.8-3.7-4-3.7-4s-2.6-6.2-3.5-8.1c-0.9-1.8-2.6-4.4-4.7-4.4c-2.2,0-3.5,1.7-4.1,4.7c-0.3,0.1-2.2,1.6-2.1,3.2
		c0.5-0.1,3.9-1.3,5.1,3.7c1.2,5.1,1.2,13.4,0,17.5c-1.2,4.1-3.1,7.2-3.1,10.8c0,0.5,0.3,1.5,0.9,1.5c0.2,1.6,2,13,2,13h25.1l4-20.6
		"/>
	<path id="_x31_4" class="st5" d="M261.6,714.1c1.8,5.1,2.2,5.5,6.6,7.5c4.4,2,16.9,3.9,18.1,4.1c-0.8-1.1-14.8-14.9-17.7-17.7
		c-2.9-2.8-3.7-4-3.7-4s-2.6-6.2-3.5-8.1c-0.9-1.8-2.6-4.4-4.7-4.4c-2.2,0-3.5,1.7-4.1,4.7c-0.3,0.1-2.2,1.6-2.1,3.2
		c0.5-0.1,3.9-1.3,5.1,3.7c1.2,5.1,1.2,13.4,0,17.5c-1.2,4.1-3.1,7.2-3.1,10.8c0,0.5,0.3,1.5,0.9,1.5c0.2,1.6,2,13,2,13h25.1l4-20.6
		"/>
	<path id="_x31_3" class="st5" d="M253.3,733c0,0,5.4-0.4,6.8-0.4c1.4,0,14.9,0,22.5,2.3"/>
	<path id="_x31_2" class="st5" d="M255.2,732.9c0,0-0.5-0.9-0.2-2.6c0.3-1.7,4.1-6.2,4.1-12.5"/>
	<path id="_x31_1" class="st5" d="M258.4,732.6c0,0-0.4-2.8,4.4-5.2c1.4-0.5,5.2-3.4,5.4-5.8"/>
	<path id="_x31_0" class="st5" d="M262.3,727.6c0,0,11.8,0.1,21.2,2.6"/>
	<path id="_x39_" class="st5" d="M265.3,725.8c0,0,4.1,0.2,4.7-0.1c0.7-0.3,1.8-0.9,2.3-2.8"/>
	<path id="_x38_" class="st5" d="M267.7,725.8c0,0,2.2-1.5,2.6-3.5"/>
	<path id="_x37_" class="st5" d="M261.1,746c0,0-0.9-8.6-1.1-13.4l2.4,3.1l2.6-3l2.2,3.1l2.6-2.9l2.2,3.3l2.5-2.9l2,3.1l2.5-2.4
		l3,3.8"/>
	<path id="_x36_" class="st5" d="M281.5,740.6c-9-1.7-21-1.6-21-1.6"/>
	<path id="_x35_" class="st5" d="M256.3,709.3c0,0,7.3-4.7,8.6-5.3"/>
	<polyline id="_x34_" class="st6" points="260.2,736 262.7,739 264.9,736 267.1,739.1 269.6,736.2 271.8,739.4 274.3,736.6 
		276.4,739.8 278.9,737.3 281.5,740.4 	"/>
	<path id="_x33_" class="st6" d="M267.2,729c0.5,0,1,0.6,1,1.3c0,0.7-0.4,1.3-1,1.3c-0.5,0-1-0.6-1-1.3
		C266.2,729.6,266.7,729,267.2,729z"/>
	<path id="_x32_" class="st6" d="M271.3,729.4c0.5,0,1,0.6,1,1.3c0,0.7-0.4,1.3-1,1.3s-1-0.6-1-1.3
		C270.3,730,270.8,729.4,271.3,729.4z"/>
	<ellipse id="_x31_" class="st6" cx="256" cy="695.5" rx="0.8" ry="1"/>
</g>
</svg>
