<?xml version="1.0" encoding="utf-8"?>
<!-- Generator: Adobe Illustrator 23.1.1, SVG Export Plug-In . SVG Version: 6.00 Build 0)  -->
<svg version="1.1" id="Countryflags.com" xmlns="http://www.w3.org/2000/svg" xmlns:xlink="http://www.w3.org/1999/xlink" x="0px"
	 y="0px" viewBox="181.9 621.5 225.1 150.1" style="enable-background:new 181.9 621.5 225.1 150.1;" xml:space="preserve">
<style type="text/css">
	.st0{fill:#C8313E;}
	.st1{fill:#4AA657;}
	.st2{fill:#FFFFFF;}
	.st3{fill:#FCFCFC;}
	.st4{fill:#FFFDFD;}
</style>
<g>
	<rect id="_x32_7" x="181.9" y="621.5" class="st0" width="225.1" height="150"/>
	<rect id="_x32_6" x="181.9" y="721.5" class="st1" width="225.1" height="50"/>
	<rect id="_x32_5" x="181.9" y="621.5" class="st2" width="25" height="150"/>
	<path id="_x32_4" class="st0" d="M186.3,621.5h3.3v2.5h1.1v2.5h1.1v2.5h1.1v2.5h1.1v2.5h-1.1v2.5h-1.1v2.5h-1.1v2.5h-1.1v2.5h-1.1
		v2.5h-1.1v-2.5h-1.1v-2.5h-1.1v-2.5h-1.1v-2.5H183v-2.5h-1.1v-2.5h1.1v-2.5h1.1v-2.5h1.1V624h1.1V621.5z M187.4,626.4h1.1v2.5h1.1
		v2.5h1.1v2.5h-1.1v2.5h-1.1v2.5h-1.1v-2.5h-1.1v-2.5h-1.1v-2.5h1.1v-2.5h1.1V626.4z M187.4,631.3h1.1v2.5h-1.1V631.3z M181.9,624
		h1.1v2.5h-1.1V624z M181.9,638.7h1.1v2.5h-1.1V638.7z M193.9,621.5h0.7v4.9h-0.7V621.5z M193.9,638.7h0.7v4.9h-0.7V638.7z
		 M184.1,643.6h1.1v2.5h1.1v2.5h1.1v2.5h-1.1v2.5h-1.1v2.5h-1.1v-2.5H183V651h-1.1v-2.5h1.1v-2.5h1.1V643.6z M184.1,648.5h1.1v2.5
		h-1.1V648.5z M190.6,643.6h1.1v2.5h1.1v2.5h1.1v2.5h-1.1v2.5h-1.1v2.5h-1.1v-2.5h-1.1V651h-1.1v-2.5h1.1v-2.5h1.1V643.6z
		 M190.6,648.5h1.1v2.5h-1.1V648.5z M181.9,658.4h1.1v2.5h-1.1V658.4z M193.9,655.9h0.7v4.9h-0.7V655.9z"/>
	<path id="_x32_3" class="st0" d="M181.9,665.8h1.1v-2.5h1.1v-2.5h1.1v-2.5h1.1v-2.5h1.1v-2.5h1.1v2.5h1.1v2.5h1.1v2.5h1.1v2.5h1.1
		v2.5h1.1v2.5h0.7v9.8h-0.7v2.5h-1.1v2.5h-1.1v2.5h-1.1v2.5h-1.1v2.5h-1.1v6.4h-2.2v-1.5h-1.1v-2.5h-1.1v-2.5H183v-2.5h-1.1v-7.4
		h1.1v2.5h1.1v2.5h1.1v2.5h1.1v-2.5h1.1V683h1.1v-2.5h1.1v-2.5h1.1v-2.5h1.1v-2.5h-1.1v-2.5h-1.1v-2.5h-3.3v2.5h2.2v2.5h-1.1v2.5
		h-1.1v2.5h-1.1v-2.5h-1.1v-2.5H183v-2.5h-1.1V665.8z M181.9,675.6h1.1v2.5h-1.1V675.6z M193.9,683h0.7v2.5h-0.7V683z M191.7,687.9
		h1.1v2.5h1.1v2.5h0.7v3.9h-0.7v-1.5h-1.1v-2.5h-1.1V687.9z M189.5,695.3h1.1v1.5h-1.1V695.3z"/>
	<path id="_x32_2" class="st0" d="M202.6,621.5h-3.3v2.5h-1.1v2.5h-1.1v2.5h-1.1v2.5H195v2.5h1.1v2.5h1.1v2.5h1.1v2.5h1.1v2.5h1.1
		v2.5h1.1v-2.5h1.1v-2.5h1.1v-2.5h1.1v-2.5h1.1v-2.5h1.1v-2.5h-1.1v-2.5h-1.1v-2.5h-1.1V624h-1.1V621.5z M201.5,626.4h-1.1v2.5h-1.1
		v2.5h-1.1v2.5h1.1v2.5h1.1v2.5h1.1v-2.5h1.1v-2.5h1.1v-2.5h-1.1v-2.5h-1.1V626.4z M201.5,631.3h-1.1v2.5h1.1V631.3z M206.9,624
		h-1.1v2.5h1.1V624z M206.9,638.7h-1.1v2.5h1.1V638.7z M195,621.5h-0.7v4.9h0.7V621.5z M195,638.7h-0.7v4.9h0.7V638.7z M204.8,643.6
		h-1.1v2.5h-1.1v2.5h-1.1v2.5h1.1v2.5h1.1v2.5h1.1v-2.5h1.1V651h1.1v-2.5h-1.1v-2.5h-1.1V643.6z M204.8,648.5h-1.1v2.5h1.1V648.5z
		 M198.2,643.6h-1.1v2.5h-1.1v2.5H195v2.5h1.1v2.5h1.1v2.5h1.1v-2.5h1.1V651h1.1v-2.5h-1.1v-2.5h-1.1V643.6z M198.2,648.5h-1.1v2.5
		h1.1V648.5z M206.9,658.4h-1.1v2.5h1.1V658.4z M195,655.9h-0.7v4.9h0.7V655.9z"/>
	<path id="_x32_1" class="st0" d="M206.9,665.8h-1.1v-2.5h-1.1v-2.5h-1.1v-2.5h-1.1v-2.5h-1.1v-2.5h-1.1v2.5h-1.1v2.5h-1.1v2.5h-1.1
		v2.5h-1.1v2.5H195v2.5h-0.7v9.8h0.7v2.5h1.1v2.5h1.1v2.5h1.1v2.5h1.1v2.5h1.1v6.4h2.2v-1.5h1.1v-2.5h1.1v-2.5h1.1v-2.5h1.1v-7.4
		h-1.1v2.5h-1.1v2.5h-1.1v2.5h-1.1v-2.5h-1.1V683h-1.1v-2.5h-1.1v-2.5h-1.1v-2.5h-1.1v-2.5h1.1v-2.5h1.1v-2.5h3.3v2.5h-2.2v2.5h1.1
		v2.5h1.1v2.5h1.1v-2.5h1.1v-2.5h1.1v-2.5h1.1V665.8z M206.9,675.6h-1.1v2.5h1.1V675.6z M195,683h-0.7v2.5h0.7V683z M197.2,687.9
		h-1.1v2.5H195v2.5h-0.7v3.9h0.7v-1.5h1.1v-2.5h1.1V687.9z M199.3,695.3h-1.1v1.5h1.1V695.3z"/>
	<polygon id="_x32_0" class="st3" points="188.5,638.6 187.4,638.6 187.4,636.2 186.3,636.2 186.3,633.7 185.2,633.7 185.2,631.3 
		186.3,631.3 186.3,628.8 187.4,628.8 187.4,626.3 188.5,626.3 188.5,628.8 189.6,628.8 189.6,631.3 190.7,631.3 190.7,633.7 
		189.6,633.7 189.6,636.2 188.5,636.2 	"/>
	<polygon id="_x31_9" class="st3" points="201.6,638.6 200.5,638.6 200.5,636.2 199.4,636.2 199.4,633.7 198.3,633.7 198.3,631.3 
		199.4,631.3 199.4,628.8 200.5,628.8 200.5,626.3 201.6,626.3 201.6,628.8 202.6,628.8 202.6,631.3 203.7,631.3 203.7,633.7 
		202.6,633.7 202.6,636.2 201.6,636.2 	"/>
	<rect id="_x31_8" x="187.4" y="631.3" class="st0" width="1.1" height="2.5"/>
	<rect id="_x31_7" x="200.4" y="631.3" class="st0" width="1.1" height="2.5"/>
	<rect id="_x31_6" x="203.7" y="648.7" class="st2" width="1.1" height="2.5"/>
	<rect id="_x31_5" x="197.1" y="648.5" class="st2" width="1.1" height="2.5"/>
	<rect id="_x31_4" x="190.7" y="648.5" class="st4" width="1.1" height="2.5"/>
	<rect id="_x31_3" x="184.1" y="648.5" class="st2" width="1.1" height="2.5"/>
	<path id="_x31_2" class="st0" d="M186.3,771.5h3.3V769h1.1v-2.5h1.1v-2.5h1.1v-2.5h1.1v-2.5h-1.1v-2.5h-1.1v-2.5h-1.1v-2.5h-1.1
		v-2.5h-1.1v-2.5h-1.1v2.5h-1.1v2.5h-1.1v2.5h-1.1v2.5H183v2.5h-1.1v2.5h1.1v2.5h1.1v2.5h1.1v2.5h1.1V771.5z M187.4,766.6h1.1v-2.5
		h1.1v-2.5h1.1v-2.5h-1.1v-2.5h-1.1v-2.5h-1.1v2.5h-1.1v2.5h-1.1v2.5h1.1v2.5h1.1V766.6z M187.4,761.7h1.1v-2.5h-1.1V761.7z
		 M181.9,769h1.1v-2.5h-1.1V769z M181.9,754.3h1.1v-2.5h-1.1V754.3z M193.9,771.5h0.7v-4.9h-0.7V771.5z M193.9,754.3h0.7v-4.9h-0.7
		V754.3z M184.1,749.4h1.1v-2.5h1.1v-2.5h1.1V742h-1.1v-2.5h-1.1v-2.5h-1.1v2.5H183v2.5h-1.1v2.5h1.1v2.5h1.1V749.4z M184.1,744.5
		h1.1V742h-1.1V744.5z M190.6,749.4h1.1v-2.5h1.1v-2.5h1.1V742h-1.1v-2.5h-1.1v-2.5h-1.1v2.5h-1.1v2.5h-1.1v2.5h1.1v2.5h1.1V749.4z
		 M190.6,744.5h1.1V742h-1.1V744.5z M181.9,734.6h1.1v-2.5h-1.1V734.6z M193.9,737.1h0.7v-4.9h-0.7V737.1z"/>
	<path id="_x31_1" class="st0" d="M181.9,727.2h1.1v2.5h1.1v2.5h1.1v2.5h1.1v2.5h1.1v2.5h1.1v-2.5h1.1v-2.5h1.1v-2.5h1.1v-2.5h1.1
		v-2.5h1.1v-2.5h0.7v-9.8h-0.7v-2.5h-1.1V710h-1.1v-2.5h-1.1v-2.5h-1.1v-2.5h-1.1v-6.4h-2.2v1.5h-1.1v2.5h-1.1v2.5H183v2.5h-1.1v7.4
		h1.1V710h1.1v-2.5h1.1v-2.5h1.1v2.5h1.1v2.5h1.1v2.5h1.1v2.5h1.1v2.5h1.1v2.5h-1.1v2.5h-1.1v2.5h-3.3v-2.5h2.2v-2.5h-1.1v-2.5h-1.1
		v-2.5h-1.1v2.5h-1.1v2.5H183v2.5h-1.1V727.2z M181.9,717.4h1.1v-2.5h-1.1V717.4z M193.9,710h0.7v-2.5h-0.7V710z M191.7,705.1h1.1
		v-2.5h1.1v-2.5h0.7v-3.9h-0.7v1.5h-1.1v2.5h-1.1V705.1z M189.5,697.7h1.1v-1.5h-1.1V697.7z"/>
	<path id="_x31_0" class="st0" d="M202.6,771.5h-3.3V769h-1.1v-2.5h-1.1v-2.5h-1.1v-2.5H195v-2.5h1.1v-2.5h1.1v-2.5h1.1v-2.5h1.1
		v-2.5h1.1v-2.5h1.1v2.5h1.1v2.5h1.1v2.5h1.1v2.5h1.1v2.5h1.1v2.5h-1.1v2.5h-1.1v2.5h-1.1v2.5h-1.1V771.5z M201.5,766.6h-1.1v-2.5
		h-1.1v-2.5h-1.1v-2.5h1.1v-2.5h1.1v-2.5h1.1v2.5h1.1v2.5h1.1v2.5h-1.1v2.5h-1.1V766.6z M201.5,761.7h-1.1v-2.5h1.1V761.7z
		 M206.9,769h-1.1v-2.5h1.1V769z M206.9,754.3h-1.1v-2.5h1.1V754.3z M195,771.5h-0.7v-4.9h0.7V771.5z M195,754.3h-0.7v-4.9h0.7
		V754.3z M204.8,749.4h-1.1v-2.5h-1.1v-2.5h-1.1V742h1.1v-2.5h1.1v-2.5h1.1v2.5h1.1v2.5h1.1v2.5h-1.1v2.5h-1.1V749.4z M204.8,744.5
		h-1.1V742h1.1V744.5z M198.2,749.4h-1.1v-2.5h-1.1v-2.5H195V742h1.1v-2.5h1.1v-2.5h1.1v2.5h1.1v2.5h1.1v2.5h-1.1v2.5h-1.1V749.4z
		 M198.2,744.5h-1.1V742h1.1V744.5z M206.9,734.6h-1.1v-2.5h1.1V734.6z M195,737.1h-0.7v-4.9h0.7V737.1z"/>
	<path id="_x39_" class="st0" d="M206.9,727.2h-1.1v2.5h-1.1v2.5h-1.1v2.5h-1.1v2.5h-1.1v2.5h-1.1v-2.5h-1.1v-2.5h-1.1v-2.5h-1.1
		v-2.5h-1.1v-2.5H195v-2.5h-0.7v-9.8h0.7v-2.5h1.1V710h1.1v-2.5h1.1v-2.5h1.1v-2.5h1.1v-6.4h2.2v1.5h1.1v2.5h1.1v2.5h1.1v2.5h1.1
		v7.4h-1.1V710h-1.1v-2.5h-1.1v-2.5h-1.1v2.5h-1.1v2.5h-1.1v2.5h-1.1v2.5h-1.1v2.5h-1.1v2.5h1.1v2.5h1.1v2.5h3.3v-2.5h-2.2v-2.5h1.1
		v-2.5h1.1v-2.5h1.1v2.5h1.1v2.5h1.1v2.5h1.1V727.2z M206.9,717.4h-1.1v-2.5h1.1V717.4z M195,710h-0.7v-2.5h0.7V710z M197.2,705.1
		h-1.1v-2.5H195v-2.5h-0.7v-3.9h0.7v1.5h1.1v2.5h1.1V705.1z M199.3,697.7h-1.1v-1.5h1.1V697.7z"/>
	<polygon id="_x38_" class="st3" points="200.4,754.4 201.5,754.4 201.5,756.8 202.5,756.8 202.5,759.3 203.6,759.3 203.6,761.7 
		202.5,761.7 202.5,764.2 201.5,764.2 201.5,766.7 200.4,766.7 200.4,764.2 199.3,764.2 199.3,761.7 198.2,761.7 198.2,759.3 
		199.3,759.3 199.3,756.8 200.4,756.8 	"/>
	<polygon id="_x37_" class="st3" points="187.3,754.4 188.4,754.4 188.4,756.8 189.5,756.8 189.5,759.3 190.6,759.3 190.6,761.7 
		189.5,761.7 189.5,764.2 188.4,764.2 188.4,766.7 187.3,766.7 187.3,764.2 186.2,764.2 186.2,761.7 185.1,761.7 185.1,759.3 
		186.2,759.3 186.2,756.8 187.3,756.8 	"/>
	<rect id="_x36_" x="200.4" y="759.3" class="st0" width="1.1" height="2.5"/>
	<rect id="_x35_" x="187.4" y="759.2" class="st0" width="1.1" height="2.5"/>
	<rect id="_x34_" x="184.1" y="741.9" class="st2" width="1.1" height="2.5"/>
	<rect id="_x33_" x="190.7" y="742" class="st2" width="1.1" height="2.5"/>
	<rect id="_x32_" x="197.1" y="742" class="st4" width="1.1" height="2.5"/>
	<rect id="_x31_" x="203.6" y="742" class="st2" width="1.1" height="2.5"/>
</g>
</svg>
