<?xml version="1.0" encoding="utf-8"?>
<!-- Generator: Adobe Illustrator 23.1.1, SVG Export Plug-In . SVG Version: 6.00 Build 0)  -->
<svg version="1.1"
	 id="svg2" inkscape:version="0.48.4 r9939" sodipodi:docname="中華奧委會.svg" xmlns:cc="http://creativecommons.org/ns#" xmlns:dc="http://purl.org/dc/elements/1.1/" xmlns:inkscape="http://www.inkscape.org/namespaces/inkscape" xmlns:rdf="http://www.w3.org/1999/02/22-rdf-syntax-ns#" xmlns:sodipodi="http://sodipodi.sourceforge.net/DTD/sodipodi-0.dtd" xmlns:svg="http://www.w3.org/2000/svg"
	 xmlns="http://www.w3.org/2000/svg" xmlns:xlink="http://www.w3.org/1999/xlink" x="0px" y="0px" viewBox="0 0 6480 4320"
	 style="enable-background:new 0 0 6480 4320;" xml:space="preserve">
<style type="text/css">
	.st0{fill:#FFFFFF;}
	.st1{fill:#29166F;}
	.st2{fill:#DA251D;}
	.st3{fill:#0077BD;}
	.st4{fill:#F1A737;}
	.st5{fill:#009240;}
</style>
<sodipodi:namedview  bordercolor="#666666" borderopacity="1" fit-margin-bottom="0" fit-margin-left="0" fit-margin-right="0" fit-margin-top="0" gridtolerance="10" guidetolerance="10" id="namedview39" inkscape:current-layer="svg2" inkscape:cx="404.82558" inkscape:cy="339.98977" inkscape:pageopacity="0" inkscape:pageshadow="2" inkscape:window-height="1028" inkscape:window-maximized="1" inkscape:window-width="1920" inkscape:window-x="-8" inkscape:window-y="-8" inkscape:zoom="1" objecttolerance="10" pagecolor="#ffffff" showgrid="false">
	</sodipodi:namedview>
<g id="g3813" transform="matrix(3.3855264,0,0,3.3855264,3521.032,0)">
	<rect x="-1039.9" y="0" class="st0" width="1913.7" height="1276"/>
	<g id="g10">
		
			<ellipse sodipodi:cx="0" sodipodi:cy="631" sodipodi:rx="433" sodipodi:ry="433" class="st1" cx="-83.3" cy="408.9" rx="280.6" ry="280.6">
		</ellipse>
		<path inkscape:connector-curvature="0" class="st1" d="M-591.4,497.1c48-146.5,206.7-227.5,353.8-180.2
			c146.5,48,227.5,206.7,180.2,353.8c-48,147.1-206.7,228.1-353.8,180.2S-639.4,644.2-591.4,497.1z"/>
		<path inkscape:connector-curvature="0" class="st1" d="M-397.6,1094.6c-125.1-90.7-152.9-267-61.6-392.1
			c90.7-125.1,267-152.9,391.4-62.2c125.1,91.4,152.9,267,62.2,392.1S-272.6,1185.3-397.6,1094.6z"/>
		<path inkscape:connector-curvature="0" class="st1" d="M231,1094.6c-125.1,90.7-301.3,62.9-392.1-62.2S-224,731.7-98.9,640.3
			c124.4-90.7,300.7-62.9,391.4,62.2C383.9,827.6,356,1003.8,231,1094.6z"/>
		<path inkscape:connector-curvature="0" class="st1" d="M424.7,497.1c48,147.1-33.1,305.9-180.2,353.8s-305.9-33.1-353.8-180.2
			c-47.3-147.1,33.7-305.9,180.2-353.8C218,269.6,376.8,350.6,424.7,497.1z"/>
	</g>
	<g id="g17">
		
			<ellipse sodipodi:cx="0" sodipodi:cy="631" sodipodi:rx="366" sodipodi:ry="366" class="st0" cx="-83.3" cy="408.9" rx="237.2" ry="237.2">
		</ellipse>
		<path inkscape:connector-curvature="0" class="st0" d="M-549.9,510.7c40.2-124.4,174.3-192.5,298.8-152.3s192.5,175,152.3,298.8
			c-40.2,124.4-175,193.1-298.8,152.3C-522.1,769.2-590.8,635.1-549.9,510.7z"/>
		<path inkscape:connector-curvature="0" class="st0" d="M-371.7,1059.6c-105.6-76.5-129.6-225.5-52.5-331.2
			c76.5-106.3,225.5-129.6,331.2-52.5c105.6,76.5,129.6,225.5,52.5,331.2C-117,1112.7-266.1,1136.7-371.7,1059.6z"/>
		<path inkscape:connector-curvature="0" class="st0" d="M205.1,1059.6c-105.6,77.1-254.7,53.1-331.2-52.5
			c-77.1-105.6-53.1-254.7,52.5-331.2c105.6-77.1,254.7-53.8,331.2,52.5C334.7,834,310.7,983.1,205.1,1059.6z"/>
		<path inkscape:connector-curvature="0" class="st0" d="M383.3,510.7c40.8,124.4-27.9,258.6-152.3,298.8
			C107.2,850.2-27.6,781.6-67.8,657.1C-108,533.3-39.9,398.6,84.5,358.4S343.1,386.2,383.3,510.7z"/>
	</g>
	<path inkscape:connector-curvature="0" class="st2" d="M365.1,516.5c33.1,101.7-14.3,210.6-106.9,256.6c47.3,92,22,208-64.2,270.9
		s-204.8,51.2-277.4-22.7c-72.6,73.9-191.2,85.5-277.4,22.7s-111.5-178.9-64.2-270.9c-92.7-46-140-154.9-106.9-256.6
		C-498.7,415.4-396.3,355.1-294,372C-279,269.6-190.3,190.5-83.3,190.5S112.4,269.6,127.3,372C229.7,355.1,332.1,415.4,365.1,516.5z
		"/>
	<path inkscape:connector-curvature="0" class="st0" d="M337.9,525.6c31.1,96.6-22,200.9-118.6,232.7c-1.3,0.6-2.6,0.6-3.9,1.3
		c0.6,1.3,1.3,2.6,2.6,3.2c59.6,82.3,40.8,198.3-40.8,257.9c-82.3,59.6-198.3,41.5-257.9-40.8c-0.6-1.3-1.9-2.6-2.6-3.9
		c-0.6,1.3-1.9,2.6-2.6,3.9c-59.6,82.3-175.6,100.4-257.9,40.8c-81.7-59.6-100.4-175.6-40.8-257.9c1.3-0.6,1.9-1.9,2.6-3.2
		c-1.3-0.6-2.6-0.6-3.9-1.3c-96.6-31.8-149.7-136.1-118.6-232.7C-472.8,429-368.5,375.9-271.9,407c1.3,0.6,2.6,1.3,3.9,1.9
		c0-1.9,0-3.2,0-4.5c0-101.7,83-184.7,184.7-184.7s184.7,83,184.7,184.7c0,1.3,0,2.6,0,3.9c1.3,0,2.6-0.6,3.9-1.3
		C201.8,375.9,306.1,429,337.9,525.6z"/>
	
		<ellipse sodipodi:cx="0" sodipodi:cy="787" sodipodi:rx="231" sodipodi:ry="231" class="st1" cx="-83.3" cy="510" rx="149.7" ry="149.7">
	</ellipse>
	<g id="g27">
		
			<ellipse sodipodi:cx="0" sodipodi:cy="787" sodipodi:rx="103" sodipodi:ry="103" class="st0" cx="-83.3" cy="510" rx="66.7" ry="66.7">
		</ellipse>
		<path inkscape:connector-curvature="0" class="st0" d="M-83.3,376.5l15.6,59.6c-4.5-1.3-10.4-1.9-15.6-1.9s-11,0.6-15.6,1.9
			L-83.3,376.5z M-60,438.1l43.4-44.1l-16.2,59.6C-40.6,447.2-49.6,441.3-60,438.1z M-27,459.5l59.6-16.2l-44.1,43.4
			C-14.6,476.3-19.8,467.2-27,459.5z M-8.8,494.5L50.8,510l-59.6,16.2c0.6-5.2,1.3-10.4,1.3-16.2C-7.5,504.8-8.2,499.7-8.8,494.5z
			 M-11.4,533.3l44.1,44.1L-27,561.2C-19.8,553.4-14.6,543.7-11.4,533.3z M-32.8,566.4l16.2,59.6L-60,582.6
			C-49.6,579.4-40.6,573.5-32.8,566.4z M-67.8,584.5l-15.6,59.6l-15.6-59.6c4.5,1.3,10.4,1.3,15.6,1.3S-72.3,585.8-67.8,584.5z
			 M-106.7,582.6l-43.4,43.4l16.2-59.6C-126.1,573.5-117,579.4-106.7,582.6z M-139.7,561.2l-59.6,16.2l44.1-44.1
			C-152,543.7-146.8,553.4-139.7,561.2z M-157.9,526.2l-59.6-16.2l59.6-15.6c-0.6,5.2-1.3,10.4-1.3,15.6
			C-159.2,515.9-158.5,521-157.9,526.2z M-155.3,486.7l-44.1-43.4l59.6,16.2C-146.8,467.2-152,476.3-155.3,486.7z M-133.9,453.6
			l-16.2-59.6l43.4,44.1C-117,441.3-126.1,447.2-133.9,453.6z"/>
	</g>
	<path inkscape:connector-curvature="0" class="st3" d="M-281,697.3c49.9,0,90.7,40.8,90.7,90.1c0,49.9-40.8,90.7-90.7,90.7
		s-90.7-40.8-90.7-90.7C-371.7,738.1-330.9,697.3-281,697.3z"/>
	<path inkscape:connector-curvature="0" class="st0" d="M-281,716.1c39.5,0,71.3,32.4,71.3,71.3c0,39.5-31.8,71.9-71.3,71.9
		s-71.3-32.4-71.3-71.9C-352.3,748.5-320.5,716.1-281,716.1z"/>
	<path inkscape:connector-curvature="0" d="M-83.3,697.3c49.9,0,90.7,40.8,90.7,90.1c0,49.9-40.8,90.7-90.7,90.7
		s-90.7-40.8-90.7-90.7C-174.1,738.1-133.2,697.3-83.3,697.3z"/>
	<path inkscape:connector-curvature="0" class="st0" d="M-83.3,716.1c39.5,0,71.3,32.4,71.3,71.3c0,39.5-31.8,71.9-71.3,71.9
		s-71.3-32.4-71.3-71.9C-154.6,748.5-122.9,716.1-83.3,716.1z"/>
	<path inkscape:connector-curvature="0" class="st2" d="M115,697.3c49.9,0,90.7,40.8,90.7,90.1c0,49.9-40.8,90.7-90.7,90.7
		s-90.7-40.8-90.7-90.7C24.2,738.1,65.1,697.3,115,697.3z"/>
	<path inkscape:connector-curvature="0" class="st0" d="M115,716.1c38.9,0,71.3,32.4,71.3,71.3c0,39.5-32.4,71.9-71.3,71.9
		c-39.5,0-71.3-32.4-71.3-71.9C43.7,748.5,75.4,716.1,115,716.1z"/>
	<path inkscape:connector-curvature="0" class="st4" d="M-182.5,779c46,0,84.2,35,90.1,79.7c-7.8-1.3-14.3-3.2-20.7-5.8
		c-7.8-31.8-35.6-55.1-69.3-55.1c-3.2,0-5.8,0-8.4,0.6c0-3.2,0.6-7.1,0.6-11c0-2.6-0.6-5.2-0.6-8.4C-188.3,779-185.1,779-182.5,779z
		 M-92.4,878.1c-4.5,45.4-43.4,81.7-90.1,81.7c-49.9,0-90.7-40.8-90.7-90.7c0-40.2,26.6-74.5,63.5-86.2c0,1.9,0,3.2,0,4.5
		c0,5.8-0.6,11.7-1.9,16.8c-24.6,11-42.1,36.3-42.1,64.8c0,39.5,31.8,71.9,71.3,71.9c37.6,0,68.7-29.8,71.3-67.4
		C-105.4,875.5-98.9,877.5-92.4,878.1z"/>
	<path inkscape:connector-curvature="0" class="st5" d="M15.8,779c46.7,0,84.9,35,90.1,79.7c-7.1-1.3-14.3-3.2-20.7-5.8
		c-7.1-31.8-35.6-55.1-69.3-55.1c-3.2,0-5.8,0.6-9.1,0.6c0-3.2,0.6-7.1,0.6-11c0-2.6,0-5.2-0.6-8.4C10,779,12.6,779,15.8,779z
		 M105.9,878.1c-3.9,45.4-42.8,81.7-90.1,81.7c-49.9,0-90.7-40.8-90.7-90.7c0-39.5,26.6-73.9,62.9-85.5c0,1.3,0,2.6,0,3.9
		c0,5.8-0.6,11.7-1.9,16.8c-24.6,11.7-41.5,36.3-41.5,64.8c0,39.5,31.8,71.9,71.3,71.9c38.2,0,68.7-29.8,71.3-66.7
		C93.6,876.2,99.4,877.5,105.9,878.1z"/>
</g>
</svg>
