<?xml version="1.0" encoding="utf-8"?>
<!-- Generator: Adobe Illustrator 23.1.1, SVG Export Plug-In . SVG Version: 6.00 Build 0)  -->
<svg version="1.1" id="Countryflags.com" xmlns="http://www.w3.org/2000/svg" xmlns:xlink="http://www.w3.org/1999/xlink" x="0px"
	 y="0px" viewBox="1131.6 1096.2 225.8 150.6" style="enable-background:new 1131.6 1096.2 225.8 150.6;" xml:space="preserve">
<style type="text/css">
	.st0{fill:#CC0001;}
	.st1{fill:#FFFFFF;}
	.st2{fill:#010066;}
	.st3{fill:#FFCC00;}
</style>
<g>
	<rect id="_x31_1" x="1131.6" y="1096.5" class="st0" width="225.8" height="150"/>
	<rect id="_x31_0" x="1131.6" y="1235.8" class="st1" width="225.8" height="10.7"/>
	<rect id="_x39_" x="1131.6" y="1214.4" class="st1" width="225.8" height="10.7"/>
	<rect id="_x38_" x="1131.6" y="1192.9" class="st1" width="225.8" height="10.7"/>
	<rect id="_x37_" x="1131.6" y="1171.5" class="st1" width="225.8" height="10.7"/>
	<rect id="_x36_" x="1131.6" y="1150.1" class="st1" width="225.8" height="10.7"/>
	<rect id="_x35_" x="1131.6" y="1128.6" class="st1" width="225.8" height="10.7"/>
	<rect id="_x34_" x="1131.6" y="1107.2" class="st1" width="225.8" height="10.7"/>
	<rect id="_x33_" x="1131.6" y="1096.5" class="st2" width="112.9" height="85.7"/>
	<path id="_x32_" class="st3" d="M1178,1107.2c-13.4,0-24.3,14.4-24.3,32.1s10.9,32.1,24.3,32.1c4.8,0,9.4-1.9,13.1-5.1
		c-2.2,1-4.6,1.6-7,1.6c-11.9,0-21.5-12.8-21.5-28.5s9.6-28.5,21.5-28.5c2.6,0,5.1,0.6,7.5,1.8
		C1187.7,1109.2,1183.1,1107.2,1178,1107.2z"/>
	<path id="_x31_" class="st3" d="M1218.3,1156.1l-10.2-7.1l3,14.5l-6.8-12.1l-2.1,14.8l-2.1-14.8l-6.9,12.1l3.1-14.5l-10.2,7
		l7.6-11.3l-11.6,0.6l10.7-5.9l-10.6-6l11.6,0.6l-7.6-11.4l10.2,7.1l-3-14.5l6.8,12.1l2.1-14.8l2.1,14.8l6.9-12.1l-3.1,14.5l10.2-7
		l-7.6,11.3l11.6-0.6l-10.7,5.9l10.6,6l-11.6-0.6L1218.3,1156.1z"/>
</g>
</svg>
